<svg xmlns="http://www.w3.org/2000/svg" viewBox="0 0 1200 800" fill="none">
  <defs>
    <radialGradient id="g1" cx="50%" cy="50%"><stop offset="0%" stop-color="#FF3D2E" stop-opacity="0.6"/><stop offset="100%" stop-color="#FF3D2E" stop-opacity="0"/></radialGradient>
    <linearGradient id="g2" x1="0" y1="0" x2="1" y2="1"><stop offset="0%" stop-color="#FF3D2E"/><stop offset="100%" stop-color="#FFA800"/></linearGradient>
  </defs>
  <rect width="1200" height="800" fill="#050505"/>
  <circle cx="600" cy="400" r="300" fill="url(#g1)"/>
  <g stroke="#FF3D2E" stroke-width="1" opacity="0.3">
    <circle cx="600" cy="400" r="100" fill="none"/>
    <circle cx="600" cy="400" r="200" fill="none"/>
    <circle cx="600" cy="400" r="300" fill="none"/>
    <circle cx="600" cy="400" r="400" fill="none"/>
  </g>
  <g fill="url(#g2)">
    <circle cx="600" cy="400" r="8"/>
    <circle cx="450" cy="250" r="4"/>
    <circle cx="750" cy="550" r="4"/>
    <circle cx="350" cy="500" r="3"/>
    <circle cx="850" cy="300" r="3"/>
    <circle cx="600" cy="200" r="2"/>
    <circle cx="600" cy="600" r="2"/>
  </g>
  <g stroke="#FF3D2E" stroke-width="0.5" opacity="0.4">
    <line x1="600" y1="400" x2="450" y2="250"/>
    <line x1="600" y1="400" x2="750" y2="550"/>
    <line x1="600" y1="400" x2="350" y2="500"/>
    <line x1="600" y1="400" x2="850" y2="300"/>
  </g>
  <text x="100" y="100" font-family="monospace" font-size="11" fill="#666" letter-spacing="2">SCREENS_TO_SKILLS.DAT</text>
  <text x="100" y="750" font-family="monospace" font-size="11" fill="#666" letter-spacing="2">145_RESPONSES · 8_AI_TOOLS · 1_TRUTH</text>
</svg>
