<svg xmlns="http://www.w3.org/2000/svg" viewBox="0 0 1000 1000"><rect width="1000" height="1000" fill="#050505"/><circle cx="650" cy="500" r="33.333333333333336" fill="#FF3D2E" opacity="0.7"/><rect x="696.0838129272975" y="512.2623890978111" width="60" height="60" fill="#FF3D2E" opacity="0.7" transform="rotate(15 726.0838129272975 542.2623890978111)"/><polygon points="789.0663911153504,571.9849165180174 824.0663911153504,631.9849165180174 754.0663911153504,631.9849165180174" fill="#00E1FF" opacity="0.7"/><line x1="577.5325703594422" y1="578.9648244316033" x2="677.5325703594422" y2="578.9648244316033" stroke="#FF3D2E" stroke-width="4" opacity="0.8"/><circle cx="669.9720509607516" cy="654.9499980387081" r="33.333333333333336" fill="#FF3D2E" opacity="0.7"/><rect x="656.8167372775695" y="717.3853404568742" width="60" height="60" fill="#FF3D2E" opacity="0.7" transform="rotate(75 686.8167372775695 747.3853404568742)"/><polygon points="566.8607533664807,594.2744937032594 601.8607533664807,654.2744937032594 531.8607533664807,654.2744937032594" fill="#00E1FF" opacity="0.7"/><line x1="512.9424877165791" y1="721.2198979297484" x2="612.9424877165791" y2="721.2198979297484" stroke="#FFA800" stroke-width="4" opacity="0.8"/><circle cx="528.6031914336236" cy="808.6775946514607" r="33.333333333333336" fill="#FFA800" opacity="0.7"/><rect x="456.1597460805047" y="619.3601264442552" width="60" height="60" fill="#FFA800" opacity="0.7" transform="rotate(135 486.1597460805047 649.3601264442552)"/><polygon points="437.0575122834209,681.2198979297484 472.0575122834209,741.2198979297484 402.0575122834209,741.2198979297484" fill="#FF3D2E" opacity="0.7"/><line x1="311.8211097092732" y1="777.5006203200694" x2="411.8211097092732" y2="777.5006203200694" stroke="#FF3D2E" stroke-width="4" opacity="0.8"/><circle cx="409.6048045431115" cy="619.702584092036" r="33.333333333333336" fill="#00E1FF" opacity="0.7"/><rect x="300.0279490392484" y="624.9499980387081" width="60" height="60" fill="#FF3D2E" opacity="0.7" transform="rotate(195 330.0279490392484 654.9499980387081)"/><polygon points="236.43268792381969,623.1939704919804 271.4326879238197,683.1939704919804 201.43268792381969,683.1939704919804" fill="#FFA800" opacity="0.7"/><line x1="310.12916558934666" y1="554.186249928073" x2="410.12916558934666" y2="554.186249928073" stroke="#00E1FF" stroke-width="4" opacity="0.8"/><circle cx="273.9161870727026" cy="542.2623890978111" r="33.333333333333336" fill="#FF3D2E" opacity="0.7"/><rect x="160" y="470.00000000000006" width="60" height="60" fill="#FFA800" opacity="0.7" transform="rotate(255 190 500.00000000000006)"/><polygon points="352.55403504741474,432.4375723275145 387.55403504741474,492.4375723275145 317.55403504741474,492.4375723275145" fill="#FF3D2E" opacity="0.7"/><line x1="235.53138723699817" y1="416.9144167769548" x2="335.53138723699817" y2="416.9144167769548" stroke="#00E1FF" stroke-width="4" opacity="0.8"/><circle cx="236.43268792381963" cy="336.8060295080197" r="33.333333333333336" fill="#00E1FF" opacity="0.7"/><rect x="359.1486624169011" y="368.9456534530164" width="60" height="60" fill="#FFA800" opacity="0.7" transform="rotate(315 389.1486624169011 398.9456534530164)"/><polygon points="361.39403363277097,276.4560377255449 396.39403363277097,336.4560377255449 326.39403363277097,336.4560377255449" fill="#FFA800" opacity="0.7"/><line x1="311.8211097092732" y1="222.49937967993066" x2="411.8211097092732" y2="222.49937967993066" stroke="#00E1FF" stroke-width="4" opacity="0.8"/><circle cx="458.95055148918755" cy="355.7261535240772" r="33.333333333333336" fill="#FF3D2E" opacity="0.7"/><rect x="448.77827732344053" y="240.9811394521421" width="60" height="60" fill="#00E1FF" opacity="0.7" transform="rotate(375 478.77827732344053 270.9811394521421)"/><polygon points="528.6031914336235,151.3224053485393 563.6031914336235,211.3224053485393 493.60319143362346,211.3224053485393" fill="#FFA800" opacity="0.7"/><line x1="491.04944851081245" y1="355.7261535240772" x2="591.0494485108125" y2="355.7261535240772" stroke="#00E1FF" stroke-width="4" opacity="0.8"/><circle cx="602.5198218286037" cy="294.1124429883356" r="33.333333333333336" fill="#FF3D2E" opacity="0.7"/><rect x="656.8167372775695" y="222.6146595431257" width="60" height="60" fill="#00E1FF" opacity="0.7" transform="rotate(435 686.8167372775695 252.6146595431257)"/><polygon points="610.8513375830988,358.94565345301635 645.8513375830988,418.94565345301635 575.8513375830988,418.94565345301635" fill="#FFA800" opacity="0.7"/><line x1="645.5499412178112" y1="378.9206025382081" x2="745.5499412178112" y2="378.9206025382081" stroke="#00E1FF" stroke-width="4" opacity="0.8"/><circle cx="789.0663911153504" cy="388.0150834819826" r="33.333333333333336" fill="#FF3D2E" opacity="0.7"/><rect x="617.4459649525852" y="442.4375723275144" width="60" height="60" fill="#00E1FF" opacity="0.7" transform="rotate(495 647.4459649525852 472.4375723275144)"/><circle cx="500" cy="500" r="80" fill="#F5F5F5" opacity="0.9"/><circle cx="500" cy="500" r="40" fill="#050505"/></svg>