<svg xmlns="http://www.w3.org/2000/svg" viewBox="0 0 1000 1000"><rect width="1000" height="1000" fill="#050505"/><line x1="234" y1="580" x2="144" y2="597" stroke="#00E1FF" stroke-width="0.5" opacity="0.5420425783983843"/><line x1="234" y1="580" x2="122" y2="639" stroke="#00E1FF" stroke-width="0.5" opacity="0.3670505549413918"/><line x1="234" y1="580" x2="412" y2="549" stroke="#00E1FF" stroke-width="0.5" opacity="0.09660363073565548"/><line x1="234" y1="580" x2="109" y2="714" stroke="#00E1FF" stroke-width="0.5" opacity="0.08374403139733932"/><line x1="234" y1="580" x2="159" y2="613" stroke="#00E1FF" stroke-width="0.5" opacity="0.5903049914875701"/><line x1="234" y1="580" x2="127" y2="662" stroke="#00E1FF" stroke-width="0.5" opacity="0.3259636508317968"/><line x1="234" y1="580" x2="183" y2="497" stroke="#00E1FF" stroke-width="0.5" opacity="0.5129168448816979"/><line x1="234" y1="580" x2="406" y2="483" stroke="#00E1FF" stroke-width="0.5" opacity="0.012667735764702148"/><line x1="144" y1="597" x2="122" y2="639" stroke="#00E1FF" stroke-width="0.5" opacity="0.762934608177406"/><line x1="144" y1="597" x2="116" y2="409" stroke="#00E1FF" stroke-width="0.5" opacity="0.04963165035866224"/><line x1="144" y1="597" x2="109" y2="714" stroke="#00E1FF" stroke-width="0.5" opacity="0.3893855553624693"/><line x1="144" y1="597" x2="159" y2="613" stroke="#00E1FF" stroke-width="0.5" opacity="0.8903414390026935"/><line x1="144" y1="597" x2="127" y2="662" stroke="#00E1FF" stroke-width="0.5" opacity="0.6640684593551835"/><line x1="144" y1="597" x2="183" y2="497" stroke="#00E1FF" stroke-width="0.5" opacity="0.46332039353073984"/><line x1="122" y1="639" x2="109" y2="714" stroke="#00E1FF" stroke-width="0.5" opacity="0.6194083553202987"/><line x1="122" y1="639" x2="159" y2="613" stroke="#00E1FF" stroke-width="0.5" opacity="0.7738916189080998"/><line x1="122" y1="639" x2="127" y2="662" stroke="#00E1FF" stroke-width="0.5" opacity="0.8823139770406018"/><line x1="122" y1="639" x2="183" y2="497" stroke="#00E1FF" stroke-width="0.5" opacity="0.22726136371991856"/><line x1="116" y1="409" x2="183" y2="497" stroke="#00E1FF" stroke-width="0.5" opacity="0.4469855336431062"/><line x1="603" y1="776" x2="597" y2="596" stroke="#00E1FF" stroke-width="0.5" opacity="0.09950013881178199"/><line x1="603" y1="776" x2="464" y2="812" stroke="#00E1FF" stroke-width="0.5" opacity="0.28206894481433664"/><line x1="603" y1="776" x2="531" y2="727" stroke="#00E1FF" stroke-width="0.5" opacity="0.5645404726039399"/><line x1="603" y1="776" x2="687" y2="619" stroke="#00E1FF" stroke-width="0.5" opacity="0.10970510503541575"/><line x1="603" y1="776" x2="621" y2="670" stroke="#00E1FF" stroke-width="0.5" opacity="0.46241279777137556"/><line x1="129" y1="150" x2="217" y2="149" stroke="#00E1FF" stroke-width="0.5" opacity="0.5599715918261641"/><line x1="129" y1="150" x2="227" y2="129" stroke="#00E1FF" stroke-width="0.5" opacity="0.4988762627853277"/><line x1="129" y1="150" x2="293" y2="257" stroke="#00E1FF" stroke-width="0.5" opacity="0.020906031067497555"/><line x1="403" y1="271" x2="298" y2="307" stroke="#00E1FF" stroke-width="0.5" opacity="0.44499999999999995"/><line x1="403" y1="271" x2="420" y2="194" stroke="#00E1FF" stroke-width="0.5" opacity="0.6057285199256734"/><line x1="403" y1="271" x2="435" y2="197" stroke="#00E1FF" stroke-width="0.5" opacity="0.5968871125850725"/><line x1="403" y1="271" x2="513" y2="149" stroke="#00E1FF" stroke-width="0.5" opacity="0.1786596320647572"/><line x1="403" y1="271" x2="488" y2="438" stroke="#00E1FF" stroke-width="0.5" opacity="0.06306350268548078"/><line x1="403" y1="271" x2="293" y2="257" stroke="#00E1FF" stroke-width="0.5" opacity="0.4455633489748355"/><line x1="403" y1="271" x2="465" y2="248" stroke="#00E1FF" stroke-width="0.5" opacity="0.6693566876526913"/><line x1="403" y1="271" x2="446" y2="290" stroke="#00E1FF" stroke-width="0.5" opacity="0.7649468145291368"/><line x1="403" y1="271" x2="473" y2="384" stroke="#00E1FF" stroke-width="0.5" opacity="0.33537604617347716"/><line x1="298" y1="307" x2="420" y2="194" stroke="#00E1FF" stroke-width="0.5" opacity="0.1685404399491217"/><line x1="298" y1="307" x2="435" y2="197" stroke="#00E1FF" stroke-width="0.5" opacity="0.12152120116647103"/><line x1="298" y1="307" x2="217" y2="149" stroke="#00E1FF" stroke-width="0.5" opacity="0.11223595477176473"/><line x1="298" y1="307" x2="227" y2="129" stroke="#00E1FF" stroke-width="0.5" opacity="0.04181160516316007"/><line x1="298" y1="307" x2="293" y2="257" stroke="#00E1FF" stroke-width="0.5" opacity="0.7487531094719777"/><line x1="298" y1="307" x2="465" y2="248" stroke="#00E1FF" stroke-width="0.5" opacity="0.11442109329546468"/><line x1="298" y1="307" x2="446" y2="290" stroke="#00E1FF" stroke-width="0.5" opacity="0.25513424028218334"/><line x1="298" y1="307" x2="473" y2="384" stroke="#00E1FF" stroke-width="0.5" opacity="0.04404498013766356"/><line x1="841" y1="442" x2="720" y2="419" stroke="#00E1FF" stroke-width="0.5" opacity="0.3841672304919136"/><line x1="841" y1="442" x2="753" y2="495" stroke="#00E1FF" stroke-width="0.5" opacity="0.4863610217282961"/><line x1="841" y1="442" x2="831" y2="472" stroke="#00E1FF" stroke-width="0.5" opacity="0.841886116991581"/><line x1="841" y1="442" x2="705" y2="487" stroke="#00E1FF" stroke-width="0.5" opacity="0.2837423647876416"/><line x1="412" y1="549" x2="597" y2="596" stroke="#00E1FF" stroke-width="0.5" opacity="0.04561538151539768"/><line x1="412" y1="549" x2="488" y2="438" stroke="#00E1FF" stroke-width="0.5" opacity="0.3273745470174356"/><line x1="412" y1="549" x2="473" y2="384" stroke="#00E1FF" stroke-width="0.5" opacity="0.12042623959101628"/><line x1="412" y1="549" x2="406" y2="483" stroke="#00E1FF" stroke-width="0.5" opacity="0.6686391694843822"/><line x1="412" y1="549" x2="519" y2="439" stroke="#00E1FF" stroke-width="0.5" opacity="0.2327158283921139"/><line x1="412" y1="549" x2="527" y2="541" stroke="#00E1FF" stroke-width="0.5" opacity="0.42361037483313435"/><line x1="720" y1="419" x2="679" y2="299" stroke="#00E1FF" stroke-width="0.5" opacity="0.365945585931302"/><line x1="720" y1="419" x2="753" y2="495" stroke="#00E1FF" stroke-width="0.5" opacity="0.5857235222704529"/><line x1="720" y1="419" x2="831" y2="472" stroke="#00E1FF" stroke-width="0.5" opacity="0.3849796751326018"/><line x1="720" y1="419" x2="705" y2="487" stroke="#00E1FF" stroke-width="0.5" opacity="0.6518261928289263"/><line x1="679" y1="299" x2="705" y2="487" stroke="#00E1FF" stroke-width="0.5" opacity="0.0510532154014115"/><line x1="109" y1="714" x2="159" y2="613" stroke="#00E1FF" stroke-width="0.5" opacity="0.4365064330447064"/><line x1="109" y1="714" x2="127" y2="662" stroke="#00E1FF" stroke-width="0.5" opacity="0.7248636701560479"/><line x1="109" y1="714" x2="113" y2="892" stroke="#00E1FF" stroke-width="0.5" opacity="0.10977530926175716"/><line x1="597" y1="596" x2="753" y2="495" stroke="#00E1FF" stroke-width="0.5" opacity="0.07079334914132263"/><line x1="597" y1="596" x2="488" y2="438" stroke="#00E1FF" stroke-width="0.5" opacity="0.04024742771899792"/><line x1="597" y1="596" x2="531" y2="727" stroke="#00E1FF" stroke-width="0.5" opacity="0.26656629474778015"/><line x1="597" y1="596" x2="687" y2="619" stroke="#00E1FF" stroke-width="0.5" opacity="0.5355379455757445"/><line x1="597" y1="596" x2="621" y2="670" stroke="#00E1FF" stroke-width="0.5" opacity="0.6110269932244654"/><line x1="597" y1="596" x2="705" y2="487" stroke="#00E1FF" stroke-width="0.5" opacity="0.23278099606435698"/><line x1="597" y1="596" x2="519" y2="439" stroke="#00E1FF" stroke-width="0.5" opacity="0.12345850069720032"/><line x1="597" y1="596" x2="527" y2="541" stroke="#00E1FF" stroke-width="0.5" opacity="0.5548876546308786"/><line x1="464" y1="812" x2="289" y2="887" stroke="#00E1FF" stroke-width="0.5" opacity="0.04802836176701153"/><line x1="464" y1="812" x2="531" y2="727" stroke="#00E1FF" stroke-width="0.5" opacity="0.4588438303040424"/><line x1="420" y1="194" x2="435" y2="197" stroke="#00E1FF" stroke-width="0.5" opacity="0.9235147072961082"/><line x1="420" y1="194" x2="534" y2="114" stroke="#00E1FF" stroke-width="0.5" opacity="0.3036523856578526"/><line x1="420" y1="194" x2="513" y2="149" stroke="#00E1FF" stroke-width="0.5" opacity="0.4834247392683231"/><line x1="420" y1="194" x2="293" y2="257" stroke="#00E1FF" stroke-width="0.5" opacity="0.2911629242202409"/><line x1="420" y1="194" x2="465" y2="248" stroke="#00E1FF" stroke-width="0.5" opacity="0.6485387645842005"/><line x1="420" y1="194" x2="446" y2="290" stroke="#00E1FF" stroke-width="0.5" opacity="0.5027073296337458"/><line x1="420" y1="194" x2="473" y2="384" stroke="#00E1FF" stroke-width="0.5" opacity="0.013731780903389224"/><line x1="289" y1="887" x2="113" y2="892" stroke="#00E1FF" stroke-width="0.5" opacity="0.11964495798569985"/><line x1="435" y1="197" x2="534" y2="114" stroke="#00E1FF" stroke-width="0.5" opacity="0.35405108561125365"/><line x1="435" y1="197" x2="513" y2="149" stroke="#00E1FF" stroke-width="0.5" opacity="0.5420698743257876"/><line x1="435" y1="197" x2="293" y2="257" stroke="#00E1FF" stroke-width="0.5" opacity="0.2292211730982746"/><line x1="435" y1="197" x2="465" y2="248" stroke="#00E1FF" stroke-width="0.5" opacity="0.7041537561502598"/><line x1="435" y1="197" x2="446" y2="290" stroke="#00E1FF" stroke-width="0.5" opacity="0.5317586092622738"/><line x1="435" y1="197" x2="473" y2="384" stroke="#00E1FF" stroke-width="0.5" opacity="0.0458904675038615"/><line x1="159" y1="613" x2="127" y2="662" stroke="#00E1FF" stroke-width="0.5" opacity="0.7073825022320094"/><line x1="159" y1="613" x2="183" y2="497" stroke="#00E1FF" stroke-width="0.5" opacity="0.40771628420156614"/><line x1="217" y1="149" x2="227" y2="129" stroke="#00E1FF" stroke-width="0.5" opacity="0.8881966011250105"/><line x1="217" y1="149" x2="293" y2="257" stroke="#00E1FF" stroke-width="0.5" opacity="0.33969703923123296"/><line x1="753" y1="495" x2="831" y2="472" stroke="#00E1FF" stroke-width="0.5" opacity="0.5933982292217606"/><line x1="753" y1="495" x2="687" y2="619" stroke="#00E1FF" stroke-width="0.5" opacity="0.2976468124938849"/><line x1="753" y1="495" x2="705" y2="487" stroke="#00E1FF" stroke-width="0.5" opacity="0.7566894987880712"/><line x1="227" y1="129" x2="293" y2="257" stroke="#00E1FF" stroke-width="0.5" opacity="0.27993055890421237"/><line x1="534" y1="114" x2="513" y2="149" stroke="#00E1FF" stroke-width="0.5" opacity="0.7959166836804145"/><line x1="534" y1="114" x2="465" y2="248" stroke="#00E1FF" stroke-width="0.5" opacity="0.24639201171962088"/><line x1="534" y1="114" x2="446" y2="290" stroke="#00E1FF" stroke-width="0.5" opacity="0.01613008990009246"/><line x1="513" y1="149" x2="465" y2="248" stroke="#00E1FF" stroke-width="0.5" opacity="0.4498863753732326"/><line x1="513" y1="149" x2="446" y2="290" stroke="#00E1FF" stroke-width="0.5" opacity="0.21945531838337407"/><line x1="488" y1="438" x2="465" y2="248" stroke="#00E1FF" stroke-width="0.5" opacity="0.04306478798196578"/><line x1="488" y1="438" x2="446" y2="290" stroke="#00E1FF" stroke-width="0.5" opacity="0.2307796154547126"/><line x1="488" y1="438" x2="473" y2="384" stroke="#00E1FF" stroke-width="0.5" opacity="0.719776874615959"/><line x1="488" y1="438" x2="406" y2="483" stroke="#00E1FF" stroke-width="0.5" opacity="0.5323195535410957"/><line x1="488" y1="438" x2="519" y2="439" stroke="#00E1FF" stroke-width="0.5" opacity="0.8449193758072918"/><line x1="488" y1="438" x2="527" y2="541" stroke="#00E1FF" stroke-width="0.5" opacity="0.4493186039096654"/><line x1="127" y1="662" x2="183" y2="497" stroke="#00E1FF" stroke-width="0.5" opacity="0.12877959160726737"/><line x1="531" y1="727" x2="687" y2="619" stroke="#00E1FF" stroke-width="0.5" opacity="0.05131670194948623"/><line x1="531" y1="727" x2="621" y2="670" stroke="#00E1FF" stroke-width="0.5" opacity="0.4673415728630589"/><line x1="531" y1="727" x2="527" y2="541" stroke="#00E1FF" stroke-width="0.5" opacity="0.06978497109539239"/><line x1="293" y1="257" x2="465" y2="248" stroke="#00E1FF" stroke-width="0.5" opacity="0.1388234791867582"/><line x1="293" y1="257" x2="446" y2="290" stroke="#00E1FF" stroke-width="0.5" opacity="0.217408152355265"/><line x1="831" y1="472" x2="705" y2="487" stroke="#00E1FF" stroke-width="0.5" opacity="0.3655514205233019"/><line x1="465" y1="248" x2="446" y2="290" stroke="#00E1FF" stroke-width="0.5" opacity="0.7695113885676779"/><line x1="465" y1="248" x2="473" y2="384" stroke="#00E1FF" stroke-width="0.5" opacity="0.3188245453629439"/><line x1="465" y1="248" x2="519" y2="439" stroke="#00E1FF" stroke-width="0.5" opacity="0.007566123109453815"/><line x1="687" y1="619" x2="621" y2="670" stroke="#00E1FF" stroke-width="0.5" opacity="0.5829568367662648"/><line x1="687" y1="619" x2="705" y2="487" stroke="#00E1FF" stroke-width="0.5" opacity="0.3338919006647645"/><line x1="687" y1="619" x2="527" y2="541" stroke="#00E1FF" stroke-width="0.5" opacity="0.10999999999999999"/><line x1="446" y1="290" x2="473" y2="384" stroke="#00E1FF" stroke-width="0.5" opacity="0.5109959100375541"/><line x1="446" y1="290" x2="406" y2="483" stroke="#00E1FF" stroke-width="0.5" opacity="0.01449251651750505"/><line x1="446" y1="290" x2="519" y2="439" stroke="#00E1FF" stroke-width="0.5" opacity="0.17039165867259987"/><line x1="473" y1="384" x2="406" y2="483" stroke="#00E1FF" stroke-width="0.5" opacity="0.40229605990925565"/><line x1="473" y1="384" x2="519" y2="439" stroke="#00E1FF" stroke-width="0.5" opacity="0.6414961645951329"/><line x1="473" y1="384" x2="527" y2="541" stroke="#00E1FF" stroke-width="0.5" opacity="0.16986446889679518"/><line x1="406" y1="483" x2="519" y2="439" stroke="#00E1FF" stroke-width="0.5" opacity="0.39367912785390613"/><line x1="406" y1="483" x2="527" y2="541" stroke="#00E1FF" stroke-width="0.5" opacity="0.3290864437202061"/><line x1="621" y1="670" x2="527" y2="541" stroke="#00E1FF" stroke-width="0.5" opacity="0.20192418906472298"/><line x1="705" y1="487" x2="519" y2="439" stroke="#00E1FF" stroke-width="0.5" opacity="0.039531364385072765"/><line x1="705" y1="487" x2="527" y2="541" stroke="#00E1FF" stroke-width="0.5" opacity="0.06994623811308642"/><line x1="519" y1="439" x2="527" y2="541" stroke="#00E1FF" stroke-width="0.5" opacity="0.48843377750285344"/><circle cx="234" cy="580" r="4" fill="#00E1FF"/><circle cx="144" cy="597" r="4" fill="#00E1FF"/><circle cx="122" cy="639" r="4" fill="#00E1FF"/><circle cx="116" cy="409" r="4" fill="#00E1FF"/><circle cx="603" cy="776" r="4" fill="#00E1FF"/><circle cx="129" cy="150" r="4" fill="#00E1FF"/><circle cx="403" cy="271" r="4" fill="#00E1FF"/><circle cx="298" cy="307" r="4" fill="#00E1FF"/><circle cx="841" cy="442" r="4" fill="#00E1FF"/><circle cx="412" cy="549" r="4" fill="#00E1FF"/><circle cx="720" cy="419" r="4" fill="#00E1FF"/><circle cx="679" cy="299" r="4" fill="#00E1FF"/><circle cx="109" cy="714" r="4" fill="#00E1FF"/><circle cx="597" cy="596" r="4" fill="#00E1FF"/><circle cx="464" cy="812" r="4" fill="#00E1FF"/><circle cx="420" cy="194" r="4" fill="#00E1FF"/><circle cx="289" cy="887" r="4" fill="#00E1FF"/><circle cx="435" cy="197" r="4" fill="#00E1FF"/><circle cx="159" cy="613" r="4" fill="#00E1FF"/><circle cx="217" cy="149" r="4" fill="#00E1FF"/><circle cx="753" cy="495" r="4" fill="#00E1FF"/><circle cx="227" cy="129" r="4" fill="#00E1FF"/><circle cx="534" cy="114" r="4" fill="#00E1FF"/><circle cx="513" cy="149" r="4" fill="#00E1FF"/><circle cx="488" cy="438" r="4" fill="#00E1FF"/><circle cx="127" cy="662" r="4" fill="#00E1FF"/><circle cx="531" cy="727" r="4" fill="#00E1FF"/><circle cx="293" cy="257" r="4" fill="#00E1FF"/><circle cx="831" cy="472" r="4" fill="#00E1FF"/><circle cx="465" cy="248" r="4" fill="#00E1FF"/><circle cx="183" cy="497" r="4" fill="#00E1FF"/><circle cx="687" cy="619" r="4" fill="#00E1FF"/><circle cx="446" cy="290" r="4" fill="#00E1FF"/><circle cx="473" cy="384" r="4" fill="#00E1FF"/><circle cx="406" cy="483" r="4" fill="#00E1FF"/><circle cx="621" cy="670" r="4" fill="#00E1FF"/><circle cx="113" cy="892" r="4" fill="#00E1FF"/><circle cx="705" cy="487" r="4" fill="#00E1FF"/><circle cx="519" cy="439" r="4" fill="#00E1FF"/><circle cx="527" cy="541" r="4" fill="#00E1FF"/><circle cx="500" cy="500" r="60" fill="#FF3D2E"/><text x="500" y="520" text-anchor="middle" fill="#F5F5F5" font-size="60" font-weight="900" font-family="Arial">🧠</text></svg>