<svg xmlns="http://www.w3.org/2000/svg" viewBox="0 0 1000 1000"><rect width="1000" height="1000" fill="#050505"/><path d="M 0 500 L 0 442.2574718233668 L 20 532.316950554683 L 40 580.5368135017623 L 60 587.7721887041645 L 80 587.3395976580149 L 100 608.0757214503668 L 120 643.3352028646857 L 140 655.1396165492969 L 160 609.9726210393928 L 180 513.1727839040876 L 200 409.7385789198866 L 220 349.90344778080174 L 240 350.0343639791024 L 260 383.68533549048783 L 280 410.06796573589907 L 300 413.1071918002152 L 320 414.9290222323128 L 340 451.58362587898375 L 360 533.945001004656 L 380 630.6762055903188 L 400 690.0328670564161 L 420 681.5652600676281 L 440 620.3052287918835 L 460 551.8018737879772 L 480 511.9447529941282 L 500 498.24443625600514 L 520 478.2996556115164 L 540 426.6909621073349 L 560 355.25945311089635 L 580 307.84179448147046 L 600 323.41459545987584 L 620 400.9887272768937 L 640 498.41445713504066 L 660 566.5281692738188 L 680 587.973450148876 L 700 586.0118279896698 L 720 596.3509149993234 L 740 628.9622805412707 L 760 655.8386022790186 L 780 636.4315943009406 L 800 557.432436609481 L 820 449.9259850506278 L 840 367.37079367186243 L 860 343.6144468738595 L 880 368.41353431031155 L 900 401.9168931425859 L 920 413.9965607556787 L 940 411.84073735449317 L 960 430.45673735517863 L 980 495.27146351000636 L 1000 592.0375254041222" fill="none" stroke="#FF3D2E" stroke-width="6"/><path d="M 0 500 L 0 442.2574718233668 L 20 532.316950554683 L 40 580.5368135017623 L 60 587.7721887041645 L 80 587.3395976580149 L 100 608.0757214503668 L 120 643.3352028646857 L 140 655.1396165492969 L 160 609.9726210393928 L 180 513.1727839040876 L 200 409.7385789198866 L 220 349.90344778080174 L 240 350.0343639791024 L 260 383.68533549048783 L 280 410.06796573589907 L 300 413.1071918002152 L 320 414.9290222323128 L 340 451.58362587898375 L 360 533.945001004656 L 380 630.6762055903188 L 400 690.0328670564161 L 420 681.5652600676281 L 440 620.3052287918835 L 460 551.8018737879772 L 480 511.9447529941282 L 500 498.24443625600514 L 520 478.2996556115164 L 540 426.6909621073349 L 560 355.25945311089635 L 580 307.84179448147046 L 600 323.41459545987584 L 620 400.9887272768937 L 640 498.41445713504066 L 660 566.5281692738188 L 680 587.973450148876 L 700 586.0118279896698 L 720 596.3509149993234 L 740 628.9622805412707 L 760 655.8386022790186 L 780 636.4315943009406 L 800 557.432436609481 L 820 449.9259850506278 L 840 367.37079367186243 L 860 343.6144468738595 L 880 368.41353431031155 L 900 401.9168931425859 L 920 413.9965607556787 L 940 411.84073735449317 L 960 430.45673735517863 L 980 495.27146351000636 L 1000 592.0375254041222 L 1000 1000 L 0 1000 Z" fill="#FF3D2E" opacity="0.2"/><circle cx="500" cy="500" r="20" fill="#00E1FF"/></svg>