<svg xmlns="http://www.w3.org/2000/svg" viewBox="0 0 1000 1000">
    <rect width="1000" height="1000" fill="#050505"/>
    <circle cx="65" cy="973" r="0.8375803807898864" fill="#FF3D2E" opacity="0.8247207629935593"/><circle cx="159" cy="581" r="1.3081349531428579" fill="#00E1FF" opacity="0.7188059198669338"/><circle cx="647" cy="547" r="0.6738281189820473" fill="#00E1FF" opacity="0.7603777887019981"/><circle cx="837" cy="765" r="1.0067953859625245" fill="#FF3D2E" opacity="0.5163163042378989"/><circle cx="517" cy="125" r="0.9241530783284264" fill="#F5F5F5" opacity="0.48623569806707984"/><circle cx="388" cy="998" r="1.1436401198807902" fill="#FFA800" opacity="0.9585704638613077"/><circle cx="688" cy="841" r="2.92566574322399" fill="#FFA800" opacity="0.7941170452197426"/><circle cx="835" cy="695" r="2.8547564714046016" fill="#00E1FF" opacity="0.7711532177211153"/><circle cx="704" cy="570" r="1.307264583172826" fill="#FFA800" opacity="0.7112411826243047"/><circle cx="597" cy="34" r="1.826661135564469" fill="#00E1FF" opacity="0.9021724764550723"/><circle cx="559" cy="804" r="0.6005361329625992" fill="#F5F5F5" opacity="0.38228125200265023"/><circle cx="55" cy="938" r="2.9455499700138903" fill="#F5F5F5" opacity="0.9736188801808916"/><circle cx="742" cy="857" r="2.091312819404483" fill="#F5F5F5" opacity="0.38948740063305126"/><circle cx="166" cy="993" r="2.5048123897024865" fill="#00E1FF" opacity="0.5576583640017002"/><circle cx="941" cy="921" r="0.5597659089422775" fill="#FF3D2E" opacity="0.4181324696703098"/><circle cx="720" cy="897" r="1.7489221010866651" fill="#00E1FF" opacity="0.3005746909182605"/><circle cx="169" cy="659" r="2.550685978501168" fill="#FF3D2E" opacity="0.735698342470702"/><circle cx="800" cy="889" r="0.8934103332451511" fill="#F5F5F5" opacity="0.35205449939225403"/><circle cx="192" cy="528" r="2.568374275506123" fill="#00E1FF" opacity="0.7942278468199819"/><circle cx="15" cy="503" r="2.478408482064058" fill="#FF3D2E" opacity="0.8108504274946335"/><circle cx="348" cy="251" r="2.9552926076767885" fill="#FFA800" opacity="0.6858387846290845"/><circle cx="957" cy="641" r="0.5375277769797561" fill="#FF3D2E" opacity="0.8232036947334502"/><circle cx="164" cy="97" r="1.7296629872495317" fill="#FFA800" opacity="0.5602916212768911"/><circle cx="362" cy="798" r="2.609647477709515" fill="#FFA800" opacity="0.3078038904475773"/><circle cx="313" cy="480" r="1.6283562619758158" fill="#F5F5F5" opacity="0.9233328019016149"/><circle cx="482" cy="959" r="1.4186493800418667" fill="#F5F5F5" opacity="0.7595887979031273"/><circle cx="578" cy="70" r="1.822543920804743" fill="#F5F5F5" opacity="0.9075674445967086"/><circle cx="200" cy="604" r="1.6998813823263133" fill="#FFA800" opacity="0.408681312535964"/><circle cx="416" cy="68" r="1.9493402644546198" fill="#FF3D2E" opacity="0.5057697980703852"/><circle cx="834" cy="873" r="1.9060746201415513" fill="#00E1FF" opacity="0.4631581926135612"/><circle cx="855" cy="380" r="0.7341171140881526" fill="#FFA800" opacity="0.7879664218285387"/><circle cx="191" cy="955" r="2.843077410923327" fill="#F5F5F5" opacity="0.6995738606105384"/><circle cx="342" cy="127" r="2.4635792800104084" fill="#FFA800" opacity="0.688449573642355"/><circle cx="740" cy="176" r="2.1000545623337574" fill="#F5F5F5" opacity="0.5127887664025507"/><circle cx="600" cy="397" r="1.9877392028713676" fill="#FFA800" opacity="0.7954144821638145"/><circle cx="326" cy="875" r="1.768037914252576" fill="#00E1FF" opacity="0.5761493727146647"/><circle cx="279" cy="86" r="2.4579540495495835" fill="#00E1FF" opacity="0.4420234811398319"/><circle cx="549" cy="476" r="1.4488429367091995" fill="#FFA800" opacity="0.4403729638906802"/><circle cx="175" cy="488" r="1.580657614692449" fill="#F5F5F5" opacity="0.9696413588885326"/><circle cx="304" cy="980" r="2.761660792258918" fill="#FF3D2E" opacity="0.8888263135374772"/><circle cx="424" cy="582" r="1.6675380334523426" fill="#00E1FF" opacity="0.7555729336984999"/><circle cx="372" cy="691" r="1.3969237533546375" fill="#F5F5F5" opacity="0.3086103034325347"/><circle cx="858" cy="338" r="2.989723101697858" fill="#FF3D2E" opacity="0.8363068412793091"/><circle cx="860" cy="825" r="1.7309445269046415" fill="#FFA800" opacity="0.8847276553370449"/><circle cx="229" cy="732" r="2.829254578132512" fill="#00E1FF" opacity="0.8800628073215022"/><circle cx="720" cy="904" r="1.6051998087845942" fill="#F5F5F5" opacity="0.31911949048721483"/><circle cx="576" cy="515" r="2.014226062608868" fill="#F5F5F5" opacity="0.7558402853989927"/><circle cx="320" cy="470" r="2.5849043094022752" fill="#F5F5F5" opacity="0.7022460690678172"/><circle cx="316" cy="610" r="2.4894614896485074" fill="#FF3D2E" opacity="0.5050658298785536"/><circle cx="870" cy="264" r="1.4538587892120205" fill="#F5F5F5" opacity="0.35754650550908484"/><circle cx="860" cy="941" r="1.9998315891748426" fill="#F5F5F5" opacity="0.4427509628719518"/><circle cx="389" cy="289" r="1.494647830321741" fill="#F5F5F5" opacity="0.855764590623028"/><circle cx="602" cy="280" r="1.0108734707239293" fill="#FFA800" opacity="0.7701264122563773"/><circle cx="40" cy="215" r="1.9520939182870292" fill="#F5F5F5" opacity="0.5280627212697286"/><circle cx="853" cy="707" r="2.855781084203173" fill="#00E1FF" opacity="0.37697977406413735"/><circle cx="700" cy="320" r="1.8750637853039986" fill="#FFA800" opacity="0.7531411556365056"/><circle cx="59" cy="538" r="2.780555795188029" fill="#FFA800" opacity="0.34450206342853534"/><circle cx="360" cy="155" r="1.5708150525284899" fill="#FF3D2E" opacity="0.41920977573998597"/><circle cx="157" cy="7" r="2.4307553536383004" fill="#F5F5F5" opacity="0.5116079329818115"/><circle cx="531" cy="335" r="0.5389548600827566" fill="#00E1FF" opacity="0.49893870368141313"/><circle cx="646" cy="286" r="0.9884975753132553" fill="#FFA800" opacity="0.46355768937845443"/><circle cx="115" cy="33" r="0.5994852548573683" fill="#FFA800" opacity="0.3642044325683054"/><circle cx="621" cy="0" r="0.815385087537271" fill="#FF3D2E" opacity="0.9395969004092746"/><circle cx="332" cy="22" r="2.883768750416505" fill="#00E1FF" opacity="0.9380356059486086"/><circle cx="618" cy="298" r="1.4285296659898568" fill="#F5F5F5" opacity="0.9709468781945523"/><circle cx="528" cy="297" r="1.1279637049603397" fill="#F5F5F5" opacity="0.8426623981073207"/><circle cx="131" cy="576" r="0.5386412106806494" fill="#FFA800" opacity="0.7147094215218858"/><circle cx="418" cy="98" r="2.051645375918194" fill="#00E1FF" opacity="0.49719437543054157"/><circle cx="971" cy="262" r="2.61727898930719" fill="#F5F5F5" opacity="0.8919118137310309"/><circle cx="182" cy="910" r="0.8123294859992992" fill="#00E1FF" opacity="0.7653795601124096"/><circle cx="860" cy="490" r="1.7155031758476442" fill="#FF3D2E" opacity="0.3585543583931772"/><circle cx="327" cy="998" r="2.678327277366055" fill="#00E1FF" opacity="0.874812096547642"/><circle cx="710" cy="742" r="0.838212597725514" fill="#00E1FF" opacity="0.7746895386732814"/><circle cx="770" cy="211" r="0.995637582710437" fill="#FFA800" opacity="0.6576727338677363"/><circle cx="60" cy="872" r="0.7835642698689361" fill="#FFA800" opacity="0.31522125793050604"/><circle cx="443" cy="968" r="1.666942698451796" fill="#FF3D2E" opacity="0.4711049110421621"/><circle cx="251" cy="316" r="1.4376524211047195" fill="#FF3D2E" opacity="0.7413885039702282"/><circle cx="807" cy="859" r="2.175721331175386" fill="#FF3D2E" opacity="0.5854568804495754"/><circle cx="686" cy="622" r="2.2523638949376914" fill="#FF3D2E" opacity="0.3790316476583714"/><circle cx="649" cy="410" r="1.929510642219024" fill="#F5F5F5" opacity="0.6200789410716927"/><circle cx="474" cy="301" r="1.91616423301621" fill="#F5F5F5" opacity="0.6738918853401654"/><circle cx="966" cy="886" r="1.346431036269955" fill="#00E1FF" opacity="0.3434679375115889"/><circle cx="271" cy="631" r="0.749255595066693" fill="#F5F5F5" opacity="0.599838855545721"/><circle cx="237" cy="122" r="1.7187645950688708" fill="#00E1FF" opacity="0.9688410100187197"/><circle cx="123" cy="173" r="1.6435309876296933" fill="#FF3D2E" opacity="0.4913090484560939"/><circle cx="16" cy="372" r="1.8462748598103986" fill="#FF3D2E" opacity="0.9543764065014066"/><circle cx="622" cy="72" r="1.8489154072720067" fill="#FF3D2E" opacity="0.8978503298743636"/><circle cx="922" cy="393" r="0.6230941762158289" fill="#FFA800" opacity="0.7211101779392539"/><circle cx="656" cy="973" r="1.7252530870624134" fill="#00E1FF" opacity="0.66093804028925"/><circle cx="121" cy="635" r="1.4090077511048267" fill="#F5F5F5" opacity="0.5336821650900477"/><circle cx="573" cy="504" r="2.303950866773512" fill="#FFA800" opacity="0.5060731974485062"/><circle cx="521" cy="821" r="2.1972356976111636" fill="#FFA800" opacity="0.46243861443656087"/><circle cx="260" cy="363" r="2.0141220445735533" fill="#00E1FF" opacity="0.458466843307753"/><circle cx="878" cy="191" r="2.0799392596058492" fill="#FF3D2E" opacity="0.7440065011442035"/><circle cx="568" cy="915" r="2.4402717767107647" fill="#00E1FF" opacity="0.5742254158179414"/><circle cx="234" cy="716" r="1.5800981217776973" fill="#FF3D2E" opacity="0.5977833631552294"/><circle cx="504" cy="348" r="2.462637622744923" fill="#FF3D2E" opacity="0.40007253927208186"/><circle cx="901" cy="648" r="1.0673487423117085" fill="#F5F5F5" opacity="0.35187766922974095"/><circle cx="771" cy="679" r="1.4444350099556853" fill="#FF3D2E" opacity="0.5673659445566012"/><circle cx="55" cy="836" r="2.399263293391974" fill="#FFA800" opacity="0.9309167625148247"/><circle cx="456" cy="869" r="0.6741488972390448" fill="#FF3D2E" opacity="0.3079941077328351"/><circle cx="398" cy="191" r="2.911540635002148" fill="#FFA800" opacity="0.8069747346296097"/><circle cx="36" cy="244" r="0.9365021309478112" fill="#00E1FF" opacity="0.813159200424743"/><circle cx="956" cy="55" r="1.9317817711029805" fill="#FF3D2E" opacity="0.7151370230309134"/><circle cx="429" cy="650" r="2.4599986121700157" fill="#FF3D2E" opacity="0.5564486047149647"/><circle cx="152" cy="711" r="2.2169446487119306" fill="#F5F5F5" opacity="0.7402193459723737"/><circle cx="89" cy="900" r="1.508333144538498" fill="#FF3D2E" opacity="0.799291210746827"/><circle cx="847" cy="109" r="2.706628663670225" fill="#F5F5F5" opacity="0.8476691429301901"/><circle cx="958" cy="568" r="1.5666710244844575" fill="#F5F5F5" opacity="0.8018453479603194"/><circle cx="246" cy="453" r="0.7972058456590498" fill="#00E1FF" opacity="0.4878912238934394"/><circle cx="118" cy="818" r="2.605149357037121" fill="#FFA800" opacity="0.8117187524288365"/><circle cx="513" cy="18" r="1.55271962962932" fill="#F5F5F5" opacity="0.797950665000752"/><circle cx="16" cy="171" r="1.0049103825695127" fill="#FF3D2E" opacity="0.3990777960456241"/><circle cx="959" cy="273" r="2.9126640792956575" fill="#FF3D2E" opacity="0.5896675596810084"/><circle cx="865" cy="964" r="1.7340081730444448" fill="#F5F5F5" opacity="0.7946306503426781"/><circle cx="334" cy="265" r="0.9845402018029005" fill="#FFA800" opacity="0.9418844041981285"/><circle cx="258" cy="537" r="1.392285575013096" fill="#00E1FF" opacity="0.9274372664067108"/><circle cx="296" cy="72" r="1.406932062509786" fill="#FF3D2E" opacity="0.8992715575277457"/><circle cx="775" cy="753" r="2.7968226454959044" fill="#FF3D2E" opacity="0.8238692445312905"/><circle cx="306" cy="352" r="1.5415564460284847" fill="#F5F5F5" opacity="0.5529931707282203"/><circle cx="506" cy="57" r="2.0224388485199887" fill="#F5F5F5" opacity="0.7292376979607074"/><circle cx="752" cy="155" r="1.5401310187615798" fill="#00E1FF" opacity="0.6176658608030858"/><circle cx="672" cy="55" r="1.7218188856082706" fill="#FF3D2E" opacity="0.8085571039306292"/><circle cx="196" cy="600" r="1.4484528874183247" fill="#FFA800" opacity="0.6977299440050935"/><circle cx="20" cy="483" r="1.3764866450289892" fill="#FF3D2E" opacity="0.459536403121121"/><circle cx="366" cy="573" r="0.6815107066654981" fill="#F5F5F5" opacity="0.6208088021080825"/><circle cx="335" cy="129" r="2.6966268357237806" fill="#FF3D2E" opacity="0.9468471663921731"/><circle cx="159" cy="103" r="1.006525935631128" fill="#F5F5F5" opacity="0.6567335057103154"/><circle cx="744" cy="284" r="2.854617425524632" fill="#FF3D2E" opacity="0.8064336076167524"/><circle cx="851" cy="566" r="1.7263030426056005" fill="#00E1FF" opacity="0.9075618935262111"/><circle cx="834" cy="208" r="2.6579661678038713" fill="#FF3D2E" opacity="0.4641305796234452"/><circle cx="225" cy="728" r="1.5083979048395797" fill="#00E1FF" opacity="0.4589568166705542"/><circle cx="296" cy="140" r="1.5650700363966126" fill="#FF3D2E" opacity="0.4970515884352935"/><circle cx="926" cy="84" r="2.0762976857793163" fill="#F5F5F5" opacity="0.9958395785721237"/><circle cx="169" cy="95" r="2.7001274891520155" fill="#FF3D2E" opacity="0.5857530125207158"/><circle cx="371" cy="97" r="2.7273175815077915" fill="#00E1FF" opacity="0.9881572319308844"/><circle cx="649" cy="279" r="1.854594653769567" fill="#FF3D2E" opacity="0.8460806193875803"/><circle cx="316" cy="176" r="2.337451385638911" fill="#FFA800" opacity="0.41017240183448334"/><circle cx="796" cy="976" r="1.6834282530819569" fill="#F5F5F5" opacity="0.8159036736463832"/><circle cx="308" cy="315" r="2.497544712686471" fill="#F5F5F5" opacity="0.6821431463368453"/><circle cx="925" cy="900" r="0.5043583032767297" fill="#00E1FF" opacity="0.8584465514600963"/><circle cx="986" cy="581" r="1.0385695018262482" fill="#FFA800" opacity="0.8415318045533984"/><circle cx="563" cy="143" r="1.3003914041938947" fill="#FFA800" opacity="0.8130988376505432"/><circle cx="213" cy="656" r="2.805301815537497" fill="#00E1FF" opacity="0.9149768210880818"/><circle cx="356" cy="31" r="1.3342379443983006" fill="#F5F5F5" opacity="0.7427025749114324"/><circle cx="954" cy="971" r="0.5975558223266049" fill="#FF3D2E" opacity="0.8219579181300027"/><circle cx="268" cy="92" r="0.951359894662336" fill="#FF3D2E" opacity="0.3194904523007586"/><circle cx="279" cy="434" r="0.8974017503771538" fill="#FFA800" opacity="0.37972431947761937"/><circle cx="480" cy="498" r="1.8078404969543196" fill="#FFA800" opacity="0.6975006213082589"/><circle cx="392" cy="320" r="1.8612254696106507" fill="#F5F5F5" opacity="0.6031745846121872"/><circle cx="84" cy="147" r="0.9157111362056232" fill="#00E1FF" opacity="0.9529120053942017"/><circle cx="58" cy="99" r="1.333422620606696" fill="#F5F5F5" opacity="0.883068443623235"/><circle cx="242" cy="211" r="1.269534191531287" fill="#FF3D2E" opacity="0.3264272955755249"/><circle cx="442" cy="439" r="2.399465251832168" fill="#FFA800" opacity="0.6840369264552559"/><circle cx="889" cy="402" r="1.172234520318109" fill="#FFA800" opacity="0.9438764578642751"/><circle cx="996" cy="472" r="2.2570406804021053" fill="#00E1FF" opacity="0.7957910147424381"/><circle cx="746" cy="653" r="2.607589486585085" fill="#FF3D2E" opacity="0.46133370964919657"/><circle cx="505" cy="1" r="2.1689965638466253" fill="#00E1FF" opacity="0.9071626762837348"/><circle cx="385" cy="593" r="0.7460703026410976" fill="#F5F5F5" opacity="0.602508968282445"/><circle cx="675" cy="772" r="2.5539354473523637" fill="#FF3D2E" opacity="0.7701286209802557"/><circle cx="996" cy="410" r="1.5416161975542009" fill="#FF3D2E" opacity="0.7441713667557096"/><circle cx="520" cy="502" r="2.8773944269877854" fill="#00E1FF" opacity="0.9239284716493406"/><circle cx="962" cy="193" r="1.4777568698775534" fill="#FF3D2E" opacity="0.5383736976381592"/><circle cx="234" cy="946" r="1.0620282795121305" fill="#FFA800" opacity="0.717437530035749"/><circle cx="864" cy="226" r="1.0722325642570176" fill="#F5F5F5" opacity="0.6221667270166755"/><circle cx="152" cy="103" r="2.811419789725881" fill="#FFA800" opacity="0.9895334301619718"/><circle cx="596" cy="273" r="0.8227090832945273" fill="#00E1FF" opacity="0.8692154058182924"/><circle cx="594" cy="830" r="1.3700758471306103" fill="#FFA800" opacity="0.6533464161084634"/><circle cx="933" cy="709" r="2.9965702425501686" fill="#FF3D2E" opacity="0.9905373823899777"/><circle cx="629" cy="796" r="2.3965091285771294" fill="#FF3D2E" opacity="0.43338188810194633"/><circle cx="4" cy="0" r="0.9938936833766916" fill="#00E1FF" opacity="0.7085010055140182"/><circle cx="291" cy="159" r="2.5729612443153185" fill="#F5F5F5" opacity="0.7857991296449081"/><circle cx="710" cy="470" r="1.5993718323572654" fill="#FF3D2E" opacity="0.947157388505826"/><circle cx="775" cy="822" r="0.6350739890771213" fill="#00E1FF" opacity="0.8243016468805584"/><circle cx="616" cy="853" r="2.574170582029889" fill="#00E1FF" opacity="0.7542903473648482"/><circle cx="509" cy="225" r="1.7606827110260488" fill="#FFA800" opacity="0.31638136955179513"/><circle cx="69" cy="867" r="0.6163347859352598" fill="#00E1FF" opacity="0.7109680263851794"/><circle cx="911" cy="492" r="0.9724275032356046" fill="#FF3D2E" opacity="0.8113569735198305"/><circle cx="395" cy="58" r="1.8580995435754817" fill="#FFA800" opacity="0.9309404304683084"/><circle cx="263" cy="208" r="0.9316864468066772" fill="#FFA800" opacity="0.4854696241623021"/><circle cx="622" cy="45" r="2.4247255683380287" fill="#FFA800" opacity="0.7137998692456892"/><circle cx="145" cy="415" r="1.0334086646123275" fill="#F5F5F5" opacity="0.4290988072494196"/><circle cx="155" cy="785" r="1.8402183074047218" fill="#F5F5F5" opacity="0.7395478462435183"/><circle cx="252" cy="535" r="2.1888482557938076" fill="#FFA800" opacity="0.8627650569545191"/><circle cx="733" cy="18" r="0.8744738098445372" fill="#00E1FF" opacity="0.6626263899962588"/><circle cx="59" cy="10" r="2.8978409080412892" fill="#FF3D2E" opacity="0.6657254372414547"/><circle cx="502" cy="653" r="1.2306633670383178" fill="#FFA800" opacity="0.4877422242407259"/><circle cx="724" cy="708" r="2.4578229687742956" fill="#FF3D2E" opacity="0.7068910099493363"/><circle cx="252" cy="826" r="1.1332107856867704" fill="#F5F5F5" opacity="0.5308306183878864"/><circle cx="17" cy="434" r="1.4787523926217456" fill="#F5F5F5" opacity="0.667852224878001"/><circle cx="313" cy="709" r="2.5512685826394956" fill="#FFA800" opacity="0.574443609275809"/><circle cx="888" cy="454" r="2.5451746208767108" fill="#00E1FF" opacity="0.5943325076578299"/><circle cx="599" cy="857" r="0.9071803153943637" fill="#F5F5F5" opacity="0.3834894760601813"/><circle cx="835" cy="268" r="2.6287150036901754" fill="#FF3D2E" opacity="0.3816677385142479"/><circle cx="779" cy="676" r="0.997346353688749" fill="#FFA800" opacity="0.3037640500535734"/><circle cx="501" cy="699" r="0.6468000534239988" fill="#FF3D2E" opacity="0.6229386698051251"/><circle cx="504" cy="89" r="2.217909639936537" fill="#FFA800" opacity="0.9535516039668581"/><circle cx="396" cy="422" r="0.5851327202261243" fill="#FFA800" opacity="0.6791478565898483"/><circle cx="50" cy="865" r="2.4345262918791626" fill="#00E1FF" opacity="0.3413663060411887"/><circle cx="647" cy="644" r="0.7085700886313618" fill="#00E1FF" opacity="0.3133968901348793"/>
  </svg>