<svg xmlns="http://www.w3.org/2000/svg" viewBox="0 0 2000 100">
    <rect width="2000" height="100" fill="#050505"/>
    <path d="M 0 50 L 68.16619609158803 73.87444909441832 L 177.38835752182882 62.24246185440176 L 279.904893828364 47.613092981643796 L 375.0996691560817 33.56812219327195 L 464.1491700928259 23.546248173760276 L 549.7344607212879 20.001175208160888 L 635.3847646261847 23.80086079719453 L 724.6133878747448 34.01500938999807 L 820.0575391606181 48.14284118016738 L 922.8326491398013 62.72537022010991 L 1032.2592741040462 74.19228481736764 L 1146.0294474970667 79.73608435590421 L 1260.771750620665 77.99945336191766 L 1372.8767535143882 69.40757966985922 L 1479.3807292931176 56.064053611615456 L 1578.691277852135 41.235835737984914 L 1670.977200949653 28.553390936610047 L 1758.127173649236 21.121824010593002 L 1843.2873307943962 20.760641728380268 L 1930.090983473611 27.558274109329986" fill="none" stroke="#00E1FF" stroke-width="2"/>
    <circle cx="0" cy="50" r="3" fill="#FF3D2E"/><circle cx="100" cy="50" r="3" fill="#FF3D2E"/><circle cx="200" cy="50" r="3" fill="#FF3D2E"/><circle cx="300" cy="50" r="3" fill="#FF3D2E"/><circle cx="400" cy="50" r="3" fill="#FF3D2E"/><circle cx="500" cy="50" r="3" fill="#FF3D2E"/><circle cx="600" cy="50" r="3" fill="#FF3D2E"/><circle cx="700" cy="50" r="3" fill="#FF3D2E"/><circle cx="800" cy="50" r="3" fill="#FF3D2E"/><circle cx="900" cy="50" r="3" fill="#FF3D2E"/><circle cx="1000" cy="50" r="3" fill="#FF3D2E"/><circle cx="1100" cy="50" r="3" fill="#FF3D2E"/><circle cx="1200" cy="50" r="3" fill="#FF3D2E"/><circle cx="1300" cy="50" r="3" fill="#FF3D2E"/><circle cx="1400" cy="50" r="3" fill="#FF3D2E"/><circle cx="1500" cy="50" r="3" fill="#FF3D2E"/><circle cx="1600" cy="50" r="3" fill="#FF3D2E"/><circle cx="1700" cy="50" r="3" fill="#FF3D2E"/><circle cx="1800" cy="50" r="3" fill="#FF3D2E"/><circle cx="1900" cy="50" r="3" fill="#FF3D2E"/><circle cx="2000" cy="50" r="3" fill="#FF3D2E"/>
  </svg>