<svg xmlns="http://www.w3.org/2000/svg" viewBox="0 0 1000 1000"><rect width="1000" height="1000" fill="#050505"/><line x1="456" y1="175" x2="552" y2="162" stroke="#00E1FF" stroke-width="0.5" opacity="0.5156189516506657"/><line x1="456" y1="175" x2="456" y2="171" stroke="#00E1FF" stroke-width="0.5" opacity="0.98"/><line x1="456" y1="175" x2="383" y2="267" stroke="#00E1FF" stroke-width="0.5" opacity="0.41278198256524856"/><line x1="456" y1="175" x2="473" y2="316" stroke="#00E1FF" stroke-width="0.5" opacity="0.2898943740541129"/><line x1="456" y1="175" x2="494" y2="302" stroke="#00E1FF" stroke-width="0.5" opacity="0.337184037609232"/><line x1="456" y1="175" x2="376" y2="168" stroke="#00E1FF" stroke-width="0.5" opacity="0.598471669741723"/><line x1="456" y1="175" x2="286" y2="180" stroke="#00E1FF" stroke-width="0.5" opacity="0.14963243241525248"/><line x1="899" y1="373" x2="833" y2="225" stroke="#00E1FF" stroke-width="0.5" opacity="0.189753124041814"/><line x1="899" y1="373" x2="779" y2="385" stroke="#00E1FF" stroke-width="0.5" opacity="0.39700746273274656"/><line x1="899" y1="373" x2="846" y2="387" stroke="#00E1FF" stroke-width="0.5" opacity="0.7259105985266852"/><line x1="899" y1="373" x2="882" y2="216" stroke="#00E1FF" stroke-width="0.5" opacity="0.21041149957715322"/><line x1="899" y1="373" x2="883" y2="279" stroke="#00E1FF" stroke-width="0.5" opacity="0.5232401023575913"/><line x1="502" y1="668" x2="532" y2="532" stroke="#00E1FF" stroke-width="0.5" opacity="0.3036523856578526"/><line x1="502" y1="668" x2="449" y2="852" stroke="#00E1FF" stroke-width="0.5" opacity="0.04259465219793124"/><line x1="502" y1="668" x2="340" y2="709" stroke="#00E1FF" stroke-width="0.5" opacity="0.16446125164657976"/><line x1="502" y1="668" x2="544" y2="571" stroke="#00E1FF" stroke-width="0.5" opacity="0.47148793769678254"/><line x1="502" y1="668" x2="622" y2="717" stroke="#00E1FF" stroke-width="0.5" opacity="0.3519066425274826"/><line x1="502" y1="668" x2="558" y2="646" stroke="#00E1FF" stroke-width="0.5" opacity="0.6991678208701735"/><line x1="833" y1="225" x2="725" y2="163" stroke="#00E1FF" stroke-width="0.5" opacity="0.3773443969576761"/><line x1="833" y1="225" x2="651" y2="271" stroke="#00E1FF" stroke-width="0.5" opacity="0.061383997579414706"/><line x1="833" y1="225" x2="779" y2="385" stroke="#00E1FF" stroke-width="0.5" opacity="0.15566594288753222"/><line x1="833" y1="225" x2="653" y2="226" stroke="#00E1FF" stroke-width="0.5" opacity="0.09998611121827694"/><line x1="833" y1="225" x2="711" y2="154" stroke="#00E1FF" stroke-width="0.5" opacity="0.29422028932534483"/><line x1="833" y1="225" x2="699" y2="344" stroke="#00E1FF" stroke-width="0.5" opacity="0.10393917617161719"/><line x1="833" y1="225" x2="846" y2="387" stroke="#00E1FF" stroke-width="0.5" opacity="0.187396160481628"/><line x1="833" y1="225" x2="882" y2="216" stroke="#00E1FF" stroke-width="0.5" opacity="0.7509016258583769"/><line x1="833" y1="225" x2="679" y2="320" stroke="#00E1FF" stroke-width="0.5" opacity="0.09527628526715393"/><line x1="833" y1="225" x2="883" y2="279" stroke="#00E1FF" stroke-width="0.5" opacity="0.632032610140518"/><line x1="154" y1="127" x2="163" y2="305" stroke="#00E1FF" stroke-width="0.5" opacity="0.10886308571578074"/><line x1="154" y1="127" x2="122" y2="209" stroke="#00E1FF" stroke-width="0.5" opacity="0.5598863783066923"/><line x1="154" y1="127" x2="286" y2="180" stroke="#00E1FF" stroke-width="0.5" opacity="0.2887862487268684"/><line x1="552" y1="162" x2="725" y2="163" stroke="#00E1FF" stroke-width="0.5" opacity="0.13498554925365558"/><line x1="552" y1="162" x2="456" y2="171" stroke="#00E1FF" stroke-width="0.5" opacity="0.5178952396003541"/><line x1="552" y1="162" x2="651" y2="271" stroke="#00E1FF" stroke-width="0.5" opacity="0.2637595501468287"/><line x1="552" y1="162" x2="383" y2="267" stroke="#00E1FF" stroke-width="0.5" opacity="0.005188460058891398"/><line x1="552" y1="162" x2="653" y2="226" stroke="#00E1FF" stroke-width="0.5" opacity="0.4021496842854393"/><line x1="552" y1="162" x2="711" y2="154" stroke="#00E1FF" stroke-width="0.5" opacity="0.20399434675374328"/><line x1="552" y1="162" x2="473" y2="316" stroke="#00E1FF" stroke-width="0.5" opacity="0.13459547031460484"/><line x1="552" y1="162" x2="494" y2="302" stroke="#00E1FF" stroke-width="0.5" opacity="0.2423061304194154"/><line x1="552" y1="162" x2="376" y2="168" stroke="#00E1FF" stroke-width="0.5" opacity="0.11948878485279935"/><line x1="532" y1="532" x2="339" y2="539" stroke="#00E1FF" stroke-width="0.5" opacity="0.03436549357430285"/><line x1="532" y1="532" x2="442" y2="419" stroke="#00E1FF" stroke-width="0.5" opacity="0.2776946629021768"/><line x1="532" y1="532" x2="436" y2="391" stroke="#00E1FF" stroke-width="0.5" opacity="0.14710786145023025"/><line x1="532" y1="532" x2="621" y2="489" stroke="#00E1FF" stroke-width="0.5" opacity="0.5057834482739374"/><line x1="532" y1="532" x2="544" y2="571" stroke="#00E1FF" stroke-width="0.5" opacity="0.7959779423689683"/><line x1="532" y1="532" x2="558" y2="646" stroke="#00E1FF" stroke-width="0.5" opacity="0.41536336071026136"/><line x1="532" y1="532" x2="602" y2="444" stroke="#00E1FF" stroke-width="0.5" opacity="0.4377722881251761"/><line x1="532" y1="532" x2="387" y2="485" stroke="#00E1FF" stroke-width="0.5" opacity="0.2378648413831047"/><line x1="725" y1="163" x2="651" y2="271" stroke="#00E1FF" stroke-width="0.5" opacity="0.3454008860378742"/><line x1="725" y1="163" x2="653" y2="226" stroke="#00E1FF" stroke-width="0.5" opacity="0.5216434384269407"/><line x1="725" y1="163" x2="711" y2="154" stroke="#00E1FF" stroke-width="0.5" opacity="0.9167834151145338"/><line x1="725" y1="163" x2="699" y2="344" stroke="#00E1FF" stroke-width="0.5" opacity="0.08571065848933801"/><line x1="725" y1="163" x2="882" y2="216" stroke="#00E1FF" stroke-width="0.5" opacity="0.17147721817683248"/><line x1="725" y1="163" x2="679" y2="320" stroke="#00E1FF" stroke-width="0.5" opacity="0.1819993887532847"/><line x1="725" y1="163" x2="883" y2="279" stroke="#00E1FF" stroke-width="0.5" opacity="0.01994898091987063"/><line x1="449" y1="852" x2="340" y2="709" stroke="#00E1FF" stroke-width="0.5" opacity="0.1009727479102761"/><line x1="456" y1="171" x2="383" y2="267" stroke="#00E1FF" stroke-width="0.5" opacity="0.39698673314760313"/><line x1="456" y1="171" x2="473" y2="316" stroke="#00E1FF" stroke-width="0.5" opacity="0.270034247378687"/><line x1="456" y1="171" x2="494" y2="302" stroke="#00E1FF" stroke-width="0.5" opacity="0.3179992668625641"/><line x1="456" y1="171" x2="376" y2="168" stroke="#00E1FF" stroke-width="0.5" opacity="0.5997188488074914"/><line x1="456" y1="171" x2="286" y2="180" stroke="#00E1FF" stroke-width="0.5" opacity="0.14880965700966742"/><line x1="651" y1="271" x2="779" y2="385" stroke="#00E1FF" stroke-width="0.5" opacity="0.14297024555736682"/><line x1="651" y1="271" x2="653" y2="226" stroke="#00E1FF" stroke-width="0.5" opacity="0.7747778874088959"/><line x1="651" y1="271" x2="711" y2="154" stroke="#00E1FF" stroke-width="0.5" opacity="0.34256178997566633"/><line x1="651" y1="271" x2="699" y2="344" stroke="#00E1FF" stroke-width="0.5" opacity="0.5631647907963462"/><line x1="651" y1="271" x2="473" y2="316" stroke="#00E1FF" stroke-width="0.5" opacity="0.08199945533785213"/><line x1="651" y1="271" x2="679" y2="320" stroke="#00E1FF" stroke-width="0.5" opacity="0.7178209788095508"/><line x1="651" y1="271" x2="494" y2="302" stroke="#00E1FF" stroke-width="0.5" opacity="0.1998437652558096"/><line x1="651" y1="271" x2="602" y2="444" stroke="#00E1FF" stroke-width="0.5" opacity="0.100972747910276"/><line x1="163" y1="305" x2="122" y2="209" stroke="#00E1FF" stroke-width="0.5" opacity="0.47805651646945524"/><line x1="163" y1="305" x2="286" y2="180" stroke="#00E1FF" stroke-width="0.5" opacity="0.12315907942204252"/><line x1="779" y1="385" x2="699" y2="344" stroke="#00E1FF" stroke-width="0.5" opacity="0.550528087640618"/><line x1="779" y1="385" x2="846" y2="387" stroke="#00E1FF" stroke-width="0.5" opacity="0.6648507795026222"/><line x1="779" y1="385" x2="882" y2="216" stroke="#00E1FF" stroke-width="0.5" opacity="0.01042938604665511"/><line x1="779" y1="385" x2="621" y2="489" stroke="#00E1FF" stroke-width="0.5" opacity="0.05421989870795019"/><line x1="779" y1="385" x2="679" y2="320" stroke="#00E1FF" stroke-width="0.5" opacity="0.40365697790617183"/><line x1="779" y1="385" x2="602" y2="444" stroke="#00E1FF" stroke-width="0.5" opacity="0.06712809025032795"/><line x1="779" y1="385" x2="883" y2="279" stroke="#00E1FF" stroke-width="0.5" opacity="0.2575042087661372"/><line x1="339" y1="539" x2="442" y2="419" stroke="#00E1FF" stroke-width="0.5" opacity="0.2092882952681172"/><line x1="339" y1="539" x2="436" y2="391" stroke="#00E1FF" stroke-width="0.5" opacity="0.11522601756154704"/><line x1="339" y1="539" x2="340" y2="709" stroke="#00E1FF" stroke-width="0.5" opacity="0.1499852942448584"/><line x1="339" y1="539" x2="269" y2="611" stroke="#00E1FF" stroke-width="0.5" opacity="0.49790439157467237"/><line x1="339" y1="539" x2="387" y2="485" stroke="#00E1FF" stroke-width="0.5" opacity="0.6387521626362311"/><line x1="339" y1="539" x2="222" y2="670" stroke="#00E1FF" stroke-width="0.5" opacity="0.12179159648748528"/><line x1="383" y1="267" x2="442" y2="419" stroke="#00E1FF" stroke-width="0.5" opacity="0.18475463816100135"/><line x1="383" y1="267" x2="436" y2="391" stroke="#00E1FF" stroke-width="0.5" opacity="0.3257411476294878"/><line x1="383" y1="267" x2="473" y2="316" stroke="#00E1FF" stroke-width="0.5" opacity="0.4876280647810617"/><line x1="383" y1="267" x2="494" y2="302" stroke="#00E1FF" stroke-width="0.5" opacity="0.41806357735573896"/><line x1="383" y1="267" x2="376" y2="168" stroke="#00E1FF" stroke-width="0.5" opacity="0.5037641689680198"/><line x1="383" y1="267" x2="286" y2="180" stroke="#00E1FF" stroke-width="0.5" opacity="0.34850172678663216"/><line x1="653" y1="226" x2="711" y2="154" stroke="#00E1FF" stroke-width="0.5" opacity="0.5377230267469513"/><line x1="653" y1="226" x2="699" y2="344" stroke="#00E1FF" stroke-width="0.5" opacity="0.3667543920404974"/><line x1="653" y1="226" x2="679" y2="320" stroke="#00E1FF" stroke-width="0.5" opacity="0.5123525863905356"/><line x1="653" y1="226" x2="494" y2="302" stroke="#00E1FF" stroke-width="0.5" opacity="0.11885018299950834"/><line x1="442" y1="419" x2="436" y2="391" stroke="#00E1FF" stroke-width="0.5" opacity="0.8568217893672365"/><line x1="442" y1="419" x2="473" y2="316" stroke="#00E1FF" stroke-width="0.5" opacity="0.46218032761900574"/><line x1="442" y1="419" x2="621" y2="489" stroke="#00E1FF" stroke-width="0.5" opacity="0.03899791883680093"/><line x1="442" y1="419" x2="544" y2="571" stroke="#00E1FF" stroke-width="0.5" opacity="0.08474047396380513"/><line x1="442" y1="419" x2="494" y2="302" stroke="#00E1FF" stroke-width="0.5" opacity="0.3598242428832532"/><line x1="442" y1="419" x2="602" y2="444" stroke="#00E1FF" stroke-width="0.5" opacity="0.19029326296491778"/><line x1="442" y1="419" x2="387" y2="485" stroke="#00E1FF" stroke-width="0.5" opacity="0.5704362678251339"/><line x1="711" y1="154" x2="699" y2="344" stroke="#00E1FF" stroke-width="0.5" opacity="0.04810714888701895"/><line x1="711" y1="154" x2="882" y2="216" stroke="#00E1FF" stroke-width="0.5" opacity="0.09053587206531333"/><line x1="711" y1="154" x2="679" y2="320" stroke="#00E1FF" stroke-width="0.5" opacity="0.15471898163983366"/><line x1="699" y1="344" x2="846" y2="387" stroke="#00E1FF" stroke-width="0.5" opacity="0.23419976495172068"/><line x1="699" y1="344" x2="621" y2="489" stroke="#00E1FF" stroke-width="0.5" opacity="0.17675945192185782"/><line x1="699" y1="344" x2="679" y2="320" stroke="#00E1FF" stroke-width="0.5" opacity="0.8437950064818669"/><line x1="699" y1="344" x2="602" y2="444" stroke="#00E1FF" stroke-width="0.5" opacity="0.30341906428613763"/><line x1="699" y1="344" x2="883" y2="279" stroke="#00E1FF" stroke-width="0.5" opacity="0.024282315421104927"/><line x1="436" y1="391" x2="473" y2="316" stroke="#00E1FF" stroke-width="0.5" opacity="0.5818493094588986"/><line x1="436" y1="391" x2="494" y2="302" stroke="#00E1FF" stroke-width="0.5" opacity="0.4688455968364754"/><line x1="436" y1="391" x2="602" y2="444" stroke="#00E1FF" stroke-width="0.5" opacity="0.1287222027389886"/><line x1="436" y1="391" x2="387" y2="485" stroke="#00E1FF" stroke-width="0.5" opacity="0.4699764156190782"/><line x1="473" y1="316" x2="494" y2="302" stroke="#00E1FF" stroke-width="0.5" opacity="0.8738057053587603"/><line x1="473" y1="316" x2="602" y2="444" stroke="#00E1FF" stroke-width="0.5" opacity="0.09136090773068761"/><line x1="473" y1="316" x2="387" y2="485" stroke="#00E1FF" stroke-width="0.5" opacity="0.05188344598356465"/><line x1="473" y1="316" x2="376" y2="168" stroke="#00E1FF" stroke-width="0.5" opacity="0.11522601756154704"/><line x1="846" y1="387" x2="882" y2="216" stroke="#00E1FF" stroke-width="0.5" opacity="0.12625804724735812"/><line x1="846" y1="387" x2="679" y2="320" stroke="#00E1FF" stroke-width="0.5" opacity="0.10030560744217154"/><line x1="846" y1="387" x2="883" y2="279" stroke="#00E1FF" stroke-width="0.5" opacity="0.4291891731930797"/><line x1="122" y1="209" x2="286" y2="180" stroke="#00E1FF" stroke-width="0.5" opacity="0.16727855797992097"/><line x1="119" y1="839" x2="222" y2="670" stroke="#00E1FF" stroke-width="0.5" opacity="0.01042938604665511"/><line x1="340" y1="709" x2="269" y2="611" stroke="#00E1FF" stroke-width="0.5" opacity="0.3949173610158693"/><line x1="340" y1="709" x2="222" y2="670" stroke="#00E1FF" stroke-width="0.5" opacity="0.37861042815315926"/><line x1="269" y1="611" x2="387" y2="485" stroke="#00E1FF" stroke-width="0.5" opacity="0.1368661749183966"/><line x1="269" y1="611" x2="222" y2="670" stroke="#00E1FF" stroke-width="0.5" opacity="0.6228395566870777"/><line x1="882" y1="216" x2="883" y2="279" stroke="#00E1FF" stroke-width="0.5" opacity="0.6849603199595327"/><line x1="621" y1="489" x2="679" y2="320" stroke="#00E1FF" stroke-width="0.5" opacity="0.10662158073971806"/><line x1="621" y1="489" x2="544" y2="571" stroke="#00E1FF" stroke-width="0.5" opacity="0.43757222685930597"/><line x1="621" y1="489" x2="558" y2="646" stroke="#00E1FF" stroke-width="0.5" opacity="0.15415722501164553"/><line x1="621" y1="489" x2="602" y2="444" stroke="#00E1FF" stroke-width="0.5" opacity="0.7557665051636038"/><line x1="679" y1="320" x2="494" y2="302" stroke="#00E1FF" stroke-width="0.5" opacity="0.07063193513011212"/><line x1="679" y1="320" x2="602" y2="444" stroke="#00E1FF" stroke-width="0.5" opacity="0.27018838047068616"/><line x1="544" y1="571" x2="622" y2="717" stroke="#00E1FF" stroke-width="0.5" opacity="0.17235273213765756"/><line x1="544" y1="571" x2="558" y2="646" stroke="#00E1FF" stroke-width="0.5" opacity="0.6185226087957505"/><line x1="544" y1="571" x2="602" y2="444" stroke="#00E1FF" stroke-width="0.5" opacity="0.3019133291632048"/><line x1="544" y1="571" x2="387" y2="485" stroke="#00E1FF" stroke-width="0.5" opacity="0.10494413582167961"/><line x1="622" y1="717" x2="558" y2="646" stroke="#00E1FF" stroke-width="0.5" opacity="0.522061719465787"/><line x1="494" y1="302" x2="602" y2="444" stroke="#00E1FF" stroke-width="0.5" opacity="0.10797982085605273"/><line x1="494" y1="302" x2="376" y2="168" stroke="#00E1FF" stroke-width="0.5" opacity="0.10725143517337432"/><line x1="376" y1="168" x2="286" y2="180" stroke="#00E1FF" stroke-width="0.5" opacity="0.5460176214873533"/><circle cx="456" cy="175" r="4" fill="#00E1FF"/><circle cx="899" cy="373" r="4" fill="#00E1FF"/><circle cx="502" cy="668" r="4" fill="#00E1FF"/><circle cx="833" cy="225" r="4" fill="#00E1FF"/><circle cx="154" cy="127" r="4" fill="#00E1FF"/><circle cx="552" cy="162" r="4" fill="#00E1FF"/><circle cx="532" cy="532" r="4" fill="#00E1FF"/><circle cx="725" cy="163" r="4" fill="#00E1FF"/><circle cx="449" cy="852" r="4" fill="#00E1FF"/><circle cx="456" cy="171" r="4" fill="#00E1FF"/><circle cx="651" cy="271" r="4" fill="#00E1FF"/><circle cx="163" cy="305" r="4" fill="#00E1FF"/><circle cx="779" cy="385" r="4" fill="#00E1FF"/><circle cx="339" cy="539" r="4" fill="#00E1FF"/><circle cx="383" cy="267" r="4" fill="#00E1FF"/><circle cx="653" cy="226" r="4" fill="#00E1FF"/><circle cx="442" cy="419" r="4" fill="#00E1FF"/><circle cx="711" cy="154" r="4" fill="#00E1FF"/><circle cx="843" cy="743" r="4" fill="#00E1FF"/><circle cx="699" cy="344" r="4" fill="#00E1FF"/><circle cx="436" cy="391" r="4" fill="#00E1FF"/><circle cx="473" cy="316" r="4" fill="#00E1FF"/><circle cx="846" cy="387" r="4" fill="#00E1FF"/><circle cx="122" cy="209" r="4" fill="#00E1FF"/><circle cx="119" cy="839" r="4" fill="#00E1FF"/><circle cx="340" cy="709" r="4" fill="#00E1FF"/><circle cx="269" cy="611" r="4" fill="#00E1FF"/><circle cx="882" cy="216" r="4" fill="#00E1FF"/><circle cx="621" cy="489" r="4" fill="#00E1FF"/><circle cx="679" cy="320" r="4" fill="#00E1FF"/><circle cx="544" cy="571" r="4" fill="#00E1FF"/><circle cx="622" cy="717" r="4" fill="#00E1FF"/><circle cx="558" cy="646" r="4" fill="#00E1FF"/><circle cx="494" cy="302" r="4" fill="#00E1FF"/><circle cx="602" cy="444" r="4" fill="#00E1FF"/><circle cx="387" cy="485" r="4" fill="#00E1FF"/><circle cx="883" cy="279" r="4" fill="#00E1FF"/><circle cx="376" cy="168" r="4" fill="#00E1FF"/><circle cx="222" cy="670" r="4" fill="#00E1FF"/><circle cx="286" cy="180" r="4" fill="#00E1FF"/><circle cx="500" cy="500" r="60" fill="#FF3D2E"/><text x="500" y="520" text-anchor="middle" fill="#F5F5F5" font-size="60" font-weight="900" font-family="Arial">🧠</text></svg>