<svg xmlns="http://www.w3.org/2000/svg" viewBox="0 0 1000 1000"><rect width="1000" height="1000" fill="#050505"/><path d="M 0 500 L 0 586.673617898733 L 20 590.8223931065401 L 40 618.4883045186259 L 60 651.339452618573 L 80 648.2591684962134 L 100 584.8714873373413 L 120 480.2478372983963 L 140 385.56276598328543 L 160 344.1513266651867 L 180 358.56913550146066 L 200 393.8502405575916 L 220 413.0822333947529 L 240 412.0498707056856 L 260 420.98447550100485 L 280 472.1463868106668 L 300 563.774875983897 L 320 654.5586629052126 L 340 694.8393717659233 L 360 666.9297014836455 L 380 598.3206464939854 L 400 536.1173329824785 L 420 506.25268266875133 L 440 494.57952107451 L 460 466.44587544143366 L 480 405.7190096922101 L 500 336.2484557049867 L 520 304.98819222760415 L 540 341.49818435074747 L 560 430.6377190499543 L 580 523.5765826690337 L 600 577.4597412999431 L 620 588.0836375657412 L 640 586.6033058932383 L 660 604.427799491508 L 680 639.5989263733771 L 700 656.313490966071 L 720 618.3879538179885 L 740 525.8118384132681 L 760 420.26399680138627 L 780 353.6507285008176 L 800 347.5090183950504 L 820 379.4743859750474 L 840 408.26502874910545 L 860 413.5137628415022 L 880 413.5300199382834 L 900 444.81371764775406 L 920 522.7325093941934 L 940 620.4257189796745 L 960 686.4305394725408 L 980 685.9411505754222 L 1000 628.7233504350864" fill="none" stroke="#FF3D2E" stroke-width="6"/><path d="M 0 500 L 0 586.673617898733 L 20 590.8223931065401 L 40 618.4883045186259 L 60 651.339452618573 L 80 648.2591684962134 L 100 584.8714873373413 L 120 480.2478372983963 L 140 385.56276598328543 L 160 344.1513266651867 L 180 358.56913550146066 L 200 393.8502405575916 L 220 413.0822333947529 L 240 412.0498707056856 L 260 420.98447550100485 L 280 472.1463868106668 L 300 563.774875983897 L 320 654.5586629052126 L 340 694.8393717659233 L 360 666.9297014836455 L 380 598.3206464939854 L 400 536.1173329824785 L 420 506.25268266875133 L 440 494.57952107451 L 460 466.44587544143366 L 480 405.7190096922101 L 500 336.2484557049867 L 520 304.98819222760415 L 540 341.49818435074747 L 560 430.6377190499543 L 580 523.5765826690337 L 600 577.4597412999431 L 620 588.0836375657412 L 640 586.6033058932383 L 660 604.427799491508 L 680 639.5989263733771 L 700 656.313490966071 L 720 618.3879538179885 L 740 525.8118384132681 L 760 420.26399680138627 L 780 353.6507285008176 L 800 347.5090183950504 L 820 379.4743859750474 L 840 408.26502874910545 L 860 413.5137628415022 L 880 413.5300199382834 L 900 444.81371764775406 L 920 522.7325093941934 L 940 620.4257189796745 L 960 686.4305394725408 L 980 685.9411505754222 L 1000 628.7233504350864 L 1000 1000 L 0 1000 Z" fill="#FF3D2E" opacity="0.2"/><circle cx="500" cy="500" r="20" fill="#00E1FF"/></svg>