<svg xmlns="http://www.w3.org/2000/svg" viewBox="0 0 1000 1000">
    <rect width="1000" height="1000" fill="#050505"/>
    <circle cx="550" cy="137" r="1.1782859315141154" fill="#00E1FF" opacity="0.4254363480598518"/><circle cx="995" cy="205" r="0.7519612989142267" fill="#FF3D2E" opacity="0.4051208273741304"/><circle cx="436" cy="362" r="2.392622395966919" fill="#00E1FF" opacity="0.6748239073664063"/><circle cx="588" cy="170" r="0.6023866880065849" fill="#00E1FF" opacity="0.661924512990324"/><circle cx="299" cy="209" r="1.5178360545731708" fill="#FF3D2E" opacity="0.7640030077459211"/><circle cx="467" cy="780" r="2.2032429926315675" fill="#FFA800" opacity="0.9500959213043716"/><circle cx="623" cy="242" r="1.9072386007972821" fill="#00E1FF" opacity="0.9537064599314089"/><circle cx="747" cy="463" r="2.2464832903444316" fill="#FF3D2E" opacity="0.5171862940383372"/><circle cx="260" cy="364" r="1.7616379919509852" fill="#FF3D2E" opacity="0.5358896607856624"/><circle cx="842" cy="314" r="1.1528864993585297" fill="#00E1FF" opacity="0.8534749675001851"/><circle cx="584" cy="631" r="2.8214244396292405" fill="#00E1FF" opacity="0.6954754169011241"/><circle cx="422" cy="297" r="1.4688977187403436" fill="#FFA800" opacity="0.6332593308718415"/><circle cx="437" cy="425" r="0.9566518007504761" fill="#00E1FF" opacity="0.6992014769457051"/><circle cx="69" cy="768" r="0.9069632251674388" fill="#00E1FF" opacity="0.4444822476261274"/><circle cx="225" cy="981" r="1.4139772120908196" fill="#FFA800" opacity="0.37852550846074107"/><circle cx="618" cy="118" r="2.2482674719829334" fill="#FFA800" opacity="0.7376154409180757"/><circle cx="921" cy="272" r="2.9107737379916108" fill="#F5F5F5" opacity="0.8470510529643624"/><circle cx="934" cy="10" r="0.6283925409082581" fill="#00E1FF" opacity="0.30280027268555243"/><circle cx="551" cy="128" r="1.4422549021030313" fill="#00E1FF" opacity="0.7435847030600524"/><circle cx="503" cy="769" r="1.7607728745412587" fill="#00E1FF" opacity="0.9084090179410846"/><circle cx="376" cy="838" r="0.9550977336356421" fill="#00E1FF" opacity="0.6931569631369234"/><circle cx="768" cy="667" r="1.0493489909984073" fill="#00E1FF" opacity="0.8128704730189522"/><circle cx="12" cy="387" r="2.9859293160349956" fill="#FFA800" opacity="0.4031098031710997"/><circle cx="917" cy="577" r="1.585830356586492" fill="#F5F5F5" opacity="0.9567502916659218"/><circle cx="481" cy="257" r="1.2745544491291867" fill="#00E1FF" opacity="0.514537179844053"/><circle cx="673" cy="90" r="2.499932964787023" fill="#FFA800" opacity="0.9865345989834913"/><circle cx="212" cy="174" r="2.4040932786997606" fill="#FFA800" opacity="0.5804576710673428"/><circle cx="444" cy="736" r="2.7490835696656433" fill="#F5F5F5" opacity="0.97567533801096"/><circle cx="126" cy="691" r="0.7888585778092628" fill="#00E1FF" opacity="0.4758705105066863"/><circle cx="531" cy="1" r="2.6373234159071264" fill="#00E1FF" opacity="0.7740360489706481"/><circle cx="550" cy="257" r="1.8194761542701905" fill="#FFA800" opacity="0.9708568288587964"/><circle cx="149" cy="919" r="1.1138962366875949" fill="#FF3D2E" opacity="0.5326082415550769"/><circle cx="172" cy="66" r="1.9202343459280342" fill="#FF3D2E" opacity="0.3625612205268122"/><circle cx="405" cy="419" r="0.7220687575773989" fill="#00E1FF" opacity="0.32591310795393363"/><circle cx="923" cy="221" r="2.500606982223572" fill="#00E1FF" opacity="0.4888088787053574"/><circle cx="910" cy="143" r="2.3197978921389373" fill="#F5F5F5" opacity="0.69218537386877"/><circle cx="754" cy="663" r="1.4130538135540252" fill="#00E1FF" opacity="0.7786744615870311"/><circle cx="153" cy="317" r="2.5908178763005476" fill="#FFA800" opacity="0.672736420225988"/><circle cx="306" cy="43" r="2.012563488934291" fill="#F5F5F5" opacity="0.37422485826616814"/><circle cx="509" cy="457" r="0.8427800027409117" fill="#FF3D2E" opacity="0.9906216063940927"/><circle cx="116" cy="650" r="1.196396823288895" fill="#FF3D2E" opacity="0.7216963802012455"/><circle cx="67" cy="865" r="2.941631321348291" fill="#F5F5F5" opacity="0.8281797138656382"/><circle cx="219" cy="677" r="1.2106858091478985" fill="#FFA800" opacity="0.7632656623725791"/><circle cx="352" cy="379" r="1.4157557489311186" fill="#FF3D2E" opacity="0.8767337931788171"/><circle cx="56" cy="947" r="2.847943201430516" fill="#FF3D2E" opacity="0.8622672267129143"/><circle cx="955" cy="81" r="0.7272698180560434" fill="#FFA800" opacity="0.4355810770863032"/><circle cx="587" cy="661" r="1.6607519652265603" fill="#00E1FF" opacity="0.6786092494296458"/><circle cx="100" cy="300" r="1.072435985669804" fill="#FFA800" opacity="0.6080395712317865"/><circle cx="363" cy="618" r="0.9552036291318584" fill="#F5F5F5" opacity="0.33940092912646286"/><circle cx="638" cy="661" r="1.7541599691977172" fill="#FF3D2E" opacity="0.6831418704459677"/><circle cx="58" cy="96" r="1.0567995266127101" fill="#F5F5F5" opacity="0.9733160777068557"/><circle cx="457" cy="926" r="2.9143828255175634" fill="#00E1FF" opacity="0.8088561817153872"/><circle cx="720" cy="620" r="1.5529355114168037" fill="#FFA800" opacity="0.8747400254410431"/><circle cx="277" cy="144" r="1.4635645166407403" fill="#00E1FF" opacity="0.7941548592480042"/><circle cx="789" cy="808" r="2.0188782283049536" fill="#00E1FF" opacity="0.9268278434806791"/><circle cx="70" cy="305" r="2.445879938060183" fill="#00E1FF" opacity="0.9652253874858003"/><circle cx="683" cy="222" r="2.950072295909055" fill="#F5F5F5" opacity="0.47277907814170217"/><circle cx="222" cy="139" r="0.7630606313341177" fill="#F5F5F5" opacity="0.8642396511160779"/><circle cx="860" cy="697" r="0.880194867584317" fill="#00E1FF" opacity="0.9763635647690292"/><circle cx="162" cy="33" r="2.6817681176830614" fill="#F5F5F5" opacity="0.53630884348876"/><circle cx="100" cy="547" r="1.4686346050945904" fill="#FFA800" opacity="0.8104728530770013"/><circle cx="139" cy="556" r="0.6078404935642796" fill="#F5F5F5" opacity="0.3061262914583066"/><circle cx="665" cy="235" r="1.4295954660532408" fill="#F5F5F5" opacity="0.6510530115615536"/><circle cx="54" cy="149" r="2.9723171706363365" fill="#F5F5F5" opacity="0.5946459631157626"/><circle cx="458" cy="691" r="1.6651756463357876" fill="#00E1FF" opacity="0.6410335515664503"/><circle cx="139" cy="569" r="2.3732458513917134" fill="#F5F5F5" opacity="0.9410955088278237"/><circle cx="165" cy="218" r="2.3997567510181455" fill="#FFA800" opacity="0.9113705779340853"/><circle cx="760" cy="813" r="2.2520936228931028" fill="#00E1FF" opacity="0.743025299812103"/><circle cx="833" cy="700" r="2.019083675870952" fill="#FFA800" opacity="0.4680943752023383"/><circle cx="129" cy="840" r="2.6668264780619895" fill="#FF3D2E" opacity="0.7755573185355382"/><circle cx="435" cy="488" r="0.9174885810048645" fill="#FF3D2E" opacity="0.9470813988229745"/><circle cx="815" cy="440" r="1.0265184002286398" fill="#F5F5F5" opacity="0.42843892104251213"/><circle cx="833" cy="220" r="0.813080490033088" fill="#FFA800" opacity="0.37944094160842784"/><circle cx="579" cy="275" r="2.530627206255483" fill="#FF3D2E" opacity="0.895947971644244"/><circle cx="549" cy="157" r="0.7651938049064984" fill="#F5F5F5" opacity="0.862726916592607"/><circle cx="858" cy="221" r="1.3575796207593656" fill="#00E1FF" opacity="0.7732734712353063"/><circle cx="695" cy="574" r="2.799622532814551" fill="#FF3D2E" opacity="0.9692089267069555"/><circle cx="329" cy="152" r="2.4835739507895807" fill="#00E1FF" opacity="0.3187393676800385"/><circle cx="567" cy="591" r="0.6020711801603946" fill="#FFA800" opacity="0.5871826454591811"/><circle cx="203" cy="712" r="0.7797346175964605" fill="#FF3D2E" opacity="0.33594492540323295"/><circle cx="636" cy="123" r="0.5319489068442191" fill="#F5F5F5" opacity="0.5914051633353541"/><circle cx="428" cy="50" r="1.1776503151910696" fill="#FF3D2E" opacity="0.7670620728306267"/><circle cx="575" cy="431" r="1.700609663215122" fill="#FF3D2E" opacity="0.7760758910217429"/><circle cx="178" cy="771" r="1.2768105427482463" fill="#FFA800" opacity="0.7543436378657381"/><circle cx="566" cy="111" r="0.9900624597519487" fill="#FFA800" opacity="0.7779069596451135"/><circle cx="844" cy="155" r="0.7506279646791149" fill="#00E1FF" opacity="0.7304333422863074"/><circle cx="827" cy="923" r="0.6076099886301463" fill="#00E1FF" opacity="0.7965082086292641"/><circle cx="923" cy="964" r="1.4480439076440794" fill="#00E1FF" opacity="0.42592401536141733"/><circle cx="515" cy="214" r="2.821835561837265" fill="#FF3D2E" opacity="0.5288860537196594"/><circle cx="598" cy="174" r="1.804279025783488" fill="#F5F5F5" opacity="0.6718848345395697"/><circle cx="439" cy="890" r="1.2611140217848722" fill="#F5F5F5" opacity="0.9404425149986937"/><circle cx="195" cy="642" r="0.5638030657076633" fill="#FF3D2E" opacity="0.5782194406236776"/><circle cx="867" cy="630" r="0.9227317358792648" fill="#FF3D2E" opacity="0.7268695530692615"/><circle cx="897" cy="756" r="1.0137023524845852" fill="#FF3D2E" opacity="0.7566366713017127"/><circle cx="129" cy="957" r="2.7041798261019303" fill="#FFA800" opacity="0.7873215729482945"/><circle cx="635" cy="908" r="2.3307563495422463" fill="#F5F5F5" opacity="0.676875357330796"/><circle cx="979" cy="428" r="2.0652678060410103" fill="#FFA800" opacity="0.531325194372426"/><circle cx="495" cy="761" r="1.9280549249115226" fill="#00E1FF" opacity="0.671516393226516"/><circle cx="66" cy="326" r="0.5237152737739288" fill="#F5F5F5" opacity="0.31929522269606636"/><circle cx="624" cy="321" r="2.167683840759744" fill="#00E1FF" opacity="0.7353474589576252"/><circle cx="440" cy="956" r="1.6128771187450197" fill="#00E1FF" opacity="0.8181056779390554"/><circle cx="911" cy="855" r="1.3358405229728594" fill="#00E1FF" opacity="0.5574766588312584"/><circle cx="850" cy="12" r="2.7165319980358773" fill="#FF3D2E" opacity="0.7872738605418559"/><circle cx="677" cy="130" r="2.567915908817724" fill="#FF3D2E" opacity="0.44342083821798806"/><circle cx="279" cy="917" r="0.9096593026825862" fill="#FFA800" opacity="0.38403141912106814"/><circle cx="832" cy="437" r="1.7154483346113905" fill="#00E1FF" opacity="0.34524667905924683"/><circle cx="891" cy="370" r="1.4932854388415717" fill="#FFA800" opacity="0.7880746352870832"/><circle cx="842" cy="31" r="2.8923954872607784" fill="#FF3D2E" opacity="0.30501953867124065"/><circle cx="871" cy="298" r="2.5922190757849144" fill="#FF3D2E" opacity="0.5891996051770751"/><circle cx="790" cy="552" r="2.5085682098346727" fill="#FF3D2E" opacity="0.4562519067737707"/><circle cx="403" cy="216" r="1.519954151018823" fill="#FFA800" opacity="0.4587371309513223"/><circle cx="856" cy="426" r="1.1991386245457132" fill="#00E1FF" opacity="0.589534793909676"/><circle cx="463" cy="265" r="0.6755318470659128" fill="#00E1FF" opacity="0.600098474971525"/><circle cx="501" cy="646" r="2.0791435590983816" fill="#00E1FF" opacity="0.5184971850218593"/><circle cx="789" cy="282" r="1.7307542521219828" fill="#F5F5F5" opacity="0.5501060123677586"/><circle cx="703" cy="489" r="1.4249113777682272" fill="#FFA800" opacity="0.8688802510281157"/><circle cx="670" cy="637" r="1.3748237246427126" fill="#00E1FF" opacity="0.9171708553207742"/><circle cx="699" cy="353" r="0.6929116185287144" fill="#F5F5F5" opacity="0.47942663350376324"/><circle cx="79" cy="402" r="1.926227652241463" fill="#FFA800" opacity="0.4696885365969141"/><circle cx="112" cy="937" r="1.9399744200024873" fill="#F5F5F5" opacity="0.8805961082934617"/><circle cx="973" cy="30" r="0.9958551519607712" fill="#FFA800" opacity="0.7623295734542574"/><circle cx="305" cy="603" r="2.4395598988073406" fill="#00E1FF" opacity="0.3802822377960801"/><circle cx="459" cy="133" r="1.251192303614208" fill="#F5F5F5" opacity="0.7387198322991626"/><circle cx="787" cy="223" r="2.055476914571858" fill="#FF3D2E" opacity="0.5901381388531706"/><circle cx="309" cy="876" r="0.576543491011985" fill="#FF3D2E" opacity="0.6762310381959105"/><circle cx="549" cy="444" r="1.4753527103244375" fill="#FFA800" opacity="0.7628783033454103"/><circle cx="921" cy="666" r="2.2500603039376896" fill="#FFA800" opacity="0.8612917376025673"/><circle cx="643" cy="488" r="0.7693092101728767" fill="#00E1FF" opacity="0.30277023002601455"/><circle cx="807" cy="132" r="2.795286958459011" fill="#F5F5F5" opacity="0.45965845350514106"/><circle cx="662" cy="847" r="2.4578071603008924" fill="#00E1FF" opacity="0.7070210783332498"/><circle cx="379" cy="601" r="2.8579600566095533" fill="#FF3D2E" opacity="0.7956276213525799"/><circle cx="481" cy="570" r="1.5885600817479864" fill="#F5F5F5" opacity="0.939735309777235"/><circle cx="254" cy="820" r="0.8207551546120252" fill="#FFA800" opacity="0.43003872147215605"/><circle cx="127" cy="260" r="1.1154898895777028" fill="#00E1FF" opacity="0.5407608409258675"/><circle cx="730" cy="951" r="2.7831760727155825" fill="#FFA800" opacity="0.6512774081688157"/><circle cx="243" cy="938" r="2.3107174232671297" fill="#FF3D2E" opacity="0.39810743190656106"/><circle cx="180" cy="38" r="1.0233189674617096" fill="#FFA800" opacity="0.8478497927591133"/><circle cx="466" cy="330" r="2.77673107292576" fill="#FF3D2E" opacity="0.8004692717576984"/><circle cx="127" cy="548" r="2.612516896975332" fill="#FF3D2E" opacity="0.6693523643662682"/><circle cx="71" cy="476" r="2.998029348990861" fill="#FF3D2E" opacity="0.42734193444950147"/><circle cx="607" cy="127" r="2.2335313679660596" fill="#FFA800" opacity="0.6083435568607362"/><circle cx="656" cy="683" r="1.8298760527272728" fill="#FFA800" opacity="0.8454961443150686"/><circle cx="856" cy="276" r="1.3577319354787782" fill="#00E1FF" opacity="0.5881571004525499"/><circle cx="857" cy="678" r="2.763085414918646" fill="#F5F5F5" opacity="0.8023881340234689"/><circle cx="208" cy="209" r="2.558284825242577" fill="#FF3D2E" opacity="0.39736553249170636"/><circle cx="818" cy="82" r="0.7585616313450945" fill="#F5F5F5" opacity="0.6257623537278156"/><circle cx="458" cy="142" r="1.9260246641002705" fill="#F5F5F5" opacity="0.8963454856941484"/><circle cx="733" cy="840" r="0.9960395002324475" fill="#FFA800" opacity="0.32257982438953586"/><circle cx="270" cy="770" r="1.3423244466951818" fill="#FFA800" opacity="0.35352926597842904"/><circle cx="136" cy="388" r="1.0836923358739559" fill="#FF3D2E" opacity="0.5431270945041586"/><circle cx="207" cy="543" r="2.012098951388362" fill="#F5F5F5" opacity="0.5470817669985116"/><circle cx="661" cy="57" r="1.9981649056332136" fill="#FF3D2E" opacity="0.907230625909299"/><circle cx="91" cy="926" r="2.4786686264340285" fill="#00E1FF" opacity="0.5145062448037236"/><circle cx="962" cy="682" r="0.883338182853929" fill="#00E1FF" opacity="0.7211802939831434"/><circle cx="614" cy="276" r="0.5670533970497489" fill="#F5F5F5" opacity="0.3419361101335916"/><circle cx="324" cy="152" r="2.858320510711262" fill="#FFA800" opacity="0.9096424100269966"/><circle cx="179" cy="276" r="0.8629205541638397" fill="#F5F5F5" opacity="0.9692597448312801"/><circle cx="45" cy="768" r="0.6000049024711275" fill="#FFA800" opacity="0.5799161310669279"/><circle cx="704" cy="23" r="1.9475819912144021" fill="#FFA800" opacity="0.878745900790449"/><circle cx="78" cy="443" r="1.5721883278423505" fill="#FF3D2E" opacity="0.8219382453405282"/><circle cx="150" cy="737" r="1.4712833095009499" fill="#00E1FF" opacity="0.4216772571298344"/><circle cx="860" cy="970" r="2.0401648655330638" fill="#FFA800" opacity="0.617392491941432"/><circle cx="600" cy="362" r="2.1162307193751975" fill="#FFA800" opacity="0.35518374331122915"/><circle cx="688" cy="721" r="1.0866903678393065" fill="#00E1FF" opacity="0.6703716419223249"/><circle cx="787" cy="436" r="1.0912243143051632" fill="#F5F5F5" opacity="0.8018589873689626"/><circle cx="695" cy="956" r="2.0409612200433465" fill="#FF3D2E" opacity="0.5765865841550861"/><circle cx="363" cy="264" r="2.3104292912805926" fill="#F5F5F5" opacity="0.6187635735207707"/><circle cx="968" cy="439" r="2.917864035926133" fill="#F5F5F5" opacity="0.4301470041974724"/><circle cx="890" cy="430" r="0.9086323502538897" fill="#FF3D2E" opacity="0.8565703002474632"/><circle cx="941" cy="797" r="1.605894239050564" fill="#F5F5F5" opacity="0.3580169816898703"/><circle cx="957" cy="172" r="2.343356310627937" fill="#00E1FF" opacity="0.6841739722496711"/><circle cx="33" cy="193" r="2.312707633510132" fill="#FF3D2E" opacity="0.9810242114223022"/><circle cx="960" cy="323" r="1.130107791542414" fill="#FFA800" opacity="0.6112730992771442"/><circle cx="60" cy="800" r="1.913222350844311" fill="#FF3D2E" opacity="0.30099672866809973"/><circle cx="567" cy="673" r="2.292271596709882" fill="#00E1FF" opacity="0.5244792265299097"/><circle cx="613" cy="599" r="1.0223730777348201" fill="#00E1FF" opacity="0.4057205732356663"/><circle cx="850" cy="463" r="1.4745686651640235" fill="#FF3D2E" opacity="0.6756438515831948"/><circle cx="220" cy="295" r="1.489714291118512" fill="#FF3D2E" opacity="0.9139116357243648"/><circle cx="8" cy="546" r="2.268106591067528" fill="#FFA800" opacity="0.9703608147757223"/><circle cx="34" cy="339" r="2.9948127957275585" fill="#F5F5F5" opacity="0.6222866053331035"/><circle cx="731" cy="56" r="2.8046831402339714" fill="#F5F5F5" opacity="0.9467990059574043"/><circle cx="934" cy="722" r="2.580157254016667" fill="#F5F5F5" opacity="0.4276574626210364"/><circle cx="300" cy="745" r="2.5596936729644906" fill="#00E1FF" opacity="0.308532195990001"/><circle cx="312" cy="984" r="1.0227546469351623" fill="#FF3D2E" opacity="0.7727519498952622"/><circle cx="127" cy="254" r="2.325238423675545" fill="#FFA800" opacity="0.5470849816944634"/><circle cx="258" cy="567" r="1.9329052734697818" fill="#00E1FF" opacity="0.9276621382103938"/><circle cx="544" cy="840" r="2.0488290076105398" fill="#F5F5F5" opacity="0.6725299627118138"/><circle cx="114" cy="571" r="2.7139112437543265" fill="#00E1FF" opacity="0.9882567838399408"/><circle cx="992" cy="241" r="1.3296297245314506" fill="#00E1FF" opacity="0.40164134262349677"/><circle cx="83" cy="976" r="0.8598290033014884" fill="#FFA800" opacity="0.6895746643456533"/><circle cx="623" cy="836" r="0.7985603635536777" fill="#FF3D2E" opacity="0.8818346587803538"/><circle cx="967" cy="237" r="2.9105194927018276" fill="#FFA800" opacity="0.5692338640556838"/><circle cx="999" cy="845" r="2.3860214652967358" fill="#00E1FF" opacity="0.7712204712442036"/><circle cx="164" cy="517" r="2.5302356422906636" fill="#FFA800" opacity="0.9771786556051549"/><circle cx="169" cy="941" r="0.9219215942180465" fill="#00E1FF" opacity="0.3318059288042634"/><circle cx="867" cy="258" r="2.2561513738533856" fill="#F5F5F5" opacity="0.8238596144884158"/><circle cx="90" cy="601" r="1.3300861294398132" fill="#FFA800" opacity="0.8353256699040887"/><circle cx="134" cy="291" r="1.339918031077046" fill="#FFA800" opacity="0.9710437978429542"/><circle cx="725" cy="527" r="1.4392313269929913" fill="#FFA800" opacity="0.8760043236430117"/><circle cx="335" cy="338" r="1.8394092144615537" fill="#00E1FF" opacity="0.8871355108504724"/>
  </svg>