<svg xmlns="http://www.w3.org/2000/svg" viewBox="0 0 1000 1000"><rect width="1000" height="1000" fill="#050505"/><circle cx="650" cy="500" r="33.333333333333336" fill="#00E1FF" opacity="0.7"/><rect x="696.691659379973" y="508.87018867402526" width="60" height="60" fill="#FF3D2E" opacity="0.7" transform="rotate(15 726.691659379973 538.8701886740253)"/><polygon points="792.2920080929362,563.2733363700379 827.2920080929362,623.2733363700379 757.2920080929362,623.2733363700379" fill="#FF3D2E" opacity="0.7"/><line x1="580.9521169741782" y1="573.1542415720452" x2="680.9521169741782" y2="573.1542415720452" stroke="#00E1FF" stroke-width="4" opacity="0.8"/><circle cx="678.9482234932411" cy="644.4905993779978" r="33.333333333333336" fill="#FF3D2E" opacity="0.7"/><rect x="674.8091642509253" y="702.7084146283446" width="60" height="60" fill="#FF3D2E" opacity="0.7" transform="rotate(75 704.8091642509253 732.7084146283446)"/><polygon points="578.6460925335848,587.7293706599967 613.6460925335848,647.7293706599967 543.6460925335848,647.7293706599967" fill="#FFA800" opacity="0.7"/><line x1="535.756989889471" y1="713.4144762781972" x2="635.756989889471" y2="713.4144762781972" stroke="#FFA800" stroke-width="4" opacity="0.8"/><circle cx="565.3105736986752" cy="803.0421240737828" r="33.333333333333336" fill="#00E1FF" opacity="0.7"/><rect x="476.3661804794222" y="619.8648449307022" width="60" height="60" fill="#FF3D2E" opacity="0.7" transform="rotate(135 506.3661804794222 649.8648449307022)"/><polygon points="470.7859014582179,688.1371001095417 505.7859014582179,748.1371001095417 435.7859014582179,748.1371001095417" fill="#00E1FF" opacity="0.7"/><line x1="359.2249409042694" y1="796.4116877691678" x2="459.2249409042694" y2="796.4116877691678" stroke="#00E1FF" stroke-width="4" opacity="0.8"/><circle cx="432.469438277349" cy="633.9388787224352" r="33.333333333333336" fill="#FFA800" opacity="0.7"/><rect x="333.23436945001407" y="654.9193399843963" width="60" height="60" fill="#FF3D2E" opacity="0.7" transform="rotate(195 363.23436945001407 684.9193399843963)"/><polygon points="276.19361087409743,674.5010493830393 311.19361087409743,734.5010493830393 241.19361087409743,734.5010493830393" fill="#FF3D2E" opacity="0.7"/><line x1="325.7235526134237" y1="583.9962179206393" x2="425.7235526134237" y2="583.9962179206393" stroke="#00E1FF" stroke-width="4" opacity="0.8"/><circle cx="290.41744721072877" cy="594.7372870961183" r="33.333333333333336" fill="#00E1FF" opacity="0.7"/><rect x="170.00278645061536" y="548.1131990293887" width="60" height="60" fill="#FFA800" opacity="0.7" transform="rotate(255 200.00278645061536 578.1131990293887)"/><polygon points="350.540376718621,472.7208886713264 385.540376718621,532.7208886713264 315.540376718621,532.7208886713264" fill="#00E1FF" opacity="0.7"/><line x1="220.8285776352189" y1="480.494637370633" x2="320.8285776352189" y2="480.494637370633" stroke="#FF3D2E" stroke-width="4" opacity="0.8"/><circle cx="200.00278645061536" cy="421.8868009706112" r="33.333333333333336" fill="#00E1FF" opacity="0.7"/><rect x="333.3157264417796" y="408.21481276340114" width="60" height="60" fill="#FF3D2E" opacity="0.7" transform="rotate(315 363.3157264417796 438.21481276340114)"/><polygon points="309.44278067391633,331.20579918835307 344.44278067391633,391.20579918835307 274.44278067391633,391.20579918835307" fill="#FFA800" opacity="0.7"/><line x1="226.19361087409737" y1="285.4989506169607" x2="326.1936108740974" y2="285.4989506169607" stroke="#00E1FF" stroke-width="4" opacity="0.8"/><circle cx="410.80502355435704" cy="379.4004304449589" r="33.333333333333336" fill="#FF3D2E" opacity="0.7"/><rect x="366.45313869193507" y="264.6270526255993" width="60" height="60" fill="#FFA800" opacity="0.7" transform="rotate(375 396.45313869193507 294.6270526255993)"/><polygon points="409.2249409042694,163.58831223083223 444.2249409042694,223.58831223083223 374.2249409042694,223.58831223083223" fill="#FF3D2E" opacity="0.7"/><line x1="430.94732703796814" y1="351.21493471116844" x2="530.9473270379681" y2="351.21493471116844" stroke="#FFA800" stroke-width="4" opacity="0.8"/><circle cx="509.7614767351141" cy="270.20723777292324" r="33.333333333333336" fill="#FFA800" opacity="0.7"/><rect x="535.310573698675" y="166.95787592621724" width="60" height="60" fill="#FFA800" opacity="0.7" transform="rotate(435 565.310573698675 196.95787592621724)"/><polygon points="555.9284716670462,320.8166459055236 590.9284716670462,380.8166459055236 520.9284716670462,380.8166459055236" fill="#FFA800" opacity="0.7"/><line x1="570.5906752181634" y1="304.1482983213384" x2="670.5906752181634" y2="304.1482983213384" stroke="#FFA800" stroke-width="4" opacity="0.8"/><circle cx="704.8091642509254" cy="267.2915853716556" r="33.333333333333336" fill="#00E1FF" opacity="0.7"/><rect x="586.7053631477659" y="375.7670004056537" width="60" height="60" fill="#00E1FF" opacity="0.7" transform="rotate(495 616.7053631477659 405.7670004056537)"/><polygon points="700.7932460270733,347.83016292286413 735.7932460270733,407.83016292286413 665.7932460270733,407.83016292286413" fill="#00E1FF" opacity="0.7"/><line x1="742.292008092936" y1="396.7266636299621" x2="842.292008092936" y2="396.7266636299621" stroke="#FF3D2E" stroke-width="4" opacity="0.8"/><circle cx="647.8423865521563" cy="474.64987695172266" r="33.333333333333336" fill="#FF3D2E" opacity="0.7"/><circle cx="500" cy="500" r="80" fill="#F5F5F5" opacity="0.9"/><circle cx="500" cy="500" r="40" fill="#050505"/></svg>