<svg xmlns="http://www.w3.org/2000/svg" viewBox="0 0 1000 1000"><rect width="1000" height="1000" fill="#050505"/><line x1="350" y1="869" x2="373" y2="810" stroke="#00E1FF" stroke-width="0.5" opacity="0.6833771960202487"/><line x1="350" y1="869" x2="317" y2="826" stroke="#00E1FF" stroke-width="0.5" opacity="0.728983395342647"/><line x1="350" y1="869" x2="367" y2="879" stroke="#00E1FF" stroke-width="0.5" opacity="0.9013845853834199"/><line x1="180" y1="294" x2="181" y2="220" stroke="#00E1FF" stroke-width="0.5" opacity="0.6299662177584322"/><line x1="180" y1="294" x2="334" y2="264" stroke="#00E1FF" stroke-width="0.5" opacity="0.21552565370179233"/><line x1="180" y1="294" x2="175" y2="478" stroke="#00E1FF" stroke-width="0.5" opacity="0.07966038876945003"/><line x1="180" y1="294" x2="118" y2="214" stroke="#00E1FF" stroke-width="0.5" opacity="0.49393676284480026"/><line x1="180" y1="294" x2="215" y2="162" stroke="#00E1FF" stroke-width="0.5" opacity="0.31719329235866456"/><line x1="180" y1="294" x2="200" y2="431" stroke="#00E1FF" stroke-width="0.5" opacity="0.30773921099054"/><line x1="180" y1="294" x2="104" y2="425" stroke="#00E1FF" stroke-width="0.5" opacity="0.24275169197944058"/><line x1="181" y1="220" x2="334" y2="264" stroke="#00E1FF" stroke-width="0.5" opacity="0.2039943467537434"/><line x1="181" y1="220" x2="118" y2="214" stroke="#00E1FF" stroke-width="0.5" opacity="0.6835746533540652"/><line x1="181" y1="220" x2="215" y2="162" stroke="#00E1FF" stroke-width="0.5" opacity="0.6638452737205678"/><line x1="723" y1="503" x2="771" y2="657" stroke="#00E1FF" stroke-width="0.5" opacity="0.19346419794283165"/><line x1="723" y1="503" x2="774" y2="481" stroke="#00E1FF" stroke-width="0.5" opacity="0.7222861184600238"/><line x1="723" y1="503" x2="707" y2="311" stroke="#00E1FF" stroke-width="0.5" opacity="0.036672433696616435"/><line x1="723" y1="503" x2="617" y2="477" stroke="#00E1FF" stroke-width="0.5" opacity="0.45428945401431"/><line x1="723" y1="503" x2="626" y2="481" stroke="#00E1FF" stroke-width="0.5" opacity="0.5026821941655417"/><line x1="357" y1="460" x2="334" y2="264" stroke="#00E1FF" stroke-width="0.5" opacity="0.013275621057227793"/><line x1="357" y1="460" x2="175" y2="478" stroke="#00E1FF" stroke-width="0.5" opacity="0.08556028082765332"/><line x1="357" y1="460" x2="411" y2="619" stroke="#00E1FF" stroke-width="0.5" opacity="0.16040188185060833"/><line x1="357" y1="460" x2="481" y2="421" stroke="#00E1FF" stroke-width="0.5" opacity="0.350057694868229"/><line x1="357" y1="460" x2="187" y2="541" stroke="#00E1FF" stroke-width="0.5" opacity="0.05844543440117078"/><line x1="357" y1="460" x2="216" y2="564" stroke="#00E1FF" stroke-width="0.5" opacity="0.1239720324099235"/><line x1="357" y1="460" x2="200" y2="431" stroke="#00E1FF" stroke-width="0.5" opacity="0.20172060029085048"/><line x1="357" y1="460" x2="319" y2="524" stroke="#00E1FF" stroke-width="0.5" opacity="0.6278441186814321"/><line x1="334" y1="264" x2="215" y2="162" stroke="#00E1FF" stroke-width="0.5" opacity="0.21633872113010466"/><line x1="334" y1="264" x2="453" y2="247" stroke="#00E1FF" stroke-width="0.5" opacity="0.39895923599143457"/><line x1="115" y1="593" x2="175" y2="478" stroke="#00E1FF" stroke-width="0.5" opacity="0.35144391144635767"/><line x1="115" y1="593" x2="100" y2="691" stroke="#00E1FF" stroke-width="0.5" opacity="0.5042934335718359"/><line x1="115" y1="593" x2="132" y2="497" stroke="#00E1FF" stroke-width="0.5" opacity="0.512532052335746"/><line x1="115" y1="593" x2="187" y2="541" stroke="#00E1FF" stroke-width="0.5" opacity="0.5559279337765097"/><line x1="115" y1="593" x2="216" y2="564" stroke="#00E1FF" stroke-width="0.5" opacity="0.47459539400572437"/><line x1="115" y1="593" x2="113" y2="691" stroke="#00E1FF" stroke-width="0.5" opacity="0.5098979698062862"/><line x1="115" y1="593" x2="200" y2="431" stroke="#00E1FF" stroke-width="0.5" opacity="0.0852732648490041"/><line x1="115" y1="593" x2="157" y2="733" stroke="#00E1FF" stroke-width="0.5" opacity="0.26917854437626143"/><line x1="115" y1="593" x2="104" y2="425" stroke="#00E1FF" stroke-width="0.5" opacity="0.1582013304833514"/><line x1="612" y1="256" x2="556" y2="210" stroke="#00E1FF" stroke-width="0.5" opacity="0.6376465813601313"/><line x1="612" y1="256" x2="528" y2="128" stroke="#00E1FF" stroke-width="0.5" opacity="0.2344936316398144"/><line x1="612" y1="256" x2="588" y2="228" stroke="#00E1FF" stroke-width="0.5" opacity="0.8156091108541422"/><line x1="612" y1="256" x2="610" y2="328" stroke="#00E1FF" stroke-width="0.5" opacity="0.6398611378926178"/><line x1="612" y1="256" x2="453" y2="247" stroke="#00E1FF" stroke-width="0.5" opacity="0.20372743360078016"/><line x1="612" y1="256" x2="707" y2="311" stroke="#00E1FF" stroke-width="0.5" opacity="0.4511375399974963"/><line x1="612" y1="256" x2="517" y2="179" stroke="#00E1FF" stroke-width="0.5" opacity="0.3885672563560242"/><line x1="612" y1="256" x2="682" y2="289" stroke="#00E1FF" stroke-width="0.5" opacity="0.6130568517210829"/><line x1="612" y1="256" x2="791" y2="243" stroke="#00E1FF" stroke-width="0.5" opacity="0.10264276901559422"/><line x1="771" y1="657" x2="774" y2="481" stroke="#00E1FF" stroke-width="0.5" opacity="0.11987216837552506"/><line x1="771" y1="657" x2="724" y2="812" stroke="#00E1FF" stroke-width="0.5" opacity="0.19015433569105267"/><line x1="771" y1="657" x2="833" y2="825" stroke="#00E1FF" stroke-width="0.5" opacity="0.10462298443616491"/><line x1="774" y1="481" x2="707" y2="311" stroke="#00E1FF" stroke-width="0.5" opacity="0.08636714157162673"/><line x1="774" y1="481" x2="617" y2="477" stroke="#00E1FF" stroke-width="0.5" opacity="0.21474526426133533"/><line x1="774" y1="481" x2="626" y2="481" stroke="#00E1FF" stroke-width="0.5" opacity="0.26"/><line x1="175" y1="478" x2="132" y2="497" stroke="#00E1FF" stroke-width="0.5" opacity="0.7649468145291368"/><line x1="175" y1="478" x2="187" y2="541" stroke="#00E1FF" stroke-width="0.5" opacity="0.6793366251035207"/><line x1="175" y1="478" x2="216" y2="564" stroke="#00E1FF" stroke-width="0.5" opacity="0.523633544421944"/><line x1="175" y1="478" x2="200" y2="431" stroke="#00E1FF" stroke-width="0.5" opacity="0.7338233669158767"/><line x1="175" y1="478" x2="319" y2="524" stroke="#00E1FF" stroke-width="0.5" opacity="0.2441561007721238"/><line x1="175" y1="478" x2="104" y2="425" stroke="#00E1FF" stroke-width="0.5" opacity="0.5569988713332663"/><line x1="118" y1="214" x2="215" y2="162" stroke="#00E1FF" stroke-width="0.5" opacity="0.44970462476956974"/><line x1="556" y1="210" x2="528" y2="128" stroke="#00E1FF" stroke-width="0.5" opacity="0.5667564195513106"/><line x1="556" y1="210" x2="588" y2="228" stroke="#00E1FF" stroke-width="0.5" opacity="0.8164244024931417"/><line x1="556" y1="210" x2="610" y2="328" stroke="#00E1FF" stroke-width="0.5" opacity="0.35115487209966656"/><line x1="556" y1="210" x2="453" y2="247" stroke="#00E1FF" stroke-width="0.5" opacity="0.4527797518366119"/><line x1="556" y1="210" x2="707" y2="311" stroke="#00E1FF" stroke-width="0.5" opacity="0.0916773700936433"/><line x1="556" y1="210" x2="517" y2="179" stroke="#00E1FF" stroke-width="0.5" opacity="0.7509016258583769"/><line x1="556" y1="210" x2="682" y2="289" stroke="#00E1FF" stroke-width="0.5" opacity="0.2564107316535559"/><line x1="411" y1="619" x2="373" y2="810" stroke="#00E1FF" stroke-width="0.5" opacity="0.026282895292477515"/><line x1="411" y1="619" x2="319" y2="524" stroke="#00E1FF" stroke-width="0.5" opacity="0.33877008537120756"/><line x1="528" y1="128" x2="588" y2="228" stroke="#00E1FF" stroke-width="0.5" opacity="0.41690481051547"/><line x1="528" y1="128" x2="453" y2="247" stroke="#00E1FF" stroke-width="0.5" opacity="0.29668641417927955"/><line x1="528" y1="128" x2="517" y2="179" stroke="#00E1FF" stroke-width="0.5" opacity="0.7391360507850884"/><line x1="100" y1="691" x2="132" y2="497" stroke="#00E1FF" stroke-width="0.5" opacity="0.016892681341451943"/><line x1="100" y1="691" x2="187" y2="541" stroke="#00E1FF" stroke-width="0.5" opacity="0.13297923900289443"/><line x1="100" y1="691" x2="216" y2="564" stroke="#00E1FF" stroke-width="0.5" opacity="0.13998546523910416"/><line x1="100" y1="691" x2="113" y2="691" stroke="#00E1FF" stroke-width="0.5" opacity="0.935"/><line x1="100" y1="691" x2="157" y2="733" stroke="#00E1FF" stroke-width="0.5" opacity="0.6459872883638216"/><line x1="588" y1="228" x2="610" y2="328" stroke="#00E1FF" stroke-width="0.5" opacity="0.4880429705531918"/><line x1="588" y1="228" x2="453" y2="247" stroke="#00E1FF" stroke-width="0.5" opacity="0.31834759591122974"/><line x1="588" y1="228" x2="707" y2="311" stroke="#00E1FF" stroke-width="0.5" opacity="0.2745690935726546"/><line x1="588" y1="228" x2="517" y2="179" stroke="#00E1FF" stroke-width="0.5" opacity="0.5686648634762059"/><line x1="588" y1="228" x2="682" y2="289" stroke="#00E1FF" stroke-width="0.5" opacity="0.4397098965714279"/><line x1="610" y1="328" x2="453" y2="247" stroke="#00E1FF" stroke-width="0.5" opacity="0.11668239007704584"/><line x1="610" y1="328" x2="481" y2="421" stroke="#00E1FF" stroke-width="0.5" opacity="0.20485850315808574"/><line x1="610" y1="328" x2="707" y2="311" stroke="#00E1FF" stroke-width="0.5" opacity="0.5076078798355927"/><line x1="610" y1="328" x2="617" y2="477" stroke="#00E1FF" stroke-width="0.5" opacity="0.25417830549118503"/><line x1="610" y1="328" x2="626" y2="481" stroke="#00E1FF" stroke-width="0.5" opacity="0.2308283676577768"/><line x1="610" y1="328" x2="517" y2="179" stroke="#00E1FF" stroke-width="0.5" opacity="0.12179159648748528"/><line x1="610" y1="328" x2="682" y2="289" stroke="#00E1FF" stroke-width="0.5" opacity="0.5905796780813146"/><line x1="610" y1="328" x2="791" y2="243" stroke="#00E1FF" stroke-width="0.5" opacity="0.00017501531518027136"/><line x1="453" y1="247" x2="481" y2="421" stroke="#00E1FF" stroke-width="0.5" opacity="0.11880762599759165"/><line x1="453" y1="247" x2="517" y2="179" stroke="#00E1FF" stroke-width="0.5" opacity="0.53309529880285"/><line x1="481" y1="421" x2="617" y2="477" stroke="#00E1FF" stroke-width="0.5" opacity="0.2646089475659905"/><line x1="481" y1="421" x2="319" y2="524" stroke="#00E1FF" stroke-width="0.5" opacity="0.040143239852945545"/><line x1="481" y1="421" x2="626" y2="481" stroke="#00E1FF" stroke-width="0.5" opacity="0.21538225867623917"/><line x1="132" y1="497" x2="187" y2="541" stroke="#00E1FF" stroke-width="0.5" opacity="0.6478281669411934"/><line x1="132" y1="497" x2="216" y2="564" stroke="#00E1FF" stroke-width="0.5" opacity="0.4627616916116275"/><line x1="132" y1="497" x2="113" y2="691" stroke="#00E1FF" stroke-width="0.5" opacity="0.02535904046669568"/><line x1="132" y1="497" x2="200" y2="431" stroke="#00E1FF" stroke-width="0.5" opacity="0.5261856903807146"/><line x1="132" y1="497" x2="319" y2="524" stroke="#00E1FF" stroke-width="0.5" opacity="0.055304281792279975"/><line x1="132" y1="497" x2="104" y2="425" stroke="#00E1FF" stroke-width="0.5" opacity="0.6137358416834406"/><line x1="707" y1="311" x2="617" y2="477" stroke="#00E1FF" stroke-width="0.5" opacity="0.055860179846226266"/><line x1="707" y1="311" x2="626" y2="481" stroke="#00E1FF" stroke-width="0.5" opacity="0.05844543440117078"/><line x1="707" y1="311" x2="682" y2="289" stroke="#00E1FF" stroke-width="0.5" opacity="0.8334917419465329"/><line x1="707" y1="311" x2="791" y2="243" stroke="#00E1FF" stroke-width="0.5" opacity="0.4596297565557481"/><line x1="187" y1="541" x2="216" y2="564" stroke="#00E1FF" stroke-width="0.5" opacity="0.8149324447667825"/><line x1="187" y1="541" x2="113" y2="691" stroke="#00E1FF" stroke-width="0.5" opacity="0.16369861891779702"/><line x1="187" y1="541" x2="200" y2="431" stroke="#00E1FF" stroke-width="0.5" opacity="0.4461724094991294"/><line x1="187" y1="541" x2="319" y2="524" stroke="#00E1FF" stroke-width="0.5" opacity="0.33454902509651385"/><line x1="187" y1="541" x2="157" y2="733" stroke="#00E1FF" stroke-width="0.5" opacity="0.028351915557901175"/><line x1="187" y1="541" x2="104" y2="425" stroke="#00E1FF" stroke-width="0.5" opacity="0.2868204994533283"/><line x1="617" y1="477" x2="626" y2="481" stroke="#00E1FF" stroke-width="0.5" opacity="0.9507557109910195"/><line x1="617" y1="477" x2="682" y2="289" stroke="#00E1FF" stroke-width="0.5" opacity="0.0054020912951807665"/><line x1="373" y1="810" x2="317" y2="826" stroke="#00E1FF" stroke-width="0.5" opacity="0.7087956044287793"/><line x1="373" y1="810" x2="367" y2="879" stroke="#00E1FF" stroke-width="0.5" opacity="0.6536981085815441"/><line x1="724" y1="812" x2="833" y2="825" stroke="#00E1FF" stroke-width="0.5" opacity="0.4511375399974963"/><line x1="216" y1="564" x2="113" y2="691" stroke="#00E1FF" stroke-width="0.5" opacity="0.18241208423803135"/><line x1="216" y1="564" x2="200" y2="431" stroke="#00E1FF" stroke-width="0.5" opacity="0.33020525532070655"/><line x1="216" y1="564" x2="319" y2="524" stroke="#00E1FF" stroke-width="0.5" opacity="0.44752828126681454"/><line x1="216" y1="564" x2="157" y2="733" stroke="#00E1FF" stroke-width="0.5" opacity="0.10498603362852477"/><line x1="216" y1="564" x2="104" y2="425" stroke="#00E1FF" stroke-width="0.5" opacity="0.10746148542485856"/><line x1="113" y1="691" x2="157" y2="733" stroke="#00E1FF" stroke-width="0.5" opacity="0.695861873485089"/><line x1="200" y1="431" x2="319" y2="524" stroke="#00E1FF" stroke-width="0.5" opacity="0.2448510080785382"/><line x1="200" y1="431" x2="104" y2="425" stroke="#00E1FF" stroke-width="0.5" opacity="0.519063413743558"/><line x1="317" y1="826" x2="367" y2="879" stroke="#00E1FF" stroke-width="0.5" opacity="0.6356855753610626"/><line x1="317" y1="826" x2="157" y2="733" stroke="#00E1FF" stroke-width="0.5" opacity="0.07467573251319082"/><line x1="517" y1="179" x2="682" y2="289" stroke="#00E1FF" stroke-width="0.5" opacity="0.00847339924740298"/><line x1="682" y1="289" x2="791" y2="243" stroke="#00E1FF" stroke-width="0.5" opacity="0.40845541165521604"/><circle cx="350" cy="869" r="4" fill="#00E1FF"/><circle cx="180" cy="294" r="4" fill="#00E1FF"/><circle cx="181" cy="220" r="4" fill="#00E1FF"/><circle cx="723" cy="503" r="4" fill="#00E1FF"/><circle cx="357" cy="460" r="4" fill="#00E1FF"/><circle cx="334" cy="264" r="4" fill="#00E1FF"/><circle cx="115" cy="593" r="4" fill="#00E1FF"/><circle cx="612" cy="256" r="4" fill="#00E1FF"/><circle cx="771" cy="657" r="4" fill="#00E1FF"/><circle cx="774" cy="481" r="4" fill="#00E1FF"/><circle cx="175" cy="478" r="4" fill="#00E1FF"/><circle cx="118" cy="214" r="4" fill="#00E1FF"/><circle cx="556" cy="210" r="4" fill="#00E1FF"/><circle cx="215" cy="162" r="4" fill="#00E1FF"/><circle cx="411" cy="619" r="4" fill="#00E1FF"/><circle cx="528" cy="128" r="4" fill="#00E1FF"/><circle cx="100" cy="691" r="4" fill="#00E1FF"/><circle cx="588" cy="228" r="4" fill="#00E1FF"/><circle cx="610" cy="328" r="4" fill="#00E1FF"/><circle cx="453" cy="247" r="4" fill="#00E1FF"/><circle cx="481" cy="421" r="4" fill="#00E1FF"/><circle cx="132" cy="497" r="4" fill="#00E1FF"/><circle cx="707" cy="311" r="4" fill="#00E1FF"/><circle cx="187" cy="541" r="4" fill="#00E1FF"/><circle cx="617" cy="477" r="4" fill="#00E1FF"/><circle cx="373" cy="810" r="4" fill="#00E1FF"/><circle cx="724" cy="812" r="4" fill="#00E1FF"/><circle cx="216" cy="564" r="4" fill="#00E1FF"/><circle cx="113" cy="691" r="4" fill="#00E1FF"/><circle cx="200" cy="431" r="4" fill="#00E1FF"/><circle cx="319" cy="524" r="4" fill="#00E1FF"/><circle cx="317" cy="826" r="4" fill="#00E1FF"/><circle cx="367" cy="879" r="4" fill="#00E1FF"/><circle cx="626" cy="481" r="4" fill="#00E1FF"/><circle cx="157" cy="733" r="4" fill="#00E1FF"/><circle cx="833" cy="825" r="4" fill="#00E1FF"/><circle cx="517" cy="179" r="4" fill="#00E1FF"/><circle cx="682" cy="289" r="4" fill="#00E1FF"/><circle cx="791" cy="243" r="4" fill="#00E1FF"/><circle cx="104" cy="425" r="4" fill="#00E1FF"/><circle cx="500" cy="500" r="60" fill="#FF3D2E"/><text x="500" y="520" text-anchor="middle" fill="#F5F5F5" font-size="60" font-weight="900" font-family="Arial">🧠</text></svg>