<svg xmlns="http://www.w3.org/2000/svg" viewBox="0 0 1000 1000"><rect width="1000" height="1000" fill="#050505"/><path d="M 0 500 L 0 626.4453470721807 L 20 655.0856788594231 L 40 639.7432925268184 L 60 564.2836080465321 L 80 457.0507490059016 L 100 371.2863201903598 L 120 343.3387408166462 L 140 365.9549648538231 L 160 400.1506504597338 L 180 413.92415717287923 L 200 411.7674789786626 L 220 427.82788227407127 L 240 489.43501092173017 L 260 585.3281831417706 L 280 668.8448070483716 L 300 694.2696336261056 L 320 653.9599470845459 L 340 582.8883868199176 L 360 526.818897620944 L 380 503.3226508408728 L 400 490.987705109027 L 420 455.8960558579423 L 440 389.95304537610974 L 460 324.7011564105955 L 480 306.9119152299324 L 500 357.6716333011399 L 520 452.24783439642016 L 540 539.3650027114446 L 560 582.7143774855629 L 580 587.423156409469 L 600 588.2388397836528 L 620 611.4131825522513 L 640 646.3034786606435 L 660 653.4738556670717 L 680 602.1140838493187 L 700 502.18982031023876 L 720 401.1618615003118 L 740 347.36212793733927 L 760 352.5914140649624 L 780 387.21586223076673 L 800 411.33168628909795 L 820 412.7266401391685 L 840 416.5354778892506 L 860 457.9604710515718 L 880 543.7960761923217 L 900 639.0965139002726 L 920 692.3626905046829 L 940 677.1877225621205 L 960 612.97266106796 L 980 546.2289370261653 L 1000 509.793798927463" fill="none" stroke="#FF3D2E" stroke-width="6"/><path d="M 0 500 L 0 626.4453470721807 L 20 655.0856788594231 L 40 639.7432925268184 L 60 564.2836080465321 L 80 457.0507490059016 L 100 371.2863201903598 L 120 343.3387408166462 L 140 365.9549648538231 L 160 400.1506504597338 L 180 413.92415717287923 L 200 411.7674789786626 L 220 427.82788227407127 L 240 489.43501092173017 L 260 585.3281831417706 L 280 668.8448070483716 L 300 694.2696336261056 L 320 653.9599470845459 L 340 582.8883868199176 L 360 526.818897620944 L 380 503.3226508408728 L 400 490.987705109027 L 420 455.8960558579423 L 440 389.95304537610974 L 460 324.7011564105955 L 480 306.9119152299324 L 500 357.6716333011399 L 520 452.24783439642016 L 540 539.3650027114446 L 560 582.7143774855629 L 580 587.423156409469 L 600 588.2388397836528 L 620 611.4131825522513 L 640 646.3034786606435 L 660 653.4738556670717 L 680 602.1140838493187 L 700 502.18982031023876 L 720 401.1618615003118 L 740 347.36212793733927 L 760 352.5914140649624 L 780 387.21586223076673 L 800 411.33168628909795 L 820 412.7266401391685 L 840 416.5354778892506 L 860 457.9604710515718 L 880 543.7960761923217 L 900 639.0965139002726 L 920 692.3626905046829 L 940 677.1877225621205 L 960 612.97266106796 L 980 546.2289370261653 L 1000 509.793798927463 L 1000 1000 L 0 1000 Z" fill="#FF3D2E" opacity="0.2"/><circle cx="500" cy="500" r="20" fill="#00E1FF"/></svg>