<svg xmlns="http://www.w3.org/2000/svg" viewBox="0 0 1000 1000">
    <rect width="1000" height="1000" fill="#050505"/>
    <circle cx="792" cy="831" r="2.91629240254226" fill="#F5F5F5" opacity="0.6051025563335024"/><circle cx="127" cy="246" r="2.8865991597661544" fill="#F5F5F5" opacity="0.640531360415497"/><circle cx="992" cy="497" r="2.7392145966240182" fill="#FF3D2E" opacity="0.8060052628420538"/><circle cx="285" cy="60" r="2.1121923590869045" fill="#FFA800" opacity="0.4454760315795821"/><circle cx="807" cy="997" r="1.1383769035212916" fill="#FFA800" opacity="0.9723212939663308"/><circle cx="162" cy="946" r="2.8795694581226963" fill="#F5F5F5" opacity="0.9542300012817115"/><circle cx="96" cy="522" r="1.6333560680539578" fill="#FF3D2E" opacity="0.8857430897519771"/><circle cx="53" cy="11" r="1.0441490475405375" fill="#FFA800" opacity="0.671553134851913"/><circle cx="514" cy="197" r="2.339281931875938" fill="#F5F5F5" opacity="0.7028358048958105"/><circle cx="659" cy="141" r="0.7205057745265815" fill="#FF3D2E" opacity="0.8867811959427634"/><circle cx="875" cy="532" r="2.8883019719890504" fill="#00E1FF" opacity="0.9767053635791398"/><circle cx="941" cy="792" r="0.9305753391197598" fill="#F5F5F5" opacity="0.9751545613869805"/><circle cx="320" cy="67" r="2.545377066924117" fill="#FF3D2E" opacity="0.9095856318591649"/><circle cx="480" cy="358" r="2.12224189264569" fill="#FF3D2E" opacity="0.6506715888066967"/><circle cx="150" cy="524" r="0.7970122525526697" fill="#F5F5F5" opacity="0.30255879333300645"/><circle cx="833" cy="359" r="0.9270501841081525" fill="#00E1FF" opacity="0.48166377044205777"/><circle cx="331" cy="810" r="2.601710527513272" fill="#00E1FF" opacity="0.8924153086554845"/><circle cx="426" cy="91" r="1.5002720683005262" fill="#FF3D2E" opacity="0.5273298119912619"/><circle cx="734" cy="566" r="0.6107830269301402" fill="#FFA800" opacity="0.9433302770493639"/><circle cx="45" cy="397" r="1.3267206638129827" fill="#F5F5F5" opacity="0.90498291622368"/><circle cx="299" cy="230" r="0.5142596554594998" fill="#FF3D2E" opacity="0.5155865713829642"/><circle cx="675" cy="573" r="0.724454152147443" fill="#00E1FF" opacity="0.8988490943000285"/><circle cx="81" cy="202" r="1.8692738618886524" fill="#FFA800" opacity="0.8032604690790426"/><circle cx="316" cy="795" r="1.156789891097378" fill="#FF3D2E" opacity="0.8031868263116908"/><circle cx="51" cy="283" r="0.6612732813019352" fill="#FFA800" opacity="0.6959624078099094"/><circle cx="214" cy="227" r="1.0079970425037077" fill="#FF3D2E" opacity="0.9930753512534307"/><circle cx="558" cy="810" r="2.530953335964632" fill="#FF3D2E" opacity="0.6483303705533676"/><circle cx="314" cy="45" r="2.521981352061084" fill="#F5F5F5" opacity="0.8762679257365951"/><circle cx="143" cy="710" r="2.5860759222734675" fill="#FFA800" opacity="0.6853382640620813"/><circle cx="539" cy="516" r="1.5196955204111624" fill="#00E1FF" opacity="0.8235146025559306"/><circle cx="765" cy="39" r="0.845385347639931" fill="#F5F5F5" opacity="0.8785567251601474"/><circle cx="233" cy="860" r="1.435928738014284" fill="#FFA800" opacity="0.5815390086941525"/><circle cx="303" cy="270" r="1.445016863168337" fill="#F5F5F5" opacity="0.5916993401627129"/><circle cx="654" cy="587" r="1.8028149920702132" fill="#F5F5F5" opacity="0.9098765815881953"/><circle cx="186" cy="40" r="1.8543950573210188" fill="#FFA800" opacity="0.31536673670955234"/><circle cx="707" cy="6" r="1.1801977580114582" fill="#F5F5F5" opacity="0.9293606390842912"/><circle cx="30" cy="599" r="2.1981620338588503" fill="#FFA800" opacity="0.7078304569512845"/><circle cx="460" cy="567" r="1.0537163793790993" fill="#00E1FF" opacity="0.8662355470733001"/><circle cx="899" cy="25" r="2.825351553563937" fill="#F5F5F5" opacity="0.6261125539462828"/><circle cx="609" cy="912" r="1.6568051621641606" fill="#F5F5F5" opacity="0.5888496329421515"/><circle cx="528" cy="414" r="2.755131615767457" fill="#FF3D2E" opacity="0.8151325735916835"/><circle cx="851" cy="840" r="1.6215211409168968" fill="#FFA800" opacity="0.8184365635071837"/><circle cx="356" cy="516" r="1.9377880985017684" fill="#F5F5F5" opacity="0.7348957910260902"/><circle cx="913" cy="425" r="1.8245859773786943" fill="#FF3D2E" opacity="0.8830726178746586"/><circle cx="892" cy="3" r="2.7769606273420404" fill="#FFA800" opacity="0.9221461151738033"/><circle cx="231" cy="392" r="2.743562558065352" fill="#F5F5F5" opacity="0.822107953535101"/><circle cx="97" cy="669" r="2.760424593583317" fill="#F5F5F5" opacity="0.4142147432266383"/><circle cx="797" cy="404" r="2.0591627974614184" fill="#00E1FF" opacity="0.4825649648164525"/><circle cx="705" cy="0" r="1.461024117310116" fill="#FFA800" opacity="0.4572468444575214"/><circle cx="381" cy="629" r="1.4391858062102487" fill="#00E1FF" opacity="0.8769351994512653"/><circle cx="377" cy="624" r="2.6145788300365673" fill="#FFA800" opacity="0.892187227742772"/><circle cx="420" cy="190" r="0.6030663609155957" fill="#00E1FF" opacity="0.9430174216788028"/><circle cx="764" cy="752" r="2.760428635022274" fill="#FF3D2E" opacity="0.7977548408232977"/><circle cx="207" cy="701" r="1.5879140833825496" fill="#F5F5F5" opacity="0.9126813559498075"/><circle cx="335" cy="284" r="2.0743341255311254" fill="#F5F5F5" opacity="0.847102856309927"/><circle cx="175" cy="9" r="2.2785950291214476" fill="#F5F5F5" opacity="0.7980987574050062"/><circle cx="193" cy="54" r="1.29918784829212" fill="#00E1FF" opacity="0.4489466555973642"/><circle cx="980" cy="806" r="0.9440674477022599" fill="#FF3D2E" opacity="0.6312783053879767"/><circle cx="610" cy="321" r="1.8144428382960034" fill="#F5F5F5" opacity="0.8562813960849436"/><circle cx="963" cy="871" r="1.9929910579838062" fill="#00E1FF" opacity="0.3790371105639151"/><circle cx="585" cy="432" r="1.3264811894013346" fill="#00E1FF" opacity="0.9651880541794295"/><circle cx="259" cy="144" r="2.0317496605730203" fill="#FF3D2E" opacity="0.9681254440199749"/><circle cx="858" cy="71" r="2.2368589251018145" fill="#F5F5F5" opacity="0.5508170793357648"/><circle cx="31" cy="223" r="2.249099942790411" fill="#FFA800" opacity="0.4362003638755566"/><circle cx="48" cy="595" r="1.6961218511273257" fill="#FF3D2E" opacity="0.3505354866284252"/><circle cx="832" cy="996" r="2.349745092109955" fill="#FFA800" opacity="0.40510069840190954"/><circle cx="346" cy="610" r="2.4123014891395176" fill="#FF3D2E" opacity="0.9306612163204837"/><circle cx="878" cy="715" r="2.9470846874649395" fill="#00E1FF" opacity="0.7312243189781849"/><circle cx="878" cy="648" r="2.06645593075085" fill="#F5F5F5" opacity="0.5708840445776109"/><circle cx="783" cy="808" r="2.8971843566722155" fill="#F5F5F5" opacity="0.40235958097277147"/><circle cx="889" cy="560" r="0.8899339723619077" fill="#FF3D2E" opacity="0.4722985153666598"/><circle cx="375" cy="175" r="1.330968944515762" fill="#00E1FF" opacity="0.8866268360373486"/><circle cx="575" cy="937" r="1.276787750155656" fill="#00E1FF" opacity="0.5984535615757769"/><circle cx="564" cy="327" r="1.1208243922753782" fill="#00E1FF" opacity="0.37048438755449165"/><circle cx="778" cy="892" r="1.9517181270438413" fill="#00E1FF" opacity="0.5713631433412065"/><circle cx="879" cy="725" r="2.0934693761585756" fill="#00E1FF" opacity="0.7109013103066042"/><circle cx="394" cy="872" r="2.98408593759264" fill="#FFA800" opacity="0.5608376543165736"/><circle cx="561" cy="526" r="1.1863052576208468" fill="#FFA800" opacity="0.5944814020579643"/><circle cx="319" cy="307" r="1.2274041574957706" fill="#FF3D2E" opacity="0.6516759292083534"/><circle cx="713" cy="10" r="2.8851532492111165" fill="#FFA800" opacity="0.30232387028472757"/><circle cx="332" cy="751" r="0.907753508274501" fill="#F5F5F5" opacity="0.8636502704665878"/><circle cx="341" cy="792" r="1.7167262671929717" fill="#FFA800" opacity="0.40320623737115285"/><circle cx="286" cy="391" r="1.100300748301959" fill="#F5F5F5" opacity="0.9944127766437039"/><circle cx="731" cy="698" r="2.13210173913692" fill="#00E1FF" opacity="0.4117793476964364"/><circle cx="285" cy="367" r="1.011485080470326" fill="#FFA800" opacity="0.3465901405796321"/><circle cx="834" cy="646" r="1.270490242804266" fill="#FF3D2E" opacity="0.36908405387297144"/><circle cx="769" cy="971" r="1.9351602443376266" fill="#FFA800" opacity="0.9050422247752539"/><circle cx="128" cy="769" r="2.1746906629387253" fill="#00E1FF" opacity="0.35257330159018274"/><circle cx="84" cy="353" r="2.1785242838007894" fill="#FFA800" opacity="0.3785179742784834"/><circle cx="689" cy="773" r="1.0478439651204536" fill="#F5F5F5" opacity="0.606915867526651"/><circle cx="857" cy="991" r="1.8254590723932957" fill="#F5F5F5" opacity="0.6910420592425153"/><circle cx="191" cy="294" r="1.4601161165329597" fill="#FFA800" opacity="0.4215775668627926"/><circle cx="138" cy="612" r="1.9385757374096357" fill="#00E1FF" opacity="0.5610862813636254"/><circle cx="857" cy="234" r="1.862096493901244" fill="#FFA800" opacity="0.6834125088497216"/><circle cx="249" cy="599" r="1.059696145162039" fill="#00E1FF" opacity="0.6158484982354844"/><circle cx="165" cy="510" r="1.9265755501379123" fill="#F5F5F5" opacity="0.8076945993370714"/><circle cx="460" cy="86" r="2.3712794367069483" fill="#00E1FF" opacity="0.7975794376359618"/><circle cx="604" cy="75" r="1.4468379353423755" fill="#F5F5F5" opacity="0.7344649006942507"/><circle cx="880" cy="950" r="0.7420729525059312" fill="#FFA800" opacity="0.8799126996610971"/><circle cx="766" cy="508" r="2.223409879732518" fill="#00E1FF" opacity="0.625323310490324"/><circle cx="732" cy="677" r="2.8015206185409127" fill="#F5F5F5" opacity="0.5573081575002918"/><circle cx="315" cy="78" r="1.7677206902583715" fill="#FF3D2E" opacity="0.7308742673827535"/><circle cx="337" cy="352" r="0.8182969015504405" fill="#F5F5F5" opacity="0.313409513132257"/><circle cx="215" cy="588" r="1.541915355446505" fill="#F5F5F5" opacity="0.5347219892850137"/><circle cx="237" cy="409" r="2.831430831189042" fill="#00E1FF" opacity="0.3858985180377077"/><circle cx="234" cy="852" r="0.8579237344257241" fill="#FF3D2E" opacity="0.897746806769969"/><circle cx="203" cy="218" r="1.834287388380292" fill="#F5F5F5" opacity="0.7270157704333875"/><circle cx="445" cy="900" r="2.48720436101623" fill="#F5F5F5" opacity="0.5127826983872689"/><circle cx="648" cy="225" r="0.7342967825541592" fill="#FFA800" opacity="0.7364780207109688"/><circle cx="814" cy="26" r="2.613482373479974" fill="#F5F5F5" opacity="0.5787181868479305"/><circle cx="7" cy="504" r="1.8135343863943771" fill="#F5F5F5" opacity="0.41043012389610367"/><circle cx="658" cy="42" r="0.6511584755975881" fill="#FFA800" opacity="0.5501547649651044"/><circle cx="578" cy="204" r="2.65843125861586" fill="#FF3D2E" opacity="0.9544112627882504"/><circle cx="596" cy="856" r="2.991838555966433" fill="#FFA800" opacity="0.7206616768285077"/><circle cx="163" cy="583" r="1.9781109008644506" fill="#FF3D2E" opacity="0.5295409677706607"/><circle cx="681" cy="668" r="2.3128164820712693" fill="#F5F5F5" opacity="0.41900550475304826"/><circle cx="209" cy="385" r="2.1128000454962987" fill="#FF3D2E" opacity="0.5976152830425094"/><circle cx="445" cy="785" r="1.7212815206125764" fill="#00E1FF" opacity="0.794436407896713"/><circle cx="682" cy="989" r="2.4721488961723606" fill="#FFA800" opacity="0.9095124701385158"/><circle cx="479" cy="495" r="2.9301242788967334" fill="#FF3D2E" opacity="0.9766279792018171"/><circle cx="293" cy="816" r="2.8628847046843853" fill="#F5F5F5" opacity="0.4519124593765773"/><circle cx="628" cy="893" r="1.4277746400653086" fill="#FFA800" opacity="0.8735695352697455"/><circle cx="27" cy="188" r="0.8012881167998915" fill="#FF3D2E" opacity="0.3433881841890563"/><circle cx="682" cy="165" r="1.320659642312328" fill="#00E1FF" opacity="0.9292921106421601"/><circle cx="697" cy="421" r="1.079365159868791" fill="#FF3D2E" opacity="0.7159333044908162"/><circle cx="138" cy="289" r="0.8005520900937736" fill="#F5F5F5" opacity="0.4339903520639403"/><circle cx="110" cy="748" r="1.7688306371961429" fill="#00E1FF" opacity="0.3014720013635313"/><circle cx="346" cy="12" r="1.8867061845537765" fill="#FFA800" opacity="0.7035995621516677"/><circle cx="370" cy="649" r="1.8273657852404424" fill="#F5F5F5" opacity="0.881160716959215"/><circle cx="146" cy="11" r="0.5156581856597332" fill="#FFA800" opacity="0.7656741908558754"/><circle cx="469" cy="64" r="0.9540807834944294" fill="#FFA800" opacity="0.315053945776383"/><circle cx="827" cy="489" r="1.2489820968848222" fill="#F5F5F5" opacity="0.8808023670581049"/><circle cx="972" cy="844" r="2.567853197383009" fill="#00E1FF" opacity="0.8282516241637525"/><circle cx="350" cy="295" r="1.4829519578893637" fill="#F5F5F5" opacity="0.9889199234921024"/><circle cx="266" cy="145" r="1.7322420246350985" fill="#FF3D2E" opacity="0.332657895960205"/><circle cx="120" cy="915" r="1.650464864101202" fill="#FFA800" opacity="0.6334700384581694"/><circle cx="291" cy="964" r="0.572407046254746" fill="#00E1FF" opacity="0.587621722385365"/><circle cx="212" cy="39" r="1.994109822309007" fill="#FF3D2E" opacity="0.7373335277672087"/><circle cx="215" cy="173" r="1.1654618301707655" fill="#F5F5F5" opacity="0.3743384966418903"/><circle cx="986" cy="823" r="0.656300438448998" fill="#F5F5F5" opacity="0.8431376832198076"/><circle cx="525" cy="710" r="2.588972002464234" fill="#FFA800" opacity="0.38033074237959574"/><circle cx="208" cy="495" r="2.09427193095127" fill="#00E1FF" opacity="0.4692855016542776"/><circle cx="465" cy="196" r="2.236288653723403" fill="#00E1FF" opacity="0.30659554186631843"/><circle cx="773" cy="501" r="2.4777561873581484" fill="#FF3D2E" opacity="0.9238838735726156"/><circle cx="881" cy="119" r="1.1739180465241463" fill="#F5F5F5" opacity="0.5775312962617387"/><circle cx="900" cy="670" r="1.3006707161735738" fill="#FFA800" opacity="0.6617905489351493"/><circle cx="79" cy="51" r="1.5555676991880703" fill="#FF3D2E" opacity="0.9645354541929838"/><circle cx="859" cy="431" r="0.9059456625489455" fill="#FF3D2E" opacity="0.39893952779313746"/><circle cx="188" cy="92" r="0.5190422381532296" fill="#00E1FF" opacity="0.823691074545085"/><circle cx="451" cy="249" r="2.923418076284174" fill="#F5F5F5" opacity="0.4280616890908948"/><circle cx="745" cy="83" r="1.7110217936266148" fill="#00E1FF" opacity="0.5982608764235897"/><circle cx="959" cy="391" r="2.264157058963636" fill="#FFA800" opacity="0.9935804623788274"/><circle cx="401" cy="22" r="2.985229257746867" fill="#F5F5F5" opacity="0.9172410777305031"/><circle cx="472" cy="875" r="0.9963963243437697" fill="#FF3D2E" opacity="0.46451828720511296"/><circle cx="841" cy="684" r="2.661395741886558" fill="#FFA800" opacity="0.8618212112907568"/><circle cx="553" cy="425" r="2.30001150047677" fill="#00E1FF" opacity="0.8854195900708461"/><circle cx="827" cy="83" r="2.939205422124828" fill="#F5F5F5" opacity="0.4087232880843422"/><circle cx="961" cy="24" r="1.146680502794632" fill="#00E1FF" opacity="0.6926672296861897"/><circle cx="549" cy="570" r="2.3583171448327547" fill="#00E1FF" opacity="0.8284207862292194"/><circle cx="71" cy="394" r="1.2544774514741186" fill="#F5F5F5" opacity="0.7014825023436433"/><circle cx="99" cy="336" r="0.8387267677427658" fill="#00E1FF" opacity="0.8028157656970829"/><circle cx="427" cy="960" r="0.7946813480527022" fill="#F5F5F5" opacity="0.8540361356469717"/><circle cx="478" cy="340" r="0.9500410001472149" fill="#00E1FF" opacity="0.7729062696011926"/><circle cx="468" cy="329" r="2.6485674377277704" fill="#FF3D2E" opacity="0.5373522782148018"/><circle cx="937" cy="843" r="1.3029140389336464" fill="#F5F5F5" opacity="0.7237370884624956"/><circle cx="471" cy="920" r="1.324619167729928" fill="#F5F5F5" opacity="0.5686686048297604"/><circle cx="166" cy="237" r="2.0763728965701023" fill="#00E1FF" opacity="0.3376785295796754"/><circle cx="971" cy="327" r="0.6261927650250416" fill="#FF3D2E" opacity="0.8997902498021273"/><circle cx="585" cy="471" r="0.9082968139314108" fill="#00E1FF" opacity="0.324633299708281"/><circle cx="377" cy="269" r="2.9748378538424767" fill="#00E1FF" opacity="0.5063437688341805"/><circle cx="196" cy="143" r="1.297451817746238" fill="#00E1FF" opacity="0.46590773737838603"/><circle cx="406" cy="221" r="1.873234051831083" fill="#00E1FF" opacity="0.892073461963041"/><circle cx="249" cy="457" r="2.2306056570344657" fill="#F5F5F5" opacity="0.5369912488965393"/><circle cx="677" cy="32" r="2.2644417491420805" fill="#F5F5F5" opacity="0.6473661808538764"/><circle cx="900" cy="540" r="2.6967859707767046" fill="#FF3D2E" opacity="0.8257056312025521"/><circle cx="312" cy="142" r="2.3260862848215265" fill="#FFA800" opacity="0.39741393137712755"/><circle cx="955" cy="397" r="0.678392086055259" fill="#00E1FF" opacity="0.8831088405980803"/><circle cx="465" cy="196" r="2.1239413282567665" fill="#FFA800" opacity="0.6985494540360044"/><circle cx="75" cy="12" r="0.8621361280720686" fill="#FF3D2E" opacity="0.849606768587305"/><circle cx="146" cy="711" r="1.6975958687138077" fill="#00E1FF" opacity="0.940893191817479"/><circle cx="968" cy="394" r="2.615049746653179" fill="#F5F5F5" opacity="0.6104710884322387"/><circle cx="392" cy="547" r="2.3356365940041695" fill="#00E1FF" opacity="0.38467626764850926"/><circle cx="103" cy="827" r="2.8193848561361174" fill="#F5F5F5" opacity="0.46202908709186863"/><circle cx="886" cy="804" r="2.922717165836314" fill="#FF3D2E" opacity="0.5628629568417244"/><circle cx="658" cy="516" r="2.960650754169097" fill="#F5F5F5" opacity="0.4759504132691471"/><circle cx="653" cy="247" r="2.7002787811710975" fill="#FF3D2E" opacity="0.6668523867431002"/><circle cx="911" cy="876" r="2.590450189349102" fill="#FF3D2E" opacity="0.7385602962931866"/><circle cx="236" cy="438" r="0.7549372127708344" fill="#F5F5F5" opacity="0.36246429365901944"/><circle cx="146" cy="398" r="1.891734125668274" fill="#FF3D2E" opacity="0.7965537615271989"/><circle cx="944" cy="431" r="2.4446102817738242" fill="#F5F5F5" opacity="0.7869733241861187"/><circle cx="366" cy="79" r="2.8713415058568654" fill="#FF3D2E" opacity="0.7341162845558706"/><circle cx="174" cy="648" r="1.072125520732979" fill="#F5F5F5" opacity="0.5739454976433138"/><circle cx="248" cy="803" r="2.4030511939262147" fill="#F5F5F5" opacity="0.3657334057616239"/><circle cx="421" cy="825" r="2.9623612369095014" fill="#FF3D2E" opacity="0.40567355566970315"/><circle cx="77" cy="751" r="1.498308274059977" fill="#FF3D2E" opacity="0.7455899563615592"/><circle cx="971" cy="265" r="1.175607912221336" fill="#FFA800" opacity="0.3596287919904541"/><circle cx="317" cy="452" r="2.68747675074633" fill="#F5F5F5" opacity="0.6655888520299347"/><circle cx="49" cy="243" r="1.340611277268168" fill="#FF3D2E" opacity="0.7700203429405184"/><circle cx="72" cy="32" r="1.4442700382074372" fill="#FFA800" opacity="0.621375554007489"/><circle cx="557" cy="762" r="2.883137263339152" fill="#FFA800" opacity="0.49069219542631926"/>
  </svg>