<svg xmlns="http://www.w3.org/2000/svg" viewBox="0 0 2000 100">
    <rect width="2000" height="100" fill="#050505"/>
    <path d="M 0 50 L 51.72462434314774 20.049613176537733 L 137.15451991511546 22.889233847254797 L 225.7294370136428 32.366515593188396 L 320.24663439670655 46.16108931117786 L 422.0484933643588 60.89556225248187 L 530.69385599929 72.9624215583603 L 644.0660360109061 79.40727922430324 L 758.8910573612816 78.65220932141885 L 871.5392377831494 70.8820792959167 L 978.9138615885226 57.999287970798115 L 1079.2093636708494 43.157991965507016 L 1172.3533948143804 29.991858150432144 L 1260.0245353054527 21.724415268473507 L 1345.2413199358587 20.379821674285207 L 1431.623195410736 26.287280774065533 L 1522.504353562531 38.00044055034946 L 1620.1174049064123 52.65151097917417 L 1725.046757721142 66.65339904561877 L 1836.0855345204852 76.57795421809945 L 1950.5310577531625 79.99529925943074" fill="none" stroke="#00E1FF" stroke-width="2"/>
    <circle cx="0" cy="50" r="3" fill="#FF3D2E"/><circle cx="100" cy="50" r="3" fill="#FF3D2E"/><circle cx="200" cy="50" r="3" fill="#FF3D2E"/><circle cx="300" cy="50" r="3" fill="#FF3D2E"/><circle cx="400" cy="50" r="3" fill="#FF3D2E"/><circle cx="500" cy="50" r="3" fill="#FF3D2E"/><circle cx="600" cy="50" r="3" fill="#FF3D2E"/><circle cx="700" cy="50" r="3" fill="#FF3D2E"/><circle cx="800" cy="50" r="3" fill="#FF3D2E"/><circle cx="900" cy="50" r="3" fill="#FF3D2E"/><circle cx="1000" cy="50" r="3" fill="#FF3D2E"/><circle cx="1100" cy="50" r="3" fill="#FF3D2E"/><circle cx="1200" cy="50" r="3" fill="#FF3D2E"/><circle cx="1300" cy="50" r="3" fill="#FF3D2E"/><circle cx="1400" cy="50" r="3" fill="#FF3D2E"/><circle cx="1500" cy="50" r="3" fill="#FF3D2E"/><circle cx="1600" cy="50" r="3" fill="#FF3D2E"/><circle cx="1700" cy="50" r="3" fill="#FF3D2E"/><circle cx="1800" cy="50" r="3" fill="#FF3D2E"/><circle cx="1900" cy="50" r="3" fill="#FF3D2E"/><circle cx="2000" cy="50" r="3" fill="#FF3D2E"/>
  </svg>