<svg xmlns="http://www.w3.org/2000/svg" viewBox="0 0 1000 1000"><rect width="1000" height="1000" fill="#050505"/><circle cx="650" cy="500" r="33.333333333333336" fill="#FFA800" opacity="0.7"/><rect x="692.7741270595851" y="527.1986740479166" width="60" height="60" fill="#FFA800" opacity="0.7" transform="rotate(15 722.7741270595851 557.1986740479166)"/><polygon points="771.6550708135977,609.3436389715317 806.6550708135977,669.3436389715317 736.6550708135977,669.3436389715317" fill="#00E1FF" opacity="0.7"/><line x1="559.3452941132117" y1="602.6820658893033" x2="659.3452941132117" y2="602.6820658893033" stroke="#FF3D2E" stroke-width="4" opacity="0.8"/><circle cx="623.2401628451692" cy="694.1954228654635" r="33.333333333333336" fill="#00E1FF" opacity="0.7"/><rect x="565.7952682562337" y="764.8275200514976" width="60" height="60" fill="#FFA800" opacity="0.7" transform="rotate(75 595.7952682562337 794.8275200514976)"/><polygon points="509.41857792939703,609.7040092642408 544.4185779293971,669.7040092642408 474.41857792939703,669.7040092642408" fill="#00E1FF" opacity="0.7"/><line x1="406.9022976452833" y1="725.9260676675983" x2="506.9022976452833" y2="725.9260676675983" stroke="#00E1FF" stroke-width="4" opacity="0.8"/><circle cx="368.00841961482746" cy="780.4963862644661" r="33.333333333333336" fill="#FF3D2E" opacity="0.7"/><rect x="374.38640153769654" y="585.5769864163684" width="60" height="60" fill="#00E1FF" opacity="0.7" transform="rotate(135 404.38640153769654 615.5769864163684)"/><polygon points="313.9260912937621,595.1906080272688 348.9260912937621,655.1906080272688 278.9260912937621,655.1906080272688" fill="#FFA800" opacity="0.7"/><line x1="161.76928937464209" y1="614.1186113322502" x2="261.7692893746421" y2="614.1186113322502" stroke="#FFA800" stroke-width="4" opacity="0.8"/><circle cx="351.1827948028283" cy="518.7999850346457" r="33.333333333333336" fill="#FFA800" opacity="0.7"/><rect x="241.8136186976701" y="441.17335628021" width="60" height="60" fill="#FFA800" opacity="0.7" transform="rotate(195 271.8136186976701 471.17335628021)"/><polygon points="211.76928937464214,345.8813886677497 246.76928937464214,405.8813886677497 176.76928937464214,405.8813886677497" fill="#00E1FF" opacity="0.7"/><line x1="328.6474508437579" y1="411.83221215612906" x2="428.6474508437579" y2="411.83221215612906" stroke="#FF3D2E" stroke-width="4" opacity="0.8"/><circle cx="353.39248235780144" cy="322.7819541615685" r="33.333333333333336" fill="#FFA800" opacity="0.7"/><rect x="338.00841961482763" y="189.50361373553386" width="60" height="60" fill="#FF3D2E" opacity="0.7" transform="rotate(255 368.00841961482763 219.50361373553386)"/><polygon points="471.8928028121413,312.6569123906967 506.8928028121413,372.6569123906967 436.8928028121413,372.6569123906967" fill="#FF3D2E" opacity="0.7"/><line x1="464.44181949174197" y1="270.45385246149755" x2="564.441819491742" y2="270.45385246149755" stroke="#FF3D2E" stroke-width="4" opacity="0.8"/><circle cx="595.7952682562336" cy="205.17247994850237" r="33.333333333333336" fill="#00E1FF" opacity="0.7"/><rect x="550.3740192468495" y="343.3508111746977" width="60" height="60" fill="#00E1FF" opacity="0.7" transform="rotate(315 580.3740192468495 373.3508111746977)"/><polygon points="667.6627843069246,302.55416563640154 702.6627843069246,362.55416563640154 632.6627843069246,362.55416563640154" fill="#00E1FF" opacity="0.7"/><line x1="721.6550708135977" y1="350.65636102846827" x2="821.6550708135977" y2="350.65636102846827" stroke="#FFA800" stroke-width="4" opacity="0.8"/><circle cx="645.2874741692947" cy="462.6965169252717" r="33.333333333333336" fill="#00E1FF" opacity="0.7"/><circle cx="500" cy="500" r="80" fill="#F5F5F5" opacity="0.9"/><circle cx="500" cy="500" r="40" fill="#050505"/></svg>