<svg xmlns="http://www.w3.org/2000/svg" viewBox="0 0 1000 1000"><rect width="1000" height="1000" fill="#050505"/><line x1="187" y1="566" x2="355" y2="474" stroke="#00E1FF" stroke-width="0.5" opacity="0.04229440849496968"/><line x1="187" y1="566" x2="270" y2="604" stroke="#00E1FF" stroke-width="0.5" opacity="0.5435736642129423"/><line x1="187" y1="566" x2="279" y2="575" stroke="#00E1FF" stroke-width="0.5" opacity="0.5378041540645351"/><line x1="187" y1="566" x2="231" y2="696" stroke="#00E1FF" stroke-width="0.5" opacity="0.3137784614280895"/><line x1="187" y1="566" x2="349" y2="453" stroke="#00E1FF" stroke-width="0.5" opacity="0.012414560658167595"/><line x1="187" y1="566" x2="212" y2="390" stroke="#00E1FF" stroke-width="0.5" opacity="0.11116649478094043"/><line x1="187" y1="566" x2="169" y2="713" stroke="#00E1FF" stroke-width="0.5" opacity="0.259510297168151"/><line x1="568" y1="138" x2="604" y2="316" stroke="#00E1FF" stroke-width="0.5" opacity="0.09198017642784917"/><line x1="568" y1="138" x2="541" y2="115" stroke="#00E1FF" stroke-width="0.5" opacity="0.822658521490318"/><line x1="568" y1="138" x2="686" y2="165" stroke="#00E1FF" stroke-width="0.5" opacity="0.3947521168975475"/><line x1="568" y1="138" x2="482" y2="268" stroke="#00E1FF" stroke-width="0.5" opacity="0.22064128926405135"/><line x1="568" y1="138" x2="470" y2="269" stroke="#00E1FF" stroke-width="0.5" opacity="0.18199938875328459"/><line x1="568" y1="138" x2="730" y2="116" stroke="#00E1FF" stroke-width="0.5" opacity="0.18256498729256765"/><line x1="568" y1="138" x2="726" y2="103" stroke="#00E1FF" stroke-width="0.5" opacity="0.19084921059174642"/><line x1="604" y1="316" x2="713" y2="293" stroke="#00E1FF" stroke-width="0.5" opacity="0.442999102334655"/><line x1="604" y1="316" x2="737" y2="258" stroke="#00E1FF" stroke-width="0.5" opacity="0.27451740200057173"/><line x1="604" y1="316" x2="686" y2="165" stroke="#00E1FF" stroke-width="0.5" opacity="0.1408579861280208"/><line x1="604" y1="316" x2="482" y2="268" stroke="#00E1FF" stroke-width="0.5" opacity="0.34448493533710445"/><line x1="604" y1="316" x2="470" y2="269" stroke="#00E1FF" stroke-width="0.5" opacity="0.28998239458447217"/><line x1="604" y1="316" x2="601" y2="345" stroke="#00E1FF" stroke-width="0.5" opacity="0.8542262026288675"/><line x1="713" y1="293" x2="765" y2="192" stroke="#00E1FF" stroke-width="0.5" opacity="0.43199911971899196"/><line x1="713" y1="293" x2="737" y2="258" stroke="#00E1FF" stroke-width="0.5" opacity="0.7878090482607706"/><line x1="713" y1="293" x2="842" y2="158" stroke="#00E1FF" stroke-width="0.5" opacity="0.0663780208242738"/><line x1="713" y1="293" x2="686" y2="165" stroke="#00E1FF" stroke-width="0.5" opacity="0.3459166719751985"/><line x1="713" y1="293" x2="601" y2="345" stroke="#00E1FF" stroke-width="0.5" opacity="0.3825860383826748"/><line x1="713" y1="293" x2="730" y2="116" stroke="#00E1FF" stroke-width="0.5" opacity="0.11092744952956723"/><line x1="713" y1="293" x2="726" y2="103" stroke="#00E1FF" stroke-width="0.5" opacity="0.04777891222678743"/><line x1="817" y1="574" x2="898" y2="533" stroke="#00E1FF" stroke-width="0.5" opacity="0.5460726930443598"/><line x1="817" y1="574" x2="678" y2="604" stroke="#00E1FF" stroke-width="0.5" opacity="0.2889971870660426"/><line x1="817" y1="574" x2="623" y2="590" stroke="#00E1FF" stroke-width="0.5" opacity="0.02670662182464212"/><line x1="765" y1="192" x2="737" y2="258" stroke="#00E1FF" stroke-width="0.5" opacity="0.6415310334213016"/><line x1="765" y1="192" x2="874" y2="108" stroke="#00E1FF" stroke-width="0.5" opacity="0.31194113623905695"/><line x1="765" y1="192" x2="842" y2="158" stroke="#00E1FF" stroke-width="0.5" opacity="0.5791377897696207"/><line x1="765" y1="192" x2="686" y2="165" stroke="#00E1FF" stroke-width="0.5" opacity="0.582567370705164"/><line x1="765" y1="192" x2="730" y2="116" stroke="#00E1FF" stroke-width="0.5" opacity="0.581640107084821"/><line x1="765" y1="192" x2="726" y2="103" stroke="#00E1FF" stroke-width="0.5" opacity="0.5141502289801918"/><line x1="429" y1="446" x2="340" y2="275" stroke="#00E1FF" stroke-width="0.5" opacity="0.03612760180613117"/><line x1="429" y1="446" x2="355" y2="474" stroke="#00E1FF" stroke-width="0.5" opacity="0.6043991911029504"/><line x1="429" y1="446" x2="402" y2="257" stroke="#00E1FF" stroke-width="0.5" opacity="0.04540584539816084"/><line x1="429" y1="446" x2="331" y2="414" stroke="#00E1FF" stroke-width="0.5" opacity="0.4845390412456051"/><line x1="429" y1="446" x2="410" y2="552" stroke="#00E1FF" stroke-width="0.5" opacity="0.46155315954125986"/><line x1="429" y1="446" x2="279" y2="575" stroke="#00E1FF" stroke-width="0.5" opacity="0.010795774372147182"/><line x1="429" y1="446" x2="349" y2="453" stroke="#00E1FF" stroke-width="0.5" opacity="0.598471669741723"/><line x1="429" y1="446" x2="482" y2="268" stroke="#00E1FF" stroke-width="0.5" opacity="0.07138544056212426"/><line x1="429" y1="446" x2="470" y2="269" stroke="#00E1FF" stroke-width="0.5" opacity="0.09156728372432565"/><line x1="429" y1="446" x2="414" y2="483" stroke="#00E1FF" stroke-width="0.5" opacity="0.8003753522232286"/><line x1="429" y1="446" x2="601" y2="345" stroke="#00E1FF" stroke-width="0.5" opacity="0.0026911210662966534"/><line x1="541" y1="115" x2="363" y2="169" stroke="#00E1FF" stroke-width="0.5" opacity="0.06994623811308642"/><line x1="541" y1="115" x2="402" y2="257" stroke="#00E1FF" stroke-width="0.5" opacity="0.0064583551757882995"/><line x1="541" y1="115" x2="686" y2="165" stroke="#00E1FF" stroke-width="0.5" opacity="0.23310691749110146"/><line x1="541" y1="115" x2="482" y2="268" stroke="#00E1FF" stroke-width="0.5" opacity="0.1800914685161521"/><line x1="541" y1="115" x2="470" y2="269" stroke="#00E1FF" stroke-width="0.5" opacity="0.1521055490215778"/><line x1="541" y1="115" x2="730" y2="116" stroke="#00E1FF" stroke-width="0.5" opacity="0.05498677257934648"/><line x1="541" y1="115" x2="726" y2="103" stroke="#00E1FF" stroke-width="0.5" opacity="0.07305609662720147"/><line x1="340" y1="275" x2="259" y2="114" stroke="#00E1FF" stroke-width="0.5" opacity="0.0988618307939676"/><line x1="340" y1="275" x2="363" y2="169" stroke="#00E1FF" stroke-width="0.5" opacity="0.45766707641892135"/><line x1="340" y1="275" x2="355" y2="474" stroke="#00E1FF" stroke-width="0.5" opacity="0.002177370471084128"/><line x1="340" y1="275" x2="402" y2="257" stroke="#00E1FF" stroke-width="0.5" opacity="0.6771997521686206"/><line x1="340" y1="275" x2="331" y2="414" stroke="#00E1FF" stroke-width="0.5" opacity="0.30354468915801935"/><line x1="340" y1="275" x2="193" y2="342" stroke="#00E1FF" stroke-width="0.5" opacity="0.19225622874577353"/><line x1="340" y1="275" x2="184" y2="364" stroke="#00E1FF" stroke-width="0.5" opacity="0.10198830742578846"/><line x1="340" y1="275" x2="349" y2="453" stroke="#00E1FF" stroke-width="0.5" opacity="0.10886308571578074"/><line x1="340" y1="275" x2="482" y2="268" stroke="#00E1FF" stroke-width="0.5" opacity="0.289137847399371"/><line x1="340" y1="275" x2="470" y2="269" stroke="#00E1FF" stroke-width="0.5" opacity="0.34930806060010255"/><line x1="340" y1="275" x2="212" y2="390" stroke="#00E1FF" stroke-width="0.5" opacity="0.13963670464157985"/><line x1="259" y1="114" x2="363" y2="169" stroke="#00E1FF" stroke-width="0.5" opacity="0.41176110295221047"/><line x1="363" y1="169" x2="402" y2="257" stroke="#00E1FF" stroke-width="0.5" opacity="0.5187256499666744"/><line x1="363" y1="169" x2="482" y2="268" stroke="#00E1FF" stroke-width="0.5" opacity="0.22601679604787295"/><line x1="363" y1="169" x2="470" y2="269" stroke="#00E1FF" stroke-width="0.5" opacity="0.2677261441236619"/><line x1="737" y1="258" x2="842" y2="158" stroke="#00E1FF" stroke-width="0.5" opacity="0.275"/><line x1="737" y1="258" x2="686" y2="165" stroke="#00E1FF" stroke-width="0.5" opacity="0.4696699141100894"/><line x1="737" y1="258" x2="601" y2="345" stroke="#00E1FF" stroke-width="0.5" opacity="0.19276707202939247"/><line x1="737" y1="258" x2="730" y2="116" stroke="#00E1FF" stroke-width="0.5" opacity="0.289137847399371"/><line x1="737" y1="258" x2="726" y2="103" stroke="#00E1FF" stroke-width="0.5" opacity="0.2230508382139793"/><line x1="439" y1="847" x2="496" y2="834" stroke="#00E1FF" stroke-width="0.5" opacity="0.7076816803551307"/><line x1="439" y1="847" x2="366" y2="859" stroke="#00E1FF" stroke-width="0.5" opacity="0.6301013652363664"/><line x1="439" y1="847" x2="441" y2="893" stroke="#00E1FF" stroke-width="0.5" opacity="0.7697827113355733"/><line x1="355" y1="474" x2="270" y2="604" stroke="#00E1FF" stroke-width="0.5" opacity="0.22338877164954662"/><line x1="355" y1="474" x2="331" y2="414" stroke="#00E1FF" stroke-width="0.5" opacity="0.6768901115719297"/><line x1="355" y1="474" x2="410" y2="552" stroke="#00E1FF" stroke-width="0.5" opacity="0.5227945934924878"/><line x1="355" y1="474" x2="279" y2="575" stroke="#00E1FF" stroke-width="0.5" opacity="0.3679992088612547"/><line x1="355" y1="474" x2="349" y2="453" stroke="#00E1FF" stroke-width="0.5" opacity="0.8907983516607922"/><line x1="355" y1="474" x2="414" y2="483" stroke="#00E1FF" stroke-width="0.5" opacity="0.7015875337724646"/><line x1="355" y1="474" x2="212" y2="390" stroke="#00E1FF" stroke-width="0.5" opacity="0.17076842800095948"/><line x1="874" y1="108" x2="842" y2="158" stroke="#00E1FF" stroke-width="0.5" opacity="0.7031835584068834"/><line x1="874" y1="108" x2="686" y2="165" stroke="#00E1FF" stroke-width="0.5" opacity="0.017744941473957"/><line x1="874" y1="108" x2="730" y2="116" stroke="#00E1FF" stroke-width="0.5" opacity="0.2788897449072022"/><line x1="874" y1="108" x2="726" y2="103" stroke="#00E1FF" stroke-width="0.5" opacity="0.25957782313061417"/><line x1="496" y1="834" x2="366" y2="859" stroke="#00E1FF" stroke-width="0.5" opacity="0.33808988525631367"/><line x1="496" y1="834" x2="441" y2="893" stroke="#00E1FF" stroke-width="0.5" opacity="0.5967011033984844"/><line x1="402" y1="257" x2="331" y2="414" stroke="#00E1FF" stroke-width="0.5" opacity="0.1384606799454826"/><line x1="402" y1="257" x2="482" y2="268" stroke="#00E1FF" stroke-width="0.5" opacity="0.5962364553355517"/><line x1="402" y1="257" x2="470" y2="269" stroke="#00E1FF" stroke-width="0.5" opacity="0.6547464699673586"/><line x1="270" y1="604" x2="331" y2="414" stroke="#00E1FF" stroke-width="0.5" opacity="0.0022400088197562784"/><line x1="270" y1="604" x2="410" y2="552" stroke="#00E1FF" stroke-width="0.5" opacity="0.2532738118962211"/><line x1="270" y1="604" x2="279" y2="575" stroke="#00E1FF" stroke-width="0.5" opacity="0.8481777354931103"/><line x1="270" y1="604" x2="231" y2="696" stroke="#00E1FF" stroke-width="0.5" opacity="0.5003751407305677"/><line x1="270" y1="604" x2="349" y2="453" stroke="#00E1FF" stroke-width="0.5" opacity="0.14791432355660394"/><line x1="270" y1="604" x2="414" y2="483" stroke="#00E1FF" stroke-width="0.5" opacity="0.0595612725966671"/><line x1="270" y1="604" x2="169" y2="713" stroke="#00E1FF" stroke-width="0.5" opacity="0.2569993270527946"/><line x1="331" y1="414" x2="410" y2="552" stroke="#00E1FF" stroke-width="0.5" opacity="0.20493710940580312"/><line x1="331" y1="414" x2="279" y2="575" stroke="#00E1FF" stroke-width="0.5" opacity="0.15405378421556848"/><line x1="331" y1="414" x2="193" y2="342" stroke="#00E1FF" stroke-width="0.5" opacity="0.2217326937356292"/><line x1="331" y1="414" x2="184" y2="364" stroke="#00E1FF" stroke-width="0.5" opacity="0.22364634347483103"/><line x1="331" y1="414" x2="349" y2="453" stroke="#00E1FF" stroke-width="0.5" opacity="0.7852326840508547"/><line x1="331" y1="414" x2="414" y2="483" stroke="#00E1FF" stroke-width="0.5" opacity="0.4603241713769274"/><line x1="331" y1="414" x2="212" y2="390" stroke="#00E1FF" stroke-width="0.5" opacity="0.39301976967943997"/><line x1="410" y1="552" x2="279" y2="575" stroke="#00E1FF" stroke-width="0.5" opacity="0.3349812032731705"/><line x1="410" y1="552" x2="349" y2="453" stroke="#00E1FF" stroke-width="0.5" opacity="0.41857932613296245"/><line x1="410" y1="552" x2="414" y2="483" stroke="#00E1FF" stroke-width="0.5" opacity="0.6544207760874505"/><line x1="279" y1="575" x2="231" y2="696" stroke="#00E1FF" stroke-width="0.5" opacity="0.34913519068857324"/><line x1="279" y1="575" x2="349" y2="453" stroke="#00E1FF" stroke-width="0.5" opacity="0.29672196109931037"/><line x1="279" y1="575" x2="414" y2="483" stroke="#00E1FF" stroke-width="0.5" opacity="0.18316158268602478"/><line x1="279" y1="575" x2="212" y2="390" stroke="#00E1FF" stroke-width="0.5" opacity="0.016206322443572563"/><line x1="279" y1="575" x2="169" y2="713" stroke="#00E1FF" stroke-width="0.5" opacity="0.1176168632617689"/><line x1="193" y1="342" x2="184" y2="364" stroke="#00E1FF" stroke-width="0.5" opacity="0.8811513567599529"/><line x1="193" y1="342" x2="349" y2="453" stroke="#00E1FF" stroke-width="0.5" opacity="0.042699106863469005"/><line x1="193" y1="342" x2="212" y2="390" stroke="#00E1FF" stroke-width="0.5" opacity="0.7418818100171938"/><line x1="842" y1="158" x2="686" y2="165" stroke="#00E1FF" stroke-width="0.5" opacity="0.21921513846642737"/><line x1="842" y1="158" x2="730" y2="116" stroke="#00E1FF" stroke-width="0.5" opacity="0.4019197378277729"/><line x1="842" y1="158" x2="726" y2="103" stroke="#00E1FF" stroke-width="0.5" opacity="0.3581082645803889"/><line x1="678" y1="604" x2="623" y2="590" stroke="#00E1FF" stroke-width="0.5" opacity="0.7162307275267458"/><line x1="184" y1="364" x2="349" y2="453" stroke="#00E1FF" stroke-width="0.5" opacity="0.0626366766296006"/><line x1="184" y1="364" x2="212" y2="390" stroke="#00E1FF" stroke-width="0.5" opacity="0.808950268254572"/><line x1="366" y1="859" x2="441" y2="893" stroke="#00E1FF" stroke-width="0.5" opacity="0.5882658624791964"/><line x1="231" y1="696" x2="169" y2="713" stroke="#00E1FF" stroke-width="0.5" opacity="0.6785579367910914"/><line x1="686" y1="165" x2="601" y2="345" stroke="#00E1FF" stroke-width="0.5" opacity="0.0046985381302809825"/><line x1="686" y1="165" x2="730" y2="116" stroke="#00E1FF" stroke-width="0.5" opacity="0.6707204834794609"/><line x1="686" y1="165" x2="726" y2="103" stroke="#00E1FF" stroke-width="0.5" opacity="0.6310826650860657"/><line x1="349" y1="453" x2="414" y2="483" stroke="#00E1FF" stroke-width="0.5" opacity="0.6420544734180912"/><line x1="349" y1="453" x2="212" y2="390" stroke="#00E1FF" stroke-width="0.5" opacity="0.24604376784855742"/><line x1="482" y1="268" x2="470" y2="269" stroke="#00E1FF" stroke-width="0.5" opacity="0.9397920271060385"/><line x1="482" y1="268" x2="601" y2="345" stroke="#00E1FF" stroke-width="0.5" opacity="0.2913040144039195"/><line x1="470" y1="269" x2="601" y2="345" stroke="#00E1FF" stroke-width="0.5" opacity="0.24275169197944058"/><line x1="730" y1="116" x2="726" y2="103" stroke="#00E1FF" stroke-width="0.5" opacity="0.9319926474563228"/><circle cx="187" cy="566" r="4" fill="#00E1FF"/><circle cx="568" cy="138" r="4" fill="#00E1FF"/><circle cx="604" cy="316" r="4" fill="#00E1FF"/><circle cx="713" cy="293" r="4" fill="#00E1FF"/><circle cx="817" cy="574" r="4" fill="#00E1FF"/><circle cx="765" cy="192" r="4" fill="#00E1FF"/><circle cx="429" cy="446" r="4" fill="#00E1FF"/><circle cx="541" cy="115" r="4" fill="#00E1FF"/><circle cx="898" cy="533" r="4" fill="#00E1FF"/><circle cx="340" cy="275" r="4" fill="#00E1FF"/><circle cx="259" cy="114" r="4" fill="#00E1FF"/><circle cx="363" cy="169" r="4" fill="#00E1FF"/><circle cx="737" cy="258" r="4" fill="#00E1FF"/><circle cx="439" cy="847" r="4" fill="#00E1FF"/><circle cx="355" cy="474" r="4" fill="#00E1FF"/><circle cx="874" cy="108" r="4" fill="#00E1FF"/><circle cx="496" cy="834" r="4" fill="#00E1FF"/><circle cx="402" cy="257" r="4" fill="#00E1FF"/><circle cx="270" cy="604" r="4" fill="#00E1FF"/><circle cx="331" cy="414" r="4" fill="#00E1FF"/><circle cx="410" cy="552" r="4" fill="#00E1FF"/><circle cx="279" cy="575" r="4" fill="#00E1FF"/><circle cx="193" cy="342" r="4" fill="#00E1FF"/><circle cx="842" cy="158" r="4" fill="#00E1FF"/><circle cx="678" cy="604" r="4" fill="#00E1FF"/><circle cx="184" cy="364" r="4" fill="#00E1FF"/><circle cx="366" cy="859" r="4" fill="#00E1FF"/><circle cx="441" cy="893" r="4" fill="#00E1FF"/><circle cx="231" cy="696" r="4" fill="#00E1FF"/><circle cx="623" cy="590" r="4" fill="#00E1FF"/><circle cx="686" cy="165" r="4" fill="#00E1FF"/><circle cx="349" cy="453" r="4" fill="#00E1FF"/><circle cx="482" cy="268" r="4" fill="#00E1FF"/><circle cx="470" cy="269" r="4" fill="#00E1FF"/><circle cx="414" cy="483" r="4" fill="#00E1FF"/><circle cx="601" cy="345" r="4" fill="#00E1FF"/><circle cx="212" cy="390" r="4" fill="#00E1FF"/><circle cx="730" cy="116" r="4" fill="#00E1FF"/><circle cx="169" cy="713" r="4" fill="#00E1FF"/><circle cx="726" cy="103" r="4" fill="#00E1FF"/><circle cx="500" cy="500" r="60" fill="#FF3D2E"/><text x="500" y="520" text-anchor="middle" fill="#F5F5F5" font-size="60" font-weight="900" font-family="Arial">🧠</text></svg>