<svg xmlns="http://www.w3.org/2000/svg" viewBox="0 0 1000 1000"><rect width="1000" height="1000" fill="#050505"/><path d="M 0 500 L 0 595.9332765222966 L 20 628.2935062967064 L 40 655.6597890418896 L 60 637.342529247783 L 80 559.2714177028228 L 100 451.81179402533985 L 120 368.3850766669767 L 140 343.51730307854467 L 160 367.7547292001234 L 180 401.4577114031597 L 200 413.9853216284964 L 220 411.8119382162675 L 240 429.7341586970122 L 260 493.7008224886796 L 280 590.2575646110316 L 300 671.7559357913789 L 320 693.6683746720087 L 340 650.726887901085 L 360 579.4174779876109 L 380 524.9077995798466 L 400 502.7399725719147 L 420 489.9996758309437 L 440 453.2188472723764 L 460 386.2792204820539 L 480 322.3421928345478 L 500 307.841376056028 L 520 361.7415090836246 L 540 457.21307640688303 L 560 542.7113023200051 L 580 583.6460475898878 L 600 587.234580846377 L 620 588.7848339784692 L 640 613.138222378466 L 660 647.6836260823698 L 680 652.4080631225469 L 700 597.9872653069954 L 720 496.69016934579946 L 740 397.06122253278943 L 760 346.3282490422665 L 780 353.98654357804077 L 800 388.93385156801 L 820 411.864381513218 L 840 412.5392059483132 L 860 417.48796611537466 L 880 461.3312428056962 L 900 548.7664015715931 L 920 643.1432926070266 L 940 693.2550664425514 L 960 674.8029264662784 L 980 609.2987361342448 L 1000 543.5692315344606" fill="none" stroke="#FF3D2E" stroke-width="6"/><path d="M 0 500 L 0 595.9332765222966 L 20 628.2935062967064 L 40 655.6597890418896 L 60 637.342529247783 L 80 559.2714177028228 L 100 451.81179402533985 L 120 368.3850766669767 L 140 343.51730307854467 L 160 367.7547292001234 L 180 401.4577114031597 L 200 413.9853216284964 L 220 411.8119382162675 L 240 429.7341586970122 L 260 493.7008224886796 L 280 590.2575646110316 L 300 671.7559357913789 L 320 693.6683746720087 L 340 650.726887901085 L 360 579.4174779876109 L 380 524.9077995798466 L 400 502.7399725719147 L 420 489.9996758309437 L 440 453.2188472723764 L 460 386.2792204820539 L 480 322.3421928345478 L 500 307.841376056028 L 520 361.7415090836246 L 540 457.21307640688303 L 560 542.7113023200051 L 580 583.6460475898878 L 600 587.234580846377 L 620 588.7848339784692 L 640 613.138222378466 L 660 647.6836260823698 L 680 652.4080631225469 L 700 597.9872653069954 L 720 496.69016934579946 L 740 397.06122253278943 L 760 346.3282490422665 L 780 353.98654357804077 L 800 388.93385156801 L 820 411.864381513218 L 840 412.5392059483132 L 860 417.48796611537466 L 880 461.3312428056962 L 900 548.7664015715931 L 920 643.1432926070266 L 940 693.2550664425514 L 960 674.8029264662784 L 980 609.2987361342448 L 1000 543.5692315344606 L 1000 1000 L 0 1000 Z" fill="#FF3D2E" opacity="0.2"/><circle cx="500" cy="500" r="20" fill="#00E1FF"/></svg>