<svg xmlns="http://www.w3.org/2000/svg" viewBox="0 0 1000 1000">
    <rect width="1000" height="1000" fill="#050505"/>
    <circle cx="399" cy="105" r="2.656076021505716" fill="#FF3D2E" opacity="0.618109642002707"/><circle cx="551" cy="237" r="1.6136739746867474" fill="#F5F5F5" opacity="0.5411995970182141"/><circle cx="314" cy="417" r="0.9870754614080813" fill="#FFA800" opacity="0.5418533483755554"/><circle cx="918" cy="917" r="2.965547022297307" fill="#FFA800" opacity="0.3040188361729927"/><circle cx="869" cy="149" r="1.268369648487981" fill="#FFA800" opacity="0.6387672084278835"/><circle cx="817" cy="944" r="2.1455476080195277" fill="#FF3D2E" opacity="0.48839716716407167"/><circle cx="258" cy="7" r="2.9690901476936262" fill="#FFA800" opacity="0.7980074130221437"/><circle cx="131" cy="740" r="2.9145845828035806" fill="#00E1FF" opacity="0.4255630654335"/><circle cx="293" cy="436" r="2.5403429726422617" fill="#FF3D2E" opacity="0.5801088398652658"/><circle cx="434" cy="958" r="2.762832966956985" fill="#FFA800" opacity="0.9269401986223289"/><circle cx="60" cy="470" r="1.1458482772560659" fill="#FF3D2E" opacity="0.5912872282114789"/><circle cx="446" cy="258" r="2.8444431275542357" fill="#F5F5F5" opacity="0.6846034750550827"/><circle cx="577" cy="562" r="0.5985103959562589" fill="#F5F5F5" opacity="0.5729088252155611"/><circle cx="126" cy="384" r="2.8017229624587063" fill="#F5F5F5" opacity="0.3140394657739332"/><circle cx="342" cy="3" r="1.671182822402283" fill="#F5F5F5" opacity="0.36303996487573165"/><circle cx="355" cy="59" r="1.537686539448468" fill="#F5F5F5" opacity="0.8108653452155905"/><circle cx="95" cy="344" r="1.0080346623470378" fill="#FFA800" opacity="0.6907574235072538"/><circle cx="853" cy="42" r="0.8818401595532939" fill="#FFA800" opacity="0.45866304863425245"/><circle cx="801" cy="439" r="0.6986183708942929" fill="#FFA800" opacity="0.5661591352457849"/><circle cx="189" cy="266" r="0.6527945645267914" fill="#F5F5F5" opacity="0.4706598631198474"/><circle cx="45" cy="824" r="1.565379294711718" fill="#FF3D2E" opacity="0.9601012659499526"/><circle cx="225" cy="542" r="2.9182791320703982" fill="#00E1FF" opacity="0.4143883257131618"/><circle cx="307" cy="127" r="0.5497455651815049" fill="#FFA800" opacity="0.504864435144154"/><circle cx="709" cy="91" r="2.039866402168743" fill="#FF3D2E" opacity="0.3758278101646154"/><circle cx="84" cy="914" r="1.6489631353951317" fill="#00E1FF" opacity="0.668638979226285"/><circle cx="397" cy="379" r="2.285268097137105" fill="#00E1FF" opacity="0.8275536289657881"/><circle cx="89" cy="32" r="2.075723215707704" fill="#F5F5F5" opacity="0.8803359282920338"/><circle cx="430" cy="885" r="1.0267907651506314" fill="#FF3D2E" opacity="0.8678854879553981"/><circle cx="492" cy="226" r="1.677744641193993" fill="#FFA800" opacity="0.3054305365802135"/><circle cx="874" cy="305" r="1.8349837361452666" fill="#00E1FF" opacity="0.39958147025628377"/><circle cx="361" cy="107" r="0.5134221539680807" fill="#FF3D2E" opacity="0.723911122756149"/><circle cx="611" cy="755" r="1.7343183573088978" fill="#FF3D2E" opacity="0.3197439695941448"/><circle cx="67" cy="69" r="2.175027510414525" fill="#FFA800" opacity="0.35028492707556486"/><circle cx="706" cy="848" r="2.79558483568483" fill="#F5F5F5" opacity="0.5631026048662015"/><circle cx="567" cy="131" r="1.278254269909875" fill="#FF3D2E" opacity="0.601994332025583"/><circle cx="855" cy="916" r="1.4357403028108129" fill="#FF3D2E" opacity="0.6903027388959138"/><circle cx="845" cy="487" r="2.158944502717268" fill="#FFA800" opacity="0.35590263466140204"/><circle cx="802" cy="714" r="1.0279720732101145" fill="#F5F5F5" opacity="0.6371999401399986"/><circle cx="681" cy="617" r="0.8103125615316538" fill="#F5F5F5" opacity="0.7531157069585351"/><circle cx="442" cy="753" r="2.297471355613294" fill="#F5F5F5" opacity="0.9853290722115153"/><circle cx="253" cy="799" r="1.6998209247052434" fill="#FFA800" opacity="0.8017301604893847"/><circle cx="617" cy="314" r="2.3702958372798797" fill="#FFA800" opacity="0.4906520208717229"/><circle cx="965" cy="985" r="1.8662873215506632" fill="#00E1FF" opacity="0.866882294548345"/><circle cx="811" cy="6" r="1.3527918454335897" fill="#FF3D2E" opacity="0.35021212555005676"/><circle cx="777" cy="9" r="2.6736011234275425" fill="#FF3D2E" opacity="0.33415339025294405"/><circle cx="456" cy="775" r="0.5452618940785476" fill="#FFA800" opacity="0.5316175537864101"/><circle cx="818" cy="383" r="2.529003646391867" fill="#00E1FF" opacity="0.9380963591380658"/><circle cx="358" cy="632" r="2.2338437684968295" fill="#FFA800" opacity="0.7367789736896603"/><circle cx="240" cy="97" r="0.852799595038869" fill="#00E1FF" opacity="0.6943603436497872"/><circle cx="217" cy="433" r="1.820935152454335" fill="#FF3D2E" opacity="0.9068400122740494"/><circle cx="693" cy="921" r="2.5510263840759446" fill="#FF3D2E" opacity="0.9030634546703846"/><circle cx="612" cy="448" r="2.6087390859349417" fill="#FF3D2E" opacity="0.9914449877509757"/><circle cx="92" cy="812" r="1.231100008421976" fill="#00E1FF" opacity="0.8659526133393296"/><circle cx="354" cy="563" r="2.1150040733473676" fill="#00E1FF" opacity="0.5777759166017953"/><circle cx="523" cy="968" r="2.5379795522649005" fill="#FF3D2E" opacity="0.8586531534996371"/><circle cx="563" cy="832" r="1.6236686148095942" fill="#FFA800" opacity="0.5253221898750193"/><circle cx="32" cy="474" r="1.042010150698331" fill="#FFA800" opacity="0.4365017389470943"/><circle cx="645" cy="768" r="2.281721962545185" fill="#FFA800" opacity="0.9567456054024865"/><circle cx="935" cy="470" r="1.2280811265149767" fill="#F5F5F5" opacity="0.7418282935083391"/><circle cx="486" cy="562" r="2.200804608750777" fill="#FF3D2E" opacity="0.7245810638295087"/><circle cx="614" cy="1" r="1.9707151189621281" fill="#F5F5F5" opacity="0.7788147793307796"/><circle cx="914" cy="817" r="2.2728226055998157" fill="#FFA800" opacity="0.8101856166874537"/><circle cx="896" cy="357" r="2.3199783613526543" fill="#FFA800" opacity="0.5672331390439305"/><circle cx="936" cy="981" r="2.686652062246865" fill="#F5F5F5" opacity="0.5054399710277695"/><circle cx="650" cy="963" r="1.515613442282658" fill="#FF3D2E" opacity="0.55307455202749"/><circle cx="379" cy="657" r="1.1344951802046006" fill="#F5F5F5" opacity="0.8461812989408208"/><circle cx="465" cy="478" r="2.3494497800738103" fill="#00E1FF" opacity="0.9285385833508897"/><circle cx="576" cy="189" r="1.7655687732756349" fill="#FFA800" opacity="0.6130807254659114"/><circle cx="230" cy="17" r="1.5440663498661684" fill="#FF3D2E" opacity="0.8487686145085396"/><circle cx="294" cy="576" r="2.157970083336831" fill="#00E1FF" opacity="0.33476197825548737"/><circle cx="412" cy="929" r="1.0000155318244726" fill="#FF3D2E" opacity="0.37887513722257277"/><circle cx="257" cy="112" r="2.3029415304009975" fill="#FFA800" opacity="0.39535548602486514"/><circle cx="513" cy="187" r="2.2732036183736244" fill="#FF3D2E" opacity="0.9000160256938927"/><circle cx="321" cy="719" r="2.602977108840172" fill="#FFA800" opacity="0.5214764379558293"/><circle cx="446" cy="935" r="2.3109831636002123" fill="#F5F5F5" opacity="0.5879674654142584"/><circle cx="923" cy="38" r="2.570047620589847" fill="#FFA800" opacity="0.8348090039376932"/><circle cx="900" cy="494" r="2.8188213883508366" fill="#F5F5F5" opacity="0.35740712308855366"/><circle cx="825" cy="496" r="1.1031964923735784" fill="#00E1FF" opacity="0.37972834046034765"/><circle cx="8" cy="181" r="0.8188546245782115" fill="#FF3D2E" opacity="0.47792766930226815"/><circle cx="695" cy="664" r="1.8532598519097339" fill="#FFA800" opacity="0.6762370295055837"/><circle cx="106" cy="517" r="2.8164485232814314" fill="#FFA800" opacity="0.6274267990693013"/><circle cx="477" cy="234" r="0.7418799244723674" fill="#FFA800" opacity="0.5155724562772264"/><circle cx="67" cy="480" r="1.104361695776661" fill="#F5F5F5" opacity="0.7430309444610225"/><circle cx="590" cy="743" r="1.4101588885280287" fill="#F5F5F5" opacity="0.37314317361200866"/><circle cx="566" cy="377" r="2.206683448694749" fill="#00E1FF" opacity="0.9223462573209071"/><circle cx="135" cy="67" r="0.5481734321237076" fill="#00E1FF" opacity="0.4905790331501172"/><circle cx="744" cy="536" r="1.4573249029775495" fill="#00E1FF" opacity="0.9910597935169798"/><circle cx="463" cy="366" r="2.3586291619312516" fill="#FFA800" opacity="0.7429569386329837"/><circle cx="938" cy="33" r="1.6830987052290332" fill="#F5F5F5" opacity="0.6778929233103879"/><circle cx="773" cy="194" r="2.432359693972673" fill="#FF3D2E" opacity="0.5457432353138374"/><circle cx="275" cy="958" r="0.8959714193638886" fill="#F5F5F5" opacity="0.6689524933428519"/><circle cx="917" cy="704" r="2.9192077985077463" fill="#FFA800" opacity="0.3253752095909585"/><circle cx="919" cy="731" r="1.6844152690248988" fill="#00E1FF" opacity="0.5490126696391247"/><circle cx="523" cy="17" r="1.9345014287408424" fill="#00E1FF" opacity="0.397735651843949"/><circle cx="871" cy="669" r="1.9153739501327567" fill="#FF3D2E" opacity="0.6485975831403872"/><circle cx="873" cy="472" r="0.8546623923135805" fill="#F5F5F5" opacity="0.7126878784022792"/><circle cx="755" cy="915" r="1.772520024182862" fill="#00E1FF" opacity="0.5305062985328287"/><circle cx="556" cy="469" r="0.9050203784187045" fill="#F5F5F5" opacity="0.6614403055609634"/><circle cx="796" cy="529" r="2.016870212729364" fill="#00E1FF" opacity="0.6492466851995249"/><circle cx="571" cy="91" r="2.7347072906320746" fill="#FF3D2E" opacity="0.35873638746335"/><circle cx="45" cy="550" r="0.5949530476437832" fill="#FFA800" opacity="0.77563997189619"/><circle cx="157" cy="923" r="0.7092575484981812" fill="#FFA800" opacity="0.5141594434929603"/><circle cx="314" cy="409" r="2.7634437301494534" fill="#FF3D2E" opacity="0.8335609496443448"/><circle cx="795" cy="245" r="0.9040979924410082" fill="#00E1FF" opacity="0.3265360390982096"/><circle cx="852" cy="981" r="2.6924062835961706" fill="#00E1FF" opacity="0.6206451184888749"/><circle cx="748" cy="730" r="1.5265575133182532" fill="#00E1FF" opacity="0.9854837419797602"/><circle cx="668" cy="432" r="1.535589482229755" fill="#F5F5F5" opacity="0.932104789608937"/><circle cx="968" cy="660" r="2.8475216871154565" fill="#FF3D2E" opacity="0.5792735463436218"/><circle cx="654" cy="954" r="2.4541199822107105" fill="#FF3D2E" opacity="0.440883643804411"/><circle cx="394" cy="940" r="2.8142601465844437" fill="#FF3D2E" opacity="0.5517209301133683"/><circle cx="988" cy="551" r="2.943051498943349" fill="#00E1FF" opacity="0.3211297756920593"/><circle cx="402" cy="437" r="1.6816097610549192" fill="#FFA800" opacity="0.4196335043989541"/><circle cx="785" cy="403" r="1.375111510655215" fill="#FF3D2E" opacity="0.9036886000094013"/><circle cx="475" cy="710" r="0.7016213079320428" fill="#FFA800" opacity="0.6337902867512891"/><circle cx="447" cy="891" r="1.8896256972704197" fill="#FF3D2E" opacity="0.923025225167875"/><circle cx="633" cy="236" r="0.8280171001091226" fill="#00E1FF" opacity="0.4403506353223134"/><circle cx="58" cy="290" r="1.586781671969343" fill="#FF3D2E" opacity="0.7295929364421212"/><circle cx="506" cy="717" r="2.340754610315633" fill="#FFA800" opacity="0.6465731643851358"/><circle cx="511" cy="429" r="2.9592054134351837" fill="#00E1FF" opacity="0.6036054300632955"/><circle cx="629" cy="55" r="2.6874315861061118" fill="#FFA800" opacity="0.6564411597235207"/><circle cx="657" cy="265" r="1.3794211431640258" fill="#FFA800" opacity="0.9788009838617562"/><circle cx="62" cy="748" r="1.6870792020874876" fill="#FFA800" opacity="0.9957094309559307"/><circle cx="865" cy="993" r="2.5826280007023574" fill="#00E1FF" opacity="0.48890428480954273"/><circle cx="212" cy="99" r="1.0394754094445797" fill="#F5F5F5" opacity="0.8468539894947917"/><circle cx="913" cy="467" r="0.8701361216670879" fill="#FFA800" opacity="0.37522004207402077"/><circle cx="171" cy="15" r="0.6268929673209579" fill="#F5F5F5" opacity="0.6124058094447615"/><circle cx="815" cy="650" r="1.973274789816943" fill="#00E1FF" opacity="0.8001885632696857"/><circle cx="552" cy="883" r="2.9340231978872904" fill="#FF3D2E" opacity="0.9656274716586664"/><circle cx="810" cy="492" r="2.6034465438311556" fill="#FF3D2E" opacity="0.3533545131873237"/><circle cx="412" cy="662" r="2.6163592025341598" fill="#FF3D2E" opacity="0.30207502951006204"/><circle cx="261" cy="751" r="1.3493369310800496" fill="#F5F5F5" opacity="0.7921252592793249"/><circle cx="459" cy="859" r="2.5933397023546565" fill="#FFA800" opacity="0.4584698856458079"/><circle cx="771" cy="649" r="2.3201756032310987" fill="#FFA800" opacity="0.6498448342681191"/><circle cx="354" cy="789" r="2.573130985450928" fill="#00E1FF" opacity="0.73913019224457"/><circle cx="354" cy="142" r="0.9451108947483606" fill="#00E1FF" opacity="0.4926244648246868"/><circle cx="643" cy="465" r="1.8212443386135453" fill="#00E1FF" opacity="0.5778856485832149"/><circle cx="354" cy="976" r="0.8608895927163469" fill="#FFA800" opacity="0.44946472460116865"/><circle cx="445" cy="946" r="1.7659102703657283" fill="#F5F5F5" opacity="0.6083004623108078"/><circle cx="404" cy="21" r="0.8339261572151803" fill="#00E1FF" opacity="0.8000509316999129"/><circle cx="727" cy="501" r="2.3984103112990613" fill="#00E1FF" opacity="0.8303231081091849"/><circle cx="670" cy="857" r="1.782566771196072" fill="#FFA800" opacity="0.5321528992877398"/><circle cx="832" cy="716" r="0.5841752938869844" fill="#00E1FF" opacity="0.9953917063273752"/><circle cx="365" cy="171" r="2.8386307240662276" fill="#FF3D2E" opacity="0.7397263009755248"/><circle cx="363" cy="795" r="0.5820269051241512" fill="#FFA800" opacity="0.9618105049583796"/><circle cx="953" cy="381" r="1.7610039355501512" fill="#F5F5F5" opacity="0.9043610231948593"/><circle cx="291" cy="958" r="1.4408577899749266" fill="#00E1FF" opacity="0.7634376323075232"/><circle cx="52" cy="17" r="0.994701633854816" fill="#FF3D2E" opacity="0.31075517291788113"/><circle cx="976" cy="349" r="0.603308160437261" fill="#FFA800" opacity="0.8864811765640797"/><circle cx="877" cy="369" r="1.0863060083292038" fill="#F5F5F5" opacity="0.7289364186634617"/><circle cx="88" cy="868" r="1.5411908133739307" fill="#FF3D2E" opacity="0.5482329216889603"/><circle cx="146" cy="250" r="1.9779993729068108" fill="#00E1FF" opacity="0.6983417029155989"/><circle cx="427" cy="251" r="2.6033188634922446" fill="#F5F5F5" opacity="0.9537971688410425"/><circle cx="254" cy="889" r="1.1997349545565412" fill="#00E1FF" opacity="0.577406860907238"/><circle cx="974" cy="489" r="2.1694447941542667" fill="#F5F5F5" opacity="0.4209669186297842"/><circle cx="261" cy="233" r="2.683840170692301" fill="#FFA800" opacity="0.7851363735814276"/><circle cx="559" cy="691" r="2.914645736195176" fill="#F5F5F5" opacity="0.41378307297570244"/><circle cx="122" cy="656" r="2.2241993637967057" fill="#FFA800" opacity="0.7424257943590094"/><circle cx="110" cy="173" r="1.0217161836314832" fill="#00E1FF" opacity="0.30057341832691736"/><circle cx="470" cy="229" r="2.16670140823232" fill="#FF3D2E" opacity="0.4537442280220737"/><circle cx="270" cy="664" r="1.4182175074800707" fill="#00E1FF" opacity="0.35187759033622196"/><circle cx="259" cy="711" r="1.569951235644862" fill="#F5F5F5" opacity="0.4671655836674948"/><circle cx="839" cy="910" r="1.429003470983743" fill="#FFA800" opacity="0.48908397150547095"/><circle cx="752" cy="45" r="1.9383114414297875" fill="#FF3D2E" opacity="0.38477159798588556"/><circle cx="600" cy="292" r="1.508741470890135" fill="#FF3D2E" opacity="0.8943022051750875"/><circle cx="236" cy="472" r="2.1429301867278534" fill="#F5F5F5" opacity="0.8433569415799334"/><circle cx="52" cy="867" r="2.188332110115045" fill="#F5F5F5" opacity="0.4834314480034513"/><circle cx="304" cy="149" r="2.03054266168478" fill="#00E1FF" opacity="0.5989826806444078"/><circle cx="306" cy="834" r="2.2107520113692836" fill="#00E1FF" opacity="0.8981062968236784"/><circle cx="118" cy="694" r="2.4916422340314046" fill="#FFA800" opacity="0.9546868229523344"/><circle cx="421" cy="691" r="2.476350267144386" fill="#FFA800" opacity="0.5844796216640192"/><circle cx="812" cy="147" r="2.8020374793926295" fill="#F5F5F5" opacity="0.5792124423963161"/><circle cx="111" cy="859" r="1.7334220784316678" fill="#FFA800" opacity="0.47235158339300587"/><circle cx="164" cy="548" r="2.473513192913509" fill="#FFA800" opacity="0.9314240335230921"/><circle cx="442" cy="167" r="1.7263253773901068" fill="#00E1FF" opacity="0.9498030189235274"/><circle cx="529" cy="623" r="1.3836457905185373" fill="#00E1FF" opacity="0.9310929717267173"/><circle cx="69" cy="498" r="1.9725035345497028" fill="#FF3D2E" opacity="0.3399043454653813"/><circle cx="298" cy="838" r="1.7318384332245713" fill="#FF3D2E" opacity="0.7314633108546305"/><circle cx="940" cy="839" r="2.9498766251096713" fill="#FFA800" opacity="0.7634350928514395"/><circle cx="354" cy="276" r="1.572551740397908" fill="#F5F5F5" opacity="0.5819124823898079"/><circle cx="159" cy="862" r="1.4508995961376794" fill="#00E1FF" opacity="0.5240070167945088"/><circle cx="279" cy="713" r="1.1768097594277052" fill="#F5F5F5" opacity="0.7600411305684629"/><circle cx="425" cy="149" r="2.732943976413881" fill="#00E1FF" opacity="0.7917357857840984"/><circle cx="872" cy="610" r="0.9595903819969283" fill="#F5F5F5" opacity="0.9916532678091157"/><circle cx="384" cy="920" r="0.9026706898495275" fill="#F5F5F5" opacity="0.37333878561135203"/><circle cx="373" cy="475" r="1.8867103074146492" fill="#FFA800" opacity="0.6064630916003628"/><circle cx="156" cy="507" r="2.0465611875034373" fill="#00E1FF" opacity="0.5806951185609222"/><circle cx="659" cy="792" r="2.374191423373199" fill="#FFA800" opacity="0.3805152623442086"/><circle cx="501" cy="543" r="2.1633470741937586" fill="#00E1FF" opacity="0.8302348312165131"/><circle cx="607" cy="423" r="0.7953186374116917" fill="#FF3D2E" opacity="0.91945967187674"/><circle cx="159" cy="395" r="0.850407192119998" fill="#00E1FF" opacity="0.3477320459367363"/><circle cx="261" cy="253" r="1.4984619611696148" fill="#FF3D2E" opacity="0.3476205355316446"/><circle cx="231" cy="861" r="2.142875167902264" fill="#00E1FF" opacity="0.9916142798833358"/><circle cx="818" cy="990" r="1.5424513448202126" fill="#FFA800" opacity="0.9835818877010611"/><circle cx="636" cy="880" r="0.5000829292113419" fill="#FF3D2E" opacity="0.8144155143818144"/><circle cx="316" cy="484" r="0.7440530689326859" fill="#FF3D2E" opacity="0.6917122149858124"/><circle cx="87" cy="389" r="1.5638425048652493" fill="#FF3D2E" opacity="0.4864550428319325"/><circle cx="41" cy="612" r="2.581848759290615" fill="#FFA800" opacity="0.8172375576394579"/><circle cx="382" cy="37" r="1.3494747412990216" fill="#00E1FF" opacity="0.8001731917977812"/><circle cx="192" cy="686" r="0.9104228934732396" fill="#00E1FF" opacity="0.6965224456953072"/><circle cx="834" cy="863" r="0.7356052596579294" fill="#FFA800" opacity="0.5231704191408604"/>
  </svg>