<svg xmlns="http://www.w3.org/2000/svg" viewBox="0 0 2000 100">
    <rect width="2000" height="100" fill="#050505"/>
    <path d="M 0 50 L 77.05365042946428 37.03466165345665 L 167.52589753239857 25.651634229709263 L 253.70719368235672 20.229935925472137 L 338.98083952597426 22.096987573961325 L 426.95236016028997 30.795669815924008 L 520.566746841907 44.19624186137863 L 621.3874204172158 59.01777631230911 L 729.2134513729891 71.63144461604247 L 842.1287543888822 78.94898085476339 L 956.9712128496645 79.17879694923477 L 1070.1068752753013 72.26462590441348 L 1178.3196733817535 59.8992979322171 L 1279.5988277612146 45.11027657612884 L 1373.6311568095236 31.518430049270453 L 1461.877754505455 22.451516413636433 L 1547.2162636472808 20.129432346897904 L 1633.2363285344516 25.120705014105493 L 1723.3607248498702 36.20329678960689 L 1820.0073447992413 50.66380268785867 L 1923.9972127721771 64.96178653719457" fill="none" stroke="#00E1FF" stroke-width="2"/>
    <circle cx="0" cy="50" r="3" fill="#FF3D2E"/><circle cx="100" cy="50" r="3" fill="#FF3D2E"/><circle cx="200" cy="50" r="3" fill="#FF3D2E"/><circle cx="300" cy="50" r="3" fill="#FF3D2E"/><circle cx="400" cy="50" r="3" fill="#FF3D2E"/><circle cx="500" cy="50" r="3" fill="#FF3D2E"/><circle cx="600" cy="50" r="3" fill="#FF3D2E"/><circle cx="700" cy="50" r="3" fill="#FF3D2E"/><circle cx="800" cy="50" r="3" fill="#FF3D2E"/><circle cx="900" cy="50" r="3" fill="#FF3D2E"/><circle cx="1000" cy="50" r="3" fill="#FF3D2E"/><circle cx="1100" cy="50" r="3" fill="#FF3D2E"/><circle cx="1200" cy="50" r="3" fill="#FF3D2E"/><circle cx="1300" cy="50" r="3" fill="#FF3D2E"/><circle cx="1400" cy="50" r="3" fill="#FF3D2E"/><circle cx="1500" cy="50" r="3" fill="#FF3D2E"/><circle cx="1600" cy="50" r="3" fill="#FF3D2E"/><circle cx="1700" cy="50" r="3" fill="#FF3D2E"/><circle cx="1800" cy="50" r="3" fill="#FF3D2E"/><circle cx="1900" cy="50" r="3" fill="#FF3D2E"/><circle cx="2000" cy="50" r="3" fill="#FF3D2E"/>
  </svg>