<svg xmlns="http://www.w3.org/2000/svg" viewBox="0 0 1000 1000"><rect width="1000" height="1000" fill="#050505"/><circle cx="650" cy="500" r="33.333333333333336" fill="#FF3D2E" opacity="0.7"/><rect x="694.9739481687753" y="517.8196888880847" width="60" height="60" fill="#FFA800" opacity="0.7" transform="rotate(15 724.9739481687753 547.8196888880847)"/><polygon points="783.1990918692063,586.088359353498 818.1990918692063,646.088359353498 748.1990918692063,646.088359353498" fill="#00E1FF" opacity="0.7"/><line x1="571.3525491562422" y1="588.167787843871" x2="671.3525491562422" y2="588.167787843871" stroke="#00E1FF" stroke-width="4" opacity="0.8"/><circle cx="653.9000394625374" cy="670.9233098598006" r="33.333333333333336" fill="#FF3D2E" opacity="0.7"/><rect x="625" y="738.467875173176" width="60" height="60" fill="#00E1FF" opacity="0.7" transform="rotate(75 655 768.467875173176)"/><polygon points="546.3525491562422,602.658477444273 581.3525491562422,662.658477444273 511.35254915624216,662.658477444273" fill="#00E1FF" opacity="0.7"/><line x1="474.04154655156026" y1="728.7400359347029" x2="574.0415465515603" y2="728.7400359347029" stroke="#00E1FF" stroke-width="4" opacity="0.8"/><circle cx="467.59617638702747" cy="808.3017875641647" r="33.333333333333336" fill="#00E1FF" opacity="0.7"/><rect x="423.6474508437579" y="612.6584774442731" width="60" height="60" fill="#FFA800" opacity="0.7" transform="rotate(135 453.6474508437579 642.6584774442731)"/><polygon points="385.00000000000006,659.1858428704209 420.00000000000006,719.1858428704209 350.00000000000006,719.1858428704209" fill="#FF3D2E" opacity="0.7"/><line x1="242.56951202875405" y1="730.3748958979922" x2="342.56951202875405" y2="730.3748958979922" stroke="#00E1FF" stroke-width="4" opacity="0.8"/><circle cx="378.6474508437579" cy="588.167787843871" r="33.333333333333336" fill="#FFA800" opacity="0.7"/><rect x="259.8845447422018" y="563.549427907434" width="60" height="60" fill="#FF3D2E" opacity="0.7" transform="rotate(195 289.8845447422018 593.549427907434)"/><polygon points="196.7742437725202,524.4526241535054 231.7742437725202,584.4526241535054 161.7742437725202,584.4526241535054" fill="#00E1FF" opacity="0.7"/><line x1="300" y1="500" x2="400" y2="500" stroke="#00E1FF" stroke-width="4" opacity="0.8"/><circle cx="275.02605183122466" cy="452.18031111191544" r="33.333333333333336" fill="#FF3D2E" opacity="0.7"/><rect x="186.8009081307937" y="343.91164064650206" width="60" height="60" fill="#00E1FF" opacity="0.7" transform="rotate(255 216.8009081307937 373.91164064650206)"/><polygon points="378.6474508437579,371.83221215612906 413.6474508437579,431.83221215612906 343.6474508437579,431.83221215612906" fill="#00E1FF" opacity="0.7"/><line x1="296.09996053746255" y1="329.0766901401994" x2="396.09996053746255" y2="329.0766901401994" stroke="#00E1FF" stroke-width="4" opacity="0.8"/><circle cx="344.9999999999999" cy="231.5321248268241" r="33.333333333333336" fill="#00E1FF" opacity="0.7"/><rect x="423.64745084375784" y="327.341522555727" width="60" height="60" fill="#00E1FF" opacity="0.7" transform="rotate(315 453.64745084375784 357.341522555727)"/><polygon points="475.9584534484395,231.25996406529714 510.9584534484395,291.25996406529714 440.9584534484395,291.25996406529714" fill="#00E1FF" opacity="0.7"/><line x1="482.4038236129727" y1="191.69821243583527" x2="582.4038236129727" y2="191.69821243583527" stroke="#FFA800" stroke-width="4" opacity="0.8"/><circle cx="546.352549156242" cy="357.34152255572695" r="33.333333333333336" fill="#FF3D2E" opacity="0.7"/><rect x="585" y="270.81415712957914" width="60" height="60" fill="#FF3D2E" opacity="0.7" transform="rotate(375 615 300.81415712957914)"/><polygon points="707.4304879712461,229.62510410200787 742.4304879712461,289.62510410200787 672.4304879712461,289.62510410200787" fill="#FFA800" opacity="0.7"/><line x1="571.352549156242" y1="411.832212156129" x2="671.352549156242" y2="411.832212156129" stroke="#FF3D2E" stroke-width="4" opacity="0.8"/><circle cx="710.1154552577982" cy="406.45057209256595" r="33.333333333333336" fill="#FF3D2E" opacity="0.7"/><rect x="773.2257562274797" y="405.54737584649445" width="60" height="60" fill="#00E1FF" opacity="0.7" transform="rotate(435 803.2257562274797 435.54737584649445)"/><circle cx="500" cy="500" r="80" fill="#F5F5F5" opacity="0.9"/><circle cx="500" cy="500" r="40" fill="#050505"/></svg>