<svg xmlns="http://www.w3.org/2000/svg" viewBox="0 0 1000 1000"><rect width="1000" height="1000" fill="#050505"/><line x1="474" y1="560" x2="377" y2="430" stroke="#00E1FF" stroke-width="0.5" opacity="0.18899753391250396"/><line x1="474" y1="560" x2="444" y2="509" stroke="#00E1FF" stroke-width="0.5" opacity="0.7041537561502598"/><line x1="474" y1="560" x2="599" y2="435" stroke="#00E1FF" stroke-width="0.5" opacity="0.11611652351681556"/><line x1="474" y1="560" x2="425" y2="437" stroke="#00E1FF" stroke-width="0.5" opacity="0.3379954682934564"/><line x1="474" y1="560" x2="600" y2="618" stroke="#00E1FF" stroke-width="0.5" opacity="0.3064583646240121"/><line x1="474" y1="560" x2="449" y2="452" stroke="#00E1FF" stroke-width="0.5" opacity="0.4457211892918871"/><line x1="474" y1="560" x2="643" y2="663" stroke="#00E1FF" stroke-width="0.5" opacity="0.01042938604665511"/><line x1="474" y1="560" x2="583" y2="719" stroke="#00E1FF" stroke-width="0.5" opacity="0.03612760180613117"/><line x1="474" y1="560" x2="341" y2="708" stroke="#00E1FF" stroke-width="0.5" opacity="0.0051005075888316265"/><line x1="474" y1="560" x2="405" y2="508" stroke="#00E1FF" stroke-width="0.5" opacity="0.5679988425941431"/><line x1="377" y1="430" x2="444" y2="509" stroke="#00E1FF" stroke-width="0.5" opacity="0.48207143349685766"/><line x1="377" y1="430" x2="476" y2="346" stroke="#00E1FF" stroke-width="0.5" opacity="0.350827449748528"/><line x1="377" y1="430" x2="191" y2="466" stroke="#00E1FF" stroke-width="0.5" opacity="0.052740795769183224"/><line x1="377" y1="430" x2="425" y2="437" stroke="#00E1FF" stroke-width="0.5" opacity="0.757461343287302"/><line x1="377" y1="430" x2="449" y2="452" stroke="#00E1FF" stroke-width="0.5" opacity="0.6235693955056258"/><line x1="377" y1="430" x2="235" y2="369" stroke="#00E1FF" stroke-width="0.5" opacity="0.22726136371991856"/><line x1="377" y1="430" x2="405" y2="508" stroke="#00E1FF" stroke-width="0.5" opacity="0.5856330128979867"/><line x1="377" y1="430" x2="341" y2="405" stroke="#00E1FF" stroke-width="0.5" opacity="0.7808539299918887"/><line x1="812" y1="579" x2="765" y2="554" stroke="#00E1FF" stroke-width="0.5" opacity="0.7338233669158767"/><line x1="812" y1="579" x2="729" y2="632" stroke="#00E1FF" stroke-width="0.5" opacity="0.507607879835593"/><line x1="812" y1="579" x2="643" y2="663" stroke="#00E1FF" stroke-width="0.5" opacity="0.05637666412916653"/><line x1="812" y1="579" x2="892" y2="409" stroke="#00E1FF" stroke-width="0.5" opacity="0.060585288597203246"/><line x1="492" y1="104" x2="442" y2="107" stroke="#00E1FF" stroke-width="0.5" opacity="0.7495504042726362"/><line x1="492" y1="104" x2="462" y2="185" stroke="#00E1FF" stroke-width="0.5" opacity="0.5681145985333609"/><line x1="108" y1="730" x2="288" y2="792" stroke="#00E1FF" stroke-width="0.5" opacity="0.048107148887018836"/><line x1="248" y1="897" x2="430" y2="852" stroke="#00E1FF" stroke-width="0.5" opacity="0.06259667165088412"/><line x1="248" y1="897" x2="288" y2="792" stroke="#00E1FF" stroke-width="0.5" opacity="0.4381948736438943"/><line x1="728" y1="105" x2="852" y2="256" stroke="#00E1FF" stroke-width="0.5" opacity="0.023053225605406902"/><line x1="728" y1="105" x2="720" y2="297" stroke="#00E1FF" stroke-width="0.5" opacity="0.03916702804285488"/><line x1="442" y1="107" x2="462" y2="185" stroke="#00E1FF" stroke-width="0.5" opacity="0.597383557216052"/><line x1="514" y1="877" x2="447" y2="770" stroke="#00E1FF" stroke-width="0.5" opacity="0.3687710399545978"/><line x1="514" y1="877" x2="706" y2="850" stroke="#00E1FF" stroke-width="0.5" opacity="0.030554282076608374"/><line x1="514" y1="877" x2="541" y2="784" stroke="#00E1FF" stroke-width="0.5" opacity="0.5157996282529307"/><line x1="514" y1="877" x2="594" y2="875" stroke="#00E1FF" stroke-width="0.5" opacity="0.5998750195251488"/><line x1="514" y1="877" x2="583" y2="719" stroke="#00E1FF" stroke-width="0.5" opacity="0.13795301752166667"/><line x1="514" y1="877" x2="430" y2="852" stroke="#00E1FF" stroke-width="0.5" opacity="0.5617934277078902"/><line x1="514" y1="877" x2="631" y2="748" stroke="#00E1FF" stroke-width="0.5" opacity="0.12922448357800054"/><line x1="714" y1="377" x2="678" y2="406" stroke="#00E1FF" stroke-width="0.5" opacity="0.7688615133734756"/><line x1="714" y1="377" x2="604" y2="298" stroke="#00E1FF" stroke-width="0.5" opacity="0.32285525919490454"/><line x1="714" y1="377" x2="599" y2="435" stroke="#00E1FF" stroke-width="0.5" opacity="0.3560085404293004"/><line x1="714" y1="377" x2="809" y2="372" stroke="#00E1FF" stroke-width="0.5" opacity="0.5243425602389888"/><line x1="714" y1="377" x2="765" y2="554" stroke="#00E1FF" stroke-width="0.5" opacity="0.0789951140194749"/><line x1="714" y1="377" x2="864" y2="284" stroke="#00E1FF" stroke-width="0.5" opacity="0.11754603519503637"/><line x1="714" y1="377" x2="852" y2="256" stroke="#00E1FF" stroke-width="0.5" opacity="0.08232631071823793"/><line x1="714" y1="377" x2="720" y2="297" stroke="#00E1FF" stroke-width="0.5" opacity="0.5988765775973683"/><line x1="714" y1="377" x2="892" y2="409" stroke="#00E1FF" stroke-width="0.5" opacity="0.095732340509736"/><line x1="447" y1="770" x2="541" y2="784" stroke="#00E1FF" stroke-width="0.5" opacity="0.5248158251793311"/><line x1="447" y1="770" x2="594" y2="875" stroke="#00E1FF" stroke-width="0.5" opacity="0.0967558469605243"/><line x1="447" y1="770" x2="583" y2="719" stroke="#00E1FF" stroke-width="0.5" opacity="0.2737596816480099"/><line x1="447" y1="770" x2="341" y2="708" stroke="#00E1FF" stroke-width="0.5" opacity="0.3859967426796499"/><line x1="447" y1="770" x2="430" y2="852" stroke="#00E1FF" stroke-width="0.5" opacity="0.5812817176191134"/><line x1="447" y1="770" x2="288" y2="792" stroke="#00E1FF" stroke-width="0.5" opacity="0.19742601587143394"/><line x1="447" y1="770" x2="631" y2="748" stroke="#00E1FF" stroke-width="0.5" opacity="0.07344724920811985"/><line x1="678" y1="406" x2="604" y2="298" stroke="#00E1FF" stroke-width="0.5" opacity="0.3454008860378742"/><line x1="678" y1="406" x2="599" y2="435" stroke="#00E1FF" stroke-width="0.5" opacity="0.5792269020006151"/><line x1="678" y1="406" x2="809" y2="372" stroke="#00E1FF" stroke-width="0.5" opacity="0.32329844096529525"/><line x1="678" y1="406" x2="765" y2="554" stroke="#00E1FF" stroke-width="0.5" opacity="0.14161488829313928"/><line x1="678" y1="406" x2="720" y2="297" stroke="#00E1FF" stroke-width="0.5" opacity="0.4159409276451568"/><line x1="706" y1="850" x2="541" y2="784" stroke="#00E1FF" stroke-width="0.5" opacity="0.11144780682280664"/><line x1="706" y1="850" x2="594" y2="875" stroke="#00E1FF" stroke-width="0.5" opacity="0.4262186827719119"/><line x1="706" y1="850" x2="643" y2="663" stroke="#00E1FF" stroke-width="0.5" opacity="0.013364302287820262"/><line x1="706" y1="850" x2="583" y2="719" stroke="#00E1FF" stroke-width="0.5" opacity="0.10152907670865619"/><line x1="706" y1="850" x2="631" y2="748" stroke="#00E1FF" stroke-width="0.5" opacity="0.36697156461972424"/><line x1="444" y1="509" x2="476" y2="346" stroke="#00E1FF" stroke-width="0.5" opacity="0.1694429580095056"/><line x1="444" y1="509" x2="599" y2="435" stroke="#00E1FF" stroke-width="0.5" opacity="0.1412072426947233"/><line x1="444" y1="509" x2="425" y2="437" stroke="#00E1FF" stroke-width="0.5" opacity="0.6276762161773707"/><line x1="444" y1="509" x2="600" y2="618" stroke="#00E1FF" stroke-width="0.5" opacity="0.04846177165602017"/><line x1="444" y1="509" x2="449" y2="452" stroke="#00E1FF" stroke-width="0.5" opacity="0.7139056099816007"/><line x1="444" y1="509" x2="405" y2="508" stroke="#00E1FF" stroke-width="0.5" opacity="0.8049359079686884"/><line x1="444" y1="509" x2="341" y2="405" stroke="#00E1FF" stroke-width="0.5" opacity="0.2681359415847777"/><line x1="604" y1="298" x2="476" y2="346" stroke="#00E1FF" stroke-width="0.5" opacity="0.3164797003745976"/><line x1="604" y1="298" x2="599" y2="435" stroke="#00E1FF" stroke-width="0.5" opacity="0.3145439474335353"/><line x1="604" y1="298" x2="462" y2="185" stroke="#00E1FF" stroke-width="0.5" opacity="0.09262741941361274"/><line x1="604" y1="298" x2="720" y2="297" stroke="#00E1FF" stroke-width="0.5" opacity="0.4199784486762581"/><line x1="476" y1="346" x2="599" y2="435" stroke="#00E1FF" stroke-width="0.5" opacity="0.2408886774655512"/><line x1="476" y1="346" x2="425" y2="437" stroke="#00E1FF" stroke-width="0.5" opacity="0.47841587447469225"/><line x1="476" y1="346" x2="462" y2="185" stroke="#00E1FF" stroke-width="0.5" opacity="0.19196225335693629"/><line x1="476" y1="346" x2="449" y2="452" stroke="#00E1FF" stroke-width="0.5" opacity="0.4530767878394627"/><line x1="476" y1="346" x2="405" y2="508" stroke="#00E1FF" stroke-width="0.5" opacity="0.11562168728535649"/><line x1="476" y1="346" x2="341" y2="405" stroke="#00E1FF" stroke-width="0.5" opacity="0.2633521872699274"/><line x1="191" y1="466" x2="235" y2="369" stroke="#00E1FF" stroke-width="0.5" opacity="0.46743544992179586"/><line x1="191" y1="466" x2="341" y2="405" stroke="#00E1FF" stroke-width="0.5" opacity="0.19035501607185878"/><line x1="599" y1="435" x2="425" y2="437" stroke="#00E1FF" stroke-width="0.5" opacity="0.12994253063375172"/><line x1="599" y1="435" x2="600" y2="618" stroke="#00E1FF" stroke-width="0.5" opacity="0.08498633889979557"/><line x1="599" y1="435" x2="449" y2="452" stroke="#00E1FF" stroke-width="0.5" opacity="0.2451987016439361"/><line x1="599" y1="435" x2="720" y2="297" stroke="#00E1FF" stroke-width="0.5" opacity="0.08232631071823793"/><line x1="541" y1="784" x2="600" y2="618" stroke="#00E1FF" stroke-width="0.5" opacity="0.1191339488889358"/><line x1="541" y1="784" x2="594" y2="875" stroke="#00E1FF" stroke-width="0.5" opacity="0.47345465532396924"/><line x1="541" y1="784" x2="643" y2="663" stroke="#00E1FF" stroke-width="0.5" opacity="0.20871939237714154"/><line x1="541" y1="784" x2="583" y2="719" stroke="#00E1FF" stroke-width="0.5" opacity="0.613056851721083"/><line x1="541" y1="784" x2="430" y2="852" stroke="#00E1FF" stroke-width="0.5" opacity="0.34913519068857324"/><line x1="541" y1="784" x2="631" y2="748" stroke="#00E1FF" stroke-width="0.5" opacity="0.5153351673578945"/><line x1="425" y1="437" x2="449" y2="452" stroke="#00E1FF" stroke-width="0.5" opacity="0.858490283019151"/><line x1="425" y1="437" x2="405" y2="508" stroke="#00E1FF" stroke-width="0.5" opacity="0.6311843278817995"/><line x1="425" y1="437" x2="341" y2="405" stroke="#00E1FF" stroke-width="0.5" opacity="0.5505558989151155"/><line x1="600" y1="618" x2="765" y2="554" stroke="#00E1FF" stroke-width="0.5" opacity="0.11511300156460647"/><line x1="600" y1="618" x2="729" y2="632" stroke="#00E1FF" stroke-width="0.5" opacity="0.35121266966747877"/><line x1="600" y1="618" x2="643" y2="663" stroke="#00E1FF" stroke-width="0.5" opacity="0.6887926736080914"/><line x1="600" y1="618" x2="583" y2="719" stroke="#00E1FF" stroke-width="0.5" opacity="0.4878964948372253"/><line x1="600" y1="618" x2="631" y2="748" stroke="#00E1FF" stroke-width="0.5" opacity="0.3317747385798707"/><line x1="809" y1="372" x2="765" y2="554" stroke="#00E1FF" stroke-width="0.5" opacity="0.06378421290815639"/><line x1="809" y1="372" x2="864" y2="284" stroke="#00E1FF" stroke-width="0.5" opacity="0.4811310377368868"/><line x1="809" y1="372" x2="852" y2="256" stroke="#00E1FF" stroke-width="0.5" opacity="0.38143310790182117"/><line x1="809" y1="372" x2="720" y2="297" stroke="#00E1FF" stroke-width="0.5" opacity="0.41806357735573907"/><line x1="809" y1="372" x2="892" y2="409" stroke="#00E1FF" stroke-width="0.5" opacity="0.5456323074865468"/><line x1="594" y1="875" x2="583" y2="719" stroke="#00E1FF" stroke-width="0.5" opacity="0.21806330179483202"/><line x1="594" y1="875" x2="430" y2="852" stroke="#00E1FF" stroke-width="0.5" opacity="0.1719752419160402"/><line x1="594" y1="875" x2="631" y2="748" stroke="#00E1FF" stroke-width="0.5" opacity="0.3385999697611135"/><line x1="765" y1="554" x2="729" y2="632" stroke="#00E1FF" stroke-width="0.5" opacity="0.5704653681017093"/><line x1="765" y1="554" x2="643" y2="663" stroke="#00E1FF" stroke-width="0.5" opacity="0.18199938875328459"/><line x1="765" y1="554" x2="892" y2="409" stroke="#00E1FF" stroke-width="0.5" opacity="0.036231355562965084"/><line x1="449" y1="452" x2="405" y2="508" stroke="#00E1FF" stroke-width="0.5" opacity="0.6439101237047029"/><line x1="449" y1="452" x2="341" y2="405" stroke="#00E1FF" stroke-width="0.5" opacity="0.4110814996962653"/><line x1="729" y1="632" x2="643" y2="663" stroke="#00E1FF" stroke-width="0.5" opacity="0.542916856578587"/><line x1="729" y1="632" x2="583" y2="719" stroke="#00E1FF" stroke-width="0.5" opacity="0.1502206168657656"/><line x1="729" y1="632" x2="631" y2="748" stroke="#00E1FF" stroke-width="0.5" opacity="0.24072402909087132"/><line x1="864" y1="284" x2="852" y2="256" stroke="#00E1FF" stroke-width="0.5" opacity="0.8476845378827218"/><line x1="864" y1="284" x2="720" y2="297" stroke="#00E1FF" stroke-width="0.5" opacity="0.2770719261226605"/><line x1="864" y1="284" x2="892" y2="409" stroke="#00E1FF" stroke-width="0.5" opacity="0.3595119048725417"/><line x1="235" y1="369" x2="341" y2="405" stroke="#00E1FF" stroke-width="0.5" opacity="0.4402679212337388"/><line x1="643" y1="663" x2="583" y2="719" stroke="#00E1FF" stroke-width="0.5" opacity="0.5896343094263361"/><line x1="643" y1="663" x2="631" y2="748" stroke="#00E1FF" stroke-width="0.5" opacity="0.5707856013598798"/><line x1="583" y1="719" x2="631" y2="748" stroke="#00E1FF" stroke-width="0.5" opacity="0.7195985021438009"/><line x1="341" y1="708" x2="430" y2="852" stroke="#00E1FF" stroke-width="0.5" opacity="0.15358107299044876"/><line x1="341" y1="708" x2="288" y2="792" stroke="#00E1FF" stroke-width="0.5" opacity="0.5033864681666438"/><line x1="405" y1="508" x2="341" y2="405" stroke="#00E1FF" stroke-width="0.5" opacity="0.39367912785390613"/><line x1="430" y1="852" x2="288" y2="792" stroke="#00E1FF" stroke-width="0.5" opacity="0.2292211730982746"/><line x1="852" y1="256" x2="720" y2="297" stroke="#00E1FF" stroke-width="0.5" opacity="0.308895811038596"/><line x1="852" y1="256" x2="892" y2="409" stroke="#00E1FF" stroke-width="0.5" opacity="0.2092882952681172"/><circle cx="474" cy="560" r="4" fill="#00E1FF"/><circle cx="377" cy="430" r="4" fill="#00E1FF"/><circle cx="812" cy="579" r="4" fill="#00E1FF"/><circle cx="492" cy="104" r="4" fill="#00E1FF"/><circle cx="108" cy="730" r="4" fill="#00E1FF"/><circle cx="248" cy="897" r="4" fill="#00E1FF"/><circle cx="728" cy="105" r="4" fill="#00E1FF"/><circle cx="442" cy="107" r="4" fill="#00E1FF"/><circle cx="514" cy="877" r="4" fill="#00E1FF"/><circle cx="714" cy="377" r="4" fill="#00E1FF"/><circle cx="447" cy="770" r="4" fill="#00E1FF"/><circle cx="678" cy="406" r="4" fill="#00E1FF"/><circle cx="706" cy="850" r="4" fill="#00E1FF"/><circle cx="444" cy="509" r="4" fill="#00E1FF"/><circle cx="604" cy="298" r="4" fill="#00E1FF"/><circle cx="476" cy="346" r="4" fill="#00E1FF"/><circle cx="191" cy="466" r="4" fill="#00E1FF"/><circle cx="599" cy="435" r="4" fill="#00E1FF"/><circle cx="541" cy="784" r="4" fill="#00E1FF"/><circle cx="425" cy="437" r="4" fill="#00E1FF"/><circle cx="462" cy="185" r="4" fill="#00E1FF"/><circle cx="600" cy="618" r="4" fill="#00E1FF"/><circle cx="809" cy="372" r="4" fill="#00E1FF"/><circle cx="594" cy="875" r="4" fill="#00E1FF"/><circle cx="765" cy="554" r="4" fill="#00E1FF"/><circle cx="449" cy="452" r="4" fill="#00E1FF"/><circle cx="729" cy="632" r="4" fill="#00E1FF"/><circle cx="864" cy="284" r="4" fill="#00E1FF"/><circle cx="235" cy="369" r="4" fill="#00E1FF"/><circle cx="643" cy="663" r="4" fill="#00E1FF"/><circle cx="583" cy="719" r="4" fill="#00E1FF"/><circle cx="341" cy="708" r="4" fill="#00E1FF"/><circle cx="405" cy="508" r="4" fill="#00E1FF"/><circle cx="430" cy="852" r="4" fill="#00E1FF"/><circle cx="852" cy="256" r="4" fill="#00E1FF"/><circle cx="288" cy="792" r="4" fill="#00E1FF"/><circle cx="720" cy="297" r="4" fill="#00E1FF"/><circle cx="341" cy="405" r="4" fill="#00E1FF"/><circle cx="892" cy="409" r="4" fill="#00E1FF"/><circle cx="631" cy="748" r="4" fill="#00E1FF"/><circle cx="500" cy="500" r="60" fill="#FF3D2E"/><text x="500" y="520" text-anchor="middle" fill="#F5F5F5" font-size="60" font-weight="900" font-family="Arial">🧠</text></svg>