<svg xmlns="http://www.w3.org/2000/svg" viewBox="0 0 1000 1000"><rect width="1000" height="1000" fill="#050505"/><path d="M 0 500 L 0 654.9154026845841 L 20 608.7572992695283 L 40 511.42681722595626 L 60 408.3402316662696 L 80 349.4560859235043 L 100 350.41943835953026 L 120 384.2550272845625 L 140 410.2871700032198 L 160 413.04727971930583 L 180 415.1591368213444 L 200 452.56625573866575 L 220 535.5043519851932 L 240 632.0449481528718 L 260 690.4524165680298 L 280 680.9043036950115 L 300 619.1402867404822 L 320 550.8921687682855 L 340 511.5834138277263 L 360 498.07476378383075 L 380 477.75183442673097 L 400 425.6205358884876 L 420 354.18246108832324 L 440 307.53423094588084 L 460 324.23277964075584 L 480 402.53009367413034 L 500 499.8324672951745 L 520 567.2205322456781 L 540 588.0251270454439 L 560 586.0030075520378 L 580 596.7244906775583 L 600 629.5480134684592 L 620 655.9822896993367 L 640 635.6148043058589 L 660 555.8101444808104 L 680 448.2781814713088 L 700 366.4977009707104 L 720 343.71364330251447 L 740 368.99383967604916 L 760 402.31310557330255 L 780 414.0018283146074 L 800 411.8718829774738 L 820 431.1044619908811 L 840 496.65947884110994 L 860 593.5952638111709 L 880 673.6493647922313 L 900 693.1599494668415 L 920 648.4814976974823 L 940 577.0800168461362 L 960 523.6570893850372 L 980 502.3581374709895 L 1000 489.288397576155" fill="none" stroke="#FF3D2E" stroke-width="6"/><path d="M 0 500 L 0 654.9154026845841 L 20 608.7572992695283 L 40 511.42681722595626 L 60 408.3402316662696 L 80 349.4560859235043 L 100 350.41943835953026 L 120 384.2550272845625 L 140 410.2871700032198 L 160 413.04727971930583 L 180 415.1591368213444 L 200 452.56625573866575 L 220 535.5043519851932 L 240 632.0449481528718 L 260 690.4524165680298 L 280 680.9043036950115 L 300 619.1402867404822 L 320 550.8921687682855 L 340 511.5834138277263 L 360 498.07476378383075 L 380 477.75183442673097 L 400 425.6205358884876 L 420 354.18246108832324 L 440 307.53423094588084 L 460 324.23277964075584 L 480 402.53009367413034 L 500 499.8324672951745 L 520 567.2205322456781 L 540 588.0251270454439 L 560 586.0030075520378 L 580 596.7244906775583 L 600 629.5480134684592 L 620 655.9822896993367 L 640 635.6148043058589 L 660 555.8101444808104 L 680 448.2781814713088 L 700 366.4977009707104 L 720 343.71364330251447 L 740 368.99383967604916 L 760 402.31310557330255 L 780 414.0018283146074 L 800 411.8718829774738 L 820 431.1044619908811 L 840 496.65947884110994 L 860 593.5952638111709 L 880 673.6493647922313 L 900 693.1599494668415 L 920 648.4814976974823 L 940 577.0800168461362 L 960 523.6570893850372 L 980 502.3581374709895 L 1000 489.288397576155 L 1000 1000 L 0 1000 Z" fill="#FF3D2E" opacity="0.2"/><circle cx="500" cy="500" r="20" fill="#00E1FF"/></svg>