<svg xmlns="http://www.w3.org/2000/svg" viewBox="0 0 1000 1000">
    <rect width="1000" height="1000" fill="#050505"/>
    <circle cx="276" cy="325" r="1.6431173613650918" fill="#00E1FF" opacity="0.4671489206915334"/><circle cx="986" cy="709" r="1.704378365507931" fill="#F5F5F5" opacity="0.3471032608179045"/><circle cx="499" cy="825" r="1.122414223692565" fill="#FFA800" opacity="0.6599174461093216"/><circle cx="510" cy="5" r="2.5817918595911737" fill="#FF3D2E" opacity="0.8516167005683157"/><circle cx="435" cy="268" r="0.6430670659011762" fill="#F5F5F5" opacity="0.43337162057545675"/><circle cx="957" cy="896" r="2.9575921650400505" fill="#FFA800" opacity="0.4285185937545719"/><circle cx="872" cy="822" r="1.114930451779116" fill="#FFA800" opacity="0.9775164692913929"/><circle cx="574" cy="713" r="2.13140788970658" fill="#F5F5F5" opacity="0.8668294475301335"/><circle cx="591" cy="396" r="1.163942603750363" fill="#FFA800" opacity="0.9915490305755541"/><circle cx="435" cy="418" r="1.9209904031028748" fill="#FFA800" opacity="0.5466696585548456"/><circle cx="562" cy="852" r="0.618279561433664" fill="#FFA800" opacity="0.330363035246014"/><circle cx="944" cy="991" r="2.6978571790418133" fill="#FF3D2E" opacity="0.9591234832924871"/><circle cx="70" cy="293" r="1.961457252260162" fill="#FFA800" opacity="0.6593975216489597"/><circle cx="503" cy="183" r="2.2998215831493702" fill="#00E1FF" opacity="0.6788520095713195"/><circle cx="369" cy="356" r="0.75711063223961" fill="#FF3D2E" opacity="0.44847512463286887"/><circle cx="594" cy="183" r="2.495948695942995" fill="#FFA800" opacity="0.4183502340753057"/><circle cx="374" cy="387" r="1.4246079276769392" fill="#F5F5F5" opacity="0.9268252190649737"/><circle cx="294" cy="440" r="1.0867162222741324" fill="#F5F5F5" opacity="0.37087068708445925"/><circle cx="813" cy="199" r="1.097085019481367" fill="#FFA800" opacity="0.8242839258385102"/><circle cx="251" cy="940" r="2.355571584897735" fill="#F5F5F5" opacity="0.5948701638700491"/><circle cx="336" cy="478" r="2.152533269300282" fill="#FF3D2E" opacity="0.9325059038698666"/><circle cx="77" cy="806" r="1.4981279770620333" fill="#00E1FF" opacity="0.5345650831549349"/><circle cx="279" cy="714" r="1.0599691814726033" fill="#FFA800" opacity="0.8767184374015937"/><circle cx="177" cy="487" r="2.01991748510453" fill="#FF3D2E" opacity="0.5273326363106208"/><circle cx="100" cy="236" r="0.9919067298530189" fill="#F5F5F5" opacity="0.3512235465537473"/><circle cx="533" cy="288" r="0.9843395771515502" fill="#FFA800" opacity="0.676844220168394"/><circle cx="372" cy="23" r="1.557426993350813" fill="#F5F5F5" opacity="0.9501726328362046"/><circle cx="265" cy="168" r="2.0452101720634226" fill="#FFA800" opacity="0.7710177403755534"/><circle cx="809" cy="826" r="2.4638478265136587" fill="#FF3D2E" opacity="0.30959808770504327"/><circle cx="778" cy="670" r="2.119908149679409" fill="#F5F5F5" opacity="0.6528885641113542"/><circle cx="251" cy="383" r="2.2790268602878205" fill="#FF3D2E" opacity="0.7100624635512098"/><circle cx="372" cy="426" r="2.8447757242763263" fill="#FFA800" opacity="0.4368076812971933"/><circle cx="67" cy="364" r="1.2221931284446792" fill="#FF3D2E" opacity="0.6208095913328913"/><circle cx="204" cy="649" r="0.8883197039098896" fill="#FFA800" opacity="0.5977791813993647"/><circle cx="136" cy="841" r="2.84379172984553" fill="#00E1FF" opacity="0.4772586670823989"/><circle cx="327" cy="370" r="2.278611460707507" fill="#00E1FF" opacity="0.8123895298678785"/><circle cx="338" cy="912" r="1.2420122494780068" fill="#00E1FF" opacity="0.43013046588056003"/><circle cx="141" cy="795" r="1.6673562509593094" fill="#00E1FF" opacity="0.909091145820297"/><circle cx="626" cy="931" r="2.1530790642328066" fill="#FFA800" opacity="0.9610336614595985"/><circle cx="729" cy="949" r="1.4392712004671426" fill="#00E1FF" opacity="0.325914210950175"/><circle cx="992" cy="628" r="2.9723206834750737" fill="#FFA800" opacity="0.5151750482436975"/><circle cx="987" cy="67" r="1.1908385960516727" fill="#00E1FF" opacity="0.35926844717556555"/><circle cx="604" cy="337" r="2.5346770024694996" fill="#00E1FF" opacity="0.9731242377889457"/><circle cx="155" cy="750" r="2.904148897529632" fill="#00E1FF" opacity="0.5630752027394654"/><circle cx="255" cy="537" r="2.025340775029294" fill="#FF3D2E" opacity="0.3291380751155954"/><circle cx="406" cy="240" r="1.2846736975724677" fill="#F5F5F5" opacity="0.8686464728558239"/><circle cx="146" cy="155" r="1.1680101972622121" fill="#FFA800" opacity="0.6614359682886017"/><circle cx="458" cy="203" r="2.782792235801611" fill="#FF3D2E" opacity="0.646615129930016"/><circle cx="805" cy="660" r="2.3506612940404037" fill="#FFA800" opacity="0.5430775399477724"/><circle cx="215" cy="814" r="2.4033477145182136" fill="#FF3D2E" opacity="0.4933557757164452"/><circle cx="297" cy="532" r="2.5913702460834074" fill="#FF3D2E" opacity="0.3197367658965359"/><circle cx="423" cy="992" r="1.1826522474805237" fill="#FFA800" opacity="0.5228595157996927"/><circle cx="39" cy="374" r="1.4783387763784028" fill="#F5F5F5" opacity="0.6506417101252777"/><circle cx="81" cy="467" r="2.095491990664776" fill="#FFA800" opacity="0.7531158655922014"/><circle cx="500" cy="77" r="2.9069778313048857" fill="#F5F5F5" opacity="0.9918627048583863"/><circle cx="832" cy="792" r="2.7864189624937197" fill="#FFA800" opacity="0.34328499612220853"/><circle cx="458" cy="591" r="2.4207317085752766" fill="#FFA800" opacity="0.9362568366794799"/><circle cx="152" cy="490" r="1.0277694545062594" fill="#FFA800" opacity="0.46651752043029693"/><circle cx="753" cy="448" r="1.852017885591526" fill="#F5F5F5" opacity="0.736719937241376"/><circle cx="551" cy="608" r="2.5145770448568" fill="#F5F5F5" opacity="0.757147286595222"/><circle cx="882" cy="738" r="1.4362024101147597" fill="#FF3D2E" opacity="0.8033822620279991"/><circle cx="775" cy="99" r="1.7211166719493756" fill="#F5F5F5" opacity="0.9519576215760146"/><circle cx="452" cy="360" r="2.5788559261737154" fill="#FFA800" opacity="0.5772102716851404"/><circle cx="475" cy="350" r="1.7698717811572853" fill="#FF3D2E" opacity="0.8679201511787036"/><circle cx="272" cy="792" r="2.713786372438713" fill="#FFA800" opacity="0.6308320016478932"/><circle cx="573" cy="490" r="1.6245753200965454" fill="#00E1FF" opacity="0.39117480477282557"/><circle cx="198" cy="75" r="2.4736784459384222" fill="#FFA800" opacity="0.6270910119192085"/><circle cx="312" cy="372" r="2.051872657511122" fill="#FFA800" opacity="0.9991341761707755"/><circle cx="687" cy="478" r="2.0468677125376202" fill="#F5F5F5" opacity="0.5523762864213345"/><circle cx="37" cy="561" r="1.5278183024726684" fill="#FFA800" opacity="0.867354766602922"/><circle cx="0" cy="73" r="2.5988594788919506" fill="#F5F5F5" opacity="0.6558799337257646"/><circle cx="624" cy="596" r="1.1998062889886392" fill="#FFA800" opacity="0.7021521034457108"/><circle cx="17" cy="895" r="2.777270565499869" fill="#FFA800" opacity="0.46576777123939717"/><circle cx="677" cy="185" r="1.3531021574469895" fill="#F5F5F5" opacity="0.9956903619645505"/><circle cx="289" cy="678" r="2.0747938383538274" fill="#00E1FF" opacity="0.47035313281808366"/><circle cx="151" cy="412" r="0.7424953408635933" fill="#FFA800" opacity="0.8751310394921863"/><circle cx="916" cy="32" r="1.5282190280309793" fill="#00E1FF" opacity="0.8999362978419432"/><circle cx="721" cy="427" r="0.6479562674733004" fill="#F5F5F5" opacity="0.4718604830096374"/><circle cx="739" cy="638" r="2.3323578372640776" fill="#FFA800" opacity="0.7373050942124455"/><circle cx="465" cy="73" r="1.6469087197239984" fill="#F5F5F5" opacity="0.7711253616981828"/><circle cx="672" cy="29" r="2.8212397924921406" fill="#F5F5F5" opacity="0.7647328983320498"/><circle cx="837" cy="715" r="1.7704499463630299" fill="#FF3D2E" opacity="0.6187918404978638"/><circle cx="336" cy="204" r="0.9887063247287299" fill="#00E1FF" opacity="0.9658783450127091"/><circle cx="557" cy="783" r="1.1180597766252183" fill="#00E1FF" opacity="0.992137282782978"/><circle cx="880" cy="597" r="2.9285162997458434" fill="#00E1FF" opacity="0.6375814199094803"/><circle cx="658" cy="853" r="0.8030068960651888" fill="#00E1FF" opacity="0.47264017995439467"/><circle cx="10" cy="466" r="0.7500284984984075" fill="#FF3D2E" opacity="0.8862082533192273"/><circle cx="40" cy="520" r="0.8580441088198622" fill="#FFA800" opacity="0.7239269913146029"/><circle cx="595" cy="465" r="2.974336944086701" fill="#F5F5F5" opacity="0.46009654955011453"/><circle cx="417" cy="439" r="2.195318436110813" fill="#FFA800" opacity="0.6795291545132336"/><circle cx="669" cy="253" r="0.5611844440413761" fill="#FF3D2E" opacity="0.8250337948015876"/><circle cx="30" cy="559" r="1.2605119858250213" fill="#FFA800" opacity="0.5877680573113535"/><circle cx="513" cy="414" r="2.2836628481462298" fill="#FF3D2E" opacity="0.8421472052713661"/><circle cx="868" cy="606" r="2.164252857482472" fill="#FFA800" opacity="0.5542140580493545"/><circle cx="148" cy="600" r="2.205675443264207" fill="#FFA800" opacity="0.46884188657910414"/><circle cx="732" cy="249" r="1.9603501758294002" fill="#00E1FF" opacity="0.8697649514788264"/><circle cx="328" cy="645" r="0.8998031767308957" fill="#FFA800" opacity="0.9009407845122444"/><circle cx="584" cy="773" r="2.208704231539544" fill="#F5F5F5" opacity="0.8199574838841088"/><circle cx="113" cy="861" r="1.5892297873935415" fill="#F5F5F5" opacity="0.37662730133915867"/><circle cx="404" cy="120" r="2.637045752818278" fill="#FFA800" opacity="0.5579890313967321"/><circle cx="991" cy="450" r="1.1988381701505846" fill="#F5F5F5" opacity="0.8768491737011097"/><circle cx="18" cy="609" r="2.03448582345783" fill="#FFA800" opacity="0.9758898924466897"/><circle cx="368" cy="138" r="2.0459480545952387" fill="#FFA800" opacity="0.6272888275994714"/><circle cx="503" cy="715" r="2.9403154270509466" fill="#FFA800" opacity="0.6039734046697647"/><circle cx="452" cy="555" r="0.8095569862433389" fill="#F5F5F5" opacity="0.38874083934593157"/><circle cx="476" cy="83" r="2.2999323701101555" fill="#FF3D2E" opacity="0.6142662030368866"/><circle cx="163" cy="756" r="2.042021471277038" fill="#00E1FF" opacity="0.5961618321390296"/><circle cx="280" cy="881" r="0.9039730308433326" fill="#FF3D2E" opacity="0.7678214340909243"/><circle cx="872" cy="592" r="2.865852513606839" fill="#FF3D2E" opacity="0.5974688927069953"/><circle cx="790" cy="363" r="1.3562331659867155" fill="#F5F5F5" opacity="0.4951023302019234"/><circle cx="517" cy="405" r="2.3652455099112015" fill="#FF3D2E" opacity="0.8948710340851469"/><circle cx="977" cy="514" r="2.5025148113999847" fill="#FFA800" opacity="0.9354861985068823"/><circle cx="208" cy="12" r="1.9915167339279827" fill="#F5F5F5" opacity="0.6761855773273533"/><circle cx="792" cy="893" r="1.4403363780048213" fill="#00E1FF" opacity="0.4306850650659285"/><circle cx="92" cy="295" r="0.9987077217344055" fill="#FFA800" opacity="0.599733925908492"/><circle cx="430" cy="472" r="0.7407828140114793" fill="#00E1FF" opacity="0.7232422503454846"/><circle cx="374" cy="740" r="1.2658316717604725" fill="#F5F5F5" opacity="0.8478068041496967"/><circle cx="520" cy="17" r="2.2848900605486273" fill="#FF3D2E" opacity="0.5936483147198397"/><circle cx="263" cy="436" r="2.8429840094725507" fill="#F5F5F5" opacity="0.9855664239085502"/><circle cx="229" cy="425" r="1.889749897928595" fill="#FF3D2E" opacity="0.5716410513145116"/><circle cx="334" cy="11" r="0.885753643613021" fill="#00E1FF" opacity="0.6536471228066566"/><circle cx="236" cy="956" r="2.0365223096328915" fill="#00E1FF" opacity="0.35529524786526645"/><circle cx="415" cy="903" r="1.811445249150801" fill="#FFA800" opacity="0.6278672780690043"/><circle cx="229" cy="366" r="2.212778443851524" fill="#FFA800" opacity="0.8097272372176942"/><circle cx="325" cy="354" r="0.6101633936427265" fill="#FFA800" opacity="0.7748974509499106"/><circle cx="944" cy="964" r="2.19316550073869" fill="#FF3D2E" opacity="0.9714811840242059"/><circle cx="61" cy="843" r="2.9220079557405643" fill="#FFA800" opacity="0.43266763233436445"/><circle cx="844" cy="729" r="2.1210117273782605" fill="#FF3D2E" opacity="0.4737850760816529"/><circle cx="588" cy="477" r="1.4222059540138539" fill="#F5F5F5" opacity="0.9762494815005631"/><circle cx="15" cy="546" r="1.1312563449883246" fill="#00E1FF" opacity="0.3544383218688324"/><circle cx="286" cy="0" r="0.8833071679301803" fill="#00E1FF" opacity="0.9399128658439257"/><circle cx="996" cy="352" r="2.4344718418643203" fill="#00E1FF" opacity="0.6421090560720257"/><circle cx="666" cy="934" r="2.569628411570022" fill="#F5F5F5" opacity="0.32821344934713176"/><circle cx="881" cy="429" r="0.7172284126331175" fill="#00E1FF" opacity="0.5845979644949085"/><circle cx="964" cy="268" r="0.6224749518381424" fill="#FFA800" opacity="0.45776356670112217"/><circle cx="738" cy="328" r="2.354150690139483" fill="#F5F5F5" opacity="0.6265909335527586"/><circle cx="158" cy="927" r="2.49236930576221" fill="#FFA800" opacity="0.3347827276661564"/><circle cx="97" cy="231" r="0.6904386843659911" fill="#FF3D2E" opacity="0.6800675041440187"/><circle cx="465" cy="676" r="1.6347164751204164" fill="#00E1FF" opacity="0.71506618286618"/><circle cx="906" cy="563" r="0.5754825770083745" fill="#FFA800" opacity="0.574640968570753"/><circle cx="798" cy="117" r="2.2919079645228404" fill="#00E1FF" opacity="0.6926715831817314"/><circle cx="556" cy="457" r="2.4787583336482277" fill="#F5F5F5" opacity="0.6424339337008692"/><circle cx="629" cy="330" r="2.311789064814974" fill="#FFA800" opacity="0.8304267949968724"/><circle cx="520" cy="625" r="2.4146427156448906" fill="#FFA800" opacity="0.8058874247674421"/><circle cx="390" cy="136" r="1.3224416024859282" fill="#F5F5F5" opacity="0.9792399627955808"/><circle cx="574" cy="433" r="2.723399780955554" fill="#FF3D2E" opacity="0.8718944514829663"/><circle cx="391" cy="500" r="0.7989458975777881" fill="#FF3D2E" opacity="0.8153447116577777"/><circle cx="260" cy="822" r="2.0766075826719432" fill="#FF3D2E" opacity="0.9798746505604017"/><circle cx="75" cy="206" r="2.6330881092745866" fill="#00E1FF" opacity="0.8681801040216441"/><circle cx="812" cy="286" r="2.3754262554153267" fill="#FF3D2E" opacity="0.4065505830732178"/><circle cx="219" cy="781" r="1.7589926838873078" fill="#F5F5F5" opacity="0.4761927984671487"/><circle cx="315" cy="80" r="0.784502610430859" fill="#FF3D2E" opacity="0.6351789354018356"/><circle cx="247" cy="620" r="0.8154136262937762" fill="#FFA800" opacity="0.9114538809775725"/><circle cx="917" cy="943" r="1.5941041768909454" fill="#00E1FF" opacity="0.957296433695882"/><circle cx="415" cy="247" r="2.3203002020479246" fill="#00E1FF" opacity="0.4169935132621759"/><circle cx="747" cy="794" r="1.6916113062813372" fill="#FFA800" opacity="0.3348949931172547"/><circle cx="615" cy="332" r="0.8214958038905924" fill="#FFA800" opacity="0.8185190311193011"/><circle cx="460" cy="342" r="2.7081943605666963" fill="#FF3D2E" opacity="0.6167354407793566"/><circle cx="672" cy="782" r="2.132172990906246" fill="#00E1FF" opacity="0.8199713063174547"/><circle cx="200" cy="341" r="2.720502355634133" fill="#FFA800" opacity="0.9336135846157176"/><circle cx="323" cy="37" r="1.6989638599001629" fill="#FF3D2E" opacity="0.8939614997729968"/><circle cx="867" cy="316" r="1.529319436828335" fill="#00E1FF" opacity="0.7788190780236826"/><circle cx="313" cy="612" r="1.517090572196353" fill="#FFA800" opacity="0.7755565877683105"/><circle cx="560" cy="640" r="2.8884775850734377" fill="#FFA800" opacity="0.42319054698391745"/><circle cx="736" cy="376" r="1.657885094434215" fill="#FFA800" opacity="0.9233813205600652"/><circle cx="766" cy="880" r="2.3281053361485315" fill="#F5F5F5" opacity="0.7963006514746007"/><circle cx="173" cy="881" r="0.8139111186692245" fill="#F5F5F5" opacity="0.8401160952263627"/><circle cx="884" cy="61" r="2.617542686459917" fill="#FF3D2E" opacity="0.4581613991346893"/><circle cx="633" cy="64" r="2.693664705993037" fill="#FF3D2E" opacity="0.5297145969782169"/><circle cx="454" cy="320" r="0.826649850300641" fill="#FF3D2E" opacity="0.7305059864979166"/><circle cx="902" cy="367" r="2.0818101483448244" fill="#FF3D2E" opacity="0.3809391515948372"/><circle cx="394" cy="455" r="2.702309351603391" fill="#FFA800" opacity="0.4337897532344468"/><circle cx="337" cy="359" r="0.9930735288286175" fill="#FF3D2E" opacity="0.47760513734004095"/><circle cx="851" cy="828" r="1.323577448825178" fill="#FFA800" opacity="0.5952325073590006"/><circle cx="484" cy="243" r="2.290746733242123" fill="#FFA800" opacity="0.8027976805892314"/><circle cx="723" cy="386" r="1.0013718928633193" fill="#00E1FF" opacity="0.8199167854634326"/><circle cx="21" cy="883" r="2.413057607900427" fill="#F5F5F5" opacity="0.7400437515598552"/><circle cx="380" cy="748" r="0.5811686629435537" fill="#FF3D2E" opacity="0.5330070305059246"/><circle cx="62" cy="901" r="1.3006089096909368" fill="#FFA800" opacity="0.6057097122615634"/><circle cx="423" cy="325" r="2.0722991878009784" fill="#FFA800" opacity="0.8568706411339697"/><circle cx="797" cy="661" r="1.1272727687527406" fill="#00E1FF" opacity="0.7912375762067103"/><circle cx="960" cy="66" r="0.9215773378741006" fill="#F5F5F5" opacity="0.5457515935239255"/><circle cx="954" cy="491" r="0.9193504565716383" fill="#F5F5F5" opacity="0.8886103639060188"/><circle cx="590" cy="732" r="1.128495343216009" fill="#FF3D2E" opacity="0.8098596728357521"/><circle cx="883" cy="319" r="1.900639187335192" fill="#00E1FF" opacity="0.4714234869061567"/><circle cx="702" cy="335" r="2.364884897261207" fill="#FFA800" opacity="0.7652830504499767"/><circle cx="543" cy="770" r="2.672113824888794" fill="#F5F5F5" opacity="0.4224040924118155"/><circle cx="620" cy="536" r="2.4542789082423537" fill="#00E1FF" opacity="0.6141579831348436"/><circle cx="571" cy="854" r="1.4686020525831802" fill="#FF3D2E" opacity="0.7906121819073663"/><circle cx="518" cy="285" r="2.9871972798301947" fill="#00E1FF" opacity="0.4399998222058075"/><circle cx="5" cy="223" r="0.5648153561005538" fill="#00E1FF" opacity="0.36427439357105645"/><circle cx="916" cy="271" r="2.86126165628993" fill="#00E1FF" opacity="0.9952814783194157"/><circle cx="968" cy="514" r="1.919558493710401" fill="#F5F5F5" opacity="0.7788833579334264"/><circle cx="2" cy="192" r="2.759485971476402" fill="#00E1FF" opacity="0.9460284356165953"/><circle cx="871" cy="313" r="1.21229719507055" fill="#F5F5F5" opacity="0.320173154782564"/><circle cx="95" cy="495" r="1.7905177132554946" fill="#FFA800" opacity="0.4213702501598129"/><circle cx="102" cy="563" r="2.738185127723375" fill="#00E1FF" opacity="0.4650910082351604"/><circle cx="525" cy="263" r="0.9563876749847884" fill="#00E1FF" opacity="0.5076488516936031"/><circle cx="854" cy="103" r="2.1263897422786737" fill="#FFA800" opacity="0.6113365386247691"/><circle cx="489" cy="85" r="1.438765714756018" fill="#FF3D2E" opacity="0.4527637835777639"/>
  </svg>