<svg xmlns="http://www.w3.org/2000/svg" viewBox="0 0 2000 100">
    <rect width="2000" height="100" fill="#050505"/>
    <path d="M 0 50 L 21.387420417215843 59.01777631230911 L 129.21345137298914 71.63144461604247 L 242.12875438888213 78.94898085476339 L 356.97121284966454 79.17879694923477 L 470.10687527530126 72.26462590441348 L 578.3196733817535 59.8992979322171 L 679.5988277612146 45.11027657612884 L 773.6311568095235 31.518430049270453 L 861.8777545054551 22.451516413636433 L 947.2162636472807 20.129432346897904 L 1033.2363285344516 25.120705014105493 L 1123.3607248498702 36.20329678960689 L 1220.0073447992413 50.66380268785867 L 1323.9972127721771 64.96178653719457 L 1434.3534699373927 75.59660323167752 L 1548.5405433537474 79.96447874229935 L 1663.0849426574348 76.99600480907581 L 1774.425691645253 67.41796738000781 L 1879.7861794425362 53.575404063464575 L 1977.8539716829614 38.85745713560918" fill="none" stroke="#00E1FF" stroke-width="2"/>
    <circle cx="0" cy="50" r="3" fill="#FF3D2E"/><circle cx="100" cy="50" r="3" fill="#FF3D2E"/><circle cx="200" cy="50" r="3" fill="#FF3D2E"/><circle cx="300" cy="50" r="3" fill="#FF3D2E"/><circle cx="400" cy="50" r="3" fill="#FF3D2E"/><circle cx="500" cy="50" r="3" fill="#FF3D2E"/><circle cx="600" cy="50" r="3" fill="#FF3D2E"/><circle cx="700" cy="50" r="3" fill="#FF3D2E"/><circle cx="800" cy="50" r="3" fill="#FF3D2E"/><circle cx="900" cy="50" r="3" fill="#FF3D2E"/><circle cx="1000" cy="50" r="3" fill="#FF3D2E"/><circle cx="1100" cy="50" r="3" fill="#FF3D2E"/><circle cx="1200" cy="50" r="3" fill="#FF3D2E"/><circle cx="1300" cy="50" r="3" fill="#FF3D2E"/><circle cx="1400" cy="50" r="3" fill="#FF3D2E"/><circle cx="1500" cy="50" r="3" fill="#FF3D2E"/><circle cx="1600" cy="50" r="3" fill="#FF3D2E"/><circle cx="1700" cy="50" r="3" fill="#FF3D2E"/><circle cx="1800" cy="50" r="3" fill="#FF3D2E"/><circle cx="1900" cy="50" r="3" fill="#FF3D2E"/><circle cx="2000" cy="50" r="3" fill="#FF3D2E"/>
  </svg>