<svg xmlns="http://www.w3.org/2000/svg" viewBox="0 0 1000 1000"><rect width="1000" height="1000" fill="#050505"/><circle cx="650" cy="500" r="33.333333333333336" fill="#00E1FF" opacity="0.7"/><rect x="694.6227278133199" y="519.4432012485355" width="60" height="60" fill="#FFA800" opacity="0.7" transform="rotate(15 724.6227278133199 549.4432012485355)"/><polygon points="781.3483800979966,590.165621483682 816.3483800979966,650.165621483682 746.3483800979966,650.165621483682" fill="#FFA800" opacity="0.7"/><line x1="569.4139598558465" y1="590.7761322790648" x2="669.4139598558465" y2="590.7761322790648" stroke="#00E1FF" stroke-width="4" opacity="0.8"/><circle cx="648.8988454998204" cy="675.2972726793564" r="33.333333333333336" fill="#00E1FF" opacity="0.7"/><rect x="615.206616616935" y="743.8887337782671" width="60" height="60" fill="#FF3D2E" opacity="0.7" transform="rotate(75 645.206616616935 773.8887337782671)"/><polygon points="540.1292507793831,604.5324988778834 575.1292507793831,664.5324988778834 505.12925077938314,664.5324988778834" fill="#00E1FF" opacity="0.7"/><line x1="462.45194897464603" y1="729.6626851857585" x2="562.451948974646" y2="729.6626851857585" stroke="#FF3D2E" stroke-width="4" opacity="0.8"/><circle cx="449.8475810686429" cy="805.9162219878731" r="33.333333333333336" fill="#00E1FF" opacity="0.7"/><rect x="414.4792766990128" y="609.3465079725187" width="60" height="60" fill="#00E1FF" opacity="0.7" transform="rotate(135 444.4792766990128 639.3465079725187)"/><polygon points="370.9269749666521,650.3684695760849 405.9269749666521,710.3684695760849 335.9269749666521,710.3684695760849" fill="#FFA800" opacity="0.7"/><line x1="224.94139750382953" y1="713.1868322445613" x2="324.94139750382953" y2="713.1868322445613" stroke="#FF3D2E" stroke-width="4" opacity="0.8"/><circle cx="371.47142357486166" cy="577.3330785765534" r="33.333333333333336" fill="#00E1FF" opacity="0.7"/><rect x="252.03977062795548" y="543.4393519312755" width="60" height="60" fill="#00E1FF" opacity="0.7" transform="rotate(195 282.0397706279555 573.4393519312755)"/><polygon points="191.81723328214855,493.51689571142197 226.81723328214855,553.516895711422 156.81723328214855,553.516895711422" fill="#FFA800" opacity="0.7"/><line x1="300.87930642684603" y1="483.7821472364087" x2="400.87930642684603" y2="483.7821472364087" stroke="#FFA800" stroke-width="4" opacity="0.8"/><circle cx="282.0397706279555" cy="426.5606480687246" r="33.333333333333336" fill="#FF3D2E" opacity="0.7"/><rect x="204.3742753880473" y="310.17830427512337" width="60" height="60" fill="#FFA800" opacity="0.7" transform="rotate(255 234.3742753880473 340.17830427512337)"/><polygon points="391.1006762115304,356.84508117198646 426.1006762115304,416.84508117198646 356.1006762115304,416.84508117198646" fill="#00E1FF" opacity="0.7"/><line x1="320.92697496665204" y1="309.6315304239152" x2="420.92697496665204" y2="309.6315304239152" stroke="#FF3D2E" stroke-width="4" opacity="0.8"/><circle cx="385.2571718446265" cy="212.01721685679468" r="33.333333333333336" fill="#FF3D2E" opacity="0.7"/><rect x="445.7327005170853" y="321.9760216187711" width="60" height="60" fill="#FF3D2E" opacity="0.7" transform="rotate(315 475.7327005170853 351.9760216187711)"/><polygon points="512.4519489746458,230.3373148142415 547.4519489746458,290.3373148142415 477.4519489746458,290.3373148142415" fill="#FFA800" opacity="0.7"/><line x1="532.9337849440585" y1="201.29950231904093" x2="632.9337849440585" y2="201.29950231904093" stroke="#FF3D2E" stroke-width="4" opacity="0.8"/><circle cx="570.2612661049684" cy="367.4731933330965" r="33.333333333333336" fill="#FF3D2E" opacity="0.7"/><rect x="618.8988454998203" y="294.70272732064353" width="60" height="60" fill="#FF3D2E" opacity="0.7" transform="rotate(375 648.8988454998203 324.70272732064353)"/><polygon points="746.7888503687494,272.3959932899327 781.7888503687494,332.3959932899327 711.7888503687494,332.3959932899327" fill="#FF3D2E" opacity="0.7"/><line x1="586.1363129506435" y1="437.01663476596025" x2="686.1363129506435" y2="437.01663476596025" stroke="#00E1FF" stroke-width="4" opacity="0.8"/><circle cx="724.6227278133199" cy="450.5567987514644" r="33.333333333333336" fill="#00E1FF" opacity="0.7"/><circle cx="500" cy="500" r="80" fill="#F5F5F5" opacity="0.9"/><circle cx="500" cy="500" r="40" fill="#050505"/></svg>