<svg xmlns="http://www.w3.org/2000/svg" viewBox="0 0 1000 1000"><rect width="1000" height="1000" fill="#050505"/><line x1="237" y1="189" x2="140" y2="183" stroke="#00E1FF" stroke-width="0.5" opacity="0.5140730507576268"/><line x1="237" y1="189" x2="231" y2="104" stroke="#00E1FF" stroke-width="0.5" opacity="0.5739424921445464"/><line x1="237" y1="189" x2="256" y2="386" stroke="#00E1FF" stroke-width="0.5" opacity="0.01042938604665511"/><line x1="237" y1="189" x2="218" y2="111" stroke="#00E1FF" stroke-width="0.5" opacity="0.5985962132714739"/><line x1="237" y1="189" x2="245" y2="281" stroke="#00E1FF" stroke-width="0.5" opacity="0.5382641447753921"/><line x1="237" y1="189" x2="318" y2="293" stroke="#00E1FF" stroke-width="0.5" opacity="0.34089075260621626"/><line x1="237" y1="189" x2="298" y2="326" stroke="#00E1FF" stroke-width="0.5" opacity="0.25016668518930163"/><line x1="237" y1="189" x2="242" y2="269" stroke="#00E1FF" stroke-width="0.5" opacity="0.599219511452965"/><line x1="300" y1="704" x2="297" y2="794" stroke="#00E1FF" stroke-width="0.5" opacity="0.549750069405891"/><line x1="300" y1="704" x2="336" y2="753" stroke="#00E1FF" stroke-width="0.5" opacity="0.6959851977287947"/><line x1="300" y1="704" x2="263" y2="628" stroke="#00E1FF" stroke-width="0.5" opacity="0.5773594908199168"/><line x1="300" y1="704" x2="183" y2="784" stroke="#00E1FF" stroke-width="0.5" opacity="0.2913216526519242"/><line x1="300" y1="704" x2="204" y2="563" stroke="#00E1FF" stroke-width="0.5" opacity="0.14710786145023025"/><line x1="140" y1="183" x2="231" y2="104" stroke="#00E1FF" stroke-width="0.5" opacity="0.39746369403993587"/><line x1="140" y1="183" x2="218" y2="111" stroke="#00E1FF" stroke-width="0.5" opacity="0.469245819611376"/><line x1="140" y1="183" x2="245" y2="281" stroke="#00E1FF" stroke-width="0.5" opacity="0.28186004149608823"/><line x1="140" y1="183" x2="242" y2="269" stroke="#00E1FF" stroke-width="0.5" opacity="0.33291679679368325"/><line x1="854" y1="226" x2="752" y2="288" stroke="#00E1FF" stroke-width="0.5" opacity="0.40317506754492904"/><line x1="854" y1="226" x2="818" y2="155" stroke="#00E1FF" stroke-width="0.5" opacity="0.6019736189647726"/><line x1="854" y1="226" x2="896" y2="264" stroke="#00E1FF" stroke-width="0.5" opacity="0.7168039548298741"/><line x1="854" y1="226" x2="746" y2="380" stroke="#00E1FF" stroke-width="0.5" opacity="0.059521398435881556"/><line x1="878" y1="868" x2="814" y2="738" stroke="#00E1FF" stroke-width="0.5" opacity="0.2755001725328018"/><line x1="525" y1="339" x2="491" y2="502" stroke="#00E1FF" stroke-width="0.5" opacity="0.16745870973266452"/><line x1="525" y1="339" x2="488" y2="148" stroke="#00E1FF" stroke-width="0.5" opacity="0.02724617708281396"/><line x1="525" y1="339" x2="609" y2="453" stroke="#00E1FF" stroke-width="0.5" opacity="0.29197457672764326"/><line x1="525" y1="339" x2="489" y2="511" stroke="#00E1FF" stroke-width="0.5" opacity="0.12136469454044818"/><line x1="491" y1="502" x2="609" y2="453" stroke="#00E1FF" stroke-width="0.5" opacity="0.361153383040968"/><line x1="491" y1="502" x2="489" y2="511" stroke="#00E1FF" stroke-width="0.5" opacity="0.9539022777135355"/><line x1="303" y1="412" x2="256" y2="386" stroke="#00E1FF" stroke-width="0.5" opacity="0.7314390199600843"/><line x1="303" y1="412" x2="206" y2="502" stroke="#00E1FF" stroke-width="0.5" opacity="0.33839211008332126"/><line x1="303" y1="412" x2="245" y2="281" stroke="#00E1FF" stroke-width="0.5" opacity="0.2836725609052799"/><line x1="303" y1="412" x2="318" y2="293" stroke="#00E1FF" stroke-width="0.5" opacity="0.40029173759235226"/><line x1="303" y1="412" x2="193" y2="469" stroke="#00E1FF" stroke-width="0.5" opacity="0.3805445940182618"/><line x1="303" y1="412" x2="298" y2="326" stroke="#00E1FF" stroke-width="0.5" opacity="0.5692738689143646"/><line x1="303" y1="412" x2="125" y2="501" stroke="#00E1FF" stroke-width="0.5" opacity="0.004949750012593457"/><line x1="303" y1="412" x2="204" y2="563" stroke="#00E1FF" stroke-width="0.5" opacity="0.09719880372254708"/><line x1="303" y1="412" x2="242" y2="269" stroke="#00E1FF" stroke-width="0.5" opacity="0.22266480846419934"/><line x1="297" y1="794" x2="336" y2="753" stroke="#00E1FF" stroke-width="0.5" opacity="0.7170689129840978"/><line x1="297" y1="794" x2="263" y2="628" stroke="#00E1FF" stroke-width="0.5" opacity="0.15276921680099464"/><line x1="297" y1="794" x2="183" y2="784" stroke="#00E1FF" stroke-width="0.5" opacity="0.4278112199632014"/><line x1="231" y1="104" x2="218" y2="111" stroke="#00E1FF" stroke-width="0.5" opacity="0.926175884698833"/><line x1="231" y1="104" x2="245" y2="281" stroke="#00E1FF" stroke-width="0.5" opacity="0.11223595477176473"/><line x1="231" y1="104" x2="242" y2="269" stroke="#00E1FF" stroke-width="0.5" opacity="0.17316869918948996"/><line x1="256" y1="386" x2="206" y2="502" stroke="#00E1FF" stroke-width="0.5" opacity="0.36841469301447494"/><line x1="256" y1="386" x2="245" y2="281" stroke="#00E1FF" stroke-width="0.5" opacity="0.4721269091912338"/><line x1="256" y1="386" x2="318" y2="293" stroke="#00E1FF" stroke-width="0.5" opacity="0.44113955230308166"/><line x1="256" y1="386" x2="193" y2="469" stroke="#00E1FF" stroke-width="0.5" opacity="0.47899136283550925"/><line x1="256" y1="386" x2="298" y2="326" stroke="#00E1FF" stroke-width="0.5" opacity="0.633803331527989"/><line x1="256" y1="386" x2="125" y2="501" stroke="#00E1FF" stroke-width="0.5" opacity="0.12842097317569656"/><line x1="256" y1="386" x2="204" y2="563" stroke="#00E1FF" stroke-width="0.5" opacity="0.07759824371372759"/><line x1="256" y1="386" x2="242" y2="269" stroke="#00E1FF" stroke-width="0.5" opacity="0.4108268505778627"/><line x1="336" y1="753" x2="263" y2="628" stroke="#00E1FF" stroke-width="0.5" opacity="0.2762251731373907"/><line x1="336" y1="753" x2="183" y2="784" stroke="#00E1FF" stroke-width="0.5" opacity="0.21945531838337384"/><line x1="263" y1="628" x2="206" y2="502" stroke="#00E1FF" stroke-width="0.5" opacity="0.3085341657030334"/><line x1="263" y1="628" x2="183" y2="784" stroke="#00E1FF" stroke-width="0.5" opacity="0.12341571996755507"/><line x1="263" y1="628" x2="193" y2="469" stroke="#00E1FF" stroke-width="0.5" opacity="0.1313660149407001"/><line x1="263" y1="628" x2="125" y2="501" stroke="#00E1FF" stroke-width="0.5" opacity="0.062276693261812954"/><line x1="263" y1="628" x2="204" y2="563" stroke="#00E1FF" stroke-width="0.5" opacity="0.5610808730529051"/><line x1="206" y1="502" x2="193" y2="469" stroke="#00E1FF" stroke-width="0.5" opacity="0.822658521490318"/><line x1="206" y1="502" x2="298" y2="326" stroke="#00E1FF" stroke-width="0.5" opacity="0.007024673015487259"/><line x1="206" y1="502" x2="125" y2="501" stroke="#00E1FF" stroke-width="0.5" opacity="0.5949691369784273"/><line x1="206" y1="502" x2="204" y2="563" stroke="#00E1FF" stroke-width="0.5" opacity="0.6948361096066574"/><line x1="814" y1="738" x2="735" y2="655" stroke="#00E1FF" stroke-width="0.5" opacity="0.42706893957475134"/><line x1="218" y1="111" x2="245" y2="281" stroke="#00E1FF" stroke-width="0.5" opacity="0.13934617876872224"/><line x1="218" y1="111" x2="242" y2="269" stroke="#00E1FF" stroke-width="0.5" opacity="0.2009380499610809"/><line x1="752" y1="288" x2="850" y2="428" stroke="#00E1FF" stroke-width="0.5" opacity="0.14554110689864075"/><line x1="752" y1="288" x2="818" y2="155" stroke="#00E1FF" stroke-width="0.5" opacity="0.2576220639054526"/><line x1="752" y1="288" x2="896" y2="264" stroke="#00E1FF" stroke-width="0.5" opacity="0.2700684963642138"/><line x1="752" y1="288" x2="746" y2="380" stroke="#00E1FF" stroke-width="0.5" opacity="0.5390227771353556"/><line x1="245" y1="281" x2="318" y2="293" stroke="#00E1FF" stroke-width="0.5" opacity="0.6301013652363664"/><line x1="245" y1="281" x2="193" y2="469" stroke="#00E1FF" stroke-width="0.5" opacity="0.024705172781071205"/><line x1="245" y1="281" x2="298" y2="326" stroke="#00E1FF" stroke-width="0.5" opacity="0.652365134084626"/><line x1="245" y1="281" x2="242" y2="269" stroke="#00E1FF" stroke-width="0.5" opacity="0.9381534156157351"/><line x1="586" y1="717" x2="618" y2="828" stroke="#00E1FF" stroke-width="0.5" opacity="0.4223971952976683"/><line x1="586" y1="717" x2="603" y2="847" stroke="#00E1FF" stroke-width="0.5" opacity="0.3444658666400353"/><line x1="586" y1="717" x2="671" y2="595" stroke="#00E1FF" stroke-width="0.5" opacity="0.2565452266613658"/><line x1="586" y1="717" x2="735" y2="655" stroke="#00E1FF" stroke-width="0.5" opacity="0.19307683141453924"/><line x1="756" y1="532" x2="826" y2="497" stroke="#00E1FF" stroke-width="0.5" opacity="0.6086881039375367"/><line x1="756" y1="532" x2="850" y2="428" stroke="#00E1FF" stroke-width="0.5" opacity="0.29907204364499773"/><line x1="756" y1="532" x2="609" y2="453" stroke="#00E1FF" stroke-width="0.5" opacity="0.16558403658606824"/><line x1="756" y1="532" x2="746" y2="380" stroke="#00E1FF" stroke-width="0.5" opacity="0.2383570390268155"/><line x1="756" y1="532" x2="759" y2="529" stroke="#00E1FF" stroke-width="0.5" opacity="0.9787867965644036"/><line x1="756" y1="532" x2="671" y2="595" stroke="#00E1FF" stroke-width="0.5" opacity="0.4709914934521374"/><line x1="756" y1="532" x2="735" y2="655" stroke="#00E1FF" stroke-width="0.5" opacity="0.37610096970743745"/><line x1="826" y1="497" x2="850" y2="428" stroke="#00E1FF" stroke-width="0.5" opacity="0.6347261301434224"/><line x1="826" y1="497" x2="746" y2="380" stroke="#00E1FF" stroke-width="0.5" opacity="0.2913216526519242"/><line x1="826" y1="497" x2="759" y2="529" stroke="#00E1FF" stroke-width="0.5" opacity="0.6287521043830686"/><line x1="826" y1="497" x2="671" y2="595" stroke="#00E1FF" stroke-width="0.5" opacity="0.0830894263888109"/><line x1="826" y1="497" x2="735" y2="655" stroke="#00E1FF" stroke-width="0.5" opacity="0.08833942719891641"/><line x1="318" y1="293" x2="298" y2="326" stroke="#00E1FF" stroke-width="0.5" opacity="0.8070621861842526"/><line x1="318" y1="293" x2="242" y2="269" stroke="#00E1FF" stroke-width="0.5" opacity="0.6015028230965744"/><line x1="193" y1="469" x2="298" y2="326" stroke="#00E1FF" stroke-width="0.5" opacity="0.1129543416486386"/><line x1="193" y1="469" x2="125" y2="501" stroke="#00E1FF" stroke-width="0.5" opacity="0.6242341154388813"/><line x1="193" y1="469" x2="204" y2="563" stroke="#00E1FF" stroke-width="0.5" opacity="0.5267928571967663"/><line x1="618" y1="828" x2="603" y2="847" stroke="#00E1FF" stroke-width="0.5" opacity="0.878962815630898"/><line x1="850" y1="428" x2="896" y2="264" stroke="#00E1FF" stroke-width="0.5" opacity="0.1483545338581317"/><line x1="850" y1="428" x2="746" y2="380" stroke="#00E1FF" stroke-width="0.5" opacity="0.42728715746894597"/><line x1="850" y1="428" x2="759" y2="529" stroke="#00E1FF" stroke-width="0.5" opacity="0.32025740165853955"/><line x1="298" y1="326" x2="242" y2="269" stroke="#00E1FF" stroke-width="0.5" opacity="0.6004690249805404"/><line x1="609" y1="453" x2="746" y2="380" stroke="#00E1FF" stroke-width="0.5" opacity="0.22382347368655886"/><line x1="609" y1="453" x2="759" y2="529" stroke="#00E1FF" stroke-width="0.5" opacity="0.1592265465656042"/><line x1="609" y1="453" x2="489" y2="511" stroke="#00E1FF" stroke-width="0.5" opacity="0.3335917167381547"/><line x1="609" y1="453" x2="671" y2="595" stroke="#00E1FF" stroke-width="0.5" opacity="0.22527424207013735"/><line x1="125" y1="501" x2="204" y2="563" stroke="#00E1FF" stroke-width="0.5" opacity="0.49787949653494534"/><line x1="818" y1="155" x2="896" y2="264" stroke="#00E1FF" stroke-width="0.5" opacity="0.3298321105872052"/><line x1="896" y1="264" x2="746" y2="380" stroke="#00E1FF" stroke-width="0.5" opacity="0.0518966301082987"/><line x1="746" y1="380" x2="759" y2="529" stroke="#00E1FF" stroke-width="0.5" opacity="0.2521698053702298"/><line x1="759" y1="529" x2="671" y2="595" stroke="#00E1FF" stroke-width="0.5" opacity="0.44999999999999996"/><line x1="759" y1="529" x2="735" y2="655" stroke="#00E1FF" stroke-width="0.5" opacity="0.35867325020704144"/><line x1="671" y1="595" x2="735" y2="655" stroke="#00E1FF" stroke-width="0.5" opacity="0.5613657560107739"/><circle cx="237" cy="189" r="4" fill="#00E1FF"/><circle cx="300" cy="704" r="4" fill="#00E1FF"/><circle cx="140" cy="183" r="4" fill="#00E1FF"/><circle cx="854" cy="226" r="4" fill="#00E1FF"/><circle cx="878" cy="868" r="4" fill="#00E1FF"/><circle cx="525" cy="339" r="4" fill="#00E1FF"/><circle cx="491" cy="502" r="4" fill="#00E1FF"/><circle cx="303" cy="412" r="4" fill="#00E1FF"/><circle cx="297" cy="794" r="4" fill="#00E1FF"/><circle cx="231" cy="104" r="4" fill="#00E1FF"/><circle cx="256" cy="386" r="4" fill="#00E1FF"/><circle cx="336" cy="753" r="4" fill="#00E1FF"/><circle cx="263" cy="628" r="4" fill="#00E1FF"/><circle cx="206" cy="502" r="4" fill="#00E1FF"/><circle cx="488" cy="148" r="4" fill="#00E1FF"/><circle cx="814" cy="738" r="4" fill="#00E1FF"/><circle cx="218" cy="111" r="4" fill="#00E1FF"/><circle cx="752" cy="288" r="4" fill="#00E1FF"/><circle cx="245" cy="281" r="4" fill="#00E1FF"/><circle cx="586" cy="717" r="4" fill="#00E1FF"/><circle cx="756" cy="532" r="4" fill="#00E1FF"/><circle cx="826" cy="497" r="4" fill="#00E1FF"/><circle cx="183" cy="784" r="4" fill="#00E1FF"/><circle cx="318" cy="293" r="4" fill="#00E1FF"/><circle cx="193" cy="469" r="4" fill="#00E1FF"/><circle cx="618" cy="828" r="4" fill="#00E1FF"/><circle cx="850" cy="428" r="4" fill="#00E1FF"/><circle cx="298" cy="326" r="4" fill="#00E1FF"/><circle cx="609" cy="453" r="4" fill="#00E1FF"/><circle cx="125" cy="501" r="4" fill="#00E1FF"/><circle cx="818" cy="155" r="4" fill="#00E1FF"/><circle cx="603" cy="847" r="4" fill="#00E1FF"/><circle cx="204" cy="563" r="4" fill="#00E1FF"/><circle cx="896" cy="264" r="4" fill="#00E1FF"/><circle cx="746" cy="380" r="4" fill="#00E1FF"/><circle cx="759" cy="529" r="4" fill="#00E1FF"/><circle cx="489" cy="511" r="4" fill="#00E1FF"/><circle cx="242" cy="269" r="4" fill="#00E1FF"/><circle cx="671" cy="595" r="4" fill="#00E1FF"/><circle cx="735" cy="655" r="4" fill="#00E1FF"/><circle cx="500" cy="500" r="60" fill="#FF3D2E"/><text x="500" y="520" text-anchor="middle" fill="#F5F5F5" font-size="60" font-weight="900" font-family="Arial">🧠</text></svg>