<svg xmlns="http://www.w3.org/2000/svg" viewBox="0 0 1000 1000"><rect width="1000" height="1000" fill="#050505"/><path d="M 0 500 L 0 533.0980612429669 L 20 505.27474176577084 L 40 493.58869053320774 L 60 463.4022231211631 L 80 400.9382777679476 L 100 332.50371320469003 L 120 305.21641584294457 L 140 346.1798896172452 L 160 437.24618655578763 L 180 528.6202653044137 L 200 579.284380719657 L 220 587.9222504852253 L 240 586.9830373410819 L 260 606.4709224000904 L 280 641.7587279018227 L 300 655.7439410792302 L 320 613.6961575453936 L 340 518.6412360353992 L 360 414.20495444640403 L 380 351.4135617607422 L 400 348.88372546356635 L 420 381.88160694135576 L 440 409.33517950451625 L 460 413.29031131068996 L 480 414.26732437950915 L 500 448.5809009738293 L 520 529.0774266493038 L 540 626.3152256882514 L 560 688.5970380666619 L 580 683.5478107978345 L 600 623.9511320270353 L 620 554.710718595515 L 640 513.127432272294 L 660 498.76645994347894 L 680 479.9616365362943 L 700 430.0130907356511 L 720 358.67986981427623 L 740 308.9169247045222 L 760 320.95506618371604 L 780 396.184589293352 L 800 493.91018135470324 L 820 564.2711603116453 L 840 587.7699651949936 L 860 586.063300863339 L 880 595.2210399664083 L 900 627.1168348694282 L 920 655.3076807547798 L 940 638.8905128297488 L 960 562.4740234426586 L 980 455.1422983599159 L 1000 370.21533522453984" fill="none" stroke="#FF3D2E" stroke-width="6"/><path d="M 0 500 L 0 533.0980612429669 L 20 505.27474176577084 L 40 493.58869053320774 L 60 463.4022231211631 L 80 400.9382777679476 L 100 332.50371320469003 L 120 305.21641584294457 L 140 346.1798896172452 L 160 437.24618655578763 L 180 528.6202653044137 L 200 579.284380719657 L 220 587.9222504852253 L 240 586.9830373410819 L 260 606.4709224000904 L 280 641.7587279018227 L 300 655.7439410792302 L 320 613.6961575453936 L 340 518.6412360353992 L 360 414.20495444640403 L 380 351.4135617607422 L 400 348.88372546356635 L 420 381.88160694135576 L 440 409.33517950451625 L 460 413.29031131068996 L 480 414.26732437950915 L 500 448.5809009738293 L 520 529.0774266493038 L 540 626.3152256882514 L 560 688.5970380666619 L 580 683.5478107978345 L 600 623.9511320270353 L 620 554.710718595515 L 640 513.127432272294 L 660 498.76645994347894 L 680 479.9616365362943 L 700 430.0130907356511 L 720 358.67986981427623 L 740 308.9169247045222 L 760 320.95506618371604 L 780 396.184589293352 L 800 493.91018135470324 L 820 564.2711603116453 L 840 587.7699651949936 L 860 586.063300863339 L 880 595.2210399664083 L 900 627.1168348694282 L 920 655.3076807547798 L 940 638.8905128297488 L 960 562.4740234426586 L 980 455.1422983599159 L 1000 370.21533522453984 L 1000 1000 L 0 1000 Z" fill="#FF3D2E" opacity="0.2"/><circle cx="500" cy="500" r="20" fill="#00E1FF"/></svg>