<svg xmlns="http://www.w3.org/2000/svg" viewBox="0 0 1000 1000">
    <rect width="1000" height="1000" fill="#050505"/>
    <circle cx="809" cy="276" r="2.945885077566066" fill="#FFA800" opacity="0.9956237674304531"/><circle cx="520" cy="866" r="0.8219719142878552" fill="#FFA800" opacity="0.41239738973030726"/><circle cx="763" cy="200" r="0.7237161695397394" fill="#FFA800" opacity="0.9569779664061546"/><circle cx="560" cy="798" r="0.942043671758125" fill="#FF3D2E" opacity="0.7028276137324448"/><circle cx="718" cy="240" r="2.658914012121717" fill="#00E1FF" opacity="0.8749711548856354"/><circle cx="585" cy="311" r="1.467887855452429" fill="#FF3D2E" opacity="0.4511158958662672"/><circle cx="450" cy="796" r="1.8996217305893994" fill="#F5F5F5" opacity="0.9534913850979319"/><circle cx="959" cy="784" r="1.077074139402105" fill="#F5F5F5" opacity="0.9778276010850937"/><circle cx="290" cy="629" r="1.210425567614907" fill="#FF3D2E" opacity="0.818072424342726"/><circle cx="164" cy="81" r="1.0960208223128856" fill="#FF3D2E" opacity="0.5154915223849115"/><circle cx="370" cy="225" r="1.1842708976756025" fill="#FF3D2E" opacity="0.6527027369933907"/><circle cx="903" cy="892" r="2.3960054979881473" fill="#F5F5F5" opacity="0.9589458954651144"/><circle cx="79" cy="186" r="2.3890917239843503" fill="#FF3D2E" opacity="0.908076755354827"/><circle cx="386" cy="562" r="0.9957732183232744" fill="#FFA800" opacity="0.38658770227018235"/><circle cx="58" cy="573" r="0.6013894640119334" fill="#F5F5F5" opacity="0.9816419497355806"/><circle cx="76" cy="365" r="2.4989366859918616" fill="#FFA800" opacity="0.34883953946125323"/><circle cx="759" cy="230" r="1.747948267678534" fill="#F5F5F5" opacity="0.7051245160535112"/><circle cx="314" cy="495" r="1.0041474443682588" fill="#FF3D2E" opacity="0.5019566782475937"/><circle cx="79" cy="41" r="1.6469776692216571" fill="#00E1FF" opacity="0.7981675631873303"/><circle cx="88" cy="138" r="2.252943851081435" fill="#FF3D2E" opacity="0.5435890000946179"/><circle cx="587" cy="913" r="2.5896074708768153" fill="#00E1FF" opacity="0.6388049848272703"/><circle cx="111" cy="799" r="0.9552027567699757" fill="#FF3D2E" opacity="0.614788523827025"/><circle cx="686" cy="659" r="2.742271269962956" fill="#FFA800" opacity="0.9785662994732227"/><circle cx="339" cy="123" r="1.7070727939881831" fill="#FF3D2E" opacity="0.5532276946450723"/><circle cx="589" cy="263" r="2.5572355472545993" fill="#FFA800" opacity="0.9577478935071735"/><circle cx="878" cy="538" r="1.2261521035228395" fill="#F5F5F5" opacity="0.34500600364329725"/><circle cx="597" cy="4" r="0.7547065938729282" fill="#FFA800" opacity="0.6004785167922173"/><circle cx="210" cy="251" r="1.6160880419078878" fill="#00E1FF" opacity="0.5492891361872958"/><circle cx="676" cy="355" r="2.2256090870995795" fill="#FFA800" opacity="0.7036028164902117"/><circle cx="856" cy="60" r="0.662115326056933" fill="#FFA800" opacity="0.6886546713354245"/><circle cx="90" cy="765" r="0.5650608009401077" fill="#00E1FF" opacity="0.43440857601167343"/><circle cx="771" cy="109" r="2.624750912207915" fill="#FFA800" opacity="0.6801382252957586"/><circle cx="711" cy="743" r="1.127923989680056" fill="#FFA800" opacity="0.4654780044555592"/><circle cx="621" cy="821" r="2.7115849507783993" fill="#FFA800" opacity="0.9301241874219199"/><circle cx="772" cy="872" r="2.851665769345741" fill="#F5F5F5" opacity="0.8040681624180168"/><circle cx="899" cy="529" r="0.7912940049711366" fill="#FFA800" opacity="0.6935269293889337"/><circle cx="181" cy="372" r="2.03769550429884" fill="#FF3D2E" opacity="0.6833848670442404"/><circle cx="657" cy="135" r="1.3380761362028133" fill="#FFA800" opacity="0.548589578187793"/><circle cx="231" cy="515" r="1.7729150771431186" fill="#FF3D2E" opacity="0.633799181860264"/><circle cx="708" cy="184" r="1.6076465010310133" fill="#F5F5F5" opacity="0.6736957259157644"/><circle cx="268" cy="879" r="1.5914354890441529" fill="#FFA800" opacity="0.7782971283087534"/><circle cx="408" cy="588" r="2.996838273595058" fill="#F5F5F5" opacity="0.8945922797019539"/><circle cx="103" cy="200" r="0.5968116902136862" fill="#F5F5F5" opacity="0.5029154194733849"/><circle cx="790" cy="472" r="1.0990006193847042" fill="#00E1FF" opacity="0.7989088000217146"/><circle cx="799" cy="484" r="2.9574575704880437" fill="#FFA800" opacity="0.6050542872912856"/><circle cx="622" cy="652" r="2.175441139184077" fill="#FF3D2E" opacity="0.34933015242307325"/><circle cx="542" cy="954" r="2.7501273743111794" fill="#FF3D2E" opacity="0.34996383948131016"/><circle cx="543" cy="362" r="1.4218599013291184" fill="#00E1FF" opacity="0.5763379080830435"/><circle cx="128" cy="226" r="2.1427861727390174" fill="#FF3D2E" opacity="0.9734796418220217"/><circle cx="723" cy="950" r="0.5001103552495307" fill="#FF3D2E" opacity="0.5644480993658929"/><circle cx="904" cy="977" r="1.907539115204099" fill="#00E1FF" opacity="0.93382208323244"/><circle cx="371" cy="807" r="0.9706640933650375" fill="#00E1FF" opacity="0.9378323097358403"/><circle cx="251" cy="80" r="1.1507644316988448" fill="#FFA800" opacity="0.7669532481450435"/><circle cx="61" cy="698" r="0.6134993771502163" fill="#FFA800" opacity="0.6893214928821667"/><circle cx="605" cy="263" r="2.455093164342054" fill="#00E1FF" opacity="0.45058232810385906"/><circle cx="427" cy="353" r="1.1463532022494882" fill="#FF3D2E" opacity="0.4889454240644189"/><circle cx="701" cy="497" r="2.6271783359985537" fill="#F5F5F5" opacity="0.42595015632039246"/><circle cx="113" cy="996" r="0.6889201821143244" fill="#FFA800" opacity="0.39031909928305114"/><circle cx="152" cy="537" r="1.4471219213930093" fill="#FF3D2E" opacity="0.7713029649415393"/><circle cx="674" cy="510" r="1.1464190549810804" fill="#00E1FF" opacity="0.938141192610199"/><circle cx="577" cy="11" r="1.919260801890963" fill="#FF3D2E" opacity="0.5241523122365289"/><circle cx="763" cy="405" r="2.9948320861255997" fill="#FF3D2E" opacity="0.40749569773816563"/><circle cx="720" cy="652" r="2.2236675878388352" fill="#FFA800" opacity="0.9859539701123063"/><circle cx="386" cy="572" r="1.9774201520524777" fill="#F5F5F5" opacity="0.6658495780022542"/><circle cx="325" cy="639" r="1.6951483909995941" fill="#FFA800" opacity="0.636816155098615"/><circle cx="737" cy="801" r="2.2371147130514015" fill="#F5F5F5" opacity="0.6699642283456847"/><circle cx="822" cy="604" r="0.5128031633220638" fill="#F5F5F5" opacity="0.6987546443218499"/><circle cx="789" cy="293" r="1.1893544732108514" fill="#FFA800" opacity="0.9758129321777897"/><circle cx="24" cy="998" r="2.572520607249145" fill="#F5F5F5" opacity="0.5477512874269376"/><circle cx="844" cy="896" r="1.589039541282128" fill="#F5F5F5" opacity="0.6126011068980766"/><circle cx="171" cy="497" r="1.1715604854576802" fill="#FF3D2E" opacity="0.6347674431913459"/><circle cx="145" cy="199" r="2.1140871183879897" fill="#FF3D2E" opacity="0.3575790669933947"/><circle cx="933" cy="625" r="0.9097251300618532" fill="#FF3D2E" opacity="0.3647458283839796"/><circle cx="918" cy="275" r="1.1869068508899119" fill="#00E1FF" opacity="0.9278005892250969"/><circle cx="502" cy="37" r="2.0259722125017516" fill="#00E1FF" opacity="0.6634801770490164"/><circle cx="442" cy="620" r="2.5588798044400014" fill="#F5F5F5" opacity="0.631273458505901"/><circle cx="446" cy="850" r="0.8413535759333669" fill="#FFA800" opacity="0.5878072495994302"/><circle cx="460" cy="559" r="2.741107858451033" fill="#FFA800" opacity="0.6772116686529759"/><circle cx="823" cy="480" r="2.7660983373538492" fill="#FFA800" opacity="0.8050574745069412"/><circle cx="942" cy="1" r="2.916772849918095" fill="#00E1FF" opacity="0.5544483393218966"/><circle cx="609" cy="659" r="2.2004584115273613" fill="#FFA800" opacity="0.9907718355873496"/><circle cx="580" cy="155" r="1.768593429910419" fill="#00E1FF" opacity="0.5837460955761502"/><circle cx="78" cy="914" r="1.0717527160329454" fill="#F5F5F5" opacity="0.3963872093438377"/><circle cx="884" cy="677" r="0.8833289168032261" fill="#FFA800" opacity="0.5256916786132285"/><circle cx="766" cy="193" r="2.6199893274025734" fill="#00E1FF" opacity="0.5100473648120633"/><circle cx="364" cy="35" r="1.9314606125002238" fill="#FF3D2E" opacity="0.32001512039654334"/><circle cx="279" cy="759" r="1.7245836768880896" fill="#F5F5F5" opacity="0.9635105517669784"/><circle cx="902" cy="610" r="2.8440410321636063" fill="#FFA800" opacity="0.678787978266169"/><circle cx="120" cy="321" r="1.5425824373413701" fill="#FFA800" opacity="0.43136400708866596"/><circle cx="383" cy="661" r="2.108529519136731" fill="#FFA800" opacity="0.6659102717065469"/><circle cx="642" cy="48" r="1.1073986251116952" fill="#FFA800" opacity="0.8376177553746349"/><circle cx="41" cy="129" r="1.43095882416797" fill="#00E1FF" opacity="0.866443136144851"/><circle cx="79" cy="795" r="2.474169041493125" fill="#F5F5F5" opacity="0.5992576393914992"/><circle cx="734" cy="754" r="1.8636618743085083" fill="#FFA800" opacity="0.7238537817429053"/><circle cx="711" cy="587" r="2.0781976305823333" fill="#00E1FF" opacity="0.5668551014202048"/><circle cx="638" cy="444" r="1.1292610082035532" fill="#F5F5F5" opacity="0.659456169499165"/><circle cx="35" cy="571" r="1.3076944300911433" fill="#F5F5F5" opacity="0.8336292298098942"/><circle cx="886" cy="77" r="1.685600618283524" fill="#FF3D2E" opacity="0.3153700510589111"/><circle cx="381" cy="180" r="1.2013806796441764" fill="#F5F5F5" opacity="0.6860826869309541"/><circle cx="326" cy="368" r="2.076109729468672" fill="#F5F5F5" opacity="0.3556586773255602"/><circle cx="988" cy="965" r="1.8593979186275496" fill="#FF3D2E" opacity="0.36888596656610667"/><circle cx="111" cy="338" r="1.516875545975389" fill="#00E1FF" opacity="0.49667820424866604"/><circle cx="688" cy="439" r="1.7951878515127513" fill="#FFA800" opacity="0.32799561452845444"/><circle cx="120" cy="910" r="2.6118030510831565" fill="#FFA800" opacity="0.9880045166297089"/><circle cx="809" cy="406" r="2.6832637404948763" fill="#FFA800" opacity="0.469907052509377"/><circle cx="910" cy="691" r="2.026119641141665" fill="#FF3D2E" opacity="0.9020008704297251"/><circle cx="378" cy="672" r="0.754688811078172" fill="#00E1FF" opacity="0.7686628610360429"/><circle cx="307" cy="333" r="0.7131030127803951" fill="#00E1FF" opacity="0.5366471785219509"/><circle cx="274" cy="979" r="2.7228647388717397" fill="#00E1FF" opacity="0.7285867406900255"/><circle cx="796" cy="119" r="1.5953589217834443" fill="#FF3D2E" opacity="0.8506978274444101"/><circle cx="238" cy="933" r="2.84843615864339" fill="#FF3D2E" opacity="0.6761297243243976"/><circle cx="257" cy="593" r="2.4980615627344607" fill="#00E1FF" opacity="0.31673371925315646"/><circle cx="898" cy="0" r="1.8284124226367444" fill="#FFA800" opacity="0.6217868826224402"/><circle cx="330" cy="256" r="2.596461583364953" fill="#FFA800" opacity="0.5573527682618646"/><circle cx="331" cy="107" r="1.1629055885945223" fill="#FFA800" opacity="0.4205889673080705"/><circle cx="787" cy="889" r="2.200386857205081" fill="#FF3D2E" opacity="0.6871724999293207"/><circle cx="355" cy="994" r="1.6500334184102623" fill="#00E1FF" opacity="0.8406668424353152"/><circle cx="993" cy="916" r="2.4061904675191816" fill="#F5F5F5" opacity="0.5187991732395948"/><circle cx="640" cy="530" r="2.788601042741494" fill="#00E1FF" opacity="0.33932804002004124"/><circle cx="314" cy="70" r="1.4040579551518912" fill="#FF3D2E" opacity="0.49481329261776086"/><circle cx="988" cy="83" r="0.8568979501277081" fill="#FF3D2E" opacity="0.8532887758076426"/><circle cx="681" cy="795" r="2.190872843488208" fill="#00E1FF" opacity="0.38916184037356916"/><circle cx="470" cy="720" r="1.63277277336286" fill="#00E1FF" opacity="0.4597839160134058"/><circle cx="688" cy="887" r="1.7555205304097428" fill="#FFA800" opacity="0.6133214780699596"/><circle cx="209" cy="884" r="1.3569000665121185" fill="#FFA800" opacity="0.929262389806075"/><circle cx="953" cy="287" r="0.7742939089365443" fill="#FF3D2E" opacity="0.5043909736729262"/><circle cx="792" cy="135" r="1.6491512107735846" fill="#F5F5F5" opacity="0.49239217028010107"/><circle cx="164" cy="303" r="1.4798347995210714" fill="#00E1FF" opacity="0.5599784610217815"/><circle cx="657" cy="410" r="1.9658022940019984" fill="#00E1FF" opacity="0.43397478950378177"/><circle cx="275" cy="107" r="1.141000899913386" fill="#00E1FF" opacity="0.6788167751734405"/><circle cx="395" cy="907" r="1.837753242775264" fill="#FFA800" opacity="0.8086085443009989"/><circle cx="655" cy="321" r="2.675436070436141" fill="#FF3D2E" opacity="0.5289668247114608"/><circle cx="345" cy="534" r="1.0500787219963947" fill="#F5F5F5" opacity="0.30893060968501684"/><circle cx="788" cy="362" r="1.2305466753533818" fill="#F5F5F5" opacity="0.48802365389083036"/><circle cx="942" cy="429" r="2.2231208636317916" fill="#FF3D2E" opacity="0.8764999635324797"/><circle cx="273" cy="220" r="1.7730894457450004" fill="#F5F5F5" opacity="0.7129255040547462"/><circle cx="461" cy="537" r="1.6622889440666766" fill="#F5F5F5" opacity="0.5713450657981987"/><circle cx="540" cy="309" r="1.1829954690178874" fill="#F5F5F5" opacity="0.5218390018002018"/><circle cx="430" cy="931" r="1.8385942685842571" fill="#FF3D2E" opacity="0.5109423919964324"/><circle cx="653" cy="39" r="1.3584704932501692" fill="#F5F5F5" opacity="0.7282777561899602"/><circle cx="41" cy="363" r="1.9346011789316149" fill="#FFA800" opacity="0.9455878804420479"/><circle cx="738" cy="637" r="2.467890513815952" fill="#FFA800" opacity="0.8988156311836091"/><circle cx="127" cy="513" r="2.394640738503077" fill="#00E1FF" opacity="0.8219379267519993"/><circle cx="717" cy="298" r="2.8975172810483887" fill="#FF3D2E" opacity="0.32895993808904883"/><circle cx="902" cy="401" r="1.1482379909957336" fill="#F5F5F5" opacity="0.4011373012862467"/><circle cx="875" cy="708" r="1.807069008133328" fill="#F5F5F5" opacity="0.8256215653171879"/><circle cx="259" cy="786" r="1.3694168390025032" fill="#FF3D2E" opacity="0.509950582585817"/><circle cx="557" cy="141" r="1.980884623290017" fill="#F5F5F5" opacity="0.7197752031434909"/><circle cx="17" cy="440" r="1.8867193922940413" fill="#00E1FF" opacity="0.4067400146974032"/><circle cx="405" cy="302" r="1.639679065612646" fill="#FFA800" opacity="0.5816638480060996"/><circle cx="759" cy="750" r="2.081970643708592" fill="#F5F5F5" opacity="0.9657767262149519"/><circle cx="449" cy="100" r="2.890289490718331" fill="#00E1FF" opacity="0.7709591189724985"/><circle cx="59" cy="553" r="0.8557987964874387" fill="#00E1FF" opacity="0.6373658487373457"/><circle cx="694" cy="754" r="1.3068192401196328" fill="#F5F5F5" opacity="0.9293271044313456"/><circle cx="863" cy="21" r="1.310007316091318" fill="#F5F5F5" opacity="0.8542438642698789"/><circle cx="336" cy="398" r="0.5176892265113332" fill="#FF3D2E" opacity="0.4148730455881883"/><circle cx="67" cy="424" r="2.6847249965539675" fill="#FFA800" opacity="0.35996088074902693"/><circle cx="646" cy="202" r="1.6355253707414277" fill="#00E1FF" opacity="0.995383329713956"/><circle cx="217" cy="570" r="2.458333976852702" fill="#00E1FF" opacity="0.7563694893655444"/><circle cx="839" cy="159" r="0.9846828612952964" fill="#FF3D2E" opacity="0.7833567513603483"/><circle cx="270" cy="381" r="0.8317725721058001" fill="#FFA800" opacity="0.719325513875553"/><circle cx="128" cy="629" r="1.0910959063653247" fill="#F5F5F5" opacity="0.9996452061384355"/><circle cx="370" cy="79" r="0.6903475375895919" fill="#F5F5F5" opacity="0.8835520018422567"/><circle cx="80" cy="183" r="1.0751079326321717" fill="#FFA800" opacity="0.8916410918348432"/><circle cx="64" cy="803" r="1.6270534045932652" fill="#FFA800" opacity="0.7043939972020337"/><circle cx="341" cy="892" r="2.782093570400115" fill="#00E1FF" opacity="0.8028587115096188"/><circle cx="97" cy="610" r="1.0637051874277392" fill="#F5F5F5" opacity="0.5048926710279787"/><circle cx="609" cy="540" r="2.798241847669647" fill="#F5F5F5" opacity="0.663822972040091"/><circle cx="56" cy="115" r="2.8929556912658208" fill="#00E1FF" opacity="0.36177839441839266"/><circle cx="553" cy="90" r="0.7196557969470986" fill="#00E1FF" opacity="0.7564385231129672"/><circle cx="714" cy="975" r="1.7813245649075111" fill="#FF3D2E" opacity="0.32615718281281936"/><circle cx="561" cy="653" r="1.0372453108157271" fill="#FF3D2E" opacity="0.4839201190904212"/><circle cx="779" cy="843" r="1.4520955209847974" fill="#F5F5F5" opacity="0.5282569597738129"/><circle cx="101" cy="246" r="2.8324778025574022" fill="#F5F5F5" opacity="0.960835806305522"/><circle cx="767" cy="403" r="2.620714330609469" fill="#FF3D2E" opacity="0.8359157382825442"/><circle cx="456" cy="194" r="1.593374838468697" fill="#FF3D2E" opacity="0.3510832235985399"/><circle cx="633" cy="322" r="1.0676787468208628" fill="#F5F5F5" opacity="0.6167149112190674"/><circle cx="696" cy="62" r="1.6878692406683662" fill="#FFA800" opacity="0.49853802882314624"/><circle cx="715" cy="471" r="1.1528996086184824" fill="#FFA800" opacity="0.6728070728117719"/><circle cx="720" cy="193" r="0.8268369014823447" fill="#00E1FF" opacity="0.49520889197609824"/><circle cx="469" cy="755" r="0.5730448201967254" fill="#FFA800" opacity="0.8029406531909871"/><circle cx="260" cy="332" r="2.660661158484026" fill="#FF3D2E" opacity="0.6571919552222558"/><circle cx="853" cy="278" r="1.5345077378094873" fill="#FF3D2E" opacity="0.897571894246519"/><circle cx="354" cy="404" r="1.994769347287157" fill="#FFA800" opacity="0.30169161466889327"/><circle cx="944" cy="460" r="0.9886802170999088" fill="#F5F5F5" opacity="0.3189008716338332"/><circle cx="957" cy="233" r="1.05430589970014" fill="#F5F5F5" opacity="0.7808846204819492"/><circle cx="489" cy="99" r="2.483706857920689" fill="#FF3D2E" opacity="0.6957583493455965"/><circle cx="527" cy="703" r="2.9764191529090827" fill="#F5F5F5" opacity="0.4791318822113408"/><circle cx="766" cy="411" r="1.192869699223209" fill="#FFA800" opacity="0.7227056523797628"/><circle cx="52" cy="440" r="2.4436558275342697" fill="#FFA800" opacity="0.3087419067940435"/><circle cx="892" cy="711" r="2.2951214007838883" fill="#FF3D2E" opacity="0.9685990296150411"/><circle cx="575" cy="363" r="2.9276900931453884" fill="#F5F5F5" opacity="0.8693697502444664"/><circle cx="760" cy="649" r="2.9866687067036897" fill="#00E1FF" opacity="0.349471630957153"/><circle cx="396" cy="626" r="0.9403826315779297" fill="#F5F5F5" opacity="0.6181923391892463"/><circle cx="924" cy="99" r="1.7838484239449572" fill="#FFA800" opacity="0.4547594508283529"/><circle cx="672" cy="203" r="2.2789590896714964" fill="#FFA800" opacity="0.8258474834117691"/><circle cx="116" cy="699" r="1.1853604046351158" fill="#FF3D2E" opacity="0.4568415612956327"/><circle cx="35" cy="173" r="2.3349843092551996" fill="#FFA800" opacity="0.30319089453732057"/><circle cx="773" cy="389" r="0.6672794570854641" fill="#FFA800" opacity="0.9871526185070747"/><circle cx="436" cy="585" r="0.8119857793710323" fill="#FFA800" opacity="0.6057417283230104"/>
  </svg>