<svg xmlns="http://www.w3.org/2000/svg" viewBox="0 0 2000 100">
    <rect width="2000" height="100" fill="#050505"/>
    <path d="M 0 50 L 28.83379023288824 71.2600932287378 L 141.61753505403223 78.80510859951099 L 256.45359964263446 79.2976287718407 L 369.70959796156365 72.61706763029915 L 478.1399993032422 60.399059535050775 L 579.6807473987014 45.634998985741596 L 673.9546133787047 31.93964291945529 L 762.3635545572527 22.666092143459693 L 847.7454663861457 20.084835314108645 L 933.6793666733189 24.827854127706427 L 1023.6091272008499 35.73389216012022 L 1120.0002938034788 50.132770939641524 L 1223.736434759347 64.49914276259018 L 1333.902812459987 75.31561876197476 L 1448.010343079464 79.93394837535742 L 1562.6050111047991 77.22340344350589 L 1674.1135327965487 67.84761989929676 L 1779.7182206708462 54.10211654623501 L 1878.0468516657404 39.35227199633885 L 1969.5086352047135 27.20936261423536" fill="none" stroke="#00E1FF" stroke-width="2"/>
    <circle cx="0" cy="50" r="3" fill="#FF3D2E"/><circle cx="100" cy="50" r="3" fill="#FF3D2E"/><circle cx="200" cy="50" r="3" fill="#FF3D2E"/><circle cx="300" cy="50" r="3" fill="#FF3D2E"/><circle cx="400" cy="50" r="3" fill="#FF3D2E"/><circle cx="500" cy="50" r="3" fill="#FF3D2E"/><circle cx="600" cy="50" r="3" fill="#FF3D2E"/><circle cx="700" cy="50" r="3" fill="#FF3D2E"/><circle cx="800" cy="50" r="3" fill="#FF3D2E"/><circle cx="900" cy="50" r="3" fill="#FF3D2E"/><circle cx="1000" cy="50" r="3" fill="#FF3D2E"/><circle cx="1100" cy="50" r="3" fill="#FF3D2E"/><circle cx="1200" cy="50" r="3" fill="#FF3D2E"/><circle cx="1300" cy="50" r="3" fill="#FF3D2E"/><circle cx="1400" cy="50" r="3" fill="#FF3D2E"/><circle cx="1500" cy="50" r="3" fill="#FF3D2E"/><circle cx="1600" cy="50" r="3" fill="#FF3D2E"/><circle cx="1700" cy="50" r="3" fill="#FF3D2E"/><circle cx="1800" cy="50" r="3" fill="#FF3D2E"/><circle cx="1900" cy="50" r="3" fill="#FF3D2E"/><circle cx="2000" cy="50" r="3" fill="#FF3D2E"/>
  </svg>