<svg xmlns="http://www.w3.org/2000/svg" viewBox="0 0 1000 600"><rect width="1000" height="600" fill="#050505"/><line x1="200" y1="300" x2="300" y2="250" stroke="#FF3D2E" stroke-width="0.5" opacity="0.5"/><line x1="200" y1="300" x2="180" y2="450" stroke="#FF3D2E" stroke-width="0.5" opacity="0.5"/><line x1="300" y1="250" x2="450" y2="200" stroke="#FF3D2E" stroke-width="0.5" opacity="0.5"/><line x1="300" y1="250" x2="250" y2="150" stroke="#FF3D2E" stroke-width="0.5" opacity="0.5"/><line x1="400" y1="400" x2="700" y2="450" stroke="#FF3D2E" stroke-width="0.5" opacity="0.5"/><line x1="400" y1="400" x2="350" y2="500" stroke="#FF3D2E" stroke-width="0.5" opacity="0.5"/><line x1="400" y1="400" x2="550" y2="500" stroke="#FF3D2E" stroke-width="0.5" opacity="0.5"/><line x1="400" y1="400" x2="650" y2="250" stroke="#FF3D2E" stroke-width="0.5" opacity="0.5"/><line x1="400" y1="400" x2="750" y2="300" stroke="#FF3D2E" stroke-width="0.5" opacity="0.5"/><line x1="400" y1="400" x2="550" y2="150" stroke="#FF3D2E" stroke-width="0.5" opacity="0.5"/><line x1="400" y1="400" x2="820" y2="450" stroke="#FF3D2E" stroke-width="0.5" opacity="0.5"/><line x1="500" y1="350" x2="700" y2="450" stroke="#FF3D2E" stroke-width="0.5" opacity="0.5"/><line x1="500" y1="350" x2="550" y2="150" stroke="#FF3D2E" stroke-width="0.5" opacity="0.5"/><line x1="500" y1="350" x2="180" y2="450" stroke="#FF3D2E" stroke-width="0.5" opacity="0.5"/><line x1="600" y1="300" x2="700" y2="450" stroke="#FF3D2E" stroke-width="0.5" opacity="0.5"/><line x1="600" y1="300" x2="350" y2="500" stroke="#FF3D2E" stroke-width="0.5" opacity="0.5"/><line x1="600" y1="300" x2="450" y2="200" stroke="#FF3D2E" stroke-width="0.5" opacity="0.5"/><line x1="600" y1="300" x2="650" y2="250" stroke="#FF3D2E" stroke-width="0.5" opacity="0.5"/><line x1="700" y1="450" x2="350" y2="500" stroke="#FF3D2E" stroke-width="0.5" opacity="0.5"/><line x1="700" y1="450" x2="550" y2="500" stroke="#FF3D2E" stroke-width="0.5" opacity="0.5"/><line x1="800" y1="200" x2="450" y2="200" stroke="#FF3D2E" stroke-width="0.5" opacity="0.5"/><line x1="800" y1="200" x2="650" y2="250" stroke="#FF3D2E" stroke-width="0.5" opacity="0.5"/><line x1="800" y1="200" x2="450" y2="150" stroke="#FF3D2E" stroke-width="0.5" opacity="0.5"/><line x1="150" y1="400" x2="450" y2="200" stroke="#FF3D2E" stroke-width="0.5" opacity="0.5"/><line x1="150" y1="400" x2="650" y2="250" stroke="#FF3D2E" stroke-width="0.5" opacity="0.5"/><line x1="150" y1="400" x2="820" y2="450" stroke="#FF3D2E" stroke-width="0.5" opacity="0.5"/><line x1="450" y1="200" x2="750" y2="300" stroke="#FF3D2E" stroke-width="0.5" opacity="0.5"/><line x1="450" y1="200" x2="450" y2="150" stroke="#FF3D2E" stroke-width="0.5" opacity="0.5"/><line x1="550" y1="500" x2="250" y2="150" stroke="#FF3D2E" stroke-width="0.5" opacity="0.5"/><line x1="550" y1="500" x2="180" y2="450" stroke="#FF3D2E" stroke-width="0.5" opacity="0.5"/><line x1="650" y1="250" x2="750" y2="300" stroke="#FF3D2E" stroke-width="0.5" opacity="0.5"/><line x1="650" y1="250" x2="180" y2="450" stroke="#FF3D2E" stroke-width="0.5" opacity="0.5"/><line x1="750" y1="300" x2="450" y2="150" stroke="#FF3D2E" stroke-width="0.5" opacity="0.5"/><line x1="750" y1="300" x2="180" y2="450" stroke="#FF3D2E" stroke-width="0.5" opacity="0.5"/><line x1="750" y1="300" x2="820" y2="450" stroke="#FF3D2E" stroke-width="0.5" opacity="0.5"/><line x1="450" y1="150" x2="550" y2="150" stroke="#FF3D2E" stroke-width="0.5" opacity="0.5"/><line x1="550" y1="150" x2="180" y2="450" stroke="#FF3D2E" stroke-width="0.5" opacity="0.5"/><circle cx="200" cy="300" r="5" fill="#00E1FF"/><circle cx="300" cy="250" r="5" fill="#00E1FF"/><circle cx="400" cy="400" r="5" fill="#00E1FF"/><circle cx="500" cy="350" r="5" fill="#00E1FF"/><circle cx="600" cy="300" r="5" fill="#00E1FF"/><circle cx="700" cy="450" r="5" fill="#00E1FF"/><circle cx="800" cy="200" r="5" fill="#00E1FF"/><circle cx="150" cy="400" r="5" fill="#00E1FF"/><circle cx="350" cy="500" r="5" fill="#00E1FF"/><circle cx="450" cy="200" r="5" fill="#00E1FF"/><circle cx="550" cy="500" r="5" fill="#00E1FF"/><circle cx="650" cy="250" r="5" fill="#00E1FF"/><circle cx="750" cy="300" r="5" fill="#00E1FF"/><circle cx="250" cy="150" r="5" fill="#00E1FF"/><circle cx="450" cy="150" r="5" fill="#00E1FF"/><circle cx="550" cy="150" r="5" fill="#00E1FF"/><circle cx="180" cy="450" r="5" fill="#00E1FF"/><circle cx="820" cy="450" r="5" fill="#00E1FF"/><text x="500" y="50" text-anchor="middle" font-size="24" fill="#F5F5F5" font-weight="900" font-family="Arial">GLOBAL DATA</text></svg>