<svg xmlns="http://www.w3.org/2000/svg" viewBox="0 0 1000 1000"><rect width="1000" height="1000" fill="#050505"/><circle cx="650" cy="500" r="33.333333333333336" fill="#00E1FF" opacity="0.7"/><rect x="694.2334198018194" y="521.1798148099523" width="60" height="60" fill="#00E1FF" opacity="0.7" transform="rotate(15 724.2334198018194 551.1798148099523)"/><polygon points="779.3003490497499,594.5039591264431 814.3003490497499,654.5039591264431 744.3003490497499,654.5039591264431" fill="#00E1FF" opacity="0.7"/><line x1="567.2747223702045" y1="593.52347027881" x2="667.2747223702045" y2="593.52347027881" stroke="#FF3D2E" stroke-width="4" opacity="0.8"/><circle cx="643.4026544275088" cy="679.8212409676469" r="33.333333333333336" fill="#FF3D2E" opacity="0.7"/><rect x="604.5039591264431" y="749.3003490497499" width="60" height="60" fill="#FFA800" opacity="0.7" transform="rotate(75 634.5039591264431 779.3003490497499)"/><polygon points="533.3781400934472,606.2391868272736 568.3781400934472,666.2391868272736 498.3781400934472,666.2391868272736" fill="#00E1FF" opacity="0.7"/><line x1="450" y1="730" x2="550" y2="730" stroke="#FF3D2E" stroke-width="4" opacity="0.8"/><circle cx="431.01851047354256" cy="802.2276527763654" r="33.333333333333336" fill="#FFA800" opacity="0.7"/><rect x="404.9174391323663" y="605.1453301853628" width="60" height="60" fill="#FFA800" opacity="0.7" transform="rotate(135 434.9174391323663 635.1453301853628)"/><polygon points="356.5973455724913,639.8212409676469 391.5973455724913,699.8212409676469 321.5973455724913,699.8212409676469" fill="#FF3D2E" opacity="0.7"/><line x1="207.63224043491078" y1="693.2818385762074" x2="307.6322404349108" y2="693.2818385762074" stroke="#00E1FF" stroke-width="4" opacity="0.8"/><circle cx="364.85466981463713" cy="565.0825608676337" r="33.333333333333336" fill="#00E1FF" opacity="0.7"/><rect x="245.76658019818058" y="521.1798148099523" width="60" height="60" fill="#FF3D2E" opacity="0.7" transform="rotate(195 275.7665801981806 551.1798148099523)"/><polygon points="190,460.00000000000006 225,520 155,520" fill="#00E1FF" opacity="0.7"/><line x1="303.76081317272644" y1="466.62185990655286" x2="403.76081317272644" y2="466.62185990655286" stroke="#FF3D2E" stroke-width="4" opacity="0.8"/><circle cx="292.7771603824436" cy="400.2067400029616" r="33.333333333333336" fill="#00E1FF" opacity="0.7"/><rect x="227.63224043491067" y="276.71816142379276" width="60" height="60" fill="#FFA800" opacity="0.7" transform="rotate(255 257.63224043491067 306.71816142379276)"/><polygon points="406.47652972118993,342.7252776297955 441.47652972118993,402.7252776297955 371.47652972118993,402.7252776297955" fill="#FFA800" opacity="0.7"/><line x1="350.2067400029616" y1="292.77716038244364" x2="450.2067400029616" y2="292.77716038244364" stroke="#FF3D2E" stroke-width="4" opacity="0.8"/><circle cx="431.0185104735425" cy="197.77234722363465" r="33.333333333333336" fill="#00E1FF" opacity="0.7"/><rect x="470" y="320" width="60" height="60" fill="#FF3D2E" opacity="0.7" transform="rotate(315 500 350)"/><polygon points="551.1798148099523,235.76658019818058 586.1798148099523,295.7665801981806 516.1798148099523,295.7665801981806" fill="#FFA800" opacity="0.7"/><line x1="584.503959126443" y1="220.69965095025003" x2="684.503959126443" y2="220.69965095025003" stroke="#FFA800" stroke-width="4" opacity="0.8"/><circle cx="593.52347027881" cy="382.7252776297955" r="33.333333333333336" fill="#00E1FF" opacity="0.7"/><rect x="649.8212409676469" y="326.59734557249124" width="60" height="60" fill="#00E1FF" opacity="0.7" transform="rotate(375 679.8212409676469 356.59734557249124)"/><polygon points="779.3003490497499,325.4960408735569 814.3003490497499,385.4960408735569 744.3003490497499,385.4960408735569" fill="#FF3D2E" opacity="0.7"/><line x1="596.2391868272736" y1="466.6218599065528" x2="696.2391868272736" y2="466.6218599065528" stroke="#FF3D2E" stroke-width="4" opacity="0.8"/><circle cx="500" cy="500" r="80" fill="#F5F5F5" opacity="0.9"/><circle cx="500" cy="500" r="40" fill="#050505"/></svg>