<svg xmlns="http://www.w3.org/2000/svg" viewBox="0 0 1000 1000"><rect width="1000" height="1000" fill="#050505"/><line x1="494" y1="305" x2="620" y2="161" stroke="#00E1FF" stroke-width="0.5" opacity="0.04328687685388144"/><line x1="494" y1="305" x2="355" y2="325" stroke="#00E1FF" stroke-width="0.5" opacity="0.2978426102361381"/><line x1="494" y1="305" x2="608" y2="144" stroke="#00E1FF" stroke-width="0.5" opacity="0.013630393817814501"/><line x1="494" y1="305" x2="531" y2="489" stroke="#00E1FF" stroke-width="0.5" opacity="0.06158378104382711"/><line x1="494" y1="305" x2="432" y2="313" stroke="#00E1FF" stroke-width="0.5" opacity="0.6874300078382444"/><line x1="494" y1="305" x2="467" y2="205" stroke="#00E1FF" stroke-width="0.5" opacity="0.4820955686615531"/><line x1="494" y1="305" x2="599" y2="387" stroke="#00E1FF" stroke-width="0.5" opacity="0.3338731352062132"/><line x1="494" y1="305" x2="551" y2="369" stroke="#00E1FF" stroke-width="0.5" opacity="0.5714851227786835"/><line x1="309" y1="877" x2="325" y2="889" stroke="#00E1FF" stroke-width="0.5" opacity="0.9"/><line x1="309" y1="877" x2="373" y2="852" stroke="#00E1FF" stroke-width="0.5" opacity="0.6564523322739624"/><line x1="309" y1="877" x2="463" y2="788" stroke="#00E1FF" stroke-width="0.5" opacity="0.11066035734371993"/><line x1="309" y1="877" x2="327" y2="790" stroke="#00E1FF" stroke-width="0.5" opacity="0.5557872131511746"/><line x1="309" y1="877" x2="338" y2="846" stroke="#00E1FF" stroke-width="0.5" opacity="0.7877501472320888"/><line x1="309" y1="877" x2="247" y2="832" stroke="#00E1FF" stroke-width="0.5" opacity="0.6169530054941039"/><line x1="309" y1="877" x2="191" y2="880" stroke="#00E1FF" stroke-width="0.5" opacity="0.4098093528358824"/><line x1="309" y1="877" x2="224" y2="878" stroke="#00E1FF" stroke-width="0.5" opacity="0.5749705892529318"/><line x1="839" y1="332" x2="856" y2="229" stroke="#00E1FF" stroke-width="0.5" opacity="0.4780325680657843"/><line x1="839" y1="332" x2="688" y2="402" stroke="#00E1FF" stroke-width="0.5" opacity="0.16781913023670147"/><line x1="839" y1="332" x2="709" y2="301" stroke="#00E1FF" stroke-width="0.5" opacity="0.3317747385798707"/><line x1="852" y1="632" x2="842" y2="696" stroke="#00E1FF" stroke-width="0.5" opacity="0.676117305185967"/><line x1="852" y1="632" x2="770" y2="771" stroke="#00E1FF" stroke-width="0.5" opacity="0.19307683141453924"/><line x1="365" y1="590" x2="299" y2="490" stroke="#00E1FF" stroke-width="0.5" opacity="0.40091736796999367"/><line x1="365" y1="590" x2="523" y2="546" stroke="#00E1FF" stroke-width="0.5" opacity="0.17993902665716388"/><line x1="365" y1="590" x2="531" y2="489" stroke="#00E1FF" stroke-width="0.5" opacity="0.028441972911550706"/><line x1="365" y1="590" x2="266" y2="507" stroke="#00E1FF" stroke-width="0.5" opacity="0.35405108561125365"/><line x1="365" y1="590" x2="260" y2="602" stroke="#00E1FF" stroke-width="0.5" opacity="0.471582551385744"/><line x1="365" y1="590" x2="242" y2="535" stroke="#00E1FF" stroke-width="0.5" opacity="0.32631609786191274"/><line x1="365" y1="590" x2="498" y2="694" stroke="#00E1FF" stroke-width="0.5" opacity="0.1558288088308154"/><line x1="299" y1="490" x2="355" y2="325" stroke="#00E1FF" stroke-width="0.5" opacity="0.12877959160726737"/><line x1="299" y1="490" x2="266" y2="507" stroke="#00E1FF" stroke-width="0.5" opacity="0.8143928880672942"/><line x1="299" y1="490" x2="265" y2="388" stroke="#00E1FF" stroke-width="0.5" opacity="0.46241279777137545"/><line x1="299" y1="490" x2="260" y2="602" stroke="#00E1FF" stroke-width="0.5" opacity="0.40702023643297924"/><line x1="299" y1="490" x2="242" y2="535" stroke="#00E1FF" stroke-width="0.5" opacity="0.6368884468926939"/><line x1="620" y1="161" x2="780" y2="115" stroke="#00E1FF" stroke-width="0.5" opacity="0.16759384913372966"/><line x1="620" y1="161" x2="608" y2="144" stroke="#00E1FF" stroke-width="0.5" opacity="0.895956739766576"/><line x1="620" y1="161" x2="467" y2="205" stroke="#00E1FF" stroke-width="0.5" opacity="0.2039943467537434"/><line x1="620" y1="161" x2="635" y2="131" stroke="#00E1FF" stroke-width="0.5" opacity="0.8322949016875157"/><line x1="620" y1="161" x2="709" y2="301" stroke="#00E1FF" stroke-width="0.5" opacity="0.17052727591559713"/><line x1="842" y1="696" x2="770" y2="771" stroke="#00E1FF" stroke-width="0.5" opacity="0.4801682964650963"/><line x1="842" y1="696" x2="648" y2="648" stroke="#00E1FF" stroke-width="0.5" opacity="0.0007502814611354269"/><line x1="770" y1="771" x2="648" y2="648" stroke="#00E1FF" stroke-width="0.5" opacity="0.1337869777012125"/><line x1="780" y1="115" x2="608" y2="144" stroke="#00E1FF" stroke-width="0.5" opacity="0.12786182287437964"/><line x1="780" y1="115" x2="856" y2="229" stroke="#00E1FF" stroke-width="0.5" opacity="0.314945257661842"/><line x1="780" y1="115" x2="635" y2="131" stroke="#00E1FF" stroke-width="0.5" opacity="0.2705995612833785"/><line x1="780" y1="115" x2="709" y2="301" stroke="#00E1FF" stroke-width="0.5" opacity="0.004547841430839972"/><line x1="523" y1="546" x2="531" y2="489" stroke="#00E1FF" stroke-width="0.5" opacity="0.7122066713768368"/><line x1="523" y1="546" x2="648" y2="648" stroke="#00E1FF" stroke-width="0.5" opacity="0.19332472456384298"/><line x1="523" y1="546" x2="635" y2="538" stroke="#00E1FF" stroke-width="0.5" opacity="0.43857324609527193"/><line x1="523" y1="546" x2="599" y2="387" stroke="#00E1FF" stroke-width="0.5" opacity="0.11885018299950834"/><line x1="523" y1="546" x2="551" y2="369" stroke="#00E1FF" stroke-width="0.5" opacity="0.1039949776926471"/><line x1="523" y1="546" x2="498" y2="694" stroke="#00E1FF" stroke-width="0.5" opacity="0.2495168223071219"/><line x1="325" y1="889" x2="373" y2="852" stroke="#00E1FF" stroke-width="0.5" opacity="0.6969735985099648"/><line x1="325" y1="889" x2="463" y2="788" stroke="#00E1FF" stroke-width="0.5" opacity="0.14494152246761505"/><line x1="325" y1="889" x2="327" y2="790" stroke="#00E1FF" stroke-width="0.5" opacity="0.504899000202989"/><line x1="325" y1="889" x2="338" y2="846" stroke="#00E1FF" stroke-width="0.5" opacity="0.775389225547838"/><line x1="325" y1="889" x2="247" y2="832" stroke="#00E1FF" stroke-width="0.5" opacity="0.5169627343568615"/><line x1="325" y1="889" x2="191" y2="880" stroke="#00E1FF" stroke-width="0.5" opacity="0.3284905063962238"/><line x1="325" y1="889" x2="224" y2="878" stroke="#00E1FF" stroke-width="0.5" opacity="0.4920137797144494"/><line x1="355" y1="325" x2="432" y2="313" stroke="#00E1FF" stroke-width="0.5" opacity="0.6103527236076197"/><line x1="355" y1="325" x2="331" y2="134" stroke="#00E1FF" stroke-width="0.5" opacity="0.03749025978954368"/><line x1="355" y1="325" x2="467" y2="205" stroke="#00E1FF" stroke-width="0.5" opacity="0.1792686188526723"/><line x1="355" y1="325" x2="265" y2="388" stroke="#00E1FF" stroke-width="0.5" opacity="0.45070499729198343"/><line x1="608" y1="144" x2="467" y2="205" stroke="#00E1FF" stroke-width="0.5" opacity="0.23185287867492477"/><line x1="608" y1="144" x2="635" y2="131" stroke="#00E1FF" stroke-width="0.5" opacity="0.850166759362283"/><line x1="608" y1="144" x2="709" y2="301" stroke="#00E1FF" stroke-width="0.5" opacity="0.0665922648702767"/><line x1="531" y1="489" x2="648" y2="648" stroke="#00E1FF" stroke-width="0.5" opacity="0.01295896741827407"/><line x1="531" y1="489" x2="688" y2="402" stroke="#00E1FF" stroke-width="0.5" opacity="0.1025313375944541"/><line x1="531" y1="489" x2="635" y2="538" stroke="#00E1FF" stroke-width="0.5" opacity="0.42517393935208536"/><line x1="531" y1="489" x2="599" y2="387" stroke="#00E1FF" stroke-width="0.5" opacity="0.38705628317112184"/><line x1="531" y1="489" x2="551" y2="369" stroke="#00E1FF" stroke-width="0.5" opacity="0.3917237469701781"/><line x1="373" y1="852" x2="463" y2="788" stroke="#00E1FF" stroke-width="0.5" opacity="0.44782249230885907"/><line x1="373" y1="852" x2="327" y2="790" stroke="#00E1FF" stroke-width="0.5" opacity="0.6139948186876243"/><line x1="373" y1="852" x2="338" y2="846" stroke="#00E1FF" stroke-width="0.5" opacity="0.8224471909543529"/><line x1="373" y1="852" x2="247" y2="832" stroke="#00E1FF" stroke-width="0.5" opacity="0.36211286264731746"/><line x1="373" y1="852" x2="191" y2="880" stroke="#00E1FF" stroke-width="0.5" opacity="0.07929374934238664"/><line x1="373" y1="852" x2="224" y2="878" stroke="#00E1FF" stroke-width="0.5" opacity="0.24374276862961508"/><line x1="373" y1="852" x2="509" y2="787" stroke="#00E1FF" stroke-width="0.5" opacity="0.24632566714793835"/><line x1="373" y1="852" x2="546" y2="881" stroke="#00E1FF" stroke-width="0.5" opacity="0.12293101753624869"/><line x1="463" y1="788" x2="327" y2="790" stroke="#00E1FF" stroke-width="0.5" opacity="0.31992647456322787"/><line x1="463" y1="788" x2="338" y2="846" stroke="#00E1FF" stroke-width="0.5" opacity="0.310997097248495"/><line x1="463" y1="788" x2="509" y2="787" stroke="#00E1FF" stroke-width="0.5" opacity="0.7699456585934532"/><line x1="463" y1="788" x2="546" y2="881" stroke="#00E1FF" stroke-width="0.5" opacity="0.37674242884662845"/><line x1="463" y1="788" x2="498" y2="694" stroke="#00E1FF" stroke-width="0.5" opacity="0.49847731855877153"/><line x1="432" y1="313" x2="467" y2="205" stroke="#00E1FF" stroke-width="0.5" opacity="0.43235134105681183"/><line x1="432" y1="313" x2="265" y2="388" stroke="#00E1FF" stroke-width="0.5" opacity="0.08465853366079823"/><line x1="432" y1="313" x2="599" y2="387" stroke="#00E1FF" stroke-width="0.5" opacity="0.0866955600677286"/><line x1="432" y1="313" x2="551" y2="369" stroke="#00E1FF" stroke-width="0.5" opacity="0.34240970201804233"/><line x1="327" y1="790" x2="338" y2="846" stroke="#00E1FF" stroke-width="0.5" opacity="0.7146493385323944"/><line x1="327" y1="790" x2="247" y2="832" stroke="#00E1FF" stroke-width="0.5" opacity="0.5482257200769393"/><line x1="327" y1="790" x2="191" y2="880" stroke="#00E1FF" stroke-width="0.5" opacity="0.1845859947241526"/><line x1="327" y1="790" x2="224" y2="878" stroke="#00E1FF" stroke-width="0.5" opacity="0.3226337770452382"/><line x1="327" y1="790" x2="260" y2="602" stroke="#00E1FF" stroke-width="0.5" opacity="0.002089683388331709"/><line x1="327" y1="790" x2="509" y2="787" stroke="#00E1FF" stroke-width="0.5" opacity="0.08987638202274961"/><line x1="327" y1="790" x2="498" y2="694" stroke="#00E1FF" stroke-width="0.5" opacity="0.019477180275746964"/><line x1="331" y1="134" x2="467" y2="205" stroke="#00E1FF" stroke-width="0.5" opacity="0.23291134801771451"/><line x1="856" y1="229" x2="709" y2="301" stroke="#00E1FF" stroke-width="0.5" opacity="0.1815716280577756"/><line x1="467" y1="205" x2="635" y2="131" stroke="#00E1FF" stroke-width="0.5" opacity="0.08212201246570916"/><line x1="467" y1="205" x2="551" y2="369" stroke="#00E1FF" stroke-width="0.5" opacity="0.0786965754975184"/><line x1="338" y1="846" x2="247" y2="832" stroke="#00E1FF" stroke-width="0.5" opacity="0.5396468746711933"/><line x1="338" y1="846" x2="191" y2="880" stroke="#00E1FF" stroke-width="0.5" opacity="0.24559626193927153"/><line x1="338" y1="846" x2="224" y2="878" stroke="#00E1FF" stroke-width="0.5" opacity="0.4079695953753726"/><line x1="338" y1="846" x2="509" y2="787" stroke="#00E1FF" stroke-width="0.5" opacity="0.09553883444340183"/><line x1="648" y1="648" x2="635" y2="538" stroke="#00E1FF" stroke-width="0.5" opacity="0.4461724094991294"/><line x1="648" y1="648" x2="509" y2="787" stroke="#00E1FF" stroke-width="0.5" opacity="0.017121574150698815"/><line x1="648" y1="648" x2="498" y2="694" stroke="#00E1FF" stroke-width="0.5" opacity="0.21552565370179255"/><line x1="266" y1="507" x2="265" y2="388" stroke="#00E1FF" stroke-width="0.5" opacity="0.4049789919675103"/><line x1="266" y1="507" x2="260" y2="602" stroke="#00E1FF" stroke-width="0.5" opacity="0.5240535744435095"/><line x1="266" y1="507" x2="242" y2="535" stroke="#00E1FF" stroke-width="0.5" opacity="0.8156091108541422"/><line x1="247" y1="832" x2="191" y2="880" stroke="#00E1FF" stroke-width="0.5" opacity="0.6312182217082845"/><line x1="247" y1="832" x2="224" y2="878" stroke="#00E1FF" stroke-width="0.5" opacity="0.7428521825875242"/><line x1="688" y1="402" x2="635" y2="538" stroke="#00E1FF" stroke-width="0.5" opacity="0.27018838047068616"/><line x1="688" y1="402" x2="709" y2="301" stroke="#00E1FF" stroke-width="0.5" opacity="0.48419965102764817"/><line x1="688" y1="402" x2="599" y2="387" stroke="#00E1FF" stroke-width="0.5" opacity="0.548724031218147"/><line x1="688" y1="402" x2="551" y2="369" stroke="#00E1FF" stroke-width="0.5" opacity="0.2954079194313919"/><line x1="265" y1="388" x2="242" y2="535" stroke="#00E1FF" stroke-width="0.5" opacity="0.2560577979439532"/><line x1="191" y1="880" x2="224" y2="878" stroke="#00E1FF" stroke-width="0.5" opacity="0.8346972474518346"/><line x1="635" y1="538" x2="599" y2="387" stroke="#00E1FF" stroke-width="0.5" opacity="0.2238395784375501"/><line x1="635" y1="538" x2="551" y2="369" stroke="#00E1FF" stroke-width="0.5" opacity="0.05637666412916653"/><line x1="260" y1="602" x2="242" y2="535" stroke="#00E1FF" stroke-width="0.5" opacity="0.653121058580951"/><line x1="635" y1="131" x2="709" y2="301" stroke="#00E1FF" stroke-width="0.5" opacity="0.07296170521385692"/><line x1="709" y1="301" x2="599" y2="387" stroke="#00E1FF" stroke-width="0.5" opacity="0.3018596129717176"/><line x1="709" y1="301" x2="551" y2="369" stroke="#00E1FF" stroke-width="0.5" opacity="0.13994186243021933"/><line x1="599" y1="387" x2="551" y2="369" stroke="#00E1FF" stroke-width="0.5" opacity="0.7436798876404741"/><line x1="509" y1="787" x2="546" y2="881" stroke="#00E1FF" stroke-width="0.5" opacity="0.49490099980300895"/><line x1="509" y1="787" x2="498" y2="694" stroke="#00E1FF" stroke-width="0.5" opacity="0.5317586092622738"/><line x1="546" y1="881" x2="498" y2="694" stroke="#00E1FF" stroke-width="0.5" opacity="0.03468916923096743"/><circle cx="494" cy="305" r="4" fill="#00E1FF"/><circle cx="309" cy="877" r="4" fill="#00E1FF"/><circle cx="839" cy="332" r="4" fill="#00E1FF"/><circle cx="852" cy="632" r="4" fill="#00E1FF"/><circle cx="365" cy="590" r="4" fill="#00E1FF"/><circle cx="299" cy="490" r="4" fill="#00E1FF"/><circle cx="620" cy="161" r="4" fill="#00E1FF"/><circle cx="842" cy="696" r="4" fill="#00E1FF"/><circle cx="770" cy="771" r="4" fill="#00E1FF"/><circle cx="780" cy="115" r="4" fill="#00E1FF"/><circle cx="523" cy="546" r="4" fill="#00E1FF"/><circle cx="325" cy="889" r="4" fill="#00E1FF"/><circle cx="355" cy="325" r="4" fill="#00E1FF"/><circle cx="608" cy="144" r="4" fill="#00E1FF"/><circle cx="531" cy="489" r="4" fill="#00E1FF"/><circle cx="373" cy="852" r="4" fill="#00E1FF"/><circle cx="463" cy="788" r="4" fill="#00E1FF"/><circle cx="432" cy="313" r="4" fill="#00E1FF"/><circle cx="327" cy="790" r="4" fill="#00E1FF"/><circle cx="331" cy="134" r="4" fill="#00E1FF"/><circle cx="856" cy="229" r="4" fill="#00E1FF"/><circle cx="467" cy="205" r="4" fill="#00E1FF"/><circle cx="338" cy="846" r="4" fill="#00E1FF"/><circle cx="648" cy="648" r="4" fill="#00E1FF"/><circle cx="266" cy="507" r="4" fill="#00E1FF"/><circle cx="247" cy="832" r="4" fill="#00E1FF"/><circle cx="688" cy="402" r="4" fill="#00E1FF"/><circle cx="265" cy="388" r="4" fill="#00E1FF"/><circle cx="191" cy="880" r="4" fill="#00E1FF"/><circle cx="224" cy="878" r="4" fill="#00E1FF"/><circle cx="635" cy="538" r="4" fill="#00E1FF"/><circle cx="260" cy="602" r="4" fill="#00E1FF"/><circle cx="635" cy="131" r="4" fill="#00E1FF"/><circle cx="709" cy="301" r="4" fill="#00E1FF"/><circle cx="242" cy="535" r="4" fill="#00E1FF"/><circle cx="599" cy="387" r="4" fill="#00E1FF"/><circle cx="509" cy="787" r="4" fill="#00E1FF"/><circle cx="551" cy="369" r="4" fill="#00E1FF"/><circle cx="546" cy="881" r="4" fill="#00E1FF"/><circle cx="498" cy="694" r="4" fill="#00E1FF"/><circle cx="500" cy="500" r="60" fill="#FF3D2E"/><text x="500" y="520" text-anchor="middle" fill="#F5F5F5" font-size="60" font-weight="900" font-family="Arial">🧠</text></svg>