<svg xmlns="http://www.w3.org/2000/svg" viewBox="0 0 1000 1000"><rect width="1000" height="1000" fill="#050505"/><path d="M 0 500 L 0 647.0730832212708 L 20 693.9652308337464 L 40 672.2945757189184 L 60 605.6280461547934 L 80 540.9964723617277 L 100 507.90632528895145 L 120 495.9346029570437 L 140 470.7603647300814 L 160 412.8754909591632 L 180 342.2543603548174 L 200 305.2381066125431 L 220 334.8633684201983 L 240 420.6457923309965 L 260 515.5743724831245 L 280 574.3036392196523 L 300 588.2240240955917 L 320 586.2120298596201 L 340 601.5017660442115 L 360 636.1747724084464 L 380 656.6982909036767 L 400 625.0163467754624 L 420 536.5674016425808 L 440 429.7970850292663 L 460 357.5803095683814 L 480 345.7584928320412 L 500 375.78371777821513 L 520 406.4158744905119 L 540 413.7913026713864 L 560 412.68414961845576 L 580 439.5200138463347 L 600 513.2963225483177 L 620 611.221620759522 L 640 682.5593974596978 L 660 689.0710954735961 L 680 635.8546484641032 L 700 564.9074245522406 L 720 517.6080692994893 L 740 500.4385453799127 L 760 484.86689757658684 L 780 440.576165358018 L 800 370.3842987800958 L 820 313.63735821249725 L 840 314.01156210516973 L 860 380.6990084853495 L 880 478.4509556985297 L 900 555.8705168861608 L 920 586.5922375096657 L 940 586.4472695899592 L 960 591.9495638357006 L 980 620.981404235836 L 1000 652.7306284286177" fill="none" stroke="#FF3D2E" stroke-width="6"/><path d="M 0 500 L 0 647.0730832212708 L 20 693.9652308337464 L 40 672.2945757189184 L 60 605.6280461547934 L 80 540.9964723617277 L 100 507.90632528895145 L 120 495.9346029570437 L 140 470.7603647300814 L 160 412.8754909591632 L 180 342.2543603548174 L 200 305.2381066125431 L 220 334.8633684201983 L 240 420.6457923309965 L 260 515.5743724831245 L 280 574.3036392196523 L 300 588.2240240955917 L 320 586.2120298596201 L 340 601.5017660442115 L 360 636.1747724084464 L 380 656.6982909036767 L 400 625.0163467754624 L 420 536.5674016425808 L 440 429.7970850292663 L 460 357.5803095683814 L 480 345.7584928320412 L 500 375.78371777821513 L 520 406.4158744905119 L 540 413.7913026713864 L 560 412.68414961845576 L 580 439.5200138463347 L 600 513.2963225483177 L 620 611.221620759522 L 640 682.5593974596978 L 660 689.0710954735961 L 680 635.8546484641032 L 700 564.9074245522406 L 720 517.6080692994893 L 740 500.4385453799127 L 760 484.86689757658684 L 780 440.576165358018 L 800 370.3842987800958 L 820 313.63735821249725 L 840 314.01156210516973 L 860 380.6990084853495 L 880 478.4509556985297 L 900 555.8705168861608 L 920 586.5922375096657 L 940 586.4472695899592 L 960 591.9495638357006 L 980 620.981404235836 L 1000 652.7306284286177 L 1000 1000 L 0 1000 Z" fill="#FF3D2E" opacity="0.2"/><circle cx="500" cy="500" r="20" fill="#00E1FF"/></svg>