<svg xmlns="http://www.w3.org/2000/svg" viewBox="0 0 1000 600">
    <rect width="1000" height="600" fill="#050505"/>
    <!-- Phone -->
    <g transform="translate(100,150)">
      <rect x="0" y="0" width="200" height="350" rx="30" fill="#3A3A3A" stroke="#00E1FF" stroke-width="3"/>
      <rect x="15" y="40" width="170" height="270" rx="5" fill="#050505"/>
      <circle cx="100" cy="335" r="8" fill="#00E1FF"/>
      <text x="100" y="180" text-anchor="middle" font-size="80">📱</text>
    </g>
    <!-- Transformation particles -->
    <circle cx="300" cy="300" r="3" fill="#FFA800"/><circle cx="310" cy="367.3176787846317" r="3" fill="#FFA800"/><circle cx="320" cy="372.74379414605454" r="3" fill="#FFA800"/><circle cx="330" cy="311.2896006447894" r="3" fill="#FFA800"/><circle cx="340" cy="239.45580037536575" r="3" fill="#FFA800"/><circle cx="350" cy="223.28605802694892" r="3" fill="#FFA800"/><circle cx="360" cy="277.64676014408593" r="3" fill="#FFA800"/><circle cx="370" cy="352.5589278975031" r="3" fill="#FFA800"/><circle cx="380" cy="379.14865972987053" r="3" fill="#FFA800"/><circle cx="390" cy="332.9694788193405" r="3" fill="#FFA800"/><circle cx="400" cy="256.4783111288504" r="3" fill="#FFA800"/><circle cx="410" cy="220.0007834759437" r="3" fill="#FFA800"/><circle cx="420" cy="257.0741665599652" r="3" fill="#FFA800"/><circle cx="430" cy="333.61336294613125" r="3" fill="#FFA800"/><circle cx="440" cy="379.24858845558964" r="3" fill="#FFA800"/><circle cx="450" cy="352.02302721256933" r="3" fill="#FFA800"/><circle cx="460" cy="276.9677346667948" r="3" fill="#FFA800"/><circle cx="470" cy="223.08820064963544" r="3" fill="#FFA800"/><circle cx="480" cy="239.9210202582659" r="3" fill="#FFA800"/><circle cx="490" cy="311.9901767730362" r="3" fill="#FFA800"/><circle cx="500" cy="373.0356200582102" r="3" fill="#FFA800"/><circle cx="510" cy="366.9324510828845" r="3" fill="#FFA800"/><circle cx="520" cy="299.2918952567677" r="3" fill="#FFA800"/><circle cx="530" cy="232.30236766598637" r="3" fill="#FFA800"/><circle cx="540" cy="227.5537310394701" r="3" fill="#FFA800"/><circle cx="550" cy="289.41185999217817" r="3" fill="#FFA800"/><circle cx="560" cy="361.00467603836825" r="3" fill="#FFA800"/><circle cx="570" cy="376.51007427236027" r="3" fill="#FFA800"/><circle cx="580" cy="321.67246306462954" r="3" fill="#FFA800"/><circle cx="590" cy="246.9092892629626" r="3" fill="#FFA800"/>
    <!-- Skills -->
    <g transform="translate(700,150)">
      <text x="0" y="50" font-size="60">💻</text>
      <text x="0" y="130" font-size="60">🎨</text>
      <text x="0" y="210" font-size="60">🎵</text>
      <text x="0" y="290" font-size="60">📚</text>
    </g>
    <text x="500" y="50" text-anchor="middle" font-size="30" fill="#F5F5F5" font-weight="700" font-family="Arial">SCREEN → SKILL</text>
  </svg>