<svg xmlns="http://www.w3.org/2000/svg" viewBox="0 0 1000 1000">
    <rect width="1000" height="1000" fill="#050505"/>
    <circle cx="315" cy="231" r="1.1055046124791104" fill="#FFA800" opacity="0.5606260494939329"/><circle cx="577" cy="748" r="2.759308634127457" fill="#00E1FF" opacity="0.5425147307347306"/><circle cx="281" cy="980" r="0.9465552039625975" fill="#FFA800" opacity="0.7234030304453819"/><circle cx="943" cy="825" r="2.613554173385237" fill="#00E1FF" opacity="0.5122249144698816"/><circle cx="146" cy="660" r="1.8880863813085793" fill="#FF3D2E" opacity="0.4546626434021078"/><circle cx="616" cy="917" r="0.52075506979069" fill="#FFA800" opacity="0.46802131324005325"/><circle cx="648" cy="40" r="0.6161389513572375" fill="#FFA800" opacity="0.9346242222627454"/><circle cx="582" cy="703" r="1.0336758769924732" fill="#FFA800" opacity="0.7056142457554092"/><circle cx="983" cy="419" r="0.625948074278765" fill="#F5F5F5" opacity="0.7900651569268848"/><circle cx="364" cy="672" r="1.726423248397262" fill="#FF3D2E" opacity="0.3189962087106012"/><circle cx="123" cy="713" r="1.92735339169764" fill="#F5F5F5" opacity="0.56831142334929"/><circle cx="322" cy="557" r="1.9974130007084745" fill="#F5F5F5" opacity="0.9401412924950507"/><circle cx="363" cy="357" r="1.4342924786768658" fill="#FF3D2E" opacity="0.6117180045969972"/><circle cx="919" cy="367" r="0.530482623654306" fill="#00E1FF" opacity="0.8048977505919261"/><circle cx="908" cy="623" r="2.8855443342051563" fill="#FF3D2E" opacity="0.8128657434081605"/><circle cx="816" cy="685" r="1.4946728075229339" fill="#FF3D2E" opacity="0.5580447913650868"/><circle cx="269" cy="989" r="1.3420094656848094" fill="#FF3D2E" opacity="0.8840060711242408"/><circle cx="540" cy="428" r="0.9562073309717096" fill="#F5F5F5" opacity="0.8597502139417059"/><circle cx="654" cy="924" r="2.1853153421341545" fill="#F5F5F5" opacity="0.30590629954799975"/><circle cx="25" cy="289" r="1.7050745540473617" fill="#FF3D2E" opacity="0.6119498220061531"/><circle cx="759" cy="269" r="2.6174616721437065" fill="#00E1FF" opacity="0.4992580834448741"/><circle cx="973" cy="765" r="1.8708629353459545" fill="#FF3D2E" opacity="0.934798192379614"/><circle cx="491" cy="610" r="0.5316840067770852" fill="#00E1FF" opacity="0.647447365747057"/><circle cx="684" cy="867" r="0.9281947356301946" fill="#FFA800" opacity="0.5549637997386692"/><circle cx="654" cy="795" r="0.6711307435063181" fill="#FF3D2E" opacity="0.3399073806761749"/><circle cx="916" cy="201" r="1.5522591169196276" fill="#F5F5F5" opacity="0.7944456581237176"/><circle cx="283" cy="390" r="0.934224017759145" fill="#F5F5F5" opacity="0.4884680630785114"/><circle cx="62" cy="226" r="0.9240885406139489" fill="#FFA800" opacity="0.8576660222318202"/><circle cx="381" cy="77" r="2.3720042121003293" fill="#F5F5F5" opacity="0.645569002494945"/><circle cx="566" cy="518" r="2.527481750495882" fill="#F5F5F5" opacity="0.9020215375419087"/><circle cx="255" cy="767" r="2.1332269119588503" fill="#FFA800" opacity="0.7696700748909358"/><circle cx="299" cy="189" r="1.7973344233213053" fill="#F5F5F5" opacity="0.3910611207943478"/><circle cx="471" cy="789" r="1.4087118317278469" fill="#FF3D2E" opacity="0.7211499056321945"/><circle cx="788" cy="765" r="0.8868592315854352" fill="#FFA800" opacity="0.5627153065276554"/><circle cx="470" cy="928" r="0.5849219008018126" fill="#00E1FF" opacity="0.4947915858995311"/><circle cx="135" cy="833" r="1.08603221072365" fill="#FF3D2E" opacity="0.4045380290148425"/><circle cx="115" cy="594" r="1.8166607877769247" fill="#FF3D2E" opacity="0.8700554583050701"/><circle cx="556" cy="305" r="2.2001046039829157" fill="#FF3D2E" opacity="0.854760054135296"/><circle cx="838" cy="700" r="2.228339145221626" fill="#FFA800" opacity="0.9264374995795328"/><circle cx="775" cy="904" r="1.4136004703731804" fill="#00E1FF" opacity="0.31665049442014565"/><circle cx="834" cy="213" r="2.335368080943881" fill="#F5F5F5" opacity="0.8806357498035062"/><circle cx="931" cy="785" r="1.0462688398661386" fill="#FFA800" opacity="0.5759084432552595"/><circle cx="215" cy="348" r="1.56425792323796" fill="#FF3D2E" opacity="0.5784316949286872"/><circle cx="264" cy="405" r="2.236415799189464" fill="#F5F5F5" opacity="0.7145377720041506"/><circle cx="578" cy="790" r="1.2920819699368526" fill="#FF3D2E" opacity="0.9077292473087919"/><circle cx="825" cy="386" r="1.3804014088562773" fill="#F5F5F5" opacity="0.3748444789523727"/><circle cx="372" cy="505" r="0.6749145425435888" fill="#FF3D2E" opacity="0.9089769612225411"/><circle cx="502" cy="394" r="2.6020591853609845" fill="#00E1FF" opacity="0.8382905699764993"/><circle cx="732" cy="831" r="1.5072735048978565" fill="#FF3D2E" opacity="0.30256884381469423"/><circle cx="878" cy="168" r="1.3560540113459925" fill="#00E1FF" opacity="0.6941634281947586"/><circle cx="110" cy="973" r="0.8278379940810366" fill="#FFA800" opacity="0.5201148543655439"/><circle cx="563" cy="346" r="2.628183265575743" fill="#F5F5F5" opacity="0.5690272972816812"/><circle cx="832" cy="871" r="2.494129949964825" fill="#FF3D2E" opacity="0.741806536900738"/><circle cx="726" cy="52" r="1.8982326486276682" fill="#FF3D2E" opacity="0.8613549934909404"/><circle cx="246" cy="212" r="0.7393052189564826" fill="#FFA800" opacity="0.7345462401270513"/><circle cx="104" cy="303" r="1.469622494227302" fill="#F5F5F5" opacity="0.48067260535708883"/><circle cx="793" cy="775" r="2.7882294370892566" fill="#00E1FF" opacity="0.6499604506449426"/><circle cx="371" cy="194" r="2.1541510163587185" fill="#FFA800" opacity="0.6443908694723892"/><circle cx="420" cy="124" r="1.315264628103281" fill="#F5F5F5" opacity="0.3441251389511569"/><circle cx="646" cy="772" r="2.9970330665134988" fill="#FFA800" opacity="0.7688010355329078"/><circle cx="544" cy="430" r="2.0905315517198253" fill="#FF3D2E" opacity="0.388957944340673"/><circle cx="760" cy="51" r="2.987260160312302" fill="#FFA800" opacity="0.884104593789311"/><circle cx="361" cy="620" r="1.9292807318722316" fill="#00E1FF" opacity="0.5656983779524769"/><circle cx="133" cy="541" r="1.3937316982890935" fill="#00E1FF" opacity="0.8925056529341058"/><circle cx="772" cy="943" r="2.1311641262145864" fill="#FFA800" opacity="0.7515183865744735"/><circle cx="908" cy="792" r="2.0190272707024928" fill="#00E1FF" opacity="0.5334899282236545"/><circle cx="151" cy="341" r="1.6907163359273802" fill="#FFA800" opacity="0.8563403204328102"/><circle cx="252" cy="99" r="2.9390419202194997" fill="#FFA800" opacity="0.31302472218446564"/><circle cx="352" cy="806" r="0.5258909423221754" fill="#FFA800" opacity="0.6680104195248107"/><circle cx="15" cy="682" r="2.5073036483960376" fill="#00E1FF" opacity="0.36018556299118376"/><circle cx="918" cy="0" r="1.8619108125945845" fill="#FF3D2E" opacity="0.5201979518806977"/><circle cx="243" cy="663" r="2.4551129262948312" fill="#00E1FF" opacity="0.7189733568760338"/><circle cx="388" cy="188" r="0.7626646420987638" fill="#F5F5F5" opacity="0.6357650701986736"/><circle cx="754" cy="461" r="0.5686710143742486" fill="#FF3D2E" opacity="0.9137493539770711"/><circle cx="860" cy="968" r="2.4770061620474126" fill="#F5F5F5" opacity="0.5174785515380813"/><circle cx="444" cy="451" r="1.73677953673196" fill="#00E1FF" opacity="0.32350412116118893"/><circle cx="929" cy="671" r="1.4092858749257937" fill="#FF3D2E" opacity="0.8474716920651275"/><circle cx="30" cy="410" r="0.9041067598978132" fill="#00E1FF" opacity="0.7731184047464985"/><circle cx="905" cy="600" r="1.226503492350885" fill="#FF3D2E" opacity="0.7384576116140822"/><circle cx="640" cy="825" r="1.9145660031649188" fill="#FFA800" opacity="0.5722048759544196"/><circle cx="60" cy="474" r="2.5599429739474995" fill="#F5F5F5" opacity="0.7388967781489453"/><circle cx="311" cy="726" r="1.376648034820966" fill="#FFA800" opacity="0.6674706650440324"/><circle cx="798" cy="185" r="0.9466083072310423" fill="#FF3D2E" opacity="0.8451893652098528"/><circle cx="591" cy="916" r="0.7255029731065095" fill="#FFA800" opacity="0.6947501720548612"/><circle cx="885" cy="591" r="2.3192091022722106" fill="#FF3D2E" opacity="0.7983798230412009"/><circle cx="640" cy="239" r="0.6333765924859143" fill="#F5F5F5" opacity="0.37292531728209294"/><circle cx="414" cy="791" r="2.52662153069971" fill="#00E1FF" opacity="0.38478376828099947"/><circle cx="204" cy="860" r="2.3312924961729937" fill="#FF3D2E" opacity="0.7411950236424658"/><circle cx="676" cy="285" r="1.6901210595814105" fill="#F5F5F5" opacity="0.6118766266619395"/><circle cx="645" cy="580" r="1.0056914713641487" fill="#00E1FF" opacity="0.4771867019525958"/><circle cx="371" cy="453" r="2.2748217642633968" fill="#FFA800" opacity="0.972934127398116"/><circle cx="771" cy="770" r="0.8948143591828895" fill="#F5F5F5" opacity="0.9125439958417294"/><circle cx="121" cy="944" r="1.0612355000028102" fill="#FF3D2E" opacity="0.5110671058173963"/><circle cx="955" cy="85" r="1.138619251790219" fill="#F5F5F5" opacity="0.43953729994080754"/><circle cx="633" cy="189" r="1.1060492018677537" fill="#F5F5F5" opacity="0.84559953644473"/><circle cx="812" cy="83" r="2.487324376929301" fill="#FF3D2E" opacity="0.5183946456824104"/><circle cx="58" cy="379" r="2.5620926430186226" fill="#FFA800" opacity="0.5559600411810859"/><circle cx="711" cy="764" r="1.5407740241808416" fill="#FFA800" opacity="0.3779365359540876"/><circle cx="738" cy="720" r="0.6680329678541709" fill="#FFA800" opacity="0.37070908410973213"/><circle cx="126" cy="909" r="0.9023071768794911" fill="#F5F5F5" opacity="0.7132462985868742"/><circle cx="968" cy="313" r="0.8104227006229054" fill="#00E1FF" opacity="0.5567923319647567"/><circle cx="39" cy="171" r="2.330633760706361" fill="#00E1FF" opacity="0.39782793924815263"/><circle cx="587" cy="122" r="2.121396298419095" fill="#FF3D2E" opacity="0.4691707398475338"/><circle cx="240" cy="815" r="2.3056632086744506" fill="#FFA800" opacity="0.4789335526753792"/><circle cx="345" cy="217" r="0.9506779480865564" fill="#00E1FF" opacity="0.4080378306109764"/><circle cx="609" cy="527" r="2.088042303461771" fill="#F5F5F5" opacity="0.9129079440010894"/><circle cx="69" cy="23" r="1.9387948893588876" fill="#00E1FF" opacity="0.4921527013729443"/><circle cx="694" cy="523" r="2.883924950718467" fill="#00E1FF" opacity="0.5566355597773681"/><circle cx="541" cy="487" r="2.212575360550276" fill="#FFA800" opacity="0.4716735719165326"/><circle cx="624" cy="269" r="2.545702351787377" fill="#00E1FF" opacity="0.42504921232257564"/><circle cx="661" cy="736" r="1.3348695196803768" fill="#00E1FF" opacity="0.3280453492434205"/><circle cx="453" cy="151" r="2.6173919856877026" fill="#F5F5F5" opacity="0.8825337670160172"/><circle cx="798" cy="340" r="0.90709754773672" fill="#FFA800" opacity="0.31594449036573086"/><circle cx="437" cy="161" r="0.9949615761857723" fill="#F5F5F5" opacity="0.6215462971091731"/><circle cx="803" cy="897" r="1.4721670435402303" fill="#00E1FF" opacity="0.49718204184794296"/><circle cx="340" cy="124" r="2.043121885938643" fill="#FFA800" opacity="0.6954281457829263"/><circle cx="132" cy="558" r="2.184308950104563" fill="#FF3D2E" opacity="0.3027950992107657"/><circle cx="951" cy="462" r="2.2439109734316127" fill="#FFA800" opacity="0.9318284681602957"/><circle cx="724" cy="330" r="2.586586123954975" fill="#00E1FF" opacity="0.7037386113808536"/><circle cx="672" cy="153" r="1.0119653780975408" fill="#FFA800" opacity="0.6507310632510297"/><circle cx="869" cy="315" r="2.0424332252518513" fill="#FFA800" opacity="0.7988236986973523"/><circle cx="762" cy="613" r="2.507261686390465" fill="#00E1FF" opacity="0.6420795923956071"/><circle cx="722" cy="10" r="0.9340832193808702" fill="#FF3D2E" opacity="0.49071675792682823"/><circle cx="364" cy="769" r="2.948773797841814" fill="#FF3D2E" opacity="0.8372049872882141"/><circle cx="567" cy="286" r="0.8105860293704982" fill="#00E1FF" opacity="0.6940564345841411"/><circle cx="414" cy="429" r="0.9576588156301398" fill="#F5F5F5" opacity="0.8381386492740532"/><circle cx="558" cy="13" r="1.0507590493700198" fill="#FFA800" opacity="0.3349171276253995"/><circle cx="282" cy="178" r="2.658928430333962" fill="#F5F5F5" opacity="0.6824357047086897"/><circle cx="183" cy="128" r="1.4200898746229025" fill="#FFA800" opacity="0.3739387917517701"/><circle cx="688" cy="257" r="2.058770964027124" fill="#FFA800" opacity="0.9813775058399326"/><circle cx="452" cy="281" r="2.711747422886644" fill="#FF3D2E" opacity="0.41169688722874825"/><circle cx="952" cy="474" r="2.8674274897285374" fill="#FFA800" opacity="0.3019071451778041"/><circle cx="362" cy="360" r="0.8223169244581581" fill="#00E1FF" opacity="0.6512035493628057"/><circle cx="367" cy="44" r="1.7136167767638235" fill="#F5F5F5" opacity="0.8130019145110916"/><circle cx="993" cy="575" r="1.1578800622789804" fill="#FF3D2E" opacity="0.8534279435812531"/><circle cx="394" cy="162" r="0.5232315984740367" fill="#00E1FF" opacity="0.9875177782233879"/><circle cx="34" cy="452" r="1.0934814456296937" fill="#00E1FF" opacity="0.8701165514273543"/><circle cx="936" cy="409" r="1.563817715670362" fill="#FF3D2E" opacity="0.409701552145631"/><circle cx="658" cy="62" r="1.9907133960624863" fill="#FFA800" opacity="0.9168584497854262"/><circle cx="924" cy="6" r="2.699002816401898" fill="#FFA800" opacity="0.5781960303644766"/><circle cx="185" cy="501" r="0.5446494430995359" fill="#FF3D2E" opacity="0.33744978930483893"/><circle cx="177" cy="488" r="2.229247832572289" fill="#FFA800" opacity="0.8156660364314692"/><circle cx="198" cy="268" r="2.8621745499930946" fill="#F5F5F5" opacity="0.9338804099493152"/><circle cx="471" cy="260" r="2.447435137594405" fill="#F5F5F5" opacity="0.3487012354977137"/><circle cx="757" cy="612" r="1.141943547647592" fill="#00E1FF" opacity="0.7999325356520322"/><circle cx="788" cy="901" r="1.3807824424146142" fill="#FFA800" opacity="0.8216186328154309"/><circle cx="959" cy="435" r="1.5424396215483038" fill="#FFA800" opacity="0.52391512690798"/><circle cx="75" cy="737" r="1.8654894059212146" fill="#F5F5F5" opacity="0.32154383280765425"/><circle cx="710" cy="823" r="1.9158567690700647" fill="#FFA800" opacity="0.5878064470458972"/><circle cx="145" cy="183" r="0.7847111497959465" fill="#00E1FF" opacity="0.5038353560448993"/><circle cx="817" cy="438" r="1.5537894942914627" fill="#FFA800" opacity="0.42742072392588815"/><circle cx="125" cy="112" r="1.491458721238923" fill="#F5F5F5" opacity="0.7678825499676256"/><circle cx="687" cy="622" r="1.3686332131007708" fill="#FF3D2E" opacity="0.9436406995659268"/><circle cx="22" cy="699" r="2.532777786923545" fill="#FFA800" opacity="0.6849252171357747"/><circle cx="613" cy="617" r="2.051378553001743" fill="#FFA800" opacity="0.5764812659421775"/><circle cx="636" cy="898" r="1.4405038218860278" fill="#FFA800" opacity="0.6949778808283962"/><circle cx="554" cy="752" r="1.6332452981018248" fill="#FFA800" opacity="0.4637677009200131"/><circle cx="612" cy="618" r="1.0815029808053191" fill="#FFA800" opacity="0.39406477753803343"/><circle cx="246" cy="874" r="2.807843580620656" fill="#FFA800" opacity="0.7094100739580766"/><circle cx="260" cy="455" r="2.4447120851710564" fill="#00E1FF" opacity="0.4133713660900334"/><circle cx="281" cy="43" r="2.0684169302202866" fill="#F5F5F5" opacity="0.3715418903355114"/><circle cx="38" cy="168" r="1.9778318133957646" fill="#F5F5F5" opacity="0.8760223237709908"/><circle cx="565" cy="235" r="2.6087153197859614" fill="#F5F5F5" opacity="0.5337415316445888"/><circle cx="510" cy="117" r="2.557179303899712" fill="#00E1FF" opacity="0.976204193469987"/><circle cx="943" cy="710" r="1.8788527974043947" fill="#FFA800" opacity="0.40312250616706713"/><circle cx="874" cy="787" r="1.5230813905145653" fill="#FFA800" opacity="0.6271523754794812"/><circle cx="356" cy="474" r="1.3563621221046258" fill="#FFA800" opacity="0.38145230356381754"/><circle cx="322" cy="977" r="1.9379782172419393" fill="#FF3D2E" opacity="0.5991023699652024"/><circle cx="924" cy="171" r="2.3803462387253655" fill="#FF3D2E" opacity="0.9785734458804902"/><circle cx="734" cy="377" r="1.2883112271201758" fill="#00E1FF" opacity="0.5479051684669543"/><circle cx="146" cy="339" r="2.593187464654018" fill="#FF3D2E" opacity="0.7534587568956082"/><circle cx="427" cy="843" r="1.2661393227355013" fill="#00E1FF" opacity="0.7549526196771751"/><circle cx="630" cy="632" r="2.652510840619108" fill="#FF3D2E" opacity="0.9576902086322954"/><circle cx="274" cy="101" r="2.996249866336255" fill="#FF3D2E" opacity="0.7295015147628081"/><circle cx="85" cy="309" r="0.7165264782872928" fill="#F5F5F5" opacity="0.8219333619990967"/><circle cx="153" cy="704" r="1.000005073933747" fill="#F5F5F5" opacity="0.6566836703386036"/><circle cx="389" cy="269" r="1.2689372937588612" fill="#FF3D2E" opacity="0.42272988509243103"/><circle cx="244" cy="583" r="1.1361758462697868" fill="#FFA800" opacity="0.42768417261417624"/><circle cx="741" cy="972" r="2.581708777794777" fill="#F5F5F5" opacity="0.8961987938377403"/><circle cx="172" cy="809" r="2.2241431259401985" fill="#00E1FF" opacity="0.7324184203202571"/><circle cx="110" cy="238" r="1.4930608485026178" fill="#FFA800" opacity="0.518055083699007"/><circle cx="413" cy="316" r="2.407203787032279" fill="#FF3D2E" opacity="0.3770361396640211"/><circle cx="548" cy="421" r="0.5547200094006772" fill="#F5F5F5" opacity="0.5675927825719904"/><circle cx="358" cy="57" r="1.190571092717414" fill="#FFA800" opacity="0.8354885544084123"/><circle cx="410" cy="39" r="0.5573445565264957" fill="#00E1FF" opacity="0.656823682980769"/><circle cx="681" cy="270" r="0.5606804870893257" fill="#FFA800" opacity="0.5816181795605537"/><circle cx="522" cy="921" r="0.6990933650054094" fill="#FFA800" opacity="0.49291846910186615"/><circle cx="400" cy="31" r="2.7803385647796137" fill="#00E1FF" opacity="0.4497295110203814"/><circle cx="856" cy="949" r="2.9877580517258675" fill="#FFA800" opacity="0.541525457153363"/><circle cx="740" cy="145" r="2.2856315316919105" fill="#FF3D2E" opacity="0.4032425684087603"/><circle cx="591" cy="7" r="2.5591221055060416" fill="#00E1FF" opacity="0.8807414797336097"/><circle cx="362" cy="737" r="2.3317035909029213" fill="#FFA800" opacity="0.7822427993550292"/><circle cx="357" cy="378" r="1.052343728601012" fill="#FF3D2E" opacity="0.8642537316714505"/><circle cx="758" cy="510" r="1.920790499479252" fill="#F5F5F5" opacity="0.8787961845954879"/><circle cx="101" cy="563" r="1.641320464082189" fill="#FF3D2E" opacity="0.8842649287461015"/><circle cx="309" cy="149" r="2.214640491358769" fill="#FFA800" opacity="0.4260334113900546"/><circle cx="223" cy="645" r="0.7758349482229322" fill="#F5F5F5" opacity="0.8605545648161212"/><circle cx="981" cy="590" r="1.0268804283934663" fill="#00E1FF" opacity="0.5440316953649642"/><circle cx="637" cy="404" r="1.9359317251598651" fill="#FF3D2E" opacity="0.7573981524437658"/><circle cx="110" cy="293" r="2.21363174024525" fill="#00E1FF" opacity="0.6575114867166995"/>
  </svg>