<svg xmlns="http://www.w3.org/2000/svg" viewBox="0 0 2000 100">
    <rect width="2000" height="100" fill="#050505"/>
    <path d="M 0 50 L 76.51611270637491 64.03195520741221 L 179.997355803218 49.601697583308216 L 276.1342000050753 35.26895828209278 L 365.8724805836007 24.54289175646184 L 451.72462434314775 20.049613176537733 L 537.1545199151154 22.889233847254797 L 625.7294370136428 32.366515593188396 L 720.2466343967066 46.16108931117786 L 822.0484933643588 60.89556225248187 L 930.69385599929 72.9624215583603 L 1044.0660360109061 79.40727922430324 L 1158.8910573612816 78.65220932141885 L 1271.5392377831492 70.8820792959167 L 1378.9138615885226 57.999287970798115 L 1479.2093636708494 43.157991965507016 L 1572.3533948143804 29.991858150432144 L 1660.0245353054527 21.724415268473507 L 1745.2413199358587 20.379821674285207 L 1831.623195410736 26.287280774065533 L 1922.504353562531 38.00044055034946" fill="none" stroke="#00E1FF" stroke-width="2"/>
    <circle cx="0" cy="50" r="3" fill="#FF3D2E"/><circle cx="100" cy="50" r="3" fill="#FF3D2E"/><circle cx="200" cy="50" r="3" fill="#FF3D2E"/><circle cx="300" cy="50" r="3" fill="#FF3D2E"/><circle cx="400" cy="50" r="3" fill="#FF3D2E"/><circle cx="500" cy="50" r="3" fill="#FF3D2E"/><circle cx="600" cy="50" r="3" fill="#FF3D2E"/><circle cx="700" cy="50" r="3" fill="#FF3D2E"/><circle cx="800" cy="50" r="3" fill="#FF3D2E"/><circle cx="900" cy="50" r="3" fill="#FF3D2E"/><circle cx="1000" cy="50" r="3" fill="#FF3D2E"/><circle cx="1100" cy="50" r="3" fill="#FF3D2E"/><circle cx="1200" cy="50" r="3" fill="#FF3D2E"/><circle cx="1300" cy="50" r="3" fill="#FF3D2E"/><circle cx="1400" cy="50" r="3" fill="#FF3D2E"/><circle cx="1500" cy="50" r="3" fill="#FF3D2E"/><circle cx="1600" cy="50" r="3" fill="#FF3D2E"/><circle cx="1700" cy="50" r="3" fill="#FF3D2E"/><circle cx="1800" cy="50" r="3" fill="#FF3D2E"/><circle cx="1900" cy="50" r="3" fill="#FF3D2E"/><circle cx="2000" cy="50" r="3" fill="#FF3D2E"/>
  </svg>