<svg xmlns="http://www.w3.org/2000/svg" viewBox="0 0 1000 1000"><rect width="1000" height="1000" fill="#050505"/><circle cx="650" cy="500" r="33.333333333333336" fill="#00E1FF" opacity="0.7"/><rect x="687.537965591146" y="544.6808779170772" width="60" height="60" fill="#FF3D2E" opacity="0.7" transform="rotate(15 717.537965591146 574.6808779170772)"/><polygon points="744.633557912882,650.405940933797 779.633557912882,710.405940933797 709.633557912882,710.405940933797" fill="#FFA800" opacity="0.7"/><line x1="532.0422237183641" y1="625.5749717393793" x2="632.0422237183641" y2="625.5749717393793" stroke="#FFA800" stroke-width="4" opacity="0.8"/><circle cx="556.4616620423839" cy="722.9620611660459" r="33.333333333333336" fill="#FFA800" opacity="0.7"/><rect x="444.400402903577" y="778.9411928320676" width="60" height="60" fill="#FF3D2E" opacity="0.7" transform="rotate(75 474.400402903577 808.9411928320676)"/><polygon points="439.7456863020546,597.3659989982586 474.7456863020546,657.3659989982586 404.7456863020546,657.3659989982586" fill="#FFA800" opacity="0.7"/><line x1="294.2252385260796" y1="669.2164994548202" x2="394.2252385260796" y2="669.2164994548202" stroke="#00E1FF" stroke-width="4" opacity="0.8"/><circle cx="227.36313712598843" cy="647.5436918414928" r="33.333333333333336" fill="#FFA800" opacity="0.7"/><rect x="322.04580448959166" y="494.68918854211006" width="60" height="60" fill="#FFA800" opacity="0.7" transform="rotate(135 352.04580448959166 524.6891885421101)"/><polygon points="273.13690021737386,422.1432442354312 308.13690021737386,482.1432442354312 238.13690021737386,482.1432442354312" fill="#FFA800" opacity="0.7"/><line x1="177.36313712598837" y1="352.4563081585072" x2="277.3631371259884" y2="352.4563081585072" stroke="#FFA800" stroke-width="4" opacity="0.8"/><circle cx="398.40776425613876" cy="389.6414133990303" r="33.333333333333336" fill="#FF3D2E" opacity="0.7"/><rect x="377.61005232981694" y="259.37213486933683" width="60" height="60" fill="#00E1FF" opacity="0.7" transform="rotate(195 407.61005232981694 289.37213486933683)"/><polygon points="474.40040290357683,151.05880716793234 509.40040290357683,211.05880716793234 439.40040290357683,211.05880716793234" fill="#00E1FF" opacity="0.7"/><line x1="486.82282307111984" y1="354.5899601091004" x2="586.8228230711198" y2="354.5899601091004" stroke="#00E1FF" stroke-width="4" opacity="0.8"/><circle cx="625.7980763681581" cy="307.4517099996184" r="33.333333333333336" fill="#FF3D2E" opacity="0.7"/><rect x="714.633557912882" y="279.59405906620293" width="60" height="60" fill="#FFA800" opacity="0.7" transform="rotate(255 744.633557912882 309.59405906620293)"/><polygon points="641.8725862550953,411.29507961929744 676.8725862550953,471.29507961929744 606.8725862550953,471.29507961929744" fill="#FFA800" opacity="0.7"/><circle cx="500" cy="500" r="80" fill="#F5F5F5" opacity="0.9"/><circle cx="500" cy="500" r="40" fill="#050505"/></svg>