<svg xmlns="http://www.w3.org/2000/svg" viewBox="0 0 1000 1000"><rect width="1000" height="1000" fill="#050505"/><line x1="860" y1="339" x2="849" y2="302" stroke="#00E1FF" stroke-width="0.5" opacity="0.8069974093438121"/><line x1="860" y1="339" x2="816" y2="174" stroke="#00E1FF" stroke-width="0.5" opacity="0.14617039170569868"/><line x1="860" y1="339" x2="891" y2="495" stroke="#00E1FF" stroke-width="0.5" opacity="0.20474846746453845"/><line x1="400" y1="769" x2="570" y2="755" stroke="#00E1FF" stroke-width="0.5" opacity="0.1471225175911841"/><line x1="400" y1="769" x2="384" y2="749" stroke="#00E1FF" stroke-width="0.5" opacity="0.871937515251343"/><line x1="400" y1="769" x2="281" y2="681" stroke="#00E1FF" stroke-width="0.5" opacity="0.2599831083008983"/><line x1="400" y1="769" x2="360" y2="593" stroke="#00E1FF" stroke-width="0.5" opacity="0.09755886618572196"/><line x1="400" y1="769" x2="339" y2="856" stroke="#00E1FF" stroke-width="0.5" opacity="0.4687279416344202"/><line x1="400" y1="769" x2="312" y2="697" stroke="#00E1FF" stroke-width="0.5" opacity="0.4314931838579241"/><line x1="400" y1="769" x2="560" y2="750" stroke="#00E1FF" stroke-width="0.5" opacity="0.19437912142248948"/><line x1="400" y1="769" x2="496" y2="843" stroke="#00E1FF" stroke-width="0.5" opacity="0.39394719701992964"/><line x1="400" y1="769" x2="297" y2="731" stroke="#00E1FF" stroke-width="0.5" opacity="0.4510692211216427"/><line x1="400" y1="769" x2="274" y2="822" stroke="#00E1FF" stroke-width="0.5" opacity="0.31653456561432447"/><line x1="849" y1="302" x2="816" y2="174" stroke="#00E1FF" stroke-width="0.5" opacity="0.3390726212358879"/><line x1="849" y1="302" x2="891" y2="495" stroke="#00E1FF" stroke-width="0.5" opacity="0.012414560658167817"/><line x1="570" y1="755" x2="384" y2="749" stroke="#00E1FF" stroke-width="0.5" opacity="0.06951625484375068"/><line x1="570" y1="755" x2="726" y2="818" stroke="#00E1FF" stroke-width="0.5" opacity="0.15879550643140272"/><line x1="570" y1="755" x2="649" y2="788" stroke="#00E1FF" stroke-width="0.5" opacity="0.5719229041399202"/><line x1="570" y1="755" x2="560" y2="750" stroke="#00E1FF" stroke-width="0.5" opacity="0.9440983005625052"/><line x1="570" y1="755" x2="634" y2="822" stroke="#00E1FF" stroke-width="0.5" opacity="0.5367236246040599"/><line x1="570" y1="755" x2="496" y2="843" stroke="#00E1FF" stroke-width="0.5" opacity="0.4251087059278076"/><line x1="570" y1="755" x2="673" y2="614" stroke="#00E1FF" stroke-width="0.5" opacity="0.12693070149042585"/><line x1="570" y1="755" x2="636" y2="576" stroke="#00E1FF" stroke-width="0.5" opacity="0.046100110074437595"/><line x1="277" y1="160" x2="122" y2="228" stroke="#00E1FF" stroke-width="0.5" opacity="0.15369922604312836"/><line x1="277" y1="160" x2="234" y2="234" stroke="#00E1FF" stroke-width="0.5" opacity="0.5720689307844078"/><line x1="277" y1="160" x2="339" y2="263" stroke="#00E1FF" stroke-width="0.5" opacity="0.3988968474546154"/><line x1="277" y1="160" x2="327" y2="344" stroke="#00E1FF" stroke-width="0.5" opacity="0.04663752958279277"/><line x1="384" y1="749" x2="281" y2="681" stroke="#00E1FF" stroke-width="0.5" opacity="0.38288979914443155"/><line x1="384" y1="749" x2="360" y2="593" stroke="#00E1FF" stroke-width="0.5" opacity="0.2108232137220457"/><line x1="384" y1="749" x2="339" y2="856" stroke="#00E1FF" stroke-width="0.5" opacity="0.41961219861199706"/><line x1="384" y1="749" x2="312" y2="697" stroke="#00E1FF" stroke-width="0.5" opacity="0.5559279337765097"/><line x1="384" y1="749" x2="560" y2="750" stroke="#00E1FF" stroke-width="0.5" opacity="0.1199857955691851"/><line x1="384" y1="749" x2="496" y2="843" stroke="#00E1FF" stroke-width="0.5" opacity="0.26890493094263035"/><line x1="384" y1="749" x2="297" y2="731" stroke="#00E1FF" stroke-width="0.5" opacity="0.5557872131511746"/><line x1="384" y1="749" x2="274" y2="822" stroke="#00E1FF" stroke-width="0.5" opacity="0.33990530982290124"/><line x1="298" y1="427" x2="360" y2="593" stroke="#00E1FF" stroke-width="0.5" opacity="0.1139977426665324"/><line x1="298" y1="427" x2="264" y2="434" stroke="#00E1FF" stroke-width="0.5" opacity="0.8264344504229022"/><line x1="298" y1="427" x2="443" y2="389" stroke="#00E1FF" stroke-width="0.5" opacity="0.25051684475233205"/><line x1="298" y1="427" x2="339" y2="263" stroke="#00E1FF" stroke-width="0.5" opacity="0.15476334674837955"/><line x1="298" y1="427" x2="156" y2="536" stroke="#00E1FF" stroke-width="0.5" opacity="0.1049441358216795"/><line x1="298" y1="427" x2="327" y2="344" stroke="#00E1FF" stroke-width="0.5" opacity="0.5603979071933347"/><line x1="281" y1="681" x2="114" y2="585" stroke="#00E1FF" stroke-width="0.5" opacity="0.0368670912070338"/><line x1="281" y1="681" x2="360" y2="593" stroke="#00E1FF" stroke-width="0.5" opacity="0.4087090394737968"/><line x1="281" y1="681" x2="339" y2="856" stroke="#00E1FF" stroke-width="0.5" opacity="0.07819470602518241"/><line x1="281" y1="681" x2="312" y2="697" stroke="#00E1FF" stroke-width="0.5" opacity="0.8255723645748759"/><line x1="281" y1="681" x2="121" y2="580" stroke="#00E1FF" stroke-width="0.5" opacity="0.05394239076047791"/><line x1="281" y1="681" x2="156" y2="536" stroke="#00E1FF" stroke-width="0.5" opacity="0.04279051404616763"/><line x1="281" y1="681" x2="297" y2="731" stroke="#00E1FF" stroke-width="0.5" opacity="0.7375119050318663"/><line x1="281" y1="681" x2="274" y2="822" stroke="#00E1FF" stroke-width="0.5" opacity="0.2941317403367679"/><line x1="726" y1="818" x2="877" y2="855" stroke="#00E1FF" stroke-width="0.5" opacity="0.22266480846419934"/><line x1="726" y1="818" x2="649" y2="788" stroke="#00E1FF" stroke-width="0.5" opacity="0.5868111811774186"/><line x1="726" y1="818" x2="560" y2="750" stroke="#00E1FF" stroke-width="0.5" opacity="0.1030607601403537"/><line x1="726" y1="818" x2="634" y2="822" stroke="#00E1FF" stroke-width="0.5" opacity="0.5395654226711465"/><line x1="726" y1="818" x2="758" y2="838" stroke="#00E1FF" stroke-width="0.5" opacity="0.811320377358868"/><line x1="726" y1="818" x2="846" y2="679" stroke="#00E1FF" stroke-width="0.5" opacity="0.08183607128138604"/><line x1="726" y1="818" x2="870" y2="826" stroke="#00E1FF" stroke-width="0.5" opacity="0.2788897449072022"/><line x1="877" y1="855" x2="758" y2="838" stroke="#00E1FF" stroke-width="0.5" opacity="0.39895923599143457"/><line x1="877" y1="855" x2="846" y2="679" stroke="#00E1FF" stroke-width="0.5" opacity="0.10645369454068032"/><line x1="877" y1="855" x2="870" y2="826" stroke="#00E1FF" stroke-width="0.5" opacity="0.850835661098237"/><line x1="114" y1="585" x2="121" y2="580" stroke="#00E1FF" stroke-width="0.5" opacity="0.9569883736647868"/><line x1="114" y1="585" x2="156" y2="536" stroke="#00E1FF" stroke-width="0.5" opacity="0.6773159439947489"/><line x1="867" y1="562" x2="768" y2="534" stroke="#00E1FF" stroke-width="0.5" opacity="0.48558285409601665"/><line x1="867" y1="562" x2="891" y2="495" stroke="#00E1FF" stroke-width="0.5" opacity="0.6441559330268383"/><line x1="867" y1="562" x2="846" y2="679" stroke="#00E1FF" stroke-width="0.5" opacity="0.40565161731523147"/><line x1="649" y1="788" x2="560" y2="750" stroke="#00E1FF" stroke-width="0.5" opacity="0.5161353495036034"/><line x1="649" y1="788" x2="634" y2="822" stroke="#00E1FF" stroke-width="0.5" opacity="0.8141909582393796"/><line x1="649" y1="788" x2="758" y2="838" stroke="#00E1FF" stroke-width="0.5" opacity="0.40039596398956756"/><line x1="649" y1="788" x2="496" y2="843" stroke="#00E1FF" stroke-width="0.5" opacity="0.18707318902621994"/><line x1="649" y1="788" x2="673" y2="614" stroke="#00E1FF" stroke-width="0.5" opacity="0.12176312990173332"/><line x1="360" y1="593" x2="264" y2="434" stroke="#00E1FF" stroke-width="0.5" opacity="0.07133159847015369"/><line x1="360" y1="593" x2="312" y2="697" stroke="#00E1FF" stroke-width="0.5" opacity="0.42728715746894597"/><line x1="360" y1="593" x2="297" y2="731" stroke="#00E1FF" stroke-width="0.5" opacity="0.24149818721376815"/><line x1="264" y1="434" x2="443" y2="389" stroke="#00E1FF" stroke-width="0.5" opacity="0.07715114997091743"/><line x1="264" y1="434" x2="339" y2="263" stroke="#00E1FF" stroke-width="0.5" opacity="0.06637802082427402"/><line x1="264" y1="434" x2="156" y2="536" stroke="#00E1FF" stroke-width="0.5" opacity="0.2572348958116032"/><line x1="264" y1="434" x2="327" y2="344" stroke="#00E1FF" stroke-width="0.5" opacity="0.45070499729198343"/><line x1="339" y1="856" x2="312" y2="697" stroke="#00E1FF" stroke-width="0.5" opacity="0.19361919665706329"/><line x1="339" y1="856" x2="496" y2="843" stroke="#00E1FF" stroke-width="0.5" opacity="0.2123135141441107"/><line x1="339" y1="856" x2="297" y2="731" stroke="#00E1FF" stroke-width="0.5" opacity="0.34066321200770233"/><line x1="339" y1="856" x2="274" y2="822" stroke="#00E1FF" stroke-width="0.5" opacity="0.6332235012981339"/><line x1="537" y1="318" x2="443" y2="389" stroke="#00E1FF" stroke-width="0.5" opacity="0.4109966044240492"/><line x1="443" y1="389" x2="573" y2="520" stroke="#00E1FF" stroke-width="0.5" opacity="0.07721887752295231"/><line x1="443" y1="389" x2="339" y2="263" stroke="#00E1FF" stroke-width="0.5" opacity="0.18311567526362704"/><line x1="443" y1="389" x2="327" y2="344" stroke="#00E1FF" stroke-width="0.5" opacity="0.3778866662737408"/><line x1="122" y1="228" x2="234" y2="234" stroke="#00E1FF" stroke-width="0.5" opacity="0.4391970042876019"/><line x1="573" y1="520" x2="768" y2="534" stroke="#00E1FF" stroke-width="0.5" opacity="0.022490409254210975"/><line x1="573" y1="520" x2="656" y2="521" stroke="#00E1FF" stroke-width="0.5" opacity="0.5849698806110573"/><line x1="573" y1="520" x2="673" y2="614" stroke="#00E1FF" stroke-width="0.5" opacity="0.3137784614280895"/><line x1="573" y1="520" x2="636" y2="576" stroke="#00E1FF" stroke-width="0.5" opacity="0.5785441897422696"/><line x1="312" y1="697" x2="297" y2="731" stroke="#00E1FF" stroke-width="0.5" opacity="0.8141909582393796"/><line x1="312" y1="697" x2="274" y2="822" stroke="#00E1FF" stroke-width="0.5" opacity="0.3467580846271422"/><line x1="768" y1="534" x2="656" y2="521" stroke="#00E1FF" stroke-width="0.5" opacity="0.4362402994182716"/><line x1="768" y1="534" x2="891" y2="495" stroke="#00E1FF" stroke-width="0.5" opacity="0.3548256049718028"/><line x1="768" y1="534" x2="846" y2="679" stroke="#00E1FF" stroke-width="0.5" opacity="0.17675945192185782"/><line x1="768" y1="534" x2="673" y2="614" stroke="#00E1FF" stroke-width="0.5" opacity="0.37901288258128896"/><line x1="768" y1="534" x2="636" y2="576" stroke="#00E1FF" stroke-width="0.5" opacity="0.3073962171630883"/><line x1="560" y1="750" x2="634" y2="822" stroke="#00E1FF" stroke-width="0.5" opacity="0.48376362003438766"/><line x1="560" y1="750" x2="496" y2="843" stroke="#00E1FF" stroke-width="0.5" opacity="0.43553122318413395"/><line x1="560" y1="750" x2="673" y2="614" stroke="#00E1FF" stroke-width="0.5" opacity="0.11590441693219622"/><line x1="560" y1="750" x2="636" y2="576" stroke="#00E1FF" stroke-width="0.5" opacity="0.05063178903019916"/><line x1="656" y1="521" x2="673" y2="614" stroke="#00E1FF" stroke-width="0.5" opacity="0.5272950180080603"/><line x1="656" y1="521" x2="636" y2="576" stroke="#00E1FF" stroke-width="0.5" opacity="0.7073825022320094"/><line x1="634" y1="822" x2="758" y2="838" stroke="#00E1FF" stroke-width="0.5" opacity="0.37486001567648874"/><line x1="634" y1="822" x2="496" y2="843" stroke="#00E1FF" stroke-width="0.5" opacity="0.3020565925520894"/><line x1="121" y1="580" x2="156" y2="536" stroke="#00E1FF" stroke-width="0.5" opacity="0.718886144062588"/><line x1="758" y1="838" x2="846" y2="679" stroke="#00E1FF" stroke-width="0.5" opacity="0.09136090773068772"/><line x1="758" y1="838" x2="870" y2="826" stroke="#00E1FF" stroke-width="0.5" opacity="0.43679488638685104"/><line x1="234" y1="234" x2="339" y2="263" stroke="#00E1FF" stroke-width="0.5" opacity="0.45534414535415113"/><line x1="234" y1="234" x2="327" y2="344" stroke="#00E1FF" stroke-width="0.5" opacity="0.2797743409180703"/><line x1="339" y1="263" x2="327" y2="344" stroke="#00E1FF" stroke-width="0.5" opacity="0.5905796780813146"/><line x1="891" y1="495" x2="846" y2="679" stroke="#00E1FF" stroke-width="0.5" opacity="0.05288596251560085"/><line x1="846" y1="679" x2="673" y2="614" stroke="#00E1FF" stroke-width="0.5" opacity="0.0759599575775951"/><line x1="846" y1="679" x2="870" y2="826" stroke="#00E1FF" stroke-width="0.5" opacity="0.25526850476161544"/><line x1="673" y1="614" x2="636" y2="576" stroke="#00E1FF" stroke-width="0.5" opacity="0.7348113878764777"/><line x1="297" y1="731" x2="274" y2="822" stroke="#00E1FF" stroke-width="0.5" opacity="0.5306919987897074"/><circle cx="860" cy="339" r="4" fill="#00E1FF"/><circle cx="400" cy="769" r="4" fill="#00E1FF"/><circle cx="849" cy="302" r="4" fill="#00E1FF"/><circle cx="570" cy="755" r="4" fill="#00E1FF"/><circle cx="277" cy="160" r="4" fill="#00E1FF"/><circle cx="384" cy="749" r="4" fill="#00E1FF"/><circle cx="298" cy="427" r="4" fill="#00E1FF"/><circle cx="281" cy="681" r="4" fill="#00E1FF"/><circle cx="726" cy="818" r="4" fill="#00E1FF"/><circle cx="877" cy="855" r="4" fill="#00E1FF"/><circle cx="114" cy="585" r="4" fill="#00E1FF"/><circle cx="867" cy="562" r="4" fill="#00E1FF"/><circle cx="649" cy="788" r="4" fill="#00E1FF"/><circle cx="360" cy="593" r="4" fill="#00E1FF"/><circle cx="264" cy="434" r="4" fill="#00E1FF"/><circle cx="339" cy="856" r="4" fill="#00E1FF"/><circle cx="537" cy="318" r="4" fill="#00E1FF"/><circle cx="443" cy="389" r="4" fill="#00E1FF"/><circle cx="122" cy="228" r="4" fill="#00E1FF"/><circle cx="573" cy="520" r="4" fill="#00E1FF"/><circle cx="816" cy="174" r="4" fill="#00E1FF"/><circle cx="312" cy="697" r="4" fill="#00E1FF"/><circle cx="768" cy="534" r="4" fill="#00E1FF"/><circle cx="560" cy="750" r="4" fill="#00E1FF"/><circle cx="656" cy="521" r="4" fill="#00E1FF"/><circle cx="634" cy="822" r="4" fill="#00E1FF"/><circle cx="121" cy="580" r="4" fill="#00E1FF"/><circle cx="758" cy="838" r="4" fill="#00E1FF"/><circle cx="234" cy="234" r="4" fill="#00E1FF"/><circle cx="339" cy="263" r="4" fill="#00E1FF"/><circle cx="156" cy="536" r="4" fill="#00E1FF"/><circle cx="891" cy="495" r="4" fill="#00E1FF"/><circle cx="846" cy="679" r="4" fill="#00E1FF"/><circle cx="327" cy="344" r="4" fill="#00E1FF"/><circle cx="496" cy="843" r="4" fill="#00E1FF"/><circle cx="673" cy="614" r="4" fill="#00E1FF"/><circle cx="870" cy="826" r="4" fill="#00E1FF"/><circle cx="297" cy="731" r="4" fill="#00E1FF"/><circle cx="274" cy="822" r="4" fill="#00E1FF"/><circle cx="636" cy="576" r="4" fill="#00E1FF"/><circle cx="500" cy="500" r="60" fill="#FF3D2E"/><text x="500" y="520" text-anchor="middle" fill="#F5F5F5" font-size="60" font-weight="900" font-family="Arial">🧠</text></svg>