<svg xmlns="http://www.w3.org/2000/svg" viewBox="0 0 1000 1000"><rect width="1000" height="1000" fill="#050505"/><path d="M 0 500 L 0 608.5962801236301 L 20 643.825120797511 L 40 654.9154026845841 L 60 608.7572992695283 L 80 511.42681722595626 L 100 408.3402316662696 L 120 349.4560859235043 L 140 350.41943835953026 L 160 384.2550272845625 L 180 410.2871700032198 L 200 413.04727971930583 L 220 415.1591368213444 L 240 452.56625573866575 L 260 535.5043519851932 L 280 632.0449481528718 L 300 690.4524165680298 L 320 680.9043036950115 L 340 619.1402867404822 L 360 550.8921687682855 L 380 511.5834138277263 L 400 498.07476378383075 L 420 477.75183442673097 L 440 425.6205358884876 L 460 354.18246108832324 L 480 307.53423094588084 L 500 324.23277964075584 L 520 402.53009367413034 L 540 499.8324672951745 L 560 567.2205322456781 L 580 588.0251270454439 L 600 586.0030075520378 L 620 596.7244906775583 L 640 629.5480134684592 L 660 655.9822896993367 L 680 635.6148043058589 L 700 555.8101444808104 L 720 448.2781814713088 L 740 366.4977009707104 L 760 343.71364330251447 L 780 368.99383967604916 L 800 402.31310557330255 L 820 414.0018283146074 L 840 411.8718829774738 L 860 431.1044619908811 L 880 496.65947884110994 L 900 593.5952638111709 L 920 673.6493647922313 L 940 693.1599494668415 L 960 648.4814976974823 L 980 577.0800168461362 L 1000 523.6570893850372" fill="none" stroke="#FF3D2E" stroke-width="6"/><path d="M 0 500 L 0 608.5962801236301 L 20 643.825120797511 L 40 654.9154026845841 L 60 608.7572992695283 L 80 511.42681722595626 L 100 408.3402316662696 L 120 349.4560859235043 L 140 350.41943835953026 L 160 384.2550272845625 L 180 410.2871700032198 L 200 413.04727971930583 L 220 415.1591368213444 L 240 452.56625573866575 L 260 535.5043519851932 L 280 632.0449481528718 L 300 690.4524165680298 L 320 680.9043036950115 L 340 619.1402867404822 L 360 550.8921687682855 L 380 511.5834138277263 L 400 498.07476378383075 L 420 477.75183442673097 L 440 425.6205358884876 L 460 354.18246108832324 L 480 307.53423094588084 L 500 324.23277964075584 L 520 402.53009367413034 L 540 499.8324672951745 L 560 567.2205322456781 L 580 588.0251270454439 L 600 586.0030075520378 L 620 596.7244906775583 L 640 629.5480134684592 L 660 655.9822896993367 L 680 635.6148043058589 L 700 555.8101444808104 L 720 448.2781814713088 L 740 366.4977009707104 L 760 343.71364330251447 L 780 368.99383967604916 L 800 402.31310557330255 L 820 414.0018283146074 L 840 411.8718829774738 L 860 431.1044619908811 L 880 496.65947884110994 L 900 593.5952638111709 L 920 673.6493647922313 L 940 693.1599494668415 L 960 648.4814976974823 L 980 577.0800168461362 L 1000 523.6570893850372 L 1000 1000 L 0 1000 Z" fill="#FF3D2E" opacity="0.2"/><circle cx="500" cy="500" r="20" fill="#00E1FF"/></svg>