<svg xmlns="http://www.w3.org/2000/svg" viewBox="0 0 1000 1000">
    <rect width="1000" height="1000" fill="#050505"/>
    <circle cx="390" cy="282" r="2.9122699666993004" fill="#00E1FF" opacity="0.3216409734406781"/><circle cx="221" cy="302" r="2.8842899520970624" fill="#00E1FF" opacity="0.3890735062154841"/><circle cx="914" cy="859" r="1.0564138467336799" fill="#F5F5F5" opacity="0.5117976672393806"/><circle cx="721" cy="913" r="2.0684288574393435" fill="#FFA800" opacity="0.6051226866242418"/><circle cx="643" cy="121" r="1.07709142678342" fill="#00E1FF" opacity="0.49335203772840175"/><circle cx="610" cy="572" r="1.4135423080460403" fill="#F5F5F5" opacity="0.8078927165082921"/><circle cx="990" cy="414" r="1.4990265801860194" fill="#F5F5F5" opacity="0.43374218776421536"/><circle cx="460" cy="113" r="1.6424854747231217" fill="#FFA800" opacity="0.49753526513191343"/><circle cx="208" cy="108" r="2.668090027965413" fill="#FF3D2E" opacity="0.6401847462441179"/><circle cx="1" cy="44" r="2.9681696198641543" fill="#F5F5F5" opacity="0.755849928374742"/><circle cx="678" cy="885" r="0.8238256071775542" fill="#F5F5F5" opacity="0.6020509353593039"/><circle cx="387" cy="866" r="2.7877759726451745" fill="#FF3D2E" opacity="0.37757186435947443"/><circle cx="970" cy="400" r="1.9380100528444417" fill="#F5F5F5" opacity="0.5417993594860603"/><circle cx="526" cy="453" r="2.5347980068596923" fill="#00E1FF" opacity="0.687153962067109"/><circle cx="549" cy="52" r="1.1286826004380335" fill="#F5F5F5" opacity="0.5593566386183568"/><circle cx="557" cy="685" r="1.8851891976050612" fill="#FFA800" opacity="0.5845769293080612"/><circle cx="535" cy="115" r="2.2111582253934294" fill="#F5F5F5" opacity="0.957014931936149"/><circle cx="882" cy="165" r="1.3051611783973818" fill="#FF3D2E" opacity="0.6263290654801374"/><circle cx="897" cy="354" r="1.2614761434501582" fill="#F5F5F5" opacity="0.6012475305379967"/><circle cx="780" cy="856" r="2.554280879361372" fill="#FFA800" opacity="0.34319737813754153"/><circle cx="141" cy="447" r="1.5638574443996052" fill="#00E1FF" opacity="0.3305056203979983"/><circle cx="497" cy="354" r="2.4199955104903044" fill="#F5F5F5" opacity="0.4636289144798505"/><circle cx="447" cy="472" r="0.5338873372937382" fill="#F5F5F5" opacity="0.938903398204088"/><circle cx="932" cy="20" r="2.596926045165515" fill="#FFA800" opacity="0.40314943389746244"/><circle cx="877" cy="339" r="1.257405455048366" fill="#00E1FF" opacity="0.6369154830021186"/><circle cx="555" cy="757" r="2.185640480510182" fill="#00E1FF" opacity="0.6138249680405208"/><circle cx="776" cy="260" r="1.3678677267546324" fill="#F5F5F5" opacity="0.3335605737497648"/><circle cx="331" cy="457" r="1.9466702074170827" fill="#FF3D2E" opacity="0.9362582432942352"/><circle cx="222" cy="324" r="0.938318551411021" fill="#F5F5F5" opacity="0.7340221580109774"/><circle cx="679" cy="9" r="2.99036261882443" fill="#FF3D2E" opacity="0.9692872825666836"/><circle cx="609" cy="857" r="2.3352788634256756" fill="#F5F5F5" opacity="0.3457458973177922"/><circle cx="65" cy="875" r="2.0110040948668875" fill="#F5F5F5" opacity="0.3957636579367347"/><circle cx="457" cy="73" r="2.6024774583188433" fill="#FFA800" opacity="0.49744241704645087"/><circle cx="183" cy="803" r="2.304062530905827" fill="#FFA800" opacity="0.6677766305444168"/><circle cx="775" cy="163" r="1.3352442762656764" fill="#00E1FF" opacity="0.7555895743157153"/><circle cx="214" cy="523" r="1.4537842327254598" fill="#FFA800" opacity="0.5450628005090389"/><circle cx="252" cy="685" r="2.1139222056268707" fill="#00E1FF" opacity="0.5983075009219294"/><circle cx="747" cy="533" r="2.014229081665599" fill="#F5F5F5" opacity="0.9935762583372765"/><circle cx="852" cy="964" r="1.4987551846430271" fill="#FFA800" opacity="0.9060616014228497"/><circle cx="183" cy="764" r="1.5370685245911293" fill="#FF3D2E" opacity="0.6285455898793704"/><circle cx="443" cy="149" r="2.309476295809635" fill="#00E1FF" opacity="0.6113419363297155"/><circle cx="754" cy="196" r="1.3523166916972569" fill="#FF3D2E" opacity="0.6699319316219479"/><circle cx="713" cy="660" r="1.2451109071837447" fill="#F5F5F5" opacity="0.5495655295001605"/><circle cx="284" cy="130" r="2.6801360588610037" fill="#FF3D2E" opacity="0.7924254296211657"/><circle cx="178" cy="170" r="1.5766257069471752" fill="#FF3D2E" opacity="0.4898075945120903"/><circle cx="839" cy="177" r="2.1767610064648446" fill="#F5F5F5" opacity="0.8979393801616493"/><circle cx="347" cy="470" r="0.9657310412865073" fill="#F5F5F5" opacity="0.37417724896143634"/><circle cx="39" cy="30" r="1.913724009352041" fill="#FF3D2E" opacity="0.7447015195752297"/><circle cx="55" cy="372" r="2.1127726300447796" fill="#FF3D2E" opacity="0.6499757011077609"/><circle cx="793" cy="497" r="2.570135296709918" fill="#FF3D2E" opacity="0.8763176094740182"/><circle cx="410" cy="436" r="1.499304764630991" fill="#F5F5F5" opacity="0.599730228831673"/><circle cx="77" cy="647" r="1.222086429292796" fill="#F5F5F5" opacity="0.8777504913992762"/><circle cx="194" cy="668" r="1.239185755724745" fill="#FFA800" opacity="0.9907276670539158"/><circle cx="248" cy="843" r="1.2963942665566832" fill="#FFA800" opacity="0.5476520710166259"/><circle cx="667" cy="562" r="2.633802436679557" fill="#FFA800" opacity="0.8696131946933938"/><circle cx="328" cy="540" r="1.9143897021244134" fill="#FFA800" opacity="0.5065055347565406"/><circle cx="545" cy="565" r="2.2040475334398235" fill="#00E1FF" opacity="0.7163328528096973"/><circle cx="657" cy="60" r="2.658981406650469" fill="#00E1FF" opacity="0.802027923557411"/><circle cx="97" cy="477" r="2.8949273209388915" fill="#00E1FF" opacity="0.7483801700767764"/><circle cx="61" cy="516" r="1.404915285284923" fill="#F5F5F5" opacity="0.9736437120394299"/><circle cx="483" cy="83" r="1.0640117351487894" fill="#00E1FF" opacity="0.3636513750579022"/><circle cx="181" cy="815" r="1.052012554844485" fill="#FF3D2E" opacity="0.7271941483269424"/><circle cx="46" cy="523" r="2.725088604994005" fill="#FFA800" opacity="0.5024567212750026"/><circle cx="367" cy="269" r="2.5252257078888696" fill="#00E1FF" opacity="0.8272876551296942"/><circle cx="967" cy="610" r="2.094988639147918" fill="#F5F5F5" opacity="0.4103057031469201"/><circle cx="20" cy="716" r="1.319906556943305" fill="#F5F5F5" opacity="0.44984102093483935"/><circle cx="273" cy="936" r="2.5312763676779326" fill="#FFA800" opacity="0.5968839739553942"/><circle cx="303" cy="643" r="2.469099380922671" fill="#F5F5F5" opacity="0.6996701638209173"/><circle cx="981" cy="714" r="1.079483647273179" fill="#00E1FF" opacity="0.7202048898633984"/><circle cx="427" cy="370" r="2.5165190075883914" fill="#FF3D2E" opacity="0.8724794015776696"/><circle cx="347" cy="733" r="2.670738648370442" fill="#FFA800" opacity="0.9425323412308781"/><circle cx="99" cy="791" r="1.2333185069009507" fill="#F5F5F5" opacity="0.8134291523885164"/><circle cx="200" cy="761" r="1.004539238809003" fill="#F5F5F5" opacity="0.6294333333140604"/><circle cx="360" cy="15" r="2.198316323856268" fill="#00E1FF" opacity="0.779790073283155"/><circle cx="179" cy="209" r="2.9078547733865676" fill="#FFA800" opacity="0.4615796869414005"/><circle cx="858" cy="512" r="1.3446645906367252" fill="#FFA800" opacity="0.760675222404663"/><circle cx="379" cy="710" r="1.1588678336884413" fill="#FF3D2E" opacity="0.615674541433272"/><circle cx="200" cy="883" r="2.781282312258658" fill="#FF3D2E" opacity="0.40295078707231835"/><circle cx="459" cy="535" r="2.488347832547986" fill="#00E1FF" opacity="0.7448607285344735"/><circle cx="232" cy="145" r="0.54271510390641" fill="#F5F5F5" opacity="0.7220194398164899"/><circle cx="689" cy="95" r="1.4435948085741046" fill="#FFA800" opacity="0.9573932872061783"/><circle cx="579" cy="877" r="2.0090369968904387" fill="#F5F5F5" opacity="0.45897195193718643"/><circle cx="159" cy="9" r="1.5161719498307487" fill="#F5F5F5" opacity="0.9022782603231927"/><circle cx="713" cy="786" r="0.5241811546153975" fill="#F5F5F5" opacity="0.41527942205443674"/><circle cx="166" cy="231" r="2.75209980156789" fill="#FF3D2E" opacity="0.4006635069227136"/><circle cx="520" cy="82" r="0.5209401757752864" fill="#FF3D2E" opacity="0.6824624100042802"/><circle cx="891" cy="98" r="0.5364607557239333" fill="#FFA800" opacity="0.7018348609851353"/><circle cx="624" cy="777" r="2.9209924587203853" fill="#FFA800" opacity="0.5399907023906021"/><circle cx="511" cy="128" r="2.264030780778997" fill="#FF3D2E" opacity="0.6936433741312769"/><circle cx="50" cy="386" r="2.9440457164038576" fill="#FF3D2E" opacity="0.3510687557436831"/><circle cx="429" cy="655" r="0.5270264699221173" fill="#FF3D2E" opacity="0.6879910760030371"/><circle cx="65" cy="430" r="1.1241337226299732" fill="#F5F5F5" opacity="0.7991891929417257"/><circle cx="241" cy="303" r="0.8538830642810314" fill="#FFA800" opacity="0.47989248501806564"/><circle cx="655" cy="209" r="1.3745717391734393" fill="#FFA800" opacity="0.3502718560179142"/><circle cx="150" cy="608" r="1.582952567083502" fill="#00E1FF" opacity="0.5140787214413515"/><circle cx="914" cy="379" r="2.211197835601297" fill="#FF3D2E" opacity="0.6250070936931427"/><circle cx="244" cy="943" r="2.1223443776876776" fill="#00E1FF" opacity="0.7510685464946728"/><circle cx="378" cy="428" r="2.065051280321375" fill="#F5F5F5" opacity="0.8651054502890616"/><circle cx="73" cy="983" r="2.162440676242207" fill="#FFA800" opacity="0.67972500243426"/><circle cx="532" cy="621" r="0.8490281721337513" fill="#FFA800" opacity="0.8941715357124289"/><circle cx="302" cy="607" r="2.530290394423111" fill="#F5F5F5" opacity="0.35304587023409834"/><circle cx="705" cy="281" r="1.3014552837468691" fill="#00E1FF" opacity="0.9395818156974611"/><circle cx="487" cy="659" r="1.6483429767744258" fill="#FF3D2E" opacity="0.3401150114494902"/><circle cx="225" cy="106" r="1.5325727744837758" fill="#FF3D2E" opacity="0.3174300014555748"/><circle cx="885" cy="132" r="0.6846149032500549" fill="#FFA800" opacity="0.9430929536653185"/><circle cx="261" cy="203" r="1.5537015729528054" fill="#FF3D2E" opacity="0.9028450406915474"/><circle cx="438" cy="791" r="1.2332777812603446" fill="#FFA800" opacity="0.6801263182698802"/><circle cx="393" cy="858" r="1.9772689811262074" fill="#FF3D2E" opacity="0.9408044145681995"/><circle cx="931" cy="652" r="2.3953780952570014" fill="#FF3D2E" opacity="0.3378886995529981"/><circle cx="511" cy="95" r="1.5874658704894913" fill="#FFA800" opacity="0.48677166341848127"/><circle cx="751" cy="408" r="1.2021993210778206" fill="#F5F5F5" opacity="0.39287384142995263"/><circle cx="812" cy="361" r="1.1760551893301954" fill="#F5F5F5" opacity="0.8350762063692276"/><circle cx="872" cy="622" r="2.840847160344092" fill="#00E1FF" opacity="0.4279552210254061"/><circle cx="2" cy="954" r="1.3654223899864266" fill="#00E1FF" opacity="0.4554160032652523"/><circle cx="782" cy="34" r="1.1596471405547906" fill="#F5F5F5" opacity="0.8956482691704519"/><circle cx="47" cy="693" r="1.0184696713830894" fill="#FF3D2E" opacity="0.4571041516379688"/><circle cx="877" cy="367" r="2.0959331741828082" fill="#FFA800" opacity="0.5925171027759222"/><circle cx="370" cy="550" r="2.5617362869223896" fill="#FF3D2E" opacity="0.6943011180801522"/><circle cx="455" cy="339" r="2.1188334016859516" fill="#FF3D2E" opacity="0.7416325235981127"/><circle cx="843" cy="570" r="2.6683152343298815" fill="#FF3D2E" opacity="0.7517440197502679"/><circle cx="327" cy="275" r="1.9024754172361265" fill="#FF3D2E" opacity="0.7457109813580141"/><circle cx="819" cy="417" r="2.8324544238787204" fill="#F5F5F5" opacity="0.4098871262064074"/><circle cx="589" cy="962" r="1.3036545511775406" fill="#FFA800" opacity="0.6116067141879633"/><circle cx="520" cy="13" r="1.4417882261402322" fill="#FFA800" opacity="0.4612266599210007"/><circle cx="461" cy="522" r="2.558507541035939" fill="#FFA800" opacity="0.7630723502859313"/><circle cx="520" cy="582" r="2.466848626495838" fill="#00E1FF" opacity="0.4838021886456554"/><circle cx="673" cy="124" r="0.8667854040061463" fill="#F5F5F5" opacity="0.8456405763374921"/><circle cx="39" cy="971" r="1.6109636759469126" fill="#FFA800" opacity="0.9203505481279088"/><circle cx="574" cy="294" r="2.8569170118278833" fill="#FF3D2E" opacity="0.3454004038583353"/><circle cx="770" cy="218" r="1.409782256369992" fill="#00E1FF" opacity="0.545544976883531"/><circle cx="866" cy="538" r="1.5743645510247302" fill="#00E1FF" opacity="0.4480241210963187"/><circle cx="359" cy="343" r="2.556804850490745" fill="#F5F5F5" opacity="0.5036856945318798"/><circle cx="46" cy="582" r="1.7480598330051946" fill="#F5F5F5" opacity="0.5858653445921509"/><circle cx="430" cy="435" r="2.0403788122187296" fill="#FFA800" opacity="0.36173229008364727"/><circle cx="49" cy="206" r="2.5122086888443933" fill="#F5F5F5" opacity="0.8884583743423635"/><circle cx="853" cy="72" r="2.7582087469952894" fill="#F5F5F5" opacity="0.5968697172762578"/><circle cx="846" cy="157" r="2.423220516316274" fill="#FF3D2E" opacity="0.5845992633765311"/><circle cx="532" cy="444" r="2.5926535685494625" fill="#FFA800" opacity="0.4291217410581023"/><circle cx="6" cy="210" r="1.2587088573605572" fill="#F5F5F5" opacity="0.796317938010257"/><circle cx="421" cy="522" r="0.8348475088827296" fill="#F5F5F5" opacity="0.4056681282752861"/><circle cx="305" cy="790" r="1.2770555604087837" fill="#00E1FF" opacity="0.6018678672298314"/><circle cx="18" cy="467" r="2.1421344447056176" fill="#00E1FF" opacity="0.5519484641385946"/><circle cx="51" cy="573" r="1.6360785127578459" fill="#FF3D2E" opacity="0.5573727302449508"/><circle cx="281" cy="766" r="1.8660451860479057" fill="#F5F5F5" opacity="0.5537834217603155"/><circle cx="787" cy="816" r="2.9367007240686966" fill="#F5F5F5" opacity="0.7434970111226038"/><circle cx="757" cy="984" r="2.3748460778851666" fill="#F5F5F5" opacity="0.951036146847744"/><circle cx="677" cy="130" r="2.199926892981294" fill="#00E1FF" opacity="0.43626539277849447"/><circle cx="972" cy="773" r="2.627675385220976" fill="#00E1FF" opacity="0.5971589378721999"/><circle cx="688" cy="875" r="1.5214093989092037" fill="#FFA800" opacity="0.5932651631196377"/><circle cx="817" cy="907" r="1.687657491066918" fill="#FFA800" opacity="0.46506186706967273"/><circle cx="157" cy="87" r="2.962316679491117" fill="#F5F5F5" opacity="0.6765882007748392"/><circle cx="696" cy="143" r="0.673647262941643" fill="#00E1FF" opacity="0.46707045622146004"/><circle cx="831" cy="695" r="0.9535267602690829" fill="#00E1FF" opacity="0.6297035402879605"/><circle cx="400" cy="596" r="0.8647073676770168" fill="#00E1FF" opacity="0.43216595728500296"/><circle cx="240" cy="984" r="2.9896163486538554" fill="#00E1FF" opacity="0.4008468043232335"/><circle cx="156" cy="288" r="2.294779251970207" fill="#00E1FF" opacity="0.8460900882893052"/><circle cx="591" cy="838" r="2.851266835164374" fill="#FFA800" opacity="0.47007137311255576"/><circle cx="921" cy="393" r="2.5043409642171843" fill="#FF3D2E" opacity="0.5683662579811735"/><circle cx="472" cy="68" r="1.0876434835231032" fill="#00E1FF" opacity="0.6000253732692504"/><circle cx="34" cy="537" r="2.285361235575294" fill="#F5F5F5" opacity="0.7297534908840243"/><circle cx="298" cy="258" r="1.8362415213824113" fill="#00E1FF" opacity="0.49803827695611036"/><circle cx="112" cy="388" r="2.1189637344798684" fill="#FF3D2E" opacity="0.5346183471900933"/><circle cx="781" cy="275" r="1.2667448380800939" fill="#F5F5F5" opacity="0.7500221502967301"/><circle cx="772" cy="845" r="1.0002478305665403" fill="#FFA800" opacity="0.5420320899989253"/><circle cx="163" cy="152" r="2.225188716927168" fill="#00E1FF" opacity="0.7033514027385515"/><circle cx="193" cy="532" r="2.6992568216449375" fill="#FF3D2E" opacity="0.444981186996742"/><circle cx="832" cy="821" r="2.5945682577049443" fill="#F5F5F5" opacity="0.627375425696076"/><circle cx="430" cy="281" r="1.014820538097821" fill="#FFA800" opacity="0.6707602287140741"/><circle cx="230" cy="223" r="2.2183994271751213" fill="#FF3D2E" opacity="0.9553641631501202"/><circle cx="486" cy="248" r="2.16491229541121" fill="#00E1FF" opacity="0.692271134268"/><circle cx="859" cy="135" r="1.9773709815738345" fill="#FFA800" opacity="0.6700945412681185"/><circle cx="772" cy="832" r="2.302733140634672" fill="#FFA800" opacity="0.5114712540676345"/><circle cx="671" cy="301" r="0.9895767048425143" fill="#FF3D2E" opacity="0.8091390459637078"/><circle cx="449" cy="799" r="2.0557220961064724" fill="#F5F5F5" opacity="0.5609095219937856"/><circle cx="898" cy="300" r="1.3083856014219704" fill="#FF3D2E" opacity="0.836123887935105"/><circle cx="114" cy="731" r="2.009290706222439" fill="#00E1FF" opacity="0.39827496503451126"/><circle cx="965" cy="967" r="2.8102169997252857" fill="#00E1FF" opacity="0.33609848573765444"/><circle cx="944" cy="70" r="0.5748142317106926" fill="#00E1FF" opacity="0.8290304895804799"/><circle cx="686" cy="637" r="0.6165962304045842" fill="#F5F5F5" opacity="0.8718487167073372"/><circle cx="212" cy="685" r="1.0635185920029668" fill="#FFA800" opacity="0.9705147379766059"/><circle cx="842" cy="725" r="1.0204738248630059" fill="#FFA800" opacity="0.5417311743392375"/><circle cx="180" cy="860" r="1.453252487299553" fill="#FF3D2E" opacity="0.7498821054473181"/><circle cx="563" cy="179" r="1.0800478239836653" fill="#FFA800" opacity="0.8250466909579908"/><circle cx="198" cy="129" r="1.6516092418525703" fill="#00E1FF" opacity="0.6495855745895602"/><circle cx="463" cy="250" r="0.9960274747034266" fill="#FF3D2E" opacity="0.47261109427988257"/><circle cx="946" cy="155" r="2.3079842404305153" fill="#00E1FF" opacity="0.6727093542281257"/><circle cx="142" cy="389" r="0.8338066926156269" fill="#FFA800" opacity="0.6332604754975106"/><circle cx="609" cy="135" r="0.8599773655066374" fill="#F5F5F5" opacity="0.47831570906442666"/><circle cx="4" cy="291" r="2.756462775013188" fill="#FFA800" opacity="0.7247871113712399"/><circle cx="61" cy="290" r="0.616823108838317" fill="#FF3D2E" opacity="0.976924781790842"/><circle cx="795" cy="119" r="0.9044389678770938" fill="#F5F5F5" opacity="0.5645590987205207"/><circle cx="434" cy="927" r="1.7279391287005281" fill="#FF3D2E" opacity="0.39584518130045565"/><circle cx="689" cy="393" r="1.8246340536493106" fill="#FFA800" opacity="0.7939637703930477"/><circle cx="594" cy="422" r="1.1078492968762745" fill="#00E1FF" opacity="0.6760903121074828"/><circle cx="388" cy="477" r="0.9347387582477857" fill="#FF3D2E" opacity="0.4780675548105137"/><circle cx="551" cy="981" r="2.966740471796321" fill="#FF3D2E" opacity="0.5517894372225198"/><circle cx="189" cy="949" r="1.2076768716472748" fill="#FFA800" opacity="0.4508934813674433"/><circle cx="579" cy="493" r="0.9782571957283555" fill="#FF3D2E" opacity="0.41147294250824157"/><circle cx="647" cy="800" r="0.9754785749796364" fill="#FFA800" opacity="0.7093892797769326"/><circle cx="921" cy="271" r="2.7525528921104474" fill="#F5F5F5" opacity="0.6891333782443381"/>
  </svg>