<svg xmlns="http://www.w3.org/2000/svg" viewBox="0 0 2000 100">
    <rect width="2000" height="100" fill="#050505"/>
    <path d="M 0 50 L 20.359051277214146 54.627543496627524 L 126.20618281628144 68.27167928319068 L 237.87887064030804 77.44227073413595 L 352.5192336707524 79.89403722671375 L 466.5428004372507 75.02670081519531 L 576.5161127063749 64.03195520741221 L 679.997355803218 49.601697583308216 L 776.1342000050753 35.26895828209278 L 865.8724805836007 24.54289175646184 L 951.7246243431478 20.049613176537733 L 1037.1545199151155 22.889233847254797 L 1125.7294370136428 32.366515593188396 L 1220.2466343967064 46.16108931117786 L 1322.0484933643588 60.89556225248187 L 1430.69385599929 72.9624215583603 L 1544.0660360109061 79.40727922430324 L 1658.8910573612816 78.65220932141885 L 1771.5392377831492 70.8820792959167 L 1878.9138615885226 57.999287970798115 L 1979.2093636708494 43.157991965507016" fill="none" stroke="#00E1FF" stroke-width="2"/>
    <circle cx="0" cy="50" r="3" fill="#FF3D2E"/><circle cx="100" cy="50" r="3" fill="#FF3D2E"/><circle cx="200" cy="50" r="3" fill="#FF3D2E"/><circle cx="300" cy="50" r="3" fill="#FF3D2E"/><circle cx="400" cy="50" r="3" fill="#FF3D2E"/><circle cx="500" cy="50" r="3" fill="#FF3D2E"/><circle cx="600" cy="50" r="3" fill="#FF3D2E"/><circle cx="700" cy="50" r="3" fill="#FF3D2E"/><circle cx="800" cy="50" r="3" fill="#FF3D2E"/><circle cx="900" cy="50" r="3" fill="#FF3D2E"/><circle cx="1000" cy="50" r="3" fill="#FF3D2E"/><circle cx="1100" cy="50" r="3" fill="#FF3D2E"/><circle cx="1200" cy="50" r="3" fill="#FF3D2E"/><circle cx="1300" cy="50" r="3" fill="#FF3D2E"/><circle cx="1400" cy="50" r="3" fill="#FF3D2E"/><circle cx="1500" cy="50" r="3" fill="#FF3D2E"/><circle cx="1600" cy="50" r="3" fill="#FF3D2E"/><circle cx="1700" cy="50" r="3" fill="#FF3D2E"/><circle cx="1800" cy="50" r="3" fill="#FF3D2E"/><circle cx="1900" cy="50" r="3" fill="#FF3D2E"/><circle cx="2000" cy="50" r="3" fill="#FF3D2E"/>
  </svg>