<svg xmlns="http://www.w3.org/2000/svg" viewBox="0 0 1000 1000"><rect width="1000" height="1000" fill="#050505"/><circle cx="650" cy="500" r="33.333333333333336" fill="#FFA800" opacity="0.7"/><rect x="680.1154552577982" y="563.549427907434" width="60" height="60" fill="#00E1FF" opacity="0.7" transform="rotate(15 710.1154552577982 593.549427907434)"/><polygon points="707.4304879712461,690.3748958979922 742.4304879712461,750.3748958979922 672.4304879712461,750.3748958979922" fill="#FFA800" opacity="0.7"/><line x1="496.35254915624216" y1="642.658477444273" x2="596.3525491562422" y2="642.658477444273" stroke="#FF3D2E" stroke-width="4" opacity="0.8"/><circle cx="475.95845344843974" cy="728.7400359347029" r="33.333333333333336" fill="#FF3D2E" opacity="0.7"/><rect x="315.00000000000006" y="738.467875173176" width="60" height="60" fill="#00E1FF" opacity="0.7" transform="rotate(75 345.00000000000006 768.467875173176)"/><polygon points="378.6474508437579,548.167787843871 413.6474508437579,608.167787843871 343.6474508437579,608.167787843871" fill="#FFA800" opacity="0.7"/><line x1="225.02605183122466" y1="547.8196888880847" x2="325.02605183122466" y2="547.8196888880847" stroke="#00E1FF" stroke-width="4" opacity="0.8"/><circle cx="196.7742437725202" cy="435.5473758464947" r="33.333333333333336" fill="#00E1FF" opacity="0.7"/><rect x="348.6474508437579" y="381.83221215612906" width="60" height="60" fill="#00E1FF" opacity="0.7" transform="rotate(135 378.6474508437579 411.83221215612906)"/><polygon points="384.9999999999999,260.81415712957914 419.9999999999999,320.81415712957914 349.9999999999999,320.81415712957914" fill="#FF3D2E" opacity="0.7"/><line x1="417.5961763870272" y1="191.69821243583527" x2="517.5961763870272" y2="191.69821243583527" stroke="#FFA800" stroke-width="4" opacity="0.8"/><circle cx="546.352549156242" cy="357.34152255572695" r="33.333333333333336" fill="#00E1FF" opacity="0.7"/><rect x="623.9000394625375" y="299.0766901401994" width="60" height="60" fill="#FF3D2E" opacity="0.7" transform="rotate(195 653.9000394625375 329.0766901401994)"/><polygon points="783.1990918692063,333.91164064650195 818.1990918692063,393.91164064650195 748.1990918692063,393.91164064650195" fill="#FF3D2E" opacity="0.7"/><circle cx="500" cy="500" r="80" fill="#F5F5F5" opacity="0.9"/><circle cx="500" cy="500" r="40" fill="#050505"/></svg>