<svg xmlns="http://www.w3.org/2000/svg" viewBox="0 0 1000 1000"><rect width="1000" height="1000" fill="#050505"/><line x1="423" y1="613" x2="616" y2="630" stroke="#00E1FF" stroke-width="0.5" opacity="0.03126370977442994"/><line x1="423" y1="613" x2="248" y2="588" stroke="#00E1FF" stroke-width="0.5" opacity="0.11611652351681556"/><line x1="423" y1="613" x2="271" y2="714" stroke="#00E1FF" stroke-width="0.5" opacity="0.08751712344833551"/><line x1="423" y1="613" x2="298" y2="477" stroke="#00E1FF" stroke-width="0.5" opacity="0.07640647468705153"/><line x1="423" y1="613" x2="263" y2="697" stroke="#00E1FF" stroke-width="0.5" opacity="0.09645144015387852"/><line x1="423" y1="613" x2="229" y2="633" stroke="#00E1FF" stroke-width="0.5" opacity="0.024858984556592523"/><line x1="423" y1="613" x2="526" y2="671" stroke="#00E1FF" stroke-width="0.5" opacity="0.4089627761299631"/><line x1="844" y1="469" x2="897" y2="279" stroke="#00E1FF" stroke-width="0.5" opacity="0.013731780903389224"/><line x1="844" y1="469" x2="814" y2="379" stroke="#00E1FF" stroke-width="0.5" opacity="0.525658350974743"/><line x1="844" y1="469" x2="837" y2="645" stroke="#00E1FF" stroke-width="0.5" opacity="0.11930425230957331"/><line x1="844" y1="469" x2="859" y2="283" stroke="#00E1FF" stroke-width="0.5" opacity="0.06698070759496089"/><line x1="897" y1="279" x2="814" y2="379" stroke="#00E1FF" stroke-width="0.5" opacity="0.3502115728946845"/><line x1="897" y1="279" x2="775" y2="243" stroke="#00E1FF" stroke-width="0.5" opacity="0.3639968553536861"/><line x1="897" y1="279" x2="713" y2="308" stroke="#00E1FF" stroke-width="0.5" opacity="0.06864346246993047"/><line x1="897" y1="279" x2="786" y2="133" stroke="#00E1FF" stroke-width="0.5" opacity="0.08298037098435007"/><line x1="897" y1="279" x2="859" y2="283" stroke="#00E1FF" stroke-width="0.5" opacity="0.808950268254572"/><line x1="897" y1="279" x2="848" y2="199" stroke="#00E1FF" stroke-width="0.5" opacity="0.5309317746851744"/><line x1="734" y1="831" x2="804" y2="887" stroke="#00E1FF" stroke-width="0.5" opacity="0.5517813033797005"/><line x1="734" y1="831" x2="741" y2="754" stroke="#00E1FF" stroke-width="0.5" opacity="0.6134123643984459"/><line x1="734" y1="831" x2="546" y2="862" stroke="#00E1FF" stroke-width="0.5" opacity="0.04730645011105494"/><line x1="734" y1="831" x2="617" y2="809" stroke="#00E1FF" stroke-width="0.5" opacity="0.4047479525444705"/><line x1="734" y1="831" x2="727" y2="817" stroke="#00E1FF" stroke-width="0.5" opacity="0.9217376207875073"/><line x1="168" y1="863" x2="352" y2="842" stroke="#00E1FF" stroke-width="0.5" opacity="0.07402753820645391"/><line x1="168" y1="863" x2="271" y2="714" stroke="#00E1FF" stroke-width="0.5" opacity="0.09432345729835745"/><line x1="168" y1="863" x2="120" y2="890" stroke="#00E1FF" stroke-width="0.5" opacity="0.7246366037397127"/><line x1="168" y1="863" x2="263" y2="697" stroke="#00E1FF" stroke-width="0.5" opacity="0.043691995223296254"/><line x1="168" y1="863" x2="193" y2="740" stroke="#00E1FF" stroke-width="0.5" opacity="0.3724253032506808"/><line x1="602" y1="395" x2="713" y2="308" stroke="#00E1FF" stroke-width="0.5" opacity="0.29484044358741057"/><line x1="602" y1="395" x2="510" y2="233" stroke="#00E1FF" stroke-width="0.5" opacity="0.06849584005223042"/><line x1="496" y1="135" x2="563" y2="115" stroke="#00E1FF" stroke-width="0.5" opacity="0.6503930778717333"/><line x1="496" y1="135" x2="580" y2="172" stroke="#00E1FF" stroke-width="0.5" opacity="0.5410610062328546"/><line x1="496" y1="135" x2="510" y2="233" stroke="#00E1FF" stroke-width="0.5" opacity="0.5050252531694167"/><line x1="496" y1="135" x2="406" y2="186" stroke="#00E1FF" stroke-width="0.5" opacity="0.4827718105129999"/><line x1="496" y1="135" x2="516" y2="178" stroke="#00E1FF" stroke-width="0.5" opacity="0.7628818859724125"/><line x1="814" y1="379" x2="775" y2="243" stroke="#00E1FF" stroke-width="0.5" opacity="0.29259276226490305"/><line x1="814" y1="379" x2="713" y2="308" stroke="#00E1FF" stroke-width="0.5" opacity="0.3827075247502202"/><line x1="814" y1="379" x2="859" y2="283" stroke="#00E1FF" stroke-width="0.5" opacity="0.4698820885878312"/><line x1="814" y1="379" x2="848" y2="199" stroke="#00E1FF" stroke-width="0.5" opacity="0.08408515679676865"/><line x1="274" y1="380" x2="131" y2="342" stroke="#00E1FF" stroke-width="0.5" opacity="0.2601858341448171"/><line x1="274" y1="380" x2="317" y2="324" stroke="#00E1FF" stroke-width="0.5" opacity="0.6469773378379229"/><line x1="274" y1="380" x2="298" y2="477" stroke="#00E1FF" stroke-width="0.5" opacity="0.5003751407305677"/><line x1="274" y1="380" x2="264" y2="435" stroke="#00E1FF" stroke-width="0.5" opacity="0.7204915028125263"/><line x1="274" y1="380" x2="296" y2="294" stroke="#00E1FF" stroke-width="0.5" opacity="0.5561531795765571"/><line x1="563" y1="115" x2="580" y2="172" stroke="#00E1FF" stroke-width="0.5" opacity="0.7025945528407389"/><line x1="563" y1="115" x2="510" y2="233" stroke="#00E1FF" stroke-width="0.5" opacity="0.35321951173524113"/><line x1="563" y1="115" x2="406" y2="186" stroke="#00E1FF" stroke-width="0.5" opacity="0.1384606799454826"/><line x1="563" y1="115" x2="516" y2="178" stroke="#00E1FF" stroke-width="0.5" opacity="0.6069987277374282"/><line x1="804" y1="887" x2="741" y2="754" stroke="#00E1FF" stroke-width="0.5" opacity="0.26416713854299767"/><line x1="804" y1="887" x2="727" y2="817" stroke="#00E1FF" stroke-width="0.5" opacity="0.4796875938438524"/><line x1="837" y1="645" x2="741" y2="754" stroke="#00E1FF" stroke-width="0.5" opacity="0.2737596816480098"/><line x1="741" y1="754" x2="616" y2="630" stroke="#00E1FF" stroke-width="0.5" opacity="0.11964495798569985"/><line x1="741" y1="754" x2="617" y2="809" stroke="#00E1FF" stroke-width="0.5" opacity="0.3217485716933579"/><line x1="741" y1="754" x2="727" y2="817" stroke="#00E1FF" stroke-width="0.5" opacity="0.6773159439947489"/><line x1="546" y1="862" x2="352" y2="842" stroke="#00E1FF" stroke-width="0.5" opacity="0.024858984556592523"/><line x1="546" y1="862" x2="617" y2="809" stroke="#00E1FF" stroke-width="0.5" opacity="0.5569988713332663"/><line x1="546" y1="862" x2="526" y2="671" stroke="#00E1FF" stroke-width="0.5" opacity="0.03977867134706914"/><line x1="546" y1="862" x2="727" y2="817" stroke="#00E1FF" stroke-width="0.5" opacity="0.06744973325830839"/><line x1="775" y1="243" x2="713" y2="308" stroke="#00E1FF" stroke-width="0.5" opacity="0.5508619365941025"/><line x1="775" y1="243" x2="786" y2="133" stroke="#00E1FF" stroke-width="0.5" opacity="0.44725684083835104"/><line x1="775" y1="243" x2="859" y2="283" stroke="#00E1FF" stroke-width="0.5" opacity="0.5348118660154797"/><line x1="775" y1="243" x2="848" y2="199" stroke="#00E1FF" stroke-width="0.5" opacity="0.5738251532527994"/><line x1="713" y1="308" x2="580" y2="172" stroke="#00E1FF" stroke-width="0.5" opacity="0.04888223652378354"/><line x1="713" y1="308" x2="786" y2="133" stroke="#00E1FF" stroke-width="0.5" opacity="0.051922998907789286"/><line x1="713" y1="308" x2="859" y2="283" stroke="#00E1FF" stroke-width="0.5" opacity="0.259375263713127"/><line x1="713" y1="308" x2="848" y2="199" stroke="#00E1FF" stroke-width="0.5" opacity="0.13244596710060763"/><line x1="352" y1="842" x2="271" y2="714" stroke="#00E1FF" stroke-width="0.5" opacity="0.2426196464127156"/><line x1="352" y1="842" x2="263" y2="697" stroke="#00E1FF" stroke-width="0.5" opacity="0.1493237983815464"/><line x1="352" y1="842" x2="193" y2="740" stroke="#00E1FF" stroke-width="0.5" opacity="0.055476310514130045"/><line x1="616" y1="630" x2="617" y2="809" stroke="#00E1FF" stroke-width="0.5" opacity="0.10498603362852477"/><line x1="616" y1="630" x2="526" y2="671" stroke="#00E1FF" stroke-width="0.5" opacity="0.5055053084208083"/><line x1="580" y1="172" x2="510" y2="233" stroke="#00E1FF" stroke-width="0.5" opacity="0.5357532983423576"/><line x1="580" y1="172" x2="406" y2="186" stroke="#00E1FF" stroke-width="0.5" opacity="0.12718845103882825"/><line x1="580" y1="172" x2="516" y2="178" stroke="#00E1FF" stroke-width="0.5" opacity="0.678596826400236"/><line x1="131" y1="342" x2="317" y2="324" stroke="#00E1FF" stroke-width="0.5" opacity="0.06565530985615364"/><line x1="131" y1="342" x2="264" y2="435" stroke="#00E1FF" stroke-width="0.5" opacity="0.18855067933973846"/><line x1="131" y1="342" x2="296" y2="294" stroke="#00E1FF" stroke-width="0.5" opacity="0.14079979050281888"/><line x1="164" y1="601" x2="248" y2="588" stroke="#00E1FF" stroke-width="0.5" opacity="0.575"/><line x1="164" y1="601" x2="271" y2="714" stroke="#00E1FF" stroke-width="0.5" opacity="0.22189332350891622"/><line x1="164" y1="601" x2="298" y2="477" stroke="#00E1FF" stroke-width="0.5" opacity="0.08714732842588446"/><line x1="164" y1="601" x2="264" y2="435" stroke="#00E1FF" stroke-width="0.5" opacity="0.031031476259419266"/><line x1="164" y1="601" x2="263" y2="697" stroke="#00E1FF" stroke-width="0.5" opacity="0.3104893039263277"/><line x1="164" y1="601" x2="229" y2="633" stroke="#00E1FF" stroke-width="0.5" opacity="0.637750086266401"/><line x1="164" y1="601" x2="193" y2="740" stroke="#00E1FF" stroke-width="0.5" opacity="0.2900352121407711"/><line x1="510" y1="233" x2="406" y2="186" stroke="#00E1FF" stroke-width="0.5" opacity="0.42936438947433364"/><line x1="510" y1="233" x2="516" y2="178" stroke="#00E1FF" stroke-width="0.5" opacity="0.723368476127539"/><line x1="786" y1="133" x2="859" y2="283" stroke="#00E1FF" stroke-width="0.5" opacity="0.16589868720880208"/><line x1="786" y1="133" x2="848" y2="199" stroke="#00E1FF" stroke-width="0.5" opacity="0.5472307430931291"/><line x1="617" y1="809" x2="526" y2="671" stroke="#00E1FF" stroke-width="0.5" opacity="0.1734862372591729"/><line x1="617" y1="809" x2="727" y2="817" stroke="#00E1FF" stroke-width="0.5" opacity="0.44854737284151047"/><line x1="248" y1="588" x2="271" y2="714" stroke="#00E1FF" stroke-width="0.5" opacity="0.35958997509408075"/><line x1="248" y1="588" x2="298" y2="477" stroke="#00E1FF" stroke-width="0.5" opacity="0.3912923526026637"/><line x1="248" y1="588" x2="264" y2="435" stroke="#00E1FF" stroke-width="0.5" opacity="0.2308283676577768"/><line x1="248" y1="588" x2="263" y2="697" stroke="#00E1FF" stroke-width="0.5" opacity="0.44986365326402944"/><line x1="248" y1="588" x2="229" y2="633" stroke="#00E1FF" stroke-width="0.5" opacity="0.7557665051636038"/><line x1="248" y1="588" x2="193" y2="740" stroke="#00E1FF" stroke-width="0.5" opacity="0.19177663978328352"/><line x1="859" y1="283" x2="848" y2="199" stroke="#00E1FF" stroke-width="0.5" opacity="0.57641411732684"/><line x1="317" y1="324" x2="298" y2="477" stroke="#00E1FF" stroke-width="0.5" opacity="0.22912387506162835"/><line x1="317" y1="324" x2="264" y2="435" stroke="#00E1FF" stroke-width="0.5" opacity="0.3849796751326018"/><line x1="317" y1="324" x2="406" y2="186" stroke="#00E1FF" stroke-width="0.5" opacity="0.17894884446826342"/><line x1="317" y1="324" x2="296" y2="294" stroke="#00E1FF" stroke-width="0.5" opacity="0.8169016657639945"/><line x1="271" y1="714" x2="263" y2="697" stroke="#00E1FF" stroke-width="0.5" opacity="0.9060585288597203"/><line x1="271" y1="714" x2="229" y2="633" stroke="#00E1FF" stroke-width="0.5" opacity="0.5437928102276335"/><line x1="271" y1="714" x2="193" y2="740" stroke="#00E1FF" stroke-width="0.5" opacity="0.5889039041781107"/><line x1="298" y1="477" x2="264" y2="435" stroke="#00E1FF" stroke-width="0.5" opacity="0.7298148782778741"/><line x1="298" y1="477" x2="296" y2="294" stroke="#00E1FF" stroke-width="0.5" opacity="0.0849453568228834"/><line x1="298" y1="477" x2="229" y2="633" stroke="#00E1FF" stroke-width="0.5" opacity="0.14710786145023003"/><line x1="264" y1="435" x2="296" y2="294" stroke="#00E1FF" stroke-width="0.5" opacity="0.2770719261226605"/><line x1="406" y1="186" x2="296" y2="294" stroke="#00E1FF" stroke-width="0.5" opacity="0.2292211730982746"/><line x1="406" y1="186" x2="516" y2="178" stroke="#00E1FF" stroke-width="0.5" opacity="0.44854737284151047"/><line x1="120" y1="890" x2="193" y2="740" stroke="#00E1FF" stroke-width="0.5" opacity="0.16589868720880208"/><line x1="263" y1="697" x2="229" y2="633" stroke="#00E1FF" stroke-width="0.5" opacity="0.6376465813601313"/><line x1="263" y1="697" x2="193" y2="740" stroke="#00E1FF" stroke-width="0.5" opacity="0.5892385120291825"/><line x1="229" y1="633" x2="193" y2="740" stroke="#00E1FF" stroke-width="0.5" opacity="0.43553122318413395"/><circle cx="423" cy="613" r="4" fill="#00E1FF"/><circle cx="844" cy="469" r="4" fill="#00E1FF"/><circle cx="897" cy="279" r="4" fill="#00E1FF"/><circle cx="734" cy="831" r="4" fill="#00E1FF"/><circle cx="168" cy="863" r="4" fill="#00E1FF"/><circle cx="602" cy="395" r="4" fill="#00E1FF"/><circle cx="496" cy="135" r="4" fill="#00E1FF"/><circle cx="814" cy="379" r="4" fill="#00E1FF"/><circle cx="274" cy="380" r="4" fill="#00E1FF"/><circle cx="563" cy="115" r="4" fill="#00E1FF"/><circle cx="804" cy="887" r="4" fill="#00E1FF"/><circle cx="837" cy="645" r="4" fill="#00E1FF"/><circle cx="741" cy="754" r="4" fill="#00E1FF"/><circle cx="546" cy="862" r="4" fill="#00E1FF"/><circle cx="775" cy="243" r="4" fill="#00E1FF"/><circle cx="713" cy="308" r="4" fill="#00E1FF"/><circle cx="352" cy="842" r="4" fill="#00E1FF"/><circle cx="616" cy="630" r="4" fill="#00E1FF"/><circle cx="580" cy="172" r="4" fill="#00E1FF"/><circle cx="131" cy="342" r="4" fill="#00E1FF"/><circle cx="164" cy="601" r="4" fill="#00E1FF"/><circle cx="510" cy="233" r="4" fill="#00E1FF"/><circle cx="786" cy="133" r="4" fill="#00E1FF"/><circle cx="617" cy="809" r="4" fill="#00E1FF"/><circle cx="248" cy="588" r="4" fill="#00E1FF"/><circle cx="859" cy="283" r="4" fill="#00E1FF"/><circle cx="317" cy="324" r="4" fill="#00E1FF"/><circle cx="271" cy="714" r="4" fill="#00E1FF"/><circle cx="298" cy="477" r="4" fill="#00E1FF"/><circle cx="264" cy="435" r="4" fill="#00E1FF"/><circle cx="406" cy="186" r="4" fill="#00E1FF"/><circle cx="120" cy="890" r="4" fill="#00E1FF"/><circle cx="296" cy="294" r="4" fill="#00E1FF"/><circle cx="263" cy="697" r="4" fill="#00E1FF"/><circle cx="229" cy="633" r="4" fill="#00E1FF"/><circle cx="526" cy="671" r="4" fill="#00E1FF"/><circle cx="727" cy="817" r="4" fill="#00E1FF"/><circle cx="516" cy="178" r="4" fill="#00E1FF"/><circle cx="848" cy="199" r="4" fill="#00E1FF"/><circle cx="193" cy="740" r="4" fill="#00E1FF"/><circle cx="500" cy="500" r="60" fill="#FF3D2E"/><text x="500" y="520" text-anchor="middle" fill="#F5F5F5" font-size="60" font-weight="900" font-family="Arial">🧠</text></svg>