<svg xmlns="http://www.w3.org/2000/svg" viewBox="0 0 1000 1000"><rect width="1000" height="1000" fill="#050505"/><path d="M 0 500 L 0 432.2420707924071 L 20 361.0423973040796 L 40 309.74355861089947 L 60 319.37498698046414 L 80 392.943721830434 L 100 490.79698201482296 L 120 562.6603799401688 L 140 587.5935546770324 L 160 586.1175271268339 L 180 594.4888419969433 L 200 625.8556054197592 L 220 654.8782642100085 L 240 640.4742741251602 L 260 565.8625258490015 L 280 458.7319602072281 L 300 372.2430768078255 L 320 343.3097916007995 L 340 365.38711887129324 L 360 399.7216436164876 L 380 413.89496950989616 L 400 411.76345915272464 L 420 427.2465861410665 L 440 488.0957820752918 L 460 583.7511457345086 L 480 667.8849420463296 L 500 694.4246411886131 L 520 654.9734140494919 L 540 584.0035140760527 L 560 527.4466725824786 L 580 503.5145117345522 L 600 491.28900495102243 L 620 456.7307191026869 L 640 391.123151007901 L 660 325.47899968599586 L 680 306.65410109853826 L 700 356.399283026224 L 720 450.66125449813217 L 740 538.2739479699673 L 760 582.3960194026594 L 780 587.4818628450811 L 800 588.0785893497666 L 820 610.8711212250877 L 840 645.848618810241 L 860 653.7805029637781 L 880 603.4014496622843 L 900 503.9413605650435 L 920 402.4948717409332 L 940 347.72441723212376 L 960 352.16267608530177 L 980 386.66150890846285 L 1000 411.1482495527821" fill="none" stroke="#FF3D2E" stroke-width="6"/><path d="M 0 500 L 0 432.2420707924071 L 20 361.0423973040796 L 40 309.74355861089947 L 60 319.37498698046414 L 80 392.943721830434 L 100 490.79698201482296 L 120 562.6603799401688 L 140 587.5935546770324 L 160 586.1175271268339 L 180 594.4888419969433 L 200 625.8556054197592 L 220 654.8782642100085 L 240 640.4742741251602 L 260 565.8625258490015 L 280 458.7319602072281 L 300 372.2430768078255 L 320 343.3097916007995 L 340 365.38711887129324 L 360 399.7216436164876 L 380 413.89496950989616 L 400 411.76345915272464 L 420 427.2465861410665 L 440 488.0957820752918 L 460 583.7511457345086 L 480 667.8849420463296 L 500 694.4246411886131 L 520 654.9734140494919 L 540 584.0035140760527 L 560 527.4466725824786 L 580 503.5145117345522 L 600 491.28900495102243 L 620 456.7307191026869 L 640 391.123151007901 L 660 325.47899968599586 L 680 306.65410109853826 L 700 356.399283026224 L 720 450.66125449813217 L 740 538.2739479699673 L 760 582.3960194026594 L 780 587.4818628450811 L 800 588.0785893497666 L 820 610.8711212250877 L 840 645.848618810241 L 860 653.7805029637781 L 880 603.4014496622843 L 900 503.9413605650435 L 920 402.4948717409332 L 940 347.72441723212376 L 960 352.16267608530177 L 980 386.66150890846285 L 1000 411.1482495527821 L 1000 1000 L 0 1000 Z" fill="#FF3D2E" opacity="0.2"/><circle cx="500" cy="500" r="20" fill="#00E1FF"/></svg>