<svg xmlns="http://www.w3.org/2000/svg" viewBox="0 0 1000 1000">
    <rect width="1000" height="1000" fill="#050505"/>
    <circle cx="211" cy="798" r="2.088966055783447" fill="#F5F5F5" opacity="0.9292701349034138"/><circle cx="984" cy="562" r="2.2113941478706955" fill="#FFA800" opacity="0.684492234872788"/><circle cx="689" cy="681" r="2.7536623393947366" fill="#F5F5F5" opacity="0.9312272936673545"/><circle cx="397" cy="451" r="1.8691784747559665" fill="#00E1FF" opacity="0.5569584330387398"/><circle cx="693" cy="187" r="2.1307491522473243" fill="#F5F5F5" opacity="0.859781883618808"/><circle cx="748" cy="125" r="1.2819631128952005" fill="#F5F5F5" opacity="0.8241754761544073"/><circle cx="913" cy="437" r="1.281615313496431" fill="#F5F5F5" opacity="0.4413475793155631"/><circle cx="760" cy="167" r="2.909389650625604" fill="#F5F5F5" opacity="0.8114735393908634"/><circle cx="785" cy="974" r="0.749961365417839" fill="#00E1FF" opacity="0.8050516712595481"/><circle cx="860" cy="361" r="1.7950834678938188" fill="#F5F5F5" opacity="0.36844718930939657"/><circle cx="185" cy="24" r="1.5830647590698483" fill="#FF3D2E" opacity="0.39018442513814006"/><circle cx="151" cy="867" r="2.4434953480485317" fill="#F5F5F5" opacity="0.76017780369282"/><circle cx="196" cy="671" r="2.5855123688442334" fill="#F5F5F5" opacity="0.8510478140764173"/><circle cx="412" cy="230" r="1.9607267909036499" fill="#00E1FF" opacity="0.7737346159330435"/><circle cx="462" cy="766" r="0.7697338648570535" fill="#FF3D2E" opacity="0.34762859804921603"/><circle cx="712" cy="924" r="1.467511900111917" fill="#F5F5F5" opacity="0.8606507960028298"/><circle cx="125" cy="532" r="1.1019680456273901" fill="#FFA800" opacity="0.9212242135058546"/><circle cx="181" cy="24" r="2.0553378214459084" fill="#F5F5F5" opacity="0.735541757059561"/><circle cx="606" cy="900" r="0.6429165754310519" fill="#00E1FF" opacity="0.8967485912782505"/><circle cx="884" cy="798" r="0.6838559611458013" fill="#FFA800" opacity="0.5829227898896479"/><circle cx="845" cy="224" r="2.241490163410634" fill="#F5F5F5" opacity="0.8669275814584978"/><circle cx="707" cy="169" r="1.8952360189737845" fill="#FFA800" opacity="0.3257395607085359"/><circle cx="621" cy="714" r="1.3757509124154161" fill="#FF3D2E" opacity="0.6089098707991181"/><circle cx="378" cy="123" r="1.9409649149227781" fill="#00E1FF" opacity="0.9041184511595448"/><circle cx="947" cy="52" r="0.6221862287670411" fill="#FF3D2E" opacity="0.48841905698556054"/><circle cx="593" cy="468" r="1.3784898300261823" fill="#FF3D2E" opacity="0.3478111240911859"/><circle cx="758" cy="284" r="1.4002232070674094" fill="#FFA800" opacity="0.5014651745502973"/><circle cx="344" cy="78" r="2.365119918827942" fill="#FF3D2E" opacity="0.7065360190465007"/><circle cx="553" cy="283" r="1.2220126838027436" fill="#00E1FF" opacity="0.561611762166019"/><circle cx="74" cy="135" r="2.7160273272012927" fill="#00E1FF" opacity="0.5170164047200447"/><circle cx="352" cy="695" r="1.4132226435511248" fill="#00E1FF" opacity="0.7169664415087966"/><circle cx="51" cy="340" r="0.9519148036969539" fill="#00E1FF" opacity="0.44863145267652327"/><circle cx="878" cy="607" r="2.3708082345591497" fill="#FFA800" opacity="0.9186336571876972"/><circle cx="0" cy="25" r="1.4274641712191034" fill="#F5F5F5" opacity="0.4266848689989293"/><circle cx="662" cy="811" r="1.359719103105598" fill="#FFA800" opacity="0.38840623356043324"/><circle cx="909" cy="503" r="1.6700547113660398" fill="#00E1FF" opacity="0.7829595146318737"/><circle cx="619" cy="529" r="1.6975811092440543" fill="#FFA800" opacity="0.5177932270468412"/><circle cx="451" cy="127" r="2.936759968471953" fill="#F5F5F5" opacity="0.8378776286563168"/><circle cx="641" cy="42" r="2.1501864861320374" fill="#FF3D2E" opacity="0.3480756623359307"/><circle cx="597" cy="667" r="2.3082623312691677" fill="#F5F5F5" opacity="0.33878296980029243"/><circle cx="360" cy="600" r="2.3470929479607623" fill="#FF3D2E" opacity="0.8707956340240759"/><circle cx="86" cy="598" r="1.4117128912913453" fill="#00E1FF" opacity="0.5520759997684673"/><circle cx="221" cy="17" r="1.1874950163075433" fill="#FF3D2E" opacity="0.5708096116105459"/><circle cx="214" cy="933" r="1.5522105385498297" fill="#00E1FF" opacity="0.6962901417904728"/><circle cx="108" cy="638" r="2.0090474884421607" fill="#FFA800" opacity="0.32661859650086006"/><circle cx="72" cy="646" r="2.7900174159357247" fill="#00E1FF" opacity="0.36167283385990034"/><circle cx="314" cy="556" r="1.2954712391873726" fill="#FFA800" opacity="0.9727719831247683"/><circle cx="815" cy="361" r="2.2589191264325716" fill="#F5F5F5" opacity="0.7990566349052968"/><circle cx="488" cy="215" r="1.7055126408514143" fill="#FF3D2E" opacity="0.4918652982780934"/><circle cx="463" cy="338" r="1.9592032754073914" fill="#FFA800" opacity="0.43809619048725934"/><circle cx="854" cy="413" r="0.9265414466604994" fill="#F5F5F5" opacity="0.44505121031897654"/><circle cx="42" cy="88" r="0.9982361749107095" fill="#00E1FF" opacity="0.9240718020893128"/><circle cx="672" cy="419" r="1.370200579962583" fill="#FF3D2E" opacity="0.9403797691494984"/><circle cx="534" cy="5" r="2.3122736186134" fill="#FFA800" opacity="0.4125615536701839"/><circle cx="767" cy="675" r="1.956538434432853" fill="#F5F5F5" opacity="0.6546330188744494"/><circle cx="553" cy="743" r="1.4305645303472299" fill="#00E1FF" opacity="0.879264016749324"/><circle cx="461" cy="793" r="1.3187404073122184" fill="#FFA800" opacity="0.7772566451704994"/><circle cx="114" cy="227" r="1.59382073307287" fill="#00E1FF" opacity="0.7076258591415987"/><circle cx="413" cy="376" r="1.0538881398639262" fill="#FFA800" opacity="0.7324613273086212"/><circle cx="838" cy="695" r="1.4439018416086058" fill="#FF3D2E" opacity="0.9382163073190699"/><circle cx="660" cy="117" r="2.168053900122473" fill="#FFA800" opacity="0.5161233289228482"/><circle cx="816" cy="291" r="1.2249777955266379" fill="#F5F5F5" opacity="0.5675591014654761"/><circle cx="100" cy="700" r="1.047544232852577" fill="#FF3D2E" opacity="0.6119219677378146"/><circle cx="19" cy="765" r="0.8958421754308344" fill="#00E1FF" opacity="0.5572549698447878"/><circle cx="737" cy="285" r="2.0144456725041118" fill="#FF3D2E" opacity="0.9673550969722846"/><circle cx="121" cy="552" r="2.192410481878905" fill="#00E1FF" opacity="0.9923324270393119"/><circle cx="570" cy="58" r="2.982476645605092" fill="#F5F5F5" opacity="0.3654411711286574"/><circle cx="591" cy="802" r="1.1791434057296386" fill="#FF3D2E" opacity="0.9713798178369468"/><circle cx="322" cy="524" r="1.7502197410564948" fill="#F5F5F5" opacity="0.5481076482931144"/><circle cx="695" cy="735" r="2.9043378146011953" fill="#F5F5F5" opacity="0.826174328581945"/><circle cx="801" cy="381" r="2.993935324957979" fill="#FF3D2E" opacity="0.8499833994460055"/><circle cx="437" cy="56" r="2.8323823694056096" fill="#F5F5F5" opacity="0.859722406112998"/><circle cx="553" cy="823" r="2.00906496420302" fill="#FFA800" opacity="0.808062992366736"/><circle cx="213" cy="294" r="2.972660393432375" fill="#00E1FF" opacity="0.9308816504170554"/><circle cx="689" cy="943" r="1.9369594517511708" fill="#FF3D2E" opacity="0.4313803116024779"/><circle cx="379" cy="994" r="1.280202988935268" fill="#F5F5F5" opacity="0.8134902444191883"/><circle cx="25" cy="477" r="1.6523682002450841" fill="#F5F5F5" opacity="0.7455571823622822"/><circle cx="987" cy="592" r="1.3415550704093882" fill="#FFA800" opacity="0.9678754229570168"/><circle cx="435" cy="843" r="1.325172640433759" fill="#F5F5F5" opacity="0.7444878251090209"/><circle cx="42" cy="35" r="2.9966555791872076" fill="#FFA800" opacity="0.8442196860435771"/><circle cx="449" cy="90" r="1.2039166009130486" fill="#00E1FF" opacity="0.8092988943044641"/><circle cx="820" cy="1" r="1.0591809505925411" fill="#FFA800" opacity="0.4679750956111848"/><circle cx="641" cy="486" r="1.5958244372471049" fill="#FFA800" opacity="0.7326826027083172"/><circle cx="229" cy="404" r="2.178475130666275" fill="#F5F5F5" opacity="0.7918246727336514"/><circle cx="335" cy="561" r="0.6809387753790115" fill="#F5F5F5" opacity="0.49901786496188244"/><circle cx="191" cy="953" r="1.3981633292467905" fill="#00E1FF" opacity="0.5386844227880845"/><circle cx="621" cy="462" r="2.69987721195219" fill="#F5F5F5" opacity="0.5099788767341971"/><circle cx="835" cy="263" r="0.6689939284155784" fill="#00E1FF" opacity="0.36363226688592654"/><circle cx="628" cy="342" r="0.8407754999803442" fill="#FFA800" opacity="0.7483594602967581"/><circle cx="911" cy="528" r="0.6188434315425413" fill="#F5F5F5" opacity="0.3528727857353469"/><circle cx="647" cy="530" r="1.836831053380057" fill="#FFA800" opacity="0.5581635137952821"/><circle cx="135" cy="23" r="2.1773687449232777" fill="#F5F5F5" opacity="0.4360878478343395"/><circle cx="888" cy="993" r="1.4992445948318762" fill="#00E1FF" opacity="0.6093445069968915"/><circle cx="712" cy="691" r="1.0659622682323802" fill="#00E1FF" opacity="0.31456646536578436"/><circle cx="160" cy="463" r="2.197529240434925" fill="#00E1FF" opacity="0.5391345911006031"/><circle cx="591" cy="830" r="2.4125910105346144" fill="#FF3D2E" opacity="0.30061691278548036"/><circle cx="705" cy="678" r="2.729353484536003" fill="#FFA800" opacity="0.43410124187092103"/><circle cx="353" cy="320" r="2.2075981634533575" fill="#FF3D2E" opacity="0.48144340076443154"/><circle cx="385" cy="422" r="2.7967677064281373" fill="#00E1FF" opacity="0.7889491797967729"/><circle cx="796" cy="313" r="2.390984282905828" fill="#00E1FF" opacity="0.5502991381780398"/><circle cx="284" cy="518" r="0.7591010448720243" fill="#FFA800" opacity="0.5559633207987424"/><circle cx="30" cy="908" r="1.5839231328921501" fill="#00E1FF" opacity="0.6715605164519192"/><circle cx="494" cy="621" r="2.3884787344868132" fill="#00E1FF" opacity="0.673430354265681"/><circle cx="905" cy="782" r="1.7875329474628627" fill="#F5F5F5" opacity="0.37724646322386673"/><circle cx="157" cy="780" r="1.2536815509023636" fill="#F5F5F5" opacity="0.6385250888300604"/><circle cx="317" cy="280" r="2.096815499237988" fill="#F5F5F5" opacity="0.47942392620220514"/><circle cx="11" cy="202" r="1.394245928071113" fill="#00E1FF" opacity="0.4845615255057438"/><circle cx="772" cy="211" r="2.9338925009775436" fill="#F5F5F5" opacity="0.5068170042852962"/><circle cx="774" cy="536" r="2.0551885405325327" fill="#FF3D2E" opacity="0.4879360423747446"/><circle cx="830" cy="19" r="2.778842992514038" fill="#F5F5F5" opacity="0.723546953784244"/><circle cx="499" cy="968" r="1.8115513491633761" fill="#00E1FF" opacity="0.8596395470487621"/><circle cx="998" cy="850" r="1.4975332766992056" fill="#00E1FF" opacity="0.4943069045511149"/><circle cx="474" cy="739" r="0.5740125073421144" fill="#FF3D2E" opacity="0.30606815424371775"/><circle cx="888" cy="255" r="1.9999959565911036" fill="#F5F5F5" opacity="0.6568807322339261"/><circle cx="741" cy="561" r="2.676470435887204" fill="#F5F5F5" opacity="0.937105358941811"/><circle cx="157" cy="211" r="0.5064921737696139" fill="#00E1FF" opacity="0.7334595206553068"/><circle cx="968" cy="666" r="1.7075275634485423" fill="#FF3D2E" opacity="0.4730629097997793"/><circle cx="96" cy="839" r="1.4062247194611213" fill="#F5F5F5" opacity="0.3703011497475124"/><circle cx="482" cy="176" r="1.8251447132132077" fill="#FFA800" opacity="0.7943558987318787"/><circle cx="926" cy="342" r="2.620820400118106" fill="#FFA800" opacity="0.8713088387487262"/><circle cx="263" cy="838" r="2.82106044011831" fill="#FFA800" opacity="0.9714917897560911"/><circle cx="197" cy="452" r="2.6119420522652192" fill="#FFA800" opacity="0.8775452141935622"/><circle cx="192" cy="416" r="1.8829972851582961" fill="#FFA800" opacity="0.6232092999400246"/><circle cx="541" cy="826" r="0.5577847249564817" fill="#FF3D2E" opacity="0.5721749371238842"/><circle cx="740" cy="769" r="2.747174567777339" fill="#00E1FF" opacity="0.8243593745961242"/><circle cx="97" cy="776" r="2.4602433111812436" fill="#F5F5F5" opacity="0.444712018017088"/><circle cx="477" cy="296" r="2.420933114846016" fill="#00E1FF" opacity="0.6619428552784519"/><circle cx="743" cy="763" r="1.554178502296708" fill="#F5F5F5" opacity="0.36340971331052363"/><circle cx="165" cy="452" r="0.7743098949857881" fill="#F5F5F5" opacity="0.885529436984017"/><circle cx="114" cy="11" r="0.6310816628126005" fill="#FFA800" opacity="0.5484751535728983"/><circle cx="519" cy="177" r="2.4446806420438323" fill="#FFA800" opacity="0.9996503914692818"/><circle cx="289" cy="31" r="2.000201182992065" fill="#FFA800" opacity="0.8419533260952494"/><circle cx="847" cy="543" r="2.0571176415745036" fill="#FFA800" opacity="0.31325829393225163"/><circle cx="612" cy="625" r="1.6478982227307295" fill="#F5F5F5" opacity="0.8542930848677839"/><circle cx="34" cy="818" r="1.9287779619004977" fill="#FFA800" opacity="0.5899773228176555"/><circle cx="719" cy="256" r="1.5932378730291947" fill="#F5F5F5" opacity="0.9680592898124976"/><circle cx="964" cy="361" r="2.1297474650700785" fill="#FFA800" opacity="0.4181950693352547"/><circle cx="940" cy="731" r="1.219112458733061" fill="#FF3D2E" opacity="0.6837952387220427"/><circle cx="604" cy="97" r="2.478800977548041" fill="#00E1FF" opacity="0.36450617685698183"/><circle cx="412" cy="265" r="0.7969018228074416" fill="#00E1FF" opacity="0.5952521589943289"/><circle cx="585" cy="308" r="1.2242642562416353" fill="#F5F5F5" opacity="0.4320964422345216"/><circle cx="83" cy="457" r="2.8162390447515007" fill="#FF3D2E" opacity="0.523693843354867"/><circle cx="793" cy="65" r="1.8424090512812965" fill="#FF3D2E" opacity="0.5831694336434126"/><circle cx="954" cy="928" r="1.88565974810821" fill="#F5F5F5" opacity="0.3440117109470574"/><circle cx="239" cy="892" r="1.33254770877154" fill="#F5F5F5" opacity="0.9978756442090528"/><circle cx="167" cy="34" r="2.0055312869716824" fill="#F5F5F5" opacity="0.7064976914944479"/><circle cx="734" cy="635" r="2.1212662224915944" fill="#00E1FF" opacity="0.9846052864598112"/><circle cx="348" cy="580" r="0.727005736366287" fill="#F5F5F5" opacity="0.4698067785621941"/><circle cx="476" cy="830" r="1.3686780816451072" fill="#FFA800" opacity="0.9082216096596742"/><circle cx="212" cy="621" r="1.0789611558148615" fill="#FF3D2E" opacity="0.9235379586004508"/><circle cx="415" cy="350" r="2.096501042137006" fill="#FF3D2E" opacity="0.3371846475883073"/><circle cx="559" cy="447" r="1.0131911594829197" fill="#FF3D2E" opacity="0.8691221670515326"/><circle cx="231" cy="5" r="2.898633900503397" fill="#F5F5F5" opacity="0.552456237290655"/><circle cx="804" cy="973" r="2.8438008959689354" fill="#FF3D2E" opacity="0.6018861370980955"/><circle cx="115" cy="490" r="2.700193854176823" fill="#F5F5F5" opacity="0.6693603151495351"/><circle cx="180" cy="330" r="0.9041833662692962" fill="#FF3D2E" opacity="0.7798136122966012"/><circle cx="334" cy="991" r="0.8086917754071705" fill="#F5F5F5" opacity="0.655675487530442"/><circle cx="20" cy="430" r="1.1175724652769443" fill="#F5F5F5" opacity="0.5610838766904622"/><circle cx="455" cy="604" r="1.7840853412835966" fill="#00E1FF" opacity="0.9395146321785639"/><circle cx="610" cy="177" r="2.7785479857209867" fill="#FFA800" opacity="0.7876670547930288"/><circle cx="635" cy="183" r="2.938373702880168" fill="#00E1FF" opacity="0.5812380872258656"/><circle cx="990" cy="516" r="2.0451562124224516" fill="#FF3D2E" opacity="0.9231182601969055"/><circle cx="130" cy="584" r="2.7055727828009077" fill="#FF3D2E" opacity="0.36771466146006204"/><circle cx="674" cy="415" r="1.1845958540791575" fill="#00E1FF" opacity="0.46656646821490827"/><circle cx="190" cy="968" r="1.7023924894346205" fill="#FFA800" opacity="0.761669999841863"/><circle cx="119" cy="462" r="0.9052776862229829" fill="#00E1FF" opacity="0.38502235192187534"/><circle cx="600" cy="714" r="2.8069628366528505" fill="#FFA800" opacity="0.4545300468360243"/><circle cx="923" cy="38" r="0.6162478123736893" fill="#FFA800" opacity="0.7173776208198224"/><circle cx="449" cy="453" r="1.0058515686113174" fill="#00E1FF" opacity="0.7264823259798254"/><circle cx="357" cy="162" r="1.6874389783046702" fill="#FFA800" opacity="0.5698615095094113"/><circle cx="14" cy="693" r="0.8632842273050202" fill="#FFA800" opacity="0.43691013050309274"/><circle cx="345" cy="213" r="2.91615253681063" fill="#FF3D2E" opacity="0.415456312457513"/><circle cx="180" cy="779" r="2.0997297438334668" fill="#F5F5F5" opacity="0.8725491308334834"/><circle cx="283" cy="862" r="0.5903983754590432" fill="#FF3D2E" opacity="0.5030001774113818"/><circle cx="836" cy="531" r="2.1905400120450462" fill="#FFA800" opacity="0.4243415330410547"/><circle cx="597" cy="420" r="1.559476322012477" fill="#F5F5F5" opacity="0.7442019410727768"/><circle cx="896" cy="456" r="0.6861776438579582" fill="#00E1FF" opacity="0.9317238549656455"/><circle cx="63" cy="768" r="1.3940507650942908" fill="#FFA800" opacity="0.507002338982067"/><circle cx="529" cy="130" r="2.2219704653533037" fill="#FF3D2E" opacity="0.9760441292951931"/><circle cx="293" cy="594" r="0.8667288908860861" fill="#FFA800" opacity="0.41506924555507974"/><circle cx="882" cy="489" r="1.4950077454774213" fill="#00E1FF" opacity="0.7765029190729609"/><circle cx="488" cy="949" r="2.6192110600146457" fill="#F5F5F5" opacity="0.3759481837688363"/><circle cx="556" cy="432" r="2.8237678564165414" fill="#00E1FF" opacity="0.4631247571861282"/><circle cx="239" cy="57" r="1.0406126436019814" fill="#F5F5F5" opacity="0.6213266602849468"/><circle cx="17" cy="768" r="1.8060031151625169" fill="#00E1FF" opacity="0.553490146783717"/><circle cx="753" cy="98" r="0.6496043321090584" fill="#F5F5F5" opacity="0.72098020112177"/><circle cx="594" cy="379" r="0.8066792784780886" fill="#FFA800" opacity="0.9800798737975673"/><circle cx="108" cy="464" r="1.045138524482458" fill="#FFA800" opacity="0.713987391224626"/><circle cx="382" cy="418" r="2.0778662768641727" fill="#00E1FF" opacity="0.47558865387399296"/><circle cx="155" cy="234" r="2.8571118496044887" fill="#F5F5F5" opacity="0.7295116424425137"/><circle cx="658" cy="537" r="1.2356713460952018" fill="#FFA800" opacity="0.3404962728483953"/><circle cx="623" cy="412" r="0.7516358902334109" fill="#FFA800" opacity="0.8016983801944222"/><circle cx="172" cy="699" r="2.0812239783556308" fill="#F5F5F5" opacity="0.3266280593399865"/><circle cx="43" cy="341" r="2.4352509387880863" fill="#FFA800" opacity="0.9460616318434054"/><circle cx="490" cy="882" r="1.1762972030618735" fill="#FF3D2E" opacity="0.5564586596613799"/><circle cx="78" cy="203" r="2.1143985123880853" fill="#FFA800" opacity="0.6147416431727454"/><circle cx="875" cy="310" r="2.773412430312211" fill="#FFA800" opacity="0.4258009893438376"/><circle cx="32" cy="723" r="1.2239764872502392" fill="#FFA800" opacity="0.9511030003132781"/><circle cx="558" cy="195" r="0.9003356652172668" fill="#F5F5F5" opacity="0.3942049098145523"/><circle cx="256" cy="645" r="2.656119710207008" fill="#FF3D2E" opacity="0.5468193705043731"/>
  </svg>