<svg xmlns="http://www.w3.org/2000/svg" viewBox="0 0 2000 100">
    <rect width="2000" height="100" fill="#050505"/>
    <path d="M 0 50 L 78.91386158852264 57.999287970798115 L 179.20936367084934 43.157991965507016 L 272.35339481438047 29.991858150432144 L 360.0245353054526 21.724415268473507 L 445.2413199358587 20.379821674285207 L 531.6231954107359 26.287280774065533 L 622.504353562531 38.00044055034946 L 720.1174049064122 52.65151097917417 L 825.0467577211421 66.65339904561877 L 936.0855345204852 76.57795421809945 L 1050.5310577531625 79.99529925943074 L 1164.8465595265789 76.0687489194198 L 1275.5271057360235 65.7596596645319 L 1379.9577261723532 51.59205608642074 L 1477.0536504294644 37.03466165345665 L 1567.5258975323986 25.651634229709263 L 1653.7071936823568 20.229935925472137 L 1738.9808395259743 22.096987573961325 L 1826.95236016029 30.795669815924008 L 1920.5667468419072 44.19624186137863" fill="none" stroke="#00E1FF" stroke-width="2"/>
    <circle cx="0" cy="50" r="3" fill="#FF3D2E"/><circle cx="100" cy="50" r="3" fill="#FF3D2E"/><circle cx="200" cy="50" r="3" fill="#FF3D2E"/><circle cx="300" cy="50" r="3" fill="#FF3D2E"/><circle cx="400" cy="50" r="3" fill="#FF3D2E"/><circle cx="500" cy="50" r="3" fill="#FF3D2E"/><circle cx="600" cy="50" r="3" fill="#FF3D2E"/><circle cx="700" cy="50" r="3" fill="#FF3D2E"/><circle cx="800" cy="50" r="3" fill="#FF3D2E"/><circle cx="900" cy="50" r="3" fill="#FF3D2E"/><circle cx="1000" cy="50" r="3" fill="#FF3D2E"/><circle cx="1100" cy="50" r="3" fill="#FF3D2E"/><circle cx="1200" cy="50" r="3" fill="#FF3D2E"/><circle cx="1300" cy="50" r="3" fill="#FF3D2E"/><circle cx="1400" cy="50" r="3" fill="#FF3D2E"/><circle cx="1500" cy="50" r="3" fill="#FF3D2E"/><circle cx="1600" cy="50" r="3" fill="#FF3D2E"/><circle cx="1700" cy="50" r="3" fill="#FF3D2E"/><circle cx="1800" cy="50" r="3" fill="#FF3D2E"/><circle cx="1900" cy="50" r="3" fill="#FF3D2E"/><circle cx="2000" cy="50" r="3" fill="#FF3D2E"/>
  </svg>