<svg xmlns="http://www.w3.org/2000/svg" viewBox="0 0 1000 1000"><rect width="1000" height="1000" fill="#050505"/><line x1="152" y1="531" x2="179" y2="494" stroke="#00E1FF" stroke-width="0.5" opacity="0.7709803501880242"/><line x1="152" y1="531" x2="242" y2="416" stroke="#00E1FF" stroke-width="0.5" opacity="0.26984590667448827"/><line x1="152" y1="531" x2="142" y2="435" stroke="#00E1FF" stroke-width="0.5" opacity="0.5174028595194539"/><line x1="152" y1="531" x2="296" y2="660" stroke="#00E1FF" stroke-width="0.5" opacity="0.03334339085691862"/><line x1="152" y1="531" x2="101" y2="686" stroke="#00E1FF" stroke-width="0.5" opacity="0.18412623525449723"/><line x1="179" y1="494" x2="242" y2="416" stroke="#00E1FF" stroke-width="0.5" opacity="0.49867675098794795"/><line x1="179" y1="494" x2="142" y2="435" stroke="#00E1FF" stroke-width="0.5" opacity="0.651790293070397"/><line x1="549" y1="808" x2="370" y2="872" stroke="#00E1FF" stroke-width="0.5" opacity="0.04951328257571119"/><line x1="549" y1="808" x2="673" y2="666" stroke="#00E1FF" stroke-width="0.5" opacity="0.057397220458161424"/><line x1="549" y1="808" x2="665" y2="841" stroke="#00E1FF" stroke-width="0.5" opacity="0.39698673314760313"/><line x1="549" y1="808" x2="575" y2="838" stroke="#00E1FF" stroke-width="0.5" opacity="0.8015056675872079"/><line x1="366" y1="101" x2="556" y2="145" stroke="#00E1FF" stroke-width="0.5" opacity="0.02485898455659241"/><line x1="366" y1="101" x2="297" y2="107" stroke="#00E1FF" stroke-width="0.5" opacity="0.6536981085815441"/><line x1="366" y1="101" x2="245" y2="154" stroke="#00E1FF" stroke-width="0.5" opacity="0.3395077593188546"/><line x1="770" y1="236" x2="854" y2="183" stroke="#00E1FF" stroke-width="0.5" opacity="0.5033864681666438"/><line x1="770" y1="236" x2="735" y2="402" stroke="#00E1FF" stroke-width="0.5" opacity="0.15175180518907083"/><line x1="770" y1="236" x2="847" y2="169" stroke="#00E1FF" stroke-width="0.5" opacity="0.48965697810198283"/><line x1="770" y1="236" x2="727" y2="381" stroke="#00E1FF" stroke-width="0.5" opacity="0.24379235655806808"/><line x1="770" y1="236" x2="821" y2="220" stroke="#00E1FF" stroke-width="0.5" opacity="0.7327454397021447"/><line x1="515" y1="297" x2="631" y2="409" stroke="#00E1FF" stroke-width="0.5" opacity="0.19377422517014498"/><line x1="515" y1="297" x2="531" y2="445" stroke="#00E1FF" stroke-width="0.5" opacity="0.25568823736286417"/><line x1="515" y1="297" x2="556" y2="145" stroke="#00E1FF" stroke-width="0.5" opacity="0.21283737385467782"/><line x1="631" y1="409" x2="677" y2="465" stroke="#00E1FF" stroke-width="0.5" opacity="0.6376465813601313"/><line x1="631" y1="409" x2="531" y2="445" stroke="#00E1FF" stroke-width="0.5" opacity="0.4685867897765431"/><line x1="631" y1="409" x2="735" y2="402" stroke="#00E1FF" stroke-width="0.5" opacity="0.4788234464214647"/><line x1="631" y1="409" x2="759" y2="446" stroke="#00E1FF" stroke-width="0.5" opacity="0.33379807865782907"/><line x1="631" y1="409" x2="727" y2="381" stroke="#00E1FF" stroke-width="0.5" opacity="0.5"/><line x1="854" y1="183" x2="847" y2="169" stroke="#00E1FF" stroke-width="0.5" opacity="0.9217376207875073"/><line x1="854" y1="183" x2="821" y2="220" stroke="#00E1FF" stroke-width="0.5" opacity="0.7521088948751892"/><line x1="474" y1="621" x2="531" y2="445" stroke="#00E1FF" stroke-width="0.5" opacity="0.07500000000000018"/><line x1="474" y1="621" x2="342" y2="726" stroke="#00E1FF" stroke-width="0.5" opacity="0.1566584321877642"/><line x1="474" y1="621" x2="296" y2="660" stroke="#00E1FF" stroke-width="0.5" opacity="0.08888804200581357"/><line x1="474" y1="621" x2="470" y2="571" stroke="#00E1FF" stroke-width="0.5" opacity="0.7492012759203109"/><line x1="677" y1="465" x2="531" y2="445" stroke="#00E1FF" stroke-width="0.5" opacity="0.26318251920845415"/><line x1="677" y1="465" x2="735" y2="402" stroke="#00E1FF" stroke-width="0.5" opacity="0.5718353120585491"/><line x1="677" y1="465" x2="758" y2="617" stroke="#00E1FF" stroke-width="0.5" opacity="0.13882347918675808"/><line x1="677" y1="465" x2="848" y2="492" stroke="#00E1FF" stroke-width="0.5" opacity="0.1344077172247894"/><line x1="677" y1="465" x2="759" y2="446" stroke="#00E1FF" stroke-width="0.5" opacity="0.5791377897696207"/><line x1="677" y1="465" x2="727" y2="381" stroke="#00E1FF" stroke-width="0.5" opacity="0.5112260236060026"/><line x1="531" y1="445" x2="470" y2="571" stroke="#00E1FF" stroke-width="0.5" opacity="0.30005357347865536"/><line x1="165" y1="830" x2="343" y2="775" stroke="#00E1FF" stroke-width="0.5" opacity="0.0684824209924968"/><line x1="165" y1="830" x2="251" y2="865" stroke="#00E1FF" stroke-width="0.5" opacity="0.5357532983423576"/><line x1="165" y1="830" x2="101" y2="686" stroke="#00E1FF" stroke-width="0.5" opacity="0.21209137585631166"/><line x1="165" y1="830" x2="193" y2="871" stroke="#00E1FF" stroke-width="0.5" opacity="0.7517561682538718"/><line x1="735" y1="402" x2="848" y2="492" stroke="#00E1FF" stroke-width="0.5" opacity="0.2776946629021768"/><line x1="735" y1="402" x2="759" y2="446" stroke="#00E1FF" stroke-width="0.5" opacity="0.7494007182771667"/><line x1="735" y1="402" x2="727" y2="381" stroke="#00E1FF" stroke-width="0.5" opacity="0.8876389747287788"/><line x1="838" y1="751" x2="758" y2="617" stroke="#00E1FF" stroke-width="0.5" opacity="0.21967955300402375"/><line x1="838" y1="751" x2="882" y2="582" stroke="#00E1FF" stroke-width="0.5" opacity="0.12683048610249803"/><line x1="838" y1="751" x2="673" y2="666" stroke="#00E1FF" stroke-width="0.5" opacity="0.07196444033647065"/><line x1="838" y1="751" x2="665" y2="841" stroke="#00E1FF" stroke-width="0.5" opacity="0.02494871929728726"/><line x1="838" y1="751" x2="891" y2="623" stroke="#00E1FF" stroke-width="0.5" opacity="0.3073059838572302"/><line x1="242" y1="416" x2="142" y2="435" stroke="#00E1FF" stroke-width="0.5" opacity="0.4910550127960783"/><line x1="164" y1="125" x2="144" y2="111" stroke="#00E1FF" stroke-width="0.5" opacity="0.877934443842663"/><line x1="164" y1="125" x2="297" y2="107" stroke="#00E1FF" stroke-width="0.5" opacity="0.32893740977461716"/><line x1="164" y1="125" x2="245" y2="154" stroke="#00E1FF" stroke-width="0.5" opacity="0.5698256167552511"/><line x1="847" y1="169" x2="821" y2="220" stroke="#00E1FF" stroke-width="0.5" opacity="0.7137745643727658"/><line x1="342" y1="726" x2="343" y2="775" stroke="#00E1FF" stroke-width="0.5" opacity="0.7549489849031431"/><line x1="342" y1="726" x2="296" y2="660" stroke="#00E1FF" stroke-width="0.5" opacity="0.5977562927776245"/><line x1="342" y1="726" x2="251" y2="865" stroke="#00E1FF" stroke-width="0.5" opacity="0.1693075177901271"/><line x1="342" y1="726" x2="370" y2="872" stroke="#00E1FF" stroke-width="0.5" opacity="0.2566965626340746"/><line x1="343" y1="775" x2="296" y2="660" stroke="#00E1FF" stroke-width="0.5" opacity="0.37883174582082835"/><line x1="343" y1="775" x2="251" y2="865" stroke="#00E1FF" stroke-width="0.5" opacity="0.35649397827215323"/><line x1="343" y1="775" x2="370" y2="872" stroke="#00E1FF" stroke-width="0.5" opacity="0.496561821074325"/><line x1="343" y1="775" x2="193" y2="871" stroke="#00E1FF" stroke-width="0.5" opacity="0.1095506752206502"/><line x1="758" y1="617" x2="848" y2="492" stroke="#00E1FF" stroke-width="0.5" opacity="0.22985390996253174"/><line x1="758" y1="617" x2="882" y2="582" stroke="#00E1FF" stroke-width="0.5" opacity="0.3557756601928176"/><line x1="758" y1="617" x2="673" y2="666" stroke="#00E1FF" stroke-width="0.5" opacity="0.5094390965435587"/><line x1="758" y1="617" x2="759" y2="446" stroke="#00E1FF" stroke-width="0.5" opacity="0.1449853802419515"/><line x1="758" y1="617" x2="891" y2="623" stroke="#00E1FF" stroke-width="0.5" opacity="0.3343236522152827"/><line x1="296" y1="660" x2="101" y2="686" stroke="#00E1FF" stroke-width="0.5" opacity="0.016371513222599"/><line x1="296" y1="660" x2="470" y2="571" stroke="#00E1FF" stroke-width="0.5" opacity="0.02279735980708697"/><line x1="144" y1="111" x2="297" y2="107" stroke="#00E1FF" stroke-width="0.5" opacity="0.2347386067493017"/><line x1="144" y1="111" x2="245" y2="154" stroke="#00E1FF" stroke-width="0.5" opacity="0.4511375399974963"/><line x1="251" y1="865" x2="370" y2="872" stroke="#00E1FF" stroke-width="0.5" opacity="0.403971477192576"/><line x1="251" y1="865" x2="193" y2="871" stroke="#00E1FF" stroke-width="0.5" opacity="0.708452405257735"/><line x1="848" y1="492" x2="882" y2="582" stroke="#00E1FF" stroke-width="0.5" opacity="0.5189594611677723"/><line x1="848" y1="492" x2="759" y2="446" stroke="#00E1FF" stroke-width="0.5" opacity="0.4990758540457447"/><line x1="848" y1="492" x2="891" y2="623" stroke="#00E1FF" stroke-width="0.5" opacity="0.3106162171910337"/><line x1="848" y1="492" x2="727" y2="381" stroke="#00E1FF" stroke-width="0.5" opacity="0.17899451889771156"/><line x1="297" y1="107" x2="245" y2="154" stroke="#00E1FF" stroke-width="0.5" opacity="0.6495360218224988"/><line x1="370" y1="872" x2="193" y2="871" stroke="#00E1FF" stroke-width="0.5" opacity="0.11498587581892239"/><line x1="882" y1="582" x2="759" y2="446" stroke="#00E1FF" stroke-width="0.5" opacity="0.08314395895538751"/><line x1="882" y1="582" x2="891" y2="623" stroke="#00E1FF" stroke-width="0.5" opacity="0.7901190813818464"/><line x1="673" y1="666" x2="665" y2="841" stroke="#00E1FF" stroke-width="0.5" opacity="0.12408619145488986"/><line x1="673" y1="666" x2="575" y2="838" stroke="#00E1FF" stroke-width="0.5" opacity="0.010202040818430458"/><line x1="665" y1="841" x2="575" y2="838" stroke="#00E1FF" stroke-width="0.5" opacity="0.549750069405891"/><line x1="759" y1="446" x2="727" y2="381" stroke="#00E1FF" stroke-width="0.5" opacity="0.637750086266401"/><line x1="727" y1="381" x2="821" y2="220" stroke="#00E1FF" stroke-width="0.5" opacity="0.06783853330015843"/><circle cx="152" cy="531" r="4" fill="#00E1FF"/><circle cx="179" cy="494" r="4" fill="#00E1FF"/><circle cx="549" cy="808" r="4" fill="#00E1FF"/><circle cx="366" cy="101" r="4" fill="#00E1FF"/><circle cx="770" cy="236" r="4" fill="#00E1FF"/><circle cx="515" cy="297" r="4" fill="#00E1FF"/><circle cx="631" cy="409" r="4" fill="#00E1FF"/><circle cx="854" cy="183" r="4" fill="#00E1FF"/><circle cx="474" cy="621" r="4" fill="#00E1FF"/><circle cx="677" cy="465" r="4" fill="#00E1FF"/><circle cx="531" cy="445" r="4" fill="#00E1FF"/><circle cx="165" cy="830" r="4" fill="#00E1FF"/><circle cx="735" cy="402" r="4" fill="#00E1FF"/><circle cx="838" cy="751" r="4" fill="#00E1FF"/><circle cx="242" cy="416" r="4" fill="#00E1FF"/><circle cx="164" cy="125" r="4" fill="#00E1FF"/><circle cx="142" cy="435" r="4" fill="#00E1FF"/><circle cx="847" cy="169" r="4" fill="#00E1FF"/><circle cx="342" cy="726" r="4" fill="#00E1FF"/><circle cx="343" cy="775" r="4" fill="#00E1FF"/><circle cx="758" cy="617" r="4" fill="#00E1FF"/><circle cx="296" cy="660" r="4" fill="#00E1FF"/><circle cx="556" cy="145" r="4" fill="#00E1FF"/><circle cx="144" cy="111" r="4" fill="#00E1FF"/><circle cx="251" cy="865" r="4" fill="#00E1FF"/><circle cx="848" cy="492" r="4" fill="#00E1FF"/><circle cx="297" cy="107" r="4" fill="#00E1FF"/><circle cx="245" cy="154" r="4" fill="#00E1FF"/><circle cx="370" cy="872" r="4" fill="#00E1FF"/><circle cx="882" cy="582" r="4" fill="#00E1FF"/><circle cx="673" cy="666" r="4" fill="#00E1FF"/><circle cx="665" cy="841" r="4" fill="#00E1FF"/><circle cx="759" cy="446" r="4" fill="#00E1FF"/><circle cx="101" cy="686" r="4" fill="#00E1FF"/><circle cx="470" cy="571" r="4" fill="#00E1FF"/><circle cx="891" cy="623" r="4" fill="#00E1FF"/><circle cx="727" cy="381" r="4" fill="#00E1FF"/><circle cx="193" cy="871" r="4" fill="#00E1FF"/><circle cx="821" cy="220" r="4" fill="#00E1FF"/><circle cx="575" cy="838" r="4" fill="#00E1FF"/><circle cx="500" cy="500" r="60" fill="#FF3D2E"/><text x="500" y="520" text-anchor="middle" fill="#F5F5F5" font-size="60" font-weight="900" font-family="Arial">🧠</text></svg>