<svg xmlns="http://www.w3.org/2000/svg" viewBox="0 0 1000 1000"><rect width="1000" height="1000" fill="#050505"/><path d="M 0 500 L 0 335.3274124565168 L 20 305.0145636768757 L 40 342.607410906653 L 60 432.2335358360324 L 80 524.8123530106814 L 100 577.9188793910195 L 120 588.0490103491467 L 140 586.6858630701702 L 160 604.9134398801546 L 180 640.1285233514731 L 200 656.1992782011671 L 220 617.2775654150037 L 240 524.084481567775 L 260 418.78311742313997 L 280 353.0845737495289 L 300 347.8257048621035 L 320 380.0584255049512 L 340 408.53440968339606 L 360 413.46216100656613 L 380 413.69451024283546 L 400 445.7036876955895 L 420 524.2570336195112 L 440 621.8623291267842 L 460 686.9822322079372 L 480 685.3864506886512 L 500 627.5748207134461 L 520 557.6977439436939 L 540 514.3856262276007 L 560 499.27618847669135 L 580 481.5370476940095 L 600 433.27379292836065 L 620 362.1547695787592 L 640 310.1556980855652 L 660 318.6634378039259 L 680 391.4388099644041 L 700 489.33024687296665 L 720 561.8872205394322 L 740 587.500085713129 L 760 586.1477631209654 L 780 594.1572128996369 L 800 625.265659484547 L 820 654.6592549458269 L 840 641.1889142480443 L 860 567.4325815430652 L 880 460.4187986644776 L 900 373.215478484315 L 920 343.29455241208035 L 940 364.82221932987665 L 960 399.28663607942343 L 980 413.860910977261 L 1000 411.7640511230257" fill="none" stroke="#FF3D2E" stroke-width="6"/><path d="M 0 500 L 0 335.3274124565168 L 20 305.0145636768757 L 40 342.607410906653 L 60 432.2335358360324 L 80 524.8123530106814 L 100 577.9188793910195 L 120 588.0490103491467 L 140 586.6858630701702 L 160 604.9134398801546 L 180 640.1285233514731 L 200 656.1992782011671 L 220 617.2775654150037 L 240 524.084481567775 L 260 418.78311742313997 L 280 353.0845737495289 L 300 347.8257048621035 L 320 380.0584255049512 L 340 408.53440968339606 L 360 413.46216100656613 L 380 413.69451024283546 L 400 445.7036876955895 L 420 524.2570336195112 L 440 621.8623291267842 L 460 686.9822322079372 L 480 685.3864506886512 L 500 627.5748207134461 L 520 557.6977439436939 L 540 514.3856262276007 L 560 499.27618847669135 L 580 481.5370476940095 L 600 433.27379292836065 L 620 362.1547695787592 L 640 310.1556980855652 L 660 318.6634378039259 L 680 391.4388099644041 L 700 489.33024687296665 L 720 561.8872205394322 L 740 587.500085713129 L 760 586.1477631209654 L 780 594.1572128996369 L 800 625.265659484547 L 820 654.6592549458269 L 840 641.1889142480443 L 860 567.4325815430652 L 880 460.4187986644776 L 900 373.215478484315 L 920 343.29455241208035 L 940 364.82221932987665 L 960 399.28663607942343 L 980 413.860910977261 L 1000 411.7640511230257 L 1000 1000 L 0 1000 Z" fill="#FF3D2E" opacity="0.2"/><circle cx="500" cy="500" r="20" fill="#00E1FF"/></svg>