<svg xmlns="http://www.w3.org/2000/svg" viewBox="0 0 1000 1000">
    <rect width="1000" height="1000" fill="#050505"/>
    <circle cx="504" cy="913" r="2.3145632197004593" fill="#FF3D2E" opacity="0.9021056020487499"/><circle cx="964" cy="839" r="0.5124106199815399" fill="#FFA800" opacity="0.6893473543710104"/><circle cx="444" cy="436" r="1.8929577583895485" fill="#FF3D2E" opacity="0.7916257410225244"/><circle cx="60" cy="234" r="0.5166836965746903" fill="#FF3D2E" opacity="0.7851262329761145"/><circle cx="128" cy="75" r="1.6179123076277535" fill="#F5F5F5" opacity="0.30257078459767767"/><circle cx="959" cy="339" r="1.9224047061380092" fill="#FFA800" opacity="0.8339855291695939"/><circle cx="872" cy="535" r="1.6263710692781155" fill="#F5F5F5" opacity="0.8366408950515354"/><circle cx="992" cy="257" r="2.301594206623075" fill="#FFA800" opacity="0.7096969029008251"/><circle cx="831" cy="412" r="0.5233479588804236" fill="#FF3D2E" opacity="0.6429248425257307"/><circle cx="173" cy="959" r="2.774308559916654" fill="#FF3D2E" opacity="0.8831156682302217"/><circle cx="284" cy="310" r="0.729059774576062" fill="#F5F5F5" opacity="0.5712646102933194"/><circle cx="421" cy="749" r="1.7006559024870662" fill="#FF3D2E" opacity="0.5857240068589609"/><circle cx="709" cy="731" r="2.253537875411148" fill="#FF3D2E" opacity="0.9153530593055379"/><circle cx="218" cy="96" r="1.9238157107146558" fill="#FFA800" opacity="0.3089034729362014"/><circle cx="446" cy="634" r="2.0695802692161287" fill="#FFA800" opacity="0.8446383159365367"/><circle cx="589" cy="633" r="2.602109459115893" fill="#FF3D2E" opacity="0.8968522828848884"/><circle cx="983" cy="64" r="0.5757398979963919" fill="#00E1FF" opacity="0.32684695264541613"/><circle cx="105" cy="987" r="2.783582406109251" fill="#FF3D2E" opacity="0.9843209060698246"/><circle cx="708" cy="969" r="2.2151412028804565" fill="#00E1FF" opacity="0.923942583588929"/><circle cx="269" cy="934" r="2.042164450099073" fill="#00E1FF" opacity="0.4434413867315871"/><circle cx="451" cy="878" r="2.0097785111827635" fill="#F5F5F5" opacity="0.9946074960746241"/><circle cx="899" cy="726" r="1.2061934708875266" fill="#00E1FF" opacity="0.4496541055320198"/><circle cx="420" cy="309" r="1.732825325173597" fill="#FF3D2E" opacity="0.9023487880834293"/><circle cx="343" cy="249" r="1.8686981472415327" fill="#FF3D2E" opacity="0.4358144012639844"/><circle cx="818" cy="445" r="1.4649654509670063" fill="#FF3D2E" opacity="0.43060549784042546"/><circle cx="662" cy="230" r="1.1476941155106686" fill="#00E1FF" opacity="0.8158855927471285"/><circle cx="98" cy="970" r="0.6848324988057026" fill="#FF3D2E" opacity="0.8007073537619203"/><circle cx="171" cy="145" r="0.7686205751851256" fill="#FFA800" opacity="0.828115159839135"/><circle cx="891" cy="247" r="0.6644756779646878" fill="#FFA800" opacity="0.5252921364429396"/><circle cx="490" cy="657" r="0.694684795841496" fill="#FF3D2E" opacity="0.3169534970956977"/><circle cx="222" cy="855" r="1.37968460286358" fill="#FF3D2E" opacity="0.6605255106375114"/><circle cx="625" cy="871" r="0.9262788087465214" fill="#FF3D2E" opacity="0.7430829619515696"/><circle cx="362" cy="661" r="2.1039533373792976" fill="#F5F5F5" opacity="0.5947217826371274"/><circle cx="707" cy="862" r="0.7601592096812072" fill="#FFA800" opacity="0.617873030084267"/><circle cx="435" cy="607" r="1.5496889420714794" fill="#F5F5F5" opacity="0.8275157024109598"/><circle cx="616" cy="474" r="2.8097184393966517" fill="#00E1FF" opacity="0.3013637990771782"/><circle cx="468" cy="714" r="1.6959432756160682" fill="#F5F5F5" opacity="0.8896119898188142"/><circle cx="750" cy="173" r="2.890056280499234" fill="#00E1FF" opacity="0.9941269218320739"/><circle cx="372" cy="277" r="1.433617735010539" fill="#00E1FF" opacity="0.49246356896111687"/><circle cx="668" cy="647" r="0.562326500960756" fill="#F5F5F5" opacity="0.8548156859391114"/><circle cx="847" cy="927" r="0.802016188753278" fill="#FF3D2E" opacity="0.5260433680708013"/><circle cx="786" cy="456" r="2.4097579994008473" fill="#FF3D2E" opacity="0.6927793875955552"/><circle cx="756" cy="703" r="1.8089841462742446" fill="#FF3D2E" opacity="0.40732435718529025"/><circle cx="465" cy="277" r="2.5859384231079634" fill="#F5F5F5" opacity="0.4491520357906685"/><circle cx="853" cy="207" r="1.2109265487976135" fill="#FFA800" opacity="0.7287176434379956"/><circle cx="851" cy="989" r="0.8554287560212055" fill="#00E1FF" opacity="0.35004174937912824"/><circle cx="701" cy="193" r="1.89974923533576" fill="#FF3D2E" opacity="0.6368431568097451"/><circle cx="444" cy="969" r="2.0574676061083714" fill="#FF3D2E" opacity="0.8650822162009388"/><circle cx="71" cy="16" r="1.0598864508569674" fill="#FF3D2E" opacity="0.8328320289132936"/><circle cx="314" cy="533" r="1.5607471180593109" fill="#FF3D2E" opacity="0.9897378843616367"/><circle cx="791" cy="662" r="0.9095287001694881" fill="#FF3D2E" opacity="0.3520492700713208"/><circle cx="991" cy="874" r="1.5660851921563035" fill="#00E1FF" opacity="0.9798662088734216"/><circle cx="172" cy="486" r="2.8416780676963507" fill="#FFA800" opacity="0.6163977462358088"/><circle cx="152" cy="872" r="2.8087263777135627" fill="#F5F5F5" opacity="0.6398760556166825"/><circle cx="191" cy="932" r="2.6154412714342974" fill="#F5F5F5" opacity="0.3430119205852345"/><circle cx="898" cy="167" r="2.6443841134181643" fill="#FFA800" opacity="0.6834505428982094"/><circle cx="668" cy="384" r="1.437104698498417" fill="#FFA800" opacity="0.8403730062382853"/><circle cx="950" cy="4" r="1.2860266069257538" fill="#FF3D2E" opacity="0.6933355845000153"/><circle cx="446" cy="536" r="2.312744218315281" fill="#FFA800" opacity="0.8245373196464705"/><circle cx="686" cy="217" r="2.6903736801371605" fill="#FF3D2E" opacity="0.7208657985822249"/><circle cx="598" cy="310" r="2.6275547324459816" fill="#F5F5F5" opacity="0.3036021526196397"/><circle cx="34" cy="765" r="2.7712627467078694" fill="#F5F5F5" opacity="0.7747023313951132"/><circle cx="249" cy="52" r="1.3712486683482445" fill="#F5F5F5" opacity="0.7174578200261308"/><circle cx="493" cy="318" r="2.1245128324530302" fill="#FFA800" opacity="0.5602984073905701"/><circle cx="417" cy="577" r="2.1708446505383567" fill="#FFA800" opacity="0.6629374014773237"/><circle cx="459" cy="810" r="1.2000374767429123" fill="#FFA800" opacity="0.9394769011496689"/><circle cx="776" cy="542" r="2.419997988753934" fill="#FF3D2E" opacity="0.949456546951353"/><circle cx="311" cy="834" r="2.9411360590368867" fill="#FF3D2E" opacity="0.8838534994582932"/><circle cx="154" cy="724" r="1.211329531401712" fill="#F5F5F5" opacity="0.3365878482300593"/><circle cx="587" cy="46" r="1.1824919120379491" fill="#FF3D2E" opacity="0.4528695282197816"/><circle cx="532" cy="104" r="0.9822047468987745" fill="#FFA800" opacity="0.49316797284021013"/><circle cx="451" cy="550" r="1.0731799520903613" fill="#F5F5F5" opacity="0.30976306752681454"/><circle cx="536" cy="678" r="0.7230340830226202" fill="#FFA800" opacity="0.8929149097919802"/><circle cx="152" cy="873" r="2.654076441420609" fill="#FF3D2E" opacity="0.5011030315415819"/><circle cx="524" cy="418" r="0.7969404904446121" fill="#F5F5F5" opacity="0.5762655497405405"/><circle cx="840" cy="903" r="1.0215439259805177" fill="#FFA800" opacity="0.3800086275406678"/><circle cx="978" cy="447" r="0.860205373973867" fill="#00E1FF" opacity="0.4106279198459585"/><circle cx="43" cy="803" r="1.4965880598122605" fill="#FFA800" opacity="0.6072825966025055"/><circle cx="397" cy="396" r="2.4818308326699685" fill="#F5F5F5" opacity="0.38102973520103534"/><circle cx="543" cy="728" r="0.623905908783768" fill="#F5F5F5" opacity="0.30115347849839075"/><circle cx="509" cy="556" r="2.8609098765883223" fill="#00E1FF" opacity="0.7649569750544818"/><circle cx="297" cy="804" r="2.6268571448977083" fill="#F5F5F5" opacity="0.8021221948860922"/><circle cx="821" cy="819" r="1.525078719734065" fill="#FFA800" opacity="0.8616077302095344"/><circle cx="899" cy="406" r="0.6988463407914842" fill="#FFA800" opacity="0.3040186383674866"/><circle cx="533" cy="591" r="1.9979995861896205" fill="#F5F5F5" opacity="0.5240824014817695"/><circle cx="841" cy="759" r="1.247761830853123" fill="#F5F5F5" opacity="0.8788675111583439"/><circle cx="468" cy="589" r="2.4675559267263387" fill="#FFA800" opacity="0.9706906214052551"/><circle cx="50" cy="776" r="0.60471008793487" fill="#FFA800" opacity="0.7914977232624181"/><circle cx="19" cy="914" r="1.4320207517154926" fill="#00E1FF" opacity="0.3025371050943667"/><circle cx="35" cy="52" r="1.5727168357390549" fill="#00E1FF" opacity="0.5501860213791934"/><circle cx="269" cy="687" r="2.5664239588567264" fill="#00E1FF" opacity="0.44705771169378966"/><circle cx="991" cy="944" r="2.1852234686689704" fill="#FFA800" opacity="0.4203331398385486"/><circle cx="696" cy="399" r="2.1013105119824553" fill="#00E1FF" opacity="0.616896136119679"/><circle cx="462" cy="324" r="2.340340375308612" fill="#00E1FF" opacity="0.9658001175322826"/><circle cx="391" cy="894" r="2.5623571640195335" fill="#FF3D2E" opacity="0.6770055815177924"/><circle cx="945" cy="837" r="1.1242212975110877" fill="#F5F5F5" opacity="0.9762970318348179"/><circle cx="322" cy="494" r="1.9872666311708178" fill="#F5F5F5" opacity="0.7747690233462963"/><circle cx="890" cy="487" r="2.4435841871950665" fill="#00E1FF" opacity="0.4874554086850422"/><circle cx="760" cy="844" r="2.683002463323229" fill="#FF3D2E" opacity="0.3178279234103679"/><circle cx="230" cy="435" r="2.4211994319286596" fill="#FF3D2E" opacity="0.8914960199745343"/><circle cx="615" cy="503" r="2.4458707725379325" fill="#FF3D2E" opacity="0.43578463982868554"/><circle cx="639" cy="250" r="1.5138298622312973" fill="#00E1FF" opacity="0.5300276885298978"/><circle cx="354" cy="822" r="2.138648267603757" fill="#F5F5F5" opacity="0.3548628428658784"/><circle cx="239" cy="925" r="2.9084383703671453" fill="#F5F5F5" opacity="0.8813461586744591"/><circle cx="34" cy="572" r="0.8754826590098892" fill="#00E1FF" opacity="0.7162330826299979"/><circle cx="296" cy="946" r="2.6209244068444133" fill="#F5F5F5" opacity="0.9732417796835473"/><circle cx="279" cy="263" r="1.1275985444531003" fill="#FF3D2E" opacity="0.8516721492712509"/><circle cx="358" cy="227" r="1.5296490893012722" fill="#FFA800" opacity="0.37279573161346163"/><circle cx="360" cy="216" r="2.9090601849508184" fill="#FF3D2E" opacity="0.3623381254356095"/><circle cx="918" cy="815" r="1.883968803980572" fill="#FFA800" opacity="0.6537642126155201"/><circle cx="185" cy="213" r="2.6047946234805073" fill="#00E1FF" opacity="0.8374987604856972"/><circle cx="819" cy="341" r="2.8028020343311506" fill="#F5F5F5" opacity="0.6316718394816792"/><circle cx="123" cy="901" r="2.025588153658468" fill="#FFA800" opacity="0.6719389591084632"/><circle cx="914" cy="833" r="2.1177140490070796" fill="#FF3D2E" opacity="0.5283276554517524"/><circle cx="813" cy="440" r="2.7950709746238864" fill="#FFA800" opacity="0.6614542202740448"/><circle cx="418" cy="516" r="1.3607184038787246" fill="#F5F5F5" opacity="0.4889632505899508"/><circle cx="518" cy="628" r="0.5383967626807291" fill="#F5F5F5" opacity="0.8637070887716294"/><circle cx="432" cy="83" r="1.420415448305627" fill="#FF3D2E" opacity="0.9833381216985728"/><circle cx="185" cy="143" r="2.461958337619058" fill="#00E1FF" opacity="0.6615412200824493"/><circle cx="333" cy="286" r="1.7002901439969698" fill="#F5F5F5" opacity="0.4119076478004871"/><circle cx="247" cy="161" r="2.628362599303722" fill="#F5F5F5" opacity="0.5765627645079643"/><circle cx="529" cy="835" r="2.9624293094903793" fill="#FF3D2E" opacity="0.8779726108599297"/><circle cx="623" cy="636" r="1.0411005137155183" fill="#F5F5F5" opacity="0.855522144520491"/><circle cx="98" cy="15" r="2.6501722199494626" fill="#F5F5F5" opacity="0.4671441959892092"/><circle cx="298" cy="122" r="0.5097028398353544" fill="#FFA800" opacity="0.3368482526232514"/><circle cx="347" cy="348" r="2.3257778079997333" fill="#FF3D2E" opacity="0.8617685568228506"/><circle cx="349" cy="45" r="1.1920293208660628" fill="#FF3D2E" opacity="0.9805230628870958"/><circle cx="440" cy="709" r="2.9329850776775364" fill="#FFA800" opacity="0.910199910669353"/><circle cx="73" cy="430" r="2.013429850123231" fill="#FFA800" opacity="0.9803538609190452"/><circle cx="8" cy="821" r="2.9320447925665296" fill="#FF3D2E" opacity="0.4647868907444475"/><circle cx="184" cy="169" r="1.2101974335078594" fill="#FF3D2E" opacity="0.8912996307610705"/><circle cx="751" cy="365" r="1.938038366226278" fill="#F5F5F5" opacity="0.6150887517390389"/><circle cx="739" cy="285" r="2.8837521693385706" fill="#F5F5F5" opacity="0.6933517568607724"/><circle cx="768" cy="438" r="2.748573101544689" fill="#FF3D2E" opacity="0.5515060688466219"/><circle cx="865" cy="758" r="2.3147515206824356" fill="#F5F5F5" opacity="0.4102257662966222"/><circle cx="95" cy="787" r="2.7579292102694866" fill="#FF3D2E" opacity="0.35923681847324807"/><circle cx="777" cy="809" r="2.9434637865063644" fill="#00E1FF" opacity="0.6586649807859575"/><circle cx="659" cy="834" r="1.1053233899324928" fill="#FF3D2E" opacity="0.8102658155959765"/><circle cx="217" cy="814" r="2.8846107943247574" fill="#FFA800" opacity="0.4773555196133735"/><circle cx="994" cy="907" r="2.095166239179651" fill="#F5F5F5" opacity="0.7039814498533103"/><circle cx="784" cy="214" r="2.3086171975812104" fill="#00E1FF" opacity="0.9059008826727777"/><circle cx="623" cy="578" r="2.0271969328327946" fill="#00E1FF" opacity="0.5498001397453338"/><circle cx="704" cy="582" r="2.3963235284825926" fill="#FFA800" opacity="0.901534492525855"/><circle cx="318" cy="4" r="1.431617636010786" fill="#F5F5F5" opacity="0.5825010384405174"/><circle cx="986" cy="141" r="0.7271624830534763" fill="#FF3D2E" opacity="0.9195014114040578"/><circle cx="493" cy="346" r="1.1562550060951544" fill="#F5F5F5" opacity="0.7470781746097881"/><circle cx="766" cy="647" r="2.644849815255357" fill="#00E1FF" opacity="0.8437143508775751"/><circle cx="720" cy="840" r="1.4073791506164368" fill="#FFA800" opacity="0.7416891419119429"/><circle cx="300" cy="607" r="1.3009891276422314" fill="#FF3D2E" opacity="0.6433914676856465"/><circle cx="131" cy="177" r="2.9459734449338866" fill="#FFA800" opacity="0.8339772972455113"/><circle cx="932" cy="136" r="1.8851708941350842" fill="#00E1FF" opacity="0.6327015748072123"/><circle cx="248" cy="538" r="1.582950188551921" fill="#FFA800" opacity="0.6612409689579317"/><circle cx="401" cy="15" r="0.7286703764977677" fill="#FFA800" opacity="0.8342152186992158"/><circle cx="325" cy="192" r="1.6248600681488647" fill="#F5F5F5" opacity="0.34947781938377304"/><circle cx="462" cy="383" r="1.735120122001729" fill="#00E1FF" opacity="0.9638974565293439"/><circle cx="633" cy="609" r="1.4859020575990785" fill="#FFA800" opacity="0.46940493109185005"/><circle cx="311" cy="889" r="2.620073574281074" fill="#F5F5F5" opacity="0.8531942298593913"/><circle cx="839" cy="962" r="1.6259658120566978" fill="#00E1FF" opacity="0.9169837571451214"/><circle cx="508" cy="542" r="0.801928545970902" fill="#FFA800" opacity="0.33603038520307865"/><circle cx="2" cy="566" r="2.3505073115290416" fill="#FFA800" opacity="0.38064210811602295"/><circle cx="40" cy="862" r="2.9664181964858067" fill="#00E1FF" opacity="0.4629430062895425"/><circle cx="941" cy="794" r="1.8767271378418915" fill="#00E1FF" opacity="0.9646830037142158"/><circle cx="220" cy="121" r="1.8994335113809653" fill="#FF3D2E" opacity="0.39681901581560847"/><circle cx="504" cy="394" r="0.9599987842148662" fill="#F5F5F5" opacity="0.5772094097353073"/><circle cx="507" cy="350" r="2.0472207288220186" fill="#FF3D2E" opacity="0.5737084362671117"/><circle cx="890" cy="876" r="1.5665590859748286" fill="#FF3D2E" opacity="0.5516767397065359"/><circle cx="882" cy="677" r="1.4773454538926418" fill="#F5F5F5" opacity="0.8292760057259512"/><circle cx="235" cy="681" r="2.8810515947012516" fill="#FF3D2E" opacity="0.4194244569064078"/><circle cx="602" cy="106" r="1.8494596016997729" fill="#FFA800" opacity="0.5544824514470427"/><circle cx="331" cy="362" r="2.09615775008133" fill="#FFA800" opacity="0.5630125791606664"/><circle cx="551" cy="944" r="1.746894005513845" fill="#00E1FF" opacity="0.5482389717137126"/><circle cx="767" cy="27" r="2.644126623006397" fill="#00E1FF" opacity="0.38041284204077574"/><circle cx="799" cy="491" r="1.7156268363378453" fill="#FF3D2E" opacity="0.9640845901035131"/><circle cx="621" cy="306" r="0.7264552638644013" fill="#00E1FF" opacity="0.5393320784789171"/><circle cx="406" cy="911" r="2.6327603925440375" fill="#FFA800" opacity="0.6273099595142819"/><circle cx="302" cy="647" r="1.927420222449582" fill="#F5F5F5" opacity="0.7306047292069049"/><circle cx="421" cy="117" r="1.7765765090752046" fill="#00E1FF" opacity="0.5937719469918461"/><circle cx="463" cy="383" r="1.510444001049489" fill="#FF3D2E" opacity="0.5218450485447761"/><circle cx="634" cy="5" r="1.39369981617712" fill="#FFA800" opacity="0.576261109744153"/><circle cx="707" cy="864" r="2.6774773938346605" fill="#F5F5F5" opacity="0.36988010492434054"/><circle cx="398" cy="260" r="0.7955270500032225" fill="#FFA800" opacity="0.5883192851924219"/><circle cx="864" cy="851" r="1.7746044669615992" fill="#F5F5F5" opacity="0.5676889597692155"/><circle cx="651" cy="831" r="0.7540410780583996" fill="#00E1FF" opacity="0.749822479657545"/><circle cx="859" cy="736" r="1.2524094516704998" fill="#FF3D2E" opacity="0.4097847459882259"/><circle cx="486" cy="247" r="2.814462865239629" fill="#FFA800" opacity="0.6172490823853912"/><circle cx="86" cy="514" r="2.700960950583343" fill="#FF3D2E" opacity="0.8832485109817354"/><circle cx="92" cy="427" r="1.0925078019522285" fill="#FFA800" opacity="0.5365905313076464"/><circle cx="223" cy="288" r="1.0695609129411239" fill="#FFA800" opacity="0.558498093334928"/><circle cx="2" cy="77" r="1.2053754798403045" fill="#F5F5F5" opacity="0.8513771395992253"/><circle cx="421" cy="417" r="2.8477655479231596" fill="#FFA800" opacity="0.8345281188605225"/><circle cx="38" cy="932" r="1.883493667079746" fill="#FF3D2E" opacity="0.876501206404789"/><circle cx="419" cy="955" r="1.9904764382044577" fill="#F5F5F5" opacity="0.48742103184783125"/><circle cx="88" cy="263" r="1.5128430118601957" fill="#F5F5F5" opacity="0.6947985958275733"/><circle cx="833" cy="835" r="2.41637181292296" fill="#FFA800" opacity="0.7464704301853734"/><circle cx="860" cy="156" r="1.6039572719674222" fill="#FFA800" opacity="0.5791601331931839"/><circle cx="973" cy="30" r="1.6832265647190483" fill="#FFA800" opacity="0.838349422829697"/><circle cx="78" cy="688" r="1.0036403427634073" fill="#F5F5F5" opacity="0.6046531421839605"/><circle cx="423" cy="756" r="1.160806575527556" fill="#00E1FF" opacity="0.8781490965727172"/><circle cx="756" cy="557" r="0.8451286026654748" fill="#FF3D2E" opacity="0.8546059722981301"/><circle cx="651" cy="281" r="1.8922370601026528" fill="#FF3D2E" opacity="0.9314703489174161"/>
  </svg>