<svg xmlns="http://www.w3.org/2000/svg" viewBox="0 0 2000 100">
    <rect width="2000" height="100" fill="#050505"/>
    <path d="M 0 50 L 20.731219835955272 56.58319889634378 L 127.47038259684972 69.8095012473224 L 239.72558144591162 78.18574681244768 L 354.49631628988857 79.66113854560007 L 468.166196091588 73.87444909441832 L 577.3883575218289 62.24246185440176 L 679.9048938283639 47.613092981643796 L 775.0996691560816 33.56812219327195 L 864.1491700928259 23.546248173760276 L 949.7344607212879 20.001175208160888 L 1035.3847646261847 23.80086079719453 L 1124.6133878747448 34.01500938999807 L 1220.057539160618 48.14284118016738 L 1322.8326491398013 62.72537022010991 L 1432.2592741040462 74.19228481736764 L 1546.0294474970667 79.73608435590421 L 1660.771750620665 77.99945336191766 L 1772.8767535143882 69.40757966985922 L 1879.3807292931176 56.064053611615456 L 1978.691277852135 41.235835737984914" fill="none" stroke="#00E1FF" stroke-width="2"/>
    <circle cx="0" cy="50" r="3" fill="#FF3D2E"/><circle cx="100" cy="50" r="3" fill="#FF3D2E"/><circle cx="200" cy="50" r="3" fill="#FF3D2E"/><circle cx="300" cy="50" r="3" fill="#FF3D2E"/><circle cx="400" cy="50" r="3" fill="#FF3D2E"/><circle cx="500" cy="50" r="3" fill="#FF3D2E"/><circle cx="600" cy="50" r="3" fill="#FF3D2E"/><circle cx="700" cy="50" r="3" fill="#FF3D2E"/><circle cx="800" cy="50" r="3" fill="#FF3D2E"/><circle cx="900" cy="50" r="3" fill="#FF3D2E"/><circle cx="1000" cy="50" r="3" fill="#FF3D2E"/><circle cx="1100" cy="50" r="3" fill="#FF3D2E"/><circle cx="1200" cy="50" r="3" fill="#FF3D2E"/><circle cx="1300" cy="50" r="3" fill="#FF3D2E"/><circle cx="1400" cy="50" r="3" fill="#FF3D2E"/><circle cx="1500" cy="50" r="3" fill="#FF3D2E"/><circle cx="1600" cy="50" r="3" fill="#FF3D2E"/><circle cx="1700" cy="50" r="3" fill="#FF3D2E"/><circle cx="1800" cy="50" r="3" fill="#FF3D2E"/><circle cx="1900" cy="50" r="3" fill="#FF3D2E"/><circle cx="2000" cy="50" r="3" fill="#FF3D2E"/>
  </svg>