<svg xmlns="http://www.w3.org/2000/svg" viewBox="0 0 1000 1000"><rect width="1000" height="1000" fill="#050505"/><line x1="128" y1="474" x2="166" y2="357" stroke="#00E1FF" stroke-width="0.5" opacity="0.3849187045601207"/><line x1="128" y1="474" x2="203" y2="352" stroke="#00E1FF" stroke-width="0.5" opacity="0.28395181726367047"/><line x1="128" y1="474" x2="188" y2="515" stroke="#00E1FF" stroke-width="0.5" opacity="0.6366475540195167"/><line x1="128" y1="474" x2="177" y2="548" stroke="#00E1FF" stroke-width="0.5" opacity="0.5562376762274651"/><line x1="128" y1="474" x2="171" y2="618" stroke="#00E1FF" stroke-width="0.5" opacity="0.2485846687749843"/><line x1="128" y1="474" x2="212" y2="654" stroke="#00E1FF" stroke-width="0.5" opacity="0.006823278565188939"/><line x1="128" y1="474" x2="104" y2="441" stroke="#00E1FF" stroke-width="0.5" opacity="0.7959779423689683"/><line x1="128" y1="474" x2="165" y2="588" stroke="#00E1FF" stroke-width="0.5" opacity="0.4007296102759623"/><line x1="544" y1="258" x2="584" y2="434" stroke="#00E1FF" stroke-width="0.5" opacity="0.09755886618572196"/><line x1="544" y1="258" x2="367" y2="253" stroke="#00E1FF" stroke-width="0.5" opacity="0.11464696307066302"/><line x1="544" y1="258" x2="451" y2="421" stroke="#00E1FF" stroke-width="0.5" opacity="0.06167702788432183"/><line x1="544" y1="258" x2="674" y2="331" stroke="#00E1FF" stroke-width="0.5" opacity="0.25453034937698493"/><line x1="544" y1="258" x2="533" y2="368" stroke="#00E1FF" stroke-width="0.5" opacity="0.44725684083835104"/><line x1="539" y1="880" x2="440" y2="834" stroke="#00E1FF" stroke-width="0.5" opacity="0.4541749364494151"/><line x1="539" y1="880" x2="492" y2="719" stroke="#00E1FF" stroke-width="0.5" opacity="0.16139997615072776"/><line x1="539" y1="880" x2="718" y2="865" stroke="#00E1FF" stroke-width="0.5" opacity="0.10186303939766517"/><line x1="539" y1="880" x2="527" y2="754" stroke="#00E1FF" stroke-width="0.5" opacity="0.3671493067081305"/><line x1="804" y1="846" x2="718" y2="865" stroke="#00E1FF" stroke-width="0.5" opacity="0.5596308366835844"/><line x1="584" y1="434" x2="554" y2="499" stroke="#00E1FF" stroke-width="0.5" opacity="0.6420544734180912"/><line x1="584" y1="434" x2="451" y2="421" stroke="#00E1FF" stroke-width="0.5" opacity="0.3318308597368478"/><line x1="584" y1="434" x2="674" y2="331" stroke="#00E1FF" stroke-width="0.5" opacity="0.3160957669380895"/><line x1="584" y1="434" x2="570" y2="509" stroke="#00E1FF" stroke-width="0.5" opacity="0.6185226087957505"/><line x1="584" y1="434" x2="533" y2="368" stroke="#00E1FF" stroke-width="0.5" opacity="0.5829568367662648"/><line x1="584" y1="434" x2="609" y2="545" stroke="#00E1FF" stroke-width="0.5" opacity="0.43109754790473964"/><line x1="584" y1="434" x2="664" y2="477" stroke="#00E1FF" stroke-width="0.5" opacity="0.5458799718136185"/><line x1="584" y1="434" x2="759" y2="416" stroke="#00E1FF" stroke-width="0.5" opacity="0.12038360633739897"/><line x1="746" y1="252" x2="896" y2="301" stroke="#00E1FF" stroke-width="0.5" opacity="0.21099746514982598"/><line x1="746" y1="252" x2="896" y2="149" stroke="#00E1FF" stroke-width="0.5" opacity="0.09020606728776215"/><line x1="746" y1="252" x2="674" y2="331" stroke="#00E1FF" stroke-width="0.5" opacity="0.4655610418392012"/><line x1="746" y1="252" x2="891" y2="293" stroke="#00E1FF" stroke-width="0.5" opacity="0.2465744894151779"/><line x1="746" y1="252" x2="759" y2="416" stroke="#00E1FF" stroke-width="0.5" opacity="0.1774278147177598"/><line x1="825" y1="468" x2="751" y2="648" stroke="#00E1FF" stroke-width="0.5" opacity="0.026912131408473483"/><line x1="825" y1="468" x2="896" y2="301" stroke="#00E1FF" stroke-width="0.5" opacity="0.09266874847165096"/><line x1="825" y1="468" x2="664" y2="477" stroke="#00E1FF" stroke-width="0.5" opacity="0.19374321708279552"/><line x1="825" y1="468" x2="891" y2="293" stroke="#00E1FF" stroke-width="0.5" opacity="0.06483958595329753"/><line x1="825" y1="468" x2="854" y2="489" stroke="#00E1FF" stroke-width="0.5" opacity="0.8209748621003184"/><line x1="825" y1="468" x2="759" y2="416" stroke="#00E1FF" stroke-width="0.5" opacity="0.5798809692479999"/><line x1="458" y1="691" x2="440" y2="834" stroke="#00E1FF" stroke-width="0.5" opacity="0.27935792518060676"/><line x1="458" y1="691" x2="597" y2="687" stroke="#00E1FF" stroke-width="0.5" opacity="0.30471228976775366"/><line x1="458" y1="691" x2="492" y2="719" stroke="#00E1FF" stroke-width="0.5" opacity="0.7797728445445475"/><line x1="458" y1="691" x2="527" y2="754" stroke="#00E1FF" stroke-width="0.5" opacity="0.5328276549280769"/><line x1="458" y1="691" x2="298" y2="796" stroke="#00E1FF" stroke-width="0.5" opacity="0.04311703954976809"/><line x1="130" y1="232" x2="166" y2="357" stroke="#00E1FF" stroke-width="0.5" opacity="0.34959627922343506"/><line x1="130" y1="232" x2="325" y2="275" stroke="#00E1FF" stroke-width="0.5" opacity="0.0015762422698466505"/><line x1="130" y1="232" x2="203" y2="352" stroke="#00E1FF" stroke-width="0.5" opacity="0.29770020646450424"/><line x1="130" y1="232" x2="217" y2="265" stroke="#00E1FF" stroke-width="0.5" opacity="0.5347581274218753"/><line x1="166" y1="357" x2="325" y2="275" stroke="#00E1FF" stroke-width="0.5" opacity="0.10550293460514926"/><line x1="166" y1="357" x2="203" y2="352" stroke="#00E1FF" stroke-width="0.5" opacity="0.8133184529740553"/><line x1="166" y1="357" x2="188" y2="515" stroke="#00E1FF" stroke-width="0.5" opacity="0.20237853589562926"/><line x1="166" y1="357" x2="177" y2="548" stroke="#00E1FF" stroke-width="0.5" opacity="0.04341754145290755"/><line x1="166" y1="357" x2="217" y2="265" stroke="#00E1FF" stroke-width="0.5" opacity="0.4740484813217096"/><line x1="166" y1="357" x2="104" y2="441" stroke="#00E1FF" stroke-width="0.5" opacity="0.47798467455447247"/><line x1="554" y1="499" x2="381" y2="448" stroke="#00E1FF" stroke-width="0.5" opacity="0.09819625194835202"/><line x1="554" y1="499" x2="451" y2="421" stroke="#00E1FF" stroke-width="0.5" opacity="0.35399303409328464"/><line x1="554" y1="499" x2="597" y2="687" stroke="#00E1FF" stroke-width="0.5" opacity="0.03572566144276135"/><line x1="554" y1="499" x2="570" y2="509" stroke="#00E1FF" stroke-width="0.5" opacity="0.905660188679434"/><line x1="554" y1="499" x2="533" y2="368" stroke="#00E1FF" stroke-width="0.5" opacity="0.33663735408149487"/><line x1="554" y1="499" x2="609" y2="545" stroke="#00E1FF" stroke-width="0.5" opacity="0.6414961645951329"/><line x1="554" y1="499" x2="664" y2="477" stroke="#00E1FF" stroke-width="0.5" opacity="0.43910785350479364"/><line x1="381" y1="448" x2="325" y2="275" stroke="#00E1FF" stroke-width="0.5" opacity="0.0908108007680688"/><line x1="381" y1="448" x2="367" y2="253" stroke="#00E1FF" stroke-width="0.5" opacity="0.022490409254210975"/><line x1="381" y1="448" x2="451" y2="421" stroke="#00E1FF" stroke-width="0.5" opacity="0.624866690361946"/><line x1="381" y1="448" x2="570" y2="509" stroke="#00E1FF" stroke-width="0.5" opacity="0.006999496475454947"/><line x1="381" y1="448" x2="533" y2="368" stroke="#00E1FF" stroke-width="0.5" opacity="0.14116357785664446"/><line x1="751" y1="648" x2="597" y2="687" stroke="#00E1FF" stroke-width="0.5" opacity="0.20569212518067015"/><line x1="751" y1="648" x2="609" y2="545" stroke="#00E1FF" stroke-width="0.5" opacity="0.12288826253435647"/><line x1="751" y1="648" x2="664" y2="477" stroke="#00E1FF" stroke-width="0.5" opacity="0.04070338268083118"/><line x1="751" y1="648" x2="854" y2="489" stroke="#00E1FF" stroke-width="0.5" opacity="0.052767188068318815"/><line x1="325" y1="275" x2="367" y2="253" stroke="#00E1FF" stroke-width="0.5" opacity="0.762934608177406"/><line x1="325" y1="275" x2="203" y2="352" stroke="#00E1FF" stroke-width="0.5" opacity="0.27866443315194833"/><line x1="325" y1="275" x2="451" y2="421" stroke="#00E1FF" stroke-width="0.5" opacity="0.035738624645786254"/><line x1="325" y1="275" x2="217" y2="265" stroke="#00E1FF" stroke-width="0.5" opacity="0.45769012548175003"/><line x1="896" y1="301" x2="896" y2="149" stroke="#00E1FF" stroke-width="0.5" opacity="0.24"/><line x1="896" y1="301" x2="891" y2="293" stroke="#00E1FF" stroke-width="0.5" opacity="0.952830094339717"/><line x1="896" y1="301" x2="854" y2="489" stroke="#00E1FF" stroke-width="0.5" opacity="0.03682815655771987"/><line x1="896" y1="301" x2="759" y2="416" stroke="#00E1FF" stroke-width="0.5" opacity="0.10565666548019725"/><line x1="440" y1="834" x2="492" y2="719" stroke="#00E1FF" stroke-width="0.5" opacity="0.36894928888400735"/><line x1="440" y1="834" x2="527" y2="754" stroke="#00E1FF" stroke-width="0.5" opacity="0.40904737922571155"/><line x1="440" y1="834" x2="298" y2="796" stroke="#00E1FF" stroke-width="0.5" opacity="0.2650170069994817"/><line x1="367" y1="253" x2="203" y2="352" stroke="#00E1FF" stroke-width="0.5" opacity="0.042176947448016366"/><line x1="367" y1="253" x2="451" y2="421" stroke="#00E1FF" stroke-width="0.5" opacity="0.06085144945008836"/><line x1="367" y1="253" x2="217" y2="265" stroke="#00E1FF" stroke-width="0.5" opacity="0.24760382776093282"/><line x1="203" y1="352" x2="188" y2="515" stroke="#00E1FF" stroke-width="0.5" opacity="0.1815563550249779"/><line x1="203" y1="352" x2="177" y2="548" stroke="#00E1FF" stroke-width="0.5" opacity="0.011415152857378708"/><line x1="203" y1="352" x2="217" y2="265" stroke="#00E1FF" stroke-width="0.5" opacity="0.5594038129987958"/><line x1="203" y1="352" x2="104" y2="441" stroke="#00E1FF" stroke-width="0.5" opacity="0.3343799882816022"/><line x1="188" y1="515" x2="177" y2="548" stroke="#00E1FF" stroke-width="0.5" opacity="0.8260747286907392"/><line x1="188" y1="515" x2="171" y2="618" stroke="#00E1FF" stroke-width="0.5" opacity="0.4780325680657843"/><line x1="188" y1="515" x2="212" y2="654" stroke="#00E1FF" stroke-width="0.5" opacity="0.29471636911097965"/><line x1="188" y1="515" x2="104" y2="441" stroke="#00E1FF" stroke-width="0.5" opacity="0.4402679212337388"/><line x1="188" y1="515" x2="165" y2="588" stroke="#00E1FF" stroke-width="0.5" opacity="0.6173121376369508"/><line x1="451" y1="421" x2="570" y2="509" stroke="#00E1FF" stroke-width="0.5" opacity="0.2599831083008983"/><line x1="451" y1="421" x2="533" y2="368" stroke="#00E1FF" stroke-width="0.5" opacity="0.5118145844046547"/><line x1="597" y1="687" x2="492" y2="719" stroke="#00E1FF" stroke-width="0.5" opacity="0.451160314845947"/><line x1="597" y1="687" x2="570" y2="509" stroke="#00E1FF" stroke-width="0.5" opacity="0.0998194625520944"/><line x1="597" y1="687" x2="609" y2="545" stroke="#00E1FF" stroke-width="0.5" opacity="0.28746929890705775"/><line x1="597" y1="687" x2="527" y2="754" stroke="#00E1FF" stroke-width="0.5" opacity="0.5155157381297097"/><line x1="492" y1="719" x2="527" y2="754" stroke="#00E1FF" stroke-width="0.5" opacity="0.7525126265847084"/><line x1="177" y1="548" x2="171" y2="618" stroke="#00E1FF" stroke-width="0.5" opacity="0.6487166385949941"/><line x1="177" y1="548" x2="212" y2="654" stroke="#00E1FF" stroke-width="0.5" opacity="0.4418557534113605"/><line x1="177" y1="548" x2="104" y2="441" stroke="#00E1FF" stroke-width="0.5" opacity="0.35235040338158174"/><line x1="177" y1="548" x2="165" y2="588" stroke="#00E1FF" stroke-width="0.5" opacity="0.791193869821789"/><line x1="896" y1="149" x2="891" y2="293" stroke="#00E1FF" stroke-width="0.5" opacity="0.2795661029629435"/><line x1="674" y1="331" x2="533" y2="368" stroke="#00E1FF" stroke-width="0.5" opacity="0.2711310131443373"/><line x1="674" y1="331" x2="664" y2="477" stroke="#00E1FF" stroke-width="0.5" opacity="0.2682896748029313"/><line x1="674" y1="331" x2="759" y2="416" stroke="#00E1FF" stroke-width="0.5" opacity="0.39895923599143457"/><line x1="171" y1="618" x2="212" y2="654" stroke="#00E1FF" stroke-width="0.5" opacity="0.7271905426859252"/><line x1="171" y1="618" x2="104" y2="441" stroke="#00E1FF" stroke-width="0.5" opacity="0.05371780107623281"/><line x1="171" y1="618" x2="165" y2="588" stroke="#00E1FF" stroke-width="0.5" opacity="0.8470294145922165"/><line x1="570" y1="509" x2="533" y2="368" stroke="#00E1FF" stroke-width="0.5" opacity="0.2711310131443373"/><line x1="570" y1="509" x2="609" y2="545" stroke="#00E1FF" stroke-width="0.5" opacity="0.734622909805688"/><line x1="570" y1="509" x2="664" y2="477" stroke="#00E1FF" stroke-width="0.5" opacity="0.5035123365077436"/><line x1="533" y1="368" x2="609" y2="545" stroke="#00E1FF" stroke-width="0.5" opacity="0.0368670912070338"/><line x1="533" y1="368" x2="664" y2="477" stroke="#00E1FF" stroke-width="0.5" opacity="0.14791432355660372"/><line x1="609" y1="545" x2="664" y2="477" stroke="#00E1FF" stroke-width="0.5" opacity="0.5627071919182755"/><line x1="609" y1="545" x2="759" y2="416" stroke="#00E1FF" stroke-width="0.5" opacity="0.010795774372147182"/><line x1="664" y1="477" x2="854" y2="489" stroke="#00E1FF" stroke-width="0.5" opacity="0.04810714888701895"/><line x1="664" y1="477" x2="759" y2="416" stroke="#00E1FF" stroke-width="0.5" opacity="0.43550907890383217"/><line x1="212" y1="654" x2="298" y2="796" stroke="#00E1FF" stroke-width="0.5" opacity="0.16993976122211463"/><line x1="212" y1="654" x2="165" y2="588" stroke="#00E1FF" stroke-width="0.5" opacity="0.594876562020907"/><line x1="104" y1="441" x2="165" y2="588" stroke="#00E1FF" stroke-width="0.5" opacity="0.20422993270668954"/><line x1="891" y1="293" x2="854" y2="489" stroke="#00E1FF" stroke-width="0.5" opacity="0.0026911210662967644"/><line x1="891" y1="293" x2="759" y2="416" stroke="#00E1FF" stroke-width="0.5" opacity="0.0978775027747063"/><line x1="854" y1="489" x2="759" y2="416" stroke="#00E1FF" stroke-width="0.5" opacity="0.4009590998938386"/><circle cx="128" cy="474" r="4" fill="#00E1FF"/><circle cx="544" cy="258" r="4" fill="#00E1FF"/><circle cx="539" cy="880" r="4" fill="#00E1FF"/><circle cx="804" cy="846" r="4" fill="#00E1FF"/><circle cx="584" cy="434" r="4" fill="#00E1FF"/><circle cx="746" cy="252" r="4" fill="#00E1FF"/><circle cx="825" cy="468" r="4" fill="#00E1FF"/><circle cx="458" cy="691" r="4" fill="#00E1FF"/><circle cx="130" cy="232" r="4" fill="#00E1FF"/><circle cx="166" cy="357" r="4" fill="#00E1FF"/><circle cx="554" cy="499" r="4" fill="#00E1FF"/><circle cx="381" cy="448" r="4" fill="#00E1FF"/><circle cx="751" cy="648" r="4" fill="#00E1FF"/><circle cx="325" cy="275" r="4" fill="#00E1FF"/><circle cx="896" cy="301" r="4" fill="#00E1FF"/><circle cx="440" cy="834" r="4" fill="#00E1FF"/><circle cx="367" cy="253" r="4" fill="#00E1FF"/><circle cx="203" cy="352" r="4" fill="#00E1FF"/><circle cx="188" cy="515" r="4" fill="#00E1FF"/><circle cx="451" cy="421" r="4" fill="#00E1FF"/><circle cx="597" cy="687" r="4" fill="#00E1FF"/><circle cx="492" cy="719" r="4" fill="#00E1FF"/><circle cx="177" cy="548" r="4" fill="#00E1FF"/><circle cx="217" cy="265" r="4" fill="#00E1FF"/><circle cx="896" cy="149" r="4" fill="#00E1FF"/><circle cx="674" cy="331" r="4" fill="#00E1FF"/><circle cx="171" cy="618" r="4" fill="#00E1FF"/><circle cx="570" cy="509" r="4" fill="#00E1FF"/><circle cx="718" cy="865" r="4" fill="#00E1FF"/><circle cx="533" cy="368" r="4" fill="#00E1FF"/><circle cx="609" cy="545" r="4" fill="#00E1FF"/><circle cx="664" cy="477" r="4" fill="#00E1FF"/><circle cx="527" cy="754" r="4" fill="#00E1FF"/><circle cx="212" cy="654" r="4" fill="#00E1FF"/><circle cx="104" cy="441" r="4" fill="#00E1FF"/><circle cx="891" cy="293" r="4" fill="#00E1FF"/><circle cx="298" cy="796" r="4" fill="#00E1FF"/><circle cx="854" cy="489" r="4" fill="#00E1FF"/><circle cx="759" cy="416" r="4" fill="#00E1FF"/><circle cx="165" cy="588" r="4" fill="#00E1FF"/><circle cx="500" cy="500" r="60" fill="#FF3D2E"/><text x="500" y="520" text-anchor="middle" fill="#F5F5F5" font-size="60" font-weight="900" font-family="Arial">🧠</text></svg>