<svg xmlns="http://www.w3.org/2000/svg" viewBox="0 0 1000 1000"><rect width="1000" height="1000" fill="#050505"/><path d="M 0 500 L 0 353.71753748434736 L 20 447.2603432062891 L 40 535.8994247476616 L 60 581.6790940357989 L 80 587.6040831190717 L 100 587.7576012271727 L 120 609.7243741840275 L 140 644.8520695153103 L 160 654.3836961005084 L 180 606.1106134432375 L 200 507.6865056610856 L 220 405.38922092647215 L 240 348.55336381749987 L 260 351.2721259073445 L 280 385.4649216566618 L 300 410.733221664428 L 320 412.91765030303145 L 340 415.68375217521907 L 360 454.71065553461347 L 380 538.8533903802775 L 400 634.9387547660149 L 420 691.2884100095514 L 440 679.4435671371318 L 460 616.6436002764528 L 480 548.9738338489943 L 500 510.8346090715779 L 520 497.7051347329956 L 540 476.5496121260305 L 560 423.31159586090496 L 580 351.90013569391033 L 600 306.9335485694452 L 620 326.0388314534099 L 640 405.8441026400913 L 660 502.83786416150826 L 680 568.6588612011083 L 700 588.1155063751834 L 720 585.9973025583739 L 740 597.5455937199498 L 760 630.7964646664343 L 780 656.2474194278059 L 800 633.8131944758076 L 820 552.3142818337884 L 840 444.7766953604156 L 860 364.68368043571337 L 880 343.96896610195216 L 900 370.24109481798143 L 920 403.13919882237127 L 940 413.9992290511824 L 960 411.9577367455248 L 980 432.53295128840085 L 1000 499.6582638026741" fill="none" stroke="#FF3D2E" stroke-width="6"/><path d="M 0 500 L 0 353.71753748434736 L 20 447.2603432062891 L 40 535.8994247476616 L 60 581.6790940357989 L 80 587.6040831190717 L 100 587.7576012271727 L 120 609.7243741840275 L 140 644.8520695153103 L 160 654.3836961005084 L 180 606.1106134432375 L 200 507.6865056610856 L 220 405.38922092647215 L 240 348.55336381749987 L 260 351.2721259073445 L 280 385.4649216566618 L 300 410.733221664428 L 320 412.91765030303145 L 340 415.68375217521907 L 360 454.71065553461347 L 380 538.8533903802775 L 400 634.9387547660149 L 420 691.2884100095514 L 440 679.4435671371318 L 460 616.6436002764528 L 480 548.9738338489943 L 500 510.8346090715779 L 520 497.7051347329956 L 540 476.5496121260305 L 560 423.31159586090496 L 580 351.90013569391033 L 600 306.9335485694452 L 620 326.0388314534099 L 640 405.8441026400913 L 660 502.83786416150826 L 680 568.6588612011083 L 700 588.1155063751834 L 720 585.9973025583739 L 740 597.5455937199498 L 760 630.7964646664343 L 780 656.2474194278059 L 800 633.8131944758076 L 820 552.3142818337884 L 840 444.7766953604156 L 860 364.68368043571337 L 880 343.96896610195216 L 900 370.24109481798143 L 920 403.13919882237127 L 940 413.9992290511824 L 960 411.9577367455248 L 980 432.53295128840085 L 1000 499.6582638026741 L 1000 1000 L 0 1000 Z" fill="#FF3D2E" opacity="0.2"/><circle cx="500" cy="500" r="20" fill="#00E1FF"/></svg>