<svg xmlns="http://www.w3.org/2000/svg" viewBox="0 0 1000 1000">
    <rect width="1000" height="1000" fill="#050505"/>
    <circle cx="28" cy="646" r="1.7733006851356383" fill="#F5F5F5" opacity="0.5458650370459059"/><circle cx="37" cy="738" r="1.2738566346253801" fill="#FFA800" opacity="0.720577695651337"/><circle cx="860" cy="785" r="2.4964208745137393" fill="#00E1FF" opacity="0.472306627489531"/><circle cx="936" cy="859" r="1.262263678722167" fill="#FF3D2E" opacity="0.8839871289950121"/><circle cx="988" cy="232" r="0.8208444813689942" fill="#00E1FF" opacity="0.3960723349167027"/><circle cx="902" cy="340" r="0.9443295642997303" fill="#F5F5F5" opacity="0.8742100785376448"/><circle cx="112" cy="630" r="1.692111009521849" fill="#F5F5F5" opacity="0.5970780451460623"/><circle cx="550" cy="172" r="2.682667999755015" fill="#FFA800" opacity="0.377284285038698"/><circle cx="608" cy="965" r="0.6174850398140787" fill="#FFA800" opacity="0.40319440777472515"/><circle cx="650" cy="308" r="1.2781766819058928" fill="#FF3D2E" opacity="0.4673422351019332"/><circle cx="364" cy="595" r="2.623173508163378" fill="#F5F5F5" opacity="0.6509601917803189"/><circle cx="387" cy="43" r="1.5691759051595877" fill="#FFA800" opacity="0.9100312249688209"/><circle cx="223" cy="769" r="1.195797422132406" fill="#FFA800" opacity="0.47046427793966383"/><circle cx="76" cy="378" r="0.6122261491352311" fill="#F5F5F5" opacity="0.9039823846835826"/><circle cx="620" cy="797" r="1.4076035186725502" fill="#F5F5F5" opacity="0.31063972393266537"/><circle cx="694" cy="15" r="2.2709967580967625" fill="#F5F5F5" opacity="0.8391854605619804"/><circle cx="12" cy="516" r="0.5355057474260811" fill="#FFA800" opacity="0.42974265009857665"/><circle cx="356" cy="473" r="2.4817626207666157" fill="#FF3D2E" opacity="0.9504326301747208"/><circle cx="33" cy="562" r="1.0399920606579274" fill="#FF3D2E" opacity="0.8395042486094129"/><circle cx="327" cy="27" r="0.6050911453166992" fill="#FF3D2E" opacity="0.9296034364362329"/><circle cx="502" cy="909" r="2.2703413561472265" fill="#00E1FF" opacity="0.9634238885997548"/><circle cx="754" cy="721" r="1.8044771511218838" fill="#F5F5F5" opacity="0.698011351225003"/><circle cx="315" cy="113" r="1.9824777416664543" fill="#00E1FF" opacity="0.9888093167409022"/><circle cx="710" cy="70" r="2.981699988914265" fill="#FF3D2E" opacity="0.40026964107115526"/><circle cx="558" cy="82" r="1.65587649577148" fill="#00E1FF" opacity="0.31316008698073444"/><circle cx="720" cy="835" r="1.6884388561632204" fill="#FF3D2E" opacity="0.5532270954359199"/><circle cx="64" cy="483" r="0.9950899922735602" fill="#FF3D2E" opacity="0.9991349806009324"/><circle cx="255" cy="270" r="0.6906582988947836" fill="#FF3D2E" opacity="0.654412695697398"/><circle cx="539" cy="582" r="1.6926032290667687" fill="#F5F5F5" opacity="0.7022147309959981"/><circle cx="56" cy="850" r="1.4369166298245235" fill="#FFA800" opacity="0.5787878095833012"/><circle cx="715" cy="212" r="2.5307073909254862" fill="#F5F5F5" opacity="0.3835999644641554"/><circle cx="644" cy="545" r="2.9228646879668965" fill="#FF3D2E" opacity="0.919132264778215"/><circle cx="831" cy="320" r="2.3359950869102075" fill="#F5F5F5" opacity="0.4107650883824821"/><circle cx="155" cy="189" r="1.9305003048306912" fill="#F5F5F5" opacity="0.7336067113803448"/><circle cx="979" cy="387" r="2.557135788972024" fill="#FF3D2E" opacity="0.8305796550998914"/><circle cx="708" cy="737" r="0.8042516378928828" fill="#F5F5F5" opacity="0.402303057884316"/><circle cx="410" cy="119" r="2.013205744871404" fill="#00E1FF" opacity="0.8107327022339221"/><circle cx="259" cy="276" r="1.1969074203678565" fill="#00E1FF" opacity="0.8890628965153056"/><circle cx="512" cy="575" r="0.8271714430741574" fill="#FFA800" opacity="0.3084457276774641"/><circle cx="61" cy="155" r="1.5353634534906346" fill="#00E1FF" opacity="0.8800973955389453"/><circle cx="356" cy="851" r="2.710079543989413" fill="#00E1FF" opacity="0.9723418815084586"/><circle cx="262" cy="38" r="2.328736050493054" fill="#00E1FF" opacity="0.7689488726188268"/><circle cx="174" cy="193" r="0.7503615667806591" fill="#00E1FF" opacity="0.5776227273381302"/><circle cx="122" cy="724" r="0.7567814995983769" fill="#FF3D2E" opacity="0.4313450559248611"/><circle cx="455" cy="893" r="2.3422243521039046" fill="#FF3D2E" opacity="0.6147392424209517"/><circle cx="815" cy="388" r="2.5622674756536656" fill="#00E1FF" opacity="0.8309025502883698"/><circle cx="427" cy="720" r="2.1493786846035268" fill="#FFA800" opacity="0.9063579268184616"/><circle cx="351" cy="748" r="2.0234412186744044" fill="#FF3D2E" opacity="0.9274120020694041"/><circle cx="45" cy="181" r="2.073083256465635" fill="#FFA800" opacity="0.42483754499181026"/><circle cx="300" cy="912" r="2.0937423782689897" fill="#F5F5F5" opacity="0.7776802372465669"/><circle cx="61" cy="320" r="1.607814066007612" fill="#FF3D2E" opacity="0.540701363388049"/><circle cx="767" cy="721" r="1.450669681121556" fill="#00E1FF" opacity="0.7076459642053625"/><circle cx="3" cy="392" r="2.5912765556947615" fill="#FFA800" opacity="0.551828025396921"/><circle cx="519" cy="381" r="1.8145427058848584" fill="#FF3D2E" opacity="0.38389348423174363"/><circle cx="909" cy="794" r="2.0898413971900878" fill="#F5F5F5" opacity="0.8213970116530454"/><circle cx="0" cy="756" r="1.417825548906348" fill="#FFA800" opacity="0.7818557861642434"/><circle cx="265" cy="775" r="0.9926582332597623" fill="#00E1FF" opacity="0.6410744675354878"/><circle cx="165" cy="114" r="1.890512503414384" fill="#F5F5F5" opacity="0.46901917645992497"/><circle cx="187" cy="236" r="0.9422641187397064" fill="#FFA800" opacity="0.5602684082266113"/><circle cx="866" cy="594" r="0.7361534135814458" fill="#FF3D2E" opacity="0.3236907986275008"/><circle cx="791" cy="440" r="0.7410872686030652" fill="#FFA800" opacity="0.42045647929095764"/><circle cx="305" cy="793" r="1.2274364857431004" fill="#FFA800" opacity="0.9433497437547784"/><circle cx="864" cy="190" r="1.2500525207031057" fill="#F5F5F5" opacity="0.3074511487618544"/><circle cx="271" cy="729" r="1.6691637441467235" fill="#FFA800" opacity="0.6682810939637012"/><circle cx="54" cy="187" r="1.7124914701362" fill="#F5F5F5" opacity="0.30245805067806864"/><circle cx="955" cy="630" r="0.6890540941659086" fill="#FFA800" opacity="0.7157902067030589"/><circle cx="135" cy="234" r="2.170995264096238" fill="#F5F5F5" opacity="0.5281147999292548"/><circle cx="279" cy="767" r="2.7052554437920517" fill="#00E1FF" opacity="0.38627662269125057"/><circle cx="325" cy="56" r="1.4739893320143267" fill="#F5F5F5" opacity="0.46596595649224276"/><circle cx="44" cy="940" r="1.5877149048586898" fill="#FFA800" opacity="0.7973596455853749"/><circle cx="712" cy="352" r="1.3000042256145283" fill="#FF3D2E" opacity="0.8485345581157324"/><circle cx="733" cy="15" r="2.2168566859224352" fill="#FF3D2E" opacity="0.6737983659367703"/><circle cx="138" cy="776" r="0.5268232535765905" fill="#00E1FF" opacity="0.7959109692896098"/><circle cx="896" cy="662" r="0.8288779935885455" fill="#FFA800" opacity="0.9957436114556901"/><circle cx="294" cy="815" r="0.7044601916283606" fill="#F5F5F5" opacity="0.6324551797985033"/><circle cx="472" cy="929" r="1.2100969139521092" fill="#FFA800" opacity="0.79973770454617"/><circle cx="949" cy="513" r="0.7109156243972354" fill="#F5F5F5" opacity="0.37308151545419643"/><circle cx="731" cy="97" r="1.2208034158074283" fill="#FF3D2E" opacity="0.6098094290699689"/><circle cx="991" cy="848" r="1.6131534972657646" fill="#FF3D2E" opacity="0.9140395498702485"/><circle cx="330" cy="967" r="1.1911834771596348" fill="#F5F5F5" opacity="0.8282022169181209"/><circle cx="301" cy="844" r="1.7050735741801522" fill="#F5F5F5" opacity="0.9850727015920366"/><circle cx="921" cy="250" r="0.5022562359045342" fill="#F5F5F5" opacity="0.6466598649754574"/><circle cx="493" cy="561" r="1.5183273553072674" fill="#FFA800" opacity="0.323339152589088"/><circle cx="377" cy="140" r="2.734038905637774" fill="#FFA800" opacity="0.8616961350474277"/><circle cx="326" cy="224" r="2.7090362115667723" fill="#00E1FF" opacity="0.562073840939999"/><circle cx="356" cy="6" r="2.261015037382162" fill="#FF3D2E" opacity="0.551266833206155"/><circle cx="694" cy="909" r="2.0801331315837586" fill="#F5F5F5" opacity="0.8496953811311576"/><circle cx="836" cy="368" r="2.0252864599346543" fill="#F5F5F5" opacity="0.7802071630066376"/><circle cx="527" cy="291" r="0.7868210719960429" fill="#FF3D2E" opacity="0.6380168592714384"/><circle cx="100" cy="672" r="2.648966316299605" fill="#FF3D2E" opacity="0.43264680205098877"/><circle cx="757" cy="309" r="1.0700643975846142" fill="#FFA800" opacity="0.8664196341144919"/><circle cx="317" cy="741" r="2.2992437871964606" fill="#00E1FF" opacity="0.9930083360377249"/><circle cx="880" cy="557" r="2.291664912325794" fill="#F5F5F5" opacity="0.6593868853931989"/><circle cx="391" cy="375" r="2.210116764438296" fill="#00E1FF" opacity="0.8206713482303507"/><circle cx="849" cy="705" r="2.7336547186080615" fill="#F5F5F5" opacity="0.6638263819954574"/><circle cx="684" cy="183" r="2.779440287205032" fill="#F5F5F5" opacity="0.5570448019892071"/><circle cx="543" cy="866" r="0.6423625183160809" fill="#FF3D2E" opacity="0.6388505710320131"/><circle cx="702" cy="99" r="1.6677965117167348" fill="#F5F5F5" opacity="0.929514948928416"/><circle cx="813" cy="6" r="0.6775565042312377" fill="#F5F5F5" opacity="0.5769153612832124"/><circle cx="262" cy="759" r="1.119840843425194" fill="#FF3D2E" opacity="0.3434800515499007"/><circle cx="138" cy="883" r="1.3430744977966143" fill="#F5F5F5" opacity="0.541606745979313"/><circle cx="622" cy="34" r="2.907422178759563" fill="#FFA800" opacity="0.6883950719447809"/><circle cx="957" cy="428" r="0.5872470627779132" fill="#00E1FF" opacity="0.8725261493175107"/><circle cx="489" cy="944" r="0.6313547811109855" fill="#F5F5F5" opacity="0.3632666323965923"/><circle cx="14" cy="428" r="2.140538510334536" fill="#FFA800" opacity="0.7577673537251719"/><circle cx="76" cy="958" r="2.237026674605579" fill="#00E1FF" opacity="0.44698435761378563"/><circle cx="527" cy="328" r="2.4516453391453314" fill="#FFA800" opacity="0.5124442705456067"/><circle cx="869" cy="359" r="1.0118464573690389" fill="#F5F5F5" opacity="0.9295490433289395"/><circle cx="490" cy="465" r="1.227305487695321" fill="#FF3D2E" opacity="0.6193213292727484"/><circle cx="526" cy="116" r="2.391791925907482" fill="#FFA800" opacity="0.38315348826440465"/><circle cx="2" cy="126" r="0.6869455582597512" fill="#FFA800" opacity="0.3172206279332096"/><circle cx="722" cy="687" r="1.2396853753495063" fill="#FF3D2E" opacity="0.6558260529449431"/><circle cx="124" cy="80" r="2.767043855286674" fill="#00E1FF" opacity="0.6963085526169597"/><circle cx="774" cy="300" r="1.3477150978494563" fill="#00E1FF" opacity="0.6137896061556033"/><circle cx="575" cy="397" r="1.094202217604927" fill="#F5F5F5" opacity="0.7129897162972443"/><circle cx="49" cy="6" r="2.7672888327869023" fill="#00E1FF" opacity="0.3530849395484715"/><circle cx="639" cy="863" r="2.6450831431928368" fill="#FF3D2E" opacity="0.6151915134042157"/><circle cx="269" cy="206" r="0.5022770279326872" fill="#FF3D2E" opacity="0.9439762559776148"/><circle cx="369" cy="924" r="1.4319224736253295" fill="#FFA800" opacity="0.31970682348206064"/><circle cx="401" cy="277" r="0.9676055830190212" fill="#F5F5F5" opacity="0.7415389153351932"/><circle cx="641" cy="543" r="0.9545575398865709" fill="#00E1FF" opacity="0.9199576427177665"/><circle cx="467" cy="0" r="2.1348981309230353" fill="#FFA800" opacity="0.8155169225625276"/><circle cx="907" cy="51" r="1.6918847629061236" fill="#00E1FF" opacity="0.9275838742538571"/><circle cx="225" cy="543" r="2.8101175928538336" fill="#FFA800" opacity="0.7422862487374521"/><circle cx="776" cy="78" r="2.5434135243927534" fill="#FFA800" opacity="0.386879712893187"/><circle cx="371" cy="57" r="0.5781283828596913" fill="#00E1FF" opacity="0.3301534497407563"/><circle cx="337" cy="273" r="2.8807870974344034" fill="#FF3D2E" opacity="0.9256461809000645"/><circle cx="333" cy="935" r="2.6191532581170254" fill="#00E1FF" opacity="0.7143329802710863"/><circle cx="405" cy="2" r="0.969769937225985" fill="#FF3D2E" opacity="0.6089467743287448"/><circle cx="7" cy="939" r="1.1969257336833612" fill="#F5F5F5" opacity="0.670119802106004"/><circle cx="206" cy="432" r="2.538705212320677" fill="#00E1FF" opacity="0.5424117736985135"/><circle cx="138" cy="102" r="1.2689674101403758" fill="#F5F5F5" opacity="0.7942206007091941"/><circle cx="882" cy="553" r="2.7657723527837144" fill="#F5F5F5" opacity="0.7453325914192782"/><circle cx="202" cy="490" r="1.1853306389738034" fill="#00E1FF" opacity="0.9504680787893431"/><circle cx="76" cy="148" r="1.5125861535478915" fill="#FF3D2E" opacity="0.6231752932267436"/><circle cx="325" cy="340" r="1.3198301022993375" fill="#FFA800" opacity="0.8379293534302266"/><circle cx="878" cy="70" r="2.5572045820944425" fill="#FF3D2E" opacity="0.8383577102890598"/><circle cx="864" cy="814" r="2.1737191832732363" fill="#FFA800" opacity="0.9281354597671634"/><circle cx="823" cy="634" r="2.6746032477994777" fill="#00E1FF" opacity="0.7665413018794704"/><circle cx="104" cy="989" r="1.2879992473581203" fill="#F5F5F5" opacity="0.6609078837825266"/><circle cx="210" cy="272" r="2.9321492123480954" fill="#F5F5F5" opacity="0.4629871324925877"/><circle cx="930" cy="410" r="2.431587834240935" fill="#FFA800" opacity="0.7416823561868151"/><circle cx="660" cy="535" r="2.929043604809922" fill="#FFA800" opacity="0.9088384853110796"/><circle cx="889" cy="925" r="2.9365633624812224" fill="#FFA800" opacity="0.6062011711102021"/><circle cx="319" cy="698" r="1.9000673364397294" fill="#FF3D2E" opacity="0.8854160482794959"/><circle cx="634" cy="75" r="1.4546285309463238" fill="#FFA800" opacity="0.3451895546744264"/><circle cx="776" cy="798" r="1.523288483832634" fill="#FFA800" opacity="0.5103122456428679"/><circle cx="507" cy="468" r="2.8838827037948325" fill="#00E1FF" opacity="0.4214954610044147"/><circle cx="42" cy="176" r="0.5086784817413632" fill="#FF3D2E" opacity="0.8959488743604005"/><circle cx="45" cy="588" r="2.3289727420217945" fill="#FF3D2E" opacity="0.9110878634207529"/><circle cx="358" cy="121" r="2.7797288531929887" fill="#F5F5F5" opacity="0.5637065081135217"/><circle cx="784" cy="533" r="1.540413727290651" fill="#00E1FF" opacity="0.9706748241021388"/><circle cx="966" cy="139" r="2.6160274885610413" fill="#00E1FF" opacity="0.6626126782122792"/><circle cx="139" cy="391" r="2.4059361573337217" fill="#F5F5F5" opacity="0.8485992442719688"/><circle cx="731" cy="198" r="1.4064107634662577" fill="#F5F5F5" opacity="0.6323695706326384"/><circle cx="284" cy="22" r="2.2795097773539674" fill="#00E1FF" opacity="0.5901633788267376"/><circle cx="228" cy="199" r="1.6991776382693549" fill="#FF3D2E" opacity="0.5592277492258508"/><circle cx="60" cy="349" r="2.309192578835525" fill="#FF3D2E" opacity="0.46497832312823034"/><circle cx="613" cy="223" r="2.162251667677551" fill="#00E1FF" opacity="0.42117533914238675"/><circle cx="687" cy="417" r="2.530603910178616" fill="#FF3D2E" opacity="0.6748490560904101"/><circle cx="568" cy="296" r="1.9858079728929714" fill="#FF3D2E" opacity="0.7615529556334821"/><circle cx="366" cy="327" r="1.8436119349453246" fill="#00E1FF" opacity="0.863361849013063"/><circle cx="248" cy="986" r="1.389365552244608" fill="#FFA800" opacity="0.960969464970735"/><circle cx="255" cy="151" r="2.6227624252659902" fill="#FFA800" opacity="0.44007409295974703"/><circle cx="786" cy="442" r="2.753433576094159" fill="#00E1FF" opacity="0.31428257017480304"/><circle cx="426" cy="598" r="0.5769945839240893" fill="#00E1FF" opacity="0.7836814706294584"/><circle cx="918" cy="790" r="1.44238229233516" fill="#00E1FF" opacity="0.7979841432057851"/><circle cx="301" cy="977" r="1.2840311239153568" fill="#F5F5F5" opacity="0.3432251824040122"/><circle cx="1" cy="805" r="0.7927594859781191" fill="#FF3D2E" opacity="0.6422274992838557"/><circle cx="693" cy="2" r="2.657601245914095" fill="#F5F5F5" opacity="0.5334259427648793"/><circle cx="805" cy="873" r="1.7977029628859023" fill="#FF3D2E" opacity="0.379639591968995"/><circle cx="665" cy="467" r="1.0738010714322395" fill="#FF3D2E" opacity="0.9217781620966132"/><circle cx="850" cy="821" r="1.1763059817162653" fill="#F5F5F5" opacity="0.48749961770306827"/><circle cx="584" cy="246" r="2.426137338957867" fill="#F5F5F5" opacity="0.49161056225570376"/><circle cx="43" cy="328" r="2.866837762868345" fill="#FFA800" opacity="0.6570266170382185"/><circle cx="289" cy="198" r="0.9102365126649182" fill="#FFA800" opacity="0.9303016073941852"/><circle cx="927" cy="311" r="1.499234249915249" fill="#F5F5F5" opacity="0.4662159706221277"/><circle cx="610" cy="586" r="2.625509329954696" fill="#F5F5F5" opacity="0.340117086194089"/><circle cx="840" cy="658" r="1.2145226636065027" fill="#00E1FF" opacity="0.37814930960513904"/><circle cx="968" cy="466" r="1.0294944981874161" fill="#FF3D2E" opacity="0.4043616283587883"/><circle cx="639" cy="723" r="2.158142119544749" fill="#FF3D2E" opacity="0.41635861403354374"/><circle cx="165" cy="663" r="2.8160739039461493" fill="#FF3D2E" opacity="0.5284142522176375"/><circle cx="153" cy="535" r="1.7041493750842436" fill="#FF3D2E" opacity="0.7207229132717436"/><circle cx="208" cy="937" r="0.8181073893511632" fill="#FFA800" opacity="0.46253295444363773"/><circle cx="402" cy="972" r="1.863833868244636" fill="#00E1FF" opacity="0.5360228823207396"/><circle cx="25" cy="815" r="2.103531971299634" fill="#FFA800" opacity="0.8915836507631185"/><circle cx="938" cy="662" r="1.30708654055746" fill="#00E1FF" opacity="0.9316248628574937"/><circle cx="268" cy="770" r="2.549258146699606" fill="#FF3D2E" opacity="0.7199986267203289"/><circle cx="765" cy="704" r="0.9457293008541913" fill="#00E1FF" opacity="0.7613629520351312"/><circle cx="629" cy="839" r="2.164706129031474" fill="#00E1FF" opacity="0.9628782301180034"/><circle cx="96" cy="546" r="1.4045132344488054" fill="#FFA800" opacity="0.3876325205551859"/><circle cx="446" cy="57" r="0.8213940143795935" fill="#F5F5F5" opacity="0.838839939139093"/><circle cx="710" cy="487" r="2.7142094884799546" fill="#00E1FF" opacity="0.6079713352600145"/><circle cx="266" cy="373" r="2.372486067155297" fill="#FFA800" opacity="0.8907659589166737"/><circle cx="239" cy="205" r="1.881301736408408" fill="#FFA800" opacity="0.3646180453661445"/><circle cx="746" cy="769" r="2.8071883894748435" fill="#F5F5F5" opacity="0.4757069169439355"/><circle cx="63" cy="479" r="1.5899551476000313" fill="#00E1FF" opacity="0.8265184002183166"/><circle cx="490" cy="210" r="2.241077595045453" fill="#FFA800" opacity="0.6286779726584129"/><circle cx="348" cy="560" r="2.158944635839431" fill="#F5F5F5" opacity="0.415346454401771"/><circle cx="292" cy="111" r="0.6043475754004003" fill="#00E1FF" opacity="0.8600547459867522"/>
  </svg>