<svg xmlns="http://www.w3.org/2000/svg" viewBox="0 0 2000 100">
    <rect width="2000" height="100" fill="#050505"/>
    <path d="M 0 50 L 33.90281245998695 75.31561876197476 L 148.01034307946398 79.93394837535742 L 262.60501110479925 77.22340344350589 L 374.1135327965486 67.84761989929676 L 479.7182206708461 54.10211654623501 L 578.0468516657405 39.35227199633885 L 669.5086352047135 27.20936261423536 L 756.1940244581339 20.646396115433472 L 841.362900500048 21.27021559029846 L 928.6464397289263 28.928088274918593 L 1021.1580752436133 41.74509985845209 L 1120.7312198359552 56.58319889634378 L 1227.4703825968497 69.8095012473224 L 1339.7255814459115 78.18574681244768 L 1454.4963162898887 79.66113854560007 L 1568.166196091588 73.87444909441832 L 1677.3883575218288 62.24246185440176 L 1779.904893828364 47.613092981643796 L 1875.0996691560817 33.56812219327195 L 1964.149170092826 23.546248173760276" fill="none" stroke="#00E1FF" stroke-width="2"/>
    <circle cx="0" cy="50" r="3" fill="#FF3D2E"/><circle cx="100" cy="50" r="3" fill="#FF3D2E"/><circle cx="200" cy="50" r="3" fill="#FF3D2E"/><circle cx="300" cy="50" r="3" fill="#FF3D2E"/><circle cx="400" cy="50" r="3" fill="#FF3D2E"/><circle cx="500" cy="50" r="3" fill="#FF3D2E"/><circle cx="600" cy="50" r="3" fill="#FF3D2E"/><circle cx="700" cy="50" r="3" fill="#FF3D2E"/><circle cx="800" cy="50" r="3" fill="#FF3D2E"/><circle cx="900" cy="50" r="3" fill="#FF3D2E"/><circle cx="1000" cy="50" r="3" fill="#FF3D2E"/><circle cx="1100" cy="50" r="3" fill="#FF3D2E"/><circle cx="1200" cy="50" r="3" fill="#FF3D2E"/><circle cx="1300" cy="50" r="3" fill="#FF3D2E"/><circle cx="1400" cy="50" r="3" fill="#FF3D2E"/><circle cx="1500" cy="50" r="3" fill="#FF3D2E"/><circle cx="1600" cy="50" r="3" fill="#FF3D2E"/><circle cx="1700" cy="50" r="3" fill="#FF3D2E"/><circle cx="1800" cy="50" r="3" fill="#FF3D2E"/><circle cx="1900" cy="50" r="3" fill="#FF3D2E"/><circle cx="2000" cy="50" r="3" fill="#FF3D2E"/>
  </svg>