<svg xmlns="http://www.w3.org/2000/svg" viewBox="0 0 1000 1000"><rect width="1000" height="1000" fill="#050505"/><circle cx="650" cy="500" r="33.333333333333336" fill="#FF3D2E" opacity="0.7"/><rect x="663.4883125511717" y="594.3473880147874" width="60" height="60" fill="#FF3D2E" opacity="0.7" transform="rotate(15 693.4883125511717 624.3473880147874)"/><polygon points="628.7786540305848,741.9859185599007 663.7786540305848,801.9859185599007 593.7786540305848,801.9859185599007" fill="#FFA800" opacity="0.7"/><line x1="428.65277425900723" y1="648.4732162821399" x2="528.6527742590072" y2="648.4732162821399" stroke="#00E1FF" stroke-width="4" opacity="0.8"/><circle cx="349.38203119258446" cy="673.8224021014794" r="33.333333333333336" fill="#FF3D2E" opacity="0.7"/><rect x="172.55717817950585" y="557.3370926208434" width="60" height="60" fill="#FFA800" opacity="0.7" transform="rotate(75 202.55717817950585 587.3370926208434)"/><polygon points="356.07605395782537,417.7401164737856 391.07605395782537,477.7401164737856 321.07605395782537,477.7401164737856" fill="#FF3D2E" opacity="0.7"/><line x1="299.3820311925844" y1="326.1775978985206" x2="399.3820311925844" y2="326.1775978985206" stroke="#00E1FF" stroke-width="4" opacity="0.8"/><circle cx="455.88240013528156" cy="193.15535301691085" r="33.333333333333336" fill="#FF3D2E" opacity="0.7"/><rect x="532.312251950283" y="333.5552006968222" width="60" height="60" fill="#00E1FF" opacity="0.7" transform="rotate(135 562.312251950283 363.5552006968222)"/><polygon points="693.4883125511716,335.6526119852124 728.4883125511716,395.6526119852124 658.4883125511716,395.6526119852124" fill="#FFA800" opacity="0.7"/><circle cx="500" cy="500" r="80" fill="#F5F5F5" opacity="0.9"/><circle cx="500" cy="500" r="40" fill="#050505"/></svg>