<svg xmlns="http://www.w3.org/2000/svg" viewBox="0 0 1000 1000"><rect width="1000" height="1000" fill="#050505"/><line x1="621" y1="713" x2="559" y2="565" stroke="#00E1FF" stroke-width="0.5" opacity="0.1976908326586314"/><line x1="621" y1="713" x2="618" y2="871" stroke="#00E1FF" stroke-width="0.5" opacity="0.20985760776933393"/><line x1="621" y1="713" x2="617" y2="828" stroke="#00E1FF" stroke-width="0.5" opacity="0.42465227905205016"/><line x1="621" y1="713" x2="507" y2="840" stroke="#00E1FF" stroke-width="0.5" opacity="0.14669759170619945"/><line x1="621" y1="713" x2="646" y2="560" stroke="#00E1FF" stroke-width="0.5" opacity="0.22485485230184155"/><line x1="621" y1="713" x2="434" y2="710" stroke="#00E1FF" stroke-width="0.5" opacity="0.0648796868851581"/><line x1="621" y1="713" x2="728" y2="623" stroke="#00E1FF" stroke-width="0.5" opacity="0.30091130748666817"/><line x1="621" y1="713" x2="510" y2="795" stroke="#00E1FF" stroke-width="0.5" opacity="0.3099818842957818"/><line x1="621" y1="713" x2="715" y2="740" stroke="#00E1FF" stroke-width="0.5" opacity="0.5109959100375541"/><line x1="559" y1="565" x2="646" y2="560" stroke="#00E1FF" stroke-width="0.5" opacity="0.5642822014193132"/><line x1="559" y1="565" x2="430" y2="545" stroke="#00E1FF" stroke-width="0.5" opacity="0.3472940937910858"/><line x1="559" y1="565" x2="434" y2="710" stroke="#00E1FF" stroke-width="0.5" opacity="0.04279051404616763"/><line x1="559" y1="565" x2="686" y2="428" stroke="#00E1FF" stroke-width="0.5" opacity="0.06594968015636327"/><line x1="559" y1="565" x2="728" y2="623" stroke="#00E1FF" stroke-width="0.5" opacity="0.10662158073971806"/><line x1="296" y1="163" x2="249" y2="178" stroke="#00E1FF" stroke-width="0.5" opacity="0.7533220723291199"/><line x1="296" y1="163" x2="358" y2="159" stroke="#00E1FF" stroke-width="0.5" opacity="0.6893555086598186"/><line x1="574" y1="203" x2="521" y2="358" stroke="#00E1FF" stroke-width="0.5" opacity="0.1809456672478924"/><line x1="574" y1="203" x2="748" y2="279" stroke="#00E1FF" stroke-width="0.5" opacity="0.05063178903019916"/><line x1="574" y1="203" x2="534" y2="263" stroke="#00E1FF" stroke-width="0.5" opacity="0.639444872453601"/><line x1="574" y1="203" x2="533" y2="163" stroke="#00E1FF" stroke-width="0.5" opacity="0.7135999301676064"/><line x1="574" y1="203" x2="634" y2="172" stroke="#00E1FF" stroke-width="0.5" opacity="0.6623241199019392"/><line x1="288" y1="745" x2="164" y2="708" stroke="#00E1FF" stroke-width="0.5" opacity="0.3529876353577158"/><line x1="288" y1="745" x2="369" y2="857" stroke="#00E1FF" stroke-width="0.5" opacity="0.308895811038596"/><line x1="288" y1="745" x2="263" y2="674" stroke="#00E1FF" stroke-width="0.5" opacity="0.6236358146688237"/><line x1="288" y1="745" x2="223" y2="815" stroke="#00E1FF" stroke-width="0.5" opacity="0.52237567063643"/><line x1="288" y1="745" x2="434" y2="710" stroke="#00E1FF" stroke-width="0.5" opacity="0.2493169776796601"/><line x1="762" y1="865" x2="618" y2="871" stroke="#00E1FF" stroke-width="0.5" opacity="0.2793752710321412"/><line x1="762" y1="865" x2="617" y2="828" stroke="#00E1FF" stroke-width="0.5" opacity="0.2517687523231872"/><line x1="762" y1="865" x2="875" y2="786" stroke="#00E1FF" stroke-width="0.5" opacity="0.3106162171910337"/><line x1="762" y1="865" x2="822" y2="827" stroke="#00E1FF" stroke-width="0.5" opacity="0.6448943819087058"/><line x1="762" y1="865" x2="715" y2="740" stroke="#00E1FF" stroke-width="0.5" opacity="0.33227999880189296"/><line x1="164" y1="708" x2="263" y2="674" stroke="#00E1FF" stroke-width="0.5" opacity="0.4766215518384427"/><line x1="164" y1="708" x2="260" y2="544" stroke="#00E1FF" stroke-width="0.5" opacity="0.049842118382423695"/><line x1="164" y1="708" x2="223" y2="815" stroke="#00E1FF" stroke-width="0.5" opacity="0.3890581042357628"/><line x1="367" y1="478" x2="276" y2="511" stroke="#00E1FF" stroke-width="0.5" opacity="0.5160061983867976"/><line x1="367" y1="478" x2="260" y2="544" stroke="#00E1FF" stroke-width="0.5" opacity="0.3714103087068641"/><line x1="367" y1="478" x2="270" y2="451" stroke="#00E1FF" stroke-width="0.5" opacity="0.496561821074325"/><line x1="367" y1="478" x2="521" y2="358" stroke="#00E1FF" stroke-width="0.5" opacity="0.023834030505057946"/><line x1="367" y1="478" x2="285" y2="441" stroke="#00E1FF" stroke-width="0.5" opacity="0.5501944864722088"/><line x1="367" y1="478" x2="430" y2="545" stroke="#00E1FF" stroke-width="0.5" opacity="0.5401630723832632"/><line x1="367" y1="478" x2="193" y2="389" stroke="#00E1FF" stroke-width="0.5" opacity="0.02279735980708697"/><line x1="249" y1="178" x2="358" y2="159" stroke="#00E1FF" stroke-width="0.5" opacity="0.4467821405630509"/><line x1="369" y1="857" x2="223" y2="815" stroke="#00E1FF" stroke-width="0.5" opacity="0.24039483940668216"/><line x1="369" y1="857" x2="507" y2="840" stroke="#00E1FF" stroke-width="0.5" opacity="0.30478420616329505"/><line x1="369" y1="857" x2="434" y2="710" stroke="#00E1FF" stroke-width="0.5" opacity="0.19635206713387232"/><line x1="369" y1="857" x2="510" y2="795" stroke="#00E1FF" stroke-width="0.5" opacity="0.22985390996253185"/><line x1="276" y1="511" x2="263" y2="674" stroke="#00E1FF" stroke-width="0.5" opacity="0.18241208423803135"/><line x1="276" y1="511" x2="260" y2="544" stroke="#00E1FF" stroke-width="0.5" opacity="0.8166287917910775"/><line x1="276" y1="511" x2="270" y2="451" stroke="#00E1FF" stroke-width="0.5" opacity="0.6985037313663733"/><line x1="276" y1="511" x2="285" y2="441" stroke="#00E1FF" stroke-width="0.5" opacity="0.6471190002281222"/><line x1="276" y1="511" x2="430" y2="545" stroke="#00E1FF" stroke-width="0.5" opacity="0.211457039851347"/><line x1="276" y1="511" x2="193" y2="389" stroke="#00E1FF" stroke-width="0.5" opacity="0.26221615631677053"/><line x1="263" y1="674" x2="260" y2="544" stroke="#00E1FF" stroke-width="0.5" opacity="0.349826946113575"/><line x1="263" y1="674" x2="223" y2="815" stroke="#00E1FF" stroke-width="0.5" opacity="0.26718010398188563"/><line x1="263" y1="674" x2="434" y2="710" stroke="#00E1FF" stroke-width="0.5" opacity="0.12625804724735812"/><line x1="260" y1="544" x2="270" y2="451" stroke="#00E1FF" stroke-width="0.5" opacity="0.5323195535410957"/><line x1="260" y1="544" x2="285" y2="441" stroke="#00E1FF" stroke-width="0.5" opacity="0.4700471719105558"/><line x1="260" y1="544" x2="430" y2="545" stroke="#00E1FF" stroke-width="0.5" opacity="0.1499852942448584"/><line x1="260" y1="544" x2="193" y2="389" stroke="#00E1FF" stroke-width="0.5" opacity="0.15569555254043588"/><line x1="889" y1="346" x2="748" y2="279" stroke="#00E1FF" stroke-width="0.5" opacity="0.21945531838337407"/><line x1="889" y1="346" x2="797" y2="267" stroke="#00E1FF" stroke-width="0.5" opacity="0.393679127853906"/><line x1="889" y1="346" x2="730" y2="440" stroke="#00E1FF" stroke-width="0.5" opacity="0.07646061264286086"/><line x1="618" y1="871" x2="617" y2="828" stroke="#00E1FF" stroke-width="0.5" opacity="0.7849418683239343"/><line x1="618" y1="871" x2="507" y2="840" stroke="#00E1FF" stroke-width="0.5" opacity="0.4237622018645427"/><line x1="618" y1="871" x2="510" y2="795" stroke="#00E1FF" stroke-width="0.5" opacity="0.33969703923123296"/><line x1="618" y1="871" x2="715" y2="740" stroke="#00E1FF" stroke-width="0.5" opacity="0.18498466272100134"/><line x1="617" y1="828" x2="507" y2="840" stroke="#00E1FF" stroke-width="0.5" opacity="0.4467369522550779"/><line x1="617" y1="828" x2="510" y2="795" stroke="#00E1FF" stroke-width="0.5" opacity="0.4401339445903154"/><line x1="617" y1="828" x2="715" y2="740" stroke="#00E1FF" stroke-width="0.5" opacity="0.3414409669589218"/><line x1="358" y1="159" x2="533" y2="163" stroke="#00E1FF" stroke-width="0.5" opacity="0.12477145841785986"/><line x1="270" y1="451" x2="285" y2="441" stroke="#00E1FF" stroke-width="0.5" opacity="0.9098612181134003"/><line x1="270" y1="451" x2="430" y2="545" stroke="#00E1FF" stroke-width="0.5" opacity="0.07215302985891026"/><line x1="270" y1="451" x2="193" y2="389" stroke="#00E1FF" stroke-width="0.5" opacity="0.5057075764286894"/><line x1="521" y1="358" x2="686" y2="428" stroke="#00E1FF" stroke-width="0.5" opacity="0.10382758355325394"/><line x1="521" y1="358" x2="534" y2="263" stroke="#00E1FF" stroke-width="0.5" opacity="0.5205732589852752"/><line x1="521" y1="358" x2="533" y2="163" stroke="#00E1FF" stroke-width="0.5" opacity="0.023155590690103756"/><line x1="507" y1="840" x2="434" y2="710" stroke="#00E1FF" stroke-width="0.5" opacity="0.25453034937698493"/><line x1="507" y1="840" x2="510" y2="795" stroke="#00E1FF" stroke-width="0.5" opacity="0.7745005543244063"/><line x1="748" y1="279" x2="686" y2="428" stroke="#00E1FF" stroke-width="0.5" opacity="0.19307683141453924"/><line x1="748" y1="279" x2="634" y2="172" stroke="#00E1FF" stroke-width="0.5" opacity="0.2182551567167199"/><line x1="748" y1="279" x2="797" y2="267" stroke="#00E1FF" stroke-width="0.5" opacity="0.7477600348874112"/><line x1="748" y1="279" x2="730" y2="440" stroke="#00E1FF" stroke-width="0.5" opacity="0.18998456804823793"/><line x1="646" y1="560" x2="686" y2="428" stroke="#00E1FF" stroke-width="0.5" opacity="0.31036241401733333"/><line x1="646" y1="560" x2="728" y2="623" stroke="#00E1FF" stroke-width="0.5" opacity="0.48296518492465135"/><line x1="646" y1="560" x2="715" y2="740" stroke="#00E1FF" stroke-width="0.5" opacity="0.03614057041495944"/><line x1="646" y1="560" x2="730" y2="440" stroke="#00E1FF" stroke-width="0.5" opacity="0.2676066630559778"/><line x1="646" y1="560" x2="824" y2="567" stroke="#00E1FF" stroke-width="0.5" opacity="0.10931206362722068"/><line x1="285" y1="441" x2="430" y2="545" stroke="#00E1FF" stroke-width="0.5" opacity="0.10779766868719742"/><line x1="285" y1="441" x2="193" y2="389" stroke="#00E1FF" stroke-width="0.5" opacity="0.47160620745508375"/><line x1="875" y1="786" x2="822" y2="827" stroke="#00E1FF" stroke-width="0.5" opacity="0.6649626886449809"/><line x1="875" y1="786" x2="715" y2="740" stroke="#00E1FF" stroke-width="0.5" opacity="0.16759384913372966"/><line x1="430" y1="545" x2="434" y2="710" stroke="#00E1FF" stroke-width="0.5" opacity="0.17475761136500023"/><line x1="434" y1="710" x2="510" y2="795" stroke="#00E1FF" stroke-width="0.5" opacity="0.42989036142159465"/><line x1="822" y1="827" x2="715" y2="740" stroke="#00E1FF" stroke-width="0.5" opacity="0.31047117536683055"/><line x1="686" y1="428" x2="728" y2="623" stroke="#00E1FF" stroke-width="0.5" opacity="0.002640987407242501"/><line x1="686" y1="428" x2="797" y2="267" stroke="#00E1FF" stroke-width="0.5" opacity="0.02222190656570755"/><line x1="686" y1="428" x2="730" y2="440" stroke="#00E1FF" stroke-width="0.5" opacity="0.7719649149801724"/><line x1="686" y1="428" x2="824" y2="567" stroke="#00E1FF" stroke-width="0.5" opacity="0.020650726247269824"/><line x1="534" y1="263" x2="533" y2="163" stroke="#00E1FF" stroke-width="0.5" opacity="0.4999750006249688"/><line x1="534" y1="263" x2="634" y2="172" stroke="#00E1FF" stroke-width="0.5" opacity="0.3239637583679408"/><line x1="533" y1="163" x2="634" y2="172" stroke="#00E1FF" stroke-width="0.5" opacity="0.4929990138076653"/><line x1="634" y1="172" x2="797" y2="267" stroke="#00E1FF" stroke-width="0.5" opacity="0.056681389985334785"/><line x1="728" y1="623" x2="872" y2="546" stroke="#00E1FF" stroke-width="0.5" opacity="0.18352893498912037"/><line x1="728" y1="623" x2="715" y2="740" stroke="#00E1FF" stroke-width="0.5" opacity="0.4113999660210679"/><line x1="728" y1="623" x2="730" y2="440" stroke="#00E1FF" stroke-width="0.5" opacity="0.0849453568228834"/><line x1="728" y1="623" x2="824" y2="567" stroke="#00E1FF" stroke-width="0.5" opacity="0.4443022404220077"/><line x1="797" y1="267" x2="730" y2="440" stroke="#00E1FF" stroke-width="0.5" opacity="0.07239555844099155"/><line x1="872" y1="546" x2="730" y2="440" stroke="#00E1FF" stroke-width="0.5" opacity="0.11399774266653251"/><line x1="872" y1="546" x2="824" y2="567" stroke="#00E1FF" stroke-width="0.5" opacity="0.7380362620514054"/><line x1="730" y1="440" x2="824" y2="567" stroke="#00E1FF" stroke-width="0.5" opacity="0.20998417737364283"/><circle cx="621" cy="713" r="4" fill="#00E1FF"/><circle cx="559" cy="565" r="4" fill="#00E1FF"/><circle cx="296" cy="163" r="4" fill="#00E1FF"/><circle cx="574" cy="203" r="4" fill="#00E1FF"/><circle cx="288" cy="745" r="4" fill="#00E1FF"/><circle cx="762" cy="865" r="4" fill="#00E1FF"/><circle cx="164" cy="708" r="4" fill="#00E1FF"/><circle cx="367" cy="478" r="4" fill="#00E1FF"/><circle cx="249" cy="178" r="4" fill="#00E1FF"/><circle cx="369" cy="857" r="4" fill="#00E1FF"/><circle cx="276" cy="511" r="4" fill="#00E1FF"/><circle cx="263" cy="674" r="4" fill="#00E1FF"/><circle cx="260" cy="544" r="4" fill="#00E1FF"/><circle cx="889" cy="346" r="4" fill="#00E1FF"/><circle cx="618" cy="871" r="4" fill="#00E1FF"/><circle cx="617" cy="828" r="4" fill="#00E1FF"/><circle cx="223" cy="815" r="4" fill="#00E1FF"/><circle cx="358" cy="159" r="4" fill="#00E1FF"/><circle cx="270" cy="451" r="4" fill="#00E1FF"/><circle cx="521" cy="358" r="4" fill="#00E1FF"/><circle cx="507" cy="840" r="4" fill="#00E1FF"/><circle cx="748" cy="279" r="4" fill="#00E1FF"/><circle cx="646" cy="560" r="4" fill="#00E1FF"/><circle cx="285" cy="441" r="4" fill="#00E1FF"/><circle cx="875" cy="786" r="4" fill="#00E1FF"/><circle cx="430" cy="545" r="4" fill="#00E1FF"/><circle cx="434" cy="710" r="4" fill="#00E1FF"/><circle cx="822" cy="827" r="4" fill="#00E1FF"/><circle cx="686" cy="428" r="4" fill="#00E1FF"/><circle cx="534" cy="263" r="4" fill="#00E1FF"/><circle cx="533" cy="163" r="4" fill="#00E1FF"/><circle cx="634" cy="172" r="4" fill="#00E1FF"/><circle cx="728" cy="623" r="4" fill="#00E1FF"/><circle cx="797" cy="267" r="4" fill="#00E1FF"/><circle cx="510" cy="795" r="4" fill="#00E1FF"/><circle cx="872" cy="546" r="4" fill="#00E1FF"/><circle cx="715" cy="740" r="4" fill="#00E1FF"/><circle cx="193" cy="389" r="4" fill="#00E1FF"/><circle cx="730" cy="440" r="4" fill="#00E1FF"/><circle cx="824" cy="567" r="4" fill="#00E1FF"/><circle cx="500" cy="500" r="60" fill="#FF3D2E"/><text x="500" y="520" text-anchor="middle" fill="#F5F5F5" font-size="60" font-weight="900" font-family="Arial">🧠</text></svg>