<svg xmlns="http://www.w3.org/2000/svg" viewBox="0 0 1000 1000"><rect width="1000" height="1000" fill="#050505"/><path d="M 0 500 L 0 412.306202411663 L 20 418.90385588852195 L 40 465.9569370477185 L 60 555.3506959936732 L 80 648.2993263381175 L 100 694.1531715706457 L 120 671.4705437734355 L 140 604.4604918325197 L 160 540.1954729881285 L 180 507.62811100860915 L 200 495.7295210688809 L 220 470.0976620287601 L 240 411.7448481563616 L 260 341.2732016060538 L 280 305.15058031930914 L 300 335.881113416067 L 320 422.23264963993836 L 340 516.876247079307 L 360 574.8382578662935 L 380 588.211505361646 L 400 586.2601551057326 L 420 601.953049852949 L 440 636.7304952443602 L 460 656.6747968329064 L 480 624.0008633614497 L 500 534.8661189311206 L 520 428.25270492629005 L 540 356.9111706183211 L 560 346.0088935604721 L 580 376.3733221370027 L 600 406.72854619998276 L 620 413.7532700070734 L 640 412.798092704737 L 660 440.3290612589179 L 680 514.7824142438266 L 700 612.707528574036 L 720 683.2225753440532 L 740 688.6141035117981 L 760 634.7293151770778 L 780 563.894437492473 L 800 517.1393058498553 L 820 500.2788601548753 L 840 484.435480391662 L 860 439.5954112723856 L 880 369.2414857187371 L 900 313.10980148619575 L 920 314.59511526535664 L 940 382.1504695634391 L 960 479.9653581247773 L 980 556.7376156260809 L 1000 586.7418181276166" fill="none" stroke="#FF3D2E" stroke-width="6"/><path d="M 0 500 L 0 412.306202411663 L 20 418.90385588852195 L 40 465.9569370477185 L 60 555.3506959936732 L 80 648.2993263381175 L 100 694.1531715706457 L 120 671.4705437734355 L 140 604.4604918325197 L 160 540.1954729881285 L 180 507.62811100860915 L 200 495.7295210688809 L 220 470.0976620287601 L 240 411.7448481563616 L 260 341.2732016060538 L 280 305.15058031930914 L 300 335.881113416067 L 320 422.23264963993836 L 340 516.876247079307 L 360 574.8382578662935 L 380 588.211505361646 L 400 586.2601551057326 L 420 601.953049852949 L 440 636.7304952443602 L 460 656.6747968329064 L 480 624.0008633614497 L 500 534.8661189311206 L 520 428.25270492629005 L 540 356.9111706183211 L 560 346.0088935604721 L 580 376.3733221370027 L 600 406.72854619998276 L 620 413.7532700070734 L 640 412.798092704737 L 660 440.3290612589179 L 680 514.7824142438266 L 700 612.707528574036 L 720 683.2225753440532 L 740 688.6141035117981 L 760 634.7293151770778 L 780 563.894437492473 L 800 517.1393058498553 L 820 500.2788601548753 L 840 484.435480391662 L 860 439.5954112723856 L 880 369.2414857187371 L 900 313.10980148619575 L 920 314.59511526535664 L 940 382.1504695634391 L 960 479.9653581247773 L 980 556.7376156260809 L 1000 586.7418181276166 L 1000 1000 L 0 1000 Z" fill="#FF3D2E" opacity="0.2"/><circle cx="500" cy="500" r="20" fill="#00E1FF"/></svg>