<svg xmlns="http://www.w3.org/2000/svg" viewBox="0 0 1000 1000"><rect width="1000" height="1000" fill="#050505"/><g transform="translate(150,150)"><rect x="-70" y="-70" width="140" height="140" rx="20" fill="#3A3A3A" stroke="#00E1FF" stroke-width="2"/><text x="0" y="20" text-anchor="middle" font-size="70">💻</text></g><g transform="translate(350,150)"><rect x="-70" y="-70" width="140" height="140" rx="20" fill="#3A3A3A" stroke="#00E1FF" stroke-width="2"/><text x="0" y="20" text-anchor="middle" font-size="70">🎨</text></g><g transform="translate(550,150)"><rect x="-70" y="-70" width="140" height="140" rx="20" fill="#3A3A3A" stroke="#00E1FF" stroke-width="2"/><text x="0" y="20" text-anchor="middle" font-size="70">🎵</text></g><g transform="translate(750,150)"><rect x="-70" y="-70" width="140" height="140" rx="20" fill="#3A3A3A" stroke="#00E1FF" stroke-width="2"/><text x="0" y="20" text-anchor="middle" font-size="70">📸</text></g><g transform="translate(150,350)"><rect x="-70" y="-70" width="140" height="140" rx="20" fill="#3A3A3A" stroke="#00E1FF" stroke-width="2"/><text x="0" y="20" text-anchor="middle" font-size="70">✍️</text></g><g transform="translate(350,350)"><rect x="-70" y="-70" width="140" height="140" rx="20" fill="#3A3A3A" stroke="#00E1FF" stroke-width="2"/><text x="0" y="20" text-anchor="middle" font-size="70">🎤</text></g><g transform="translate(550,350)"><rect x="-70" y="-70" width="140" height="140" rx="20" fill="#3A3A3A" stroke="#00E1FF" stroke-width="2"/><text x="0" y="20" text-anchor="middle" font-size="70">🔬</text></g><g transform="translate(750,350)"><rect x="-70" y="-70" width="140" height="140" rx="20" fill="#3A3A3A" stroke="#00E1FF" stroke-width="2"/><text x="0" y="20" text-anchor="middle" font-size="70">🌍</text></g><g transform="translate(150,550)"><rect x="-70" y="-70" width="140" height="140" rx="20" fill="#3A3A3A" stroke="#00E1FF" stroke-width="2"/><text x="0" y="20" text-anchor="middle" font-size="70">🍳</text></g><g transform="translate(350,550)"><rect x="-70" y="-70" width="140" height="140" rx="20" fill="#3A3A3A" stroke="#00E1FF" stroke-width="2"/><text x="0" y="20" text-anchor="middle" font-size="70">🎮</text></g><g transform="translate(550,550)"><rect x="-70" y="-70" width="140" height="140" rx="20" fill="#3A3A3A" stroke="#00E1FF" stroke-width="2"/><text x="0" y="20" text-anchor="middle" font-size="70">🎬</text></g><g transform="translate(750,550)"><rect x="-70" y="-70" width="140" height="140" rx="20" fill="#3A3A3A" stroke="#00E1FF" stroke-width="2"/><text x="0" y="20" text-anchor="middle" font-size="70">📐</text></g><g transform="translate(150,750)"><rect x="-70" y="-70" width="140" height="140" rx="20" fill="#3A3A3A" stroke="#00E1FF" stroke-width="2"/><text x="0" y="20" text-anchor="middle" font-size="70">🤖</text></g><g transform="translate(350,750)"><rect x="-70" y="-70" width="140" height="140" rx="20" fill="#3A3A3A" stroke="#00E1FF" stroke-width="2"/><text x="0" y="20" text-anchor="middle" font-size="70">📊</text></g><g transform="translate(550,750)"><rect x="-70" y="-70" width="140" height="140" rx="20" fill="#3A3A3A" stroke="#00E1FF" stroke-width="2"/><text x="0" y="20" text-anchor="middle" font-size="70">🔐</text></g><g transform="translate(750,750)"><rect x="-70" y="-70" width="140" height="140" rx="20" fill="#3A3A3A" stroke="#00E1FF" stroke-width="2"/><text x="0" y="20" text-anchor="middle" font-size="70">☁️</text></g></svg>