<svg xmlns="http://www.w3.org/2000/svg" viewBox="0 0 1000 1000">
    <rect width="1000" height="1000" fill="#050505"/>
    <circle cx="147" cy="404" r="2.303705686315866" fill="#FF3D2E" opacity="0.5931290299646892"/><circle cx="203" cy="929" r="2.6738824334238678" fill="#FF3D2E" opacity="0.4075903925102865"/><circle cx="133" cy="98" r="0.783464535620111" fill="#00E1FF" opacity="0.4989719129311734"/><circle cx="242" cy="90" r="2.022004812613581" fill="#00E1FF" opacity="0.5585753845453639"/><circle cx="109" cy="31" r="0.6826188044002819" fill="#FFA800" opacity="0.9004954399782876"/><circle cx="608" cy="874" r="2.228772806262184" fill="#00E1FF" opacity="0.3821061880602446"/><circle cx="20" cy="466" r="1.262746404878396" fill="#FF3D2E" opacity="0.8134126849104202"/><circle cx="80" cy="17" r="0.9182255953628927" fill="#F5F5F5" opacity="0.383301385217868"/><circle cx="498" cy="324" r="0.7119446465393277" fill="#FF3D2E" opacity="0.9022968100953059"/><circle cx="969" cy="111" r="1.9826376591342854" fill="#F5F5F5" opacity="0.8620654067585856"/><circle cx="937" cy="91" r="1.708550486864839" fill="#FF3D2E" opacity="0.9384037203652669"/><circle cx="61" cy="138" r="2.845452565460941" fill="#F5F5F5" opacity="0.6545131832036526"/><circle cx="704" cy="856" r="1.8779881251093058" fill="#F5F5F5" opacity="0.6944786533323297"/><circle cx="535" cy="225" r="2.0719911645459876" fill="#F5F5F5" opacity="0.6415947741619381"/><circle cx="387" cy="532" r="2.855299920532465" fill="#FFA800" opacity="0.69952944155792"/><circle cx="532" cy="409" r="0.9472955469241596" fill="#FF3D2E" opacity="0.9053441929354491"/><circle cx="622" cy="983" r="2.951612241110986" fill="#FFA800" opacity="0.8225420170143036"/><circle cx="376" cy="288" r="1.1506453211567098" fill="#FF3D2E" opacity="0.3206936797693645"/><circle cx="957" cy="896" r="1.216851457370552" fill="#F5F5F5" opacity="0.5129925156262689"/><circle cx="460" cy="429" r="0.9670662337917153" fill="#FF3D2E" opacity="0.5890786555958067"/><circle cx="306" cy="271" r="1.0227205883866621" fill="#00E1FF" opacity="0.938947490486143"/><circle cx="173" cy="675" r="2.607454342121549" fill="#F5F5F5" opacity="0.5109381128622922"/><circle cx="354" cy="965" r="2.631218453744916" fill="#00E1FF" opacity="0.7989287222237456"/><circle cx="421" cy="675" r="0.7882429522144475" fill="#00E1FF" opacity="0.4049581306952421"/><circle cx="714" cy="995" r="0.5168047213646721" fill="#FF3D2E" opacity="0.31329770552538777"/><circle cx="343" cy="954" r="2.6121843110763012" fill="#FF3D2E" opacity="0.787133767863401"/><circle cx="716" cy="539" r="2.8543920513279937" fill="#FF3D2E" opacity="0.5102592022412868"/><circle cx="95" cy="354" r="0.9534299448880114" fill="#F5F5F5" opacity="0.9551809801957256"/><circle cx="285" cy="732" r="1.0596166241519347" fill="#00E1FF" opacity="0.8760032829164852"/><circle cx="990" cy="892" r="1.9928899727861205" fill="#00E1FF" opacity="0.7329865932549018"/><circle cx="829" cy="417" r="1.7476187215159333" fill="#F5F5F5" opacity="0.3755068614267579"/><circle cx="381" cy="813" r="2.211156106074877" fill="#FFA800" opacity="0.3664421782459004"/><circle cx="984" cy="992" r="2.9262571269800755" fill="#F5F5F5" opacity="0.39115105096340597"/><circle cx="922" cy="440" r="2.9378625736045767" fill="#FFA800" opacity="0.9385110617676167"/><circle cx="300" cy="640" r="2.2975995958328057" fill="#FFA800" opacity="0.6258812529246558"/><circle cx="853" cy="941" r="1.9556377362743256" fill="#00E1FF" opacity="0.6811974468904791"/><circle cx="518" cy="475" r="2.109072029341973" fill="#00E1FF" opacity="0.5100346180713227"/><circle cx="532" cy="865" r="1.6714870135063726" fill="#F5F5F5" opacity="0.8670448848047303"/><circle cx="619" cy="777" r="1.7251979541983882" fill="#F5F5F5" opacity="0.3230795216603242"/><circle cx="655" cy="40" r="1.5537608783107688" fill="#00E1FF" opacity="0.4278810951092665"/><circle cx="722" cy="924" r="2.35934958287439" fill="#F5F5F5" opacity="0.7170488404132165"/><circle cx="402" cy="740" r="0.8373443987439456" fill="#F5F5F5" opacity="0.5213839651460135"/><circle cx="133" cy="810" r="1.2024266323444173" fill="#00E1FF" opacity="0.9931958587731651"/><circle cx="747" cy="112" r="2.4502620077323907" fill="#FFA800" opacity="0.5714256754310783"/><circle cx="11" cy="854" r="1.2352437301152726" fill="#00E1FF" opacity="0.38777478265105053"/><circle cx="912" cy="800" r="1.2461286815768775" fill="#00E1FF" opacity="0.5371711271700212"/><circle cx="192" cy="985" r="2.7025520132511356" fill="#00E1FF" opacity="0.8075818693972137"/><circle cx="450" cy="999" r="2.3708730342426105" fill="#FF3D2E" opacity="0.7366147247007259"/><circle cx="696" cy="758" r="1.1177807777291617" fill="#F5F5F5" opacity="0.7253261810334795"/><circle cx="983" cy="176" r="2.5051404254856573" fill="#00E1FF" opacity="0.9153389027140413"/><circle cx="296" cy="159" r="1.0692196931546156" fill="#FFA800" opacity="0.9904767114256661"/><circle cx="83" cy="529" r="1.4295573245774102" fill="#F5F5F5" opacity="0.622297246339977"/><circle cx="660" cy="343" r="1.1908368231323325" fill="#FF3D2E" opacity="0.73842508780896"/><circle cx="360" cy="189" r="2.7132231458461336" fill="#F5F5F5" opacity="0.8978354401028206"/><circle cx="109" cy="224" r="1.0860680640919687" fill="#FF3D2E" opacity="0.8595997450339126"/><circle cx="335" cy="104" r="0.7284080818060241" fill="#F5F5F5" opacity="0.41510793288564984"/><circle cx="544" cy="773" r="2.402806624175681" fill="#FFA800" opacity="0.710913113417011"/><circle cx="522" cy="712" r="2.2886276600163784" fill="#F5F5F5" opacity="0.4081306022783646"/><circle cx="198" cy="280" r="1.4918621374558945" fill="#FF3D2E" opacity="0.47718956572196936"/><circle cx="838" cy="557" r="0.6947356152972496" fill="#00E1FF" opacity="0.3519711230432637"/><circle cx="959" cy="204" r="2.7064179555784857" fill="#FFA800" opacity="0.31237574334998186"/><circle cx="163" cy="278" r="2.5639609518481503" fill="#FF3D2E" opacity="0.604140783721826"/><circle cx="7" cy="289" r="1.2667046861261262" fill="#00E1FF" opacity="0.42212286133767224"/><circle cx="819" cy="11" r="1.5797291222081924" fill="#F5F5F5" opacity="0.7347938405828952"/><circle cx="792" cy="815" r="2.5119046657708255" fill="#00E1FF" opacity="0.5562103956098858"/><circle cx="748" cy="327" r="2.3338177626954026" fill="#00E1FF" opacity="0.6311496313457943"/><circle cx="227" cy="871" r="1.941965539434109" fill="#FF3D2E" opacity="0.5631544561633346"/><circle cx="814" cy="101" r="0.900367641688274" fill="#F5F5F5" opacity="0.6742649345292561"/><circle cx="586" cy="479" r="2.735922823203099" fill="#FF3D2E" opacity="0.7915276381946434"/><circle cx="589" cy="507" r="2.1733895943909207" fill="#FF3D2E" opacity="0.5453542445217967"/><circle cx="358" cy="532" r="2.6756926333547884" fill="#00E1FF" opacity="0.7183088000917656"/><circle cx="430" cy="351" r="2.976572331686628" fill="#F5F5F5" opacity="0.34043894052351015"/><circle cx="820" cy="781" r="2.346181346315874" fill="#FF3D2E" opacity="0.5098111153870744"/><circle cx="620" cy="958" r="2.9205063614637616" fill="#F5F5F5" opacity="0.6488326053908526"/><circle cx="211" cy="167" r="1.831268126073023" fill="#FF3D2E" opacity="0.4185967909508893"/><circle cx="957" cy="810" r="1.2638616723609322" fill="#00E1FF" opacity="0.7215225332199797"/><circle cx="258" cy="273" r="1.5496823295882" fill="#FF3D2E" opacity="0.7454955899787864"/><circle cx="109" cy="580" r="2.381042206685451" fill="#FF3D2E" opacity="0.5764514759382633"/><circle cx="331" cy="418" r="1.6097879130619441" fill="#F5F5F5" opacity="0.5925464954268171"/><circle cx="102" cy="871" r="2.5465806368954427" fill="#00E1FF" opacity="0.7050378052973327"/><circle cx="901" cy="104" r="2.29511526110193" fill="#FF3D2E" opacity="0.5074409011421589"/><circle cx="48" cy="368" r="0.8713284294868135" fill="#00E1FF" opacity="0.8363099518003223"/><circle cx="450" cy="545" r="2.4510168571853432" fill="#FF3D2E" opacity="0.8904293201386115"/><circle cx="178" cy="928" r="1.1457348195822188" fill="#FF3D2E" opacity="0.5382032169275913"/><circle cx="850" cy="707" r="0.9525388065471181" fill="#FFA800" opacity="0.9858978434124981"/><circle cx="358" cy="971" r="1.2377752388725693" fill="#FF3D2E" opacity="0.43942319045050954"/><circle cx="846" cy="276" r="1.456220328269029" fill="#FFA800" opacity="0.3155728838836129"/><circle cx="804" cy="484" r="1.8186184189514638" fill="#FFA800" opacity="0.8184262281483914"/><circle cx="632" cy="264" r="1.470671923597628" fill="#FF3D2E" opacity="0.7739165429844126"/><circle cx="434" cy="609" r="1.0377026694164255" fill="#F5F5F5" opacity="0.8349899814971598"/><circle cx="838" cy="38" r="1.0138471487205698" fill="#FFA800" opacity="0.9407942670662786"/><circle cx="388" cy="782" r="1.289138074015288" fill="#FF3D2E" opacity="0.42134861151329855"/><circle cx="42" cy="191" r="2.066616179858305" fill="#FF3D2E" opacity="0.8483764064384212"/><circle cx="980" cy="949" r="1.97490490120562" fill="#F5F5F5" opacity="0.8685093878952688"/><circle cx="41" cy="920" r="0.9223918289416312" fill="#00E1FF" opacity="0.7181278260208255"/><circle cx="115" cy="799" r="0.5257703145813382" fill="#00E1FF" opacity="0.7524738235633671"/><circle cx="878" cy="149" r="2.471955019111571" fill="#00E1FF" opacity="0.8495446645230662"/><circle cx="932" cy="743" r="1.2468667963203783" fill="#FFA800" opacity="0.9684125594553032"/><circle cx="84" cy="12" r="2.1014503560971405" fill="#00E1FF" opacity="0.4806731453562719"/><circle cx="301" cy="310" r="1.8134954925839488" fill="#F5F5F5" opacity="0.3659419702865637"/><circle cx="881" cy="636" r="0.7795156937161836" fill="#00E1FF" opacity="0.49131036564980685"/><circle cx="859" cy="529" r="2.578643011951951" fill="#FF3D2E" opacity="0.6267748039088505"/><circle cx="325" cy="164" r="2.5405950135957656" fill="#00E1FF" opacity="0.3794061461793136"/><circle cx="887" cy="186" r="0.8843584420637675" fill="#F5F5F5" opacity="0.662258064814997"/><circle cx="255" cy="702" r="0.5351837103447783" fill="#F5F5F5" opacity="0.8067690613752949"/><circle cx="208" cy="209" r="2.7499826256379123" fill="#F5F5F5" opacity="0.9206089889437374"/><circle cx="747" cy="869" r="2.8898230745511366" fill="#FF3D2E" opacity="0.5087524036173838"/><circle cx="2" cy="619" r="1.391612700054123" fill="#00E1FF" opacity="0.3764031140409779"/><circle cx="803" cy="396" r="2.1832587175775133" fill="#FF3D2E" opacity="0.3319289442083565"/><circle cx="531" cy="310" r="1.1237438220139246" fill="#F5F5F5" opacity="0.9559601096164423"/><circle cx="851" cy="687" r="2.347663755480718" fill="#F5F5F5" opacity="0.35617288905491507"/><circle cx="600" cy="935" r="2.238006108946786" fill="#F5F5F5" opacity="0.9723240126801687"/><circle cx="678" cy="757" r="1.8570594492398724" fill="#FFA800" opacity="0.9662582534688422"/><circle cx="303" cy="68" r="1.2786906045929287" fill="#FF3D2E" opacity="0.9207214470066611"/><circle cx="434" cy="779" r="1.6737477231461928" fill="#F5F5F5" opacity="0.3368276618621416"/><circle cx="267" cy="436" r="1.1823639372010648" fill="#00E1FF" opacity="0.49500868459185177"/><circle cx="392" cy="644" r="1.144872638541703" fill="#FFA800" opacity="0.799610460195479"/><circle cx="304" cy="245" r="1.006043807577361" fill="#FF3D2E" opacity="0.5435959717128129"/><circle cx="91" cy="95" r="2.733953154632328" fill="#FF3D2E" opacity="0.5890322099797163"/><circle cx="63" cy="499" r="1.0968509088260943" fill="#FFA800" opacity="0.7362995312951434"/><circle cx="718" cy="716" r="2.0044312487929656" fill="#00E1FF" opacity="0.9498923601226237"/><circle cx="128" cy="348" r="2.85808597037206" fill="#F5F5F5" opacity="0.7768590199606218"/><circle cx="476" cy="474" r="1.7001560565194676" fill="#F5F5F5" opacity="0.7929300935400903"/><circle cx="254" cy="259" r="2.5865633605404996" fill="#00E1FF" opacity="0.9016823735612876"/><circle cx="685" cy="215" r="2.861004475292814" fill="#FF3D2E" opacity="0.4219961886441864"/><circle cx="975" cy="289" r="2.462099218902858" fill="#F5F5F5" opacity="0.837755537485851"/><circle cx="61" cy="735" r="2.9846897433138277" fill="#F5F5F5" opacity="0.948996909154731"/><circle cx="336" cy="619" r="2.610741753895246" fill="#F5F5F5" opacity="0.36408159279028485"/><circle cx="495" cy="855" r="2.2961296651454117" fill="#FFA800" opacity="0.5194948165183328"/><circle cx="7" cy="46" r="2.2035209103353073" fill="#FFA800" opacity="0.4229826005338153"/><circle cx="936" cy="316" r="1.5460611668464996" fill="#00E1FF" opacity="0.5868138637649598"/><circle cx="485" cy="423" r="0.5167545885728443" fill="#00E1FF" opacity="0.5006263236138181"/><circle cx="149" cy="337" r="2.614512222729999" fill="#F5F5F5" opacity="0.475685551190575"/><circle cx="846" cy="995" r="0.933246505008269" fill="#FFA800" opacity="0.371757427774837"/><circle cx="101" cy="452" r="2.492220773873904" fill="#FFA800" opacity="0.8924105305797247"/><circle cx="974" cy="93" r="1.7239139110627488" fill="#F5F5F5" opacity="0.37988213419129524"/><circle cx="980" cy="148" r="1.5125907456536725" fill="#FF3D2E" opacity="0.3331419041332609"/><circle cx="522" cy="236" r="0.8552089973733524" fill="#00E1FF" opacity="0.5381361127987628"/><circle cx="167" cy="752" r="2.623048364989119" fill="#FFA800" opacity="0.6771045061721785"/><circle cx="709" cy="520" r="0.938071224074234" fill="#00E1FF" opacity="0.9135295861486867"/><circle cx="736" cy="913" r="0.8193251671747299" fill="#FF3D2E" opacity="0.6341203228694756"/><circle cx="654" cy="760" r="1.7358695591775342" fill="#00E1FF" opacity="0.7089781829537742"/><circle cx="857" cy="293" r="1.4168522960716918" fill="#FFA800" opacity="0.8234774080992528"/><circle cx="290" cy="186" r="2.67493317467869" fill="#FF3D2E" opacity="0.38832945786266526"/><circle cx="637" cy="51" r="0.9360105128508723" fill="#FFA800" opacity="0.41546403910780455"/><circle cx="737" cy="173" r="2.0643010109373785" fill="#FFA800" opacity="0.8745118172596806"/><circle cx="726" cy="795" r="2.6004535693727737" fill="#00E1FF" opacity="0.9153706035086808"/><circle cx="542" cy="347" r="2.5057124264460824" fill="#00E1FF" opacity="0.5687884582556063"/><circle cx="752" cy="654" r="1.4161955795157062" fill="#00E1FF" opacity="0.7166602628495286"/><circle cx="979" cy="770" r="1.2260064661460235" fill="#00E1FF" opacity="0.8794054593497151"/><circle cx="242" cy="5" r="1.8770054865967607" fill="#FFA800" opacity="0.49065002561639837"/><circle cx="652" cy="602" r="1.012240837249212" fill="#FFA800" opacity="0.30269002220796604"/><circle cx="281" cy="503" r="2.786197881653422" fill="#FF3D2E" opacity="0.913832649155202"/><circle cx="126" cy="869" r="2.307190561648688" fill="#FF3D2E" opacity="0.884280349557726"/><circle cx="508" cy="623" r="1.4492628236391636" fill="#F5F5F5" opacity="0.971492795211923"/><circle cx="518" cy="988" r="2.211279999886615" fill="#FFA800" opacity="0.6270910587791038"/><circle cx="905" cy="754" r="1.5655794429275434" fill="#F5F5F5" opacity="0.9952737955296538"/><circle cx="251" cy="563" r="1.1531940620116916" fill="#FF3D2E" opacity="0.6233799995295917"/><circle cx="209" cy="522" r="2.0728536446365564" fill="#FF3D2E" opacity="0.8215825468861642"/><circle cx="692" cy="956" r="2.4241763660461384" fill="#FFA800" opacity="0.6785251084519985"/><circle cx="772" cy="243" r="0.5951239309343915" fill="#00E1FF" opacity="0.35128868474575925"/><circle cx="403" cy="547" r="2.8003596075007513" fill="#F5F5F5" opacity="0.5993201353161377"/><circle cx="24" cy="731" r="0.7293278766333529" fill="#00E1FF" opacity="0.49269689637889497"/><circle cx="945" cy="440" r="2.6359784476726764" fill="#00E1FF" opacity="0.4192115442450279"/><circle cx="588" cy="909" r="1.6240254809677852" fill="#FFA800" opacity="0.39293771032204217"/><circle cx="143" cy="31" r="0.9928660593870243" fill="#00E1FF" opacity="0.9652159403193146"/><circle cx="811" cy="935" r="1.5252124912448235" fill="#F5F5F5" opacity="0.6431569614145465"/><circle cx="978" cy="734" r="2.944388191488204" fill="#00E1FF" opacity="0.7351773310595793"/><circle cx="481" cy="981" r="2.0556055672059927" fill="#FF3D2E" opacity="0.7628301093322309"/><circle cx="678" cy="621" r="1.8846846660306389" fill="#FF3D2E" opacity="0.8511398944910527"/><circle cx="383" cy="321" r="0.7609217662291174" fill="#FF3D2E" opacity="0.9952608098782267"/><circle cx="40" cy="537" r="0.5921274844800668" fill="#FF3D2E" opacity="0.31744166124253154"/><circle cx="332" cy="936" r="1.8960436597693433" fill="#F5F5F5" opacity="0.5858050350823114"/><circle cx="420" cy="846" r="1.0775053893287656" fill="#FFA800" opacity="0.458424889542423"/><circle cx="67" cy="776" r="2.327758081074124" fill="#FF3D2E" opacity="0.8466338675892149"/><circle cx="689" cy="964" r="0.9728285853174852" fill="#F5F5F5" opacity="0.7109835802627246"/><circle cx="144" cy="142" r="1.0706352672882113" fill="#FF3D2E" opacity="0.4792904395636201"/><circle cx="217" cy="181" r="1.6573511624689947" fill="#00E1FF" opacity="0.8809084065495469"/><circle cx="756" cy="202" r="2.5299787050154854" fill="#FF3D2E" opacity="0.5615864834333129"/><circle cx="160" cy="47" r="2.7464727646523275" fill="#F5F5F5" opacity="0.7983980613761889"/><circle cx="160" cy="727" r="2.03467090576106" fill="#FFA800" opacity="0.8372144946453786"/><circle cx="392" cy="429" r="1.7880484880920289" fill="#FFA800" opacity="0.8861985096961886"/><circle cx="281" cy="590" r="1.2497535876150478" fill="#F5F5F5" opacity="0.34033324866397907"/><circle cx="136" cy="696" r="2.328421999280752" fill="#FF3D2E" opacity="0.645738885302894"/><circle cx="250" cy="665" r="0.9179792858091186" fill="#F5F5F5" opacity="0.3984275658238077"/><circle cx="429" cy="436" r="0.84464482362417" fill="#FFA800" opacity="0.6237020134771651"/><circle cx="886" cy="771" r="1.81442893414636" fill="#00E1FF" opacity="0.9358230405826786"/><circle cx="165" cy="30" r="1.2189158773701576" fill="#F5F5F5" opacity="0.5004593540759591"/><circle cx="82" cy="951" r="2.53609055700062" fill="#FFA800" opacity="0.3062549479270322"/><circle cx="175" cy="76" r="0.9808697270724777" fill="#00E1FF" opacity="0.5551489400731149"/><circle cx="500" cy="995" r="2.260234472900809" fill="#FFA800" opacity="0.7543892672486642"/><circle cx="967" cy="448" r="2.621782708165163" fill="#FF3D2E" opacity="0.9702915479925462"/><circle cx="973" cy="358" r="1.7558257976299796" fill="#FF3D2E" opacity="0.6142615218488505"/><circle cx="66" cy="242" r="2.6181145215040713" fill="#FF3D2E" opacity="0.7003269545788309"/><circle cx="961" cy="742" r="0.6877738110351057" fill="#FFA800" opacity="0.30235373034477037"/><circle cx="426" cy="900" r="1.9855641355157578" fill="#FF3D2E" opacity="0.5275453302935585"/><circle cx="707" cy="600" r="1.4762750000748706" fill="#FF3D2E" opacity="0.6275807620191995"/><circle cx="410" cy="604" r="2.9613350815966024" fill="#FFA800" opacity="0.7102237703678425"/><circle cx="492" cy="961" r="2.882590318940844" fill="#F5F5F5" opacity="0.8930587014654037"/><circle cx="52" cy="876" r="1.9798305866330763" fill="#F5F5F5" opacity="0.8519317536564013"/>
  </svg>