<svg xmlns="http://www.w3.org/2000/svg" viewBox="0 0 1000 1000"><rect width="1000" height="1000" fill="#050505"/><line x1="150" y1="300" x2="380" y2="233.33333333333334" stroke="#00E1FF" stroke-width="0.5" opacity="0.3"/><line x1="150" y1="300" x2="380" y2="366.6666666666667" stroke="#00E1FF" stroke-width="0.5" opacity="0.3"/><line x1="150" y1="300" x2="380" y2="500" stroke="#00E1FF" stroke-width="0.5" opacity="0.3"/><line x1="150" y1="300" x2="380" y2="633.3333333333334" stroke="#00E1FF" stroke-width="0.5" opacity="0.3"/><line x1="150" y1="300" x2="380" y2="766.6666666666667" stroke="#00E1FF" stroke-width="0.5" opacity="0.3"/><line x1="150" y1="500" x2="380" y2="233.33333333333334" stroke="#00E1FF" stroke-width="0.5" opacity="0.3"/><line x1="150" y1="500" x2="380" y2="366.6666666666667" stroke="#00E1FF" stroke-width="0.5" opacity="0.3"/><line x1="150" y1="500" x2="380" y2="500" stroke="#00E1FF" stroke-width="0.5" opacity="0.3"/><line x1="150" y1="500" x2="380" y2="633.3333333333334" stroke="#00E1FF" stroke-width="0.5" opacity="0.3"/><line x1="150" y1="500" x2="380" y2="766.6666666666667" stroke="#00E1FF" stroke-width="0.5" opacity="0.3"/><line x1="150" y1="700" x2="380" y2="233.33333333333334" stroke="#00E1FF" stroke-width="0.5" opacity="0.3"/><line x1="150" y1="700" x2="380" y2="366.6666666666667" stroke="#00E1FF" stroke-width="0.5" opacity="0.3"/><line x1="150" y1="700" x2="380" y2="500" stroke="#00E1FF" stroke-width="0.5" opacity="0.3"/><line x1="150" y1="700" x2="380" y2="633.3333333333334" stroke="#00E1FF" stroke-width="0.5" opacity="0.3"/><line x1="150" y1="700" x2="380" y2="766.6666666666667" stroke="#00E1FF" stroke-width="0.5" opacity="0.3"/><line x1="380" y1="233.33333333333334" x2="610" y2="233.33333333333334" stroke="#00E1FF" stroke-width="0.5" opacity="0.3"/><line x1="380" y1="233.33333333333334" x2="610" y2="366.6666666666667" stroke="#00E1FF" stroke-width="0.5" opacity="0.3"/><line x1="380" y1="233.33333333333334" x2="610" y2="500" stroke="#00E1FF" stroke-width="0.5" opacity="0.3"/><line x1="380" y1="233.33333333333334" x2="610" y2="633.3333333333334" stroke="#00E1FF" stroke-width="0.5" opacity="0.3"/><line x1="380" y1="233.33333333333334" x2="610" y2="766.6666666666667" stroke="#00E1FF" stroke-width="0.5" opacity="0.3"/><line x1="380" y1="366.6666666666667" x2="610" y2="233.33333333333334" stroke="#00E1FF" stroke-width="0.5" opacity="0.3"/><line x1="380" y1="366.6666666666667" x2="610" y2="366.6666666666667" stroke="#00E1FF" stroke-width="0.5" opacity="0.3"/><line x1="380" y1="366.6666666666667" x2="610" y2="500" stroke="#00E1FF" stroke-width="0.5" opacity="0.3"/><line x1="380" y1="366.6666666666667" x2="610" y2="633.3333333333334" stroke="#00E1FF" stroke-width="0.5" opacity="0.3"/><line x1="380" y1="366.6666666666667" x2="610" y2="766.6666666666667" stroke="#00E1FF" stroke-width="0.5" opacity="0.3"/><line x1="380" y1="500" x2="610" y2="233.33333333333334" stroke="#00E1FF" stroke-width="0.5" opacity="0.3"/><line x1="380" y1="500" x2="610" y2="366.6666666666667" stroke="#00E1FF" stroke-width="0.5" opacity="0.3"/><line x1="380" y1="500" x2="610" y2="500" stroke="#00E1FF" stroke-width="0.5" opacity="0.3"/><line x1="380" y1="500" x2="610" y2="633.3333333333334" stroke="#00E1FF" stroke-width="0.5" opacity="0.3"/><line x1="380" y1="500" x2="610" y2="766.6666666666667" stroke="#00E1FF" stroke-width="0.5" opacity="0.3"/><line x1="380" y1="633.3333333333334" x2="610" y2="233.33333333333334" stroke="#00E1FF" stroke-width="0.5" opacity="0.3"/><line x1="380" y1="633.3333333333334" x2="610" y2="366.6666666666667" stroke="#00E1FF" stroke-width="0.5" opacity="0.3"/><line x1="380" y1="633.3333333333334" x2="610" y2="500" stroke="#00E1FF" stroke-width="0.5" opacity="0.3"/><line x1="380" y1="633.3333333333334" x2="610" y2="633.3333333333334" stroke="#00E1FF" stroke-width="0.5" opacity="0.3"/><line x1="380" y1="633.3333333333334" x2="610" y2="766.6666666666667" stroke="#00E1FF" stroke-width="0.5" opacity="0.3"/><line x1="380" y1="766.6666666666667" x2="610" y2="233.33333333333334" stroke="#00E1FF" stroke-width="0.5" opacity="0.3"/><line x1="380" y1="766.6666666666667" x2="610" y2="366.6666666666667" stroke="#00E1FF" stroke-width="0.5" opacity="0.3"/><line x1="380" y1="766.6666666666667" x2="610" y2="500" stroke="#00E1FF" stroke-width="0.5" opacity="0.3"/><line x1="380" y1="766.6666666666667" x2="610" y2="633.3333333333334" stroke="#00E1FF" stroke-width="0.5" opacity="0.3"/><line x1="380" y1="766.6666666666667" x2="610" y2="766.6666666666667" stroke="#00E1FF" stroke-width="0.5" opacity="0.3"/><line x1="610" y1="233.33333333333334" x2="840" y2="300" stroke="#00E1FF" stroke-width="0.5" opacity="0.3"/><line x1="610" y1="233.33333333333334" x2="840" y2="500" stroke="#00E1FF" stroke-width="0.5" opacity="0.3"/><line x1="610" y1="233.33333333333334" x2="840" y2="700" stroke="#00E1FF" stroke-width="0.5" opacity="0.3"/><line x1="610" y1="366.6666666666667" x2="840" y2="300" stroke="#00E1FF" stroke-width="0.5" opacity="0.3"/><line x1="610" y1="366.6666666666667" x2="840" y2="500" stroke="#00E1FF" stroke-width="0.5" opacity="0.3"/><line x1="610" y1="366.6666666666667" x2="840" y2="700" stroke="#00E1FF" stroke-width="0.5" opacity="0.3"/><line x1="610" y1="500" x2="840" y2="300" stroke="#00E1FF" stroke-width="0.5" opacity="0.3"/><line x1="610" y1="500" x2="840" y2="500" stroke="#00E1FF" stroke-width="0.5" opacity="0.3"/><line x1="610" y1="500" x2="840" y2="700" stroke="#00E1FF" stroke-width="0.5" opacity="0.3"/><line x1="610" y1="633.3333333333334" x2="840" y2="300" stroke="#00E1FF" stroke-width="0.5" opacity="0.3"/><line x1="610" y1="633.3333333333334" x2="840" y2="500" stroke="#00E1FF" stroke-width="0.5" opacity="0.3"/><line x1="610" y1="633.3333333333334" x2="840" y2="700" stroke="#00E1FF" stroke-width="0.5" opacity="0.3"/><line x1="610" y1="766.6666666666667" x2="840" y2="300" stroke="#00E1FF" stroke-width="0.5" opacity="0.3"/><line x1="610" y1="766.6666666666667" x2="840" y2="500" stroke="#00E1FF" stroke-width="0.5" opacity="0.3"/><line x1="610" y1="766.6666666666667" x2="840" y2="700" stroke="#00E1FF" stroke-width="0.5" opacity="0.3"/><circle cx="150" cy="300" r="20" fill="#FF3D2E"/><circle cx="150" cy="500" r="20" fill="#FF3D2E"/><circle cx="150" cy="700" r="20" fill="#FF3D2E"/><circle cx="380" cy="233.33333333333334" r="20" fill="#00E1FF"/><circle cx="380" cy="366.6666666666667" r="20" fill="#00E1FF"/><circle cx="380" cy="500" r="20" fill="#00E1FF"/><circle cx="380" cy="633.3333333333334" r="20" fill="#00E1FF"/><circle cx="380" cy="766.6666666666667" r="20" fill="#00E1FF"/><circle cx="610" cy="233.33333333333334" r="20" fill="#00E1FF"/><circle cx="610" cy="366.6666666666667" r="20" fill="#00E1FF"/><circle cx="610" cy="500" r="20" fill="#00E1FF"/><circle cx="610" cy="633.3333333333334" r="20" fill="#00E1FF"/><circle cx="610" cy="766.6666666666667" r="20" fill="#00E1FF"/><circle cx="840" cy="300" r="20" fill="#FFA800"/><circle cx="840" cy="500" r="20" fill="#FFA800"/><circle cx="840" cy="700" r="20" fill="#FFA800"/><text x="500" y="50" text-anchor="middle" font-size="24" fill="#F5F5F5" font-weight="900" font-family="Arial">NEURAL NETWORK</text></svg>