<svg xmlns="http://www.w3.org/2000/svg" viewBox="0 0 1000 1000"><rect width="1000" height="1000" fill="#050505"/><circle cx="650" cy="500" r="33.333333333333336" fill="#FFA800" opacity="0.7"/><rect x="688.7429987478853" y="541.073908706238" width="60" height="60" fill="#00E1FF" opacity="0.7" transform="rotate(15 718.7429987478853 571.073908706238)"/><polygon points="750.7952682562337,642.2134282106667 785.7952682562337,702.2134282106667 715.7952682562337,702.2134282106667" fill="#00E1FF" opacity="0.7"/><line x1="538.167787843871" y1="621.3525491562422" x2="638.167787843871" y2="621.3525491562422" stroke="#FFA800" stroke-width="4" opacity="0.8"/><circle cx="571.073908706238" cy="718.7429987478853" r="33.333333333333336" fill="#FF3D2E" opacity="0.7"/><rect x="470" y="780" width="60" height="60" fill="#FF3D2E" opacity="0.7" transform="rotate(75 500 810)"/><polygon points="453.6474508437579,602.6584774442731 488.6474508437579,662.6584774442731 418.6474508437579,662.6584774442731" fill="#00E1FF" opacity="0.7"/><line x1="314.8093919727312" y1="686.073908706238" x2="414.8093919727312" y2="686.073908706238" stroke="#FFA800" stroke-width="4" opacity="0.8"/><circle cx="249.20473174376633" cy="682.2134282106667" r="33.333333333333336" fill="#FFA800" opacity="0.7"/><rect x="327.341522555727" y="516.3525491562422" width="60" height="60" fill="#00E1FF" opacity="0.7" transform="rotate(135 357.341522555727 546.3525491562422)"/><polygon points="270,460 305,520 235,520" fill="#00E1FF" opacity="0.7"/><line x1="155.17247994850243" y1="404.2047317437662" x2="255.17247994850243" y2="404.2047317437662" stroke="#00E1FF" stroke-width="4" opacity="0.8"/><circle cx="378.6474508437579" cy="411.83221215612906" r="33.333333333333336" fill="#FFA800" opacity="0.7"/><rect x="334.8093919727312" y="283.9260912937621" width="60" height="60" fill="#00E1FF" opacity="0.7" transform="rotate(195 364.8093919727312 313.9260912937621)"/><polygon points="404.2047317437663,165.17247994850243 439.2047317437663,225.17247994850243 369.2047317437663,225.17247994850243" fill="#FF3D2E" opacity="0.7"/><line x1="450" y1="350" x2="550" y2="350" stroke="#00E1FF" stroke-width="4" opacity="0.8"/><circle cx="571.0739087062378" cy="281.25700125211466" r="33.333333333333336" fill="#FFA800" opacity="0.7"/><rect x="652.2134282106666" y="219.20473174376625" width="60" height="60" fill="#FF3D2E" opacity="0.7" transform="rotate(255 682.2134282106666 249.20473174376625)"/><polygon points="621.352549156242,371.832212156129 656.352549156242,431.832212156129 586.352549156242,431.832212156129" fill="#00E1FF" opacity="0.7"/><line x1="668.7429987478853" y1="428.92609129376206" x2="768.7429987478853" y2="428.92609129376206" stroke="#00E1FF" stroke-width="4" opacity="0.8"/><circle cx="500" cy="500" r="80" fill="#F5F5F5" opacity="0.9"/><circle cx="500" cy="500" r="40" fill="#050505"/></svg>