<svg xmlns="http://www.w3.org/2000/svg" viewBox="0 0 1000 1000"><rect width="1000" height="1000" fill="#050505"/><line x1="871" y1="639" x2="769" y2="548" stroke="#00E1FF" stroke-width="0.5" opacity="0.31653456561432447"/><line x1="871" y1="639" x2="752" y2="783" stroke="#00E1FF" stroke-width="0.5" opacity="0.06596306282888365"/><line x1="871" y1="639" x2="847" y2="462" stroke="#00E1FF" stroke-width="0.5" opacity="0.10690146120374833"/><line x1="871" y1="639" x2="887" y2="601" stroke="#00E1FF" stroke-width="0.5" opacity="0.793844718719117"/><line x1="871" y1="639" x2="810" y2="564" stroke="#00E1FF" stroke-width="0.5" opacity="0.516626438455722"/><line x1="104" y1="102" x2="257" y2="197" stroke="#00E1FF" stroke-width="0.5" opacity="0.09952790159827829"/><line x1="666" y1="125" x2="687" y2="312" stroke="#00E1FF" stroke-width="0.5" opacity="0.059122749770194605"/><line x1="666" y1="125" x2="596" y2="249" stroke="#00E1FF" stroke-width="0.5" opacity="0.28803089954689753"/><line x1="666" y1="125" x2="703" y2="274" stroke="#00E1FF" stroke-width="0.5" opacity="0.2323737888789883"/><line x1="779" y1="320" x2="687" y2="312" stroke="#00E1FF" stroke-width="0.5" opacity="0.5382641447753921"/><line x1="779" y1="320" x2="761" y2="461" stroke="#00E1FF" stroke-width="0.5" opacity="0.28927853557107197"/><line x1="779" y1="320" x2="731" y2="412" stroke="#00E1FF" stroke-width="0.5" opacity="0.481155129157086"/><line x1="779" y1="320" x2="847" y2="462" stroke="#00E1FF" stroke-width="0.5" opacity="0.21278973583927396"/><line x1="779" y1="320" x2="596" y2="249" stroke="#00E1FF" stroke-width="0.5" opacity="0.018546995521436016"/><line x1="779" y1="320" x2="605" y2="333" stroke="#00E1FF" stroke-width="0.5" opacity="0.1275752181419879"/><line x1="779" y1="320" x2="703" y2="274" stroke="#00E1FF" stroke-width="0.5" opacity="0.5558153537097438"/><line x1="769" y1="548" x2="761" y2="461" stroke="#00E1FF" stroke-width="0.5" opacity="0.5631647907963462"/><line x1="769" y1="548" x2="731" y2="412" stroke="#00E1FF" stroke-width="0.5" opacity="0.29395467567584577"/><line x1="769" y1="548" x2="847" y2="462" stroke="#00E1FF" stroke-width="0.5" opacity="0.4194829890520003"/><line x1="769" y1="548" x2="887" y2="601" stroke="#00E1FF" stroke-width="0.5" opacity="0.35321951173524113"/><line x1="769" y1="548" x2="810" y2="564" stroke="#00E1FF" stroke-width="0.5" opacity="0.7799431891533462"/><line x1="775" y1="826" x2="602" y2="742" stroke="#00E1FF" stroke-width="0.5" opacity="0.038425769896052175"/><line x1="775" y1="826" x2="752" y2="783" stroke="#00E1FF" stroke-width="0.5" opacity="0.7561762931952678"/><line x1="775" y1="826" x2="663" y2="722" stroke="#00E1FF" stroke-width="0.5" opacity="0.235801073018288"/><line x1="775" y1="826" x2="688" y2="790" stroke="#00E1FF" stroke-width="0.5" opacity="0.5292293552057435"/><line x1="447" y1="875" x2="442" y2="688" stroke="#00E1FF" stroke-width="0.5" opacity="0.06466583511559876"/><line x1="447" y1="875" x2="498" y2="761" stroke="#00E1FF" stroke-width="0.5" opacity="0.37556025110504054"/><line x1="447" y1="875" x2="431" y2="852" stroke="#00E1FF" stroke-width="0.5" opacity="0.859910742738781"/><line x1="447" y1="875" x2="348" y2="876" stroke="#00E1FF" stroke-width="0.5" opacity="0.504974748118846"/><line x1="447" y1="875" x2="413" y2="749" stroke="#00E1FF" stroke-width="0.5" opacity="0.3474664759569819"/><line x1="447" y1="875" x2="307" y2="853" stroke="#00E1FF" stroke-width="0.5" opacity="0.29140985047772505"/><line x1="465" y1="561" x2="316" y2="565" stroke="#00E1FF" stroke-width="0.5" opacity="0.2547315919750791"/><line x1="465" y1="561" x2="442" y2="688" stroke="#00E1FF" stroke-width="0.5" opacity="0.35467062673391336"/><line x1="465" y1="561" x2="301" y2="584" stroke="#00E1FF" stroke-width="0.5" opacity="0.1719752419160402"/><line x1="465" y1="561" x2="450" y2="413" stroke="#00E1FF" stroke-width="0.5" opacity="0.25620903474161505"/><line x1="465" y1="561" x2="311" y2="606" stroke="#00E1FF" stroke-width="0.5" opacity="0.19779990027425198"/><line x1="465" y1="561" x2="413" y2="749" stroke="#00E1FF" stroke-width="0.5" opacity="0.024705172781071205"/><line x1="687" y1="312" x2="761" y2="461" stroke="#00E1FF" stroke-width="0.5" opacity="0.16817970690779616"/><line x1="687" y1="312" x2="731" y2="412" stroke="#00E1FF" stroke-width="0.5" opacity="0.45373998865009346"/><line x1="687" y1="312" x2="596" y2="249" stroke="#00E1FF" stroke-width="0.5" opacity="0.4466014094705336"/><line x1="687" y1="312" x2="605" y2="333" stroke="#00E1FF" stroke-width="0.5" opacity="0.5767683849238103"/><line x1="687" y1="312" x2="703" y2="274" stroke="#00E1FF" stroke-width="0.5" opacity="0.793844718719117"/><line x1="687" y1="312" x2="500" y2="295" stroke="#00E1FF" stroke-width="0.5" opacity="0.061144313539082784"/><line x1="316" y1="565" x2="442" y2="688" stroke="#00E1FF" stroke-width="0.5" opacity="0.11958816455024879"/><line x1="316" y1="565" x2="274" y2="623" stroke="#00E1FF" stroke-width="0.5" opacity="0.6419497242006369"/><line x1="316" y1="565" x2="301" y2="584" stroke="#00E1FF" stroke-width="0.5" opacity="0.878962815630898"/><line x1="316" y1="565" x2="137" y2="501" stroke="#00E1FF" stroke-width="0.5" opacity="0.04951328257571119"/><line x1="316" y1="565" x2="150" y2="645" stroke="#00E1FF" stroke-width="0.5" opacity="0.07864230615900314"/><line x1="316" y1="565" x2="311" y2="606" stroke="#00E1FF" stroke-width="0.5" opacity="0.7934812357193661"/><line x1="442" y1="688" x2="602" y2="742" stroke="#00E1FF" stroke-width="0.5" opacity="0.15566594288753222"/><line x1="442" y1="688" x2="498" y2="761" stroke="#00E1FF" stroke-width="0.5" opacity="0.5399728268895413"/><line x1="442" y1="688" x2="274" y2="623" stroke="#00E1FF" stroke-width="0.5" opacity="0.09931970155887171"/><line x1="442" y1="688" x2="301" y2="584" stroke="#00E1FF" stroke-width="0.5" opacity="0.1239720324099235"/><line x1="442" y1="688" x2="431" y2="852" stroke="#00E1FF" stroke-width="0.5" opacity="0.17815755767908892"/><line x1="442" y1="688" x2="311" y2="606" stroke="#00E1FF" stroke-width="0.5" opacity="0.22726136371991856"/><line x1="442" y1="688" x2="413" y2="749" stroke="#00E1FF" stroke-width="0.5" opacity="0.6622871041846343"/><line x1="459" y1="334" x2="450" y2="413" stroke="#00E1FF" stroke-width="0.5" opacity="0.6024449723623155"/><line x1="459" y1="334" x2="596" y2="249" stroke="#00E1FF" stroke-width="0.5" opacity="0.19386725658859372"/><line x1="459" y1="334" x2="289" y2="308" stroke="#00E1FF" stroke-width="0.5" opacity="0.14011628693177358"/><line x1="459" y1="334" x2="605" y2="333" stroke="#00E1FF" stroke-width="0.5" opacity="0.2699828769131508"/><line x1="459" y1="334" x2="500" y2="295" stroke="#00E1FF" stroke-width="0.5" opacity="0.7170689129840978"/><line x1="602" y1="742" x2="498" y2="761" stroke="#00E1FF" stroke-width="0.5" opacity="0.4713933409424357"/><line x1="602" y1="742" x2="752" y2="783" stroke="#00E1FF" stroke-width="0.5" opacity="0.22248794221568502"/><line x1="602" y1="742" x2="663" y2="722" stroke="#00E1FF" stroke-width="0.5" opacity="0.6790249230859193"/><line x1="602" y1="742" x2="688" y2="790" stroke="#00E1FF" stroke-width="0.5" opacity="0.5075571099101948"/><line x1="602" y1="742" x2="413" y2="749" stroke="#00E1FF" stroke-width="0.5" opacity="0.05435207397255937"/><line x1="498" y1="761" x2="663" y2="722" stroke="#00E1FF" stroke-width="0.5" opacity="0.1522677309433127"/><line x1="498" y1="761" x2="431" y2="852" stroke="#00E1FF" stroke-width="0.5" opacity="0.43497787653933406"/><line x1="498" y1="761" x2="688" y2="790" stroke="#00E1FF" stroke-width="0.5" opacity="0.03899791883680093"/><line x1="498" y1="761" x2="348" y2="876" stroke="#00E1FF" stroke-width="0.5" opacity="0.05494709142821008"/><line x1="498" y1="761" x2="413" y2="749" stroke="#00E1FF" stroke-width="0.5" opacity="0.5707856013598798"/><line x1="761" y1="461" x2="731" y2="412" stroke="#00E1FF" stroke-width="0.5" opacity="0.7127283515555355"/><line x1="761" y1="461" x2="847" y2="462" stroke="#00E1FF" stroke-width="0.5" opacity="0.5699709312151096"/><line x1="761" y1="461" x2="887" y2="601" stroke="#00E1FF" stroke-width="0.5" opacity="0.05824631670484026"/><line x1="761" y1="461" x2="810" y2="564" stroke="#00E1FF" stroke-width="0.5" opacity="0.4296930650956452"/><line x1="761" y1="461" x2="703" y2="274" stroke="#00E1FF" stroke-width="0.5" opacity="0.021059245919345715"/><line x1="274" y1="623" x2="301" y2="584" stroke="#00E1FF" stroke-width="0.5" opacity="0.7628291754873715"/><line x1="274" y1="623" x2="137" y2="501" stroke="#00E1FF" stroke-width="0.5" opacity="0.08276229907400778"/><line x1="274" y1="623" x2="150" y2="645" stroke="#00E1FF" stroke-width="0.5" opacity="0.37031754034275344"/><line x1="274" y1="623" x2="311" y2="606" stroke="#00E1FF" stroke-width="0.5" opacity="0.7964072692849767"/><line x1="274" y1="623" x2="413" y2="749" stroke="#00E1FF" stroke-width="0.5" opacity="0.061956824021410006"/><line x1="274" y1="623" x2="189" y2="737" stroke="#00E1FF" stroke-width="0.5" opacity="0.2889971870660426"/><line x1="752" y1="783" x2="663" y2="722" stroke="#00E1FF" stroke-width="0.5" opacity="0.46050949962024357"/><line x1="752" y1="783" x2="688" y2="790" stroke="#00E1FF" stroke-width="0.5" opacity="0.6780916279436026"/><line x1="301" y1="584" x2="137" y2="501" stroke="#00E1FF" stroke-width="0.5" opacity="0.08096518020262156"/><line x1="301" y1="584" x2="150" y2="645" stroke="#00E1FF" stroke-width="0.5" opacity="0.18572117797403076"/><line x1="301" y1="584" x2="311" y2="606" stroke="#00E1FF" stroke-width="0.5" opacity="0.8791695402640543"/><line x1="301" y1="584" x2="413" y2="749" stroke="#00E1FF" stroke-width="0.5" opacity="0.0028916809092404128"/><line x1="301" y1="584" x2="189" y2="737" stroke="#00E1FF" stroke-width="0.5" opacity="0.05193618358256069"/><line x1="450" y1="413" x2="289" y2="308" stroke="#00E1FF" stroke-width="0.5" opacity="0.03893288475778123"/><line x1="450" y1="413" x2="605" y2="333" stroke="#00E1FF" stroke-width="0.5" opacity="0.12786182287437964"/><line x1="450" y1="413" x2="500" y2="295" stroke="#00E1FF" stroke-width="0.5" opacity="0.35921922625596836"/><line x1="731" y1="412" x2="847" y2="462" stroke="#00E1FF" stroke-width="0.5" opacity="0.36841469301447494"/><line x1="731" y1="412" x2="605" y2="333" stroke="#00E1FF" stroke-width="0.5" opacity="0.2564107316535559"/><line x1="731" y1="412" x2="810" y2="564" stroke="#00E1FF" stroke-width="0.5" opacity="0.1434808817078279"/><line x1="731" y1="412" x2="703" y2="274" stroke="#00E1FF" stroke-width="0.5" opacity="0.2959403434367226"/><line x1="847" y1="462" x2="887" y2="601" stroke="#00E1FF" stroke-width="0.5" opacity="0.27679532634253534"/><line x1="847" y1="462" x2="810" y2="564" stroke="#00E1FF" stroke-width="0.5" opacity="0.45748271916924166"/><line x1="663" y1="722" x2="688" y2="790" stroke="#00E1FF" stroke-width="0.5" opacity="0.637750086266401"/><line x1="431" y1="852" x2="348" y2="876" stroke="#00E1FF" stroke-width="0.5" opacity="0.5679988425941429"/><line x1="431" y1="852" x2="413" y2="749" stroke="#00E1FF" stroke-width="0.5" opacity="0.47719506505772147"/><line x1="431" y1="852" x2="307" y2="853" stroke="#00E1FF" stroke-width="0.5" opacity="0.37997983903747123"/><line x1="596" y1="249" x2="605" y2="333" stroke="#00E1FF" stroke-width="0.5" opacity="0.5775961647901383"/><line x1="596" y1="249" x2="703" y2="274" stroke="#00E1FF" stroke-width="0.5" opacity="0.4505912268629122"/><line x1="596" y1="249" x2="500" y2="295" stroke="#00E1FF" stroke-width="0.5" opacity="0.46774066471314946"/><line x1="289" y1="308" x2="257" y2="197" stroke="#00E1FF" stroke-width="0.5" opacity="0.4223971952976683"/><line x1="137" y1="501" x2="150" y2="645" stroke="#00E1FF" stroke-width="0.5" opacity="0.2770719261226605"/><line x1="887" y1="601" x2="810" y2="564" stroke="#00E1FF" stroke-width="0.5" opacity="0.5728583373165291"/><line x1="150" y1="645" x2="311" y2="606" stroke="#00E1FF" stroke-width="0.5" opacity="0.1717186468355092"/><line x1="150" y1="645" x2="189" y2="737" stroke="#00E1FF" stroke-width="0.5" opacity="0.5003751407305677"/><line x1="605" y1="333" x2="703" y2="274" stroke="#00E1FF" stroke-width="0.5" opacity="0.4280515757517991"/><line x1="605" y1="333" x2="500" y2="295" stroke="#00E1FF" stroke-width="0.5" opacity="0.4416766170040879"/><line x1="348" y1="876" x2="413" y2="749" stroke="#00E1FF" stroke-width="0.5" opacity="0.2866627725962987"/><line x1="348" y1="876" x2="307" y2="853" stroke="#00E1FF" stroke-width="0.5" opacity="0.7649468145291368"/><line x1="311" y1="606" x2="413" y2="749" stroke="#00E1FF" stroke-width="0.5" opacity="0.12174889695486302"/><line x1="311" y1="606" x2="189" y2="737" stroke="#00E1FF" stroke-width="0.5" opacity="0.1049441358216795"/><line x1="413" y1="749" x2="307" y2="853" stroke="#00E1FF" stroke-width="0.5" opacity="0.2575042087661372"/><line x1="307" y1="853" x2="189" y2="737" stroke="#00E1FF" stroke-width="0.5" opacity="0.17265484832507783"/><circle cx="871" cy="639" r="4" fill="#00E1FF"/><circle cx="104" cy="102" r="4" fill="#00E1FF"/><circle cx="666" cy="125" r="4" fill="#00E1FF"/><circle cx="779" cy="320" r="4" fill="#00E1FF"/><circle cx="769" cy="548" r="4" fill="#00E1FF"/><circle cx="775" cy="826" r="4" fill="#00E1FF"/><circle cx="447" cy="875" r="4" fill="#00E1FF"/><circle cx="465" cy="561" r="4" fill="#00E1FF"/><circle cx="687" cy="312" r="4" fill="#00E1FF"/><circle cx="316" cy="565" r="4" fill="#00E1FF"/><circle cx="442" cy="688" r="4" fill="#00E1FF"/><circle cx="459" cy="334" r="4" fill="#00E1FF"/><circle cx="602" cy="742" r="4" fill="#00E1FF"/><circle cx="498" cy="761" r="4" fill="#00E1FF"/><circle cx="761" cy="461" r="4" fill="#00E1FF"/><circle cx="274" cy="623" r="4" fill="#00E1FF"/><circle cx="752" cy="783" r="4" fill="#00E1FF"/><circle cx="301" cy="584" r="4" fill="#00E1FF"/><circle cx="450" cy="413" r="4" fill="#00E1FF"/><circle cx="731" cy="412" r="4" fill="#00E1FF"/><circle cx="847" cy="462" r="4" fill="#00E1FF"/><circle cx="663" cy="722" r="4" fill="#00E1FF"/><circle cx="890" cy="137" r="4" fill="#00E1FF"/><circle cx="431" cy="852" r="4" fill="#00E1FF"/><circle cx="596" cy="249" r="4" fill="#00E1FF"/><circle cx="289" cy="308" r="4" fill="#00E1FF"/><circle cx="137" cy="501" r="4" fill="#00E1FF"/><circle cx="887" cy="601" r="4" fill="#00E1FF"/><circle cx="150" cy="645" r="4" fill="#00E1FF"/><circle cx="605" cy="333" r="4" fill="#00E1FF"/><circle cx="810" cy="564" r="4" fill="#00E1FF"/><circle cx="688" cy="790" r="4" fill="#00E1FF"/><circle cx="703" cy="274" r="4" fill="#00E1FF"/><circle cx="348" cy="876" r="4" fill="#00E1FF"/><circle cx="311" cy="606" r="4" fill="#00E1FF"/><circle cx="413" cy="749" r="4" fill="#00E1FF"/><circle cx="307" cy="853" r="4" fill="#00E1FF"/><circle cx="500" cy="295" r="4" fill="#00E1FF"/><circle cx="257" cy="197" r="4" fill="#00E1FF"/><circle cx="189" cy="737" r="4" fill="#00E1FF"/><circle cx="500" cy="500" r="60" fill="#FF3D2E"/><text x="500" y="520" text-anchor="middle" fill="#F5F5F5" font-size="60" font-weight="900" font-family="Arial">🧠</text></svg>