<svg xmlns="http://www.w3.org/2000/svg" viewBox="0 0 1000 1000"><rect width="1000" height="1000" fill="#050505"/><path d="M 0 500 L 0 411.8119382162675 L 20 429.7341586970122 L 40 493.7008224886796 L 60 590.2575646110316 L 80 671.7559357913789 L 100 693.6683746720087 L 120 650.726887901085 L 140 579.4174779876109 L 160 524.9077995798466 L 180 502.7399725719147 L 200 489.9996758309437 L 220 453.2188472723764 L 240 386.2792204820539 L 260 322.3421928345478 L 280 307.841376056028 L 300 361.7415090836246 L 320 457.21307640688303 L 340 542.7113023200051 L 360 583.6460475898878 L 380 587.234580846377 L 400 588.7848339784692 L 420 613.138222378466 L 440 647.6836260823698 L 460 652.4080631225469 L 480 597.9872653069954 L 500 496.69016934579946 L 520 397.06122253278943 L 540 346.3282490422665 L 560 353.98654357804077 L 580 388.93385156801 L 600 411.864381513218 L 620 412.5392059483132 L 640 417.48796611537466 L 660 461.3312428056962 L 680 548.7664015715931 L 700 643.1432926070266 L 720 693.2550664425514 L 740 674.8029264662784 L 760 609.2987361342448 L 780 543.5692315344606 L 800 508.8189091216878 L 820 496.5550415493939 L 840 472.78075672049465 L 860 416.3990925724123 L 880 345.39108564072984 L 900 305.6292078290203 L 920 331.76714929336555 L 940 415.679848474703 L 960 511.4224220492935 L 980 572.5452429719658 L 1000 588.2356318366363" fill="none" stroke="#FF3D2E" stroke-width="6"/><path d="M 0 500 L 0 411.8119382162675 L 20 429.7341586970122 L 40 493.7008224886796 L 60 590.2575646110316 L 80 671.7559357913789 L 100 693.6683746720087 L 120 650.726887901085 L 140 579.4174779876109 L 160 524.9077995798466 L 180 502.7399725719147 L 200 489.9996758309437 L 220 453.2188472723764 L 240 386.2792204820539 L 260 322.3421928345478 L 280 307.841376056028 L 300 361.7415090836246 L 320 457.21307640688303 L 340 542.7113023200051 L 360 583.6460475898878 L 380 587.234580846377 L 400 588.7848339784692 L 420 613.138222378466 L 440 647.6836260823698 L 460 652.4080631225469 L 480 597.9872653069954 L 500 496.69016934579946 L 520 397.06122253278943 L 540 346.3282490422665 L 560 353.98654357804077 L 580 388.93385156801 L 600 411.864381513218 L 620 412.5392059483132 L 640 417.48796611537466 L 660 461.3312428056962 L 680 548.7664015715931 L 700 643.1432926070266 L 720 693.2550664425514 L 740 674.8029264662784 L 760 609.2987361342448 L 780 543.5692315344606 L 800 508.8189091216878 L 820 496.5550415493939 L 840 472.78075672049465 L 860 416.3990925724123 L 880 345.39108564072984 L 900 305.6292078290203 L 920 331.76714929336555 L 940 415.679848474703 L 960 511.4224220492935 L 980 572.5452429719658 L 1000 588.2356318366363 L 1000 1000 L 0 1000 Z" fill="#FF3D2E" opacity="0.2"/><circle cx="500" cy="500" r="20" fill="#00E1FF"/></svg>