<svg xmlns="http://www.w3.org/2000/svg" viewBox="0 0 1000 1000">
    <rect width="1000" height="1000" fill="#050505"/>
    <circle cx="173" cy="45" r="2.609929918973627" fill="#FF3D2E" opacity="0.4812953375659733"/><circle cx="27" cy="263" r="0.9103646968055308" fill="#FF3D2E" opacity="0.5445247408973751"/><circle cx="880" cy="333" r="2.708589117572441" fill="#FFA800" opacity="0.8946395014470607"/><circle cx="689" cy="584" r="2.266224077184528" fill="#F5F5F5" opacity="0.9896081343350565"/><circle cx="411" cy="294" r="1.9220552748229143" fill="#00E1FF" opacity="0.5310343486454615"/><circle cx="961" cy="314" r="1.5701548440376611" fill="#FFA800" opacity="0.5743356637789838"/><circle cx="305" cy="128" r="2.179396262884829" fill="#FFA800" opacity="0.4818471664144873"/><circle cx="510" cy="437" r="0.602628143192216" fill="#FFA800" opacity="0.7052468393627569"/><circle cx="38" cy="901" r="1.3962418753883812" fill="#FFA800" opacity="0.36678491403660957"/><circle cx="560" cy="696" r="2.784980663242648" fill="#00E1FF" opacity="0.38947420875632277"/><circle cx="725" cy="424" r="2.10660071473682" fill="#FF3D2E" opacity="0.4356030384621317"/><circle cx="349" cy="219" r="2.192976891111104" fill="#F5F5F5" opacity="0.7979865244027035"/><circle cx="126" cy="850" r="1.6265109601961782" fill="#F5F5F5" opacity="0.8367266040883123"/><circle cx="285" cy="721" r="2.665541701863358" fill="#F5F5F5" opacity="0.9166188295963509"/><circle cx="214" cy="371" r="2.9355961577023555" fill="#F5F5F5" opacity="0.7306585167811108"/><circle cx="997" cy="723" r="1.0875761738740592" fill="#00E1FF" opacity="0.46920290920143193"/><circle cx="291" cy="677" r="2.3676550230381226" fill="#FF3D2E" opacity="0.8000843929567576"/><circle cx="617" cy="115" r="1.4122111998016935" fill="#F5F5F5" opacity="0.8624173700652258"/><circle cx="604" cy="532" r="0.9833025158413284" fill="#FF3D2E" opacity="0.8286883344887246"/><circle cx="780" cy="665" r="2.262154653727141" fill="#FF3D2E" opacity="0.6071053242140739"/><circle cx="209" cy="973" r="1.5479771066333514" fill="#FFA800" opacity="0.9698961706240656"/><circle cx="923" cy="225" r="1.8468347076103422" fill="#FFA800" opacity="0.5360152171860444"/><circle cx="655" cy="225" r="1.9558977017313808" fill="#FFA800" opacity="0.5618517666398029"/><circle cx="697" cy="830" r="1.8125449050939098" fill="#F5F5F5" opacity="0.36024924083546417"/><circle cx="139" cy="119" r="2.98185716963869" fill="#F5F5F5" opacity="0.58464672396772"/><circle cx="866" cy="198" r="2.033290280555566" fill="#00E1FF" opacity="0.5521730307002182"/><circle cx="398" cy="268" r="1.7494097264081443" fill="#FF3D2E" opacity="0.43575145984502545"/><circle cx="670" cy="426" r="1.7329613333002047" fill="#FFA800" opacity="0.38775109447190753"/><circle cx="356" cy="177" r="2.1548763962031594" fill="#00E1FF" opacity="0.4662995451964731"/><circle cx="396" cy="692" r="2.593032601981805" fill="#F5F5F5" opacity="0.938742495042407"/><circle cx="205" cy="692" r="1.964134473632872" fill="#F5F5F5" opacity="0.7185790042859344"/><circle cx="397" cy="717" r="0.8696501159858601" fill="#F5F5F5" opacity="0.6333173335743838"/><circle cx="687" cy="447" r="1.3059556979068339" fill="#FFA800" opacity="0.5788548856000022"/><circle cx="272" cy="124" r="2.64552149355961" fill="#FFA800" opacity="0.5633599932234653"/><circle cx="739" cy="273" r="0.9601492968656407" fill="#FF3D2E" opacity="0.4453641621601142"/><circle cx="857" cy="509" r="1.0238400174478242" fill="#00E1FF" opacity="0.548946115434915"/><circle cx="80" cy="859" r="1.657414836473221" fill="#FF3D2E" opacity="0.4189583571167476"/><circle cx="961" cy="164" r="2.14048388119036" fill="#00E1FF" opacity="0.5368166175516"/><circle cx="813" cy="626" r="1.4890860571335491" fill="#F5F5F5" opacity="0.31485186055471465"/><circle cx="57" cy="56" r="1.759142906383398" fill="#FFA800" opacity="0.9496982836599512"/><circle cx="345" cy="622" r="1.7703109593087236" fill="#F5F5F5" opacity="0.5192183191263263"/><circle cx="926" cy="883" r="2.4176194912315045" fill="#F5F5F5" opacity="0.5720653362666663"/><circle cx="334" cy="891" r="2.3413308418011978" fill="#FFA800" opacity="0.6260283663076749"/><circle cx="585" cy="753" r="1.3368495115167756" fill="#FFA800" opacity="0.9826768219041935"/><circle cx="816" cy="529" r="1.452614012654363" fill="#00E1FF" opacity="0.9243300634615361"/><circle cx="227" cy="646" r="1.6817809645096133" fill="#FFA800" opacity="0.9679295829120589"/><circle cx="126" cy="510" r="1.188487855367323" fill="#FF3D2E" opacity="0.5377721450954901"/><circle cx="489" cy="786" r="2.581450634921982" fill="#00E1FF" opacity="0.8069711978313605"/><circle cx="594" cy="739" r="0.896964565932702" fill="#00E1FF" opacity="0.40762784937219554"/><circle cx="794" cy="802" r="1.4462712412491059" fill="#F5F5F5" opacity="0.3750584316858336"/><circle cx="317" cy="547" r="1.7704462919210728" fill="#FFA800" opacity="0.9351347111921078"/><circle cx="556" cy="330" r="2.543061270095828" fill="#FFA800" opacity="0.60463155017937"/><circle cx="74" cy="283" r="1.2089045864876735" fill="#FFA800" opacity="0.9531623797070929"/><circle cx="570" cy="19" r="1.3497392387115144" fill="#FF3D2E" opacity="0.4985607231448049"/><circle cx="530" cy="387" r="1.5105277643495703" fill="#F5F5F5" opacity="0.47235195511681405"/><circle cx="733" cy="518" r="1.3818120943402223" fill="#F5F5F5" opacity="0.5015457412742275"/><circle cx="418" cy="624" r="1.7688745430282178" fill="#FFA800" opacity="0.9198645735382942"/><circle cx="687" cy="702" r="2.5657506021249015" fill="#00E1FF" opacity="0.49945068013013144"/><circle cx="86" cy="646" r="2.6428511766505514" fill="#00E1FF" opacity="0.6138321287749344"/><circle cx="684" cy="238" r="2.9492589860341356" fill="#FF3D2E" opacity="0.5193755610035138"/><circle cx="807" cy="862" r="1.8042922595452877" fill="#F5F5F5" opacity="0.7247136498677833"/><circle cx="391" cy="197" r="1.7733962629556106" fill="#F5F5F5" opacity="0.6559821053436128"/><circle cx="506" cy="88" r="2.9972797658862094" fill="#00E1FF" opacity="0.5607376970561313"/><circle cx="76" cy="315" r="1.2133489964445956" fill="#F5F5F5" opacity="0.46597281310704236"/><circle cx="756" cy="0" r="2.7430271331704295" fill="#00E1FF" opacity="0.5080619286766415"/><circle cx="934" cy="910" r="1.340730462499819" fill="#F5F5F5" opacity="0.7876006278637988"/><circle cx="618" cy="400" r="1.0233385574040905" fill="#FFA800" opacity="0.8915529854624606"/><circle cx="837" cy="421" r="0.717874845517449" fill="#F5F5F5" opacity="0.33226732745266635"/><circle cx="144" cy="829" r="1.265568240222283" fill="#FFA800" opacity="0.4570148687654209"/><circle cx="800" cy="744" r="1.256202413382003" fill="#F5F5F5" opacity="0.3482838575027155"/><circle cx="231" cy="785" r="0.9996656639167529" fill="#FFA800" opacity="0.8617221805776163"/><circle cx="880" cy="642" r="1.6005727081140897" fill="#FFA800" opacity="0.31190774528289095"/><circle cx="182" cy="571" r="0.751043929358491" fill="#F5F5F5" opacity="0.8033812056079741"/><circle cx="260" cy="615" r="2.3856627107914132" fill="#00E1FF" opacity="0.7186001065401731"/><circle cx="60" cy="611" r="2.7813425893732573" fill="#F5F5F5" opacity="0.7494102093754138"/><circle cx="842" cy="926" r="1.561233978671473" fill="#FF3D2E" opacity="0.4483197585260046"/><circle cx="199" cy="507" r="0.8690396517409633" fill="#FF3D2E" opacity="0.5449596515885428"/><circle cx="487" cy="587" r="2.3541360919483285" fill="#FFA800" opacity="0.7125046383752298"/><circle cx="740" cy="191" r="0.6389648063770305" fill="#00E1FF" opacity="0.3216079428902012"/><circle cx="501" cy="390" r="1.3451669535893775" fill="#00E1FF" opacity="0.36882833281100796"/><circle cx="561" cy="622" r="2.201963169835443" fill="#F5F5F5" opacity="0.4871006701433131"/><circle cx="833" cy="601" r="1.765293598584471" fill="#FFA800" opacity="0.35414842206309327"/><circle cx="72" cy="37" r="2.4738754083560064" fill="#F5F5F5" opacity="0.46687957835425037"/><circle cx="284" cy="630" r="1.9280016670285267" fill="#FF3D2E" opacity="0.3174662382221651"/><circle cx="390" cy="666" r="1.7488036493866277" fill="#00E1FF" opacity="0.6314694965140704"/><circle cx="28" cy="418" r="1.1253496325680459" fill="#F5F5F5" opacity="0.4896941669136424"/><circle cx="193" cy="112" r="1.4169967294477344" fill="#FF3D2E" opacity="0.7577925044222735"/><circle cx="83" cy="591" r="1.6137729697815772" fill="#00E1FF" opacity="0.30444225893226434"/><circle cx="141" cy="276" r="1.2720634874956804" fill="#00E1FF" opacity="0.7646735563425195"/><circle cx="152" cy="551" r="0.8763444870106281" fill="#FFA800" opacity="0.5093112086607943"/><circle cx="934" cy="102" r="0.9992254898165155" fill="#00E1FF" opacity="0.9936196278563547"/><circle cx="679" cy="920" r="2.7674696688089693" fill="#FFA800" opacity="0.6614251620396057"/><circle cx="865" cy="734" r="2.0637003878100715" fill="#FF3D2E" opacity="0.8790787040910697"/><circle cx="357" cy="826" r="1.850714865497794" fill="#FFA800" opacity="0.6383221359800775"/><circle cx="722" cy="176" r="2.621444732363402" fill="#FF3D2E" opacity="0.3436500279275607"/><circle cx="261" cy="88" r="0.584509063883012" fill="#FF3D2E" opacity="0.8770124431148871"/><circle cx="383" cy="43" r="2.1404690763210046" fill="#FFA800" opacity="0.7501172996560801"/><circle cx="290" cy="834" r="1.9303425113836865" fill="#FF3D2E" opacity="0.5044338343003039"/><circle cx="266" cy="524" r="2.025631358744499" fill="#F5F5F5" opacity="0.4021322034059168"/><circle cx="322" cy="758" r="1.6427917769470097" fill="#FF3D2E" opacity="0.7114186217203904"/><circle cx="353" cy="580" r="1.5717328305737657" fill="#FFA800" opacity="0.36815035261837625"/><circle cx="283" cy="353" r="2.213833433246321" fill="#F5F5F5" opacity="0.4469805315675741"/><circle cx="956" cy="853" r="1.7692754523495324" fill="#FFA800" opacity="0.5371897197037553"/><circle cx="914" cy="658" r="1.9390462099644652" fill="#FF3D2E" opacity="0.8968665056952729"/><circle cx="422" cy="37" r="0.8053180813278944" fill="#00E1FF" opacity="0.7081749030638254"/><circle cx="350" cy="630" r="1.2891826506353756" fill="#F5F5F5" opacity="0.9558000973755156"/><circle cx="212" cy="382" r="2.914905615402134" fill="#FF3D2E" opacity="0.54115660300486"/><circle cx="885" cy="5" r="1.1745197332848245" fill="#FF3D2E" opacity="0.40907553302669797"/><circle cx="23" cy="686" r="1.6612933464440467" fill="#F5F5F5" opacity="0.5303671683529276"/><circle cx="522" cy="372" r="2.4574836115148826" fill="#F5F5F5" opacity="0.9274044581796144"/><circle cx="667" cy="426" r="1.7953517622634476" fill="#FF3D2E" opacity="0.4569017668565892"/><circle cx="174" cy="390" r="2.6158425699072887" fill="#FF3D2E" opacity="0.9150325324992021"/><circle cx="55" cy="835" r="2.6149048247890843" fill="#FFA800" opacity="0.5903223976166947"/><circle cx="648" cy="870" r="1.2453764098577587" fill="#00E1FF" opacity="0.6163458201719656"/><circle cx="440" cy="968" r="2.44357791895691" fill="#FFA800" opacity="0.6269244417077722"/><circle cx="711" cy="757" r="0.8552336473426038" fill="#FFA800" opacity="0.546030017243825"/><circle cx="23" cy="213" r="1.3779640229799723" fill="#FFA800" opacity="0.4472139935583671"/><circle cx="612" cy="97" r="1.9527562454087013" fill="#00E1FF" opacity="0.9036461492651313"/><circle cx="77" cy="715" r="1.440720966246572" fill="#FFA800" opacity="0.4946051927706307"/><circle cx="756" cy="510" r="1.2329282262514574" fill="#00E1FF" opacity="0.8864797144940879"/><circle cx="644" cy="899" r="2.340555368928536" fill="#FF3D2E" opacity="0.9243206545448424"/><circle cx="913" cy="602" r="2.6457557851374864" fill="#FF3D2E" opacity="0.5292843473761975"/><circle cx="660" cy="107" r="1.7278046635157214" fill="#FFA800" opacity="0.5825644918789059"/><circle cx="754" cy="779" r="0.536580568491516" fill="#F5F5F5" opacity="0.41451345024596903"/><circle cx="79" cy="754" r="1.5416393725928985" fill="#00E1FF" opacity="0.7294892440634717"/><circle cx="400" cy="996" r="1.1744589989638032" fill="#F5F5F5" opacity="0.928204413889476"/><circle cx="370" cy="292" r="0.9982495762413436" fill="#FFA800" opacity="0.7714963512988384"/><circle cx="454" cy="182" r="0.9413045846136243" fill="#FF3D2E" opacity="0.9821406943133313"/><circle cx="346" cy="658" r="1.6191545454212148" fill="#FF3D2E" opacity="0.37791477828405384"/><circle cx="118" cy="118" r="0.6720822066214522" fill="#FFA800" opacity="0.7573243661332631"/><circle cx="0" cy="334" r="0.5984944026381424" fill="#FFA800" opacity="0.32985260149250273"/><circle cx="878" cy="131" r="1.0629929821238595" fill="#F5F5F5" opacity="0.801783540471122"/><circle cx="49" cy="453" r="1.226654886583718" fill="#FFA800" opacity="0.6434519921998955"/><circle cx="941" cy="859" r="2.1437305541130587" fill="#FF3D2E" opacity="0.9367973984728428"/><circle cx="820" cy="807" r="1.0563518828964504" fill="#FFA800" opacity="0.5887976773918242"/><circle cx="450" cy="57" r="2.6409889016524892" fill="#FFA800" opacity="0.9302939224985554"/><circle cx="343" cy="626" r="1.5780613382997988" fill="#F5F5F5" opacity="0.504966969642346"/><circle cx="547" cy="377" r="1.370110007830972" fill="#FF3D2E" opacity="0.8665706823507002"/><circle cx="786" cy="324" r="0.8636246166191015" fill="#FF3D2E" opacity="0.9236730496056376"/><circle cx="471" cy="180" r="2.9207707138733943" fill="#FF3D2E" opacity="0.3792226797370443"/><circle cx="154" cy="889" r="1.555037277848404" fill="#00E1FF" opacity="0.9930675318016202"/><circle cx="484" cy="259" r="1.1381760455557017" fill="#FF3D2E" opacity="0.5648745539772793"/><circle cx="643" cy="522" r="1.186793447453928" fill="#F5F5F5" opacity="0.829549127684788"/><circle cx="578" cy="708" r="1.4020315086504838" fill="#F5F5F5" opacity="0.9473825184871245"/><circle cx="820" cy="805" r="0.9538715463630505" fill="#FFA800" opacity="0.9855914184083847"/><circle cx="813" cy="917" r="1.1252978679899512" fill="#F5F5F5" opacity="0.3999516119047992"/><circle cx="395" cy="179" r="0.867099471931725" fill="#00E1FF" opacity="0.8282605426405152"/><circle cx="195" cy="991" r="0.6528888238892168" fill="#00E1FF" opacity="0.5859109120811921"/><circle cx="544" cy="302" r="0.7477720001620198" fill="#F5F5F5" opacity="0.8525922726046755"/><circle cx="470" cy="463" r="0.6543506992360172" fill="#00E1FF" opacity="0.6376424010330167"/><circle cx="991" cy="447" r="1.6959755302740394" fill="#F5F5F5" opacity="0.5735960481450506"/><circle cx="80" cy="694" r="2.8234275832083036" fill="#FF3D2E" opacity="0.9361764452704675"/><circle cx="557" cy="410" r="2.276564218605246" fill="#FFA800" opacity="0.7394834624707324"/><circle cx="142" cy="237" r="2.252784749339286" fill="#00E1FF" opacity="0.9614250954348154"/><circle cx="138" cy="930" r="1.5541834385662212" fill="#FF3D2E" opacity="0.9207199531303338"/><circle cx="784" cy="424" r="1.5020902039455326" fill="#FFA800" opacity="0.5602789260907237"/><circle cx="54" cy="392" r="2.9423014548119375" fill="#FFA800" opacity="0.5329027563818418"/><circle cx="733" cy="956" r="0.9817007461908401" fill="#F5F5F5" opacity="0.8666962991956648"/><circle cx="340" cy="691" r="1.3437227289828924" fill="#00E1FF" opacity="0.5179723216714209"/><circle cx="790" cy="514" r="0.5521467031736889" fill="#F5F5F5" opacity="0.7102055938949989"/><circle cx="805" cy="336" r="1.370223270542541" fill="#F5F5F5" opacity="0.7145130078472408"/><circle cx="183" cy="51" r="1.2481430271453977" fill="#FFA800" opacity="0.5419632637330417"/><circle cx="9" cy="282" r="2.7023921221686433" fill="#00E1FF" opacity="0.7497201540814035"/><circle cx="269" cy="955" r="1.0211924077057895" fill="#FF3D2E" opacity="0.5025478180322627"/><circle cx="367" cy="188" r="0.76268049054125" fill="#00E1FF" opacity="0.8322795691813698"/><circle cx="101" cy="780" r="2.186908438462664" fill="#00E1FF" opacity="0.40574108648701535"/><circle cx="948" cy="559" r="0.6806570402070373" fill="#F5F5F5" opacity="0.3526113304856419"/><circle cx="218" cy="815" r="0.9569130504336666" fill="#F5F5F5" opacity="0.43220312130539335"/><circle cx="332" cy="746" r="1.3345761143306691" fill="#FFA800" opacity="0.9758679339500596"/><circle cx="611" cy="598" r="2.966063640375087" fill="#FFA800" opacity="0.8784027034571176"/><circle cx="100" cy="568" r="1.4334074977846663" fill="#FF3D2E" opacity="0.8235617791092014"/><circle cx="810" cy="0" r="1.5190080571882527" fill="#FF3D2E" opacity="0.5244136167322097"/><circle cx="348" cy="212" r="2.435748952910158" fill="#F5F5F5" opacity="0.3305751407245469"/><circle cx="534" cy="325" r="0.9014628971514089" fill="#00E1FF" opacity="0.6446766122674477"/><circle cx="133" cy="152" r="0.5381013829396032" fill="#F5F5F5" opacity="0.7550167926744313"/><circle cx="456" cy="512" r="1.3439602348476467" fill="#FF3D2E" opacity="0.600990374313181"/><circle cx="479" cy="375" r="2.7847694007892745" fill="#F5F5F5" opacity="0.8782280913298959"/><circle cx="373" cy="713" r="1.376775589823236" fill="#FF3D2E" opacity="0.3757571052446376"/><circle cx="248" cy="402" r="2.742371362101703" fill="#FFA800" opacity="0.7611948980655423"/><circle cx="672" cy="590" r="2.6819856438779732" fill="#FF3D2E" opacity="0.8157024242904864"/><circle cx="796" cy="468" r="0.8479229282920177" fill="#00E1FF" opacity="0.41319866043760095"/><circle cx="241" cy="906" r="1.90993990672948" fill="#FFA800" opacity="0.5071263733200958"/><circle cx="877" cy="557" r="2.3832423337559883" fill="#F5F5F5" opacity="0.9507587009835565"/><circle cx="398" cy="500" r="1.8393102363061404" fill="#FFA800" opacity="0.8493532895763782"/><circle cx="472" cy="716" r="2.5459047311756677" fill="#FF3D2E" opacity="0.5324222590867891"/><circle cx="116" cy="133" r="0.9619777398362074" fill="#F5F5F5" opacity="0.8461083063705499"/><circle cx="889" cy="414" r="2.008553349183324" fill="#F5F5F5" opacity="0.5140596534817895"/><circle cx="881" cy="278" r="1.8136065379832185" fill="#FFA800" opacity="0.6919429119735176"/><circle cx="212" cy="998" r="1.087854373685282" fill="#F5F5F5" opacity="0.4630614593518225"/><circle cx="777" cy="745" r="1.454722492226523" fill="#00E1FF" opacity="0.9280512655605748"/><circle cx="514" cy="757" r="2.584879753118907" fill="#FFA800" opacity="0.9171076904484572"/><circle cx="66" cy="225" r="0.7907497304570644" fill="#F5F5F5" opacity="0.7441414618309472"/><circle cx="166" cy="522" r="2.0638825475385163" fill="#00E1FF" opacity="0.6168420642290913"/><circle cx="556" cy="358" r="2.780460964800553" fill="#FFA800" opacity="0.6884066843649534"/><circle cx="763" cy="751" r="2.051840489021812" fill="#FF3D2E" opacity="0.3321625375032232"/><circle cx="496" cy="447" r="2.917472595057031" fill="#FFA800" opacity="0.5661536921740498"/><circle cx="685" cy="280" r="1.895094513776387" fill="#FF3D2E" opacity="0.7429943888110375"/><circle cx="936" cy="700" r="0.949474885318959" fill="#00E1FF" opacity="0.6675004190969853"/><circle cx="58" cy="877" r="2.1761610708496324" fill="#00E1FF" opacity="0.8157389933976935"/><circle cx="322" cy="969" r="2.7592289154855476" fill="#F5F5F5" opacity="0.4665978684682265"/>
  </svg>