<svg xmlns="http://www.w3.org/2000/svg" viewBox="0 0 2000 100">
    <rect width="2000" height="100" fill="#050505"/>
    <path d="M 0 50 L 62.3635545572527 22.666092143459693 L 147.74546638614572 20.084835314108645 L 233.6793666733189 24.827854127706427 L 323.6091272008499 35.73389216012022 L 420.0002938034789 50.132770939641524 L 523.7364347593472 64.49914276259018 L 633.902812459987 75.31561876197476 L 748.010343079464 79.93394837535742 L 862.6050111047992 77.22340344350589 L 974.1135327965486 67.84761989929676 L 1079.7182206708462 54.10211654623501 L 1178.0468516657404 39.35227199633885 L 1269.5086352047135 27.20936261423536 L 1356.194024458134 20.646396115433472 L 1441.362900500048 21.27021559029846 L 1528.6464397289262 28.928088274918593 L 1621.1580752436132 41.74509985845209 L 1720.7312198359552 56.58319889634378 L 1827.4703825968497 69.8095012473224 L 1939.7255814459115 78.18574681244768" fill="none" stroke="#00E1FF" stroke-width="2"/>
    <circle cx="0" cy="50" r="3" fill="#FF3D2E"/><circle cx="100" cy="50" r="3" fill="#FF3D2E"/><circle cx="200" cy="50" r="3" fill="#FF3D2E"/><circle cx="300" cy="50" r="3" fill="#FF3D2E"/><circle cx="400" cy="50" r="3" fill="#FF3D2E"/><circle cx="500" cy="50" r="3" fill="#FF3D2E"/><circle cx="600" cy="50" r="3" fill="#FF3D2E"/><circle cx="700" cy="50" r="3" fill="#FF3D2E"/><circle cx="800" cy="50" r="3" fill="#FF3D2E"/><circle cx="900" cy="50" r="3" fill="#FF3D2E"/><circle cx="1000" cy="50" r="3" fill="#FF3D2E"/><circle cx="1100" cy="50" r="3" fill="#FF3D2E"/><circle cx="1200" cy="50" r="3" fill="#FF3D2E"/><circle cx="1300" cy="50" r="3" fill="#FF3D2E"/><circle cx="1400" cy="50" r="3" fill="#FF3D2E"/><circle cx="1500" cy="50" r="3" fill="#FF3D2E"/><circle cx="1600" cy="50" r="3" fill="#FF3D2E"/><circle cx="1700" cy="50" r="3" fill="#FF3D2E"/><circle cx="1800" cy="50" r="3" fill="#FF3D2E"/><circle cx="1900" cy="50" r="3" fill="#FF3D2E"/><circle cx="2000" cy="50" r="3" fill="#FF3D2E"/>
  </svg>