<svg xmlns="http://www.w3.org/2000/svg" viewBox="0 0 1000 1000"><rect width="1000" height="1000" fill="#050505"/><line x1="895" y1="445" x2="868" y2="259" stroke="#00E1FF" stroke-width="0.5" opacity="0.06025269353937501"/><line x1="895" y1="445" x2="858" y2="406" stroke="#00E1FF" stroke-width="0.5" opacity="0.7312063988856877"/><line x1="895" y1="445" x2="858" y2="606" stroke="#00E1FF" stroke-width="0.5" opacity="0.17401573864873188"/><line x1="895" y1="445" x2="891" y2="391" stroke="#00E1FF" stroke-width="0.5" opacity="0.7292602725863824"/><line x1="895" y1="445" x2="876" y2="351" stroke="#00E1FF" stroke-width="0.5" opacity="0.5204950469494605"/><line x1="895" y1="445" x2="808" y2="562" stroke="#00E1FF" stroke-width="0.5" opacity="0.2709938271866279"/><line x1="669" y1="454" x2="858" y2="406" stroke="#00E1FF" stroke-width="0.5" opacity="0.025000000000000133"/><line x1="669" y1="454" x2="527" y2="335" stroke="#00E1FF" stroke-width="0.5" opacity="0.07364963431755467"/><line x1="669" y1="454" x2="573" y2="279" stroke="#00E1FF" stroke-width="0.5" opacity="0.0019894790133722084"/><line x1="669" y1="454" x2="665" y2="452" stroke="#00E1FF" stroke-width="0.5" opacity="0.9776393202250021"/><line x1="669" y1="454" x2="540" y2="549" stroke="#00E1FF" stroke-width="0.5" opacity="0.19896941381742483"/><line x1="669" y1="454" x2="808" y2="562" stroke="#00E1FF" stroke-width="0.5" opacity="0.11987216837552506"/><line x1="669" y1="454" x2="513" y2="359" stroke="#00E1FF" stroke-width="0.5" opacity="0.08675030796610728"/><line x1="868" y1="259" x2="858" y2="406" stroke="#00E1FF" stroke-width="0.5" opacity="0.2633012827485036"/><line x1="868" y1="259" x2="891" y2="391" stroke="#00E1FF" stroke-width="0.5" opacity="0.33005597248725327"/><line x1="868" y1="259" x2="876" y2="351" stroke="#00E1FF" stroke-width="0.5" opacity="0.5382641447753921"/><line x1="868" y1="259" x2="676" y2="247" stroke="#00E1FF" stroke-width="0.5" opacity="0.038126827487116044"/><line x1="201" y1="407" x2="291" y2="273" stroke="#00E1FF" stroke-width="0.5" opacity="0.19290644904075704"/><line x1="201" y1="407" x2="253" y2="416" stroke="#00E1FF" stroke-width="0.5" opacity="0.7361345039608248"/><line x1="201" y1="407" x2="137" y2="276" stroke="#00E1FF" stroke-width="0.5" opacity="0.2710109740194987"/><line x1="201" y1="407" x2="164" y2="261" stroke="#00E1FF" stroke-width="0.5" opacity="0.24692297870669289"/><line x1="201" y1="407" x2="399" y2="425" stroke="#00E1FF" stroke-width="0.5" opacity="0.005917508453146536"/><line x1="201" y1="407" x2="172" y2="288" stroke="#00E1FF" stroke-width="0.5" opacity="0.38758674083589606"/><line x1="593" y1="830" x2="627" y2="782" stroke="#00E1FF" stroke-width="0.5" opacity="0.7058911766029452"/><line x1="291" y1="273" x2="253" y2="416" stroke="#00E1FF" stroke-width="0.5" opacity="0.2601858341448171"/><line x1="291" y1="273" x2="214" y2="110" stroke="#00E1FF" stroke-width="0.5" opacity="0.09863991657051951"/><line x1="291" y1="273" x2="407" y2="275" stroke="#00E1FF" stroke-width="0.5" opacity="0.4199137995090729"/><line x1="291" y1="273" x2="294" y2="228" stroke="#00E1FF" stroke-width="0.5" opacity="0.7745005543244063"/><line x1="291" y1="273" x2="137" y2="276" stroke="#00E1FF" stroke-width="0.5" opacity="0.22985390996253174"/><line x1="291" y1="273" x2="414" y2="408" stroke="#00E1FF" stroke-width="0.5" opacity="0.08684612468653452"/><line x1="291" y1="273" x2="164" y2="261" stroke="#00E1FF" stroke-width="0.5" opacity="0.36217165318559263"/><line x1="291" y1="273" x2="399" y2="425" stroke="#00E1FF" stroke-width="0.5" opacity="0.06769103833546675"/><line x1="291" y1="273" x2="172" y2="288" stroke="#00E1FF" stroke-width="0.5" opacity="0.40029173759235226"/><line x1="253" y1="416" x2="294" y2="228" stroke="#00E1FF" stroke-width="0.5" opacity="0.037905929755307044"/><line x1="253" y1="416" x2="137" y2="276" stroke="#00E1FF" stroke-width="0.5" opacity="0.09093454581091887"/><line x1="253" y1="416" x2="414" y2="408" stroke="#00E1FF" stroke-width="0.5" opacity="0.1940068238502265"/><line x1="253" y1="416" x2="164" y2="261" stroke="#00E1FF" stroke-width="0.5" opacity="0.10632780058905267"/><line x1="253" y1="416" x2="399" y2="425" stroke="#00E1FF" stroke-width="0.5" opacity="0.26861432882507197"/><line x1="253" y1="416" x2="172" y2="288" stroke="#00E1FF" stroke-width="0.5" opacity="0.2426196464127156"/><line x1="253" y1="416" x2="393" y2="469" stroke="#00E1FF" stroke-width="0.5" opacity="0.25151820329416164"/><line x1="214" y1="110" x2="177" y2="106" stroke="#00E1FF" stroke-width="0.5" opacity="0.813922059340716"/><line x1="214" y1="110" x2="294" y2="228" stroke="#00E1FF" stroke-width="0.5" opacity="0.28718866451213065"/><line x1="214" y1="110" x2="137" y2="276" stroke="#00E1FF" stroke-width="0.5" opacity="0.08505464644056471"/><line x1="214" y1="110" x2="164" y2="261" stroke="#00E1FF" stroke-width="0.5" opacity="0.20468559676062692"/><line x1="214" y1="110" x2="172" y2="288" stroke="#00E1FF" stroke-width="0.5" opacity="0.08556028082765332"/><line x1="858" y1="406" x2="665" y2="452" stroke="#00E1FF" stroke-width="0.5" opacity="0.007969254508712331"/><line x1="858" y1="406" x2="891" y2="391" stroke="#00E1FF" stroke-width="0.5" opacity="0.8187543103960815"/><line x1="858" y1="406" x2="876" y2="351" stroke="#00E1FF" stroke-width="0.5" opacity="0.7106472740753942"/><line x1="858" y1="406" x2="808" y2="562" stroke="#00E1FF" stroke-width="0.5" opacity="0.1809151448109909"/><line x1="527" y1="335" x2="573" y2="279" stroke="#00E1FF" stroke-width="0.5" opacity="0.6376465813601313"/><line x1="527" y1="335" x2="407" y2="275" stroke="#00E1FF" stroke-width="0.5" opacity="0.32917960675006297"/><line x1="527" y1="335" x2="665" y2="452" stroke="#00E1FF" stroke-width="0.5" opacity="0.09538682300112389"/><line x1="527" y1="335" x2="527" y2="252" stroke="#00E1FF" stroke-width="0.5" opacity="0.585"/><line x1="527" y1="335" x2="414" y2="408" stroke="#00E1FF" stroke-width="0.5" opacity="0.3273559633803329"/><line x1="527" y1="335" x2="399" y2="425" stroke="#00E1FF" stroke-width="0.5" opacity="0.21763180023725393"/><line x1="527" y1="335" x2="513" y2="359" stroke="#00E1FF" stroke-width="0.5" opacity="0.8610755601055019"/><line x1="527" y1="335" x2="676" y2="247" stroke="#00E1FF" stroke-width="0.5" opacity="0.13476881702056076"/><line x1="527" y1="335" x2="393" y2="469" stroke="#00E1FF" stroke-width="0.5" opacity="0.05247691321002623"/><line x1="573" y1="279" x2="509" y2="135" stroke="#00E1FF" stroke-width="0.5" opacity="0.21209137585631166"/><line x1="573" y1="279" x2="407" y2="275" stroke="#00E1FF" stroke-width="0.5" opacity="0.16975907111248734"/><line x1="573" y1="279" x2="665" y2="452" stroke="#00E1FF" stroke-width="0.5" opacity="0.020293411270496664"/><line x1="573" y1="279" x2="687" y2="118" stroke="#00E1FF" stroke-width="0.5" opacity="0.013630393817814501"/><line x1="573" y1="279" x2="527" y2="252" stroke="#00E1FF" stroke-width="0.5" opacity="0.7333072929381083"/><line x1="573" y1="279" x2="513" y2="359" stroke="#00E1FF" stroke-width="0.5" opacity="0.5"/><line x1="573" y1="279" x2="676" y2="247" stroke="#00E1FF" stroke-width="0.5" opacity="0.46071807002273846"/><line x1="845" y1="682" x2="840" y2="829" stroke="#00E1FF" stroke-width="0.5" opacity="0.26457495283339727"/><line x1="845" y1="682" x2="858" y2="606" stroke="#00E1FF" stroke-width="0.5" opacity="0.6144808694759752"/><line x1="845" y1="682" x2="808" y2="562" stroke="#00E1FF" stroke-width="0.5" opacity="0.37212660511851603"/><line x1="509" y1="135" x2="407" y2="275" stroke="#00E1FF" stroke-width="0.5" opacity="0.13391686311301498"/><line x1="509" y1="135" x2="687" y2="118" stroke="#00E1FF" stroke-width="0.5" opacity="0.10595022509929564"/><line x1="509" y1="135" x2="527" y2="252" stroke="#00E1FF" stroke-width="0.5" opacity="0.40811741029153437"/><line x1="627" y1="782" x2="511" y2="632" stroke="#00E1FF" stroke-width="0.5" opacity="0.0518966301082987"/><line x1="393" y1="790" x2="412" y2="692" stroke="#00E1FF" stroke-width="0.5" opacity="0.5008757669677819"/><line x1="393" y1="790" x2="346" y2="877" stroke="#00E1FF" stroke-width="0.5" opacity="0.5055811492266906"/><line x1="393" y1="790" x2="206" y2="838" stroke="#00E1FF" stroke-width="0.5" opacity="0.03468916923096743"/><line x1="393" y1="790" x2="511" y2="632" stroke="#00E1FF" stroke-width="0.5" opacity="0.013997971604520543"/><line x1="393" y1="790" x2="291" y2="820" stroke="#00E1FF" stroke-width="0.5" opacity="0.4683986455999194"/><line x1="407" y1="275" x2="527" y2="252" stroke="#00E1FF" stroke-width="0.5" opacity="0.3890785647892193"/><line x1="407" y1="275" x2="294" y2="228" stroke="#00E1FF" stroke-width="0.5" opacity="0.3880768022047212"/><line x1="407" y1="275" x2="414" y2="408" stroke="#00E1FF" stroke-width="0.5" opacity="0.3340795843345843"/><line x1="407" y1="275" x2="399" y2="425" stroke="#00E1FF" stroke-width="0.5" opacity="0.24893409077498385"/><line x1="407" y1="275" x2="513" y2="359" stroke="#00E1FF" stroke-width="0.5" opacity="0.3237603974921315"/><line x1="407" y1="275" x2="393" y2="469" stroke="#00E1FF" stroke-width="0.5" opacity="0.02747750668686355"/><line x1="665" y1="452" x2="540" y2="549" stroke="#00E1FF" stroke-width="0.5" opacity="0.2088931804111407"/><line x1="665" y1="452" x2="808" y2="562" stroke="#00E1FF" stroke-width="0.5" opacity="0.09793292932288011"/><line x1="665" y1="452" x2="513" y2="359" stroke="#00E1FF" stroke-width="0.5" opacity="0.10903142591896098"/><line x1="687" y1="118" x2="676" y2="247" stroke="#00E1FF" stroke-width="0.5" opacity="0.3526592860015678"/><line x1="412" y1="692" x2="346" y2="877" stroke="#00E1FF" stroke-width="0.5" opacity="0.017897663173536582"/><line x1="412" y1="692" x2="540" y2="549" stroke="#00E1FF" stroke-width="0.5" opacity="0.04040373072838588"/><line x1="412" y1="692" x2="511" y2="632" stroke="#00E1FF" stroke-width="0.5" opacity="0.4211865585527579"/><line x1="412" y1="692" x2="291" y2="820" stroke="#00E1FF" stroke-width="0.5" opacity="0.11930425230957309"/><line x1="527" y1="252" x2="414" y2="408" stroke="#00E1FF" stroke-width="0.5" opacity="0.0368670912070338"/><line x1="527" y1="252" x2="513" y2="359" stroke="#00E1FF" stroke-width="0.5" opacity="0.46043999406924163"/><line x1="527" y1="252" x2="676" y2="247" stroke="#00E1FF" stroke-width="0.5" opacity="0.25458065493307724"/><line x1="858" y1="606" x2="808" y2="562" stroke="#00E1FF" stroke-width="0.5" opacity="0.6669834838930658"/><line x1="177" y1="106" x2="294" y2="228" stroke="#00E1FF" stroke-width="0.5" opacity="0.1548225038490435"/><line x1="177" y1="106" x2="137" y2="276" stroke="#00E1FF" stroke-width="0.5" opacity="0.12678754017135108"/><line x1="177" y1="106" x2="164" y2="261" stroke="#00E1FF" stroke-width="0.5" opacity="0.22227897032419142"/><line x1="177" y1="106" x2="172" y2="288" stroke="#00E1FF" stroke-width="0.5" opacity="0.08965665817780588"/><line x1="294" y1="228" x2="137" y2="276" stroke="#00E1FF" stroke-width="0.5" opacity="0.17913155743444487"/><line x1="294" y1="228" x2="164" y2="261" stroke="#00E1FF" stroke-width="0.5" opacity="0.32938461097287675"/><line x1="294" y1="228" x2="172" y2="288" stroke="#00E1FF" stroke-width="0.5" opacity="0.3202206240257064"/><line x1="137" y1="276" x2="164" y2="261" stroke="#00E1FF" stroke-width="0.5" opacity="0.845565547885195"/><line x1="137" y1="276" x2="172" y2="288" stroke="#00E1FF" stroke-width="0.5" opacity="0.815"/><line x1="346" y1="877" x2="206" y2="838" stroke="#00E1FF" stroke-width="0.5" opacity="0.27334671266139576"/><line x1="346" y1="877" x2="291" y2="820" stroke="#00E1FF" stroke-width="0.5" opacity="0.603957073033743"/><line x1="414" y1="408" x2="540" y2="549" stroke="#00E1FF" stroke-width="0.5" opacity="0.05452392944083473"/><line x1="414" y1="408" x2="399" y2="425" stroke="#00E1FF" stroke-width="0.5" opacity="0.8866421595124536"/><line x1="414" y1="408" x2="513" y2="359" stroke="#00E1FF" stroke-width="0.5" opacity="0.4476866831227043"/><line x1="414" y1="408" x2="393" y2="469" stroke="#00E1FF" stroke-width="0.5" opacity="0.6774321776742138"/><line x1="891" y1="391" x2="876" y2="351" stroke="#00E1FF" stroke-width="0.5" opacity="0.7863999063670617"/><line x1="891" y1="391" x2="808" y2="562" stroke="#00E1FF" stroke-width="0.5" opacity="0.049605345132875844"/><line x1="164" y1="261" x2="172" y2="288" stroke="#00E1FF" stroke-width="0.5" opacity="0.8591987215967127"/><line x1="206" y1="838" x2="291" y2="820" stroke="#00E1FF" stroke-width="0.5" opacity="0.565575092795084"/><line x1="540" y1="549" x2="399" y2="425" stroke="#00E1FF" stroke-width="0.5" opacity="0.0611576277137893"/><line x1="540" y1="549" x2="513" y2="359" stroke="#00E1FF" stroke-width="0.5" opacity="0.040455837389440474"/><line x1="540" y1="549" x2="511" y2="632" stroke="#00E1FF" stroke-width="0.5" opacity="0.5603979071933347"/><line x1="540" y1="549" x2="393" y2="469" stroke="#00E1FF" stroke-width="0.5" opacity="0.16320552105071828"/><line x1="399" y1="425" x2="513" y2="359" stroke="#00E1FF" stroke-width="0.5" opacity="0.3413650479969955"/><line x1="399" y1="425" x2="393" y2="469" stroke="#00E1FF" stroke-width="0.5" opacity="0.7779639668882548"/><line x1="513" y1="359" x2="676" y2="247" stroke="#00E1FF" stroke-width="0.5" opacity="0.011149657430407856"/><line x1="513" y1="359" x2="393" y2="469" stroke="#00E1FF" stroke-width="0.5" opacity="0.18605897019501472"/><circle cx="895" cy="445" r="4" fill="#00E1FF"/><circle cx="669" cy="454" r="4" fill="#00E1FF"/><circle cx="868" cy="259" r="4" fill="#00E1FF"/><circle cx="201" cy="407" r="4" fill="#00E1FF"/><circle cx="593" cy="830" r="4" fill="#00E1FF"/><circle cx="291" cy="273" r="4" fill="#00E1FF"/><circle cx="253" cy="416" r="4" fill="#00E1FF"/><circle cx="214" cy="110" r="4" fill="#00E1FF"/><circle cx="858" cy="406" r="4" fill="#00E1FF"/><circle cx="527" cy="335" r="4" fill="#00E1FF"/><circle cx="573" cy="279" r="4" fill="#00E1FF"/><circle cx="845" cy="682" r="4" fill="#00E1FF"/><circle cx="509" cy="135" r="4" fill="#00E1FF"/><circle cx="627" cy="782" r="4" fill="#00E1FF"/><circle cx="393" cy="790" r="4" fill="#00E1FF"/><circle cx="407" cy="275" r="4" fill="#00E1FF"/><circle cx="665" cy="452" r="4" fill="#00E1FF"/><circle cx="687" cy="118" r="4" fill="#00E1FF"/><circle cx="840" cy="829" r="4" fill="#00E1FF"/><circle cx="412" cy="692" r="4" fill="#00E1FF"/><circle cx="527" cy="252" r="4" fill="#00E1FF"/><circle cx="858" cy="606" r="4" fill="#00E1FF"/><circle cx="177" cy="106" r="4" fill="#00E1FF"/><circle cx="294" cy="228" r="4" fill="#00E1FF"/><circle cx="137" cy="276" r="4" fill="#00E1FF"/><circle cx="346" cy="877" r="4" fill="#00E1FF"/><circle cx="414" cy="408" r="4" fill="#00E1FF"/><circle cx="891" cy="391" r="4" fill="#00E1FF"/><circle cx="164" cy="261" r="4" fill="#00E1FF"/><circle cx="206" cy="838" r="4" fill="#00E1FF"/><circle cx="540" cy="549" r="4" fill="#00E1FF"/><circle cx="399" cy="425" r="4" fill="#00E1FF"/><circle cx="876" cy="351" r="4" fill="#00E1FF"/><circle cx="808" cy="562" r="4" fill="#00E1FF"/><circle cx="513" cy="359" r="4" fill="#00E1FF"/><circle cx="172" cy="288" r="4" fill="#00E1FF"/><circle cx="511" cy="632" r="4" fill="#00E1FF"/><circle cx="676" cy="247" r="4" fill="#00E1FF"/><circle cx="393" cy="469" r="4" fill="#00E1FF"/><circle cx="291" cy="820" r="4" fill="#00E1FF"/><circle cx="500" cy="500" r="60" fill="#FF3D2E"/><text x="500" y="520" text-anchor="middle" fill="#F5F5F5" font-size="60" font-weight="900" font-family="Arial">🧠</text></svg>