<svg xmlns="http://www.w3.org/2000/svg" viewBox="0 0 1000 1000"><rect width="1000" height="1000" fill="#050505"/><path d="M 0 500 L 0 694.6231817140564 L 20 668.8078400841769 L 40 600.8033732020286 L 60 537.7395376140323 L 80 506.791836098367 L 100 495.0599331834029 L 120 467.9569739597682 L 140 408.17199575358393 L 160 338.2526250533345 L 180 304.99304731162414 L 200 339.17283427024364 L 220 427.226634794314 L 240 520.8964915729802 L 260 576.4376417905563 L 280 588.1471898449306 L 300 586.4457584892441 L 320 603.4064930996552 L 340 638.4504820010214 L 360 656.5085127035646 L 380 620.7134855304345 L 400 529.4951944629134 L 420 423.4675994176271 L 440 354.91703377161656 L 460 346.8656792133567 L 480 378.2206551697918 L 500 407.665490744666 L 520 413.618012425135 L 540 413.2062594449771 L 560 442.9528804106984 L 580 519.4900223495243 L 600 617.3241701974022 L 620 685.1900890337498 L 640 687.0766448620896 L 660 631.1697460718008 L 680 560.7600441252914 L 700 515.7220821050835 L 720 499.7786414195372 L 740 483.02765291791377 L 760 436.46912794182293 L 780 365.6775194932601 L 800 311.5545900307136 L 820 316.54259667824863 L 840 386.7584451463834 L 860 484.680089200471 L 880 559.3760399579487 L 900 587.1589506627859 L 920 586.2610750100318 L 940 593.1603913755871 L 960 623.4141757472586 L 980 653.8981103724107 L 1000 643.3260892985722" fill="none" stroke="#FF3D2E" stroke-width="6"/><path d="M 0 500 L 0 694.6231817140564 L 20 668.8078400841769 L 40 600.8033732020286 L 60 537.7395376140323 L 80 506.791836098367 L 100 495.0599331834029 L 120 467.9569739597682 L 140 408.17199575358393 L 160 338.2526250533345 L 180 304.99304731162414 L 200 339.17283427024364 L 220 427.226634794314 L 240 520.8964915729802 L 260 576.4376417905563 L 280 588.1471898449306 L 300 586.4457584892441 L 320 603.4064930996552 L 340 638.4504820010214 L 360 656.5085127035646 L 380 620.7134855304345 L 400 529.4951944629134 L 420 423.4675994176271 L 440 354.91703377161656 L 460 346.8656792133567 L 480 378.2206551697918 L 500 407.665490744666 L 520 413.618012425135 L 540 413.2062594449771 L 560 442.9528804106984 L 580 519.4900223495243 L 600 617.3241701974022 L 620 685.1900890337498 L 640 687.0766448620896 L 660 631.1697460718008 L 680 560.7600441252914 L 700 515.7220821050835 L 720 499.7786414195372 L 740 483.02765291791377 L 760 436.46912794182293 L 780 365.6775194932601 L 800 311.5545900307136 L 820 316.54259667824863 L 840 386.7584451463834 L 860 484.680089200471 L 880 559.3760399579487 L 900 587.1589506627859 L 920 586.2610750100318 L 940 593.1603913755871 L 960 623.4141757472586 L 980 653.8981103724107 L 1000 643.3260892985722 L 1000 1000 L 0 1000 Z" fill="#FF3D2E" opacity="0.2"/><circle cx="500" cy="500" r="20" fill="#00E1FF"/></svg>