<svg xmlns="http://www.w3.org/2000/svg" viewBox="0 0 1000 1000">
    <rect width="1000" height="1000" fill="#050505"/>
    <circle cx="785" cy="606" r="2.4246085251989014" fill="#F5F5F5" opacity="0.6294755265628679"/><circle cx="685" cy="992" r="2.351299382697096" fill="#FFA800" opacity="0.37921358427535357"/><circle cx="955" cy="128" r="0.5829246221603552" fill="#FF3D2E" opacity="0.5893604529532495"/><circle cx="983" cy="101" r="0.86215954370581" fill="#FFA800" opacity="0.7404266312608306"/><circle cx="632" cy="774" r="2.5654999327165395" fill="#FFA800" opacity="0.6464057060286537"/><circle cx="965" cy="176" r="1.4885325271326995" fill="#00E1FF" opacity="0.7490395918861701"/><circle cx="318" cy="482" r="0.872370496441593" fill="#00E1FF" opacity="0.5653057025003752"/><circle cx="792" cy="435" r="1.999717007424114" fill="#FFA800" opacity="0.4776779256568361"/><circle cx="960" cy="998" r="0.6573887773954114" fill="#F5F5F5" opacity="0.30608465782250444"/><circle cx="847" cy="913" r="1.0121302666464245" fill="#F5F5F5" opacity="0.8008704707140912"/><circle cx="245" cy="471" r="2.96657870080137" fill="#FFA800" opacity="0.3087550835663165"/><circle cx="966" cy="89" r="2.9543500250843007" fill="#F5F5F5" opacity="0.5095407041456097"/><circle cx="167" cy="448" r="2.8484649234559356" fill="#F5F5F5" opacity="0.6512464015560253"/><circle cx="378" cy="7" r="1.506672985512926" fill="#00E1FF" opacity="0.48495045555078675"/><circle cx="960" cy="150" r="2.805366172859115" fill="#FFA800" opacity="0.4052271735696362"/><circle cx="798" cy="239" r="0.8078225056154982" fill="#F5F5F5" opacity="0.8098098407694931"/><circle cx="909" cy="730" r="2.15256022783017" fill="#00E1FF" opacity="0.9252511987954621"/><circle cx="535" cy="280" r="2.2743594892018093" fill="#00E1FF" opacity="0.664469844260769"/><circle cx="804" cy="981" r="1.0944064374516316" fill="#FF3D2E" opacity="0.9084832868458388"/><circle cx="698" cy="963" r="1.0566702749770402" fill="#F5F5F5" opacity="0.446598461690236"/><circle cx="234" cy="90" r="1.1794686413870632" fill="#F5F5F5" opacity="0.7017045444168872"/><circle cx="738" cy="494" r="2.856378495609203" fill="#00E1FF" opacity="0.5283372565271519"/><circle cx="572" cy="940" r="2.914814109502937" fill="#FFA800" opacity="0.9384983002875713"/><circle cx="472" cy="873" r="0.7743758951769315" fill="#00E1FF" opacity="0.7320733240770869"/><circle cx="32" cy="785" r="2.968375635294217" fill="#F5F5F5" opacity="0.6744855865465447"/><circle cx="571" cy="115" r="2.602227016008033" fill="#FF3D2E" opacity="0.916926023344582"/><circle cx="390" cy="169" r="1.3950010165785849" fill="#FFA800" opacity="0.4918031562863112"/><circle cx="284" cy="947" r="1.5861408215231756" fill="#00E1FF" opacity="0.7286000465991997"/><circle cx="124" cy="830" r="0.7435340960642773" fill="#00E1FF" opacity="0.42409501152204865"/><circle cx="780" cy="463" r="2.6604670355219797" fill="#FFA800" opacity="0.9321976702415253"/><circle cx="387" cy="988" r="0.7480478671913611" fill="#F5F5F5" opacity="0.3828233240070976"/><circle cx="169" cy="859" r="2.1554130219145162" fill="#FFA800" opacity="0.7730000164420461"/><circle cx="79" cy="30" r="2.283955587698933" fill="#FFA800" opacity="0.9050912159505862"/><circle cx="10" cy="12" r="1.1859008315281105" fill="#F5F5F5" opacity="0.842019701909243"/><circle cx="567" cy="32" r="2.9225134790582024" fill="#F5F5F5" opacity="0.6043223354328398"/><circle cx="595" cy="848" r="2.9371226794338985" fill="#FF3D2E" opacity="0.4158031282922304"/><circle cx="848" cy="981" r="2.2820884522302514" fill="#FF3D2E" opacity="0.5582921989425953"/><circle cx="821" cy="706" r="1.3775607485275256" fill="#FFA800" opacity="0.5254834964181315"/><circle cx="763" cy="168" r="2.0501041604429524" fill="#00E1FF" opacity="0.8823485089094805"/><circle cx="721" cy="646" r="2.5240440435059375" fill="#FFA800" opacity="0.6470248666793823"/><circle cx="530" cy="959" r="1.2426653036535036" fill="#F5F5F5" opacity="0.8274598691585775"/><circle cx="197" cy="334" r="2.698183096525275" fill="#FF3D2E" opacity="0.8047303788828113"/><circle cx="61" cy="163" r="2.5395064248522976" fill="#FFA800" opacity="0.514870385162796"/><circle cx="143" cy="768" r="1.6853353975496401" fill="#F5F5F5" opacity="0.7887475852582544"/><circle cx="602" cy="133" r="2.2289960491886056" fill="#FF3D2E" opacity="0.8779281385346744"/><circle cx="778" cy="618" r="2.7729035298860496" fill="#FFA800" opacity="0.7362386367781478"/><circle cx="291" cy="418" r="2.513543825299162" fill="#F5F5F5" opacity="0.5111972802933606"/><circle cx="794" cy="496" r="1.3598351249176261" fill="#FF3D2E" opacity="0.841499185278864"/><circle cx="13" cy="582" r="2.215695418117123" fill="#F5F5F5" opacity="0.38972621073913366"/><circle cx="339" cy="968" r="1.255402422951389" fill="#FF3D2E" opacity="0.7160609142416618"/><circle cx="874" cy="701" r="0.9199547407400595" fill="#00E1FF" opacity="0.7315361642404529"/><circle cx="566" cy="889" r="0.8640271236926923" fill="#FF3D2E" opacity="0.3663559279601289"/><circle cx="677" cy="471" r="0.6720514197456369" fill="#00E1FF" opacity="0.8468610938777985"/><circle cx="844" cy="788" r="0.7800512468283911" fill="#00E1FF" opacity="0.8065926398644321"/><circle cx="327" cy="32" r="2.9827246804612404" fill="#FF3D2E" opacity="0.5435087182267552"/><circle cx="692" cy="355" r="2.006649088508236" fill="#FF3D2E" opacity="0.5876920704538598"/><circle cx="177" cy="627" r="0.893620921962724" fill="#00E1FF" opacity="0.6513514345478975"/><circle cx="601" cy="887" r="2.6713222988326026" fill="#00E1FF" opacity="0.9510184511413757"/><circle cx="665" cy="159" r="2.919459062167361" fill="#F5F5F5" opacity="0.5246701390607393"/><circle cx="620" cy="628" r="1.999186353219009" fill="#FFA800" opacity="0.6993106590251945"/><circle cx="498" cy="899" r="2.3538016502791437" fill="#FF3D2E" opacity="0.3553119018040309"/><circle cx="784" cy="492" r="1.1548959077981538" fill="#FF3D2E" opacity="0.6759274074728676"/><circle cx="264" cy="78" r="2.2357369957166977" fill="#00E1FF" opacity="0.6308651573611489"/><circle cx="572" cy="318" r="1.6621292551077849" fill="#FFA800" opacity="0.7056007067131695"/><circle cx="225" cy="205" r="2.092703366340504" fill="#F5F5F5" opacity="0.8468312511276193"/><circle cx="352" cy="872" r="1.2795652129261161" fill="#FF3D2E" opacity="0.7863376342763947"/><circle cx="229" cy="697" r="1.3248167814198248" fill="#FF3D2E" opacity="0.3226630239519788"/><circle cx="565" cy="538" r="2.8732185112377024" fill="#FFA800" opacity="0.6882590647696116"/><circle cx="392" cy="574" r="1.3475418778446753" fill="#00E1FF" opacity="0.4804933272492994"/><circle cx="91" cy="896" r="2.6861300405700756" fill="#FF3D2E" opacity="0.5238710830646709"/><circle cx="654" cy="886" r="0.5901345322347685" fill="#FFA800" opacity="0.3603508721096389"/><circle cx="947" cy="862" r="1.5628569901682732" fill="#FF3D2E" opacity="0.7764659198309478"/><circle cx="484" cy="604" r="1.1648634778396683" fill="#00E1FF" opacity="0.31110847145505177"/><circle cx="907" cy="85" r="2.121652348335604" fill="#FFA800" opacity="0.5525264373351196"/><circle cx="186" cy="161" r="1.6209393898258413" fill="#FF3D2E" opacity="0.7499262646347868"/><circle cx="68" cy="657" r="0.8080539854352959" fill="#FF3D2E" opacity="0.4118791500494421"/><circle cx="706" cy="44" r="2.503304793685233" fill="#F5F5F5" opacity="0.32971657117896486"/><circle cx="806" cy="782" r="1.458537278853377" fill="#FFA800" opacity="0.6306316042562807"/><circle cx="832" cy="600" r="0.7825427990456075" fill="#FF3D2E" opacity="0.9025626762981709"/><circle cx="425" cy="546" r="2.805296972619634" fill="#F5F5F5" opacity="0.5041659126767628"/><circle cx="260" cy="580" r="1.075832106119842" fill="#00E1FF" opacity="0.845904884366169"/><circle cx="739" cy="603" r="0.7173483949934096" fill="#00E1FF" opacity="0.6385641402248091"/><circle cx="42" cy="560" r="0.7904744736272474" fill="#FF3D2E" opacity="0.9542293366064603"/><circle cx="164" cy="845" r="1.2525750245463598" fill="#00E1FF" opacity="0.3316157894326734"/><circle cx="826" cy="168" r="0.8975825943698791" fill="#00E1FF" opacity="0.5705178698276918"/><circle cx="285" cy="250" r="1.5590301144796332" fill="#F5F5F5" opacity="0.8883251694159446"/><circle cx="437" cy="43" r="1.8115087117634134" fill="#FF3D2E" opacity="0.3964813247439682"/><circle cx="304" cy="203" r="2.0385564841208903" fill="#FFA800" opacity="0.5991393304004222"/><circle cx="5" cy="866" r="2.8972133290576836" fill="#FF3D2E" opacity="0.4502026161781517"/><circle cx="203" cy="927" r="1.6363544061005348" fill="#F5F5F5" opacity="0.33235610523962267"/><circle cx="435" cy="447" r="0.7521148373293086" fill="#FFA800" opacity="0.7975461794009048"/><circle cx="356" cy="356" r="2.851072412862858" fill="#00E1FF" opacity="0.8778414734944959"/><circle cx="322" cy="386" r="2.1456766707786934" fill="#FFA800" opacity="0.6230641887552759"/><circle cx="101" cy="734" r="2.377233202299145" fill="#00E1FF" opacity="0.8272663013846331"/><circle cx="202" cy="479" r="1.6086995070567922" fill="#FFA800" opacity="0.6697779530867382"/><circle cx="811" cy="715" r="0.541779425052248" fill="#F5F5F5" opacity="0.9789584751189657"/><circle cx="539" cy="982" r="0.7748112166546768" fill="#FF3D2E" opacity="0.5239462506594015"/><circle cx="125" cy="189" r="0.6224857895068326" fill="#FF3D2E" opacity="0.7072464419429472"/><circle cx="389" cy="258" r="2.6353417580334257" fill="#F5F5F5" opacity="0.8145016555967108"/><circle cx="229" cy="469" r="1.2218903432324493" fill="#00E1FF" opacity="0.5637152352581394"/><circle cx="934" cy="828" r="2.2057578478493625" fill="#F5F5F5" opacity="0.8983547867265245"/><circle cx="817" cy="664" r="2.747697299946827" fill="#00E1FF" opacity="0.7104882657613902"/><circle cx="613" cy="765" r="2.8621182620049037" fill="#00E1FF" opacity="0.5320198346752448"/><circle cx="81" cy="968" r="1.799361705447164" fill="#00E1FF" opacity="0.7245056048304084"/><circle cx="703" cy="163" r="0.5115199721908049" fill="#F5F5F5" opacity="0.7070550708698522"/><circle cx="104" cy="597" r="2.4968269202650273" fill="#FF3D2E" opacity="0.6148860987368179"/><circle cx="981" cy="982" r="1.6831460820439232" fill="#F5F5F5" opacity="0.8327828270428173"/><circle cx="568" cy="851" r="2.7858949396566244" fill="#FFA800" opacity="0.8359545458996216"/><circle cx="126" cy="631" r="1.7164735761390688" fill="#FFA800" opacity="0.40966247487393487"/><circle cx="339" cy="52" r="1.0392537798526775" fill="#FF3D2E" opacity="0.822171622997693"/><circle cx="73" cy="854" r="2.2270095560753047" fill="#00E1FF" opacity="0.969438632350424"/><circle cx="224" cy="53" r="1.3759726369290222" fill="#00E1FF" opacity="0.8042136701809237"/><circle cx="578" cy="47" r="0.5100229292300691" fill="#00E1FF" opacity="0.9528101901366977"/><circle cx="956" cy="333" r="1.3205750463724248" fill="#FFA800" opacity="0.8755515448082547"/><circle cx="24" cy="661" r="1.66656984231909" fill="#FFA800" opacity="0.7572094548405524"/><circle cx="98" cy="133" r="2.1432525440674812" fill="#F5F5F5" opacity="0.7837950332379607"/><circle cx="52" cy="978" r="1.580356716826194" fill="#FF3D2E" opacity="0.46419178909781633"/><circle cx="777" cy="304" r="1.600039474561959" fill="#FF3D2E" opacity="0.8102547505062441"/><circle cx="844" cy="364" r="2.7483460270829294" fill="#FF3D2E" opacity="0.375153751225368"/><circle cx="991" cy="578" r="0.6506621840880701" fill="#00E1FF" opacity="0.9970224928572728"/><circle cx="19" cy="298" r="2.393186133038478" fill="#FF3D2E" opacity="0.9199402737122468"/><circle cx="512" cy="511" r="2.7193568606531153" fill="#FFA800" opacity="0.4370736247197497"/><circle cx="878" cy="305" r="0.9466985204724266" fill="#FFA800" opacity="0.800690520280444"/><circle cx="988" cy="53" r="2.5102906931836317" fill="#00E1FF" opacity="0.9842032900424993"/><circle cx="537" cy="286" r="2.692376889962797" fill="#F5F5F5" opacity="0.8739307760266917"/><circle cx="765" cy="0" r="2.990562103123972" fill="#FFA800" opacity="0.49712064815263657"/><circle cx="8" cy="902" r="0.9706245160862488" fill="#FFA800" opacity="0.3898761802249343"/><circle cx="325" cy="898" r="2.3169286995078053" fill="#F5F5F5" opacity="0.45319036920505074"/><circle cx="742" cy="525" r="2.2692510938088497" fill="#FFA800" opacity="0.8130664277595536"/><circle cx="921" cy="500" r="1.9721152155809776" fill="#FFA800" opacity="0.3637758926278047"/><circle cx="443" cy="393" r="1.8816692221893156" fill="#00E1FF" opacity="0.3987409219374747"/><circle cx="809" cy="485" r="2.2755016762745557" fill="#FF3D2E" opacity="0.6187323427941274"/><circle cx="906" cy="470" r="2.7509021949576207" fill="#00E1FF" opacity="0.8162125803423643"/><circle cx="630" cy="666" r="2.629900997662664" fill="#FFA800" opacity="0.600524972849307"/><circle cx="670" cy="360" r="1.4193389601206359" fill="#F5F5F5" opacity="0.34933504959063955"/><circle cx="18" cy="711" r="2.2246186757240514" fill="#FFA800" opacity="0.801198165663187"/><circle cx="899" cy="380" r="2.7225613573325225" fill="#F5F5F5" opacity="0.5698374812822498"/><circle cx="654" cy="148" r="2.2026627577527016" fill="#FFA800" opacity="0.45291537781434943"/><circle cx="674" cy="525" r="0.6468459212508638" fill="#FFA800" opacity="0.48684448110758477"/><circle cx="374" cy="38" r="1.4607491507264836" fill="#FFA800" opacity="0.6302800299012201"/><circle cx="482" cy="381" r="0.8398296900455311" fill="#FF3D2E" opacity="0.3418235714220794"/><circle cx="570" cy="672" r="0.6396400300035372" fill="#FFA800" opacity="0.41697307530923994"/><circle cx="388" cy="609" r="2.3777368208655085" fill="#F5F5F5" opacity="0.48780306551506575"/><circle cx="513" cy="963" r="1.5069123121789887" fill="#FFA800" opacity="0.45023735111845464"/><circle cx="682" cy="509" r="1.774555528156664" fill="#00E1FF" opacity="0.8084620382005827"/><circle cx="559" cy="745" r="1.7307707401359074" fill="#FFA800" opacity="0.3117607164177769"/><circle cx="11" cy="768" r="2.0043429614823136" fill="#F5F5F5" opacity="0.3197479769511828"/><circle cx="524" cy="598" r="2.9888443594907055" fill="#F5F5F5" opacity="0.9144694129010447"/><circle cx="752" cy="170" r="0.6859125403902656" fill="#F5F5F5" opacity="0.7294421088210818"/><circle cx="793" cy="432" r="2.1572559023220244" fill="#F5F5F5" opacity="0.48299960547343856"/><circle cx="58" cy="219" r="2.872935940729615" fill="#FFA800" opacity="0.6397742412889724"/><circle cx="465" cy="144" r="0.6901984976910637" fill="#FF3D2E" opacity="0.5702353584624706"/><circle cx="534" cy="704" r="0.6825014294043359" fill="#FFA800" opacity="0.5293862606527987"/><circle cx="894" cy="30" r="2.662797821717878" fill="#FF3D2E" opacity="0.7325447343366395"/><circle cx="141" cy="199" r="2.717321978182775" fill="#FFA800" opacity="0.44937605635004485"/><circle cx="455" cy="999" r="2.6209097867795283" fill="#00E1FF" opacity="0.4297903038187615"/><circle cx="685" cy="510" r="0.7628142282985124" fill="#FF3D2E" opacity="0.6587322247665484"/><circle cx="165" cy="701" r="2.7811902879028745" fill="#00E1FF" opacity="0.7242613708814254"/><circle cx="994" cy="8" r="1.177652575383192" fill="#00E1FF" opacity="0.7453571930194633"/><circle cx="968" cy="866" r="1.340546325545806" fill="#FFA800" opacity="0.3805939731482576"/><circle cx="578" cy="137" r="0.7507611096502055" fill="#FFA800" opacity="0.5966619209783217"/><circle cx="94" cy="643" r="2.6273527725932877" fill="#00E1FF" opacity="0.7447103491792822"/><circle cx="419" cy="608" r="0.5607281812526778" fill="#F5F5F5" opacity="0.4088825621152019"/><circle cx="331" cy="169" r="0.9246343169305239" fill="#F5F5F5" opacity="0.5265845584190558"/><circle cx="109" cy="935" r="2.5965212988753796" fill="#F5F5F5" opacity="0.7148581736850261"/><circle cx="202" cy="74" r="1.511199735920898" fill="#FFA800" opacity="0.8736558075014338"/><circle cx="268" cy="101" r="1.2348439359290704" fill="#F5F5F5" opacity="0.9281723668808071"/><circle cx="455" cy="537" r="2.981373850157495" fill="#FFA800" opacity="0.9221484535448721"/><circle cx="125" cy="221" r="0.8397960148279572" fill="#00E1FF" opacity="0.6765490075121723"/><circle cx="258" cy="101" r="2.862963755353565" fill="#FFA800" opacity="0.6535239591061446"/><circle cx="693" cy="83" r="2.6001575736060203" fill="#FFA800" opacity="0.8277891435498772"/><circle cx="128" cy="512" r="2.7939304370767544" fill="#00E1FF" opacity="0.30654265498303007"/><circle cx="85" cy="665" r="1.8435733949669137" fill="#FFA800" opacity="0.943622380657205"/><circle cx="645" cy="943" r="2.666912418173016" fill="#FFA800" opacity="0.528777831144545"/><circle cx="169" cy="214" r="2.4481527376175016" fill="#00E1FF" opacity="0.9554870970916378"/><circle cx="135" cy="595" r="2.183502521757652" fill="#00E1FF" opacity="0.46897551052783604"/><circle cx="709" cy="523" r="2.857235254718914" fill="#FFA800" opacity="0.8834026513431394"/><circle cx="477" cy="381" r="2.130312424520473" fill="#FFA800" opacity="0.5596834916937435"/><circle cx="922" cy="355" r="0.9801990162222702" fill="#FFA800" opacity="0.5640526998156199"/><circle cx="907" cy="551" r="2.264469987134036" fill="#F5F5F5" opacity="0.3674775503508233"/><circle cx="762" cy="165" r="0.8969993465035548" fill="#FFA800" opacity="0.3909752500811643"/><circle cx="800" cy="362" r="0.6594175404060622" fill="#FFA800" opacity="0.36127737571155877"/><circle cx="353" cy="763" r="2.2185453209388095" fill="#00E1FF" opacity="0.5486113620093269"/><circle cx="286" cy="445" r="2.1149454163043044" fill="#FF3D2E" opacity="0.4682762581616826"/><circle cx="800" cy="167" r="2.635031293885154" fill="#00E1FF" opacity="0.555527048648282"/><circle cx="244" cy="862" r="1.238050539077813" fill="#FFA800" opacity="0.3580566657565583"/><circle cx="236" cy="997" r="2.207756647243997" fill="#F5F5F5" opacity="0.3742411328397091"/><circle cx="431" cy="228" r="2.1645798068707114" fill="#00E1FF" opacity="0.7044172682612162"/><circle cx="848" cy="452" r="2.282768699766437" fill="#FFA800" opacity="0.8536124008786854"/><circle cx="525" cy="306" r="0.5052315067857395" fill="#F5F5F5" opacity="0.5664030923283911"/><circle cx="21" cy="876" r="2.4656199734153796" fill="#FFA800" opacity="0.5270691976825918"/><circle cx="986" cy="373" r="2.307523698340599" fill="#F5F5F5" opacity="0.9605921152203842"/><circle cx="415" cy="758" r="2.22499689359367" fill="#FF3D2E" opacity="0.5960282110066238"/><circle cx="396" cy="26" r="1.5439777487728779" fill="#00E1FF" opacity="0.5596658842219344"/><circle cx="804" cy="693" r="0.8919939223209434" fill="#FF3D2E" opacity="0.6351337879123691"/><circle cx="576" cy="391" r="1.6752180940687118" fill="#FF3D2E" opacity="0.7340810159422275"/><circle cx="635" cy="392" r="1.0740091159110272" fill="#F5F5F5" opacity="0.7379726699636612"/><circle cx="784" cy="866" r="0.9712534382465866" fill="#00E1FF" opacity="0.9104251339559513"/><circle cx="179" cy="715" r="0.982708415598731" fill="#FF3D2E" opacity="0.33662893243512626"/><circle cx="193" cy="756" r="2.674798601875734" fill="#FF3D2E" opacity="0.874499640810622"/>
  </svg>