<svg xmlns="http://www.w3.org/2000/svg" viewBox="0 0 1000 1000"><rect width="1000" height="1000" fill="#050505"/><circle cx="650" cy="500" r="33.333333333333336" fill="#FFA800" opacity="0.7"/><rect x="669.1858428704209" y="585" width="60" height="60" fill="#FF3D2E" opacity="0.7" transform="rotate(15 699.1858428704209 615)"/><polygon points="655,728.467875173176 690,788.467875173176 620,788.467875173176" fill="#FF3D2E" opacity="0.7"/><line x1="450" y1="650" x2="550" y2="650" stroke="#00E1FF" stroke-width="4" opacity="0.8"/><circle cx="385.00000000000006" cy="699.1858428704209" r="33.333333333333336" fill="#FFA800" opacity="0.7"/><rect x="201.53212482682397" y="625" width="60" height="60" fill="#FF3D2E" opacity="0.7" transform="rotate(75 231.53212482682397 655)"/><polygon points="350,460 385,520 315,520" fill="#FFA800" opacity="0.7"/><line x1="250.81415712957914" y1="385" x2="350.81415712957914" y2="385" stroke="#00E1FF" stroke-width="4" opacity="0.8"/><circle cx="344.9999999999999" cy="231.5321248268241" r="33.333333333333336" fill="#FF3D2E" opacity="0.7"/><rect x="470" y="320" width="60" height="60" fill="#FF3D2E" opacity="0.7" transform="rotate(135 500 350)"/><polygon points="615,260.81415712957914 650,320.81415712957914 580,320.81415712957914" fill="#FFA800" opacity="0.7"/><line x1="718.4678751731759" y1="344.9999999999999" x2="818.4678751731759" y2="344.9999999999999" stroke="#FFA800" stroke-width="4" opacity="0.8"/><circle cx="500" cy="500" r="80" fill="#F5F5F5" opacity="0.9"/><circle cx="500" cy="500" r="40" fill="#050505"/></svg>