<svg xmlns="http://www.w3.org/2000/svg" viewBox="0 0 1000 1000"><rect width="1000" height="1000" fill="#050505"/><line x1="615" y1="313" x2="546" y2="171" stroke="#00E1FF" stroke-width="0.5" opacity="0.2106173298076528"/><line x1="615" y1="313" x2="769" y2="261" stroke="#00E1FF" stroke-width="0.5" opacity="0.18728848906884554"/><line x1="615" y1="313" x2="624" y2="410" stroke="#00E1FF" stroke-width="0.5" opacity="0.5129168448816979"/><line x1="615" y1="313" x2="605" y2="212" stroke="#00E1FF" stroke-width="0.5" opacity="0.4925307891112999"/><line x1="615" y1="313" x2="538" y2="485" stroke="#00E1FF" stroke-width="0.5" opacity="0.057755339627758806"/><line x1="615" y1="313" x2="575" y2="140" stroke="#00E1FF" stroke-width="0.5" opacity="0.11217963528650687"/><line x1="765" y1="748" x2="604" y2="722" stroke="#00E1FF" stroke-width="0.5" opacity="0.18457066523211207"/><line x1="765" y1="748" x2="761" y2="855" stroke="#00E1FF" stroke-width="0.5" opacity="0.46462629874077677"/><line x1="765" y1="748" x2="680" y2="818" stroke="#00E1FF" stroke-width="0.5" opacity="0.44943211136136896"/><line x1="765" y1="748" x2="682" y2="844" stroke="#00E1FF" stroke-width="0.5" opacity="0.3654726168241438"/><line x1="765" y1="748" x2="789" y2="596" stroke="#00E1FF" stroke-width="0.5" opacity="0.23058463753314618"/><line x1="765" y1="748" x2="633" y2="676" stroke="#00E1FF" stroke-width="0.5" opacity="0.2482021548315"/><line x1="765" y1="748" x2="840" y2="604" stroke="#00E1FF" stroke-width="0.5" opacity="0.18819645233591142"/><line x1="765" y1="748" x2="718" y2="805" stroke="#00E1FF" stroke-width="0.5" opacity="0.6306086086547225"/><line x1="765" y1="748" x2="661" y2="664" stroke="#00E1FF" stroke-width="0.5" opacity="0.33156900131726386"/><line x1="481" y1="587" x2="465" y2="689" stroke="#00E1FF" stroke-width="0.5" opacity="0.48376362003438766"/><line x1="481" y1="587" x2="604" y2="722" stroke="#00E1FF" stroke-width="0.5" opacity="0.08684612468653452"/><line x1="481" y1="587" x2="388" y2="730" stroke="#00E1FF" stroke-width="0.5" opacity="0.14709320556112349"/><line x1="481" y1="587" x2="442" y2="698" stroke="#00E1FF" stroke-width="0.5" opacity="0.4117398534661727"/><line x1="481" y1="587" x2="637" y2="594" stroke="#00E1FF" stroke-width="0.5" opacity="0.21921513846642737"/><line x1="481" y1="587" x2="516" y2="582" stroke="#00E1FF" stroke-width="0.5" opacity="0.8232233047033631"/><line x1="481" y1="587" x2="633" y2="676" stroke="#00E1FF" stroke-width="0.5" opacity="0.11930425230957309"/><line x1="481" y1="587" x2="538" y2="485" stroke="#00E1FF" stroke-width="0.5" opacity="0.4157697371754866"/><line x1="481" y1="587" x2="426" y2="431" stroke="#00E1FF" stroke-width="0.5" opacity="0.17294196092414404"/><line x1="481" y1="587" x2="348" y2="512" stroke="#00E1FF" stroke-width="0.5" opacity="0.23655386568533854"/><line x1="481" y1="587" x2="661" y2="664" stroke="#00E1FF" stroke-width="0.5" opacity="0.0211103228657481"/><line x1="465" y1="689" x2="604" y2="722" stroke="#00E1FF" stroke-width="0.5" opacity="0.2856821435803246"/><line x1="465" y1="689" x2="388" y2="730" stroke="#00E1FF" stroke-width="0.5" opacity="0.5638234302487122"/><line x1="465" y1="689" x2="442" y2="698" stroke="#00E1FF" stroke-width="0.5" opacity="0.8765091096477153"/><line x1="465" y1="689" x2="350" y2="746" stroke="#00E1FF" stroke-width="0.5" opacity="0.3582445948805728"/><line x1="465" y1="689" x2="637" y2="594" stroke="#00E1FF" stroke-width="0.5" opacity="0.017541349470625245"/><line x1="465" y1="689" x2="516" y2="582" stroke="#00E1FF" stroke-width="0.5" opacity="0.4073365204435151"/><line x1="465" y1="689" x2="633" y2="676" stroke="#00E1FF" stroke-width="0.5" opacity="0.15748887247704557"/><line x1="465" y1="689" x2="661" y2="664" stroke="#00E1FF" stroke-width="0.5" opacity="0.012060224507586481"/><line x1="604" y1="722" x2="680" y2="818" stroke="#00E1FF" stroke-width="0.5" opacity="0.3877908853994413"/><line x1="604" y1="722" x2="442" y2="698" stroke="#00E1FF" stroke-width="0.5" opacity="0.18115935616262913"/><line x1="604" y1="722" x2="637" y2="594" stroke="#00E1FF" stroke-width="0.5" opacity="0.3390726212358879"/><line x1="604" y1="722" x2="516" y2="582" stroke="#00E1FF" stroke-width="0.5" opacity="0.17319893565622446"/><line x1="604" y1="722" x2="682" y2="844" stroke="#00E1FF" stroke-width="0.5" opacity="0.27598342560408184"/><line x1="604" y1="722" x2="633" y2="676" stroke="#00E1FF" stroke-width="0.5" opacity="0.7281084775135496"/><line x1="604" y1="722" x2="718" y2="805" stroke="#00E1FF" stroke-width="0.5" opacity="0.2949290815811506"/><line x1="604" y1="722" x2="661" y2="664" stroke="#00E1FF" stroke-width="0.5" opacity="0.5933982292217606"/><line x1="207" y1="578" x2="163" y2="575" stroke="#00E1FF" stroke-width="0.5" opacity="0.7794892292880006"/><line x1="207" y1="578" x2="160" y2="733" stroke="#00E1FF" stroke-width="0.5" opacity="0.19015433569105267"/><line x1="207" y1="578" x2="200" y2="623" stroke="#00E1FF" stroke-width="0.5" opacity="0.772294049265286"/><line x1="207" y1="578" x2="348" y2="512" stroke="#00E1FF" stroke-width="0.5" opacity="0.22158815528025255"/><line x1="761" y1="855" x2="680" y2="818" stroke="#00E1FF" stroke-width="0.5" opacity="0.5547472627821364"/><line x1="761" y1="855" x2="682" y2="844" stroke="#00E1FF" stroke-width="0.5" opacity="0.6011892679478146"/><line x1="761" y1="855" x2="718" y2="805" stroke="#00E1FF" stroke-width="0.5" opacity="0.6702652581240491"/><line x1="388" y1="730" x2="442" y2="698" stroke="#00E1FF" stroke-width="0.5" opacity="0.6861529034704956"/><line x1="388" y1="730" x2="350" y2="746" stroke="#00E1FF" stroke-width="0.5" opacity="0.793844718719117"/><line x1="388" y1="730" x2="516" y2="582" stroke="#00E1FF" stroke-width="0.5" opacity="0.021634015309199284"/><line x1="163" y1="575" x2="160" y2="733" stroke="#00E1FF" stroke-width="0.5" opacity="0.20985760776933393"/><line x1="163" y1="575" x2="200" y2="623" stroke="#00E1FF" stroke-width="0.5" opacity="0.6969735985099648"/><line x1="163" y1="575" x2="348" y2="512" stroke="#00E1FF" stroke-width="0.5" opacity="0.022835735405761004"/><line x1="258" y1="132" x2="250" y2="282" stroke="#00E1FF" stroke-width="0.5" opacity="0.24893409077498385"/><line x1="258" y1="132" x2="221" y2="305" stroke="#00E1FF" stroke-width="0.5" opacity="0.11543796147471952"/><line x1="258" y1="132" x2="399" y2="194" stroke="#00E1FF" stroke-width="0.5" opacity="0.22985390996253185"/><line x1="258" y1="132" x2="219" y2="232" stroke="#00E1FF" stroke-width="0.5" opacity="0.46332039353073984"/><line x1="160" y1="733" x2="350" y2="746" stroke="#00E1FF" stroke-width="0.5" opacity="0.04777891222678743"/><line x1="160" y1="733" x2="200" y2="623" stroke="#00E1FF" stroke-width="0.5" opacity="0.41476500446401876"/><line x1="250" y1="282" x2="346" y2="326" stroke="#00E1FF" stroke-width="0.5" opacity="0.47198484870223656"/><line x1="250" y1="282" x2="221" y2="305" stroke="#00E1FF" stroke-width="0.5" opacity="0.8149324447667825"/><line x1="250" y1="282" x2="399" y2="194" stroke="#00E1FF" stroke-width="0.5" opacity="0.13476881702056076"/><line x1="250" y1="282" x2="219" y2="232" stroke="#00E1FF" stroke-width="0.5" opacity="0.7058486783983454"/><line x1="680" y1="818" x2="682" y2="844" stroke="#00E1FF" stroke-width="0.5" opacity="0.869615951895947"/><line x1="680" y1="818" x2="633" y2="676" stroke="#00E1FF" stroke-width="0.5" opacity="0.2521196619779338"/><line x1="680" y1="818" x2="718" y2="805" stroke="#00E1FF" stroke-width="0.5" opacity="0.799189143719768"/><line x1="680" y1="818" x2="661" y2="664" stroke="#00E1FF" stroke-width="0.5" opacity="0.22416174366044572"/><line x1="442" y1="698" x2="350" y2="746" stroke="#00E1FF" stroke-width="0.5" opacity="0.481155129157086"/><line x1="442" y1="698" x2="516" y2="582" stroke="#00E1FF" stroke-width="0.5" opacity="0.31203197748732536"/><line x1="442" y1="698" x2="633" y2="676" stroke="#00E1FF" stroke-width="0.5" opacity="0.03868579538217587"/><line x1="350" y1="746" x2="200" y2="623" stroke="#00E1FF" stroke-width="0.5" opacity="0.03009021038036752"/><line x1="801" y1="508" x2="817" y2="511" stroke="#00E1FF" stroke-width="0.5" opacity="0.9186058970195015"/><line x1="801" y1="508" x2="637" y2="594" stroke="#00E1FF" stroke-width="0.5" opacity="0.07409503727434308"/><line x1="801" y1="508" x2="789" y2="596" stroke="#00E1FF" stroke-width="0.5" opacity="0.5559279337765096"/><line x1="801" y1="508" x2="840" y2="604" stroke="#00E1FF" stroke-width="0.5" opacity="0.48190251882488366"/><line x1="817" y1="511" x2="637" y2="594" stroke="#00E1FF" stroke-width="0.5" opacity="0.008927348778102862"/><line x1="817" y1="511" x2="789" y2="596" stroke="#00E1FF" stroke-width="0.5" opacity="0.5525349175633923"/><line x1="817" y1="511" x2="840" y2="604" stroke="#00E1FF" stroke-width="0.5" opacity="0.5209906055201005"/><line x1="346" y1="326" x2="221" y2="305" stroke="#00E1FF" stroke-width="0.5" opacity="0.3662413708674255"/><line x1="346" y1="326" x2="426" y2="431" stroke="#00E1FF" stroke-width="0.5" opacity="0.3399810608777958"/><line x1="346" y1="326" x2="399" y2="194" stroke="#00E1FF" stroke-width="0.5" opacity="0.2887862487268684"/><line x1="346" y1="326" x2="348" y2="512" stroke="#00E1FF" stroke-width="0.5" opacity="0.06994623811308642"/><line x1="346" y1="326" x2="219" y2="232" stroke="#00E1FF" stroke-width="0.5" opacity="0.20998417737364283"/><line x1="221" y1="305" x2="219" y2="232" stroke="#00E1FF" stroke-width="0.5" opacity="0.6348630393948047"/><line x1="200" y1="623" x2="348" y2="512" stroke="#00E1FF" stroke-width="0.5" opacity="0.07499999999999996"/><line x1="896" y1="310" x2="769" y2="261" stroke="#00E1FF" stroke-width="0.5" opacity="0.3193752869605747"/><line x1="637" y1="594" x2="516" y2="582" stroke="#00E1FF" stroke-width="0.5" opacity="0.39203207321438416"/><line x1="637" y1="594" x2="789" y2="596" stroke="#00E1FF" stroke-width="0.5" opacity="0.23993421337360543"/><line x1="637" y1="594" x2="633" y2="676" stroke="#00E1FF" stroke-width="0.5" opacity="0.5895124849645242"/><line x1="637" y1="594" x2="624" y2="410" stroke="#00E1FF" stroke-width="0.5" opacity="0.07770666271516413"/><line x1="637" y1="594" x2="538" y2="485" stroke="#00E1FF" stroke-width="0.5" opacity="0.2637595501468287"/><line x1="637" y1="594" x2="661" y2="664" stroke="#00E1FF" stroke-width="0.5" opacity="0.63"/><line x1="546" y1="171" x2="605" y2="212" stroke="#00E1FF" stroke-width="0.5" opacity="0.6407647010662789"/><line x1="546" y1="171" x2="399" y2="194" stroke="#00E1FF" stroke-width="0.5" opacity="0.2560577979439532"/><line x1="546" y1="171" x2="575" y2="140" stroke="#00E1FF" stroke-width="0.5" opacity="0.7877501472320888"/><line x1="516" y1="582" x2="633" y2="676" stroke="#00E1FF" stroke-width="0.5" opacity="0.24958344900981833"/><line x1="516" y1="582" x2="538" y2="485" stroke="#00E1FF" stroke-width="0.5" opacity="0.5026821941655417"/><line x1="516" y1="582" x2="426" y2="431" stroke="#00E1FF" stroke-width="0.5" opacity="0.12106598654961587"/><line x1="516" y1="582" x2="348" y2="512" stroke="#00E1FF" stroke-width="0.5" opacity="0.08999999999999997"/><line x1="516" y1="582" x2="661" y2="664" stroke="#00E1FF" stroke-width="0.5" opacity="0.1670984451929507"/><line x1="682" y1="844" x2="633" y2="676" stroke="#00E1FF" stroke-width="0.5" opacity="0.125"/><line x1="682" y1="844" x2="718" y2="805" stroke="#00E1FF" stroke-width="0.5" opacity="0.734622909805688"/><line x1="682" y1="844" x2="661" y2="664" stroke="#00E1FF" stroke-width="0.5" opacity="0.09389570136766268"/><line x1="789" y1="596" x2="633" y2="676" stroke="#00E1FF" stroke-width="0.5" opacity="0.12341571996755507"/><line x1="789" y1="596" x2="840" y2="604" stroke="#00E1FF" stroke-width="0.5" opacity="0.7418818100171938"/><line x1="789" y1="596" x2="661" y2="664" stroke="#00E1FF" stroke-width="0.5" opacity="0.2752931627202625"/><line x1="633" y1="676" x2="718" y2="805" stroke="#00E1FF" stroke-width="0.5" opacity="0.22756877328787384"/><line x1="633" y1="676" x2="661" y2="664" stroke="#00E1FF" stroke-width="0.5" opacity="0.8476845378827218"/><line x1="769" y1="261" x2="605" y2="212" stroke="#00E1FF" stroke-width="0.5" opacity="0.1441816781582671"/><line x1="769" y1="261" x2="771" y2="106" stroke="#00E1FF" stroke-width="0.5" opacity="0.22493548655611906"/><line x1="624" y1="410" x2="605" y2="212" stroke="#00E1FF" stroke-width="0.5" opacity="0.00545236413734318"/><line x1="624" y1="410" x2="538" y2="485" stroke="#00E1FF" stroke-width="0.5" opacity="0.4294520177934199"/><line x1="624" y1="410" x2="426" y2="431" stroke="#00E1FF" stroke-width="0.5" opacity="0.0044473896372930755"/><line x1="605" y1="212" x2="771" y2="106" stroke="#00E1FF" stroke-width="0.5" opacity="0.015215759671185825"/><line x1="605" y1="212" x2="575" y2="140" stroke="#00E1FF" stroke-width="0.5" opacity="0.61"/><line x1="840" y1="604" x2="661" y2="664" stroke="#00E1FF" stroke-width="0.5" opacity="0.05605879420379134"/><line x1="538" y1="485" x2="426" y2="431" stroke="#00E1FF" stroke-width="0.5" opacity="0.37830875830521793"/><line x1="538" y1="485" x2="348" y2="512" stroke="#00E1FF" stroke-width="0.5" opacity="0.040455837389440474"/><line x1="426" y1="431" x2="348" y2="512" stroke="#00E1FF" stroke-width="0.5" opacity="0.4377500555802607"/><line x1="771" y1="106" x2="575" y2="140" stroke="#00E1FF" stroke-width="0.5" opacity="0.005364388331083325"/><line x1="399" y1="194" x2="219" y2="232" stroke="#00E1FF" stroke-width="0.5" opacity="0.08016305792819989"/><line x1="399" y1="194" x2="575" y2="140" stroke="#00E1FF" stroke-width="0.5" opacity="0.07951099952253626"/><line x1="718" y1="805" x2="661" y2="664" stroke="#00E1FF" stroke-width="0.5" opacity="0.23957248866180547"/><circle cx="615" cy="313" r="4" fill="#00E1FF"/><circle cx="765" cy="748" r="4" fill="#00E1FF"/><circle cx="481" cy="587" r="4" fill="#00E1FF"/><circle cx="465" cy="689" r="4" fill="#00E1FF"/><circle cx="604" cy="722" r="4" fill="#00E1FF"/><circle cx="207" cy="578" r="4" fill="#00E1FF"/><circle cx="761" cy="855" r="4" fill="#00E1FF"/><circle cx="388" cy="730" r="4" fill="#00E1FF"/><circle cx="163" cy="575" r="4" fill="#00E1FF"/><circle cx="258" cy="132" r="4" fill="#00E1FF"/><circle cx="160" cy="733" r="4" fill="#00E1FF"/><circle cx="250" cy="282" r="4" fill="#00E1FF"/><circle cx="680" cy="818" r="4" fill="#00E1FF"/><circle cx="442" cy="698" r="4" fill="#00E1FF"/><circle cx="350" cy="746" r="4" fill="#00E1FF"/><circle cx="801" cy="508" r="4" fill="#00E1FF"/><circle cx="817" cy="511" r="4" fill="#00E1FF"/><circle cx="346" cy="326" r="4" fill="#00E1FF"/><circle cx="221" cy="305" r="4" fill="#00E1FF"/><circle cx="200" cy="623" r="4" fill="#00E1FF"/><circle cx="896" cy="310" r="4" fill="#00E1FF"/><circle cx="637" cy="594" r="4" fill="#00E1FF"/><circle cx="546" cy="171" r="4" fill="#00E1FF"/><circle cx="516" cy="582" r="4" fill="#00E1FF"/><circle cx="682" cy="844" r="4" fill="#00E1FF"/><circle cx="789" cy="596" r="4" fill="#00E1FF"/><circle cx="633" cy="676" r="4" fill="#00E1FF"/><circle cx="769" cy="261" r="4" fill="#00E1FF"/><circle cx="624" cy="410" r="4" fill="#00E1FF"/><circle cx="605" cy="212" r="4" fill="#00E1FF"/><circle cx="840" cy="604" r="4" fill="#00E1FF"/><circle cx="538" cy="485" r="4" fill="#00E1FF"/><circle cx="426" cy="431" r="4" fill="#00E1FF"/><circle cx="771" cy="106" r="4" fill="#00E1FF"/><circle cx="399" cy="194" r="4" fill="#00E1FF"/><circle cx="348" cy="512" r="4" fill="#00E1FF"/><circle cx="718" cy="805" r="4" fill="#00E1FF"/><circle cx="661" cy="664" r="4" fill="#00E1FF"/><circle cx="219" cy="232" r="4" fill="#00E1FF"/><circle cx="575" cy="140" r="4" fill="#00E1FF"/><circle cx="500" cy="500" r="60" fill="#FF3D2E"/><text x="500" y="520" text-anchor="middle" fill="#F5F5F5" font-size="60" font-weight="900" font-family="Arial">🧠</text></svg>