<svg xmlns="http://www.w3.org/2000/svg" viewBox="0 0 1000 1000"><rect width="1000" height="1000" fill="#050505"/><path d="M 0 500 L 0 592.3544376583544 L 20 489.4467696553898 L 40 391.8555922385835 L 60 345.20249759120526 L 80 355.9322475325794 L 100 391.1418077820958 L 120 412.46846352193853 L 140 412.306202411663 L 160 418.90385588852195 L 180 465.9569370477185 L 200 555.3506959936732 L 220 648.2993263381175 L 240 694.1531715706457 L 260 671.4705437734355 L 280 604.4604918325197 L 300 540.1954729881285 L 320 507.62811100860915 L 340 495.7295210688809 L 360 470.0976620287601 L 380 411.7448481563616 L 400 341.2732016060538 L 420 305.15058031930914 L 440 335.881113416067 L 460 422.23264963993836 L 480 516.876247079307 L 500 574.8382578662935 L 520 588.211505361646 L 540 586.2601551057326 L 560 601.953049852949 L 580 636.7304952443602 L 600 656.6747968329064 L 620 624.0008633614497 L 640 534.8661189311206 L 660 428.25270492629005 L 680 356.9111706183211 L 700 346.0088935604721 L 720 376.3733221370027 L 740 406.72854619998276 L 760 413.7532700070734 L 780 412.798092704737 L 800 440.3290612589179 L 820 514.7824142438266 L 840 612.707528574036 L 860 683.2225753440532 L 880 688.6141035117981 L 900 634.7293151770778 L 920 563.894437492473 L 940 517.1393058498553 L 960 500.2788601548753 L 980 484.435480391662 L 1000 439.5954112723856" fill="none" stroke="#FF3D2E" stroke-width="6"/><path d="M 0 500 L 0 592.3544376583544 L 20 489.4467696553898 L 40 391.8555922385835 L 60 345.20249759120526 L 80 355.9322475325794 L 100 391.1418077820958 L 120 412.46846352193853 L 140 412.306202411663 L 160 418.90385588852195 L 180 465.9569370477185 L 200 555.3506959936732 L 220 648.2993263381175 L 240 694.1531715706457 L 260 671.4705437734355 L 280 604.4604918325197 L 300 540.1954729881285 L 320 507.62811100860915 L 340 495.7295210688809 L 360 470.0976620287601 L 380 411.7448481563616 L 400 341.2732016060538 L 420 305.15058031930914 L 440 335.881113416067 L 460 422.23264963993836 L 480 516.876247079307 L 500 574.8382578662935 L 520 588.211505361646 L 540 586.2601551057326 L 560 601.953049852949 L 580 636.7304952443602 L 600 656.6747968329064 L 620 624.0008633614497 L 640 534.8661189311206 L 660 428.25270492629005 L 680 356.9111706183211 L 700 346.0088935604721 L 720 376.3733221370027 L 740 406.72854619998276 L 760 413.7532700070734 L 780 412.798092704737 L 800 440.3290612589179 L 820 514.7824142438266 L 840 612.707528574036 L 860 683.2225753440532 L 880 688.6141035117981 L 900 634.7293151770778 L 920 563.894437492473 L 940 517.1393058498553 L 960 500.2788601548753 L 980 484.435480391662 L 1000 439.5954112723856 L 1000 1000 L 0 1000 Z" fill="#FF3D2E" opacity="0.2"/><circle cx="500" cy="500" r="20" fill="#00E1FF"/></svg>