<svg xmlns="http://www.w3.org/2000/svg" viewBox="0 0 1000 1000">
    <rect width="1000" height="1000" fill="#050505"/>
    <circle cx="145" cy="305" r="1.6642065974018063" fill="#FF3D2E" opacity="0.48760985334574913"/><circle cx="168" cy="234" r="2.26537622214299" fill="#F5F5F5" opacity="0.3141278489780076"/><circle cx="429" cy="312" r="2.781543263525272" fill="#F5F5F5" opacity="0.3593418984627061"/><circle cx="444" cy="26" r="2.3643849454004835" fill="#FF3D2E" opacity="0.5807856557813984"/><circle cx="632" cy="275" r="2.7200319219367755" fill="#FFA800" opacity="0.8704534328689442"/><circle cx="946" cy="651" r="1.8916268502911322" fill="#00E1FF" opacity="0.5788855832098502"/><circle cx="480" cy="743" r="2.626127515242229" fill="#FFA800" opacity="0.7555516555916805"/><circle cx="128" cy="834" r="0.9696094306747223" fill="#F5F5F5" opacity="0.6598002315258236"/><circle cx="537" cy="7" r="2.4687334471347606" fill="#F5F5F5" opacity="0.5700804730960729"/><circle cx="143" cy="419" r="1.850810460242566" fill="#F5F5F5" opacity="0.6108139532371706"/><circle cx="467" cy="808" r="0.9645540086969574" fill="#00E1FF" opacity="0.46041125696451346"/><circle cx="141" cy="954" r="1.528895295710472" fill="#00E1FF" opacity="0.6736573732068005"/><circle cx="172" cy="132" r="2.204383980560153" fill="#00E1FF" opacity="0.5818033684067123"/><circle cx="422" cy="493" r="2.791054121344466" fill="#F5F5F5" opacity="0.7613905304319322"/><circle cx="63" cy="501" r="0.6570735875948448" fill="#00E1FF" opacity="0.4887347013441212"/><circle cx="877" cy="631" r="1.3832529506790139" fill="#FF3D2E" opacity="0.3549057442499408"/><circle cx="895" cy="517" r="1.8041974896038249" fill="#FFA800" opacity="0.30906812731161243"/><circle cx="71" cy="24" r="0.5880098685272107" fill="#F5F5F5" opacity="0.3823836431299882"/><circle cx="802" cy="35" r="1.1776531054723534" fill="#FFA800" opacity="0.9126751470167458"/><circle cx="509" cy="415" r="1.6063660977329703" fill="#00E1FF" opacity="0.5820508978963179"/><circle cx="707" cy="905" r="1.5673028972095349" fill="#00E1FF" opacity="0.7610707426583341"/><circle cx="41" cy="810" r="1.0108591744641788" fill="#00E1FF" opacity="0.3434624930037976"/><circle cx="415" cy="430" r="1.1594423295081446" fill="#FF3D2E" opacity="0.40075583223888844"/><circle cx="924" cy="93" r="2.0779079060482344" fill="#F5F5F5" opacity="0.49629730720837106"/><circle cx="74" cy="402" r="1.3721048168481622" fill="#F5F5F5" opacity="0.9412913247018679"/><circle cx="127" cy="372" r="2.282358821305952" fill="#FF3D2E" opacity="0.5169377004200224"/><circle cx="635" cy="859" r="0.9056329548089782" fill="#F5F5F5" opacity="0.35343337111082457"/><circle cx="960" cy="520" r="1.6749142511902844" fill="#FF3D2E" opacity="0.40520972373502245"/><circle cx="835" cy="248" r="1.5741232425705516" fill="#FFA800" opacity="0.9265658948948057"/><circle cx="78" cy="889" r="1.898322801049704" fill="#FFA800" opacity="0.8820884252737304"/><circle cx="380" cy="127" r="1.9203330324195862" fill="#FFA800" opacity="0.8964716953165301"/><circle cx="564" cy="250" r="1.6873041572438474" fill="#FFA800" opacity="0.9013694687645153"/><circle cx="652" cy="878" r="1.1031899086057313" fill="#FFA800" opacity="0.3933118378183834"/><circle cx="701" cy="93" r="1.723420154931825" fill="#F5F5F5" opacity="0.8598180910521058"/><circle cx="800" cy="986" r="1.4458447441185802" fill="#FF3D2E" opacity="0.9774207616160635"/><circle cx="619" cy="751" r="2.884981712062128" fill="#00E1FF" opacity="0.6504676199814545"/><circle cx="955" cy="978" r="0.8499731947963203" fill="#F5F5F5" opacity="0.8225681471310666"/><circle cx="503" cy="333" r="0.5151240315061385" fill="#F5F5F5" opacity="0.9274468677456003"/><circle cx="769" cy="60" r="1.4582581095961356" fill="#FF3D2E" opacity="0.658869441819143"/><circle cx="164" cy="341" r="2.2551388754989325" fill="#FFA800" opacity="0.38201287130867884"/><circle cx="745" cy="514" r="1.8828589591432938" fill="#FFA800" opacity="0.9713902951892441"/><circle cx="498" cy="436" r="1.6917541665303704" fill="#00E1FF" opacity="0.6658249116556487"/><circle cx="56" cy="941" r="1.1392031139838572" fill="#FFA800" opacity="0.7124441497445515"/><circle cx="615" cy="800" r="0.5860379188597304" fill="#00E1FF" opacity="0.8690467765288084"/><circle cx="849" cy="700" r="2.676375301662227" fill="#FF3D2E" opacity="0.6308943144646588"/><circle cx="387" cy="499" r="2.4930961178411803" fill="#00E1FF" opacity="0.4698765910404991"/><circle cx="693" cy="999" r="0.5381062338238081" fill="#FF3D2E" opacity="0.7260077175258268"/><circle cx="84" cy="130" r="2.055651626028141" fill="#F5F5F5" opacity="0.9820578099604633"/><circle cx="900" cy="474" r="0.7760641316682183" fill="#FF3D2E" opacity="0.5521050269393049"/><circle cx="870" cy="549" r="2.7856166125787962" fill="#F5F5F5" opacity="0.9229020944480286"/><circle cx="615" cy="117" r="2.63865409754641" fill="#FF3D2E" opacity="0.8197004349067594"/><circle cx="702" cy="374" r="2.240131487840987" fill="#FFA800" opacity="0.8048834934437463"/><circle cx="584" cy="145" r="1.6495512040175133" fill="#FF3D2E" opacity="0.6862916224283693"/><circle cx="453" cy="722" r="1.5193394549781964" fill="#FF3D2E" opacity="0.5352307820301239"/><circle cx="839" cy="60" r="1.5182811880078435" fill="#F5F5F5" opacity="0.8505346475219495"/><circle cx="937" cy="302" r="2.576548758359704" fill="#F5F5F5" opacity="0.337451631977284"/><circle cx="148" cy="921" r="1.2660107319334926" fill="#FF3D2E" opacity="0.4933211885975663"/><circle cx="721" cy="412" r="0.5801205186174053" fill="#FF3D2E" opacity="0.997916908594366"/><circle cx="194" cy="925" r="1.5793360179905136" fill="#FF3D2E" opacity="0.48226069041550335"/><circle cx="671" cy="777" r="2.077026187923152" fill="#F5F5F5" opacity="0.8568160382780321"/><circle cx="371" cy="269" r="2.57875186444837" fill="#FFA800" opacity="0.4232239248277685"/><circle cx="904" cy="581" r="1.9853533861185735" fill="#FF3D2E" opacity="0.5486604692796451"/><circle cx="389" cy="208" r="1.4842330801065073" fill="#FFA800" opacity="0.7756034832632834"/><circle cx="600" cy="916" r="1.1373879900662671" fill="#FF3D2E" opacity="0.7233749998685826"/><circle cx="796" cy="734" r="1.7374931682603347" fill="#F5F5F5" opacity="0.9259069583556176"/><circle cx="25" cy="405" r="2.1910680531664495" fill="#FF3D2E" opacity="0.3161109087591534"/><circle cx="852" cy="486" r="1.8657203850754769" fill="#FFA800" opacity="0.8620643560420225"/><circle cx="997" cy="55" r="2.03998417403416" fill="#00E1FF" opacity="0.9713764215986325"/><circle cx="189" cy="226" r="2.4747328020462573" fill="#F5F5F5" opacity="0.5418227361649262"/><circle cx="333" cy="197" r="2.4446124519266883" fill="#FF3D2E" opacity="0.7989171546801689"/><circle cx="599" cy="334" r="1.1933923202956205" fill="#FFA800" opacity="0.46937279978271773"/><circle cx="206" cy="963" r="2.417786307654347" fill="#FFA800" opacity="0.3134832532487924"/><circle cx="554" cy="188" r="2.193353672621289" fill="#FF3D2E" opacity="0.5176113678029339"/><circle cx="921" cy="707" r="2.8119612623878085" fill="#F5F5F5" opacity="0.46497199179104387"/><circle cx="370" cy="458" r="1.7692700816506486" fill="#F5F5F5" opacity="0.42546469000031706"/><circle cx="408" cy="679" r="1.1911675674808615" fill="#F5F5F5" opacity="0.4362659350689525"/><circle cx="616" cy="174" r="1.2428014247579777" fill="#00E1FF" opacity="0.3079790523161397"/><circle cx="703" cy="591" r="0.5032565405750151" fill="#FF3D2E" opacity="0.6652993031980519"/><circle cx="774" cy="922" r="0.9030185973152189" fill="#FFA800" opacity="0.4235187972602757"/><circle cx="345" cy="658" r="2.88822043450806" fill="#FF3D2E" opacity="0.3311444819913218"/><circle cx="250" cy="747" r="1.9991921947335012" fill="#FF3D2E" opacity="0.8081851307497174"/><circle cx="817" cy="251" r="0.768520576026553" fill="#FF3D2E" opacity="0.5586521390647095"/><circle cx="594" cy="750" r="0.5279111724551345" fill="#F5F5F5" opacity="0.9276311953303951"/><circle cx="916" cy="627" r="1.9695053878471875" fill="#FF3D2E" opacity="0.9768397953632582"/><circle cx="439" cy="925" r="0.7440930954796006" fill="#00E1FF" opacity="0.518629333772042"/><circle cx="491" cy="589" r="2.365703263811285" fill="#FF3D2E" opacity="0.8078536793771656"/><circle cx="166" cy="674" r="1.3919795944465325" fill="#F5F5F5" opacity="0.7726421693334184"/><circle cx="147" cy="755" r="0.7406305031558259" fill="#FFA800" opacity="0.34667892736246936"/><circle cx="630" cy="970" r="2.694075502308988" fill="#F5F5F5" opacity="0.9053146627251201"/><circle cx="193" cy="966" r="1.0048975225243684" fill="#00E1FF" opacity="0.46783441360653444"/><circle cx="872" cy="637" r="2.1363241847971426" fill="#FFA800" opacity="0.6309513899217687"/><circle cx="10" cy="117" r="1.6275885811348785" fill="#FF3D2E" opacity="0.7185972743533424"/><circle cx="671" cy="553" r="1.3195657910353449" fill="#FF3D2E" opacity="0.9967519795978363"/><circle cx="672" cy="297" r="2.4156426279397816" fill="#F5F5F5" opacity="0.7734869316311404"/><circle cx="220" cy="132" r="0.6847487820328436" fill="#00E1FF" opacity="0.9600188079935914"/><circle cx="462" cy="645" r="1.6788724873714584" fill="#FF3D2E" opacity="0.368133769994579"/><circle cx="163" cy="708" r="1.3583476527468026" fill="#F5F5F5" opacity="0.8095829369489222"/><circle cx="638" cy="157" r="2.373608590728644" fill="#F5F5F5" opacity="0.4193014159008779"/><circle cx="739" cy="468" r="0.7366855213324798" fill="#00E1FF" opacity="0.3214202685348399"/><circle cx="566" cy="415" r="2.5180687935023673" fill="#FF3D2E" opacity="0.6066707885260016"/><circle cx="614" cy="992" r="1.5997149534579247" fill="#FFA800" opacity="0.7029174071256215"/><circle cx="285" cy="961" r="2.565332360133605" fill="#FFA800" opacity="0.3921311709823086"/><circle cx="26" cy="548" r="0.7299867911606029" fill="#FF3D2E" opacity="0.4389806665658853"/><circle cx="976" cy="97" r="1.3091618681099177" fill="#FFA800" opacity="0.5054637550088392"/><circle cx="870" cy="536" r="2.9296726837008547" fill="#F5F5F5" opacity="0.6569114316723141"/><circle cx="97" cy="844" r="2.752943263807956" fill="#00E1FF" opacity="0.5248213375426368"/><circle cx="257" cy="162" r="2.931951932028617" fill="#F5F5F5" opacity="0.7008958274984072"/><circle cx="578" cy="996" r="2.5268135200012782" fill="#F5F5F5" opacity="0.31060205044688893"/><circle cx="610" cy="203" r="0.7401988778152481" fill="#F5F5F5" opacity="0.5606143347033794"/><circle cx="152" cy="315" r="2.7461356409768647" fill="#00E1FF" opacity="0.6976312506203434"/><circle cx="167" cy="169" r="1.0755764938233847" fill="#FFA800" opacity="0.5340076159780306"/><circle cx="973" cy="379" r="2.342147154465445" fill="#FFA800" opacity="0.531776134373023"/><circle cx="31" cy="563" r="1.9478874248619178" fill="#FFA800" opacity="0.4232256953036825"/><circle cx="3" cy="978" r="1.2961203669980859" fill="#FF3D2E" opacity="0.47301174589114364"/><circle cx="267" cy="732" r="0.7401792717723894" fill="#FFA800" opacity="0.3146790975589241"/><circle cx="266" cy="361" r="2.852287443423713" fill="#FFA800" opacity="0.7089255064159776"/><circle cx="14" cy="571" r="2.656358451193221" fill="#F5F5F5" opacity="0.5366312836294198"/><circle cx="167" cy="676" r="1.3119049164883474" fill="#00E1FF" opacity="0.6043967128581194"/><circle cx="306" cy="317" r="1.9565159498411828" fill="#00E1FF" opacity="0.8331728309157898"/><circle cx="20" cy="147" r="0.7273595982473781" fill="#F5F5F5" opacity="0.6733264188808981"/><circle cx="730" cy="30" r="2.1426286348003902" fill="#FFA800" opacity="0.711141037742113"/><circle cx="490" cy="250" r="2.6664335955827445" fill="#00E1FF" opacity="0.5903743149565946"/><circle cx="144" cy="129" r="1.2722238577317437" fill="#F5F5F5" opacity="0.9131998878697443"/><circle cx="852" cy="509" r="1.7238166173200478" fill="#FFA800" opacity="0.7322420094101559"/><circle cx="990" cy="94" r="1.466552355476783" fill="#F5F5F5" opacity="0.41510581999963736"/><circle cx="300" cy="226" r="0.8407515118617233" fill="#FFA800" opacity="0.8647401053073249"/><circle cx="474" cy="785" r="1.121248054344616" fill="#FFA800" opacity="0.8943532782442418"/><circle cx="715" cy="13" r="1.6517559757099467" fill="#00E1FF" opacity="0.8341457391324536"/><circle cx="389" cy="79" r="1.7105721376238887" fill="#FFA800" opacity="0.49848453727369424"/><circle cx="605" cy="995" r="0.7359525834805826" fill="#FF3D2E" opacity="0.9012655124332252"/><circle cx="484" cy="391" r="1.9613597212258682" fill="#00E1FF" opacity="0.7437755565141172"/><circle cx="208" cy="685" r="1.9095857863980643" fill="#F5F5F5" opacity="0.7528876493254342"/><circle cx="178" cy="791" r="0.6265248418647857" fill="#FF3D2E" opacity="0.40741201096350477"/><circle cx="900" cy="991" r="2.115064365571637" fill="#FF3D2E" opacity="0.5977282691263031"/><circle cx="891" cy="267" r="1.1248160074028037" fill="#FF3D2E" opacity="0.37329924164320843"/><circle cx="363" cy="999" r="1.1328951964903102" fill="#FF3D2E" opacity="0.8675482487428718"/><circle cx="808" cy="200" r="1.9991311404848147" fill="#F5F5F5" opacity="0.39634928814571185"/><circle cx="375" cy="254" r="1.4829727624781466" fill="#FFA800" opacity="0.4132114559673131"/><circle cx="711" cy="556" r="2.6327817094387735" fill="#FFA800" opacity="0.6591192887842654"/><circle cx="706" cy="966" r="1.9086940362215365" fill="#FFA800" opacity="0.9282809972338604"/><circle cx="6" cy="758" r="2.7020972180402243" fill="#FF3D2E" opacity="0.9270633438547027"/><circle cx="52" cy="25" r="1.0771479572063813" fill="#FFA800" opacity="0.9106515483725253"/><circle cx="11" cy="103" r="1.25673679462605" fill="#FF3D2E" opacity="0.6962541321579758"/><circle cx="891" cy="108" r="0.9133912427109437" fill="#00E1FF" opacity="0.6426282337169776"/><circle cx="496" cy="293" r="2.47696422608027" fill="#00E1FF" opacity="0.8004739876285731"/><circle cx="365" cy="929" r="2.189914202290648" fill="#FF3D2E" opacity="0.4979210713819855"/><circle cx="585" cy="78" r="1.6777025384740591" fill="#FF3D2E" opacity="0.8122367579600798"/><circle cx="50" cy="810" r="2.492667931592116" fill="#F5F5F5" opacity="0.34588615405763257"/><circle cx="592" cy="475" r="1.7347288620648795" fill="#FFA800" opacity="0.41713378735727685"/><circle cx="385" cy="953" r="0.9627572672576186" fill="#F5F5F5" opacity="0.6432577343206534"/><circle cx="674" cy="2" r="2.0835282373752966" fill="#00E1FF" opacity="0.5686787405481819"/><circle cx="145" cy="383" r="1.8257458072297705" fill="#F5F5F5" opacity="0.9877617097245817"/><circle cx="993" cy="904" r="2.216150853378584" fill="#00E1FF" opacity="0.8768333635298522"/><circle cx="647" cy="618" r="1.3219174851911382" fill="#FFA800" opacity="0.4694660948366237"/><circle cx="676" cy="110" r="0.8902168838503633" fill="#F5F5F5" opacity="0.45151072413177373"/><circle cx="879" cy="751" r="0.5331753888414449" fill="#00E1FF" opacity="0.4994333000392875"/><circle cx="228" cy="175" r="1.9597593291818611" fill="#00E1FF" opacity="0.5929434942719516"/><circle cx="97" cy="386" r="0.8130221690023194" fill="#FF3D2E" opacity="0.7350983739444402"/><circle cx="614" cy="746" r="2.0609063925258813" fill="#FF3D2E" opacity="0.45866365693048194"/><circle cx="804" cy="253" r="1.4707173501336175" fill="#FF3D2E" opacity="0.9281305900776278"/><circle cx="628" cy="323" r="2.379619716634011" fill="#FFA800" opacity="0.5718878981743865"/><circle cx="486" cy="583" r="2.7528997246306863" fill="#FFA800" opacity="0.9857428671701427"/><circle cx="575" cy="780" r="1.3767590081020948" fill="#FFA800" opacity="0.549782524491749"/><circle cx="398" cy="237" r="0.7387852254007533" fill="#FF3D2E" opacity="0.303494919800593"/><circle cx="824" cy="194" r="2.907063270627349" fill="#FFA800" opacity="0.9038105827727729"/><circle cx="293" cy="640" r="2.2811144500492873" fill="#FFA800" opacity="0.6113385330601433"/><circle cx="615" cy="610" r="0.7070781832598356" fill="#FFA800" opacity="0.8904749306452662"/><circle cx="434" cy="477" r="2.193755006878235" fill="#00E1FF" opacity="0.5301515670825798"/><circle cx="51" cy="937" r="0.8257506672182142" fill="#FF3D2E" opacity="0.45812754527543353"/><circle cx="801" cy="133" r="2.0488882199474467" fill="#F5F5F5" opacity="0.4098594485667966"/><circle cx="816" cy="297" r="2.0366354589714675" fill="#00E1FF" opacity="0.8059271112288318"/><circle cx="410" cy="106" r="2.832307580910772" fill="#F5F5F5" opacity="0.5264629047107086"/><circle cx="207" cy="597" r="0.5934817319539749" fill="#F5F5F5" opacity="0.5721835265795276"/><circle cx="119" cy="585" r="2.6277366050905693" fill="#FFA800" opacity="0.7509684454142322"/><circle cx="951" cy="365" r="1.1237961560330914" fill="#00E1FF" opacity="0.6028125807148143"/><circle cx="426" cy="472" r="2.306526683602211" fill="#FF3D2E" opacity="0.4916661855861747"/><circle cx="599" cy="867" r="1.1688979304638942" fill="#FFA800" opacity="0.42417784190776847"/><circle cx="847" cy="141" r="0.8272804213989949" fill="#FF3D2E" opacity="0.37858649827565855"/><circle cx="431" cy="865" r="2.1533255886721716" fill="#FFA800" opacity="0.7177131954287879"/><circle cx="996" cy="397" r="2.6275071091201516" fill="#FFA800" opacity="0.8992811881100105"/><circle cx="631" cy="195" r="0.6163141714273463" fill="#FF3D2E" opacity="0.7250751204234542"/><circle cx="726" cy="926" r="0.7524981821303124" fill="#00E1FF" opacity="0.8326287131765076"/><circle cx="817" cy="205" r="0.5215729786113894" fill="#FFA800" opacity="0.5039175782720936"/><circle cx="75" cy="839" r="1.6614452901342491" fill="#F5F5F5" opacity="0.41201305232682933"/><circle cx="760" cy="917" r="2.3904280404019462" fill="#FFA800" opacity="0.9371513027164013"/><circle cx="194" cy="483" r="2.8581319245129624" fill="#F5F5F5" opacity="0.7412718279368019"/><circle cx="749" cy="170" r="0.5086407603036587" fill="#F5F5F5" opacity="0.42197107463742806"/><circle cx="760" cy="378" r="2.9580846280812976" fill="#00E1FF" opacity="0.4708868783071262"/><circle cx="225" cy="149" r="0.5135428073827765" fill="#FFA800" opacity="0.6738255612784956"/><circle cx="679" cy="810" r="0.8902075503844127" fill="#FF3D2E" opacity="0.726510073806603"/><circle cx="8" cy="230" r="1.308224801921415" fill="#00E1FF" opacity="0.6729913039041486"/><circle cx="341" cy="955" r="0.6862781317460377" fill="#FF3D2E" opacity="0.3178267728477446"/><circle cx="595" cy="487" r="1.767948566251571" fill="#F5F5F5" opacity="0.5819740970644163"/><circle cx="475" cy="725" r="2.5997634800621308" fill="#FFA800" opacity="0.709041744621528"/><circle cx="784" cy="958" r="0.8588950929233109" fill="#FFA800" opacity="0.6702541331426719"/><circle cx="497" cy="237" r="1.607367634163503" fill="#FFA800" opacity="0.6768440882945951"/><circle cx="782" cy="332" r="0.540508985331682" fill="#F5F5F5" opacity="0.3994156429420851"/><circle cx="350" cy="258" r="2.7289362547788243" fill="#FF3D2E" opacity="0.567402444182665"/><circle cx="674" cy="307" r="1.4600017966569863" fill="#F5F5F5" opacity="0.8783255992112831"/><circle cx="870" cy="292" r="2.9518160326963496" fill="#00E1FF" opacity="0.8675630344069767"/>
  </svg>