<svg xmlns="http://www.w3.org/2000/svg" viewBox="0 0 2000 100">
    <rect width="2000" height="100" fill="#050505"/>
    <path d="M 0 50 L 75.2441295442369 66.2090691760442 L 179.92484959812163 52.12211605003109 L 277.27892280477045 37.51559490358573 L 367.9541643231187 25.96569153359199 L 454.233600241796 20.300225101986637 L 539.4765031693114 21.90629938127611 L 627.2959251407622 30.39069137409164 L 720.6740964700471 43.67612601707661 L 821.2322717601058 58.50986556389679 L 928.8337902328882 71.2600932287378 L 1041.6175350540323 78.80510859951099 L 1156.4535996426346 79.2976287718407 L 1269.7095979615638 72.61706763029915 L 1378.1399993032421 60.399059535050775 L 1479.6807473987014 45.634998985741596 L 1573.9546133787046 31.93964291945529 L 1662.3635545572527 22.666092143459693 L 1747.7454663861456 20.084835314108645 L 1833.679366673319 24.827854127706427 L 1923.6091272008498 35.73389216012022" fill="none" stroke="#00E1FF" stroke-width="2"/>
    <circle cx="0" cy="50" r="3" fill="#FF3D2E"/><circle cx="100" cy="50" r="3" fill="#FF3D2E"/><circle cx="200" cy="50" r="3" fill="#FF3D2E"/><circle cx="300" cy="50" r="3" fill="#FF3D2E"/><circle cx="400" cy="50" r="3" fill="#FF3D2E"/><circle cx="500" cy="50" r="3" fill="#FF3D2E"/><circle cx="600" cy="50" r="3" fill="#FF3D2E"/><circle cx="700" cy="50" r="3" fill="#FF3D2E"/><circle cx="800" cy="50" r="3" fill="#FF3D2E"/><circle cx="900" cy="50" r="3" fill="#FF3D2E"/><circle cx="1000" cy="50" r="3" fill="#FF3D2E"/><circle cx="1100" cy="50" r="3" fill="#FF3D2E"/><circle cx="1200" cy="50" r="3" fill="#FF3D2E"/><circle cx="1300" cy="50" r="3" fill="#FF3D2E"/><circle cx="1400" cy="50" r="3" fill="#FF3D2E"/><circle cx="1500" cy="50" r="3" fill="#FF3D2E"/><circle cx="1600" cy="50" r="3" fill="#FF3D2E"/><circle cx="1700" cy="50" r="3" fill="#FF3D2E"/><circle cx="1800" cy="50" r="3" fill="#FF3D2E"/><circle cx="1900" cy="50" r="3" fill="#FF3D2E"/><circle cx="2000" cy="50" r="3" fill="#FF3D2E"/>
  </svg>