<svg xmlns="http://www.w3.org/2000/svg" viewBox="0 0 1000 1000" width="1000" height="1000">
    <defs>
      <linearGradient id="g258" x1="0" y1="0" x2="1" y2="1">
        <stop offset="0%" stop-color="#6366F1"/>
        <stop offset="100%" stop-color="#8B5CF6"/>
      </linearGradient>
      <radialGradient id="glow258" cx="50%" cy="50%" r="60%">
        <stop offset="0%" stop-color="#A78BFA" stop-opacity="0.2"/>
        <stop offset="100%" stop-color="#A78BFA" stop-opacity="0"/>
      </radialGradient>
    </defs>
    <rect width="1000" height="1000" fill="#030712"/>
    <rect width="1000" height="1000" fill="url(#glow258)"/>
    <rect x="7.5" y="309.25" width="35" height="381.5" fill="#8B5CF6" opacity="0.3756" rx="4"/><rect x="57.5" y="418.5" width="35" height="163" fill="#6366F1" opacity="0.7133999999999999" rx="4"/><rect x="107.5" y="277.75" width="35" height="444.5" fill="#8B5CF6" opacity="0.4512" rx="4"/><rect x="157.5" y="387" width="35" height="226" fill="#6366F1" opacity="0.7889999999999999" rx="4"/><rect x="207.5" y="246.25" width="35" height="507.5" fill="#8B5CF6" opacity="0.5267999999999999" rx="4"/><rect x="257.5" y="355.5" width="35" height="289" fill="#6366F1" opacity="0.8646" rx="4"/><rect x="307.5" y="214.75" width="35" height="570.5" fill="#8B5CF6" opacity="0.6024" rx="4"/><rect x="357.5" y="324" width="35" height="352" fill="#6366F1" opacity="0.3402" rx="4"/><rect x="407.5" y="433.25" width="35" height="133.5" fill="#8B5CF6" opacity="0.6779999999999999" rx="4"/><rect x="457.5" y="292.5" width="35" height="415" fill="#6366F1" opacity="0.4158" rx="4"/><rect x="507.5" y="401.75" width="35" height="196.5" fill="#8B5CF6" opacity="0.7536" rx="4"/><rect x="557.5" y="261" width="35" height="478" fill="#6366F1" opacity="0.49139999999999995" rx="4"/><rect x="607.5" y="370.25" width="35" height="259.5" fill="#8B5CF6" opacity="0.8291999999999999" rx="4"/><rect x="657.5" y="229.5" width="35" height="541" fill="#6366F1" opacity="0.567" rx="4"/><rect x="707.5" y="338.75" width="35" height="322.5" fill="#8B5CF6" opacity="0.3048" rx="4"/><rect x="757.5" y="448" width="35" height="104" fill="#6366F1" opacity="0.6426" rx="4"/><rect x="807.5" y="307.25" width="35" height="385.5" fill="#8B5CF6" opacity="0.38039999999999996" rx="4"/><rect x="857.5" y="416.5" width="35" height="167" fill="#6366F1" opacity="0.7182" rx="4"/><rect x="907.5" y="275.75" width="35" height="448.5" fill="#8B5CF6" opacity="0.45599999999999996" rx="4"/><rect x="957.5" y="385" width="35" height="230" fill="#6366F1" opacity="0.7938" rx="4"/>
    <text x="500" y="960" font-family="system-ui, sans-serif" font-size="36" font-weight="700" fill="white" text-anchor="middle" opacity="0.85">forecast</text>
  </svg>