<svg xmlns="http://www.w3.org/2000/svg" viewBox="0 0 1000 1000" width="1000" height="1000">
    <defs>
      <linearGradient id="g261" x1="0" y1="0" x2="1" y2="1">
        <stop offset="0%" stop-color="#F59E0B"/>
        <stop offset="100%" stop-color="#EF4444"/>
      </linearGradient>
      <radialGradient id="glow261" cx="50%" cy="50%" r="60%">
        <stop offset="0%" stop-color="#FCD34D" stop-opacity="0.2"/>
        <stop offset="100%" stop-color="#FCD34D" stop-opacity="0"/>
      </radialGradient>
    </defs>
    <rect width="1000" height="1000" fill="#030712"/>
    <rect width="1000" height="1000" fill="url(#glow261)"/>
    <line x1="556.8" y1="413.6" x2="670.4000000000001" y2="527.2" stroke="#F59E0B" stroke-width="1" opacity="0.1704933418777376"/><line x1="556.8" y1="413.6" x2="527.2" y2="384" stroke="#F59E0B" stroke-width="1" opacity="0.3401989693625092"/><line x1="556.8" y1="413.6" x2="640.8" y2="497.6" stroke="#F59E0B" stroke-width="1" opacity="0.23029437251522863"/><line x1="556.8" y1="413.6" x2="497.6" y2="354.4" stroke="#F59E0B" stroke-width="1" opacity="0.2803979387250183"/><line x1="556.8" y1="413.6" x2="611.2" y2="468" stroke="#F59E0B" stroke-width="1" opacity="0.2900954031527194"/><line x1="556.8" y1="413.6" x2="468" y2="324.8" stroke="#F59E0B" stroke-width="1" opacity="0.2205969080875274"/><line x1="556.8" y1="413.6" x2="581.5999999999999" y2="438.4" stroke="#F59E0B" stroke-width="1" opacity="0.34989643379021046"/><line x1="556.8" y1="413.6" x2="695.2" y2="552" stroke="#F59E0B" stroke-width="1" opacity="0.120389775667948"/><line x1="556.8" y1="413.6" x2="552" y2="408.8" stroke="#F59E0B" stroke-width="1" opacity="0.3903025355722988"/><line x1="413.6" y1="670.4000000000001" x2="384" y2="640.8" stroke="#F59E0B" stroke-width="1" opacity="0.340198969362509"/><line x1="413.6" y1="670.4000000000001" x2="354.4" y2="611.2" stroke="#F59E0B" stroke-width="1" opacity="0.28039793872501817"/><line x1="413.6" y1="670.4000000000001" x2="324.8" y2="581.5999999999999" stroke="#F59E0B" stroke-width="1" opacity="0.2205969080875272"/><line x1="413.6" y1="670.4000000000001" x2="438.4" y2="695.2" stroke="#F59E0B" stroke-width="1" opacity="0.34989643379021046"/><line x1="413.6" y1="670.4000000000001" x2="408.8" y2="665.6" stroke="#F59E0B" stroke-width="1" opacity="0.3903025355722987"/><line x1="670.4000000000001" y1="527.2" x2="527.2" y2="384" stroke="#F59E0B" stroke-width="1" opacity="0.11069231124024681"/><line x1="670.4000000000001" y1="527.2" x2="640.8" y2="497.6" stroke="#F59E0B" stroke-width="1" opacity="0.340198969362509"/><line x1="670.4000000000001" y1="527.2" x2="497.6" y2="354.4" stroke="#F59E0B" stroke-width="1" opacity="0.050891280602755884"/><line x1="670.4000000000001" y1="527.2" x2="611.2" y2="468" stroke="#F59E0B" stroke-width="1" opacity="0.28039793872501817"/><line x1="670.4000000000001" y1="527.2" x2="581.5999999999999" y2="438.4" stroke="#F59E0B" stroke-width="1" opacity="0.22059690808752713"/><line x1="670.4000000000001" y1="527.2" x2="695.2" y2="552" stroke="#F59E0B" stroke-width="1" opacity="0.34989643379021046"/><line x1="670.4000000000001" y1="527.2" x2="552" y2="408.8" stroke="#F59E0B" stroke-width="1" opacity="0.16079587745003637"/><line x1="527.2" y1="384" x2="640.8" y2="497.6" stroke="#F59E0B" stroke-width="1" opacity="0.17049334187773782"/><line x1="527.2" y1="384" x2="497.6" y2="354.4" stroke="#F59E0B" stroke-width="1" opacity="0.3401989693625091"/><line x1="527.2" y1="384" x2="611.2" y2="468" stroke="#F59E0B" stroke-width="1" opacity="0.23029437251522863"/><line x1="527.2" y1="384" x2="468" y2="324.8" stroke="#F59E0B" stroke-width="1" opacity="0.2803979387250182"/><line x1="527.2" y1="384" x2="581.5999999999999" y2="438.4" stroke="#F59E0B" stroke-width="1" opacity="0.29009540315271964"/><line x1="527.2" y1="384" x2="695.2" y2="552" stroke="#F59E0B" stroke-width="1" opacity="0.06058874503045725"/><line x1="527.2" y1="384" x2="552" y2="408.8" stroke="#F59E0B" stroke-width="1" opacity="0.3498964337902104"/><line x1="384" y1="640.8" x2="354.4" y2="611.2" stroke="#F59E0B" stroke-width="1" opacity="0.3401989693625092"/><line x1="384" y1="640.8" x2="324.8" y2="581.5999999999999" stroke="#F59E0B" stroke-width="1" opacity="0.2803979387250182"/><line x1="384" y1="640.8" x2="438.4" y2="695.2" stroke="#F59E0B" stroke-width="1" opacity="0.2900954031527194"/><line x1="384" y1="640.8" x2="408.8" y2="665.6" stroke="#F59E0B" stroke-width="1" opacity="0.3498964337902103"/><line x1="640.8" y1="497.6" x2="497.6" y2="354.4" stroke="#F59E0B" stroke-width="1" opacity="0.11069231124024687"/><line x1="640.8" y1="497.6" x2="611.2" y2="468" stroke="#F59E0B" stroke-width="1" opacity="0.3401989693625092"/><line x1="640.8" y1="497.6" x2="468" y2="324.8" stroke="#F59E0B" stroke-width="1" opacity="0.05089128060275605"/><line x1="640.8" y1="497.6" x2="581.5999999999999" y2="438.4" stroke="#F59E0B" stroke-width="1" opacity="0.28039793872501817"/><line x1="640.8" y1="497.6" x2="695.2" y2="552" stroke="#F59E0B" stroke-width="1" opacity="0.2900954031527194"/><line x1="640.8" y1="497.6" x2="552" y2="408.8" stroke="#F59E0B" stroke-width="1" opacity="0.2205969080875274"/><line x1="497.6" y1="354.4" x2="611.2" y2="468" stroke="#F59E0B" stroke-width="1" opacity="0.1704933418777377"/><line x1="497.6" y1="354.4" x2="468" y2="324.8" stroke="#F59E0B" stroke-width="1" opacity="0.34019896936250915"/><line x1="497.6" y1="354.4" x2="581.5999999999999" y2="438.4" stroke="#F59E0B" stroke-width="1" opacity="0.23029437251522872"/><line x1="497.6" y1="354.4" x2="695.2" y2="552" stroke="#F59E0B" stroke-width="1" opacity="0.0007877143929663211"/><line x1="497.6" y1="354.4" x2="552" y2="408.8" stroke="#F59E0B" stroke-width="1" opacity="0.2900954031527195"/><line x1="354.4" y1="611.2" x2="324.8" y2="581.5999999999999" stroke="#F59E0B" stroke-width="1" opacity="0.34019896936250904"/><line x1="354.4" y1="611.2" x2="438.4" y2="695.2" stroke="#F59E0B" stroke-width="1" opacity="0.23029437251522863"/><line x1="354.4" y1="611.2" x2="408.8" y2="665.6" stroke="#F59E0B" stroke-width="1" opacity="0.2900954031527195"/><line x1="611.2" y1="468" x2="468" y2="324.8" stroke="#F59E0B" stroke-width="1" opacity="0.11069231124024681"/><line x1="611.2" y1="468" x2="581.5999999999999" y2="438.4" stroke="#F59E0B" stroke-width="1" opacity="0.340198969362509"/><line x1="611.2" y1="468" x2="695.2" y2="552" stroke="#F59E0B" stroke-width="1" opacity="0.23029437251522863"/><line x1="611.2" y1="468" x2="552" y2="408.8" stroke="#F59E0B" stroke-width="1" opacity="0.2803979387250182"/><line x1="468" y1="324.8" x2="581.5999999999999" y2="438.4" stroke="#F59E0B" stroke-width="1" opacity="0.17049334187773788"/><line x1="468" y1="324.8" x2="552" y2="408.8" stroke="#F59E0B" stroke-width="1" opacity="0.23029437251522863"/><line x1="324.8" y1="581.5999999999999" x2="438.4" y2="695.2" stroke="#F59E0B" stroke-width="1" opacity="0.17049334187773763"/><line x1="324.8" y1="581.5999999999999" x2="408.8" y2="665.6" stroke="#F59E0B" stroke-width="1" opacity="0.2302943725152285"/><line x1="581.5999999999999" y1="438.4" x2="695.2" y2="552" stroke="#F59E0B" stroke-width="1" opacity="0.1704933418777376"/><line x1="581.5999999999999" y1="438.4" x2="552" y2="408.8" stroke="#F59E0B" stroke-width="1" opacity="0.34019896936250926"/><line x1="438.4" y1="695.2" x2="408.8" y2="665.6" stroke="#F59E0B" stroke-width="1" opacity="0.34019896936250915"/><line x1="695.2" y1="552" x2="552" y2="408.8" stroke="#F59E0B" stroke-width="1" opacity="0.11069231124024681"/><circle cx="556.8" cy="413.6" r="6" fill="#EC4899" opacity="0.8"/><circle cx="413.6" cy="670.4000000000001" r="6" fill="#EC4899" opacity="0.8"/><circle cx="670.4000000000001" cy="527.2" r="6" fill="#EC4899" opacity="0.8"/><circle cx="527.2" cy="384" r="6" fill="#EC4899" opacity="0.8"/><circle cx="384" cy="640.8" r="6" fill="#EC4899" opacity="0.8"/><circle cx="640.8" cy="497.6" r="6" fill="#EC4899" opacity="0.8"/><circle cx="497.6" cy="354.4" r="6" fill="#EC4899" opacity="0.8"/><circle cx="354.4" cy="611.2" r="6" fill="#EC4899" opacity="0.8"/><circle cx="611.2" cy="468" r="6" fill="#EC4899" opacity="0.8"/><circle cx="468" cy="324.8" r="6" fill="#EC4899" opacity="0.8"/><circle cx="324.8" cy="581.5999999999999" r="6" fill="#EC4899" opacity="0.8"/><circle cx="581.5999999999999" cy="438.4" r="6" fill="#EC4899" opacity="0.8"/><circle cx="438.4" cy="695.2" r="6" fill="#EC4899" opacity="0.8"/><circle cx="695.2" cy="552" r="6" fill="#EC4899" opacity="0.8"/><circle cx="552" cy="408.8" r="6" fill="#EC4899" opacity="0.8"/><circle cx="408.8" cy="665.6" r="6" fill="#EC4899" opacity="0.8"/>
    <text x="500" y="960" font-family="system-ui, sans-serif" font-size="36" font-weight="700" fill="white" text-anchor="middle" opacity="0.85">correlation</text>
  </svg>