<svg xmlns="http://www.w3.org/2000/svg" viewBox="0 0 1000 1000" width="1000" height="1000">
    <defs>
      <linearGradient id="g267" x1="0" y1="0" x2="1" y2="1">
        <stop offset="0%" stop-color="#F59E0B"/>
        <stop offset="100%" stop-color="#EF4444"/>
      </linearGradient>
      <radialGradient id="glow267" cx="50%" cy="50%" r="60%">
        <stop offset="0%" stop-color="#FCD34D" stop-opacity="0.2"/>
        <stop offset="100%" stop-color="#FCD34D" stop-opacity="0"/>
      </radialGradient>
    </defs>
    <rect width="1000" height="1000" fill="#030712"/>
    <rect width="1000" height="1000" fill="url(#glow267)"/>
    <line x1="0" y1="41.666666666666664" x2="1000" y2="21.206666666666663" stroke="#F59E0B" stroke-width="1" opacity="0.4"/><line x1="0" y1="125" x2="1000" y2="114.08" stroke="#F59E0B" stroke-width="1" opacity="0.4"/><line x1="0" y1="208.33333333333331" x2="1000" y2="206.95333333333332" stroke="#F59E0B" stroke-width="1" opacity="0.4"/><line x1="0" y1="291.66666666666663" x2="1000" y2="299.82666666666665" stroke="#F59E0B" stroke-width="1" opacity="0.4"/><line x1="0" y1="375" x2="1000" y2="392.7" stroke="#F59E0B" stroke-width="1" opacity="0.4"/><line x1="0" y1="458.3333333333333" x2="1000" y2="485.5733333333333" stroke="#F59E0B" stroke-width="1" opacity="0.4"/><line x1="0" y1="541.6666666666666" x2="1000" y2="518.4466666666666" stroke="#F59E0B" stroke-width="1" opacity="0.4"/><line x1="0" y1="625" x2="1000" y2="611.32" stroke="#F59E0B" stroke-width="1" opacity="0.4"/><line x1="0" y1="708.3333333333333" x2="1000" y2="704.1933333333333" stroke="#F59E0B" stroke-width="1" opacity="0.4"/><line x1="0" y1="791.6666666666666" x2="1000" y2="797.0666666666666" stroke="#F59E0B" stroke-width="1" opacity="0.4"/><line x1="0" y1="875" x2="1000" y2="889.94" stroke="#F59E0B" stroke-width="1" opacity="0.4"/><line x1="0" y1="958.3333333333333" x2="1000" y2="982.8133333333333" stroke="#F59E0B" stroke-width="1" opacity="0.4"/><rect x="300" y="300" width="400" height="400" fill="url(#g267)" opacity="0.3"/><rect x="350" y="350" width="300" height="300" fill="none" stroke="#EC4899" stroke-width="2" opacity="0.6"/>
    <text x="500" y="960" font-family="system-ui, sans-serif" font-size="36" font-weight="700" fill="white" text-anchor="middle" opacity="0.85">transformer</text>
  </svg>