<svg xmlns="http://www.w3.org/2000/svg" viewBox="0 0 1000 1000" width="1000" height="1000">
    <defs>
      <linearGradient id="g270" x1="0" y1="0" x2="1" y2="1">
        <stop offset="0%" stop-color="#6366F1"/>
        <stop offset="100%" stop-color="#8B5CF6"/>
      </linearGradient>
      <radialGradient id="glow270" cx="50%" cy="50%" r="60%">
        <stop offset="0%" stop-color="#A78BFA" stop-opacity="0.2"/>
        <stop offset="100%" stop-color="#A78BFA" stop-opacity="0"/>
      </radialGradient>
    </defs>
    <rect width="1000" height="1000" fill="#030712"/>
    <rect width="1000" height="1000" fill="url(#glow270)"/>
    <path d="M 0 500 L 0 593.1072868264758 L 16.666666666666668 624.8923625511125 L 33.333333333333336 644.4521047306494 L 50 649.8718677540444 L 66.66666666666667 640.6211279354785 L 83.33333333333333 617.6054129772054 L 100 583.0776612392824 L 116.66666666666667 540.4176873468788 L 133.33333333333334 493.8013506252632 L 150 447.7917787739639 L 166.66666666666666 406.89271340687526 L 183.33333333333331 375.10763637577566 L 200 355.54789534954693 L 216.66666666666669 350.1281322336564 L 233.33333333333334 359.3788719609306 L 250 382.3945868380523 L 266.6666666666667 416.92234037394905 L 283.3333333333333 459.58231236650124 L 300 506.198649077363 L 316.66666666666663 552.2082209470174 L 333.3333333333333 593.1072863597735 L 350 624.8923634593828 L 366.66666666666663 644.4521045702568 L 383.33333333333337 649.8718676862759 L 400 640.6211281426603 L 416.6666666666667 617.60541334669 L 433.33333333333337 583.0776598738607 L 450 540.4176879201187 L 466.6666666666667 493.801348986746 L 483.3333333333333 447.7917793320012 L 500 406.8927138735776 L 516.6666666666667 375.10763670545884 L 533.3333333333334 355.5478955099395 L 550 350.1281323014249 L 566.6666666666666 359.37887175374885 L 583.3333333333334 382.3945864685677 L 600 416.9223398783294 L 616.6666666666667 459.5823117932612 L 633.3333333333333 506.19865071588015 L 650 552.2082203889802 L 666.6666666666666 593.1072876455285 L 683.3333333333334 624.8923631296996 L 700 644.4521044098643 L 716.6666666666666 649.8718677108744 L 733.3333333333333 640.621128349842 L 750 617.6054123287679 L 766.6666666666667 583.0776603694804 L 783.3333333333334 540.4176884933588 L 800 493.8013495814937 L 816.6666666666666 447.79177989003847 L 833.3333333333334 406.89271258782264 L 850 375.10763703514215 L 866.6666666666667 355.54789567033197 L 883.3333333333333 350.12813227682636 L 900 359.3788715465671 L 916.6666666666666 382.39458748648985 L 933.3333333333334 416.92233938270977 L 950 459.5823133725253 L 966.6666666666666 506.1986501211325 L 983.3333333333333 552.2082198309429 L 1000 593.1072871788263" stroke="#6366F1" stroke-width="3" fill="none" opacity="0.7"/><path d="M 0 500 L 0 628.4036085898896 L 16.666666666666668 609.666777114259 L 33.333333333333336 586.863754542465 L 50 561.5485266840185 L 66.66666666666667 535.4462872475985 L 83.33333333333333 510.335857858845 L 100 487.9284755267998 L 116.66666666666667 469.7511638757504 L 133.33333333333334 457.04267864103673 L 150 450.66908069914786 L 166.66666666666666 451.06472091322746 L 183.33333333333331 458.20263709980117 L 200 471.5963912869489 L 216.66666666666669 490.33322272651225 L 233.33333333333334 513.1362452730903 L 250 538.4514731188904 L 266.6666666666667 564.5537125560953 L 283.3333333333333 589.6641419590119 L 300 612.0715243176328 L 316.66666666666663 630.2488360058595 L 333.3333333333333 642.9573212858187 L 350 649.3309192779377 L 366.66666666666663 648.9352791156498 L 383.33333333333337 641.7973629789 L 400 628.4036088362126 L 416.6666666666667 609.6667774327165 L 433.33333333333337 586.8637549113545 L 450 561.5485270782008 L 466.6666666666667 535.4462876402108 L 483.3333333333333 510.3358582231313 L 500 487.9284758379347 L 516.6666666666667 469.7511641125305 L 533.3333333333334 457.04267878732594 L 550 450.6690807449767 L 566.6666666666666 451.0647208554729 L 583.3333333333334 458.20263694239895 L 600 471.5963910406259 L 616.6666666666667 490.33322240805484 L 633.3333333333333 513.1362449042008 L 650 538.4514727247081 L 666.6666666666666 564.553712163483 L 683.3333333333334 589.6641415947256 L 700 612.071524006498 L 716.6666666666666 630.2488357690794 L 733.3333333333333 642.9573211395295 L 750 649.3309192321088 L 766.6666666666667 648.9352789565372 L 783.3333333333334 641.7973631363021 L 800 628.4036081575978 L 816.6666666666666 609.6667777511739 L 833.3333333333334 586.8637538950718 L 850 561.5485274723831 L 866.6666666666667 535.4462865585724 L 883.3333333333333 510.3358585874176 L 900 487.92847498076475 L 916.6666666666666 469.7511643493106 L 933.3333333333334 457.04267838430235 L 950 450.66908079080565 L 966.6666666666666 451.06472101458553 L 983.3333333333333 458.2026367849968 L 1000 471.5963917192406" stroke="#8B5CF6" stroke-width="2" fill="none" opacity="0.5"/>
    <text x="500" y="960" font-family="system-ui, sans-serif" font-size="36" font-weight="700" fill="white" text-anchor="middle" opacity="0.85">token</text>
  </svg>