<svg xmlns="http://www.w3.org/2000/svg" viewBox="0 0 1000 1000" width="1000" height="1000">
    <defs>
      <linearGradient id="g271" x1="0" y1="0" x2="1" y2="1">
        <stop offset="0%" stop-color="#06B6D4"/>
        <stop offset="100%" stop-color="#0EA5E9"/>
      </linearGradient>
      <radialGradient id="glow271" cx="50%" cy="50%" r="60%">
        <stop offset="0%" stop-color="#67E8F9" stop-opacity="0.2"/>
        <stop offset="100%" stop-color="#67E8F9" stop-opacity="0"/>
      </radialGradient>
    </defs>
    <rect width="1000" height="1000" fill="#030712"/>
    <rect width="1000" height="1000" fill="url(#glow271)"/>
    <line x1="696.8" y1="693.6" x2="693.6" y2="690.4" stroke="#06B6D4" stroke-width="1" opacity="0.3935350237148659"/><line x1="696.8" y1="693.6" x2="690.4" y2="687.2" stroke="#06B6D4" stroke-width="1" opacity="0.3870700474297318"/><line x1="696.8" y1="693.6" x2="687.2" y2="684" stroke="#06B6D4" stroke-width="1" opacity="0.38060507114459763"/><line x1="696.8" y1="693.6" x2="684" y2="680.8" stroke="#06B6D4" stroke-width="1" opacity="0.3741400948594634"/><line x1="696.8" y1="693.6" x2="680.8" y2="677.5999999999999" stroke="#06B6D4" stroke-width="1" opacity="0.36767511857432916"/><line x1="696.8" y1="693.6" x2="677.5999999999999" y2="674.4000000000001" stroke="#06B6D4" stroke-width="1" opacity="0.3612101422891951"/><line x1="696.8" y1="693.6" x2="674.4000000000001" y2="671.2" stroke="#06B6D4" stroke-width="1" opacity="0.35474516600406114"/><line x1="696.8" y1="693.6" x2="671.2" y2="668" stroke="#06B6D4" stroke-width="1" opacity="0.3482801897189269"/><line x1="696.8" y1="693.6" x2="668" y2="664.8" stroke="#06B6D4" stroke-width="1" opacity="0.3418152134337927"/><line x1="696.8" y1="693.6" x2="664.8" y2="661.6" stroke="#06B6D4" stroke-width="1" opacity="0.3353502371486585"/><line x1="696.8" y1="693.6" x2="661.6" y2="658.4000000000001" stroke="#06B6D4" stroke-width="1" opacity="0.32888526086352454"/><line x1="696.8" y1="693.6" x2="658.4000000000001" y2="655.2" stroke="#06B6D4" stroke-width="1" opacity="0.3224202845783904"/><line x1="696.8" y1="693.6" x2="655.2" y2="652" stroke="#06B6D4" stroke-width="1" opacity="0.31595530829325613"/><line x1="696.8" y1="693.6" x2="652" y2="648.8" stroke="#06B6D4" stroke-width="1" opacity="0.3094903320081219"/><line x1="696.8" y1="693.6" x2="648.8" y2="645.6" stroke="#06B6D4" stroke-width="1" opacity="0.30302535572298783"/><line x1="693.6" y1="690.4" x2="690.4" y2="687.2" stroke="#06B6D4" stroke-width="1" opacity="0.3935350237148659"/><line x1="693.6" y1="690.4" x2="687.2" y2="684" stroke="#06B6D4" stroke-width="1" opacity="0.3870700474297318"/><line x1="693.6" y1="690.4" x2="684" y2="680.8" stroke="#06B6D4" stroke-width="1" opacity="0.3806050711445975"/><line x1="693.6" y1="690.4" x2="680.8" y2="677.5999999999999" stroke="#06B6D4" stroke-width="1" opacity="0.3741400948594633"/><line x1="693.6" y1="690.4" x2="677.5999999999999" y2="674.4000000000001" stroke="#06B6D4" stroke-width="1" opacity="0.3676751185743293"/><line x1="693.6" y1="690.4" x2="674.4000000000001" y2="671.2" stroke="#06B6D4" stroke-width="1" opacity="0.3612101422891953"/><line x1="693.6" y1="690.4" x2="671.2" y2="668" stroke="#06B6D4" stroke-width="1" opacity="0.35474516600406103"/><line x1="693.6" y1="690.4" x2="668" y2="664.8" stroke="#06B6D4" stroke-width="1" opacity="0.34828018971892677"/><line x1="693.6" y1="690.4" x2="664.8" y2="661.6" stroke="#06B6D4" stroke-width="1" opacity="0.3418152134337927"/><line x1="693.6" y1="690.4" x2="661.6" y2="658.4000000000001" stroke="#06B6D4" stroke-width="1" opacity="0.33535023714865864"/><line x1="693.6" y1="690.4" x2="658.4000000000001" y2="655.2" stroke="#06B6D4" stroke-width="1" opacity="0.32888526086352454"/><line x1="693.6" y1="690.4" x2="655.2" y2="652" stroke="#06B6D4" stroke-width="1" opacity="0.3224202845783903"/><line x1="693.6" y1="690.4" x2="652" y2="648.8" stroke="#06B6D4" stroke-width="1" opacity="0.315955308293256"/><line x1="693.6" y1="690.4" x2="648.8" y2="645.6" stroke="#06B6D4" stroke-width="1" opacity="0.3094903320081219"/><line x1="690.4" y1="687.2" x2="687.2" y2="684" stroke="#06B6D4" stroke-width="1" opacity="0.3935350237148659"/><line x1="690.4" y1="687.2" x2="684" y2="680.8" stroke="#06B6D4" stroke-width="1" opacity="0.38707004742973167"/><line x1="690.4" y1="687.2" x2="680.8" y2="677.5999999999999" stroke="#06B6D4" stroke-width="1" opacity="0.3806050711445974"/><line x1="690.4" y1="687.2" x2="677.5999999999999" y2="674.4000000000001" stroke="#06B6D4" stroke-width="1" opacity="0.3741400948594634"/><line x1="690.4" y1="687.2" x2="674.4000000000001" y2="671.2" stroke="#06B6D4" stroke-width="1" opacity="0.3676751185743294"/><line x1="690.4" y1="687.2" x2="671.2" y2="668" stroke="#06B6D4" stroke-width="1" opacity="0.3612101422891951"/><line x1="690.4" y1="687.2" x2="668" y2="664.8" stroke="#06B6D4" stroke-width="1" opacity="0.3547451660040609"/><line x1="690.4" y1="687.2" x2="664.8" y2="661.6" stroke="#06B6D4" stroke-width="1" opacity="0.34828018971892677"/><line x1="690.4" y1="687.2" x2="661.6" y2="658.4000000000001" stroke="#06B6D4" stroke-width="1" opacity="0.3418152134337928"/><line x1="690.4" y1="687.2" x2="658.4000000000001" y2="655.2" stroke="#06B6D4" stroke-width="1" opacity="0.33535023714865864"/><line x1="690.4" y1="687.2" x2="655.2" y2="652" stroke="#06B6D4" stroke-width="1" opacity="0.32888526086352443"/><line x1="690.4" y1="687.2" x2="652" y2="648.8" stroke="#06B6D4" stroke-width="1" opacity="0.32242028457839017"/><line x1="690.4" y1="687.2" x2="648.8" y2="645.6" stroke="#06B6D4" stroke-width="1" opacity="0.315955308293256"/><line x1="687.2" y1="684" x2="684" y2="680.8" stroke="#06B6D4" stroke-width="1" opacity="0.39353502371486576"/><line x1="687.2" y1="684" x2="680.8" y2="677.5999999999999" stroke="#06B6D4" stroke-width="1" opacity="0.38707004742973156"/><line x1="687.2" y1="684" x2="677.5999999999999" y2="674.4000000000001" stroke="#06B6D4" stroke-width="1" opacity="0.3806050711445975"/><line x1="687.2" y1="684" x2="674.4000000000001" y2="671.2" stroke="#06B6D4" stroke-width="1" opacity="0.37414009485946353"/><line x1="687.2" y1="684" x2="671.2" y2="668" stroke="#06B6D4" stroke-width="1" opacity="0.3676751185743293"/><line x1="687.2" y1="684" x2="668" y2="664.8" stroke="#06B6D4" stroke-width="1" opacity="0.361210142289195"/><line x1="687.2" y1="684" x2="664.8" y2="661.6" stroke="#06B6D4" stroke-width="1" opacity="0.3547451660040609"/><line x1="687.2" y1="684" x2="661.6" y2="658.4000000000001" stroke="#06B6D4" stroke-width="1" opacity="0.3482801897189269"/><line x1="687.2" y1="684" x2="658.4000000000001" y2="655.2" stroke="#06B6D4" stroke-width="1" opacity="0.3418152134337928"/><line x1="687.2" y1="684" x2="655.2" y2="652" stroke="#06B6D4" stroke-width="1" opacity="0.3353502371486585"/><line x1="687.2" y1="684" x2="652" y2="648.8" stroke="#06B6D4" stroke-width="1" opacity="0.3288852608635243"/><line x1="687.2" y1="684" x2="648.8" y2="645.6" stroke="#06B6D4" stroke-width="1" opacity="0.32242028457839017"/><line x1="684" y1="680.8" x2="680.8" y2="677.5999999999999" stroke="#06B6D4" stroke-width="1" opacity="0.39353502371486576"/><line x1="684" y1="680.8" x2="677.5999999999999" y2="674.4000000000001" stroke="#06B6D4" stroke-width="1" opacity="0.3870700474297318"/><line x1="684" y1="680.8" x2="674.4000000000001" y2="671.2" stroke="#06B6D4" stroke-width="1" opacity="0.38060507114459774"/><line x1="684" y1="680.8" x2="671.2" y2="668" stroke="#06B6D4" stroke-width="1" opacity="0.37414009485946353"/><line x1="684" y1="680.8" x2="668" y2="664.8" stroke="#06B6D4" stroke-width="1" opacity="0.3676751185743293"/><line x1="684" y1="680.8" x2="664.8" y2="661.6" stroke="#06B6D4" stroke-width="1" opacity="0.3612101422891951"/><line x1="684" y1="680.8" x2="661.6" y2="658.4000000000001" stroke="#06B6D4" stroke-width="1" opacity="0.35474516600406114"/><line x1="684" y1="680.8" x2="658.4000000000001" y2="655.2" stroke="#06B6D4" stroke-width="1" opacity="0.348280189718927"/><line x1="684" y1="680.8" x2="655.2" y2="652" stroke="#06B6D4" stroke-width="1" opacity="0.3418152134337928"/><line x1="684" y1="680.8" x2="652" y2="648.8" stroke="#06B6D4" stroke-width="1" opacity="0.3353502371486585"/><line x1="684" y1="680.8" x2="648.8" y2="645.6" stroke="#06B6D4" stroke-width="1" opacity="0.32888526086352443"/><line x1="680.8" y1="677.5999999999999" x2="677.5999999999999" y2="674.4000000000001" stroke="#06B6D4" stroke-width="1" opacity="0.393535023714866"/><line x1="680.8" y1="677.5999999999999" x2="674.4000000000001" y2="671.2" stroke="#06B6D4" stroke-width="1" opacity="0.387070047429732"/><line x1="680.8" y1="677.5999999999999" x2="671.2" y2="668" stroke="#06B6D4" stroke-width="1" opacity="0.38060507114459774"/><line x1="680.8" y1="677.5999999999999" x2="668" y2="664.8" stroke="#06B6D4" stroke-width="1" opacity="0.37414009485946353"/><line x1="680.8" y1="677.5999999999999" x2="664.8" y2="661.6" stroke="#06B6D4" stroke-width="1" opacity="0.3676751185743294"/><line x1="680.8" y1="677.5999999999999" x2="661.6" y2="658.4000000000001" stroke="#06B6D4" stroke-width="1" opacity="0.3612101422891954"/><line x1="680.8" y1="677.5999999999999" x2="658.4000000000001" y2="655.2" stroke="#06B6D4" stroke-width="1" opacity="0.35474516600406125"/><line x1="680.8" y1="677.5999999999999" x2="655.2" y2="652" stroke="#06B6D4" stroke-width="1" opacity="0.348280189718927"/><line x1="680.8" y1="677.5999999999999" x2="652" y2="648.8" stroke="#06B6D4" stroke-width="1" opacity="0.3418152134337928"/><line x1="680.8" y1="677.5999999999999" x2="648.8" y2="645.6" stroke="#06B6D4" stroke-width="1" opacity="0.33535023714865864"/><line x1="677.5999999999999" y1="674.4000000000001" x2="674.4000000000001" y2="671.2" stroke="#06B6D4" stroke-width="1" opacity="0.393535023714866"/><line x1="677.5999999999999" y1="674.4000000000001" x2="671.2" y2="668" stroke="#06B6D4" stroke-width="1" opacity="0.3870700474297318"/><line x1="677.5999999999999" y1="674.4000000000001" x2="668" y2="664.8" stroke="#06B6D4" stroke-width="1" opacity="0.3806050711445975"/><line x1="677.5999999999999" y1="674.4000000000001" x2="664.8" y2="661.6" stroke="#06B6D4" stroke-width="1" opacity="0.3741400948594634"/><line x1="677.5999999999999" y1="674.4000000000001" x2="661.6" y2="658.4000000000001" stroke="#06B6D4" stroke-width="1" opacity="0.3676751185743294"/><line x1="677.5999999999999" y1="674.4000000000001" x2="658.4000000000001" y2="655.2" stroke="#06B6D4" stroke-width="1" opacity="0.3612101422891953"/><line x1="677.5999999999999" y1="674.4000000000001" x2="655.2" y2="652" stroke="#06B6D4" stroke-width="1" opacity="0.35474516600406103"/><line x1="677.5999999999999" y1="674.4000000000001" x2="652" y2="648.8" stroke="#06B6D4" stroke-width="1" opacity="0.34828018971892677"/><line x1="677.5999999999999" y1="674.4000000000001" x2="648.8" y2="645.6" stroke="#06B6D4" stroke-width="1" opacity="0.3418152134337927"/><line x1="674.4000000000001" y1="671.2" x2="671.2" y2="668" stroke="#06B6D4" stroke-width="1" opacity="0.39353502371486576"/><line x1="674.4000000000001" y1="671.2" x2="668" y2="664.8" stroke="#06B6D4" stroke-width="1" opacity="0.38707004742973156"/><line x1="674.4000000000001" y1="671.2" x2="664.8" y2="661.6" stroke="#06B6D4" stroke-width="1" opacity="0.3806050711445974"/><line x1="674.4000000000001" y1="671.2" x2="661.6" y2="658.4000000000001" stroke="#06B6D4" stroke-width="1" opacity="0.3741400948594634"/><line x1="674.4000000000001" y1="671.2" x2="658.4000000000001" y2="655.2" stroke="#06B6D4" stroke-width="1" opacity="0.3676751185743293"/><line x1="674.4000000000001" y1="671.2" x2="655.2" y2="652" stroke="#06B6D4" stroke-width="1" opacity="0.361210142289195"/><line x1="674.4000000000001" y1="671.2" x2="652" y2="648.8" stroke="#06B6D4" stroke-width="1" opacity="0.3547451660040608"/><line x1="674.4000000000001" y1="671.2" x2="648.8" y2="645.6" stroke="#06B6D4" stroke-width="1" opacity="0.34828018971892666"/><line x1="671.2" y1="668" x2="668" y2="664.8" stroke="#06B6D4" stroke-width="1" opacity="0.39353502371486576"/><line x1="671.2" y1="668" x2="664.8" y2="661.6" stroke="#06B6D4" stroke-width="1" opacity="0.38707004742973167"/><line x1="671.2" y1="668" x2="661.6" y2="658.4000000000001" stroke="#06B6D4" stroke-width="1" opacity="0.38060507114459763"/><line x1="671.2" y1="668" x2="658.4000000000001" y2="655.2" stroke="#06B6D4" stroke-width="1" opacity="0.37414009485946353"/><line x1="671.2" y1="668" x2="655.2" y2="652" stroke="#06B6D4" stroke-width="1" opacity="0.3676751185743293"/><line x1="671.2" y1="668" x2="652" y2="648.8" stroke="#06B6D4" stroke-width="1" opacity="0.361210142289195"/><line x1="671.2" y1="668" x2="648.8" y2="645.6" stroke="#06B6D4" stroke-width="1" opacity="0.3547451660040609"/><line x1="668" y1="664.8" x2="664.8" y2="661.6" stroke="#06B6D4" stroke-width="1" opacity="0.3935350237148659"/><line x1="668" y1="664.8" x2="661.6" y2="658.4000000000001" stroke="#06B6D4" stroke-width="1" opacity="0.3870700474297319"/><line x1="668" y1="664.8" x2="658.4000000000001" y2="655.2" stroke="#06B6D4" stroke-width="1" opacity="0.38060507114459774"/><line x1="668" y1="664.8" x2="655.2" y2="652" stroke="#06B6D4" stroke-width="1" opacity="0.37414009485946353"/><line x1="668" y1="664.8" x2="652" y2="648.8" stroke="#06B6D4" stroke-width="1" opacity="0.3676751185743293"/><line x1="668" y1="664.8" x2="648.8" y2="645.6" stroke="#06B6D4" stroke-width="1" opacity="0.3612101422891951"/><line x1="664.8" y1="661.6" x2="661.6" y2="658.4000000000001" stroke="#06B6D4" stroke-width="1" opacity="0.39353502371486604"/><line x1="664.8" y1="661.6" x2="658.4000000000001" y2="655.2" stroke="#06B6D4" stroke-width="1" opacity="0.3870700474297319"/><line x1="664.8" y1="661.6" x2="655.2" y2="652" stroke="#06B6D4" stroke-width="1" opacity="0.38060507114459763"/><line x1="664.8" y1="661.6" x2="652" y2="648.8" stroke="#06B6D4" stroke-width="1" opacity="0.3741400948594634"/><line x1="664.8" y1="661.6" x2="648.8" y2="645.6" stroke="#06B6D4" stroke-width="1" opacity="0.3676751185743293"/><line x1="661.6" y1="658.4000000000001" x2="658.4000000000001" y2="655.2" stroke="#06B6D4" stroke-width="1" opacity="0.3935350237148659"/><line x1="661.6" y1="658.4000000000001" x2="655.2" y2="652" stroke="#06B6D4" stroke-width="1" opacity="0.38707004742973167"/><line x1="661.6" y1="658.4000000000001" x2="652" y2="648.8" stroke="#06B6D4" stroke-width="1" opacity="0.3806050711445974"/><line x1="661.6" y1="658.4000000000001" x2="648.8" y2="645.6" stroke="#06B6D4" stroke-width="1" opacity="0.3741400948594633"/><line x1="658.4000000000001" y1="655.2" x2="655.2" y2="652" stroke="#06B6D4" stroke-width="1" opacity="0.39353502371486576"/><line x1="658.4000000000001" y1="655.2" x2="652" y2="648.8" stroke="#06B6D4" stroke-width="1" opacity="0.38707004742973156"/><line x1="658.4000000000001" y1="655.2" x2="648.8" y2="645.6" stroke="#06B6D4" stroke-width="1" opacity="0.3806050711445974"/><line x1="655.2" y1="652" x2="652" y2="648.8" stroke="#06B6D4" stroke-width="1" opacity="0.39353502371486576"/><line x1="655.2" y1="652" x2="648.8" y2="645.6" stroke="#06B6D4" stroke-width="1" opacity="0.38707004742973167"/><line x1="652" y1="648.8" x2="648.8" y2="645.6" stroke="#06B6D4" stroke-width="1" opacity="0.3935350237148659"/><circle cx="696.8" cy="693.6" r="6" fill="#6366F1" opacity="0.8"/><circle cx="693.6" cy="690.4" r="6" fill="#6366F1" opacity="0.8"/><circle cx="690.4" cy="687.2" r="6" fill="#6366F1" opacity="0.8"/><circle cx="687.2" cy="684" r="6" fill="#6366F1" opacity="0.8"/><circle cx="684" cy="680.8" r="6" fill="#6366F1" opacity="0.8"/><circle cx="680.8" cy="677.5999999999999" r="6" fill="#6366F1" opacity="0.8"/><circle cx="677.5999999999999" cy="674.4000000000001" r="6" fill="#6366F1" opacity="0.8"/><circle cx="674.4000000000001" cy="671.2" r="6" fill="#6366F1" opacity="0.8"/><circle cx="671.2" cy="668" r="6" fill="#6366F1" opacity="0.8"/><circle cx="668" cy="664.8" r="6" fill="#6366F1" opacity="0.8"/><circle cx="664.8" cy="661.6" r="6" fill="#6366F1" opacity="0.8"/><circle cx="661.6" cy="658.4000000000001" r="6" fill="#6366F1" opacity="0.8"/><circle cx="658.4000000000001" cy="655.2" r="6" fill="#6366F1" opacity="0.8"/><circle cx="655.2" cy="652" r="6" fill="#6366F1" opacity="0.8"/><circle cx="652" cy="648.8" r="6" fill="#6366F1" opacity="0.8"/><circle cx="648.8" cy="645.6" r="6" fill="#6366F1" opacity="0.8"/>
    <text x="500" y="960" font-family="system-ui, sans-serif" font-size="36" font-weight="700" fill="white" text-anchor="middle" opacity="0.85">gradient</text>
  </svg>