<svg xmlns="http://www.w3.org/2000/svg" viewBox="0 0 1000 1000" width="1000" height="1000">
    <defs>
      <linearGradient id="g277" x1="0" y1="0" x2="1" y2="1">
        <stop offset="0%" stop-color="#06B6D4"/>
        <stop offset="100%" stop-color="#0EA5E9"/>
      </linearGradient>
      <radialGradient id="glow277" cx="50%" cy="50%" r="60%">
        <stop offset="0%" stop-color="#67E8F9" stop-opacity="0.2"/>
        <stop offset="100%" stop-color="#67E8F9" stop-opacity="0"/>
      </radialGradient>
    </defs>
    <rect width="1000" height="1000" fill="#030712"/>
    <rect width="1000" height="1000" fill="url(#glow277)"/>
    <line x1="640.8" y1="581.5999999999999" x2="581.5999999999999" y2="522.4000000000001" stroke="#06B6D4" stroke-width="1" opacity="0.2803979387250184"/><line x1="640.8" y1="581.5999999999999" x2="522.4000000000001" y2="463.2" stroke="#06B6D4" stroke-width="1" opacity="0.1607958774500367"/><line x1="640.8" y1="581.5999999999999" x2="463.2" y2="404" stroke="#06B6D4" stroke-width="1" opacity="0.041193816175054854"/><line x1="640.8" y1="581.5999999999999" x2="685.5999999999999" y2="626.4" stroke="#06B6D4" stroke-width="1" opacity="0.3094903320081219"/><line x1="640.8" y1="581.5999999999999" x2="626.4" y2="567.2" stroke="#06B6D4" stroke-width="1" opacity="0.3709076067168965"/><line x1="640.8" y1="581.5999999999999" x2="567.2" y2="508" stroke="#06B6D4" stroke-width="1" opacity="0.2513055454419148"/><line x1="640.8" y1="581.5999999999999" x2="508" y2="448.8" stroke="#06B6D4" stroke-width="1" opacity="0.13170348416693295"/><line x1="640.8" y1="581.5999999999999" x2="448.8" y2="389.6" stroke="#06B6D4" stroke-width="1" opacity="0.012101422891951208"/><line x1="640.8" y1="581.5999999999999" x2="671.2" y2="612" stroke="#06B6D4" stroke-width="1" opacity="0.3385827252912254"/><line x1="640.8" y1="581.5999999999999" x2="612" y2="552.8" stroke="#06B6D4" stroke-width="1" opacity="0.3418152134337928"/><line x1="640.8" y1="581.5999999999999" x2="552.8" y2="493.6" stroke="#06B6D4" stroke-width="1" opacity="0.22221315215881104"/><line x1="581.5999999999999" y1="522.4000000000001" x2="522.4000000000001" y2="463.2" stroke="#06B6D4" stroke-width="1" opacity="0.28039793872501834"/><line x1="581.5999999999999" y1="522.4000000000001" x2="463.2" y2="404" stroke="#06B6D4" stroke-width="1" opacity="0.1607958774500365"/><line x1="581.5999999999999" y1="522.4000000000001" x2="404" y2="344.8" stroke="#06B6D4" stroke-width="1" opacity="0.0411938161750548"/><line x1="581.5999999999999" y1="522.4000000000001" x2="685.5999999999999" y2="626.4" stroke="#06B6D4" stroke-width="1" opacity="0.18988827073314027"/><line x1="581.5999999999999" y1="522.4000000000001" x2="626.4" y2="567.2" stroke="#06B6D4" stroke-width="1" opacity="0.3094903320081219"/><line x1="581.5999999999999" y1="522.4000000000001" x2="567.2" y2="508" stroke="#06B6D4" stroke-width="1" opacity="0.3709076067168964"/><line x1="581.5999999999999" y1="522.4000000000001" x2="508" y2="448.8" stroke="#06B6D4" stroke-width="1" opacity="0.25130554544191464"/><line x1="581.5999999999999" y1="522.4000000000001" x2="448.8" y2="389.6" stroke="#06B6D4" stroke-width="1" opacity="0.1317034841669329"/><line x1="581.5999999999999" y1="522.4000000000001" x2="389.6" y2="330.4" stroke="#06B6D4" stroke-width="1" opacity="0.012101422891951152"/><line x1="581.5999999999999" y1="522.4000000000001" x2="671.2" y2="612" stroke="#06B6D4" stroke-width="1" opacity="0.2189806640162438"/><line x1="581.5999999999999" y1="522.4000000000001" x2="612" y2="552.8" stroke="#06B6D4" stroke-width="1" opacity="0.3385827252912257"/><line x1="581.5999999999999" y1="522.4000000000001" x2="552.8" y2="493.6" stroke="#06B6D4" stroke-width="1" opacity="0.3418152134337927"/><line x1="522.4000000000001" y1="463.2" x2="463.2" y2="404" stroke="#06B6D4" stroke-width="1" opacity="0.28039793872501817"/><line x1="522.4000000000001" y1="463.2" x2="404" y2="344.8" stroke="#06B6D4" stroke-width="1" opacity="0.16079587745003646"/><line x1="522.4000000000001" y1="463.2" x2="685.5999999999999" y2="626.4" stroke="#06B6D4" stroke-width="1" opacity="0.07028620945815861"/><line x1="522.4000000000001" y1="463.2" x2="626.4" y2="567.2" stroke="#06B6D4" stroke-width="1" opacity="0.18988827073314024"/><line x1="522.4000000000001" y1="463.2" x2="567.2" y2="508" stroke="#06B6D4" stroke-width="1" opacity="0.309490332008122"/><line x1="522.4000000000001" y1="463.2" x2="508" y2="448.8" stroke="#06B6D4" stroke-width="1" opacity="0.37090760671689627"/><line x1="522.4000000000001" y1="463.2" x2="448.8" y2="389.6" stroke="#06B6D4" stroke-width="1" opacity="0.2513055454419146"/><line x1="522.4000000000001" y1="463.2" x2="389.6" y2="330.4" stroke="#06B6D4" stroke-width="1" opacity="0.13170348416693278"/><line x1="522.4000000000001" y1="463.2" x2="671.2" y2="612" stroke="#06B6D4" stroke-width="1" opacity="0.09937860274126215"/><line x1="522.4000000000001" y1="463.2" x2="612" y2="552.8" stroke="#06B6D4" stroke-width="1" opacity="0.218980664016244"/><line x1="522.4000000000001" y1="463.2" x2="552.8" y2="493.6" stroke="#06B6D4" stroke-width="1" opacity="0.3385827252912257"/><line x1="463.2" y1="404" x2="404" y2="344.8" stroke="#06B6D4" stroke-width="1" opacity="0.2803979387250183"/><line x1="463.2" y1="404" x2="626.4" y2="567.2" stroke="#06B6D4" stroke-width="1" opacity="0.07028620945815839"/><line x1="463.2" y1="404" x2="567.2" y2="508" stroke="#06B6D4" stroke-width="1" opacity="0.1898882707331401"/><line x1="463.2" y1="404" x2="508" y2="448.8" stroke="#06B6D4" stroke-width="1" opacity="0.3094903320081219"/><line x1="463.2" y1="404" x2="448.8" y2="389.6" stroke="#06B6D4" stroke-width="1" opacity="0.3709076067168964"/><line x1="463.2" y1="404" x2="389.6" y2="330.4" stroke="#06B6D4" stroke-width="1" opacity="0.25130554544191464"/><line x1="463.2" y1="404" x2="612" y2="552.8" stroke="#06B6D4" stroke-width="1" opacity="0.09937860274126215"/><line x1="463.2" y1="404" x2="552.8" y2="493.6" stroke="#06B6D4" stroke-width="1" opacity="0.21898066401624386"/><line x1="404" y1="344.8" x2="567.2" y2="508" stroke="#06B6D4" stroke-width="1" opacity="0.07028620945815839"/><line x1="404" y1="344.8" x2="508" y2="448.8" stroke="#06B6D4" stroke-width="1" opacity="0.18988827073314019"/><line x1="404" y1="344.8" x2="448.8" y2="389.6" stroke="#06B6D4" stroke-width="1" opacity="0.3094903320081219"/><line x1="404" y1="344.8" x2="389.6" y2="330.4" stroke="#06B6D4" stroke-width="1" opacity="0.3709076067168963"/><line x1="404" y1="344.8" x2="552.8" y2="493.6" stroke="#06B6D4" stroke-width="1" opacity="0.09937860274126215"/><line x1="344.8" y1="685.5999999999999" x2="330.4" y2="671.2" stroke="#06B6D4" stroke-width="1" opacity="0.37090760671689643"/><line x1="685.5999999999999" y1="626.4" x2="626.4" y2="567.2" stroke="#06B6D4" stroke-width="1" opacity="0.2803979387250184"/><line x1="685.5999999999999" y1="626.4" x2="567.2" y2="508" stroke="#06B6D4" stroke-width="1" opacity="0.16079587745003665"/><line x1="685.5999999999999" y1="626.4" x2="508" y2="448.8" stroke="#06B6D4" stroke-width="1" opacity="0.041193816175054854"/><line x1="685.5999999999999" y1="626.4" x2="671.2" y2="612" stroke="#06B6D4" stroke-width="1" opacity="0.3709076067168965"/><line x1="685.5999999999999" y1="626.4" x2="612" y2="552.8" stroke="#06B6D4" stroke-width="1" opacity="0.25130554544191464"/><line x1="685.5999999999999" y1="626.4" x2="552.8" y2="493.6" stroke="#06B6D4" stroke-width="1" opacity="0.13170348416693295"/><line x1="626.4" y1="567.2" x2="567.2" y2="508" stroke="#06B6D4" stroke-width="1" opacity="0.2803979387250183"/><line x1="626.4" y1="567.2" x2="508" y2="448.8" stroke="#06B6D4" stroke-width="1" opacity="0.1607958774500365"/><line x1="626.4" y1="567.2" x2="448.8" y2="389.6" stroke="#06B6D4" stroke-width="1" opacity="0.0411938161750548"/><line x1="626.4" y1="567.2" x2="671.2" y2="612" stroke="#06B6D4" stroke-width="1" opacity="0.3094903320081219"/><line x1="626.4" y1="567.2" x2="612" y2="552.8" stroke="#06B6D4" stroke-width="1" opacity="0.37090760671689627"/><line x1="626.4" y1="567.2" x2="552.8" y2="493.6" stroke="#06B6D4" stroke-width="1" opacity="0.2513055454419145"/><line x1="567.2" y1="508" x2="508" y2="448.8" stroke="#06B6D4" stroke-width="1" opacity="0.2803979387250182"/><line x1="567.2" y1="508" x2="448.8" y2="389.6" stroke="#06B6D4" stroke-width="1" opacity="0.1607958774500365"/><line x1="567.2" y1="508" x2="389.6" y2="330.4" stroke="#06B6D4" stroke-width="1" opacity="0.04119381617505469"/><line x1="567.2" y1="508" x2="671.2" y2="612" stroke="#06B6D4" stroke-width="1" opacity="0.18988827073314019"/><line x1="567.2" y1="508" x2="612" y2="552.8" stroke="#06B6D4" stroke-width="1" opacity="0.30949033200812204"/><line x1="567.2" y1="508" x2="552.8" y2="493.6" stroke="#06B6D4" stroke-width="1" opacity="0.37090760671689627"/><line x1="508" y1="448.8" x2="448.8" y2="389.6" stroke="#06B6D4" stroke-width="1" opacity="0.2803979387250183"/><line x1="508" y1="448.8" x2="389.6" y2="330.4" stroke="#06B6D4" stroke-width="1" opacity="0.1607958774500365"/><line x1="508" y1="448.8" x2="671.2" y2="612" stroke="#06B6D4" stroke-width="1" opacity="0.07028620945815839"/><line x1="508" y1="448.8" x2="612" y2="552.8" stroke="#06B6D4" stroke-width="1" opacity="0.18988827073314024"/><line x1="508" y1="448.8" x2="552.8" y2="493.6" stroke="#06B6D4" stroke-width="1" opacity="0.309490332008122"/><line x1="448.8" y1="389.6" x2="389.6" y2="330.4" stroke="#06B6D4" stroke-width="1" opacity="0.2803979387250182"/><line x1="448.8" y1="389.6" x2="612" y2="552.8" stroke="#06B6D4" stroke-width="1" opacity="0.0702862094581585"/><line x1="448.8" y1="389.6" x2="552.8" y2="493.6" stroke="#06B6D4" stroke-width="1" opacity="0.18988827073314024"/><line x1="389.6" y1="330.4" x2="552.8" y2="493.6" stroke="#06B6D4" stroke-width="1" opacity="0.07028620945815844"/><line x1="671.2" y1="612" x2="612" y2="552.8" stroke="#06B6D4" stroke-width="1" opacity="0.28039793872501817"/><line x1="671.2" y1="612" x2="552.8" y2="493.6" stroke="#06B6D4" stroke-width="1" opacity="0.16079587745003646"/><line x1="612" y1="552.8" x2="552.8" y2="493.6" stroke="#06B6D4" stroke-width="1" opacity="0.2803979387250183"/><circle cx="640.8" cy="581.5999999999999" r="6" fill="#6366F1" opacity="0.8"/><circle cx="581.5999999999999" cy="522.4000000000001" r="6" fill="#6366F1" opacity="0.8"/><circle cx="522.4000000000001" cy="463.2" r="6" fill="#6366F1" opacity="0.8"/><circle cx="463.2" cy="404" r="6" fill="#6366F1" opacity="0.8"/><circle cx="404" cy="344.8" r="6" fill="#6366F1" opacity="0.8"/><circle cx="344.8" cy="685.5999999999999" r="6" fill="#6366F1" opacity="0.8"/><circle cx="685.5999999999999" cy="626.4" r="6" fill="#6366F1" opacity="0.8"/><circle cx="626.4" cy="567.2" r="6" fill="#6366F1" opacity="0.8"/><circle cx="567.2" cy="508" r="6" fill="#6366F1" opacity="0.8"/><circle cx="508" cy="448.8" r="6" fill="#6366F1" opacity="0.8"/><circle cx="448.8" cy="389.6" r="6" fill="#6366F1" opacity="0.8"/><circle cx="389.6" cy="330.4" r="6" fill="#6366F1" opacity="0.8"/><circle cx="330.4" cy="671.2" r="6" fill="#6366F1" opacity="0.8"/><circle cx="671.2" cy="612" r="6" fill="#6366F1" opacity="0.8"/><circle cx="612" cy="552.8" r="6" fill="#6366F1" opacity="0.8"/><circle cx="552.8" cy="493.6" r="6" fill="#6366F1" opacity="0.8"/>
    <text x="500" y="960" font-family="system-ui, sans-serif" font-size="36" font-weight="700" fill="white" text-anchor="middle" opacity="0.85">prompt</text>
  </svg>