<svg xmlns="http://www.w3.org/2000/svg" viewBox="0 0 1000 1000" width="1000" height="1000">
    <defs>
      <linearGradient id="g280" x1="0" y1="0" x2="1" y2="1">
        <stop offset="0%" stop-color="#EC4899"/>
        <stop offset="100%" stop-color="#F43F5E"/>
      </linearGradient>
      <radialGradient id="glow280" cx="50%" cy="50%" r="60%">
        <stop offset="0%" stop-color="#F9A8D4" stop-opacity="0.2"/>
        <stop offset="100%" stop-color="#F9A8D4" stop-opacity="0"/>
      </radialGradient>
    </defs>
    <rect width="1000" height="1000" fill="#030712"/>
    <rect width="1000" height="1000" fill="url(#glow280)"/>
    <circle cx="486.4775092506008" cy="498.5500883018565" r="6.408" fill="#8B5CF6" opacity="0.3408"/><circle cx="715.3898944344298" cy="546.7263670268209" r="2.544" fill="#EC4899" opacity="0.651"/><circle cx="474.184584856264" cy="491.4323666653757" r="6.68" fill="#F43F5E" opacity="0.36119999999999997"/><circle cx="712.964797140289" cy="596.9638859524284" r="2.816" fill="#8B5CF6" opacity="0.6714"/><circle cx="464.8817252982391" cy="479.2311102373849" r="6.952" fill="#F43F5E" opacity="0.3816"/><circle cx="698.4679854540291" cy="648.0412738050417" r="3.088" fill="#EC4899" opacity="0.6918"/><circle cx="460.1109091654927" cy="463.0105361975004" r="7.224" fill="#8B5CF6" opacity="0.402"/><circle cx="671.5001994026723" cy="697.0104606482703" r="3.3600000000000003" fill="#EC4899" opacity="0.7121999999999999"/><circle cx="461.0746154595678" cy="444.2432565658693" r="7.496" fill="#F43F5E" opacity="0.4224"/><circle cx="632.3859096431513" cy="740.8090756760538" r="3.6319999999999997" fill="#8B5CF6" opacity="0.7325999999999999"/><circle cx="468.5363462301645" cy="424.70990442659865" r="7.768" fill="#F43F5E" opacity="0.44279999999999997"/><circle cx="582.1995552963411" cy="776.4376839526112" r="3.904" fill="#EC4899" opacity="0.7529999999999999"/><circle cx="482.7492113026965" cy="406.3760164844446" r="8.04" fill="#8B5CF6" opacity="0.4632"/><circle cx="522.7486952694356" cy="801.1419878787054" r="4.176" fill="#EC4899" opacity="0.7734"/><circle cx="503.41749058770034" cy="391.2536862322084" r="8.312000000000001" fill="#F43F5E" opacity="0.4836"/><circle cx="456.5133842599282" cy="812.5896259498631" r="4.448" fill="#8B5CF6" opacity="0.7938"/><circle cx="529.6941458493578" cy="381.25650458961104" r="8.584" fill="#F43F5E" opacity="0.504"/><circle cx="386.543549690949" cy="809.0311859396554" r="4.720000000000001" fill="#EC4899" opacity="0.8142"/><circle cx="560.2151194212905" cy="378.05681899720787" r="8.856" fill="#8B5CF6" opacity="0.5244"/><circle cx="316.31857468119983" cy="789.4356128620907" r="4.992" fill="#EC4899" opacity="0.8346"/><circle cx="593.1690519610215" cy="382.9543347377424" r="9.128" fill="#F43F5E" opacity="0.5448"/><circle cx="249.57555076369022" cy="753.5913153573894" r="5.263999999999999" fill="#8B5CF6" opacity="0.855"/><circle cx="626.3988994244334" cy="396.76454957577806" r="9.4" fill="#F43F5E" opacity="0.5651999999999999"/><circle cx="190.1146251844076" cy="702.1659082916797" r="5.536" fill="#EC4899" opacity="0.8754"/><circle cx="657.5299534765035" cy="419.7344796460481" r="9.672" fill="#8B5CF6" opacity="0.5855999999999999"/><circle cx="141.59141767364366" cy="636.719596674403" r="5.808" fill="#EC4899" opacity="0.8957999999999999"/><circle cx="684.1170832699676" cy="451.491653829884" r="9.943999999999999" fill="#F43F5E" opacity="0.606"/><circle cx="107.3075269901006" cy="559.6696039987647" r="6.08" fill="#8B5CF6" opacity="0.3162"/><circle cx="703.8027186743375" cy="491.0305038631555" r="2.216" fill="#F43F5E" opacity="0.6264000000000001"/><circle cx="489.22131133297466" cy="499.32186238908344" r="6.352" fill="#EC4899" opacity="0.3366"/><circle cx="714.476263904422" cy="536.7381575694909" r="2.488" fill="#8B5CF6" opacity="0.6467999999999999"/><circle cx="476.5265248132995" cy="493.33997277337727" r="6.624" fill="#EC4899" opacity="0.357"/><circle cx="714.4253194509737" cy="586.4593683665794" r="2.76" fill="#F43F5E" opacity="0.6672"/><circle cx="466.4729333954718" cy="482.1132505777174" r="6.896" fill="#8B5CF6" opacity="0.37739999999999996"/><circle cx="702.4693245824127" cy="637.5980108982016" r="3.032" fill="#F43F5E" opacity="0.6876"/><circle cx="460.65796643180926" cy="466.6119123830167" r="7.168" fill="#EC4899" opacity="0.3978"/><circle cx="678.0670080872909" cy="687.2503688403328" r="3.3040000000000003" fill="#8B5CF6" opacity="0.708"/><circle cx="460.3629445903117" cy="448.23182600816114" r="7.44" fill="#EC4899" opacity="0.4182"/><circle cx="641.390317192833" cy="732.3634614222083" r="3.576" fill="#F43F5E" opacity="0.7283999999999999"/><circle cx="466.4485918246723" cy="428.69962826567763" r="7.712" fill="#8B5CF6" opacity="0.4386"/><circle cx="593.3592212694516" cy="769.9100142713522" r="3.848" fill="#F43F5E" opacity="0.7487999999999999"/><circle cx="479.27738168827716" cy="409.95371695452025" r="7.984" fill="#EC4899" opacity="0.45899999999999996"/><circle cx="535.6338703003851" cy="797.0704752872882" r="4.12" fill="#8B5CF6" opacity="0.7692"/><circle cx="498.66799977236457" cy="394.0083693143955" r="8.256" fill="#EC4899" opacity="0.47939999999999994"/><circle cx="470.5629195939687" cy="811.4117825278435" r="4.3919999999999995" fill="#F43F5E" opacity="0.7895999999999999"/><circle cx="523.885313669523" cy="382.80933573484407" r="8.527999999999999" fill="#8B5CF6" opacity="0.4998"/><circle cx="401.08928799186265" cy="811.0524570712203" r="4.664" fill="#F43F5E" opacity="0.81"/><circle cx="553.6671372370598" cy="378.08987580689376" r="8.8" fill="#EC4899" opacity="0.5202"/><circle cx="330.6170641845731" cy="794.8040383959267" r="4.936" fill="#8B5CF6" opacity="0.8304"/><circle cx="586.2868750365351" cy="381.2363052257577" r="9.072" fill="#EC4899" opacity="0.5406"/><circle cx="262.8455801366158" cy="762.2798908404183" r="5.208" fill="#F43F5E" opacity="0.8508"/><circle cx="619.6489597260388" cy="393.171696463546" r="9.344000000000001" fill="#8B5CF6" opacity="0.5609999999999999"/><circle cx="201.5787028201679" cy="713.9639441343012" r="5.48" fill="#F43F5E" opacity="0.8712"/><circle cx="651.4119733124975" cy="414.26544257059726" r="9.616" fill="#EC4899" opacity="0.5813999999999999"/><circle cx="150.51903853954002" cy="651.2339167537244" r="5.752" fill="#8B5CF6" opacity="0.8916"/><circle cx="679.1325885944702" cy="444.2749992961482" r="9.888" fill="#EC4899" opacity="0.6018"/><circle cx="113.05789992034909" cy="576.3359101992594" r="6.024" fill="#F43F5E" opacity="0.312"/><circle cx="700.4220821596064" cy="482.32433925399044" r="2.16" fill="#8B5CF6" opacity="0.6222"/><circle cx="492.0014211809535" cy="499.84921248227676" r="6.296" fill="#F43F5E" opacity="0.3324"/><circle cx="713.1062378423499" cy="526.9215785696125" r="2.432" fill="#EC4899" opacity="0.6426"/><circle cx="478.98107216278606" cy="495.02358838378564" r="6.568" fill="#8B5CF6" opacity="0.3528"/><circle cx="715.3790383979302" cy="576.0159839690501" r="2.7039999999999997" fill="#EC4899" opacity="0.663"/><circle cx="468.24488463023926" cy="484.81274719203026" r="6.84" fill="#F43F5E" opacity="0.3732"/><circle cx="705.9406645943154" cy="627.0922604506335" r="2.976" fill="#8B5CF6" opacity="0.6834"/><circle cx="461.4404353960663" cy="470.0901357817348" r="7.112" fill="#F43F5E" opacity="0.3936"/><circle cx="684.1109867613491" cy="677.297784965753" r="3.248" fill="#EC4899" opacity="0.7038"/><circle cx="459.9234344417811" cy="452.1708363750966" r="7.384" fill="#8B5CF6" opacity="0.414"/><circle cx="649.9109159586203" cy="723.5964160635128" r="3.52" fill="#EC4899" opacity="0.7242"/><circle cx="464.6485180661131" cy="432.7224203387334" r="7.656" fill="#F43F5E" opacity="0.4344"/><circle cx="604.105623499227" cy="762.9407902091975" r="3.792" fill="#8B5CF6" opacity="0.7445999999999999"/><circle cx="476.0855817568943" cy="413.65035842521513" r="7.928" fill="#F43F5E" opacity="0.4548"/><circle cx="548.2056557637635" cy="792.453713863212" r="4.064" fill="#EC4899" opacity="0.7649999999999999"/><circle cx="494.167287241455" cy="396.9649600287538" r="8.2" fill="#8B5CF6" opacity="0.47519999999999996"/><circle cx="484.42426136427144" cy="809.6084565478654" r="4.336" fill="#EC4899" opacity="0.7854"/><circle cx="518.2715455166989" cy="384.6380018184879" r="8.472000000000001" fill="#F43F5E" opacity="0.4956"/><circle cx="415.59168856458945" cy="812.3974983264475" r="4.6080000000000005" fill="#8B5CF6" opacity="0.8057999999999998"/><circle cx="547.2407078182728" cy="378.4579269354493" r="8.744" fill="#F43F5E" opacity="0.516"/><circle cx="345.0296709984343" cy="799.4796105399273" r="4.88" fill="#EC4899" opacity="0.8262"/><circle cx="579.4370053704939" cy="379.89270555970336" r="9.016" fill="#8B5CF6" opacity="0.5364"/><circle cx="276.3916643961596" cy="770.2960455657469" r="5.152" fill="#EC4899" opacity="0.8466"/><circle cx="612.8315897242405" cy="389.9691299666287" r="9.288" fill="#F43F5E" opacity="0.5568"/><circle cx="213.47649532941603" cy="725.1480430101178" r="5.4239999999999995" fill="#8B5CF6" opacity="0.867"/><circle cx="645.1224626577663" cy="409.1764852466871" r="9.559999999999999" fill="#F43F5E" opacity="0.5771999999999999"/><circle cx="160.02481490791172" cy="665.2297597940526" r="5.696" fill="#EC4899" opacity="0.8874"/><circle cx="673.8747661027408" cy="437.40123233866996" r="9.832" fill="#8B5CF6" opacity="0.5975999999999999"/><circle cx="119.50901339061369" cy="592.6130072344905" r="5.968" fill="#EC4899" opacity="0.30779999999999996"/><circle cx="696.6754340041902" cy="473.89763115609117" r="2.104" fill="#F43F5E" opacity="0.618"/><circle cx="494.8016422157268" cy="500.13067649630534" r="6.24" fill="#8B5CF6" opacity="0.3282"/><circle cx="711.2931767432143" cy="517.2972096524494" r="2.376" fill="#F43F5E" opacity="0.6384"/><circle cx="481.5329996863006" cy="496.4772312857884" r="6.512" fill="#EC4899" opacity="0.34859999999999997"/><circle cx="715.8342388316721" cy="565.6577592364581" r="2.648" fill="#8B5CF6" opacity="0.6587999999999999"/><circle cx="470.18448814534577" cy="487.31949319447466" r="6.784" fill="#EC4899" opacity="0.369"/><circle cx="708.8843791905329" cy="616.5502300734995" r="2.92" fill="#F43F5E" opacity="0.6792"/><circle cx="462.4483944670095" cy="473.4316556425757" r="7.056" fill="#8B5CF6" opacity="0.38939999999999997"/><circle cx="689.6280784025802" cy="667.1796395538192" r="3.192" fill="#F43F5E" opacity="0.6996"/><circle cx="459.75016463598695" cy="456.04421820545286" r="7.328" fill="#EC4899" opacity="0.4098"/><circle cx="657.9370568909062" cy="714.5340207534429" r="3.464" fill="#8B5CF6" opacity="0.72"/><circle cx="463.1347816402623" cy="436.76080586148447" r="7.6" fill="#EC4899" opacity="0.43019999999999997"/><circle cx="614.4217409261778" cy="755.5536444729807" r="3.7359999999999998" fill="#F43F5E" opacity="0.7404"/><circle cx="473.17732488825453" cy="417.44829438558065" r="7.872" fill="#8B5CF6" opacity="0.4506"/>
    <text x="500" y="960" font-family="system-ui, sans-serif" font-size="36" font-weight="700" fill="white" text-anchor="middle" opacity="0.85">vector</text>
  </svg>