<svg xmlns="http://www.w3.org/2000/svg" viewBox="0 0 1000 1000" width="1000" height="1000">
    <defs>
      <linearGradient id="g282" x1="0" y1="0" x2="1" y2="1">
        <stop offset="0%" stop-color="#6366F1"/>
        <stop offset="100%" stop-color="#8B5CF6"/>
      </linearGradient>
      <radialGradient id="glow282" cx="50%" cy="50%" r="60%">
        <stop offset="0%" stop-color="#A78BFA" stop-opacity="0.2"/>
        <stop offset="100%" stop-color="#A78BFA" stop-opacity="0"/>
      </radialGradient>
    </defs>
    <rect width="1000" height="1000" fill="#030712"/>
    <rect width="1000" height="1000" fill="url(#glow282)"/>
    <path d="M 0 500 L 0 364.63896220251627 L 16.666666666666668 391.23660268717106 L 33.333333333333336 428.48078631043245 L 50 472.7257393622869 L 66.66666666666667 519.6405206691261 L 83.33333333333333 564.6327171435898 L 100 603.2982432852607 L 116.66666666666667 631.8521924328174 L 133.33333333333334 647.4995458213552 L 150 648.7086089937671 L 166.66666666666666 635.3610321471106 L 183.33333333333331 608.7633882822105 L 200 571.5192021626816 L 216.66666666666669 527.2742477428931 L 233.33333333333334 480.35950178524917 L 250 435.3672710227717 L 266.6666666666667 396.7017731375541 L 283.3333333333333 368.1478013147737 L 300 352.5004582969416 L 316.66666666666663 351.29139272326137 L 333.3333333333333 364.6389580936189 L 350 391.23662074840877 L 366.66666666666663 428.48077792819026 L 383.33333333333337 472.7257651519272 L 400 519.6405112152709 L 416.6666666666667 564.6327408108662 L 433.33333333333337 603.2982363708439 L 450 631.8522049376342 L 466.6666666666667 647.4995440874494 L 483.3333333333333 648.7086102423733 L 500 635.3610362560087 L 516.6666666666667 608.763394849191 L 533.3333333333334 571.5192105449241 L 550 527.2742571198843 L 566.6666666666666 480.3594757842092 L 583.3333333333334 435.36727962808163 L 600 396.7017541207588 L 616.6666666666667 368.14780586146617 L 633.3333333333333 352.50045352816073 L 650 351.29139147465435 L 666.6666666666666 364.6389693943649 L 683.3333333333334 391.23661418142774 L 700 428.4807695459484 L 716.6666666666666 472.7257557749358 L 733.3333333333333 519.6405017614156 L 750 564.6327322055566 L 766.6666666666667 603.298229456427 L 783.3333333333334 631.8522003909424 L 800 647.4995423535429 L 816.6666666666666 648.7086068083169 L 833.3333333333334 635.3610403649061 L 850 608.7633767879528 L 866.6666666666667 571.5192189271664 L 883.3333333333333 527.2742313302439 L 900 480.3594852380644 L 916.6666666666666 435.36728823339183 L 933.3333333333334 396.70176103517525 L 950 368.1478104081592 L 966.6666666666666 352.5004552620664 L 983.3333333333333 351.29139022604795 L 1000 364.6389652854666" stroke="#6366F1" stroke-width="3" fill="none" opacity="0.7"/><path d="M 0 500 L 0 593.0884849087093 L 16.666666666666668 614.9762861098845 L 33.333333333333336 632.4360625507823 L 50 644.2779677427236 L 66.66666666666667 649.6949742919529 L 83.33333333333333 648.3179357969116 L 100 640.240695118079 L 116.66666666666667 626.0136871491399 L 133.33333333333334 606.6064843512827 L 150 583.3416447245702 L 166.66666666666666 557.804628012527 L 183.33333333333331 531.7357390105567 L 200 506.9115072021986 L 216.66666666666669 485.023707244787 L 233.33333333333334 467.56393250052065 L 250 455.72203729172463 L 266.6666666666667 450.3050250257458 L 283.3333333333333 451.682065799802 L 300 459.7593086488359 L 316.66666666666663 473.9863030397129 L 333.3333333333333 493.3935032012174 L 350 516.6583635174718 L 366.66666666666663 542.1953807030848 L 383.33333333333337 568.2642695846705 L 400 593.0884791718361 L 416.6666666666667 614.9762812774641 L 433.33333333333337 632.4360724481759 L 450 644.2779656230948 L 466.6666666666667 649.6949737957895 L 483.3333333333333 648.317936958026 L 500 640.2406875842486 L 516.6666666666667 626.0136912798791 L 533.3333333333334 606.6064895919926 L 550 583.341650718105 L 566.6666666666666 557.8046343504375 L 583.3333333333334 531.7357218201023 L 600 506.9115129390717 L 616.6666666666667 485.023712077207 L 633.3333333333333 467.5639360991663 L 650 455.7220314620863 L 666.6666666666666 450.30502552190876 L 683.3333333333334 451.68206463868694 L 700 459.7593059095709 L 716.6666666666666 473.9862989089743 L 733.3333333333333 493.39351761479793 L 750 516.6583575239367 L 766.6666666666667 542.1953743651743 L 783.3333333333334 568.2642633343025 L 800 593.0884949500202 L 816.6666666666666 614.9762945681214 L 833.3333333333334 632.4360688495307 L 850 644.2779635034657 L 866.6666666666667 649.6949732996256 L 883.3333333333333 648.3179337645994 L 900 640.2406903235141 L 916.6666666666666 626.0136954106182 L 933.3333333333334 606.6064948327022 L 950 583.3416342340213 L 966.6666666666666 557.8046169192139 L 983.3333333333333 531.7357280704703 L 1000 506.91151867594493" stroke="#8B5CF6" stroke-width="2" fill="none" opacity="0.5"/>
    <text x="500" y="960" font-family="system-ui, sans-serif" font-size="36" font-weight="700" fill="white" text-anchor="middle" opacity="0.85">regression</text>
  </svg>