<svg xmlns="http://www.w3.org/2000/svg" viewBox="0 0 1000 1000" width="1000" height="1000">
    <defs>
      <linearGradient id="g285" x1="0" y1="0" x2="1" y2="1">
        <stop offset="0%" stop-color="#F59E0B"/>
        <stop offset="100%" stop-color="#EF4444"/>
      </linearGradient>
      <radialGradient id="glow285" cx="50%" cy="50%" r="60%">
        <stop offset="0%" stop-color="#FCD34D" stop-opacity="0.2"/>
        <stop offset="100%" stop-color="#FCD34D" stop-opacity="0"/>
      </radialGradient>
    </defs>
    <rect width="1000" height="1000" fill="#030712"/>
    <rect width="1000" height="1000" fill="url(#glow285)"/>
    <line x1="460.8" y1="621.6" x2="382.4" y2="543.2" stroke="#F59E0B" stroke-width="1" opacity="0.24160808101421336"/><line x1="460.8" y1="621.6" x2="304" y2="464.79999999999995" stroke="#F59E0B" stroke-width="1" opacity="0.08321616202842669"/><line x1="460.8" y1="621.6" x2="464.79999999999995" y2="625.5999999999999" stroke="#F59E0B" stroke-width="1" opacity="0.3919187796435825"/><line x1="460.8" y1="621.6" x2="386.4" y2="547.2" stroke="#F59E0B" stroke-width="1" opacity="0.24968930137063106"/><line x1="460.8" y1="621.6" x2="308" y2="468.79999999999995" stroke="#F59E0B" stroke-width="1" opacity="0.09129738238484436"/><line x1="460.8" y1="621.6" x2="468.79999999999995" y2="629.5999999999999" stroke="#F59E0B" stroke-width="1" opacity="0.38383755928716484"/><line x1="460.8" y1="621.6" x2="390.4" y2="551.2" stroke="#F59E0B" stroke-width="1" opacity="0.25777052172704873"/><line x1="460.8" y1="621.6" x2="312" y2="472.8" stroke="#F59E0B" stroke-width="1" opacity="0.09937860274126209"/><line x1="460.8" y1="621.6" x2="472.8" y2="633.5999999999999" stroke="#F59E0B" stroke-width="1" opacity="0.37575633893074706"/><line x1="621.6" y1="382.4" x2="543.2" y2="304" stroke="#F59E0B" stroke-width="1" opacity="0.24160808101421344"/><line x1="621.6" y1="382.4" x2="625.5999999999999" y2="386.4" stroke="#F59E0B" stroke-width="1" opacity="0.39191877964358246"/><line x1="621.6" y1="382.4" x2="547.2" y2="308" stroke="#F59E0B" stroke-width="1" opacity="0.24968930137063108"/><line x1="621.6" y1="382.4" x2="629.5999999999999" y2="390.4" stroke="#F59E0B" stroke-width="1" opacity="0.3838375592871648"/><line x1="621.6" y1="382.4" x2="551.2" y2="312" stroke="#F59E0B" stroke-width="1" opacity="0.2577705217270488"/><line x1="382.4" y1="543.2" x2="304" y2="464.79999999999995" stroke="#F59E0B" stroke-width="1" opacity="0.2416080810142133"/><line x1="382.4" y1="543.2" x2="464.79999999999995" y2="625.5999999999999" stroke="#F59E0B" stroke-width="1" opacity="0.23352686065779585"/><line x1="382.4" y1="543.2" x2="386.4" y2="547.2" stroke="#F59E0B" stroke-width="1" opacity="0.39191877964358235"/><line x1="382.4" y1="543.2" x2="308" y2="468.79999999999995" stroke="#F59E0B" stroke-width="1" opacity="0.249689301370631"/><line x1="382.4" y1="543.2" x2="468.79999999999995" y2="629.5999999999999" stroke="#F59E0B" stroke-width="1" opacity="0.22544564030137818"/><line x1="382.4" y1="543.2" x2="390.4" y2="551.2" stroke="#F59E0B" stroke-width="1" opacity="0.3838375592871647"/><line x1="382.4" y1="543.2" x2="312" y2="472.8" stroke="#F59E0B" stroke-width="1" opacity="0.25777052172704873"/><line x1="382.4" y1="543.2" x2="472.8" y2="633.5999999999999" stroke="#F59E0B" stroke-width="1" opacity="0.21736441994496042"/><line x1="543.2" y1="304" x2="625.5999999999999" y2="386.4" stroke="#F59E0B" stroke-width="1" opacity="0.23352686065779585"/><line x1="543.2" y1="304" x2="547.2" y2="308" stroke="#F59E0B" stroke-width="1" opacity="0.39191877964358235"/><line x1="543.2" y1="304" x2="629.5999999999999" y2="390.4" stroke="#F59E0B" stroke-width="1" opacity="0.22544564030137818"/><line x1="543.2" y1="304" x2="551.2" y2="312" stroke="#F59E0B" stroke-width="1" opacity="0.3838375592871647"/><line x1="304" y1="464.79999999999995" x2="464.79999999999995" y2="625.5999999999999" stroke="#F59E0B" stroke-width="1" opacity="0.07513494167200918"/><line x1="304" y1="464.79999999999995" x2="386.4" y2="547.2" stroke="#F59E0B" stroke-width="1" opacity="0.23352686065779563"/><line x1="304" y1="464.79999999999995" x2="308" y2="468.79999999999995" stroke="#F59E0B" stroke-width="1" opacity="0.39191877964358235"/><line x1="304" y1="464.79999999999995" x2="468.79999999999995" y2="629.5999999999999" stroke="#F59E0B" stroke-width="1" opacity="0.06705372131559145"/><line x1="304" y1="464.79999999999995" x2="390.4" y2="551.2" stroke="#F59E0B" stroke-width="1" opacity="0.22544564030137793"/><line x1="304" y1="464.79999999999995" x2="312" y2="472.8" stroke="#F59E0B" stroke-width="1" opacity="0.38383755928716456"/><line x1="304" y1="464.79999999999995" x2="472.8" y2="633.5999999999999" stroke="#F59E0B" stroke-width="1" opacity="0.058972500959173724"/><line x1="464.79999999999995" y1="625.5999999999999" x2="386.4" y2="547.2" stroke="#F59E0B" stroke-width="1" opacity="0.24160808101421352"/><line x1="464.79999999999995" y1="625.5999999999999" x2="308" y2="468.79999999999995" stroke="#F59E0B" stroke-width="1" opacity="0.08321616202842685"/><line x1="464.79999999999995" y1="625.5999999999999" x2="468.79999999999995" y2="629.5999999999999" stroke="#F59E0B" stroke-width="1" opacity="0.39191877964358235"/><line x1="464.79999999999995" y1="625.5999999999999" x2="390.4" y2="551.2" stroke="#F59E0B" stroke-width="1" opacity="0.24968930137063125"/><line x1="464.79999999999995" y1="625.5999999999999" x2="312" y2="472.8" stroke="#F59E0B" stroke-width="1" opacity="0.09129738238484458"/><line x1="464.79999999999995" y1="625.5999999999999" x2="472.8" y2="633.5999999999999" stroke="#F59E0B" stroke-width="1" opacity="0.38383755928716456"/><line x1="625.5999999999999" y1="386.4" x2="547.2" y2="308" stroke="#F59E0B" stroke-width="1" opacity="0.24160808101421352"/><line x1="625.5999999999999" y1="386.4" x2="629.5999999999999" y2="390.4" stroke="#F59E0B" stroke-width="1" opacity="0.39191877964358235"/><line x1="625.5999999999999" y1="386.4" x2="551.2" y2="312" stroke="#F59E0B" stroke-width="1" opacity="0.24968930137063125"/><line x1="386.4" y1="547.2" x2="308" y2="468.79999999999995" stroke="#F59E0B" stroke-width="1" opacity="0.2416080810142133"/><line x1="386.4" y1="547.2" x2="468.79999999999995" y2="629.5999999999999" stroke="#F59E0B" stroke-width="1" opacity="0.23352686065779585"/><line x1="386.4" y1="547.2" x2="390.4" y2="551.2" stroke="#F59E0B" stroke-width="1" opacity="0.39191877964358235"/><line x1="386.4" y1="547.2" x2="312" y2="472.8" stroke="#F59E0B" stroke-width="1" opacity="0.24968930137063106"/><line x1="386.4" y1="547.2" x2="472.8" y2="633.5999999999999" stroke="#F59E0B" stroke-width="1" opacity="0.2254456403013781"/><line x1="547.2" y1="308" x2="629.5999999999999" y2="390.4" stroke="#F59E0B" stroke-width="1" opacity="0.23352686065779585"/><line x1="547.2" y1="308" x2="551.2" y2="312" stroke="#F59E0B" stroke-width="1" opacity="0.39191877964358235"/><line x1="308" y1="468.79999999999995" x2="468.79999999999995" y2="629.5999999999999" stroke="#F59E0B" stroke-width="1" opacity="0.07513494167200918"/><line x1="308" y1="468.79999999999995" x2="390.4" y2="551.2" stroke="#F59E0B" stroke-width="1" opacity="0.23352686065779563"/><line x1="308" y1="468.79999999999995" x2="312" y2="472.8" stroke="#F59E0B" stroke-width="1" opacity="0.3919187796435823"/><line x1="308" y1="468.79999999999995" x2="472.8" y2="633.5999999999999" stroke="#F59E0B" stroke-width="1" opacity="0.0670537213155914"/><line x1="468.79999999999995" y1="629.5999999999999" x2="390.4" y2="551.2" stroke="#F59E0B" stroke-width="1" opacity="0.24160808101421352"/><line x1="468.79999999999995" y1="629.5999999999999" x2="312" y2="472.8" stroke="#F59E0B" stroke-width="1" opacity="0.08321616202842685"/><line x1="468.79999999999995" y1="629.5999999999999" x2="472.8" y2="633.5999999999999" stroke="#F59E0B" stroke-width="1" opacity="0.3919187796435823"/><line x1="629.5999999999999" y1="390.4" x2="551.2" y2="312" stroke="#F59E0B" stroke-width="1" opacity="0.24160808101421352"/><line x1="390.4" y1="551.2" x2="312" y2="472.8" stroke="#F59E0B" stroke-width="1" opacity="0.24160808101421336"/><line x1="390.4" y1="551.2" x2="472.8" y2="633.5999999999999" stroke="#F59E0B" stroke-width="1" opacity="0.2335268606577958"/><line x1="312" y1="472.8" x2="472.8" y2="633.5999999999999" stroke="#F59E0B" stroke-width="1" opacity="0.07513494167200918"/><circle cx="460.8" cy="621.6" r="6" fill="#EC4899" opacity="0.8"/><circle cx="621.6" cy="382.4" r="6" fill="#EC4899" opacity="0.8"/><circle cx="382.4" cy="543.2" r="6" fill="#EC4899" opacity="0.8"/><circle cx="543.2" cy="304" r="6" fill="#EC4899" opacity="0.8"/><circle cx="304" cy="464.79999999999995" r="6" fill="#EC4899" opacity="0.8"/><circle cx="464.79999999999995" cy="625.5999999999999" r="6" fill="#EC4899" opacity="0.8"/><circle cx="625.5999999999999" cy="386.4" r="6" fill="#EC4899" opacity="0.8"/><circle cx="386.4" cy="547.2" r="6" fill="#EC4899" opacity="0.8"/><circle cx="547.2" cy="308" r="6" fill="#EC4899" opacity="0.8"/><circle cx="308" cy="468.79999999999995" r="6" fill="#EC4899" opacity="0.8"/><circle cx="468.79999999999995" cy="629.5999999999999" r="6" fill="#EC4899" opacity="0.8"/><circle cx="629.5999999999999" cy="390.4" r="6" fill="#EC4899" opacity="0.8"/><circle cx="390.4" cy="551.2" r="6" fill="#EC4899" opacity="0.8"/><circle cx="551.2" cy="312" r="6" fill="#EC4899" opacity="0.8"/><circle cx="312" cy="472.8" r="6" fill="#EC4899" opacity="0.8"/><circle cx="472.8" cy="633.5999999999999" r="6" fill="#EC4899" opacity="0.8"/>
    <text x="500" y="960" font-family="system-ui, sans-serif" font-size="36" font-weight="700" fill="white" text-anchor="middle" opacity="0.85">design</text>
  </svg>