<svg xmlns="http://www.w3.org/2000/svg" viewBox="0 0 1000 1000" width="1000" height="1000">
    <defs>
      <linearGradient id="g286" x1="0" y1="0" x2="1" y2="1">
        <stop offset="0%" stop-color="#EC4899"/>
        <stop offset="100%" stop-color="#F43F5E"/>
      </linearGradient>
      <radialGradient id="glow286" cx="50%" cy="50%" r="60%">
        <stop offset="0%" stop-color="#F9A8D4" stop-opacity="0.2"/>
        <stop offset="100%" stop-color="#F9A8D4" stop-opacity="0"/>
      </radialGradient>
    </defs>
    <rect width="1000" height="1000" fill="#030712"/>
    <rect width="1000" height="1000" fill="url(#glow286)"/>
    <path d="M 0 500 L 0 637.8020755054105 L 16.666666666666668 649.366885162088 L 33.333333333333336 646.3106234746808 L 50 628.9324589072863 L 66.66666666666667 598.9334857474715 L 83.33333333333333 559.2502152114374 L 100 513.767121015514 L 116.66666666666667 466.9364029656247 L 133.33333333333334 423.34218226097335 L 150 387.2517610970261 L 166.66666666666666 362.1979246121531 L 183.33333333333331 350.63311466008247 L 200 353.68937645971477 L 216.66666666666669 371.0675409406102 L 233.33333333333334 401.0665140288149 L 250 440.74978451513743 L 266.6666666666667 486.2328809138541 L 283.3333333333333 533.0635967440676 L 300 576.6578174832006 L 316.66666666666663 612.7482387066714 L 333.3333333333333 637.8020752702835 L 350 649.366885312601 L 366.66666666666663 646.3106236058895 L 383.33333333333337 628.9324580692028 L 400 598.9334861948987 L 416.6666666666667 559.2502157582876 L 433.33333333333337 513.7671193825178 L 450 466.93640354624006 L 466.6666666666667 423.3421808513822 L 483.3333333333333 387.2517614896312 L 500 362.1979248472801 L 516.6666666666667 350.6331147147156 L 533.3333333333334 353.68937632850606 L 550 371.06754177869374 L 566.6666666666666 401.06651358138765 L 583.3333333333334 440.74978396828726 L 600 486.2328803211104 L 616.6666666666667 533.0635961634523 L 633.3333333333333 576.6578188927916 L 650 612.7482383140663 L 666.6666666666666 637.8020759180533 L 683.3333333333334 649.3668852579679 L 700 646.3106237370984 L 716.6666666666666 628.9324583734096 L 733.3333333333333 598.933486642326 L 750 559.2502142517269 L 766.6666666666667 513.7671199752615 L 783.3333333333334 466.9364041268554 L 800 423.34218136303446 L 816.6666666666666 387.2517618822363 L 833.3333333333334 362.1979241995101 L 850 350.63311476934865 L 866.6666666666667 353.6893761972973 L 883.3333333333333 371.0675414744868 L 900 401.0665131339605 L 916.6666666666666 440.74978547484795 L 933.3333333333334 486.2328797283667 L 950 533.0635977630351 L 966.6666666666666 576.6578183811394 L 983.3333333333333 612.7482379214612 L 1000 637.8020756829263" stroke="#EC4899" stroke-width="3" fill="none" opacity="0.7"/><path d="M 0 500 L 0 589.50014338315 L 16.666666666666668 564.3770068513139 L 33.333333333333336 538.2741024873071 L 50 512.9702972304127 L 66.66666666666667 490.1900063566428 L 83.33333333333333 471.48566655034125 L 100 458.13194970224754 L 116.66666666666667 451.0388880864092 L 133.33333333333334 450.6898629049763 L 150 457.1086596090836 L 166.66666666666666 469.85784710969904 L 183.33333333333331 488.06859074262957 L 200 510.49985643456665 L 216.66666666666669 535.6229929523287 L 233.33333333333334 561.7258973156429 L 250 587.0297025852735 L 266.6666666666667 609.8099934843402 L 283.3333333333333 628.5143333267753 L 300 641.8680502193768 L 316.66666666666663 648.9611118850642 L 333.3333333333333 649.3101371182901 L 350 642.8913404643903 L 366.66666666666663 630.1421530089751 L 383.33333333333337 611.9314094131576 L 400 589.5001437477167 L 416.6666666666667 564.3770072440286 L 433.33333333333337 538.2741028814069 L 450 512.9702975990404 L 466.6666666666667 490.19000667467685 L 483.3333333333333 471.48566679610826 L 500 458.1319498589989 L 516.6666666666667 451.03888814346254 L 533.3333333333334 450.6898628584435 L 550 457.10865946213585 L 566.6666666666666 469.8578468723506 L 583.3333333333334 488.06859043105527 L 600 510.49985606999985 L 616.6666666666667 535.622992559614 L 633.3333333333333 561.7258969215432 L 650 587.0297022166459 L 666.6666666666666 609.8099931663062 L 683.3333333333334 628.5143330810082 L 700 641.8680500626255 L 716.6666666666666 648.9611118280108 L 733.3333333333333 649.3101371648229 L 750 642.891340611338 L 766.6666666666667 630.1421523550853 L 783.3333333333334 611.9314097247319 L 800 589.500142743343 L 816.6666666666666 564.3770076367434 L 833.3333333333334 538.2741017956704 L 850 512.9702979676679 L 866.6666666666667 490.1900057984998 L 883.3333333333333 471.4856670418753 L 900 458.1319494271522 L 916.6666666666666 451.0388882005159 L 933.3333333333334 450.68986298664026 L 950 457.1086593151881 L 966.6666666666666 469.8578475262405 L 983.3333333333333 488.068590119481 L 1000 510.49985707437367" stroke="#F43F5E" stroke-width="2" fill="none" opacity="0.5"/>
    <text x="500" y="960" font-family="system-ui, sans-serif" font-size="36" font-weight="700" fill="white" text-anchor="middle" opacity="0.85">video</text>
  </svg>