<svg xmlns="http://www.w3.org/2000/svg" viewBox="0 0 1000 1000" width="1000" height="1000">
    <defs>
      <linearGradient id="g287" x1="0" y1="0" x2="1" y2="1">
        <stop offset="0%" stop-color="#8B5CF6"/>
        <stop offset="100%" stop-color="#6366F1"/>
      </linearGradient>
      <radialGradient id="glow287" cx="50%" cy="50%" r="60%">
        <stop offset="0%" stop-color="#C4B5FD" stop-opacity="0.2"/>
        <stop offset="100%" stop-color="#C4B5FD" stop-opacity="0"/>
      </radialGradient>
    </defs>
    <rect width="1000" height="1000" fill="#0F172A"/>
    <rect width="1000" height="1000" fill="url(#glow287)"/>
    <line x1="592.8" y1="485.6" x2="485.6" y2="378.4" stroke="#8B5CF6" stroke-width="1" opacity="0.18342329444800606"/><line x1="592.8" y1="485.6" x2="671.2" y2="564" stroke="#8B5CF6" stroke-width="1" opacity="0.2416080810142133"/><line x1="592.8" y1="485.6" x2="564" y2="456.8" stroke="#8B5CF6" stroke-width="1" opacity="0.34181521343379273"/><line x1="592.8" y1="485.6" x2="456.8" y2="349.6" stroke="#8B5CF6" stroke-width="1" opacity="0.12523850788179874"/><line x1="592.8" y1="485.6" x2="642.4" y2="535.2" stroke="#8B5CF6" stroke-width="1" opacity="0.2997928675804207"/><line x1="592.8" y1="485.6" x2="535.2" y2="428" stroke="#8B5CF6" stroke-width="1" opacity="0.28363042686758544"/><line x1="592.8" y1="485.6" x2="428" y2="320.8" stroke="#8B5CF6" stroke-width="1" opacity="0.0670537213155914"/><line x1="592.8" y1="485.6" x2="613.6" y2="506.4" stroke="#8B5CF6" stroke-width="1" opacity="0.357977654146628"/><line x1="592.8" y1="485.6" x2="506.4" y2="399.2" stroke="#8B5CF6" stroke-width="1" opacity="0.22544564030137798"/><line x1="592.8" y1="485.6" x2="692" y2="584.8" stroke="#8B5CF6" stroke-width="1" opacity="0.19958573516084144"/><line x1="592.8" y1="485.6" x2="584.8" y2="477.6" stroke="#8B5CF6" stroke-width="1" opacity="0.3838375592871647"/><line x1="485.6" y1="378.4" x2="671.2" y2="564" stroke="#8B5CF6" stroke-width="1" opacity="0.02503137546221934"/><line x1="485.6" y1="378.4" x2="564" y2="456.8" stroke="#8B5CF6" stroke-width="1" opacity="0.24160808101421336"/><line x1="485.6" y1="378.4" x2="456.8" y2="349.6" stroke="#8B5CF6" stroke-width="1" opacity="0.34181521343379273"/><line x1="485.6" y1="378.4" x2="642.4" y2="535.2" stroke="#8B5CF6" stroke-width="1" opacity="0.08321616202842669"/><line x1="485.6" y1="378.4" x2="535.2" y2="428" stroke="#8B5CF6" stroke-width="1" opacity="0.2997928675804207"/><line x1="485.6" y1="378.4" x2="428" y2="320.8" stroke="#8B5CF6" stroke-width="1" opacity="0.28363042686758533"/><line x1="485.6" y1="378.4" x2="613.6" y2="506.4" stroke="#8B5CF6" stroke-width="1" opacity="0.14140094859463403"/><line x1="485.6" y1="378.4" x2="506.4" y2="399.2" stroke="#8B5CF6" stroke-width="1" opacity="0.3579776541466281"/><line x1="485.6" y1="378.4" x2="584.8" y2="477.6" stroke="#8B5CF6" stroke-width="1" opacity="0.19958573516084144"/><line x1="378.4" y1="671.2" x2="349.6" y2="642.4" stroke="#8B5CF6" stroke-width="1" opacity="0.3418152134337927"/><line x1="378.4" y1="671.2" x2="320.8" y2="613.6" stroke="#8B5CF6" stroke-width="1" opacity="0.28363042686758533"/><line x1="378.4" y1="671.2" x2="399.2" y2="692" stroke="#8B5CF6" stroke-width="1" opacity="0.3579776541466281"/><line x1="671.2" y1="564" x2="564" y2="456.8" stroke="#8B5CF6" stroke-width="1" opacity="0.183423294448006"/><line x1="671.2" y1="564" x2="642.4" y2="535.2" stroke="#8B5CF6" stroke-width="1" opacity="0.3418152134337927"/><line x1="671.2" y1="564" x2="535.2" y2="428" stroke="#8B5CF6" stroke-width="1" opacity="0.1252385078817987"/><line x1="671.2" y1="564" x2="613.6" y2="506.4" stroke="#8B5CF6" stroke-width="1" opacity="0.28363042686758533"/><line x1="671.2" y1="564" x2="506.4" y2="399.2" stroke="#8B5CF6" stroke-width="1" opacity="0.06705372131559123"/><line x1="671.2" y1="564" x2="692" y2="584.8" stroke="#8B5CF6" stroke-width="1" opacity="0.35797765414662813"/><line x1="671.2" y1="564" x2="584.8" y2="477.6" stroke="#8B5CF6" stroke-width="1" opacity="0.22544564030137793"/><line x1="564" y1="456.8" x2="456.8" y2="349.6" stroke="#8B5CF6" stroke-width="1" opacity="0.18342329444800606"/><line x1="564" y1="456.8" x2="642.4" y2="535.2" stroke="#8B5CF6" stroke-width="1" opacity="0.24160808101421336"/><line x1="564" y1="456.8" x2="535.2" y2="428" stroke="#8B5CF6" stroke-width="1" opacity="0.34181521343379273"/><line x1="564" y1="456.8" x2="428" y2="320.8" stroke="#8B5CF6" stroke-width="1" opacity="0.1252385078817987"/><line x1="564" y1="456.8" x2="613.6" y2="506.4" stroke="#8B5CF6" stroke-width="1" opacity="0.29979286758042073"/><line x1="564" y1="456.8" x2="506.4" y2="399.2" stroke="#8B5CF6" stroke-width="1" opacity="0.28363042686758533"/><line x1="564" y1="456.8" x2="692" y2="584.8" stroke="#8B5CF6" stroke-width="1" opacity="0.14140094859463415"/><line x1="564" y1="456.8" x2="584.8" y2="477.6" stroke="#8B5CF6" stroke-width="1" opacity="0.3579776541466281"/><line x1="456.8" y1="349.6" x2="642.4" y2="535.2" stroke="#8B5CF6" stroke-width="1" opacity="0.025031375462219396"/><line x1="456.8" y1="349.6" x2="535.2" y2="428" stroke="#8B5CF6" stroke-width="1" opacity="0.24160808101421336"/><line x1="456.8" y1="349.6" x2="428" y2="320.8" stroke="#8B5CF6" stroke-width="1" opacity="0.3418152134337927"/><line x1="456.8" y1="349.6" x2="613.6" y2="506.4" stroke="#8B5CF6" stroke-width="1" opacity="0.08321616202842674"/><line x1="456.8" y1="349.6" x2="506.4" y2="399.2" stroke="#8B5CF6" stroke-width="1" opacity="0.2997928675804208"/><line x1="456.8" y1="349.6" x2="584.8" y2="477.6" stroke="#8B5CF6" stroke-width="1" opacity="0.14140094859463415"/><line x1="349.6" y1="642.4" x2="320.8" y2="613.6" stroke="#8B5CF6" stroke-width="1" opacity="0.34181521343379273"/><line x1="349.6" y1="642.4" x2="399.2" y2="692" stroke="#8B5CF6" stroke-width="1" opacity="0.29979286758042073"/><line x1="642.4" y1="535.2" x2="535.2" y2="428" stroke="#8B5CF6" stroke-width="1" opacity="0.18342329444800606"/><line x1="642.4" y1="535.2" x2="613.6" y2="506.4" stroke="#8B5CF6" stroke-width="1" opacity="0.3418152134337927"/><line x1="642.4" y1="535.2" x2="506.4" y2="399.2" stroke="#8B5CF6" stroke-width="1" opacity="0.12523850788179863"/><line x1="642.4" y1="535.2" x2="692" y2="584.8" stroke="#8B5CF6" stroke-width="1" opacity="0.2997928675804208"/><line x1="642.4" y1="535.2" x2="584.8" y2="477.6" stroke="#8B5CF6" stroke-width="1" opacity="0.28363042686758533"/><line x1="535.2" y1="428" x2="428" y2="320.8" stroke="#8B5CF6" stroke-width="1" opacity="0.183423294448006"/><line x1="535.2" y1="428" x2="613.6" y2="506.4" stroke="#8B5CF6" stroke-width="1" opacity="0.24160808101421344"/><line x1="535.2" y1="428" x2="506.4" y2="399.2" stroke="#8B5CF6" stroke-width="1" opacity="0.3418152134337926"/><line x1="535.2" y1="428" x2="692" y2="584.8" stroke="#8B5CF6" stroke-width="1" opacity="0.08321616202842685"/><line x1="535.2" y1="428" x2="584.8" y2="477.6" stroke="#8B5CF6" stroke-width="1" opacity="0.2997928675804208"/><line x1="428" y1="320.8" x2="613.6" y2="506.4" stroke="#8B5CF6" stroke-width="1" opacity="0.025031375462219396"/><line x1="428" y1="320.8" x2="506.4" y2="399.2" stroke="#8B5CF6" stroke-width="1" opacity="0.24160808101421344"/><line x1="428" y1="320.8" x2="584.8" y2="477.6" stroke="#8B5CF6" stroke-width="1" opacity="0.08321616202842674"/><line x1="320.8" y1="613.6" x2="399.2" y2="692" stroke="#8B5CF6" stroke-width="1" opacity="0.24160808101421344"/><line x1="613.6" y1="506.4" x2="506.4" y2="399.2" stroke="#8B5CF6" stroke-width="1" opacity="0.183423294448006"/><line x1="613.6" y1="506.4" x2="692" y2="584.8" stroke="#8B5CF6" stroke-width="1" opacity="0.24160808101421344"/><line x1="613.6" y1="506.4" x2="584.8" y2="477.6" stroke="#8B5CF6" stroke-width="1" opacity="0.3418152134337927"/><line x1="506.4" y1="399.2" x2="692" y2="584.8" stroke="#8B5CF6" stroke-width="1" opacity="0.025031375462219396"/><line x1="506.4" y1="399.2" x2="584.8" y2="477.6" stroke="#8B5CF6" stroke-width="1" opacity="0.24160808101421336"/><line x1="692" y1="584.8" x2="584.8" y2="477.6" stroke="#8B5CF6" stroke-width="1" opacity="0.18342329444800606"/><circle cx="592.8" cy="485.6" r="6" fill="#06B6D4" opacity="0.8"/><circle cx="485.6" cy="378.4" r="6" fill="#06B6D4" opacity="0.8"/><circle cx="378.4" cy="671.2" r="6" fill="#06B6D4" opacity="0.8"/><circle cx="671.2" cy="564" r="6" fill="#06B6D4" opacity="0.8"/><circle cx="564" cy="456.8" r="6" fill="#06B6D4" opacity="0.8"/><circle cx="456.8" cy="349.6" r="6" fill="#06B6D4" opacity="0.8"/><circle cx="349.6" cy="642.4" r="6" fill="#06B6D4" opacity="0.8"/><circle cx="642.4" cy="535.2" r="6" fill="#06B6D4" opacity="0.8"/><circle cx="535.2" cy="428" r="6" fill="#06B6D4" opacity="0.8"/><circle cx="428" cy="320.8" r="6" fill="#06B6D4" opacity="0.8"/><circle cx="320.8" cy="613.6" r="6" fill="#06B6D4" opacity="0.8"/><circle cx="613.6" cy="506.4" r="6" fill="#06B6D4" opacity="0.8"/><circle cx="506.4" cy="399.2" r="6" fill="#06B6D4" opacity="0.8"/><circle cx="399.2" cy="692" r="6" fill="#06B6D4" opacity="0.8"/><circle cx="692" cy="584.8" r="6" fill="#06B6D4" opacity="0.8"/><circle cx="584.8" cy="477.6" r="6" fill="#06B6D4" opacity="0.8"/>
    <text x="500" y="960" font-family="system-ui, sans-serif" font-size="36" font-weight="700" fill="white" text-anchor="middle" opacity="0.85">writing</text>
  </svg>