<svg xmlns="http://www.w3.org/2000/svg" viewBox="0 0 1000 1000" width="1000" height="1000">
    <defs>
      <linearGradient id="g288" x1="0" y1="0" x2="1" y2="1">
        <stop offset="0%" stop-color="#6366F1"/>
        <stop offset="100%" stop-color="#8B5CF6"/>
      </linearGradient>
      <radialGradient id="glow288" cx="50%" cy="50%" r="60%">
        <stop offset="0%" stop-color="#A78BFA" stop-opacity="0.2"/>
        <stop offset="100%" stop-color="#A78BFA" stop-opacity="0"/>
      </radialGradient>
    </defs>
    <rect width="1000" height="1000" fill="#030712"/>
    <rect width="1000" height="1000" fill="url(#glow288)"/>
    <path d="M 0 500 L 0 538.804390726396 L 16.666666666666668 492.1305166253439 L 33.333333333333336 446.22696027035073 L 50 405.5870857303083 L 66.66666666666667 374.1890034759398 L 83.33333333333333 355.1061793960934 L 100 350.2065714600438 L 116.66666666666667 359.9697882127782 L 133.33333333333334 383.4401370928254 L 150 418.3201789056021 L 166.66666666666666 461.1956089861076 L 183.33333333333331 507.8694853095339 L 200 553.7730394518031 L 216.66666666666669 594.4129140384151 L 233.33333333333334 625.8109963619921 L 250 644.8938205269114 L 266.6666666666667 649.7934284383063 L 283.3333333333333 640.0302118939176 L 300 616.5598630945075 L 316.66666666666663 581.6798213440304 L 333.3333333333333 538.8043913013889 L 350 492.13051498768425 L 366.66666666666663 446.22696082604307 L 383.33333333333337 405.58708445598415 L 400 374.18900380007585 L 416.6666666666667 355.10617955008377 L 433.33333333333337 350.2065715460792 L 450 359.96978799938665 L 466.6666666666667 383.4401381250217 L 483.3333333333333 418.32017840633694 L 500 461.1956084111146 L 516.6666666666667 507.86948471509754 L 533.3333333333334 553.7730388961108 L 550 594.4129153127393 L 566.6666666666666 625.8109960378561 L 583.3333333333334 644.893820372921 L 600 649.7934284695353 L 616.6666666666667 640.0302121073091 L 633.3333333333333 616.5598620623111 L 650 581.6798218432956 L 666.6666666666666 538.8043897172956 L 683.3333333333334 492.13051558212067 L 700 446.22696138173535 L 716.6666666666666 405.5870849185373 L 733.3333333333333 374.18900412421203 L 750 355.1061791258436 L 766.6666666666667 350.2065715148501 L 783.3333333333334 359.9697877859951 L 800 383.4401377503559 L 816.6666666666666 418.3201779070718 L 833.3333333333334 461.1956099952079 L 850 507.8694841206611 L 866.6666666666667 553.7730383404185 L 883.3333333333333 594.4129148501861 L 900 625.81099571372 L 916.6666666666666 644.8938207971612 L 933.3333333333334 649.7934285007644 L 950 640.0302115194199 L 966.6666666666666 616.559862436977 L 983.3333333333333 581.6798223425608 L 1000 538.8043902922885" stroke="#6366F1" stroke-width="3" fill="none" opacity="0.7"/><path d="M 0 500 L 0 453.4041195717306 L 16.666666666666668 450.000000812236 L 33.333333333333336 453.41071673083275 L 50 463.40383304732455 L 66.66666666666667 479.2983343074674 L 83.33333333333333 500.01103825637597 L 100 524.1304060865705 L 116.66666666666667 550.0127453785706 L 133.33333333333334 575.8942146547431 L 150 600.011037386874 L 166.66666666666666 620.7196893261023 L 183.33333333333331 636.6089123312605 L 200 646.5958803769394 L 216.66666666666669 649.9999991877893 L 233.33333333333334 646.5892833205462 L 250 636.5961670519067 L 266.6666666666667 620.7016658328537 L 283.3333333333333 599.9889619154723 L 300 575.8695941050938 L 316.66666666666663 549.9872548198482 L 333.3333333333333 524.1057855369081 L 350 499.98896278494897 L 366.66666666666663 479.28031081418305 L 383.33333333333337 463.39108776792693 L 400 453.40411967439076 L 416.6666666666667 450.0000008121855 L 433.33333333333337 453.41071662807485 L 450 463.40383284886207 L 466.6666666666667 479.2983340268252 L 483.3333333333333 500.0110379126794 L 500 524.1304057032419 L 516.6666666666667 550.012744981733 L 533.3333333333334 575.8942142714407 L 550 600.011037043228 L 566.6666666666666 620.7196890455316 L 583.3333333333334 636.6089121328856 L 600 646.5958802742791 L 616.6666666666667 649.9999991878399 L 633.3333333333333 646.5892834233041 L 650 636.5961672503693 L 666.6666666666666 620.7016661134959 L 683.3333333333334 599.9889622591688 L 700 575.8695944884224 L 716.6666666666666 549.9872552166856 L 733.3333333333333 524.1057859202106 L 750 499.98896312859495 L 766.6666666666667 479.2803100412168 L 783.3333333333334 463.3910879663018 L 800 453.404119391564 L 816.6666666666666 450.0000008121349 L 833.3333333333334 453.41071691117077 L 850 463.4038326503995 L 866.6666666666667 479.29833479998854 L 883.3333333333333 500.01103756898283 L 900 524.1304067593042 L 916.6666666666666 550.0127445848957 L 933.3333333333334 575.8942153274307 L 950 600.0110366995821 L 966.6666666666666 620.7196898184978 L 983.3333333333333 636.6089119345107 L 1000 646.5958805571058" stroke="#8B5CF6" stroke-width="2" fill="none" opacity="0.5"/>
    <text x="500" y="960" font-family="system-ui, sans-serif" font-size="36" font-weight="700" fill="white" text-anchor="middle" opacity="0.85">music</text>
  </svg>