<svg xmlns="http://www.w3.org/2000/svg" viewBox="0 0 1000 1000" width="1000" height="1000">
    <defs>
      <linearGradient id="g290" x1="0" y1="0" x2="1" y2="1">
        <stop offset="0%" stop-color="#10B981"/>
        <stop offset="100%" stop-color="#14B8A6"/>
      </linearGradient>
      <radialGradient id="glow290" cx="50%" cy="50%" r="60%">
        <stop offset="0%" stop-color="#6EE7B7" stop-opacity="0.2"/>
        <stop offset="100%" stop-color="#6EE7B7" stop-opacity="0"/>
      </radialGradient>
    </defs>
    <rect width="1000" height="1000" fill="#030712"/>
    <rect width="1000" height="1000" fill="url(#glow290)"/>
    <line x1="568.8" y1="437.6" x2="437.6" y2="306.4" stroke="#10B981" stroke-width="1" opacity="0.13493597230949994"/><line x1="568.8" y1="437.6" x2="575.2" y2="444" stroke="#10B981" stroke-width="1" opacity="0.38707004742973167"/><line x1="568.8" y1="437.6" x2="444" y2="312.8" stroke="#10B981" stroke-width="1" opacity="0.1478659248797683"/><line x1="568.8" y1="437.6" x2="581.5999999999999" y2="450.4" stroke="#10B981" stroke-width="1" opacity="0.37414009485946353"/><line x1="568.8" y1="437.6" x2="450.4" y2="319.2" stroke="#10B981" stroke-width="1" opacity="0.1607958774500365"/><line x1="568.8" y1="437.6" x2="588" y2="456.8" stroke="#10B981" stroke-width="1" opacity="0.3612101422891951"/><line x1="568.8" y1="437.6" x2="456.8" y2="325.6" stroke="#10B981" stroke-width="1" opacity="0.1737258300203049"/><line x1="568.8" y1="437.6" x2="594.4" y2="463.2" stroke="#10B981" stroke-width="1" opacity="0.3482801897189268"/><line x1="568.8" y1="437.6" x2="463.2" y2="332" stroke="#10B981" stroke-width="1" opacity="0.18665578259057314"/><line x1="568.8" y1="437.6" x2="600.8" y2="469.6" stroke="#10B981" stroke-width="1" opacity="0.3353502371486585"/><line x1="437.6" y1="306.4" x2="575.2" y2="444" stroke="#10B981" stroke-width="1" opacity="0.12200601973923159"/><line x1="437.6" y1="306.4" x2="444" y2="312.8" stroke="#10B981" stroke-width="1" opacity="0.3870700474297317"/><line x1="437.6" y1="306.4" x2="581.5999999999999" y2="450.4" stroke="#10B981" stroke-width="1" opacity="0.1090760671689634"/><line x1="437.6" y1="306.4" x2="450.4" y2="319.2" stroke="#10B981" stroke-width="1" opacity="0.3741400948594635"/><line x1="437.6" y1="306.4" x2="588" y2="456.8" stroke="#10B981" stroke-width="1" opacity="0.09614611459869504"/><line x1="437.6" y1="306.4" x2="456.8" y2="325.6" stroke="#10B981" stroke-width="1" opacity="0.3612101422891951"/><line x1="437.6" y1="306.4" x2="594.4" y2="463.2" stroke="#10B981" stroke-width="1" opacity="0.08321616202842674"/><line x1="437.6" y1="306.4" x2="463.2" y2="332" stroke="#10B981" stroke-width="1" opacity="0.3482801897189268"/><line x1="437.6" y1="306.4" x2="600.8" y2="469.6" stroke="#10B981" stroke-width="1" opacity="0.07028620945815844"/><line x1="306.4" y1="575.2" x2="312.8" y2="581.5999999999999" stroke="#10B981" stroke-width="1" opacity="0.38707004742973183"/><line x1="306.4" y1="575.2" x2="319.2" y2="588" stroke="#10B981" stroke-width="1" opacity="0.3741400948594635"/><line x1="306.4" y1="575.2" x2="325.6" y2="594.4" stroke="#10B981" stroke-width="1" opacity="0.3612101422891951"/><line x1="306.4" y1="575.2" x2="332" y2="600.8" stroke="#10B981" stroke-width="1" opacity="0.3482801897189269"/><line x1="575.2" y1="444" x2="444" y2="312.8" stroke="#10B981" stroke-width="1" opacity="0.13493597230949989"/><line x1="575.2" y1="444" x2="581.5999999999999" y2="450.4" stroke="#10B981" stroke-width="1" opacity="0.3870700474297319"/><line x1="575.2" y1="444" x2="450.4" y2="319.2" stroke="#10B981" stroke-width="1" opacity="0.14786592487976813"/><line x1="575.2" y1="444" x2="588" y2="456.8" stroke="#10B981" stroke-width="1" opacity="0.3741400948594635"/><line x1="575.2" y1="444" x2="456.8" y2="325.6" stroke="#10B981" stroke-width="1" opacity="0.1607958774500365"/><line x1="575.2" y1="444" x2="594.4" y2="463.2" stroke="#10B981" stroke-width="1" opacity="0.36121014228919524"/><line x1="575.2" y1="444" x2="463.2" y2="332" stroke="#10B981" stroke-width="1" opacity="0.17372583002030473"/><line x1="575.2" y1="444" x2="600.8" y2="469.6" stroke="#10B981" stroke-width="1" opacity="0.3482801897189269"/><line x1="444" y1="312.8" x2="581.5999999999999" y2="450.4" stroke="#10B981" stroke-width="1" opacity="0.12200601973923175"/><line x1="444" y1="312.8" x2="450.4" y2="319.2" stroke="#10B981" stroke-width="1" opacity="0.3870700474297318"/><line x1="444" y1="312.8" x2="588" y2="456.8" stroke="#10B981" stroke-width="1" opacity="0.10907606716896334"/><line x1="444" y1="312.8" x2="456.8" y2="325.6" stroke="#10B981" stroke-width="1" opacity="0.3741400948594634"/><line x1="444" y1="312.8" x2="594.4" y2="463.2" stroke="#10B981" stroke-width="1" opacity="0.09614611459869504"/><line x1="444" y1="312.8" x2="463.2" y2="332" stroke="#10B981" stroke-width="1" opacity="0.3612101422891951"/><line x1="444" y1="312.8" x2="600.8" y2="469.6" stroke="#10B981" stroke-width="1" opacity="0.08321616202842674"/><line x1="312.8" y1="581.5999999999999" x2="319.2" y2="588" stroke="#10B981" stroke-width="1" opacity="0.38707004742973167"/><line x1="312.8" y1="581.5999999999999" x2="325.6" y2="594.4" stroke="#10B981" stroke-width="1" opacity="0.37414009485946337"/><line x1="312.8" y1="581.5999999999999" x2="332" y2="600.8" stroke="#10B981" stroke-width="1" opacity="0.3612101422891951"/><line x1="581.5999999999999" y1="450.4" x2="450.4" y2="319.2" stroke="#10B981" stroke-width="1" opacity="0.1349359723095"/><line x1="581.5999999999999" y1="450.4" x2="588" y2="456.8" stroke="#10B981" stroke-width="1" opacity="0.3870700474297316"/><line x1="581.5999999999999" y1="450.4" x2="456.8" y2="325.6" stroke="#10B981" stroke-width="1" opacity="0.1478659248797684"/><line x1="581.5999999999999" y1="450.4" x2="594.4" y2="463.2" stroke="#10B981" stroke-width="1" opacity="0.37414009485946337"/><line x1="581.5999999999999" y1="450.4" x2="463.2" y2="332" stroke="#10B981" stroke-width="1" opacity="0.16079587745003662"/><line x1="581.5999999999999" y1="450.4" x2="600.8" y2="469.6" stroke="#10B981" stroke-width="1" opacity="0.361210142289195"/><line x1="450.4" y1="319.2" x2="588" y2="456.8" stroke="#10B981" stroke-width="1" opacity="0.12200601973923159"/><line x1="450.4" y1="319.2" x2="456.8" y2="325.6" stroke="#10B981" stroke-width="1" opacity="0.38707004742973167"/><line x1="450.4" y1="319.2" x2="594.4" y2="463.2" stroke="#10B981" stroke-width="1" opacity="0.10907606716896334"/><line x1="450.4" y1="319.2" x2="463.2" y2="332" stroke="#10B981" stroke-width="1" opacity="0.3741400948594634"/><line x1="450.4" y1="319.2" x2="600.8" y2="469.6" stroke="#10B981" stroke-width="1" opacity="0.09614611459869504"/><line x1="319.2" y1="588" x2="325.6" y2="594.4" stroke="#10B981" stroke-width="1" opacity="0.3870700474297317"/><line x1="319.2" y1="588" x2="332" y2="600.8" stroke="#10B981" stroke-width="1" opacity="0.3741400948594635"/><line x1="588" y1="456.8" x2="456.8" y2="325.6" stroke="#10B981" stroke-width="1" opacity="0.13493597230949994"/><line x1="588" y1="456.8" x2="594.4" y2="463.2" stroke="#10B981" stroke-width="1" opacity="0.3870700474297318"/><line x1="588" y1="456.8" x2="463.2" y2="332" stroke="#10B981" stroke-width="1" opacity="0.14786592487976818"/><line x1="588" y1="456.8" x2="600.8" y2="469.6" stroke="#10B981" stroke-width="1" opacity="0.3741400948594635"/><line x1="456.8" y1="325.6" x2="594.4" y2="463.2" stroke="#10B981" stroke-width="1" opacity="0.1220060197392317"/><line x1="456.8" y1="325.6" x2="463.2" y2="332" stroke="#10B981" stroke-width="1" opacity="0.3870700474297318"/><line x1="456.8" y1="325.6" x2="600.8" y2="469.6" stroke="#10B981" stroke-width="1" opacity="0.1090760671689634"/><line x1="325.6" y1="594.4" x2="332" y2="600.8" stroke="#10B981" stroke-width="1" opacity="0.3870700474297318"/><line x1="594.4" y1="463.2" x2="463.2" y2="332" stroke="#10B981" stroke-width="1" opacity="0.13493597230949994"/><line x1="594.4" y1="463.2" x2="600.8" y2="469.6" stroke="#10B981" stroke-width="1" opacity="0.3870700474297317"/><line x1="463.2" y1="332" x2="600.8" y2="469.6" stroke="#10B981" stroke-width="1" opacity="0.12200601973923164"/><circle cx="568.8" cy="437.6" r="6" fill="#F59E0B" opacity="0.8"/><circle cx="437.6" cy="306.4" r="6" fill="#F59E0B" opacity="0.8"/><circle cx="306.4" cy="575.2" r="6" fill="#F59E0B" opacity="0.8"/><circle cx="575.2" cy="444" r="6" fill="#F59E0B" opacity="0.8"/><circle cx="444" cy="312.8" r="6" fill="#F59E0B" opacity="0.8"/><circle cx="312.8" cy="581.5999999999999" r="6" fill="#F59E0B" opacity="0.8"/><circle cx="581.5999999999999" cy="450.4" r="6" fill="#F59E0B" opacity="0.8"/><circle cx="450.4" cy="319.2" r="6" fill="#F59E0B" opacity="0.8"/><circle cx="319.2" cy="588" r="6" fill="#F59E0B" opacity="0.8"/><circle cx="588" cy="456.8" r="6" fill="#F59E0B" opacity="0.8"/><circle cx="456.8" cy="325.6" r="6" fill="#F59E0B" opacity="0.8"/><circle cx="325.6" cy="594.4" r="6" fill="#F59E0B" opacity="0.8"/><circle cx="594.4" cy="463.2" r="6" fill="#F59E0B" opacity="0.8"/><circle cx="463.2" cy="332" r="6" fill="#F59E0B" opacity="0.8"/><circle cx="332" cy="600.8" r="6" fill="#F59E0B" opacity="0.8"/><circle cx="600.8" cy="469.6" r="6" fill="#F59E0B" opacity="0.8"/>
    <text x="500" y="960" font-family="system-ui, sans-serif" font-size="36" font-weight="700" fill="white" text-anchor="middle" opacity="0.85">language</text>
  </svg>