<svg xmlns="http://www.w3.org/2000/svg" viewBox="0 0 1000 1000" width="1000" height="1000">
    <defs>
      <linearGradient id="g295" x1="0" y1="0" x2="1" y2="1">
        <stop offset="0%" stop-color="#06B6D4"/>
        <stop offset="100%" stop-color="#0EA5E9"/>
      </linearGradient>
      <radialGradient id="glow295" cx="50%" cy="50%" r="60%">
        <stop offset="0%" stop-color="#67E8F9" stop-opacity="0.2"/>
        <stop offset="100%" stop-color="#67E8F9" stop-opacity="0"/>
      </radialGradient>
    </defs>
    <rect width="1000" height="1000" fill="#030712"/>
    <rect width="1000" height="1000" fill="url(#glow295)"/>
    <line x1="664.8" y1="629.5999999999999" x2="629.5999999999999" y2="594.4" stroke="#06B6D4" stroke-width="1" opacity="0.32888526086352443"/><line x1="664.8" y1="629.5999999999999" x2="594.4" y2="559.2" stroke="#06B6D4" stroke-width="1" opacity="0.2577705217270489"/><line x1="664.8" y1="629.5999999999999" x2="559.2" y2="524" stroke="#06B6D4" stroke-width="1" opacity="0.18665578259057328"/><line x1="664.8" y1="629.5999999999999" x2="524" y2="488.79999999999995" stroke="#06B6D4" stroke-width="1" opacity="0.11554104345409755"/><line x1="664.8" y1="629.5999999999999" x2="488.79999999999995" y2="453.6" stroke="#06B6D4" stroke-width="1" opacity="0.044426304317621956"/><line x1="664.8" y1="629.5999999999999" x2="677.5999999999999" y2="642.4" stroke="#06B6D4" stroke-width="1" opacity="0.3741400948594634"/><line x1="664.8" y1="629.5999999999999" x2="642.4" y2="607.2" stroke="#06B6D4" stroke-width="1" opacity="0.35474516600406114"/><line x1="664.8" y1="629.5999999999999" x2="607.2" y2="572" stroke="#06B6D4" stroke-width="1" opacity="0.28363042686758555"/><line x1="664.8" y1="629.5999999999999" x2="572" y2="536.8" stroke="#06B6D4" stroke-width="1" opacity="0.2125156877311098"/><line x1="664.8" y1="629.5999999999999" x2="536.8" y2="501.6" stroke="#06B6D4" stroke-width="1" opacity="0.1414009485946342"/><line x1="629.5999999999999" y1="594.4" x2="594.4" y2="559.2" stroke="#06B6D4" stroke-width="1" opacity="0.32888526086352454"/><line x1="629.5999999999999" y1="594.4" x2="559.2" y2="524" stroke="#06B6D4" stroke-width="1" opacity="0.2577705217270489"/><line x1="629.5999999999999" y1="594.4" x2="524" y2="488.79999999999995" stroke="#06B6D4" stroke-width="1" opacity="0.18665578259057317"/><line x1="629.5999999999999" y1="594.4" x2="488.79999999999995" y2="453.6" stroke="#06B6D4" stroke-width="1" opacity="0.11554104345409755"/><line x1="629.5999999999999" y1="594.4" x2="453.6" y2="418.4" stroke="#06B6D4" stroke-width="1" opacity="0.044426304317621956"/><line x1="629.5999999999999" y1="594.4" x2="677.5999999999999" y2="642.4" stroke="#06B6D4" stroke-width="1" opacity="0.30302535572298783"/><line x1="629.5999999999999" y1="594.4" x2="642.4" y2="607.2" stroke="#06B6D4" stroke-width="1" opacity="0.3741400948594633"/><line x1="629.5999999999999" y1="594.4" x2="607.2" y2="572" stroke="#06B6D4" stroke-width="1" opacity="0.35474516600406114"/><line x1="629.5999999999999" y1="594.4" x2="572" y2="536.8" stroke="#06B6D4" stroke-width="1" opacity="0.28363042686758544"/><line x1="629.5999999999999" y1="594.4" x2="536.8" y2="501.6" stroke="#06B6D4" stroke-width="1" opacity="0.2125156877311098"/><line x1="594.4" y1="559.2" x2="559.2" y2="524" stroke="#06B6D4" stroke-width="1" opacity="0.32888526086352443"/><line x1="594.4" y1="559.2" x2="524" y2="488.79999999999995" stroke="#06B6D4" stroke-width="1" opacity="0.2577705217270487"/><line x1="594.4" y1="559.2" x2="488.79999999999995" y2="453.6" stroke="#06B6D4" stroke-width="1" opacity="0.18665578259057308"/><line x1="594.4" y1="559.2" x2="453.6" y2="418.4" stroke="#06B6D4" stroke-width="1" opacity="0.11554104345409749"/><line x1="594.4" y1="559.2" x2="418.4" y2="383.2" stroke="#06B6D4" stroke-width="1" opacity="0.04442630431762179"/><line x1="594.4" y1="559.2" x2="677.5999999999999" y2="642.4" stroke="#06B6D4" stroke-width="1" opacity="0.23191061658651227"/><line x1="594.4" y1="559.2" x2="642.4" y2="607.2" stroke="#06B6D4" stroke-width="1" opacity="0.30302535572298783"/><line x1="594.4" y1="559.2" x2="607.2" y2="572" stroke="#06B6D4" stroke-width="1" opacity="0.3741400948594634"/><line x1="594.4" y1="559.2" x2="572" y2="536.8" stroke="#06B6D4" stroke-width="1" opacity="0.3547451660040609"/><line x1="594.4" y1="559.2" x2="536.8" y2="501.6" stroke="#06B6D4" stroke-width="1" opacity="0.28363042686758533"/><line x1="559.2" y1="524" x2="524" y2="488.79999999999995" stroke="#06B6D4" stroke-width="1" opacity="0.3288852608635243"/><line x1="559.2" y1="524" x2="488.79999999999995" y2="453.6" stroke="#06B6D4" stroke-width="1" opacity="0.2577705217270487"/><line x1="559.2" y1="524" x2="453.6" y2="418.4" stroke="#06B6D4" stroke-width="1" opacity="0.18665578259057308"/><line x1="559.2" y1="524" x2="418.4" y2="383.2" stroke="#06B6D4" stroke-width="1" opacity="0.11554104345409738"/><line x1="559.2" y1="524" x2="383.2" y2="348" stroke="#06B6D4" stroke-width="1" opacity="0.04442630431762179"/><line x1="559.2" y1="524" x2="677.5999999999999" y2="642.4" stroke="#06B6D4" stroke-width="1" opacity="0.16079587745003665"/><line x1="559.2" y1="524" x2="642.4" y2="607.2" stroke="#06B6D4" stroke-width="1" opacity="0.23191061658651219"/><line x1="559.2" y1="524" x2="607.2" y2="572" stroke="#06B6D4" stroke-width="1" opacity="0.30302535572298783"/><line x1="559.2" y1="524" x2="572" y2="536.8" stroke="#06B6D4" stroke-width="1" opacity="0.37414009485946353"/><line x1="559.2" y1="524" x2="536.8" y2="501.6" stroke="#06B6D4" stroke-width="1" opacity="0.3547451660040609"/><line x1="524" y1="488.79999999999995" x2="488.79999999999995" y2="453.6" stroke="#06B6D4" stroke-width="1" opacity="0.32888526086352443"/><line x1="524" y1="488.79999999999995" x2="453.6" y2="418.4" stroke="#06B6D4" stroke-width="1" opacity="0.2577705217270488"/><line x1="524" y1="488.79999999999995" x2="418.4" y2="383.2" stroke="#06B6D4" stroke-width="1" opacity="0.18665578259057314"/><line x1="524" y1="488.79999999999995" x2="383.2" y2="348" stroke="#06B6D4" stroke-width="1" opacity="0.11554104345409749"/><line x1="524" y1="488.79999999999995" x2="348" y2="312.8" stroke="#06B6D4" stroke-width="1" opacity="0.0444263043176219"/><line x1="524" y1="488.79999999999995" x2="677.5999999999999" y2="642.4" stroke="#06B6D4" stroke-width="1" opacity="0.08968113831356095"/><line x1="524" y1="488.79999999999995" x2="642.4" y2="607.2" stroke="#06B6D4" stroke-width="1" opacity="0.16079587745003646"/><line x1="524" y1="488.79999999999995" x2="607.2" y2="572" stroke="#06B6D4" stroke-width="1" opacity="0.23191061658651205"/><line x1="524" y1="488.79999999999995" x2="572" y2="536.8" stroke="#06B6D4" stroke-width="1" opacity="0.30302535572298783"/><line x1="524" y1="488.79999999999995" x2="536.8" y2="501.6" stroke="#06B6D4" stroke-width="1" opacity="0.3741400948594634"/><line x1="488.79999999999995" y1="453.6" x2="453.6" y2="418.4" stroke="#06B6D4" stroke-width="1" opacity="0.32888526086352443"/><line x1="488.79999999999995" y1="453.6" x2="418.4" y2="383.2" stroke="#06B6D4" stroke-width="1" opacity="0.25777052172704873"/><line x1="488.79999999999995" y1="453.6" x2="383.2" y2="348" stroke="#06B6D4" stroke-width="1" opacity="0.18665578259057314"/><line x1="488.79999999999995" y1="453.6" x2="348" y2="312.8" stroke="#06B6D4" stroke-width="1" opacity="0.11554104345409749"/><line x1="488.79999999999995" y1="453.6" x2="677.5999999999999" y2="642.4" stroke="#06B6D4" stroke-width="1" opacity="0.018566399177085358"/><line x1="488.79999999999995" y1="453.6" x2="642.4" y2="607.2" stroke="#06B6D4" stroke-width="1" opacity="0.08968113831356084"/><line x1="488.79999999999995" y1="453.6" x2="607.2" y2="572" stroke="#06B6D4" stroke-width="1" opacity="0.16079587745003646"/><line x1="488.79999999999995" y1="453.6" x2="572" y2="536.8" stroke="#06B6D4" stroke-width="1" opacity="0.23191061658651219"/><line x1="488.79999999999995" y1="453.6" x2="536.8" y2="501.6" stroke="#06B6D4" stroke-width="1" opacity="0.30302535572298783"/><line x1="453.6" y1="418.4" x2="418.4" y2="383.2" stroke="#06B6D4" stroke-width="1" opacity="0.3288852608635243"/><line x1="453.6" y1="418.4" x2="383.2" y2="348" stroke="#06B6D4" stroke-width="1" opacity="0.25777052172704873"/><line x1="453.6" y1="418.4" x2="348" y2="312.8" stroke="#06B6D4" stroke-width="1" opacity="0.18665578259057314"/><line x1="453.6" y1="418.4" x2="642.4" y2="607.2" stroke="#06B6D4" stroke-width="1" opacity="0.018566399177085247"/><line x1="453.6" y1="418.4" x2="607.2" y2="572" stroke="#06B6D4" stroke-width="1" opacity="0.08968113831356084"/><line x1="453.6" y1="418.4" x2="572" y2="536.8" stroke="#06B6D4" stroke-width="1" opacity="0.1607958774500366"/><line x1="453.6" y1="418.4" x2="536.8" y2="501.6" stroke="#06B6D4" stroke-width="1" opacity="0.23191061658651219"/><line x1="418.4" y1="383.2" x2="383.2" y2="348" stroke="#06B6D4" stroke-width="1" opacity="0.32888526086352443"/><line x1="418.4" y1="383.2" x2="348" y2="312.8" stroke="#06B6D4" stroke-width="1" opacity="0.2577705217270488"/><line x1="418.4" y1="383.2" x2="607.2" y2="572" stroke="#06B6D4" stroke-width="1" opacity="0.01856639917708519"/><line x1="418.4" y1="383.2" x2="572" y2="536.8" stroke="#06B6D4" stroke-width="1" opacity="0.08968113831356089"/><line x1="418.4" y1="383.2" x2="536.8" y2="501.6" stroke="#06B6D4" stroke-width="1" opacity="0.1607958774500365"/><line x1="383.2" y1="348" x2="348" y2="312.8" stroke="#06B6D4" stroke-width="1" opacity="0.32888526086352443"/><line x1="383.2" y1="348" x2="572" y2="536.8" stroke="#06B6D4" stroke-width="1" opacity="0.018566399177085358"/><line x1="383.2" y1="348" x2="536.8" y2="501.6" stroke="#06B6D4" stroke-width="1" opacity="0.08968113831356089"/><line x1="348" y1="312.8" x2="536.8" y2="501.6" stroke="#06B6D4" stroke-width="1" opacity="0.018566399177085358"/><line x1="677.5999999999999" y1="642.4" x2="642.4" y2="607.2" stroke="#06B6D4" stroke-width="1" opacity="0.32888526086352454"/><line x1="677.5999999999999" y1="642.4" x2="607.2" y2="572" stroke="#06B6D4" stroke-width="1" opacity="0.2577705217270489"/><line x1="677.5999999999999" y1="642.4" x2="572" y2="536.8" stroke="#06B6D4" stroke-width="1" opacity="0.18665578259057317"/><line x1="677.5999999999999" y1="642.4" x2="536.8" y2="501.6" stroke="#06B6D4" stroke-width="1" opacity="0.11554104345409755"/><line x1="642.4" y1="607.2" x2="607.2" y2="572" stroke="#06B6D4" stroke-width="1" opacity="0.32888526086352443"/><line x1="642.4" y1="607.2" x2="572" y2="536.8" stroke="#06B6D4" stroke-width="1" opacity="0.2577705217270487"/><line x1="642.4" y1="607.2" x2="536.8" y2="501.6" stroke="#06B6D4" stroke-width="1" opacity="0.18665578259057308"/><line x1="607.2" y1="572" x2="572" y2="536.8" stroke="#06B6D4" stroke-width="1" opacity="0.3288852608635243"/><line x1="607.2" y1="572" x2="536.8" y2="501.6" stroke="#06B6D4" stroke-width="1" opacity="0.2577705217270487"/><line x1="572" y1="536.8" x2="536.8" y2="501.6" stroke="#06B6D4" stroke-width="1" opacity="0.32888526086352443"/><circle cx="664.8" cy="629.5999999999999" r="6" fill="#6366F1" opacity="0.8"/><circle cx="629.5999999999999" cy="594.4" r="6" fill="#6366F1" opacity="0.8"/><circle cx="594.4" cy="559.2" r="6" fill="#6366F1" opacity="0.8"/><circle cx="559.2" cy="524" r="6" fill="#6366F1" opacity="0.8"/><circle cx="524" cy="488.79999999999995" r="6" fill="#6366F1" opacity="0.8"/><circle cx="488.79999999999995" cy="453.6" r="6" fill="#6366F1" opacity="0.8"/><circle cx="453.6" cy="418.4" r="6" fill="#6366F1" opacity="0.8"/><circle cx="418.4" cy="383.2" r="6" fill="#6366F1" opacity="0.8"/><circle cx="383.2" cy="348" r="6" fill="#6366F1" opacity="0.8"/><circle cx="348" cy="312.8" r="6" fill="#6366F1" opacity="0.8"/><circle cx="312.8" cy="677.5999999999999" r="6" fill="#6366F1" opacity="0.8"/><circle cx="677.5999999999999" cy="642.4" r="6" fill="#6366F1" opacity="0.8"/><circle cx="642.4" cy="607.2" r="6" fill="#6366F1" opacity="0.8"/><circle cx="607.2" cy="572" r="6" fill="#6366F1" opacity="0.8"/><circle cx="572" cy="536.8" r="6" fill="#6366F1" opacity="0.8"/><circle cx="536.8" cy="501.6" r="6" fill="#6366F1" opacity="0.8"/>
    <text x="500" y="960" font-family="system-ui, sans-serif" font-size="36" font-weight="700" fill="white" text-anchor="middle" opacity="0.85">business</text>
  </svg>