<svg xmlns="http://www.w3.org/2000/svg" viewBox="0 0 1000 1000" width="1000" height="1000">
    <defs>
      <linearGradient id="g296" x1="0" y1="0" x2="1" y2="1">
        <stop offset="0%" stop-color="#10B981"/>
        <stop offset="100%" stop-color="#14B8A6"/>
      </linearGradient>
      <radialGradient id="glow296" cx="50%" cy="50%" r="60%">
        <stop offset="0%" stop-color="#6EE7B7" stop-opacity="0.2"/>
        <stop offset="100%" stop-color="#6EE7B7" stop-opacity="0"/>
      </radialGradient>
    </defs>
    <rect width="1000" height="1000" fill="#030712"/>
    <rect width="1000" height="1000" fill="url(#glow296)"/>
    <circle cx="696.9132852711809" cy="282.224615523906" r="6.808" fill="#F59E0B" opacity="0.5808"/><circle cx="475.87304374976793" cy="260.8137755176955" r="5.744" fill="#10B981" opacity="0.501"/><circle cx="349.24636379487794" cy="389.01720326584973" r="4.68" fill="#14B8A6" opacity="0.4212"/><circle cx="368.6994229805109" cy="526.7611373889306" r="3.616" fill="#F59E0B" opacity="0.3414"/><circle cx="458.86945360737" cy="569.5479557819186" r="2.552" fill="#14B8A6" opacity="0.8615999999999999"/><circle cx="508.19834765152615" cy="526.3542614350074" r="9.488" fill="#10B981" opacity="0.7818"/><circle cx="839.7621685481943" cy="657.2800967173803" r="8.424" fill="#F59E0B" opacity="0.702"/><circle cx="795.5784693739176" cy="374.29077821189054" r="7.36" fill="#10B981" opacity="0.6222"/><circle cx="587.6059919475247" cy="246.72309585181233" r="6.296" fill="#14B8A6" opacity="0.5424"/><circle cx="396.51931080295157" cy="311.7693251265781" r="5.232" fill="#F59E0B" opacity="0.4626"/><circle cx="342.74728062528834" cy="462.76906864906294" r="4.168" fill="#14B8A6" opacity="0.3828"/><circle cx="410.72906641707846" cy="561.4919540853404" r="3.104" fill="#10B981" opacity="0.303"/><circle cx="492.73764737810603" cy="554.7201812350368" r="2.04" fill="#F59E0B" opacity="0.8231999999999999"/><circle cx="501.29411192313887" cy="501.5248850220229" r="8.975999999999999" fill="#10B981" opacity="0.7434"/><circle cx="848.6278882555672" cy="510.95607276645114" r="7.912" fill="#14B8A6" opacity="0.6636"/><circle cx="705.0439171982651" cy="287.07665224313473" r="6.848" fill="#F59E0B" opacity="0.5838"/><circle cx="483.259849766828" cy="258.178728458039" r="5.784" fill="#14B8A6" opacity="0.504"/><circle cx="351.2342286397517" cy="383.10096120330877" r="4.720000000000001" fill="#10B981" opacity="0.42419999999999997"/><circle cx="365.95233505973624" cy="522.9613484809319" r="3.6559999999999997" fill="#F59E0B" opacity="0.3444"/><circle cx="455.63354137573907" cy="569.9103522315668" r="2.592" fill="#10B981" opacity="0.8646"/><circle cx="507.9002988838831" cy="528.5262208773843" r="9.527999999999999" fill="#14B8A6" opacity="0.7847999999999999"/><circle cx="836.4419120505356" cy="668.7714425362881" r="8.464" fill="#F59E0B" opacity="0.7050000000000001"/><circle cx="801.2453835464937" cy="382.91260148109075" r="7.4" fill="#14B8A6" opacity="0.6252"/><circle cx="596.2312072525777" cy="247.73118553671478" r="6.336" fill="#10B981" opacity="0.5454"/><circle cx="401.57485965646623" cy="306.82978555596185" r="5.272" fill="#F59E0B" opacity="0.4656"/><circle cx="342.0635638868764" cy="457.32632957097286" r="4.208" fill="#10B981" opacity="0.3858"/><circle cx="407.1597181142821" cy="559.7397862348071" r="3.144" fill="#14B8A6" opacity="0.306"/><circle cx="490.69715415085267" cy="556.43843600869" r="2.08" fill="#F59E0B" opacity="0.8262"/><circle cx="502.49115112195244" cy="503.12956324230635" r="9.016" fill="#14B8A6" opacity="0.7464"/><circle cx="850.1077763326377" cy="522.0269142508831" r="7.952" fill="#10B981" opacity="0.6666"/><circle cx="713.062697347297" cy="292.2259713075425" r="6.888" fill="#F59E0B" opacity="0.5868"/><circle cx="490.7885193554679" cy="255.77365288663998" r="5.824" fill="#10B981" opacity="0.507"/><circle cx="353.4465370980523" cy="377.20129271263704" r="4.76" fill="#14B8A6" opacity="0.42719999999999997"/><circle cx="363.31632325386215" cy="519.0150601144801" r="3.6959999999999997" fill="#F59E0B" opacity="0.3474"/><circle cx="452.33532955813934" cy="570.1364326984828" r="2.632" fill="#14B8A6" opacity="0.8675999999999999"/><circle cx="507.4733683059497" cy="530.7035627601038" r="9.568" fill="#10B981" opacity="0.7878"/><circle cx="832.7332917761064" cy="680.2085362679481" r="8.504" fill="#F59E0B" opacity="0.708"/><circle cx="806.6605222723595" cy="391.76708412112464" r="7.44" fill="#10B981" opacity="0.6282"/><circle cx="604.8788458994517" cy="249.03301475532868" r="6.376" fill="#14B8A6" opacity="0.5484"/><circle cx="406.8394910055622" cy="302.02384092043485" r="5.311999999999999" fill="#F59E0B" opacity="0.4686"/><circle cx="341.5684842618577" cy="451.80441077323815" r="4.248" fill="#14B8A6" opacity="0.3888"/><circle cx="403.61400384383353" cy="557.8230035970414" r="3.184" fill="#10B981" opacity="0.309"/><circle cx="488.5418714913891" cy="558.0805586326454" r="2.12" fill="#F59E0B" opacity="0.8291999999999999"/><circle cx="503.58742989834514" cy="504.80940190922524" r="9.056000000000001" fill="#10B981" opacity="0.7494"/><circle cx="851.2342611119666" cy="533.2014129387719" r="7.992" fill="#14B8A6" opacity="0.6696"/><circle cx="720.9589299605088" cy="297.670290686941" r="6.928" fill="#F59E0B" opacity="0.5898"/><circle cx="498.45183332688634" cy="253.6048637250478" r="5.864" fill="#14B8A6" opacity="0.51"/><circle cx="355.884170704048" cy="371.3265072117026" r="4.8" fill="#10B981" opacity="0.43019999999999997"/><circle cx="360.7978893444201" cy="514.9255615985364" r="3.7359999999999998" fill="#F59E0B" opacity="0.3504"/><circle cx="448.98024010101335" cy="570.2226751117454" r="2.672" fill="#10B981" opacity="0.8706"/><circle cx="506.916983654668" cy="532.8803183853358" r="9.608" fill="#14B8A6" opacity="0.7908"/><circle cx="828.6364679001545" cy="691.5782659022434" r="8.544" fill="#F59E0B" opacity="0.7110000000000001"/><circle cx="811.814840544434" cy="400.8468597761562" r="7.48" fill="#14B8A6" opacity="0.6312"/><circle cx="613.5389091921598" cy="250.63096403231117" r="6.416" fill="#10B981" opacity="0.5513999999999999"/><circle cx="412.3097457478405" cy="297.35977864897694" r="5.352" fill="#F59E0B" opacity="0.47159999999999996"/><circle cx="341.26632408288083" cy="446.2098509963117" r="4.288" fill="#10B981" opacity="0.3918"/><circle cx="400.0987751697452" cy="555.7414143829781" r="3.224" fill="#14B8A6" opacity="0.312"/><circle cx="486.27462942989786" cy="559.6410446145385" r="2.16" fill="#F59E0B" opacity="0.8322"/><circle cx="504.5794570047567" cy="506.5596168746036" r="9.096" fill="#14B8A6" opacity="0.7524"/><circle cx="852.0022960263768" cy="544.4682312686151" r="8.032" fill="#10B981" opacity="0.6726"/><circle cx="728.7219536510784" cy="303.40694844925486" r="6.968" fill="#F59E0B" opacity="0.5928"/><circle cx="506.24231570812503" cy="251.67844738202828" r="5.904" fill="#10B981" opacity="0.513"/><circle cx="358.5477089874885" cy="365.4849846027896" r="4.84" fill="#14B8A6" opacity="0.4332"/><circle cx="358.4034361629928" cy="510.6964063849665" r="3.776" fill="#F59E0B" opacity="0.3534"/><circle cx="445.5738536356157" cy="570.1657650989613" r="2.7119999999999997" fill="#14B8A6" opacity="0.8735999999999999"/><circle cx="506.2308208995198" cy="535.0504903092398" r="9.648" fill="#10B981" opacity="0.7938"/><circle cx="824.1520427589357" cy="702.8674768788951" r="8.584" fill="#F59E0B" opacity="0.714"/><circle cx="816.6995094861394" cy="410.1442228276963" r="7.52" fill="#10B981" opacity="0.6342"/><circle cx="622.2012717667368" cy="252.52707384727486" r="6.456" fill="#14B8A6" opacity="0.5544"/><circle cx="417.98184966185363" cy="292.8457989440976" r="5.3919999999999995" fill="#F59E0B" opacity="0.47459999999999997"/><circle cx="341.1611392075066" cy="440.5493792955624" r="4.327999999999999" fill="#14B8A6" opacity="0.3948"/><circle cx="396.62091735810344" cy="553.4950957763411" r="3.2640000000000002" fill="#10B981" opacity="0.315"/><circle cx="483.89849013681027" cy="561.1144940265859" r="2.2" fill="#F59E0B" opacity="0.8351999999999999"/><circle cx="505.4639434673427" cy="508.3752804004214" r="9.136" fill="#10B981" opacity="0.7554"/><circle cx="852.4071999243452" cy="555.8158171263544" r="8.072" fill="#14B8A6" opacity="0.6756"/><circle cx="736.3411547557483" cy="309.4329027121434" r="7.008" fill="#F59E0B" opacity="0.5958"/><circle cx="514.1522410342989" cy="250.00025185271264" r="5.944" fill="#14B8A6" opacity="0.516"/><circle cx="361.4374259556669" cy="359.68516445432897" r="4.88" fill="#10B981" opacity="0.4362"/><circle cx="356.13925740635005" cy="506.3314090377726" r="3.816" fill="#F59E0B" opacity="0.3564"/><circle cx="442.121901730819" cy="569.9626024440416" r="2.752" fill="#10B981" opacity="0.8766"/><circle cx="505.4148054239647" cy="537.2080620594597" r="9.687999999999999" fill="#14B8A6" opacity="0.7968"/><circle cx="819.2810636508704" cy="714.0629869780594" r="8.623999999999999" fill="#F59E0B" opacity="0.717"/><circle cx="821.305928757523" cy="419.65113476056104" r="7.56" fill="#14B8A6" opacity="0.6372"/><circle cx="630.8556931419623" cy="254.72303905108294" r="6.496" fill="#10B981" opacity="0.5573999999999999"/><circle cx="423.85171552885834" cy="288.49000313909016" r="5.432" fill="#F59E0B" opacity="0.47759999999999997"/><circle cx="341.25675130720697" cy="434.8299072084589" r="4.368" fill="#10B981" opacity="0.3978"/><circle cx="393.1873392108048" cy="551.0843958086256" r="3.3040000000000003" fill="#14B8A6" opacity="0.318"/><circle cx="481.4167440869576" cy="562.495620643933" r="2.24" fill="#F59E0B" opacity="0.8382000000000001"/><circle cx="506.2378081114485" cy="510.25132918039156" r="9.176" fill="#14B8A6" opacity="0.7584"/><circle cx="852.4446655614536" cy="567.232415673358" r="8.112" fill="#10B981" opacity="0.6786"/><circle cx="743.8059807229873" cy="315.74473205983406" r="7.048" fill="#F59E0B" opacity="0.5988"/><circle cx="522.1736420094074" cy="248.57587705226325" r="5.984" fill="#10B981" opacity="0.519"/><circle cx="364.553286958494" cy="353.9355350324661" r="4.92" fill="#14B8A6" opacity="0.4392"/><circle cx="354.01152754624286" cy="501.8346418229695" r="3.856" fill="#F59E0B" opacity="0.3594"/><circle cx="438.6302588979651" cy="569.6103072617067" r="2.792" fill="#14B8A6" opacity="0.8795999999999999"/><circle cx="504.46911284098985" cy="539.3470078965923" r="9.728" fill="#10B981" opacity="0.7998"/><circle cx="814.0250251369475" cy="725.1516013439378" r="8.664" fill="#F59E0B" opacity="0.72"/><circle cx="825.625738772922" cy="429.3592309739713" r="7.6" fill="#10B981" opacity="0.6401999999999999"/><circle cx="639.4918294950573" cy="257.2202036739427" r="6.536" fill="#14B8A6" opacity="0.5604"/><circle cx="429.9149456757619" cy="284.3003821042592" r="5.4719999999999995" fill="#F59E0B" opacity="0.48059999999999997"/>
    <text x="500" y="960" font-family="system-ui, sans-serif" font-size="36" font-weight="700" fill="white" text-anchor="middle" opacity="0.85">art</text>
  </svg>