<svg xmlns="http://www.w3.org/2000/svg" viewBox="0 0 1000 1000" width="1000" height="1000">
    <defs>
      <linearGradient id="g303" x1="0" y1="0" x2="1" y2="1">
        <stop offset="0%" stop-color="#F59E0B"/>
        <stop offset="100%" stop-color="#EF4444"/>
      </linearGradient>
      <radialGradient id="glow303" cx="50%" cy="50%" r="60%">
        <stop offset="0%" stop-color="#FCD34D" stop-opacity="0.2"/>
        <stop offset="100%" stop-color="#FCD34D" stop-opacity="0"/>
      </radialGradient>
    </defs>
    <rect width="1000" height="1000" fill="#030712"/>
    <rect width="1000" height="1000" fill="url(#glow303)"/>
    <path d="M 0 500 L 0 649.9364661829857 L 16.666666666666668 643.9470146996784 L 33.333333333333336 623.8670257670403 L 50 591.6620704200453 L 66.66666666666667 550.4845912172651 L 83.33333333333333 504.36533044076685 L 100 457.81876072229693 L 116.66666666666667 415.4011825919827 L 133.33333333333334 381.26472796714654 L 150 358.7509078419384 L 166.66666666666666 350.06353382567596 L 183.33333333333331 356.0529858451755 L 200 376.1329740650997 L 216.66666666666669 408.3379293443617 L 233.33333333333334 449.5154085024702 L 250 495.6346692617311 L 266.6666666666667 542.1812411370629 L 283.3333333333333 584.5988171622419 L 300 618.7352718509787 L 316.66666666666663 641.2490920578907 L 333.3333333333333 649.9364661656624 L 350 643.94701423852 L 366.66666666666663 623.8670261027602 L 383.33333333333337 591.6620691219379 L 400 550.4845917777944 L 416.6666666666667 504.3653310357709 L 433.33333333333337 457.8187591485549 L 450 415.40118308353345 L 466.6666666666667 381.26472696502464 L 483.3333333333333 358.7509080422801 L 500 350.0635338429992 L 516.6666666666667 356.0529856777846 L 533.3333333333334 376.13297372937996 L 550 408.33793064246913 L 566.6666666666666 449.5154079419409 L 583.3333333333334 495.63466866672707 L 600 542.1812405658274 L 616.6666666666667 584.5988166706911 L 633.3333333333333 618.7352728531007 L 650 641.249091857549 L 666.6666666666666 649.9364662133876 L 683.3333333333334 643.9470144059109 L 700 623.8670264384799 L 716.6666666666666 591.6620695931239 L 733.3333333333333 550.4845923383238 L 750 504.36532939654745 L 766.6666666666667 457.8187597197905 L 783.3333333333334 415.4011835750842 L 800 381.26472732877403 L 816.6666666666666 358.7509082426219 L 833.3333333333334 350.063533795274 L 850 356.0529855103936 L 866.6666666666667 376.13297339366017 L 883.3333333333333 408.3379301712831 L 900 449.51540738141165 L 916.6666666666666 495.6346703059505 L 933.3333333333334 542.1812399945917 L 950 584.5988180249029 L 966.6666666666666 618.7352724893512 L 983.3333333333333 641.2490916572073 L 1000 649.9364661960644" stroke="#F59E0B" stroke-width="3" fill="none" opacity="0.7"/><path d="M 0 500 L 0 552.9102201946773 L 16.666666666666668 526.940114134987 L 33.333333333333336 502.5415025873101 L 50 481.37710793844843 L 66.66666666666667 464.88925101997336 L 83.33333333333333 454.2015502293973 L 100 450.04235588089676 L 116.66666666666667 452.69510974085233 L 133.33333333333334 461.9790307277957 L 150 477.2614359846665 L 166.66666666666666 497.5008531790781 L 183.33333333333331 521.3180016909342 L 200 547.089779606988 L 216.66666666666669 573.059885671942 L 233.33333333333334 597.4584972380399 L 250 618.6228919172247 L 266.6666666666667 635.1107488758586 L 283.3333333333333 645.7984497136922 L 300 649.9576441133288 L 316.66666666666663 647.3048903049028 L 333.3333333333333 638.0209693663709 L 350 622.7385641514942 L 366.66666666666663 602.4991469897976 L 383.33333333333337 578.6819984991478 L 400 552.9102205913466 L 416.6666666666667 526.9401145211291 L 433.33333333333337 502.54150293661024 L 450 481.37710822710227 L 466.6666666666667 464.8892512283096 L 483.3333333333333 454.20155034321823 L 500 450.0423558924456 L 516.6666666666667 452.6951096493421 L 533.3333333333334 461.9790305394626 L 550 477.26143571234513 L 566.6666666666666 497.5008528413268 L 583.3333333333334 521.3180013107701 L 600 547.0897792103187 L 616.6666666666667 573.0598852857997 L 633.3333333333333 597.4584968887397 L 650 618.6228916285708 L 666.6666666666666 635.1107486675222 L 683.3333333333334 645.7984495998713 L 700 649.95764410178 L 716.6666666666666 647.304890396413 L 733.3333333333333 638.0209695547039 L 750 622.7385644238155 L 766.6666666666667 602.4991460592998 L 783.3333333333334 578.6819988793119 L 800 552.910219498531 L 816.6666666666666 526.9401149072714 L 833.3333333333334 502.5415019742958 L 850 481.3771085157561 L 866.6666666666667 464.8892506543476 L 883.3333333333333 454.20155045703916 L 900 450.0423558606288 L 916.6666666666666 452.6951095578318 L 933.3333333333334 461.97903105831625 L 950 477.26143544002383 L 966.6666666666666 497.50085377182444 L 983.3333333333333 521.3180009306061 L 1000 547.0897803031344" stroke="#EF4444" stroke-width="2" fill="none" opacity="0.5"/>
    <text x="500" y="960" font-family="system-ui, sans-serif" font-size="36" font-weight="700" fill="white" text-anchor="middle" opacity="0.85">cloud</text>
  </svg>