<svg xmlns="http://www.w3.org/2000/svg" viewBox="0 0 1000 1000" width="1000" height="1000">
    <defs>
      <linearGradient id="g307" x1="0" y1="0" x2="1" y2="1">
        <stop offset="0%" stop-color="#06B6D4"/>
        <stop offset="100%" stop-color="#0EA5E9"/>
      </linearGradient>
      <radialGradient id="glow307" cx="50%" cy="50%" r="60%">
        <stop offset="0%" stop-color="#67E8F9" stop-opacity="0.2"/>
        <stop offset="100%" stop-color="#67E8F9" stop-opacity="0"/>
      </radialGradient>
    </defs>
    <rect width="1000" height="1000" fill="#030712"/>
    <rect width="1000" height="1000" fill="url(#glow307)"/>
    <path d="M 0 500 L 0 496.9392623864995 L 16.666666666666668 543.4319652659099 L 33.333333333333336 585.6732445421333 L 50 619.5282292590836 L 66.66666666666667 641.6829574481976 L 83.33333333333333 649.9687698335545 L 100 643.5745933234574 L 116.66666666666667 623.1263447131565 L 133.33333333333334 590.625625767896 L 150 549.2538386569579 L 166.66666666666666 503.06074238048427 L 183.33333333333331 456.5680392978254 L 200 414.32675937162327 L 216.66666666666669 380.47177362158857 L 233.33333333333334 358.31704411740975 L 250 350.03123026373555 L 266.6666666666667 356.4254052959918 L 283.3333333333333 376.87366277663637 L 300 409.3743846815938 L 316.66666666666663 450.74617372935995 L 333.3333333333333 496.9392707302025 L 350 543.4319561384393 L 366.66666666666663 585.6732367146201 L 383.33333333333337 619.5282234977392 L 400 641.6829543169828 L 416.6666666666667 649.9687696389742 L 433.33333333333337 643.5745960845587 L 450 623.126339946617 L 466.6666666666667 590.6256191177913 L 483.3333333333333 549.2538307742467 L 500 503.06073403678124 L 516.6666666666667 456.5680313098704 L 533.3333333333334 414.326752521333 L 550 380.4717685795172 L 566.6666666666666 358.3170413771104 L 583.3333333333334 350.0312304583161 L 600 356.4254025348909 L 616.6666666666667 376.87365733012973 L 633.3333333333333 409.37437708282357 L 650 450.74616472214666 L 666.6666666666666 496.93926119623507 L 683.3333333333334 543.4319641263944 L 700 585.6732435649105 L 716.6666666666666 619.5282285398108 L 733.3333333333333 641.6829570572824 L 750 649.9687698092622 L 766.6666666666667 643.574593668166 L 783.3333333333334 623.1263351800771 L 800 590.6256267165614 L 816.6666666666666 549.25383978146 L 833.3333333333334 503.0607435707487 L 850 456.56804043734087 L 866.6666666666667 414.3267603488461 L 883.3333333333333 380.4717743408613 L 900 358.317044508325 L 916.6666666666666 350.03123028802787 L 933.3333333333334 356.42540495128327 L 950 376.87366209666936 L 966.6666666666666 409.3743837329283 L 983.3333333333333 450.7461726048579 L 1000 496.9392695399381" stroke="#06B6D4" stroke-width="3" fill="none" opacity="0.7"/><path d="M 0 500 L 0 649.9791797998437 L 16.666666666666668 647.100591234882 L 33.333333333333336 637.6047547247397 L 50 622.13880417613 L 66.66666666666667 601.7567050915732 L 83.33333333333333 577.8474817443412 L 100 552.0404873721047 L 116.66666666666667 526.0944486621651 L 133.33333333333334 501.7775226793841 L 150 480.7468891038975 L 166.66666666666666 464.4357387142546 L 183.33333333333331 453.9556456926335 L 200 450.0208202650165 L 216.66666666666669 452.8994108550077 L 233.33333333333334 462.39524374243626 L 250 477.8612018781695 L 266.6666666666667 498.2432921886375 L 283.3333333333333 522.1525152027441 L 300 547.9595094499061 L 316.66666666666663 573.9055482513461 L 333.3333333333333 598.2224745359666 L 350 619.2531086030618 L 366.66666666666663 635.5642658104607 L 383.33333333333337 646.0443534221923 L 400 649.9791799133689 L 416.6666666666667 647.1005899048664 L 433.33333333333337 637.6047577903877 L 450 622.1388003231452 L 466.6666666666667 601.7567105311518 L 483.3333333333333 577.8474764007916 L 500 552.040493728083 L 516.6666666666667 526.0944432598503 L 533.3333333333334 501.7775282486828 L 550 480.74689368997895 L 566.6666666666666 464.43573583470436 L 583.3333333333334 453.9556474629819 L 600 450.02082015149114 L 616.6666666666667 452.8994093352596 L 633.3333333333333 462.3952464253548 L 650 477.8611974755401 L 666.6666666666666 498.24329694911404 L 683.3333333333334 522.1525205462937 L 700 547.9595030939278 L 716.6666666666666 573.9055536536608 L 733.3333333333333 598.2224689666677 L 750 619.2531126165957 L 766.6666666666667 635.5642625201306 L 783.3333333333334 646.0443549715221 L 800 649.9791797836488 L 816.6666666666666 647.1005885748505 L 833.3333333333334 637.6047551074694 L 850 622.1388047257744 L 866.6666666666667 601.7567057706752 L 883.3333333333333 577.8474825066211 L 900 552.0404881656143 L 916.6666666666666 526.094449432828 L 933.3333333333334 501.777523374681 L 950 480.746889676445 L 966.6666666666666 464.4357391250346 L 983.3333333333333 453.9556459136519 L 1000 450.0208202812114" stroke="#0EA5E9" stroke-width="2" fill="none" opacity="0.5"/>
    <text x="500" y="960" font-family="system-ui, sans-serif" font-size="36" font-weight="700" fill="white" text-anchor="middle" opacity="0.85">robotics</text>
  </svg>