<svg xmlns="http://www.w3.org/2000/svg" viewBox="0 0 1000 1000" width="1000" height="1000">
    <defs>
      <linearGradient id="g308" x1="0" y1="0" x2="1" y2="1">
        <stop offset="0%" stop-color="#10B981"/>
        <stop offset="100%" stop-color="#14B8A6"/>
      </linearGradient>
      <radialGradient id="glow308" cx="50%" cy="50%" r="60%">
        <stop offset="0%" stop-color="#6EE7B7" stop-opacity="0.2"/>
        <stop offset="100%" stop-color="#6EE7B7" stop-opacity="0"/>
      </radialGradient>
    </defs>
    <rect width="1000" height="1000" fill="#030712"/>
    <rect width="1000" height="1000" fill="url(#glow308)"/>
    <circle cx="429.09548589737074" cy="406.1793739102641" r="9.527999999999999" fill="#F59E0B" opacity="0.6527999999999999"/><circle cx="397.26089147127885" cy="862.1072155850027" r="6.704" fill="#10B981" opacity="0.44099999999999995"/><circle cx="719.2231256501711" cy="414.7928337510908" r="3.88" fill="#14B8A6" opacity="0.8291999999999999"/><circle cx="420.00651871129895" cy="450.63358478363824" r="9.056000000000001" fill="#F59E0B" opacity="0.6174"/><circle cx="533.2014129387719" cy="851.2342611119666" r="6.232" fill="#14B8A6" opacity="0.40559999999999996"/><circle cx="656.0577756329895" cy="357.0995778015912" r="3.408" fill="#10B981" opacity="0.7938"/><circle cx="430.76545756832877" cy="487.2431142406495" r="8.584" fill="#F59E0B" opacity="0.582"/><circle cx="647.6077547368386" cy="794.252596830596" r="5.76" fill="#10B981" opacity="0.3702"/><circle cx="583.2385474353134" cy="331.4314850843756" r="2.936" fill="#14B8A6" opacity="0.7584"/><circle cx="454.02895666589734" cy="508.76944552261193" r="8.112" fill="#F59E0B" opacity="0.5466"/><circle cx="726.6762857489587" cy="704.9615121896217" r="5.288" fill="#14B8A6" opacity="0.3348"/><circle cx="514.4427367129422" cy="336.23563465686243" r="2.464" fill="#10B981" opacity="0.723"/><circle cx="480.3338718828261" cy="512.3078594759162" r="7.64" fill="#F59E0B" opacity="0.5112"/><circle cx="763.4807617727646" cy="600.5081497971368" r="4.816" fill="#10B981" opacity="0.8994"/><circle cx="460.7180522696765" cy="364.79064905668645" r="9.992" fill="#14B8A6" opacity="0.6876"/><circle cx="261.0771687702156" cy="820.3061671544024" r="7.168" fill="#F59E0B" opacity="0.4758"/><circle cx="758.3948994052259" cy="498.3764355992996" r="4.343999999999999" fill="#14B8A6" opacity="0.8639999999999999"/><circle cx="428.7505691101922" cy="406.94432527847374" r="9.52" fill="#10B981" opacity="0.6521999999999999"/><circle cx="399.64485201553885" cy="862.3601030370437" r="6.696" fill="#F59E0B" opacity="0.4404"/><circle cx="718.3115188865613" cy="413.56435502963745" r="3.872" fill="#10B981" opacity="0.8286"/><circle cx="420.0396323929459" cy="451.34509673070164" r="9.048" fill="#14B8A6" opacity="0.6168"/><circle cx="535.3674683135681" cy="850.6207383842102" r="6.224" fill="#F59E0B" opacity="0.40499999999999997"/><circle cx="654.8635291222047" cy="356.39384641382503" r="3.4" fill="#14B8A6" opacity="0.7931999999999999"/><circle cx="431.0804965829556" cy="487.74838587173065" r="8.576" fill="#10B981" opacity="0.5813999999999999"/><circle cx="649.272076314363" cy="792.9629451531353" r="5.752" fill="#F59E0B" opacity="0.3696"/><circle cx="582.0029178237148" cy="331.2715748061487" r="2.928" fill="#10B981" opacity="0.7578"/><circle cx="454.4773999906293" cy="508.98069531755993" r="8.104" fill="#14B8A6" opacity="0.5459999999999999"/><circle cx="727.6612375834604" cy="703.2668219409336" r="5.279999999999999" fill="#F59E0B" opacity="0.3342"/><circle cx="513.3808602971778" cy="336.5467878024191" r="2.456" fill="#14B8A6" opacity="0.7223999999999999"/><circle cx="480.74932329855403" cy="512.2168509255212" r="7.632" fill="#10B981" opacity="0.5105999999999999"/><circle cx="763.7324481082909" cy="598.7104645658585" r="4.808" fill="#F59E0B" opacity="0.8988"/><circle cx="459.98329554921526" cy="365.4235408219605" r="9.984" fill="#10B981" opacity="0.687"/><circle cx="263.33155739170513" cy="821.4789079758799" r="7.16" fill="#14B8A6" opacity="0.47519999999999996"/><circle cx="757.9796294045846" cy="496.75796171009495" r="4.336" fill="#F59E0B" opacity="0.8634"/><circle cx="428.41245613333234" cy="407.70989455451934" r="9.512" fill="#14B8A6" opacity="0.6516"/><circle cx="402.02793023751485" cy="862.5973435457777" r="6.688" fill="#10B981" opacity="0.43979999999999997"/><circle cx="717.3931439416446" cy="412.3439621750595" r="3.864" fill="#F59E0B" opacity="0.8280000000000001"/><circle cx="420.0785156427516" cy="452.0542354515636" r="9.04" fill="#10B981" opacity="0.6162"/><circle cx="537.5271263048916" cy="849.9938782197437" r="6.216" fill="#14B8A6" opacity="0.4044"/><circle cx="653.6665866604335" cy="355.6974700702324" r="3.392" fill="#F59E0B" opacity="0.7926"/><circle cx="431.39913617762977" cy="488.24919224799373" r="8.568" fill="#14B8A6" opacity="0.5808"/><circle cx="650.9260262280966" cy="791.664009790368" r="5.744" fill="#10B981" opacity="0.369"/><circle cx="580.7685717514755" cy="331.12052280627233" r="2.92" fill="#F59E0B" opacity="0.7572"/><circle cx="454.92666759032466" cy="509.18665910366275" r="8.096" fill="#10B981" opacity="0.5454"/><circle cx="728.633854023364" cy="701.5678565506491" r="5.272" fill="#14B8A6" opacity="0.3336"/><circle cx="512.3234653843697" cy="336.8648039173636" r="2.448" fill="#F59E0B" opacity="0.7218"/><circle cx="481.162841356521" cy="512.121116047642" r="7.624" fill="#14B8A6" opacity="0.51"/><circle cx="763.9719607722693" cy="596.9135899966742" r="4.8" fill="#10B981" opacity="0.8981999999999999"/><circle cx="459.2549366440419" cy="366.06031278176374" r="9.975999999999999" fill="#F59E0B" opacity="0.6864"/><circle cx="265.59124138576175" cy="822.635977356729" r="7.152" fill="#10B981" opacity="0.47459999999999997"/><circle cx="757.5542379732965" cy="495.14464192931086" r="4.327999999999999" fill="#14B8A6" opacity="0.8628"/><circle cx="428.08114103628503" cy="408.47602649929763" r="9.504" fill="#F59E0B" opacity="0.651"/><circle cx="404.41002372359503" cy="862.8189582084656" r="6.68" fill="#14B8A6" opacity="0.4392"/><circle cx="716.4680663992631" cy="411.1316916478984" r="3.856" fill="#10B981" opacity="0.8273999999999999"/><circle cx="420.123139894034" cy="452.7609566183656" r="9.032" fill="#F59E0B" opacity="0.6155999999999999"/><circle cx="539.6803049215162" cy="849.3537367788349" r="6.208" fill="#10B981" opacity="0.4038"/><circle cx="652.4670185913546" cy="355.0104547153019" r="3.384" fill="#14B8A6" opacity="0.7919999999999999"/><circle cx="431.72133266081556" cy="488.74550816851405" r="8.559999999999999" fill="#F59E0B" opacity="0.5802"/><circle cx="652.5695536094064" cy="790.3558701170452" r="5.736000000000001" fill="#14B8A6" opacity="0.3684"/><circle cx="579.5355716643554" cy="330.97830659934743" r="2.912" fill="#10B981" opacity="0.7565999999999999"/><circle cx="455.3767107627585" cy="509.3873349599066" r="8.088000000000001" fill="#F59E0B" opacity="0.5448"/><circle cx="729.59412029607" cy="699.8647040512" r="5.263999999999999" fill="#10B981" opacity="0.33299999999999996"/><circle cx="511.27059619659104" cy="337.18963896184806" r="2.44" fill="#14B8A6" opacity="0.7212"/><circle cx="481.5743831190729" cy="512.0206756281539" r="7.616" fill="#F59E0B" opacity="0.5094"/><circle cx="764.1993199223465" cy="595.1176080048778" r="4.792" fill="#14B8A6" opacity="0.8976"/><circle cx="458.5329952118459" cy="366.70090955336866" r="9.968" fill="#10B981" opacity="0.6858"/><circle cx="267.85611290003936" cy="823.7773551101446" r="7.144" fill="#F59E0B" opacity="0.474"/><circle cx="757.1187734836647" cy="493.5365394519735" r="4.32" fill="#10B981" opacity="0.8622000000000001"/><circle cx="427.7566174633789" cy="409.2426659731158" r="9.496" fill="#14B8A6" opacity="0.6504"/><circle cx="406.79103029061247" cy="863.0249687910109" r="6.672" fill="#F59E0B" opacity="0.4386"/><circle cx="715.5363520336589" cy="409.92757940400026" r="3.848" fill="#14B8A6" opacity="0.8268"/><circle cx="420.173476251382" cy="453.46521616885576" r="9.024000000000001" fill="#10B981" opacity="0.615"/><circle cx="541.8269226253183" cy="848.7003707249186" r="6.2" fill="#F59E0B" opacity="0.4032"/><circle cx="651.2648952264603" cy="354.3328057793109" r="3.376" fill="#10B981" opacity="0.7913999999999999"/><circle cx="432.04704216705454" cy="489.23730880523215" r="8.552" fill="#14B8A6" opacity="0.5796"/><circle cx="654.202608177363" cy="789.0386057800906" r="5.728" fill="#F59E0B" opacity="0.3678"/><circle cx="578.3039797759606" cy="330.8449032655358" r="2.904" fill="#14B8A6" opacity="0.756"/><circle cx="455.82748081471766" cy="509.5827213684769" r="8.08" fill="#10B981" opacity="0.5442"/><circle cx="730.5420222477715" cy="698.1574524914672" r="5.256" fill="#F59E0B" opacity="0.3324"/><circle cx="510.22229657937214" cy="337.5212486118774" r="2.432" fill="#10B981" opacity="0.7205999999999999"/><circle cx="481.98390583395553" cy="511.91555080557407" r="7.608" fill="#14B8A6" opacity="0.5087999999999999"/><circle cx="764.4145462643592" cy="593.3226002842455" r="4.784" fill="#F59E0B" opacity="0.897"/><circle cx="457.8174904671178" cy="367.34527566080317" r="9.96" fill="#14B8A6" opacity="0.6852"/><circle cx="270.12606403793757" cy="824.9030217854393" r="7.136" fill="#10B981" opacity="0.47339999999999993"/><circle cx="756.6732847019199" cy="491.93371706873666" r="4.311999999999999" fill="#F59E0B" opacity="0.8615999999999999"/><circle cx="427.43887863479506" cy="410.0097579388521" r="9.488" fill="#10B981" opacity="0.6497999999999999"/><circle cx="409.17084799019955" cy="863.2153977258956" r="6.664" fill="#14B8A6" opacity="0.438"/><circle cx="714.5980668057209" cy="408.73166089356437" r="3.84" fill="#F59E0B" opacity="0.8262"/><circle cx="420.22949549286693" cy="454.16697030876685" r="9.016" fill="#14B8A6" opacity="0.6144000000000001"/><circle cx="543.9668983343579" cy="848.0338372211188" r="6.192" fill="#10B981" opacity="0.4026"/><circle cx="650.0602868413758" cy="353.6645281789681" r="3.3680000000000003" fill="#F59E0B" opacity="0.7908"/><circle cx="432.3762206599267" cy="489.7245697041402" r="8.544" fill="#10B981" opacity="0.579"/><circle cx="655.8251402401497" cy="787.71229669435" r="5.720000000000001" fill="#14B8A6" opacity="0.36719999999999997"/><circle cx="577.0738580647508" cy="330.7202894525908" r="2.896" fill="#F59E0B" opacity="0.7554"/><circle cx="456.2789290651441" cy="509.7728172145651" r="8.072" fill="#14B8A6" opacity="0.5436"/><circle cx="731.4775463430756" cy="696.4461899324833" r="5.248" fill="#10B981" opacity="0.3318"/><circle cx="509.17860999988073" cy="337.85958826230245" r="2.424" fill="#F59E0B" opacity="0.72"/><circle cx="482.39136693704876" cy="511.8057630695496" r="7.6" fill="#10B981" opacity="0.5082"/><circle cx="764.6176610503453" cy="591.5286483033839" r="4.776" fill="#14B8A6" opacity="0.8963999999999999"/><circle cx="457.10844118075727" cy="367.9933555382327" r="9.952" fill="#F59E0B" opacity="0.6846"/>
    <text x="500" y="960" font-family="system-ui, sans-serif" font-size="36" font-weight="700" fill="white" text-anchor="middle" opacity="0.85">sleep</text>
  </svg>