<svg xmlns="http://www.w3.org/2000/svg" viewBox="0 0 1000 1000" width="1000" height="1000">
    <defs>
      <linearGradient id="g311" x1="0" y1="0" x2="1" y2="1">
        <stop offset="0%" stop-color="#8B5CF6"/>
        <stop offset="100%" stop-color="#6366F1"/>
      </linearGradient>
      <radialGradient id="glow311" cx="50%" cy="50%" r="60%">
        <stop offset="0%" stop-color="#C4B5FD" stop-opacity="0.2"/>
        <stop offset="100%" stop-color="#C4B5FD" stop-opacity="0"/>
      </radialGradient>
    </defs>
    <rect width="1000" height="1000" fill="#0F172A"/>
    <rect width="1000" height="1000" fill="url(#glow311)"/>
    <rect x="7.5" y="339.25" width="35" height="321.5" fill="#6366F1" opacity="0.8315999999999999" rx="4"/><rect x="57.5" y="228.5" width="35" height="543" fill="#8B5CF6" opacity="0.49739999999999995" rx="4"/><rect x="107.5" y="367.75" width="35" height="264.5" fill="#6366F1" opacity="0.7632" rx="4"/><rect x="157.5" y="257" width="35" height="486" fill="#8B5CF6" opacity="0.429" rx="4"/><rect x="207.5" y="396.25" width="35" height="207.5" fill="#6366F1" opacity="0.6948" rx="4"/><rect x="257.5" y="285.5" width="35" height="429" fill="#8B5CF6" opacity="0.3606" rx="4"/><rect x="307.5" y="424.75" width="35" height="150.5" fill="#6366F1" opacity="0.6264000000000001" rx="4"/><rect x="357.5" y="314" width="35" height="372" fill="#8B5CF6" opacity="0.8921999999999999" rx="4"/><rect x="407.5" y="203.25" width="35" height="593.5" fill="#6366F1" opacity="0.558" rx="4"/><rect x="457.5" y="342.5" width="35" height="315" fill="#8B5CF6" opacity="0.8237999999999999" rx="4"/><rect x="507.5" y="231.75" width="35" height="536.5" fill="#6366F1" opacity="0.4896" rx="4"/><rect x="557.5" y="371" width="35" height="258" fill="#8B5CF6" opacity="0.7554" rx="4"/><rect x="607.5" y="260.25" width="35" height="479.5" fill="#6366F1" opacity="0.4212" rx="4"/><rect x="657.5" y="399.5" width="35" height="201" fill="#8B5CF6" opacity="0.687" rx="4"/><rect x="707.5" y="288.75" width="35" height="422.5" fill="#6366F1" opacity="0.3528" rx="4"/><rect x="757.5" y="428" width="35" height="144" fill="#8B5CF6" opacity="0.6186" rx="4"/><rect x="807.5" y="317.25" width="35" height="365.5" fill="#6366F1" opacity="0.8843999999999999" rx="4"/><rect x="857.5" y="206.5" width="35" height="587" fill="#8B5CF6" opacity="0.5502" rx="4"/><rect x="907.5" y="345.75" width="35" height="308.5" fill="#6366F1" opacity="0.8160000000000001" rx="4"/><rect x="957.5" y="235" width="35" height="530" fill="#8B5CF6" opacity="0.4818" rx="4"/>
    <text x="500" y="960" font-family="system-ui, sans-serif" font-size="36" font-weight="700" fill="white" text-anchor="middle" opacity="0.85">mindful</text>
  </svg>