<svg xmlns="http://www.w3.org/2000/svg" viewBox="0 0 1000 1000" width="1000" height="1000">
    <defs>
      <linearGradient id="g312" x1="0" y1="0" x2="1" y2="1">
        <stop offset="0%" stop-color="#6366F1"/>
        <stop offset="100%" stop-color="#8B5CF6"/>
      </linearGradient>
      <radialGradient id="glow312" cx="50%" cy="50%" r="60%">
        <stop offset="0%" stop-color="#A78BFA" stop-opacity="0.2"/>
        <stop offset="100%" stop-color="#A78BFA" stop-opacity="0"/>
      </radialGradient>
    </defs>
    <rect width="1000" height="1000" fill="#030712"/>
    <rect width="1000" height="1000" fill="url(#glow312)"/>
    <circle cx="228.4240620155515" cy="679.615895476617" r="3.768" fill="#06B6D4" opacity="0.6768"/><circle cx="534.5974321484086" cy="418.65150469285703" r="7.024" fill="#6366F1" opacity="0.321"/><circle cx="545.5188878231369" cy="747.0414354948268" r="2.2800000000000002" fill="#8B5CF6" opacity="0.5651999999999999"/><circle cx="490.2888537186207" cy="489.9156736515693" r="5.536" fill="#06B6D4" opacity="0.8093999999999999"/><circle cx="672.5420835107706" cy="538.5677250789088" r="8.792" fill="#8B5CF6" opacity="0.4536"/><circle cx="182.70189114173456" cy="621.03747401102" r="4.048" fill="#6366F1" opacity="0.6978"/><circle cx="559.6675051180621" cy="416.78011756205115" r="7.304" fill="#06B6D4" opacity="0.34199999999999997"/><circle cx="490.0045635559334" cy="765.0115681442842" r="2.56" fill="#6366F1" opacity="0.5861999999999999"/><circle cx="485.4451144066201" cy="476.0802319124197" r="5.816" fill="#8B5CF6" opacity="0.8304"/><circle cx="672.6410016105165" cy="581.2386888306158" r="9.072" fill="#06B6D4" opacity="0.47459999999999997"/><circle cx="150.08588446210263" cy="550.9222127104765" r="4.327999999999999" fill="#8B5CF6" opacity="0.7187999999999999"/><circle cx="586.8275493273748" cy="422.4762186306531" r="7.584" fill="#6366F1" opacity="0.363"/><circle cx="428.86801338919975" cy="769.9868153832718" r="2.84" fill="#06B6D4" opacity="0.6072"/><circle cx="486.5203683880972" cy="460.2218711902207" r="6.096" fill="#6366F1" opacity="0.8513999999999999"/><circle cx="661.8237465345414" cy="625.5233645881295" r="9.352" fill="#8B5CF6" opacity="0.4956"/><circle cx="133.44438826419827" cy="472.3098662879319" r="4.6080000000000005" fill="#06B6D4" opacity="0.7398"/><circle cx="613.8734241072136" cy="436.4625836054167" r="7.864" fill="#8B5CF6" opacity="0.384"/><circle cx="365.2511848657798" cy="760.4016067921312" r="3.12" fill="#6366F1" opacity="0.6282"/><circle cx="494.0297753605854" cy="444.319155737768" r="6.376" fill="#06B6D4" opacity="0.8723999999999998"/><circle cx="639.4683689570134" cy="668.5882975193426" r="9.632" fill="#6366F1" opacity="0.5166"/><circle cx="134.91868112515033" cy="388.9405987383314" r="4.888" fill="#8B5CF6" opacity="0.7607999999999999"/><circle cx="638.4105463341091" cy="458.8432184993353" r="8.144" fill="#06B6D4" opacity="0.40499999999999997"/><circle cx="302.69998494415324" cy="735.4666516918322" r="3.4" fill="#8B5CF6" opacity="0.6492"/><circle cx="507.8999469411437" cy="430.4472082635994" r="6.656" fill="#6366F1" opacity="0.8934"/><circle cx="605.6889883393665" cy="707.426318831052" r="9.911999999999999" fill="#06B6D4" opacity="0.5376"/><circle cx="155.75530665273556" cy="305.0770636834959" r="5.168" fill="#6366F1" opacity="0.7818"/><circle cx="658.0218210076181" cy="489.06089192683805" r="8.424" fill="#8B5CF6" opacity="0.426"/><circle cx="244.97028395431525" cy="695.2672116195072" r="3.6799999999999997" fill="#06B6D4" opacity="0.6701999999999999"/><circle cx="527.4585944910152" cy="420.61470168489643" r="6.936" fill="#8B5CF6" opacity="0.3144"/><circle cx="561.3766641522863" cy="739.0463241665461" r="2.192" fill="#6366F1" opacity="0.5586"/><circle cx="492.8792789817081" cy="493.56141846524747" r="5.448" fill="#06B6D4" opacity="0.8028"/><circle cx="670.4435607928164" cy="525.8988915644185" r="8.704" fill="#6366F1" opacity="0.44699999999999995"/><circle cx="195.81122089381762" cy="640.8127361636375" r="3.96" fill="#8B5CF6" opacity="0.6912"/><circle cx="551.4671137362069" cy="416.60254078412015" r="7.216" fill="#06B6D4" opacity="0.3354"/><circle cx="508.1919259675759" cy="760.6713109433829" r="2.472" fill="#8B5CF6" opacity="0.5796"/><circle cx="486.36928419923447" cy="480.7343936830745" r="5.728" fill="#6366F1" opacity="0.8237999999999999"/><circle cx="673.7380553622105" cy="567.5281283537273" r="8.984" fill="#06B6D4" opacity="0.46799999999999997"/><circle cx="158.73797124998686" cy="574.0328827847816" r="4.24" fill="#6366F1" opacity="0.7121999999999999"/><circle cx="578.194526927269" cy="419.81511390155487" r="7.496" fill="#8B5CF6" opacity="0.3564"/><circle cx="448.5076147518428" cy="769.9325365002437" r="2.752" fill="#06B6D4" opacity="0.6006"/><circle cx="485.5020418903699" cy="465.30750498088366" r="6.008" fill="#8B5CF6" opacity="0.8448"/><circle cx="666.4514181988409" cy="611.5978735442329" r="9.264" fill="#6366F1" opacity="0.489"/><circle cx="136.807169257051" cy="497.717962111709" r="4.52" fill="#06B6D4" opacity="0.7332"/><circle cx="605.5285330453098" cy="431.1543123114821" r="7.776" fill="#6366F1" opacity="0.37739999999999996"/><circle cx="385.3036891846754" cy="765.0475358975339" r="3.032" fill="#8B5CF6" opacity="0.6215999999999999"/><circle cx="490.96881015687575" cy="449.196480338293" r="6.288" fill="#06B6D4" opacity="0.8657999999999999"/><circle cx="647.7460005182475" cy="655.3656311121028" r="9.544" fill="#8B5CF6" opacity="0.51"/><circle cx="132.40846358490313" cy="415.4050689698934" r="4.8" fill="#6366F1" opacity="0.7542"/><circle cx="631.1169841447469" cy="450.9251951732237" r="8.056000000000001" fill="#06B6D4" opacity="0.3984"/><circle cx="322.01862560583913" cy="744.9703458967341" r="3.3120000000000003" fill="#6366F1" opacity="0.6426"/><circle cx="502.88430856165195" cy="434.46343948511503" r="6.568" fill="#8B5CF6" opacity="0.8868"/><circle cx="617.4979895156961" cy="695.8590882746302" r="9.824" fill="#06B6D4" opacity="0.5309999999999999"/><circle cx="147.085195095159" cy="331.214394929609" r="5.08" fill="#8B5CF6" opacity="0.7752"/><circle cx="652.5310595572843" cy="478.78029523456564" r="8.336" fill="#6366F1" opacity="0.4194"/><circle cx="262.3648131410704" cy="709.5035989345329" r="3.592" fill="#06B6D4" opacity="0.6636"/><circle cx="520.7629839006759" cy="423.1556215488714" r="6.848" fill="#6366F1" opacity="0.30779999999999996"/><circle cx="576.3527323644458" cy="730.0609055456474" r="2.104" fill="#8B5CF6" opacity="0.552"/><circle cx="495.91130015288957" cy="496.7871300119303" r="5.359999999999999" fill="#06B6D4" opacity="0.7962"/><circle cx="667.439875909717" cy="513.7072227434504" r="8.616" fill="#8B5CF6" opacity="0.4404"/><circle cx="210.11775024149" cy="659.3641153928475" r="3.872" fill="#6366F1" opacity="0.6846"/><circle cx="543.5381409080501" cy="417.1423492592822" r="7.128" fill="#06B6D4" opacity="0.3288"/><circle cx="525.7327436878516" cy="755.1054407540054" r="2.384" fill="#6366F1" opacity="0.573"/><circle cx="487.854652891268" cy="485.12954124418434" r="5.640000000000001" fill="#8B5CF6" opacity="0.8171999999999999"/><circle cx="673.785347143889" cy="554.0615678470203" r="8.896" fill="#06B6D4" opacity="0.46140000000000003"/><circle cx="168.89073717859003" cy="596.1961333623262" r="4.152" fill="#8B5CF6" opacity="0.7056"/><circle cx="569.6232214648721" cy="417.96118581516816" r="7.408" fill="#6366F1" opacity="0.3498"/><circle cx="467.7961279103472" cy="768.4754562756776" r="2.664" fill="#06B6D4" opacity="0.594"/><circle cx="485.11367722581093" cy="470.32446471817804" r="5.92" fill="#6366F1" opacity="0.8382000000000001"/><circle cx="669.9458574282401" cy="597.6442806465402" r="9.176" fill="#8B5CF6" opacity="0.48239999999999994"/><circle cx="141.90800983993614" cy="522.5292384071178" r="4.432" fill="#06B6D4" opacity="0.7265999999999999"/><circle cx="597.0118038478902" cy="426.6837677306146" r="7.688" fill="#8B5CF6" opacity="0.37079999999999996"/><circle cx="405.3461215376626" cy="768.1865084079307" r="2.944" fill="#6366F1" opacity="0.615"/><circle cx="488.5493163064568" cy="454.21002464566703" r="6.2" fill="#06B6D4" opacity="0.8592"/><circle cx="654.8777546452166" cy="641.8198897054151" r="9.456" fill="#6366F1" opacity="0.5034"/><circle cx="131.78978662613264" cy="441.681231433002" r="4.712" fill="#8B5CF6" opacity="0.7476"/><circle cx="623.4103696248854" cy="443.81067121731064" r="7.968" fill="#06B6D4" opacity="0.3918"/><circle cx="341.6954626028705" cy="752.9470961277888" r="3.224" fill="#8B5CF6" opacity="0.636"/><circle cx="498.4620381588677" cy="438.81932761586205" r="6.48" fill="#6366F1" opacity="0.8801999999999999"/><circle cx="628.2247961331884" cy="683.6692724889014" r="9.736" fill="#06B6D4" opacity="0.5244"/><circle cx="140.3624552584244" cy="357.6094230215664" r="4.992" fill="#6366F1" opacity="0.7686"/><circle cx="646.3957032870906" cy="469.20295372802565" r="8.248000000000001" fill="#8B5CF6" opacity="0.4128"/><circle cx="280.4921494348395" cy="722.2837455601808" r="3.504" fill="#06B6D4" opacity="0.657"/><circle cx="514.5549199974247" cy="426.2219930882613" r="6.76" fill="#8B5CF6" opacity="0.30119999999999997"/><circle cx="590.3874247341887" cy="720.168375226601" r="2.016" fill="#6366F1" opacity="0.5454"/><circle cx="499.3383355405804" cy="499.5503332977183" r="5.272" fill="#06B6D4" opacity="0.7895999999999999"/><circle cx="663.5870828317443" cy="502.0558041249165" r="8.527999999999999" fill="#6366F1" opacity="0.43379999999999996"/><circle cx="225.51568833787763" cy="676.6219766942123" r="3.784" fill="#8B5CF6" opacity="0.6779999999999999"/><circle cx="535.9392540656587" cy="418.3604874022142" r="7.04" fill="#06B6D4" opacity="0.3222"/><circle cx="542.546028067609" cy="748.3824379775475" r="2.296" fill="#8B5CF6" opacity="0.5664"/><circle cx="489.8687028322554" cy="489.2112643141631" r="5.552" fill="#6366F1" opacity="0.8106"/><circle cx="672.8222955504257" cy="540.9171621777625" r="8.808" fill="#06B6D4" opacity="0.4548"/><circle cx="180.4549948546213" cy="617.3164510486056" r="4.064" fill="#6366F1" opacity="0.6990000000000001"/><circle cx="561.1828238406213" cy="416.8922261946122" r="7.32" fill="#8B5CF6" opacity="0.3432"/><circle cx="486.6350113641813" cy="765.6640304572006" r="2.576" fill="#06B6D4" opacity="0.5873999999999999"/><circle cx="485.3396072263893" cy="475.21062962228643" r="5.832" fill="#8B5CF6" opacity="0.8315999999999999"/><circle cx="672.3260462001167" cy="583.7513808903187" r="9.088000000000001" fill="#6366F1" opacity="0.4758"/><circle cx="148.68057554896694" cy="546.6264088623051" r="4.343999999999999" fill="#06B6D4" opacity="0.72"/><circle cx="588.3982618222714" cy="423.04814942575354" r="7.6" fill="#6366F1" opacity="0.36419999999999997"/><circle cx="425.2674429902949" cy="769.8426299212027" r="2.856" fill="#8B5CF6" opacity="0.6084"/><circle cx="486.77407264075225" cy="459.2947811025674" r="6.112" fill="#06B6D4" opacity="0.8526"/>
    <text x="500" y="960" font-family="system-ui, sans-serif" font-size="36" font-weight="700" fill="white" text-anchor="middle" opacity="0.85">break</text>
  </svg>