<svg xmlns="http://www.w3.org/2000/svg" viewBox="0 0 1000 1000" width="1000" height="1000">
    <defs>
      <linearGradient id="g313" x1="0" y1="0" x2="1" y2="1">
        <stop offset="0%" stop-color="#06B6D4"/>
        <stop offset="100%" stop-color="#0EA5E9"/>
      </linearGradient>
      <radialGradient id="glow313" cx="50%" cy="50%" r="60%">
        <stop offset="0%" stop-color="#67E8F9" stop-opacity="0.2"/>
        <stop offset="100%" stop-color="#67E8F9" stop-opacity="0"/>
      </radialGradient>
    </defs>
    <rect width="1000" height="1000" fill="#030712"/>
    <rect width="1000" height="1000" fill="url(#glow313)"/>
    <path d="M 0 500 L 0 390.9001027528188 L 16.666666666666668 428.05088042123043 L 33.333333333333336 472.244569446093 L 50 519.1551201218969 L 66.66666666666667 564.1906678090666 L 83.33333333333333 602.942754600865 L 100 631.6181115101344 L 116.66666666666667 647.4097536019232 L 133.33333333333334 648.7719074440828 L 150 635.5712339703855 L 166.66666666666666 609.0998882476383 L 183.33333333333331 571.9491080723491 L 200 527.7554176669363 L 216.66666666666669 480.84486687204924 L 233.33333333333334 435.8093526616202 L 250 397.0572358613184 L 266.6666666666667 368.3818993538786 L 283.3333333333333 352.59024397161954 L 300 351.22808966357263 L 316.66666666666663 364.42877164134086 L 333.3333333333333 390.90009620843676 L 350 428.05090343407187 L 366.66666666666663 472.24456007480984 L 383.33333333333337 519.1551461340046 L 400 564.1906591903942 L 416.6666666666667 602.9427736764974 L 433.33333333333337 631.6181069361128 L 450 647.4097584548367 L 466.6666666666667 648.7719086618329 L 483.3333333333333 635.5712380511791 L 500 609.0998947920209 L 516.6666666666667 571.9491164397093 L 533.3333333333334 527.7554270382195 L 550 480.8448763299287 L 566.6666666666666 435.809328957592 L 583.3333333333334 397.05724279712837 L 600 368.3818867738968 L 616.6666666666667 352.59024573611623 L 633.3333333333333 351.2280930127629 L 650 364.4287675605465 L 666.6666666666666 390.9001142075222 L 683.3333333333334 428.0508950667113 L 700 472.2445507035268 L 716.6666666666666 519.1551366761252 L 733.3333333333333 564.1906505717214 L 750 602.9427667406881 L 766.6666666666667 631.6181023620906 L 783.3333333333334 647.4097566903408 L 800 648.7719098795823 L 816.6666666666666 635.5712268277271 L 833.3333333333334 609.099901336403 L 850 571.9490934268675 L 866.6666666666667 527.7554364095027 L 883.3333333333333 480.84485031782106 L 900 435.8093375762644 L 916.6666666666666 397.05724973293877 L 933.3333333333334 368.38189134791827 L 950 352.5902475006135 L 966.6666666666666 351.2280917950126 L 983.3333333333333 364.4287634797526 L 1000 390.90010766313947" stroke="#06B6D4" stroke-width="3" fill="none" opacity="0.7"/><path d="M 0 500 L 0 618.6285085584523 L 16.666666666666668 635.1148002407944 L 33.333333333333336 645.8006612507074 L 50 649.9578688009973 L 66.66666666666667 647.3031086512412 L 83.33333333333333 638.0173050831064 L 100 622.7332700127622 L 116.66666666666667 602.4925644653099 L 133.33333333333334 578.6745951815542 L 150 552.9025003997649 L 166.66666666666666 526.9326050909473 L 183.33333333333331 502.53471399978605 L 200 481.3714850830038 L 216.66666666666669 464.88519517015885 L 233.33333333333334 454.19933624247875 L 250 450.0421316372681 L 266.6666666666667 452.6968933653755 L 283.3333333333333 461.98269906644174 L 300 477.26673598693264 L 316.66666666666663 497.50742268271216 L 333.3333333333333 521.325390352948 L 350 547.0975083388299 L 366.66666666666663 573.0674034155611 L 383.33333333333337 597.4652936949316 L 400 618.6285039345789 L 416.6666666666667 635.1147969036824 L 433.33333333333337 645.8006662643343 L 450 649.9578686164768 L 466.6666666666667 647.3031101177055 L 483.3333333333333 638.0173081006183 L 500 622.733258013372 L 516.6666666666667 602.4925698763151 L 533.3333333333334 578.6746012718917 L 550 552.9025067543882 L 566.6666666666666 526.9326112767999 L 583.3333333333334 502.53469861035114 L 600 481.3714897068768 L 616.6666666666667 464.8851985072703 L 633.3333333333333 454.19933806541 L 650 450.042131129779 L 666.6666666666666 452.69689189891074 L 683.3333333333334 461.9826960489295 L 700 477.2667316240112 L 716.6666666666666 497.5074172717074 L 733.3333333333333 521.3254071032688 L 750 547.0975019842065 L 766.6666666666667 573.0673972297086 L 783.3333333333334 597.4652880994057 L 800 618.628516651667 L 816.6666666666666 635.1148060817764 L 833.3333333333334 645.8006644414036 L 850 649.957868431956 L 866.6666666666667 647.3031115841693 L 883.3333333333333 638.0172998015222 L 900 622.7332623762939 L 916.6666666666666 602.4925752873202 L 933.3333333333334 578.674607362229 L 950 552.9024892771988 L 966.6666666666666 526.9325942637831 L 983.3333333333333 502.5347042058767 L 1000 481.37149433075007" stroke="#0EA5E9" stroke-width="2" fill="none" opacity="0.5"/>
    <text x="500" y="960" font-family="system-ui, sans-serif" font-size="36" font-weight="700" fill="white" text-anchor="middle" opacity="0.85">stretch</text>
  </svg>