<svg xmlns="http://www.w3.org/2000/svg" viewBox="0 0 1000 1000" width="1000" height="1000">
    <defs>
      <linearGradient id="g316" x1="0" y1="0" x2="1" y2="1">
        <stop offset="0%" stop-color="#EC4899"/>
        <stop offset="100%" stop-color="#F43F5E"/>
      </linearGradient>
      <radialGradient id="glow316" cx="50%" cy="50%" r="60%">
        <stop offset="0%" stop-color="#F9A8D4" stop-opacity="0.2"/>
        <stop offset="100%" stop-color="#F9A8D4" stop-opacity="0"/>
      </radialGradient>
    </defs>
    <rect width="1000" height="1000" fill="#030712"/>
    <rect width="1000" height="1000" fill="url(#glow316)"/>
    <circle cx="162.04544431570184" cy="616.8951594046075" r="4.728" fill="#8B5CF6" opacity="0.7727999999999999"/><circle cx="607.2497421434348" cy="415.72394877447834" r="8.304" fill="#EC4899" opacity="0.44099999999999995"/><circle cx="329.4385813296087" cy="765.065732340383" r="3.88" fill="#F43F5E" opacity="0.7092"/><circle cx="522.2309057202301" cy="408.6666171060207" r="7.456" fill="#8B5CF6" opacity="0.37739999999999996"/><circle cx="525.6727478732907" cy="771.5893039437202" r="3.032" fill="#F43F5E" opacity="0.6456"/><circle cx="478.61822002074655" cy="453.0385319126542" r="6.608" fill="#EC4899" opacity="0.31379999999999997"/><circle cx="658.771821452445" cy="666.9600811950955" r="2.184" fill="#8B5CF6" opacity="0.582"/><circle cx="491.8291446709154" cy="495.7718652822823" r="5.76" fill="#EC4899" opacity="0.8502000000000001"/><circle cx="686.0403102972983" cy="527.0740271198234" r="9.336" fill="#F43F5E" opacity="0.5184"/><circle cx="139.69703643271703" cy="568.7314661900439" r="4.912" fill="#8B5CF6" opacity="0.7866"/><circle cx="626.2454940895498" cy="427.4642486625702" r="8.488" fill="#F43F5E" opacity="0.4548"/><circle cx="287.00358083374095" cy="744.6791479107922" r="4.064" fill="#EC4899" opacity="0.723"/><circle cx="538.5925900321411" cy="404.2876601758629" r="7.64" fill="#8B5CF6" opacity="0.3912"/><circle cx="485.831102273305" cy="781.643821762897" r="3.216" fill="#EC4899" opacity="0.6594"/><circle cx="483.0373407528148" cy="441.61414391084185" r="6.792" fill="#F43F5E" opacity="0.3276"/><circle cx="638.3864197399753" cy="695.5948844718373" r="2.368" fill="#8B5CF6" opacity="0.5958"/><circle cx="485.04642737443106" cy="489.2784951740982" r="5.944" fill="#F43F5E" opacity="0.8639999999999999"/><circle cx="689.0204967942266" cy="556.2057985590793" r="9.52" fill="#EC4899" opacity="0.5322"/><circle cx="124.36361656102508" cy="516.5320124875172" r="5.096" fill="#8B5CF6" opacity="0.8004"/><circle cx="643.9294000155013" cy="443.01431924441175" r="8.672" fill="#EC4899" opacity="0.4686"/><circle cx="247.01046505968236" cy="717.451730760373" r="4.248" fill="#F43F5E" opacity="0.7367999999999999"/><circle cx="556.6072478638595" cy="402.89500790752527" r="7.824" fill="#8B5CF6" opacity="0.40499999999999997"/><circle cx="443.6383949035895" cy="785.6935586794989" r="3.4" fill="#F43F5E" opacity="0.6732"/><circle cx="490.3546796520753" cy="430.6677002012344" r="6.976" fill="#EC4899" opacity="0.3414"/><circle cx="612.9528363351992" cy="721.6824232180659" r="2.552" fill="#8B5CF6" opacity="0.6095999999999999"/><circle cx="480.1194709130938" cy="480.8551687595666" r="6.128" fill="#EC4899" opacity="0.8777999999999999"/><circle cx="687.3047852252865" cy="586.7056943441968" r="9.704" fill="#F43F5E" opacity="0.5459999999999999"/><circle cx="116.7448682588032" cy="461.3406674393121" r="5.279999999999999" fill="#8B5CF6" opacity="0.8142"/><circle cx="659.5881558010688" cy="462.216134025039" r="8.856" fill="#F43F5E" opacity="0.48239999999999994"/><circle cx="210.5643871379093" cy="683.6814253188002" r="4.432" fill="#EC4899" opacity="0.7505999999999999"/><circle cx="575.7309941073545" cy="404.86127743388687" r="8.008" fill="#8B5CF6" opacity="0.4188"/><circle cx="400.02100882529487" cy="783.2743569822164" r="3.584" fill="#EC4899" opacity="0.687"/><circle cx="500.4976250020722" cy="420.8015633401939" r="7.16" fill="#F43F5E" opacity="0.35519999999999996"/><circle cx="582.80345133026" cy="744.351362688644" r="2.7359999999999998" fill="#8B5CF6" opacity="0.6234"/><circle cx="477.4450204255705" cy="470.9222955445746" r="6.312" fill="#F43F5E" opacity="0.8916"/><circle cx="680.5710454330858" cy="617.8026211559085" r="9.888" fill="#EC4899" opacity="0.5598"/><circle cx="117.38207034430229" cy="404.31886337429125" r="5.464" fill="#8B5CF6" opacity="0.8280000000000001"/><circle cx="672.5303411035975" cy="484.7841727574113" r="9.04" fill="#EC4899" opacity="0.4962"/><circle cx="178.73256123396703" cy="643.8444743071949" r="4.616" fill="#F43F5E" opacity="0.7644"/><circle cx="595.3490964667205" cy="410.4612385445275" r="8.192" fill="#8B5CF6" opacity="0.4326"/><circle cx="355.98922622721886" cy="774.0676139885281" r="3.768" fill="#F43F5E" opacity="0.7008"/><circle cx="513.279942078275" cy="412.6031857651684" r="7.344" fill="#EC4899" opacity="0.369"/><circle cx="548.4181800411711" cy="762.7765587747522" r="2.92" fill="#8B5CF6" opacity="0.6372"/><circle cx="477.3345422887786" cy="459.97154728520184" r="6.496" fill="#EC4899" opacity="0.3054"/><circle cx="668.6249684529273" cy="648.6629073247569" r="2.072" fill="#F43F5E" opacity="0.5736"/><circle cx="496.66972205539594" cy="498.63279525612154" r="5.648" fill="#8B5CF6" opacity="0.8417999999999999"/><circle cx="682.1084427398771" cy="510.30898068952126" r="9.224" fill="#F43F5E" opacity="0.51"/><circle cx="152.51560502310576" cy="598.5902391088578" r="4.8" fill="#EC4899" opacity="0.7782"/><circle cx="614.7932953055633" cy="419.8595024167572" r="8.376000000000001" fill="#8B5CF6" opacity="0.4464"/><circle cx="312.6140615691596" cy="757.9146178067333" r="3.952" fill="#EC4899" opacity="0.7145999999999999"/><circle cx="528.4051298824394" cy="406.62490376785814" r="7.528" fill="#F43F5E" opacity="0.3828"/><circle cx="510.41756648996994" cy="776.2036102378588" r="3.104" fill="#8B5CF6" opacity="0.651"/><circle cx="480.0023997579091" cy="448.54967459230676" r="6.68" fill="#F43F5E" opacity="0.3192"/><circle cx="651.41109500725" cy="678.4115475766788" r="2.2560000000000002" fill="#EC4899" opacity="0.5873999999999999"/><circle cx="488.98250205434954" cy="493.48426987839525" r="5.832" fill="#8B5CF6" opacity="0.8555999999999999"/><circle cx="687.7402280368217" cy="538.2644322665603" r="9.408000000000001" fill="#EC4899" opacity="0.5238"/><circle cx="132.81965345185478" cy="548.7314386077816" r="4.984" fill="#F43F5E" opacity="0.7919999999999999"/><circle cx="633.3611404833686" cy="433.10122415936723" r="8.559999999999999" fill="#8B5CF6" opacity="0.4602"/><circle cx="271.001742570141" cy="734.8271664311607" r="4.136" fill="#F43F5E" opacity="0.7283999999999999"/><circle cx="545.4732283391497" cy="403.36447079662906" r="7.712" fill="#EC4899" opacity="0.3966"/><circle cx="469.5518543389858" cy="783.9723057373828" r="3.2880000000000003" fill="#8B5CF6" opacity="0.6648"/><circle cx="485.5569629948598" cy="437.2404693925444" r="6.864" fill="#EC4899" opacity="0.33299999999999996"/><circle cx="629.0203200233977" cy="706.1552740558923" r="2.44" fill="#F43F5E" opacity="0.6012"/><circle cx="482.87382936552547" cy="486.1907900516046" r="6.016" fill="#8B5CF6" opacity="0.8694"/><circle cx="688.9288584060084" cy="568.0185743852545" r="9.591999999999999" fill="#F43F5E" opacity="0.5376"/><circle cx="120.42997162023141" cy="495.22993126027933" r="5.168" fill="#EC4899" opacity="0.8057999999999998"/><circle cx="650.3368293664627" cy="450.1061352865996" r="8.744" fill="#8B5CF6" opacity="0.474"/><circle cx="232.2664375759499" cy="704.9940963826209" r="4.32" fill="#EC4899" opacity="0.7422"/><circle cx="563.9909209928979" cy="403.2469017008722" r="7.896" fill="#F43F5E" opacity="0.4104"/><circle cx="426.68622126380086" cy="785.5383159007205" r="3.472" fill="#8B5CF6" opacity="0.6786"/><circle cx="493.9949309885836" cy="426.6453876966954" r="7.048" fill="#F43F5E" opacity="0.3468"/><circle cx="601.6935843741285" cy="731.0068719695196" r="2.624" fill="#EC4899" opacity="0.615"/><circle cx="478.78545458386054" cy="477.12243319785614" r="6.2" fill="#8B5CF6" opacity="0.8832"/><circle cx="685.2811575513401" cy="598.8478257547198" r="9.776" fill="#EC4899" opacity="0.5513999999999999"/><circle cx="115.98677317661043" cy="439.1782799923583" r="5.352" fill="#F43F5E" opacity="0.8195999999999999"/><circle cx="665.0129824670948" cy="470.66613531574376" r="8.928" fill="#8B5CF6" opacity="0.4878"/><circle cx="197.50188565384377" cy="668.7834435512552" r="4.504" fill="#F43F5E" opacity="0.756"/><circle cx="583.3846858027683" cy="406.60816859289235" r="8.08" fill="#EC4899" opacity="0.42419999999999997"/><circle cx="382.78246634767146" cy="780.4925129205149" r="3.6559999999999997" fill="#8B5CF6" opacity="0.6924"/><circle cx="505.1990550170271" cy="417.3633868861391" r="7.232" fill="#EC4899" opacity="0.3606"/><circle cx="569.8215604062103" cy="752.1101142406666" r="2.808" fill="#F43F5E" opacity="0.6288"/><circle cx="477.082334455279" cy="466.72928305581155" r="6.384" fill="#8B5CF6" opacity="0.897"/><circle cx="676.523488547878" cy="629.9542149793042" r="9.96" fill="#F43F5E" opacity="0.5651999999999999"/><circle cx="119.96391119083609" cy="381.77745053234" r="5.536" fill="#EC4899" opacity="0.8333999999999999"/><circle cx="676.7127598726613" cy="494.4465777949869" r="9.112" fill="#8B5CF6" opacity="0.5016"/><circle cx="167.75262806242876" cy="626.740064070432" r="4.688000000000001" fill="#EC4899" opacity="0.7698"/><circle cx="603.0166601151766" cy="413.681243413067" r="8.264" fill="#F43F5E" opacity="0.438"/><circle cx="338.8775380196322" cy="768.5773487198519" r="3.84" fill="#8B5CF6" opacity="0.7061999999999999"/><circle cx="518.9393600068291" cy="409.97055680205654" r="7.416" fill="#F43F5E" opacity="0.37439999999999996"/><circle cx="533.9402396492136" cy="768.6646611159606" r="2.992" fill="#EC4899" opacity="0.6426"/><circle cx="478.03919174047047" cy="455.5266045754523" r="6.568" fill="#8B5CF6" opacity="0.31079999999999997"/><circle cx="662.5147486746007" cy="660.4852531020571" r="2.144" fill="#EC4899" opacity="0.579"/><circle cx="493.5046354925489" cy="496.8935164710971" r="5.720000000000001" fill="#F43F5E" opacity="0.8472"/><circle cx="684.8117037567215" cy="520.9912875864676" r="9.296" fill="#8B5CF6" opacity="0.5154"/><circle cx="143.98556524474492" cy="579.5786544614587" r="4.872" fill="#F43F5E" opacity="0.7836000000000001"/><circle cx="622.2028075857178" cy="424.584923137558" r="8.448" fill="#EC4899" opacity="0.4518"/><circle cx="296.05937979920867" cy="749.6997866080718" r="4.024" fill="#8B5CF6" opacity="0.72"/><circle cx="534.8778638252611" cy="405.00013360542795" r="7.6" fill="#EC4899" opacity="0.3882"/><circle cx="494.72243687968574" cy="779.9502586666265" r="3.176" fill="#F43F5E" opacity="0.6564"/><circle cx="481.8298007307531" cy="444.07787684184495" r="6.752" fill="#8B5CF6" opacity="0.3246"/>
    <text x="500" y="960" font-family="system-ui, sans-serif" font-size="36" font-weight="700" fill="white" text-anchor="middle" opacity="0.85">water</text>
  </svg>