<svg xmlns="http://www.w3.org/2000/svg" viewBox="0 0 1000 1000" width="1000" height="1000">
    <defs>
      <linearGradient id="g318" x1="0" y1="0" x2="1" y2="1">
        <stop offset="0%" stop-color="#6366F1"/>
        <stop offset="100%" stop-color="#8B5CF6"/>
      </linearGradient>
      <radialGradient id="glow318" cx="50%" cy="50%" r="60%">
        <stop offset="0%" stop-color="#A78BFA" stop-opacity="0.2"/>
        <stop offset="100%" stop-color="#A78BFA" stop-opacity="0"/>
      </radialGradient>
    </defs>
    <rect width="1000" height="1000" fill="#030712"/>
    <rect width="1000" height="1000" fill="url(#glow318)"/>
    <path d="M 0 500 L 0 365.83194783780436 L 16.666666666666668 393.1256223070029 L 33.333333333333336 430.88092994553125 L 50 475.40206392904406 L 66.66666666666667 522.3310489639763 L 83.33333333333333 567.0740815826874 L 100 605.2514658236207 L 116.66666666666667 633.1260784572647 L 133.33333333333334 647.9693979410167 L 150 648.328435413835 L 166.66666666666666 634.1680462983916 L 183.33333333333331 606.8743684916225 L 200 569.1190584162161 L 216.66666666666669 524.5979231350601 L 233.33333333333334 477.6689734329944 L 250 432.92590668796834 L 266.6666666666667 394.74855031396 L 283.3333333333333 366.87391550015366 L 300 352.03060577316626 L 316.66666666666663 351.671566538407 L 333.3333333333333 365.8319435737021 L 350 393.125640709753 L 366.66666666666663 430.88092148230436 L 383.33333333333337 475.402089800836 L 400 522.3310395342899 L 416.6666666666667 567.0741050413754 L 433.33333333333337 605.2514590292947 L 450 633.1260905424269 L 466.6666666666667 647.9693963772529 L 483.3333333333333 648.3284368334862 L 500 634.1680505624945 L 516.6666666666667 606.8743751827751 L 533.3333333333334 569.1190668794435 L 550 524.5979325419213 L 566.6666666666666 477.66894749842606 L 583.3333333333334 432.92591521743657 L 600 394.74853162745137 L 616.6666666666667 366.87391989426175 L 633.3333333333333 352.03060147232895 L 650 351.671565118755 L 666.6666666666666 365.83195530130985 L 683.3333333333334 393.1256340185997 L 700 430.8809130190777 L 716.6666666666666 475.40208039397464 L 733.3333333333333 522.3310301046033 L 750 567.0740965119076 L 766.6666666666667 605.2514522349683 L 783.3333333333334 633.1260861483196 L 800 647.9693948134885 L 816.6666666666666 648.3284329290027 L 833.3333333333334 634.168054826597 L 850 606.8743567800246 L 866.6666666666667 569.1190753426705 L 883.3333333333333 524.5979066701292 L 900 477.66895692811244 L 916.6666666666666 432.925923746905 L 933.3333333333334 394.7485384217772 L 950 366.8739242883704 L 966.6666666666666 352.03060303609254 L 983.3333333333333 351.67156369910356 L 1000 365.83195103720664" stroke="#6366F1" stroke-width="3" fill="none" opacity="0.7"/><path d="M 0 500 L 0 594.7160611413958 L 16.666666666666668 616.3425591542255 L 33.333333333333336 633.447923193681 L 50 644.8664589724788 L 66.66666666666667 649.8199917779602 L 83.33333333333333 647.9709598074863 L 100 639.4453714840988 L 116.66666666666667 624.8242155146418 L 133.33333333333334 605.1039255982935 L 150 581.6283957083172 L 166.66666666666666 555.9974437757909 L 183.33333333333331 529.9577761236148 L 200 505.28393103904165 L 216.66666666666669 483.65743430443285 L 233.33333333333334 466.55207198897966 L 250 455.1335458032761 L 266.6666666666667 450.18000769772766 L 283.3333333333333 452.02904194466157 L 300 460.55463242510325 L 316.66666666666663 475.1757744679095 L 333.3333333333333 494.89606180142 L 350 518.3716125851723 L 366.66666666666663 544.0025649507502 L 383.33333333333337 570.0422324412789 L 400 594.7160554550836 L 416.6666666666667 616.3425543974234 L 433.33333333333337 633.447932828359 L 450 644.8664569617665 L 466.6666666666667 649.8199913966848 L 483.3333333333333 647.9709610816313 L 500 639.4453636656939 L 516.6666666666667 624.8242197322392 L 533.3333333333334 605.1039309033304 L 550 581.6284017392642 L 566.6666666666666 555.9974501216491 L 583.3333333333334 529.9577589938276 L 600 505.28393672535356 L 616.6666666666667 483.65743906123464 L 633.3333333333333 466.55207549210314 L 650 455.1335402731917 L 666.6666666666666 450.1800080790024 L 683.3333333333334 452.0290406705161 L 700 460.55462958236836 L 716.6666666666666 475.1757702503128 L 733.3333333333333 494.8960763919198 L 750 518.3716065542252 L 766.6666666666667 544.0025586048921 L 783.3333333333334 570.0422262129691 L 800 594.7160710942089 L 816.6666666666666 616.3425674801069 L 833.3333333333334 633.4479293252359 L 850 644.8664549510537 L 866.6666666666667 649.8199910154091 L 883.3333333333333 647.9709575773358 L 900 639.4453665084293 L 916.6666666666666 624.8242239498363 L 933.3333333333334 605.1039362083669 L 950 581.6283851522853 L 966.6666666666666 555.9974326685667 L 983.3333333333333 529.9577652221371 L 1000 505.2839424116657" stroke="#8B5CF6" stroke-width="2" fill="none" opacity="0.5"/>
    <text x="500" y="960" font-family="system-ui, sans-serif" font-size="36" font-weight="700" fill="white" text-anchor="middle" opacity="0.85">journal</text>
  </svg>