<svg xmlns="http://www.w3.org/2000/svg" viewBox="0 0 1000 1000" width="1000" height="1000">
    <defs>
      <linearGradient id="g322" x1="0" y1="0" x2="1" y2="1">
        <stop offset="0%" stop-color="#EC4899"/>
        <stop offset="100%" stop-color="#F43F5E"/>
      </linearGradient>
      <radialGradient id="glow322" cx="50%" cy="50%" r="60%">
        <stop offset="0%" stop-color="#F9A8D4" stop-opacity="0.2"/>
        <stop offset="100%" stop-color="#F9A8D4" stop-opacity="0"/>
      </radialGradient>
    </defs>
    <rect width="1000" height="1000" fill="#030712"/>
    <rect width="1000" height="1000" fill="url(#glow322)"/>
    <line x1="380.8" y1="461.6" x2="461.6" y2="542.4" stroke="#EC4899" stroke-width="1" opacity="0.2367593488003628"/><line x1="380.8" y1="461.6" x2="542.4" y2="623.2" stroke="#EC4899" stroke-width="1" opacity="0.07351869760072549"/><line x1="380.8" y1="461.6" x2="304" y2="384.8" stroke="#EC4899" stroke-width="1" opacity="0.24484056915678043"/><line x1="380.8" y1="461.6" x2="384.8" y2="465.6" stroke="#EC4899" stroke-width="1" opacity="0.39191877964358235"/><line x1="380.8" y1="461.6" x2="465.6" y2="546.4" stroke="#EC4899" stroke-width="1" opacity="0.2286781284439451"/><line x1="380.8" y1="461.6" x2="546.4" y2="627.2" stroke="#EC4899" stroke-width="1" opacity="0.06543747724430782"/><line x1="380.8" y1="461.6" x2="308" y2="388.8" stroke="#EC4899" stroke-width="1" opacity="0.2529217895131981"/><line x1="380.8" y1="461.6" x2="388.8" y2="469.6" stroke="#EC4899" stroke-width="1" opacity="0.3838375592871647"/><line x1="380.8" y1="461.6" x2="469.6" y2="550.4" stroke="#EC4899" stroke-width="1" opacity="0.2205969080875274"/><line x1="380.8" y1="461.6" x2="550.4" y2="631.2" stroke="#EC4899" stroke-width="1" opacity="0.057356256887890145"/><line x1="380.8" y1="461.6" x2="312" y2="392.8" stroke="#EC4899" stroke-width="1" opacity="0.2610030098696158"/><line x1="380.8" y1="461.6" x2="392.8" y2="473.6" stroke="#EC4899" stroke-width="1" opacity="0.37575633893074695"/><line x1="461.6" y1="542.4" x2="542.4" y2="623.2" stroke="#EC4899" stroke-width="1" opacity="0.23675934880036273"/><line x1="461.6" y1="542.4" x2="304" y2="384.8" stroke="#EC4899" stroke-width="1" opacity="0.08159991795714322"/><line x1="461.6" y1="542.4" x2="384.8" y2="465.6" stroke="#EC4899" stroke-width="1" opacity="0.24484056915678049"/><line x1="461.6" y1="542.4" x2="465.6" y2="546.4" stroke="#EC4899" stroke-width="1" opacity="0.39191877964358235"/><line x1="461.6" y1="542.4" x2="546.4" y2="627.2" stroke="#EC4899" stroke-width="1" opacity="0.22867812844394506"/><line x1="461.6" y1="542.4" x2="308" y2="388.8" stroke="#EC4899" stroke-width="1" opacity="0.08968113831356089"/><line x1="461.6" y1="542.4" x2="388.8" y2="469.6" stroke="#EC4899" stroke-width="1" opacity="0.25292178951319816"/><line x1="461.6" y1="542.4" x2="469.6" y2="550.4" stroke="#EC4899" stroke-width="1" opacity="0.3838375592871647"/><line x1="461.6" y1="542.4" x2="550.4" y2="631.2" stroke="#EC4899" stroke-width="1" opacity="0.22059690808752735"/><line x1="461.6" y1="542.4" x2="312" y2="392.8" stroke="#EC4899" stroke-width="1" opacity="0.09776235866997857"/><line x1="461.6" y1="542.4" x2="392.8" y2="473.6" stroke="#EC4899" stroke-width="1" opacity="0.2610030098696159"/><line x1="542.4" y1="623.2" x2="384.8" y2="465.6" stroke="#EC4899" stroke-width="1" opacity="0.08159991795714322"/><line x1="542.4" y1="623.2" x2="465.6" y2="546.4" stroke="#EC4899" stroke-width="1" opacity="0.24484056915678043"/><line x1="542.4" y1="623.2" x2="546.4" y2="627.2" stroke="#EC4899" stroke-width="1" opacity="0.39191877964358235"/><line x1="542.4" y1="623.2" x2="388.8" y2="469.6" stroke="#EC4899" stroke-width="1" opacity="0.08968113831356089"/><line x1="542.4" y1="623.2" x2="469.6" y2="550.4" stroke="#EC4899" stroke-width="1" opacity="0.2529217895131981"/><line x1="542.4" y1="623.2" x2="550.4" y2="631.2" stroke="#EC4899" stroke-width="1" opacity="0.3838375592871647"/><line x1="542.4" y1="623.2" x2="392.8" y2="473.6" stroke="#EC4899" stroke-width="1" opacity="0.09776235866997857"/><line x1="623.2" y1="304" x2="627.2" y2="308" stroke="#EC4899" stroke-width="1" opacity="0.39191877964358235"/><line x1="623.2" y1="304" x2="631.2" y2="312" stroke="#EC4899" stroke-width="1" opacity="0.3838375592871647"/><line x1="304" y1="384.8" x2="384.8" y2="465.6" stroke="#EC4899" stroke-width="1" opacity="0.23675934880036273"/><line x1="304" y1="384.8" x2="465.6" y2="546.4" stroke="#EC4899" stroke-width="1" opacity="0.07351869760072549"/><line x1="304" y1="384.8" x2="308" y2="388.8" stroke="#EC4899" stroke-width="1" opacity="0.39191877964358235"/><line x1="304" y1="384.8" x2="388.8" y2="469.6" stroke="#EC4899" stroke-width="1" opacity="0.22867812844394506"/><line x1="304" y1="384.8" x2="469.6" y2="550.4" stroke="#EC4899" stroke-width="1" opacity="0.06543747724430782"/><line x1="304" y1="384.8" x2="312" y2="392.8" stroke="#EC4899" stroke-width="1" opacity="0.3838375592871647"/><line x1="304" y1="384.8" x2="392.8" y2="473.6" stroke="#EC4899" stroke-width="1" opacity="0.22059690808752735"/><line x1="384.8" y1="465.6" x2="465.6" y2="546.4" stroke="#EC4899" stroke-width="1" opacity="0.2367593488003628"/><line x1="384.8" y1="465.6" x2="546.4" y2="627.2" stroke="#EC4899" stroke-width="1" opacity="0.07351869760072549"/><line x1="384.8" y1="465.6" x2="308" y2="388.8" stroke="#EC4899" stroke-width="1" opacity="0.24484056915678043"/><line x1="384.8" y1="465.6" x2="388.8" y2="469.6" stroke="#EC4899" stroke-width="1" opacity="0.39191877964358235"/><line x1="384.8" y1="465.6" x2="469.6" y2="550.4" stroke="#EC4899" stroke-width="1" opacity="0.2286781284439451"/><line x1="384.8" y1="465.6" x2="550.4" y2="631.2" stroke="#EC4899" stroke-width="1" opacity="0.06543747724430782"/><line x1="384.8" y1="465.6" x2="312" y2="392.8" stroke="#EC4899" stroke-width="1" opacity="0.2529217895131981"/><line x1="384.8" y1="465.6" x2="392.8" y2="473.6" stroke="#EC4899" stroke-width="1" opacity="0.3838375592871647"/><line x1="465.6" y1="546.4" x2="546.4" y2="627.2" stroke="#EC4899" stroke-width="1" opacity="0.23675934880036273"/><line x1="465.6" y1="546.4" x2="308" y2="388.8" stroke="#EC4899" stroke-width="1" opacity="0.08159991795714322"/><line x1="465.6" y1="546.4" x2="388.8" y2="469.6" stroke="#EC4899" stroke-width="1" opacity="0.24484056915678049"/><line x1="465.6" y1="546.4" x2="469.6" y2="550.4" stroke="#EC4899" stroke-width="1" opacity="0.39191877964358235"/><line x1="465.6" y1="546.4" x2="550.4" y2="631.2" stroke="#EC4899" stroke-width="1" opacity="0.22867812844394506"/><line x1="465.6" y1="546.4" x2="312" y2="392.8" stroke="#EC4899" stroke-width="1" opacity="0.08968113831356089"/><line x1="465.6" y1="546.4" x2="392.8" y2="473.6" stroke="#EC4899" stroke-width="1" opacity="0.25292178951319816"/><line x1="546.4" y1="627.2" x2="388.8" y2="469.6" stroke="#EC4899" stroke-width="1" opacity="0.08159991795714322"/><line x1="546.4" y1="627.2" x2="469.6" y2="550.4" stroke="#EC4899" stroke-width="1" opacity="0.24484056915678043"/><line x1="546.4" y1="627.2" x2="550.4" y2="631.2" stroke="#EC4899" stroke-width="1" opacity="0.39191877964358235"/><line x1="546.4" y1="627.2" x2="392.8" y2="473.6" stroke="#EC4899" stroke-width="1" opacity="0.08968113831356089"/><line x1="627.2" y1="308" x2="631.2" y2="312" stroke="#EC4899" stroke-width="1" opacity="0.39191877964358235"/><line x1="308" y1="388.8" x2="388.8" y2="469.6" stroke="#EC4899" stroke-width="1" opacity="0.23675934880036273"/><line x1="308" y1="388.8" x2="469.6" y2="550.4" stroke="#EC4899" stroke-width="1" opacity="0.07351869760072549"/><line x1="308" y1="388.8" x2="312" y2="392.8" stroke="#EC4899" stroke-width="1" opacity="0.39191877964358235"/><line x1="308" y1="388.8" x2="392.8" y2="473.6" stroke="#EC4899" stroke-width="1" opacity="0.22867812844394506"/><line x1="388.8" y1="469.6" x2="469.6" y2="550.4" stroke="#EC4899" stroke-width="1" opacity="0.2367593488003628"/><line x1="388.8" y1="469.6" x2="550.4" y2="631.2" stroke="#EC4899" stroke-width="1" opacity="0.07351869760072549"/><line x1="388.8" y1="469.6" x2="312" y2="392.8" stroke="#EC4899" stroke-width="1" opacity="0.24484056915678043"/><line x1="388.8" y1="469.6" x2="392.8" y2="473.6" stroke="#EC4899" stroke-width="1" opacity="0.39191877964358235"/><line x1="469.6" y1="550.4" x2="550.4" y2="631.2" stroke="#EC4899" stroke-width="1" opacity="0.23675934880036273"/><line x1="469.6" y1="550.4" x2="312" y2="392.8" stroke="#EC4899" stroke-width="1" opacity="0.08159991795714322"/><line x1="469.6" y1="550.4" x2="392.8" y2="473.6" stroke="#EC4899" stroke-width="1" opacity="0.24484056915678049"/><line x1="550.4" y1="631.2" x2="392.8" y2="473.6" stroke="#EC4899" stroke-width="1" opacity="0.08159991795714322"/><line x1="312" y1="392.8" x2="392.8" y2="473.6" stroke="#EC4899" stroke-width="1" opacity="0.23675934880036273"/><circle cx="380.8" cy="461.6" r="6" fill="#8B5CF6" opacity="0.8"/><circle cx="461.6" cy="542.4" r="6" fill="#8B5CF6" opacity="0.8"/><circle cx="542.4" cy="623.2" r="6" fill="#8B5CF6" opacity="0.8"/><circle cx="623.2" cy="304" r="6" fill="#8B5CF6" opacity="0.8"/><circle cx="304" cy="384.8" r="6" fill="#8B5CF6" opacity="0.8"/><circle cx="384.8" cy="465.6" r="6" fill="#8B5CF6" opacity="0.8"/><circle cx="465.6" cy="546.4" r="6" fill="#8B5CF6" opacity="0.8"/><circle cx="546.4" cy="627.2" r="6" fill="#8B5CF6" opacity="0.8"/><circle cx="627.2" cy="308" r="6" fill="#8B5CF6" opacity="0.8"/><circle cx="308" cy="388.8" r="6" fill="#8B5CF6" opacity="0.8"/><circle cx="388.8" cy="469.6" r="6" fill="#8B5CF6" opacity="0.8"/><circle cx="469.6" cy="550.4" r="6" fill="#8B5CF6" opacity="0.8"/><circle cx="550.4" cy="631.2" r="6" fill="#8B5CF6" opacity="0.8"/><circle cx="631.2" cy="312" r="6" fill="#8B5CF6" opacity="0.8"/><circle cx="312" cy="392.8" r="6" fill="#8B5CF6" opacity="0.8"/><circle cx="392.8" cy="473.6" r="6" fill="#8B5CF6" opacity="0.8"/>
    <text x="500" y="960" font-family="system-ui, sans-serif" font-size="36" font-weight="700" fill="white" text-anchor="middle" opacity="0.85">sunset</text>
  </svg>