<svg xmlns="http://www.w3.org/2000/svg" viewBox="0 0 1000 1000" width="1000" height="1000">
    <defs>
      <linearGradient id="g323" x1="0" y1="0" x2="1" y2="1">
        <stop offset="0%" stop-color="#8B5CF6"/>
        <stop offset="100%" stop-color="#6366F1"/>
      </linearGradient>
      <radialGradient id="glow323" cx="50%" cy="50%" r="60%">
        <stop offset="0%" stop-color="#C4B5FD" stop-opacity="0.2"/>
        <stop offset="100%" stop-color="#C4B5FD" stop-opacity="0"/>
      </radialGradient>
    </defs>
    <rect width="1000" height="1000" fill="#0F172A"/>
    <rect width="1000" height="1000" fill="url(#glow323)"/>
    <rect x="7.5" y="359.25" width="35" height="281.5" fill="#6366F1" opacity="0.7356" rx="4"/><rect x="57.5" y="268.5" width="35" height="463" fill="#8B5CF6" opacity="0.3534" rx="4"/><rect x="107.5" y="427.75" width="35" height="144.5" fill="#6366F1" opacity="0.5711999999999999" rx="4"/><rect x="157.5" y="337" width="35" height="326" fill="#8B5CF6" opacity="0.7889999999999999" rx="4"/><rect x="207.5" y="246.25" width="35" height="507.5" fill="#6366F1" opacity="0.4068" rx="4"/><rect x="257.5" y="405.5" width="35" height="189" fill="#8B5CF6" opacity="0.6246" rx="4"/><rect x="307.5" y="314.75" width="35" height="370.5" fill="#6366F1" opacity="0.8424" rx="4"/><rect x="357.5" y="224" width="35" height="552" fill="#8B5CF6" opacity="0.4602" rx="4"/><rect x="407.5" y="383.25" width="35" height="233.5" fill="#6366F1" opacity="0.6779999999999999" rx="4"/><rect x="457.5" y="292.5" width="35" height="415" fill="#8B5CF6" opacity="0.8957999999999999" rx="4"/><rect x="507.5" y="201.75" width="35" height="596.5" fill="#6366F1" opacity="0.5136" rx="4"/><rect x="557.5" y="361" width="35" height="278" fill="#8B5CF6" opacity="0.7313999999999999" rx="4"/><rect x="607.5" y="270.25" width="35" height="459.5" fill="#6366F1" opacity="0.3492" rx="4"/><rect x="657.5" y="429.5" width="35" height="141" fill="#8B5CF6" opacity="0.567" rx="4"/><rect x="707.5" y="338.75" width="35" height="322.5" fill="#6366F1" opacity="0.7847999999999999" rx="4"/><rect x="757.5" y="248" width="35" height="504" fill="#8B5CF6" opacity="0.4026" rx="4"/><rect x="807.5" y="407.25" width="35" height="185.5" fill="#6366F1" opacity="0.6204000000000001" rx="4"/><rect x="857.5" y="316.5" width="35" height="367" fill="#8B5CF6" opacity="0.8382000000000001" rx="4"/><rect x="907.5" y="225.75" width="35" height="548.5" fill="#6366F1" opacity="0.45599999999999996" rx="4"/><rect x="957.5" y="385" width="35" height="230" fill="#8B5CF6" opacity="0.6738" rx="4"/>
    <text x="500" y="960" font-family="system-ui, sans-serif" font-size="36" font-weight="700" fill="white" text-anchor="middle" opacity="0.85">sunrise</text>
  </svg>