<svg xmlns="http://www.w3.org/2000/svg" viewBox="0 0 1000 1000" width="1000" height="1000">
    <defs>
      <linearGradient id="g329" x1="0" y1="0" x2="1" y2="1">
        <stop offset="0%" stop-color="#8B5CF6"/>
        <stop offset="100%" stop-color="#6366F1"/>
      </linearGradient>
      <radialGradient id="glow329" cx="50%" cy="50%" r="60%">
        <stop offset="0%" stop-color="#C4B5FD" stop-opacity="0.2"/>
        <stop offset="100%" stop-color="#C4B5FD" stop-opacity="0"/>
      </radialGradient>
    </defs>
    <rect width="1000" height="1000" fill="#0F172A"/>
    <rect width="1000" height="1000" fill="url(#glow329)"/>
    <line x1="516.8" y1="333.6" x2="550.4" y2="367.2" stroke="#8B5CF6" stroke-width="1" opacity="0.3321177490060915"/><line x1="516.8" y1="333.6" x2="584" y2="400.8" stroke="#8B5CF6" stroke-width="1" opacity="0.2642354980121828"/><line x1="516.8" y1="333.6" x2="617.6" y2="434.4" stroke="#8B5CF6" stroke-width="1" opacity="0.19635324701827428"/><line x1="516.8" y1="333.6" x2="651.2" y2="468" stroke="#8B5CF6" stroke-width="1" opacity="0.12847099602436568"/><line x1="516.8" y1="333.6" x2="684.8" y2="501.6" stroke="#8B5CF6" stroke-width="1" opacity="0.06058874503045725"/><line x1="516.8" y1="333.6" x2="501.6" y2="318.4" stroke="#8B5CF6" stroke-width="1" opacity="0.36929136264561285"/><line x1="516.8" y1="333.6" x2="535.2" y2="352" stroke="#8B5CF6" stroke-width="1" opacity="0.3628263863604786"/><line x1="516.8" y1="333.6" x2="568.8" y2="385.6" stroke="#8B5CF6" stroke-width="1" opacity="0.2949441353665701"/><line x1="333.6" y1="550.4" x2="367.2" y2="584" stroke="#8B5CF6" stroke-width="1" opacity="0.3321177490060915"/><line x1="333.6" y1="550.4" x2="400.8" y2="617.6" stroke="#8B5CF6" stroke-width="1" opacity="0.2642354980121828"/><line x1="333.6" y1="550.4" x2="434.4" y2="651.2" stroke="#8B5CF6" stroke-width="1" opacity="0.19635324701827428"/><line x1="333.6" y1="550.4" x2="468" y2="684.8" stroke="#8B5CF6" stroke-width="1" opacity="0.12847099602436585"/><line x1="333.6" y1="550.4" x2="318.4" y2="535.2" stroke="#8B5CF6" stroke-width="1" opacity="0.36929136264561285"/><line x1="333.6" y1="550.4" x2="352" y2="568.8" stroke="#8B5CF6" stroke-width="1" opacity="0.3628263863604787"/><line x1="550.4" y1="367.2" x2="584" y2="400.8" stroke="#8B5CF6" stroke-width="1" opacity="0.3321177490060914"/><line x1="550.4" y1="367.2" x2="617.6" y2="434.4" stroke="#8B5CF6" stroke-width="1" opacity="0.2642354980121828"/><line x1="550.4" y1="367.2" x2="651.2" y2="468" stroke="#8B5CF6" stroke-width="1" opacity="0.19635324701827425"/><line x1="550.4" y1="367.2" x2="684.8" y2="501.6" stroke="#8B5CF6" stroke-width="1" opacity="0.1284709960243658"/><line x1="550.4" y1="367.2" x2="501.6" y2="318.4" stroke="#8B5CF6" stroke-width="1" opacity="0.30140911165170425"/><line x1="550.4" y1="367.2" x2="535.2" y2="352" stroke="#8B5CF6" stroke-width="1" opacity="0.3692913626456129"/><line x1="550.4" y1="367.2" x2="568.8" y2="385.6" stroke="#8B5CF6" stroke-width="1" opacity="0.36282638636047865"/><line x1="367.2" y1="584" x2="400.8" y2="617.6" stroke="#8B5CF6" stroke-width="1" opacity="0.3321177490060914"/><line x1="367.2" y1="584" x2="434.4" y2="651.2" stroke="#8B5CF6" stroke-width="1" opacity="0.2642354980121828"/><line x1="367.2" y1="584" x2="468" y2="684.8" stroke="#8B5CF6" stroke-width="1" opacity="0.19635324701827436"/><line x1="367.2" y1="584" x2="318.4" y2="535.2" stroke="#8B5CF6" stroke-width="1" opacity="0.30140911165170425"/><line x1="367.2" y1="584" x2="352" y2="568.8" stroke="#8B5CF6" stroke-width="1" opacity="0.3692913626456128"/><line x1="584" y1="400.8" x2="617.6" y2="434.4" stroke="#8B5CF6" stroke-width="1" opacity="0.3321177490060915"/><line x1="584" y1="400.8" x2="651.2" y2="468" stroke="#8B5CF6" stroke-width="1" opacity="0.2642354980121828"/><line x1="584" y1="400.8" x2="684.8" y2="501.6" stroke="#8B5CF6" stroke-width="1" opacity="0.19635324701827436"/><line x1="584" y1="400.8" x2="501.6" y2="318.4" stroke="#8B5CF6" stroke-width="1" opacity="0.23352686065779568"/><line x1="584" y1="400.8" x2="535.2" y2="352" stroke="#8B5CF6" stroke-width="1" opacity="0.30140911165170425"/><line x1="584" y1="400.8" x2="568.8" y2="385.6" stroke="#8B5CF6" stroke-width="1" opacity="0.3692913626456128"/><line x1="400.8" y1="617.6" x2="434.4" y2="651.2" stroke="#8B5CF6" stroke-width="1" opacity="0.3321177490060915"/><line x1="400.8" y1="617.6" x2="468" y2="684.8" stroke="#8B5CF6" stroke-width="1" opacity="0.264235498012183"/><line x1="400.8" y1="617.6" x2="318.4" y2="535.2" stroke="#8B5CF6" stroke-width="1" opacity="0.23352686065779568"/><line x1="400.8" y1="617.6" x2="352" y2="568.8" stroke="#8B5CF6" stroke-width="1" opacity="0.30140911165170414"/><line x1="617.6" y1="434.4" x2="651.2" y2="468" stroke="#8B5CF6" stroke-width="1" opacity="0.3321177490060914"/><line x1="617.6" y1="434.4" x2="684.8" y2="501.6" stroke="#8B5CF6" stroke-width="1" opacity="0.26423549801218293"/><line x1="617.6" y1="434.4" x2="501.6" y2="318.4" stroke="#8B5CF6" stroke-width="1" opacity="0.16564460966388714"/><line x1="617.6" y1="434.4" x2="535.2" y2="352" stroke="#8B5CF6" stroke-width="1" opacity="0.23352686065779574"/><line x1="617.6" y1="434.4" x2="568.8" y2="385.6" stroke="#8B5CF6" stroke-width="1" opacity="0.30140911165170425"/><line x1="434.4" y1="651.2" x2="468" y2="684.8" stroke="#8B5CF6" stroke-width="1" opacity="0.33211774900609153"/><line x1="434.4" y1="651.2" x2="318.4" y2="535.2" stroke="#8B5CF6" stroke-width="1" opacity="0.16564460966388714"/><line x1="434.4" y1="651.2" x2="352" y2="568.8" stroke="#8B5CF6" stroke-width="1" opacity="0.23352686065779563"/><line x1="651.2" y1="468" x2="684.8" y2="501.6" stroke="#8B5CF6" stroke-width="1" opacity="0.33211774900609153"/><line x1="651.2" y1="468" x2="501.6" y2="318.4" stroke="#8B5CF6" stroke-width="1" opacity="0.09776235866997851"/><line x1="651.2" y1="468" x2="535.2" y2="352" stroke="#8B5CF6" stroke-width="1" opacity="0.16564460966388714"/><line x1="651.2" y1="468" x2="568.8" y2="385.6" stroke="#8B5CF6" stroke-width="1" opacity="0.23352686065779563"/><line x1="468" y1="684.8" x2="318.4" y2="535.2" stroke="#8B5CF6" stroke-width="1" opacity="0.09776235866997862"/><line x1="468" y1="684.8" x2="352" y2="568.8" stroke="#8B5CF6" stroke-width="1" opacity="0.16564460966388714"/><line x1="684.8" y1="501.6" x2="501.6" y2="318.4" stroke="#8B5CF6" stroke-width="1" opacity="0.029880107676070022"/><line x1="684.8" y1="501.6" x2="535.2" y2="352" stroke="#8B5CF6" stroke-width="1" opacity="0.09776235866997862"/><line x1="684.8" y1="501.6" x2="568.8" y2="385.6" stroke="#8B5CF6" stroke-width="1" opacity="0.16564460966388714"/><line x1="501.6" y1="318.4" x2="535.2" y2="352" stroke="#8B5CF6" stroke-width="1" opacity="0.3321177490060914"/><line x1="501.6" y1="318.4" x2="568.8" y2="385.6" stroke="#8B5CF6" stroke-width="1" opacity="0.26423549801218293"/><line x1="318.4" y1="535.2" x2="352" y2="568.8" stroke="#8B5CF6" stroke-width="1" opacity="0.33211774900609153"/><line x1="535.2" y1="352" x2="568.8" y2="385.6" stroke="#8B5CF6" stroke-width="1" opacity="0.33211774900609153"/><circle cx="516.8" cy="333.6" r="6" fill="#06B6D4" opacity="0.8"/><circle cx="333.6" cy="550.4" r="6" fill="#06B6D4" opacity="0.8"/><circle cx="550.4" cy="367.2" r="6" fill="#06B6D4" opacity="0.8"/><circle cx="367.2" cy="584" r="6" fill="#06B6D4" opacity="0.8"/><circle cx="584" cy="400.8" r="6" fill="#06B6D4" opacity="0.8"/><circle cx="400.8" cy="617.6" r="6" fill="#06B6D4" opacity="0.8"/><circle cx="617.6" cy="434.4" r="6" fill="#06B6D4" opacity="0.8"/><circle cx="434.4" cy="651.2" r="6" fill="#06B6D4" opacity="0.8"/><circle cx="651.2" cy="468" r="6" fill="#06B6D4" opacity="0.8"/><circle cx="468" cy="684.8" r="6" fill="#06B6D4" opacity="0.8"/><circle cx="684.8" cy="501.6" r="6" fill="#06B6D4" opacity="0.8"/><circle cx="501.6" cy="318.4" r="6" fill="#06B6D4" opacity="0.8"/><circle cx="318.4" cy="535.2" r="6" fill="#06B6D4" opacity="0.8"/><circle cx="535.2" cy="352" r="6" fill="#06B6D4" opacity="0.8"/><circle cx="352" cy="568.8" r="6" fill="#06B6D4" opacity="0.8"/><circle cx="568.8" cy="385.6" r="6" fill="#06B6D4" opacity="0.8"/>
    <text x="500" y="960" font-family="system-ui, sans-serif" font-size="36" font-weight="700" fill="white" text-anchor="middle" opacity="0.85">tree</text>
  </svg>