<svg xmlns="http://www.w3.org/2000/svg" viewBox="0 0 1000 1000" width="1000" height="1000">
    <defs>
      <linearGradient id="g331" x1="0" y1="0" x2="1" y2="1">
        <stop offset="0%" stop-color="#06B6D4"/>
        <stop offset="100%" stop-color="#0EA5E9"/>
      </linearGradient>
      <radialGradient id="glow331" cx="50%" cy="50%" r="60%">
        <stop offset="0%" stop-color="#67E8F9" stop-opacity="0.2"/>
        <stop offset="100%" stop-color="#67E8F9" stop-opacity="0"/>
      </radialGradient>
    </defs>
    <rect width="1000" height="1000" fill="#030712"/>
    <rect width="1000" height="1000" fill="url(#glow331)"/>
    <circle cx="455.8010305685458" cy="340.4073588751744" r="2.968" fill="#6366F1" opacity="0.7968"/><circle cx="458.4957098402272" cy="524.8988734350249" r="8.623999999999999" fill="#06B6D4" opacity="0.621"/><circle cx="740.0051167179498" cy="728.2344933378898" r="6.28" fill="#0EA5E9" opacity="0.4452"/><circle cx="600.7306414833811" cy="311.18967754292" r="3.936" fill="#6366F1" opacity="0.8694"/><circle cx="405.53125744432924" cy="478.8837342328147" r="9.591999999999999" fill="#0EA5E9" opacity="0.6936"/><circle cx="519.0727431810406" cy="879.1205487276442" r="7.248" fill="#06B6D4" opacity="0.5178"/><circle cx="749.0428284454533" cy="417.34753724244786" r="4.904" fill="#6366F1" opacity="0.34199999999999997"/><circle cx="419.1416604859151" cy="379.397475436768" r="2.56" fill="#06B6D4" opacity="0.7662"/><circle cx="481.7486556915754" cy="521.2341336280842" r="8.216000000000001" fill="#0EA5E9" opacity="0.5904"/><circle cx="781.2202479064389" cy="632.3322038184247" r="5.872" fill="#6366F1" opacity="0.41459999999999997"/><circle cx="532.6861548963852" cy="309.179206379154" r="3.528" fill="#0EA5E9" opacity="0.8388"/><circle cx="423.98574230262864" cy="507.6676350146328" r="9.184000000000001" fill="#06B6D4" opacity="0.663"/><circle cx="630.1293117202729" cy="834.7999435949894" r="6.84" fill="#6366F1" opacity="0.48719999999999997"/><circle cx="693.9792103387521" cy="355.3069941000804" r="4.496" fill="#06B6D4" opacity="0.3114"/><circle cx="401.3886544555138" cy="423.5091997041086" r="2.152" fill="#0EA5E9" opacity="0.7356"/><circle cx="497.1136788740343" cy="507.0305867719419" r="7.808" fill="#6366F1" opacity="0.5598"/><circle cx="788.3331083670739" cy="534.5858152915501" r="5.464" fill="#0EA5E9" opacity="0.384"/><circle cx="473.9809279642848" cy="328.76551781139335" r="3.12" fill="#06B6D4" opacity="0.8082"/><circle cx="448.88927110540385" cy="522.8843481852356" r="8.776" fill="#6366F1" opacity="0.6324000000000001"/><circle cx="715.9592477268561" cy="761.0498866524374" r="6.432" fill="#06B6D4" opacity="0.4566"/><circle cx="626.8509590317614" cy="318.2986125734798" r="4.088" fill="#0EA5E9" opacity="0.8808"/><circle cx="401.55178805278496" cy="465.2536395518002" r="9.744" fill="#6366F1" opacity="0.7050000000000001"/><circle cx="473.259958043382" cy="886.2755624630664" r="7.4" fill="#0EA5E9" opacity="0.5292"/><circle cx="764.5608641437466" cy="446.0783052611101" r="5.056" fill="#06B6D4" opacity="0.3534"/><circle cx="430.6302516397972" cy="363.8542031040174" r="2.7119999999999997" fill="#6366F1" opacity="0.7776000000000001"/><circle cx="473.74453302204904" cy="524.0418479691085" r="8.368" fill="#06B6D4" opacity="0.6018"/><circle cx="769.9006548494906" cy="668.9147610832641" r="6.024" fill="#0EA5E9" opacity="0.426"/><circle cx="557.3458756089593" cy="307.145416049704" r="3.6799999999999997" fill="#6366F1" opacity="0.8502000000000001"/><circle cx="416.01492240001204" cy="498.41673106390573" r="9.336" fill="#0EA5E9" opacity="0.6744"/><circle cx="591.2194506120688" cy="855.2763035019818" r="6.992" fill="#06B6D4" opacity="0.4986"/><circle cx="716.4208470106568" cy="375.6529977072631" r="4.648" fill="#6366F1" opacity="0.3228"/><circle cx="405.7926763374906" cy="406.9691439986324" r="2.304" fill="#06B6D4" opacity="0.747"/><circle cx="492.59379808897495" cy="513.2735893131107" r="7.96" fill="#0EA5E9" opacity="0.5711999999999999"/><circle cx="789.5462564085728" cy="570.4767011130699" r="5.616" fill="#6366F1" opacity="0.3954"/><circle cx="494.3209347586744" cy="319.2892138858757" r="3.2720000000000002" fill="#0EA5E9" opacity="0.8195999999999999"/><circle cx="439.2706149541135" cy="518.8918445882994" r="8.928" fill="#06B6D4" opacity="0.6437999999999999"/><circle cx="687.4444017367498" cy="791.3032033080858" r="6.584" fill="#6366F1" opacity="0.46799999999999997"/><circle cx="652.6499200159304" cy="329.0302894687774" r="4.24" fill="#06B6D4" opacity="0.8921999999999999"/><circle cx="399.5762038800535" cy="450.41107812364305" r="9.896" fill="#0EA5E9" opacity="0.7163999999999999"/><circle cx="426.0218570015559" cy="887.8070065876863" r="7.552" fill="#6366F1" opacity="0.5406"/><circle cx="776.6744616222467" cy="477.35044622867935" r="5.208" fill="#0EA5E9" opacity="0.3648"/><circle cx="444.7192751228074" cy="349.4270892323186" r="2.864" fill="#06B6D4" opacity="0.7889999999999999"/><circle cx="464.89161209649035" cy="525.1722287216825" r="8.52" fill="#6366F1" opacity="0.6132"/><circle cx="753.7787103108496" cy="704.6273837807684" r="6.176" fill="#06B6D4" opacity="0.4374"/><circle cx="582.924479564542" cy="308.3728341571847" r="3.832" fill="#0EA5E9" opacity="0.8615999999999999"/><circle cx="409.27373340618675" cy="487.3784093732871" r="9.488" fill="#6366F1" opacity="0.6858"/><circle cx="549.2576960441506" cy="871.1455770724233" r="7.144" fill="#0EA5E9" opacity="0.51"/><circle cx="736.6836311425018" cy="399.33869288947153" r="4.8" fill="#06B6D4" opacity="0.3342"/><circle cx="412.80971073166427" cy="390.4652865192777" r="2.456" fill="#6366F1" opacity="0.7584"/><circle cx="486.5984962477316" cy="518.4455874717488" r="8.112" fill="#06B6D4" opacity="0.5826"/><circle cx="786.2096453902476" cy="607.1232882504488" r="5.768" fill="#0EA5E9" opacity="0.4068"/><circle cx="516.5511654301599" cy="312.3284280374263" r="3.424" fill="#6366F1" opacity="0.831"/><circle cx="429.9787014043325" cy="512.9018503702522" r="9.08" fill="#0EA5E9" opacity="0.6552"/><circle cx="654.7389813944303" cy="818.3894590544953" r="6.736" fill="#06B6D4" opacity="0.47939999999999994"/><circle cx="677.6263012884928" cy="343.40135029135917" r="4.3919999999999995" fill="#6366F1" opacity="0.3036"/><circle cx="399.8316464109598" cy="434.6512361305814" r="2.048" fill="#06B6D4" opacity="0.7278"/><circle cx="499.27271535288133" cy="502.2871504196413" r="7.704" fill="#0EA5E9" opacity="0.552"/><circle cx="784.997357597096" cy="510.7492400974653" r="5.359999999999999" fill="#6366F1" opacity="0.3762"/><circle cx="461.29457631833264" cy="336.5194501550028" r="3.016" fill="#0EA5E9" opacity="0.8004"/><circle cx="455.4836206537717" cy="524.4730866443672" r="8.672" fill="#06B6D4" opacity="0.6246"/><circle cx="732.9079837762224" cy="738.8364107360828" r="6.328" fill="#6366F1" opacity="0.4488"/><circle cx="608.9840608339787" cy="313.0469725194704" r="3.984" fill="#06B6D4" opacity="0.873"/><circle cx="404.07345241396644" cy="474.7267440122085" r="9.64" fill="#0EA5E9" opacity="0.6972"/><circle cx="504.8002272354408" cy="881.9698388858578" r="7.296" fill="#6366F1" opacity="0.5214"/><circle cx="754.2857679672545" cy="426.123155120812" r="4.952" fill="#0EA5E9" opacity="0.34559999999999996"/><circle cx="422.4842246177128" cy="374.3932144871035" r="2.608" fill="#06B6D4" opacity="0.7698"/><circle cx="479.32941728683846" cy="522.2909625251658" r="8.264" fill="#6366F1" opacity="0.594"/><circle cx="778.1643357684022" cy="643.94041234665" r="5.92" fill="#06B6D4" opacity="0.4182"/><circle cx="540.3490713188968" cy="308.19814275220745" r="3.576" fill="#0EA5E9" opacity="0.8424"/><circle cx="421.3554937998522" cy="504.9478929389099" r="9.232" fill="#6366F1" opacity="0.6666"/><circle cx="618.2027115232272" cy="841.7348079850174" r="6.888" fill="#0EA5E9" opacity="0.4908"/><circle cx="701.2713668603876" cy="361.3594688334207" r="4.5440000000000005" fill="#06B6D4" opacity="0.315"/><circle cx="402.5020895338507" cy="418.3054625159385" r="2.2" fill="#6366F1" opacity="0.7392"/><circle cx="495.8562441900672" cy="509.10105970685" r="7.856" fill="#06B6D4" opacity="0.5633999999999999"/><circle cx="789.1951461262563" cy="545.8040113637796" r="5.5120000000000005" fill="#0EA5E9" opacity="0.3876"/><circle cx="480.18241881621657" cy="325.5218538726865" r="3.168" fill="#6366F1" opacity="0.8117999999999999"/><circle cx="445.83720304525576" cy="521.8392176150876" r="8.824" fill="#0EA5E9" opacity="0.636"/><circle cx="707.4258175733994" cy="770.9095240186414" r="6.48" fill="#06B6D4" opacity="0.4602"/><circle cx="635.0562173383414" cy="321.29404554335997" r="4.136" fill="#6366F1" opacity="0.8843999999999999"/><circle cx="400.69987130713474" cy="460.68429777327634" r="9.792" fill="#06B6D4" opacity="0.7086"/><circle cx="458.46429429435875" cy="887.3795879386707" r="7.448" fill="#0EA5E9" opacity="0.5327999999999999"/><circle cx="768.7732512022233" cy="455.6976362009135" r="5.104" fill="#6366F1" opacity="0.357"/><circle cx="434.80269495048765" cy="359.1584173112186" r="2.76" fill="#0EA5E9" opacity="0.7812"/><circle cx="471.027184581565" cy="524.5881265396389" r="8.416" fill="#06B6D4" opacity="0.6053999999999999"/><circle cx="765.3274482272794" cy="680.3163476149634" r="6.072" fill="#6366F1" opacity="0.4296"/><circle cx="565.3441189567478" cy="307.17078510307005" r="3.7279999999999998" fill="#06B6D4" opacity="0.8537999999999999"/><circle cx="413.73810607058454" cy="495.1167986207531" r="9.384" fill="#0EA5E9" opacity="0.6779999999999999"/><circle cx="578.2730249832226" cy="860.8073912213771" r="7.04" fill="#6366F1" opacity="0.5022"/><circle cx="723.0782904557786" cy="382.7819283244804" r="4.696" fill="#0EA5E9" opacity="0.32639999999999997"/><circle cx="407.72305012081273" cy="401.7350290235937" r="2.352" fill="#06B6D4" opacity="0.7505999999999999"/><circle cx="490.8512147698755" cy="515.0352827979076" r="8.008" fill="#6366F1" opacity="0.5748"/><circle cx="788.9931125444602" cy="581.9947614294044" r="5.664" fill="#06B6D4" opacity="0.399"/><circle cx="501.1510719744903" cy="316.80361621115566" r="3.3200000000000003" fill="#0EA5E9" opacity="0.8231999999999999"/><circle cx="436.28481183700393" cy="517.2155394151332" r="8.975999999999999" fill="#6366F1" opacity="0.6474"/><circle cx="677.5536458137294" cy="800.2268190189756" r="6.632" fill="#0EA5E9" opacity="0.47159999999999996"/><circle cx="660.6501056262457" cy="333.1764298359608" r="4.288" fill="#06B6D4" opacity="0.8957999999999999"/><circle cx="399.40621411420034" cy="445.5183495003878" r="9.943999999999999" fill="#6366F1" opacity="0.72"/><circle cx="410.91965375090587" cy="887.0820738708285" r="7.6" fill="#06B6D4" opacity="0.5442"/><circle cx="779.729221709875" cy="487.68892687099776" r="5.256" fill="#0EA5E9" opacity="0.3684"/><circle cx="449.6920333157585" cy="345.16799914714903" r="2.912" fill="#6366F1" opacity="0.7926"/>
    <text x="500" y="960" font-family="system-ui, sans-serif" font-size="36" font-weight="700" fill="white" text-anchor="middle" opacity="0.85">mountain</text>
  </svg>