<svg xmlns="http://www.w3.org/2000/svg" viewBox="0 0 1000 1000" width="1000" height="1000">
    <defs>
      <linearGradient id="g332" x1="0" y1="0" x2="1" y2="1">
        <stop offset="0%" stop-color="#10B981"/>
        <stop offset="100%" stop-color="#14B8A6"/>
      </linearGradient>
      <radialGradient id="glow332" cx="50%" cy="50%" r="60%">
        <stop offset="0%" stop-color="#6EE7B7" stop-opacity="0.2"/>
        <stop offset="100%" stop-color="#6EE7B7" stop-opacity="0"/>
      </radialGradient>
    </defs>
    <rect width="1000" height="1000" fill="#030712"/>
    <rect width="1000" height="1000" fill="url(#glow332)"/>
    <path d="M 0 500 L 0 472.2328276891358 L 16.666666666666668 519.14328744958 L 33.333333333333336 564.1798687519013 L 50 602.9340769865812 L 66.66666666666667 631.6123800257735 L 83.33333333333333 647.4075455995659 L 100 648.7734327648641 L 116.66666666666667 635.5763466126896 L 133.33333333333334 609.1081000235338 L 150 571.9595918137269 L 166.66666666666666 527.7671769964355 L 183.33333333333331 480.85671727940814 L 200 435.8201355575975 L 216.66666666666669 397.06592648158426 L 233.33333333333334 368.3876222615704 L 250 352.5924552830554 L 266.6666666666667 351.22656662663746 L 283.3333333333333 364.4236589980926 L 300 390.8919089752491 L 316.66666666666663 428.04041969219304 L 333.3333333333333 472.2328358903418 L 350 519.1432779916037 L 366.66666666666663 564.1798601329037 L 383.33333333333337 602.9340700502502 L 400 631.6123754510854 L 416.6666666666667 647.4075438343231 L 433.33333333333337 648.7734339818608 L 450 635.5763430419614 L 466.6666666666667 609.1080942966659 L 483.3333333333333 571.9595844913051 L 500 527.7671687952295 L 516.6666666666667 480.85670900220913 L 533.3333333333334 435.8201280146355 L 550 397.0659204112169 L 566.6666666666666 368.38761825800765 L 583.3333333333334 352.5924570482986 L 600 351.2265654096411 L 616.6666666666667 364.4236549179848 L 633.3333333333333 390.8919024314192 L 650 428.04041132519677 L 666.6666666666666 472.23282651919914 L 683.3333333333334 519.1432862688026 L 700 564.1798676758658 L 716.6666666666666 602.9340761206178 L 733.3333333333333 631.6123794546485 L 750 647.4075453791849 L 766.6666666666667 648.7734329167996 L 783.3333333333334 635.5763394712328 L 800 609.1081008404956 L 816.6666666666666 571.9595928583012 L 833.3333333333334 527.7671781663721 L 850 480.8567184601855 L 866.6666666666667 435.82013663363284 L 883.3333333333333 397.0659273475478 L 900 368.38762283269557 L 916.6666666666666 352.59245550343655 L 933.3333333333334 351.22656647470205 L 950 364.42365848871304 L 966.6666666666666 390.89190815828726 L 983.3333333333333 428.04041864761865 L 1000 472.2328347204052" stroke="#10B981" stroke-width="3" fill="none" opacity="0.7"/><path d="M 0 500 L 0 648.2716962572163 L 16.666666666666668 649.7142851517588 L 33.333333333333336 644.3615090530114 L 50 632.5781555081106 L 66.66666666666667 615.1672303265792 L 83.33333333333333 593.3152745804106 L 100 568.5114439116503 L 116.66666666666667 542.4461001778335 L 133.33333333333334 516.8955307801405 L 150 493.60098724237537 L 166.66666666666666 474.1499416928397 L 183.33333333333331 459.8679450509951 L 200 451.72830433119816 L 216.66666666666669 450.2857155086241 L 233.33333333333334 455.63848989471325 L 250 467.42184942244785 L 266.6666666666667 484.83276726241206 L 283.3333333333333 506.6847225546061 L 300 531.4885529646353 L 316.66666666666663 557.5538966525974 L 333.3333333333333 583.1044662204365 L 350 606.3990101327533 L 366.66666666666663 625.850064004261 L 383.33333333333337 640.1320535721636 L 400 648.271697287124 L 416.6666666666667 649.7142847314881 L 433.33333333333337 644.3615111575621 L 450 632.57815237028 L 466.6666666666667 615.1672351485965 L 483.3333333333333 593.3152695657992 L 500 568.5114501590788 L 516.6666666666667 542.4460946301026 L 533.3333333333334 516.8955367789865 L 550 493.600992492118 L 566.6666666666666 474.1499380671779 L 583.3333333333334 459.86794780467784 L 600 451.72830330129017 L 616.6666666666667 450.28571502839986 L 633.3333333333333 455.63849173652216 L 650 467.42184583699225 L 666.6666666666666 484.83277148242666 L 683.3333333333334 506.6847275692174 L 700 531.488546717207 L 716.6666666666666 557.5539022003284 L 733.3333333333333 583.1044602215904 L 750 606.3990147270938 L 766.6666666666667 625.8500598613832 L 783.3333333333334 640.1320559820637 L 800 648.2716961102955 L 816.6666666666666 649.714284311217 L 833.3333333333334 644.3615093157532 L 850 632.5781559557354 L 866.6666666666667 615.1672309285821 L 883.3333333333333 593.315275295766 L 900 568.5114446916081 L 916.6666666666666 542.4461009692407 L 933.3333333333334 516.8955315290641 L 950 493.60098789777743 L 966.6666666666666 474.1499422100557 L 983.3333333333333 459.86794539477756 L 1000 451.7283044781189" stroke="#14B8A6" stroke-width="2" fill="none" opacity="0.5"/>
    <text x="500" y="960" font-family="system-ui, sans-serif" font-size="36" font-weight="700" fill="white" text-anchor="middle" opacity="0.85">youtube</text>
  </svg>