<svg xmlns="http://www.w3.org/2000/svg" viewBox="0 0 1000 1000" width="1000" height="1000">
    <defs>
      <linearGradient id="g338" x1="0" y1="0" x2="1" y2="1">
        <stop offset="0%" stop-color="#10B981"/>
        <stop offset="100%" stop-color="#14B8A6"/>
      </linearGradient>
      <radialGradient id="glow338" cx="50%" cy="50%" r="60%">
        <stop offset="0%" stop-color="#6EE7B7" stop-opacity="0.2"/>
        <stop offset="100%" stop-color="#6EE7B7" stop-opacity="0"/>
      </radialGradient>
    </defs>
    <rect width="1000" height="1000" fill="#030712"/>
    <rect width="1000" height="1000" fill="url(#glow338)"/>
    <rect x="7.5" y="386.75" width="35" height="226.5" fill="#14B8A6" opacity="0.6035999999999999" rx="4"/><rect x="57.5" y="323.5" width="35" height="353" fill="#10B981" opacity="0.7554" rx="4"/><rect x="107.5" y="260.25" width="35" height="479.5" fill="#14B8A6" opacity="0.3072" rx="4"/><rect x="157.5" y="447" width="35" height="106" fill="#10B981" opacity="0.45899999999999996" rx="4"/><rect x="207.5" y="383.75" width="35" height="232.5" fill="#14B8A6" opacity="0.6108" rx="4"/><rect x="257.5" y="320.5" width="35" height="359" fill="#10B981" opacity="0.7626" rx="4"/><rect x="307.5" y="257.25" width="35" height="485.5" fill="#14B8A6" opacity="0.3144" rx="4"/><rect x="357.5" y="444" width="35" height="112" fill="#10B981" opacity="0.4662" rx="4"/><rect x="407.5" y="380.75" width="35" height="238.5" fill="#14B8A6" opacity="0.618" rx="4"/><rect x="457.5" y="317.5" width="35" height="365" fill="#10B981" opacity="0.7698" rx="4"/><rect x="507.5" y="254.25" width="35" height="491.5" fill="#14B8A6" opacity="0.3216" rx="4"/><rect x="557.5" y="441" width="35" height="118" fill="#10B981" opacity="0.47339999999999993" rx="4"/><rect x="607.5" y="377.75" width="35" height="244.5" fill="#14B8A6" opacity="0.6252" rx="4"/><rect x="657.5" y="314.5" width="35" height="371" fill="#10B981" opacity="0.7769999999999999" rx="4"/><rect x="707.5" y="251.25" width="35" height="497.5" fill="#14B8A6" opacity="0.3288" rx="4"/><rect x="757.5" y="438" width="35" height="124" fill="#10B981" opacity="0.48059999999999997" rx="4"/><rect x="807.5" y="374.75" width="35" height="250.5" fill="#14B8A6" opacity="0.6324000000000001" rx="4"/><rect x="857.5" y="311.5" width="35" height="377" fill="#10B981" opacity="0.7842" rx="4"/><rect x="907.5" y="248.25" width="35" height="503.5" fill="#14B8A6" opacity="0.33599999999999997" rx="4"/><rect x="957.5" y="435" width="35" height="130" fill="#10B981" opacity="0.4878" rx="4"/>
    <text x="500" y="960" font-family="system-ui, sans-serif" font-size="36" font-weight="700" fill="white" text-anchor="middle" opacity="0.85">twitter</text>
  </svg>