<svg xmlns="http://www.w3.org/2000/svg" viewBox="0 0 1000 1000" width="1000" height="1000">
    <defs>
      <linearGradient id="g340" x1="0" y1="0" x2="1" y2="1">
        <stop offset="0%" stop-color="#EC4899"/>
        <stop offset="100%" stop-color="#F43F5E"/>
      </linearGradient>
      <radialGradient id="glow340" cx="50%" cy="50%" r="60%">
        <stop offset="0%" stop-color="#F9A8D4" stop-opacity="0.2"/>
        <stop offset="100%" stop-color="#F9A8D4" stop-opacity="0"/>
      </radialGradient>
    </defs>
    <rect width="1000" height="1000" fill="#030712"/>
    <rect width="1000" height="1000" fill="url(#glow340)"/>
    <line x1="644.8" y1="589.5999999999999" x2="589.5999999999999" y2="534.4" stroke="#EC4899" stroke-width="1" opacity="0.28847915908143595"/><line x1="644.8" y1="589.5999999999999" x2="534.4" y2="479.20000000000005" stroke="#EC4899" stroke-width="1" opacity="0.17695831816287205"/><line x1="644.8" y1="589.5999999999999" x2="479.20000000000005" y2="424" stroke="#EC4899" stroke-width="1" opacity="0.06543747724430798"/><line x1="644.8" y1="589.5999999999999" x2="658.4000000000001" y2="603.2" stroke="#EC4899" stroke-width="1" opacity="0.3725238507881796"/><line x1="644.8" y1="589.5999999999999" x2="603.2" y2="548" stroke="#EC4899" stroke-width="1" opacity="0.31595530829325624"/><line x1="644.8" y1="589.5999999999999" x2="548" y2="492.79999999999995" stroke="#EC4899" stroke-width="1" opacity="0.20443446737469212"/><line x1="644.8" y1="589.5999999999999" x2="492.79999999999995" y2="437.6" stroke="#EC4899" stroke-width="1" opacity="0.09291362645612805"/><line x1="644.8" y1="589.5999999999999" x2="672" y2="616.8" stroke="#EC4899" stroke-width="1" opacity="0.34504770157635967"/><line x1="644.8" y1="589.5999999999999" x2="616.8" y2="561.6" stroke="#EC4899" stroke-width="1" opacity="0.3434314575050763"/><line x1="589.5999999999999" y1="534.4" x2="534.4" y2="479.20000000000005" stroke="#EC4899" stroke-width="1" opacity="0.28847915908143607"/><line x1="589.5999999999999" y1="534.4" x2="479.20000000000005" y2="424" stroke="#EC4899" stroke-width="1" opacity="0.17695831816287205"/><line x1="589.5999999999999" y1="534.4" x2="424" y2="368.8" stroke="#EC4899" stroke-width="1" opacity="0.06543747724430793"/><line x1="589.5999999999999" y1="534.4" x2="658.4000000000001" y2="603.2" stroke="#EC4899" stroke-width="1" opacity="0.26100300986961555"/><line x1="589.5999999999999" y1="534.4" x2="603.2" y2="548" stroke="#EC4899" stroke-width="1" opacity="0.37252385078817973"/><line x1="589.5999999999999" y1="534.4" x2="548" y2="492.79999999999995" stroke="#EC4899" stroke-width="1" opacity="0.31595530829325613"/><line x1="589.5999999999999" y1="534.4" x2="492.79999999999995" y2="437.6" stroke="#EC4899" stroke-width="1" opacity="0.20443446737469212"/><line x1="589.5999999999999" y1="534.4" x2="437.6" y2="382.4" stroke="#EC4899" stroke-width="1" opacity="0.09291362645612805"/><line x1="589.5999999999999" y1="534.4" x2="672" y2="616.8" stroke="#EC4899" stroke-width="1" opacity="0.23352686065779563"/><line x1="589.5999999999999" y1="534.4" x2="616.8" y2="561.6" stroke="#EC4899" stroke-width="1" opacity="0.34504770157635967"/><line x1="534.4" y1="479.20000000000005" x2="479.20000000000005" y2="424" stroke="#EC4899" stroke-width="1" opacity="0.28847915908143595"/><line x1="534.4" y1="479.20000000000005" x2="424" y2="368.8" stroke="#EC4899" stroke-width="1" opacity="0.17695831816287189"/><line x1="534.4" y1="479.20000000000005" x2="368.8" y2="313.6" stroke="#EC4899" stroke-width="1" opacity="0.06543747724430782"/><line x1="534.4" y1="479.20000000000005" x2="658.4000000000001" y2="603.2" stroke="#EC4899" stroke-width="1" opacity="0.14948216895105165"/><line x1="534.4" y1="479.20000000000005" x2="603.2" y2="548" stroke="#EC4899" stroke-width="1" opacity="0.2610030098696158"/><line x1="534.4" y1="479.20000000000005" x2="548" y2="492.79999999999995" stroke="#EC4899" stroke-width="1" opacity="0.37252385078817996"/><line x1="534.4" y1="479.20000000000005" x2="492.79999999999995" y2="437.6" stroke="#EC4899" stroke-width="1" opacity="0.315955308293256"/><line x1="534.4" y1="479.20000000000005" x2="437.6" y2="382.4" stroke="#EC4899" stroke-width="1" opacity="0.204434467374692"/><line x1="534.4" y1="479.20000000000005" x2="382.4" y2="327.2" stroke="#EC4899" stroke-width="1" opacity="0.09291362645612788"/><line x1="534.4" y1="479.20000000000005" x2="672" y2="616.8" stroke="#EC4899" stroke-width="1" opacity="0.1220060197392317"/><line x1="534.4" y1="479.20000000000005" x2="616.8" y2="561.6" stroke="#EC4899" stroke-width="1" opacity="0.23352686065779574"/><line x1="479.20000000000005" y1="424" x2="424" y2="368.8" stroke="#EC4899" stroke-width="1" opacity="0.28847915908143595"/><line x1="479.20000000000005" y1="424" x2="368.8" y2="313.6" stroke="#EC4899" stroke-width="1" opacity="0.17695831816287189"/><line x1="479.20000000000005" y1="424" x2="658.4000000000001" y2="603.2" stroke="#EC4899" stroke-width="1" opacity="0.037961328032487585"/><line x1="479.20000000000005" y1="424" x2="603.2" y2="548" stroke="#EC4899" stroke-width="1" opacity="0.14948216895105176"/><line x1="479.20000000000005" y1="424" x2="548" y2="492.79999999999995" stroke="#EC4899" stroke-width="1" opacity="0.2610030098696159"/><line x1="479.20000000000005" y1="424" x2="492.79999999999995" y2="437.6" stroke="#EC4899" stroke-width="1" opacity="0.37252385078817996"/><line x1="479.20000000000005" y1="424" x2="437.6" y2="382.4" stroke="#EC4899" stroke-width="1" opacity="0.315955308293256"/><line x1="479.20000000000005" y1="424" x2="382.4" y2="327.2" stroke="#EC4899" stroke-width="1" opacity="0.20443446737469195"/><line x1="479.20000000000005" y1="424" x2="672" y2="616.8" stroke="#EC4899" stroke-width="1" opacity="0.010485178820667684"/><line x1="479.20000000000005" y1="424" x2="616.8" y2="561.6" stroke="#EC4899" stroke-width="1" opacity="0.1220060197392317"/><line x1="424" y1="368.8" x2="368.8" y2="313.6" stroke="#EC4899" stroke-width="1" opacity="0.28847915908143595"/><line x1="424" y1="368.8" x2="603.2" y2="548" stroke="#EC4899" stroke-width="1" opacity="0.03796132803248764"/><line x1="424" y1="368.8" x2="548" y2="492.79999999999995" stroke="#EC4899" stroke-width="1" opacity="0.14948216895105182"/><line x1="424" y1="368.8" x2="492.79999999999995" y2="437.6" stroke="#EC4899" stroke-width="1" opacity="0.2610030098696159"/><line x1="424" y1="368.8" x2="437.6" y2="382.4" stroke="#EC4899" stroke-width="1" opacity="0.3725238507881799"/><line x1="424" y1="368.8" x2="382.4" y2="327.2" stroke="#EC4899" stroke-width="1" opacity="0.315955308293256"/><line x1="424" y1="368.8" x2="616.8" y2="561.6" stroke="#EC4899" stroke-width="1" opacity="0.010485178820667573"/><line x1="368.8" y1="313.6" x2="548" y2="492.79999999999995" stroke="#EC4899" stroke-width="1" opacity="0.03796132803248781"/><line x1="368.8" y1="313.6" x2="492.79999999999995" y2="437.6" stroke="#EC4899" stroke-width="1" opacity="0.14948216895105182"/><line x1="368.8" y1="313.6" x2="437.6" y2="382.4" stroke="#EC4899" stroke-width="1" opacity="0.2610030098696159"/><line x1="368.8" y1="313.6" x2="382.4" y2="327.2" stroke="#EC4899" stroke-width="1" opacity="0.37252385078817996"/><line x1="313.6" y1="658.4000000000001" x2="327.2" y2="672" stroke="#EC4899" stroke-width="1" opacity="0.37252385078818"/><line x1="658.4000000000001" y1="603.2" x2="603.2" y2="548" stroke="#EC4899" stroke-width="1" opacity="0.28847915908143584"/><line x1="658.4000000000001" y1="603.2" x2="548" y2="492.79999999999995" stroke="#EC4899" stroke-width="1" opacity="0.17695831816287172"/><line x1="658.4000000000001" y1="603.2" x2="492.79999999999995" y2="437.6" stroke="#EC4899" stroke-width="1" opacity="0.06543747724430765"/><line x1="658.4000000000001" y1="603.2" x2="672" y2="616.8" stroke="#EC4899" stroke-width="1" opacity="0.37252385078818007"/><line x1="658.4000000000001" y1="603.2" x2="616.8" y2="561.6" stroke="#EC4899" stroke-width="1" opacity="0.3159553082932559"/><line x1="603.2" y1="548" x2="548" y2="492.79999999999995" stroke="#EC4899" stroke-width="1" opacity="0.28847915908143584"/><line x1="603.2" y1="548" x2="492.79999999999995" y2="437.6" stroke="#EC4899" stroke-width="1" opacity="0.17695831816287183"/><line x1="603.2" y1="548" x2="437.6" y2="382.4" stroke="#EC4899" stroke-width="1" opacity="0.06543747724430782"/><line x1="603.2" y1="548" x2="672" y2="616.8" stroke="#EC4899" stroke-width="1" opacity="0.2610030098696159"/><line x1="603.2" y1="548" x2="616.8" y2="561.6" stroke="#EC4899" stroke-width="1" opacity="0.37252385078817996"/><line x1="548" y1="492.79999999999995" x2="492.79999999999995" y2="437.6" stroke="#EC4899" stroke-width="1" opacity="0.28847915908143595"/><line x1="548" y1="492.79999999999995" x2="437.6" y2="382.4" stroke="#EC4899" stroke-width="1" opacity="0.1769583181628719"/><line x1="548" y1="492.79999999999995" x2="382.4" y2="327.2" stroke="#EC4899" stroke-width="1" opacity="0.06543747724430782"/><line x1="548" y1="492.79999999999995" x2="672" y2="616.8" stroke="#EC4899" stroke-width="1" opacity="0.14948216895105176"/><line x1="548" y1="492.79999999999995" x2="616.8" y2="561.6" stroke="#EC4899" stroke-width="1" opacity="0.2610030098696158"/><line x1="492.79999999999995" y1="437.6" x2="437.6" y2="382.4" stroke="#EC4899" stroke-width="1" opacity="0.28847915908143595"/><line x1="492.79999999999995" y1="437.6" x2="382.4" y2="327.2" stroke="#EC4899" stroke-width="1" opacity="0.17695831816287189"/><line x1="492.79999999999995" y1="437.6" x2="672" y2="616.8" stroke="#EC4899" stroke-width="1" opacity="0.037961328032487696"/><line x1="492.79999999999995" y1="437.6" x2="616.8" y2="561.6" stroke="#EC4899" stroke-width="1" opacity="0.14948216895105176"/><line x1="437.6" y1="382.4" x2="382.4" y2="327.2" stroke="#EC4899" stroke-width="1" opacity="0.28847915908143595"/><line x1="437.6" y1="382.4" x2="616.8" y2="561.6" stroke="#EC4899" stroke-width="1" opacity="0.037961328032487696"/><line x1="672" y1="616.8" x2="616.8" y2="561.6" stroke="#EC4899" stroke-width="1" opacity="0.28847915908143595"/><circle cx="644.8" cy="589.5999999999999" r="6" fill="#8B5CF6" opacity="0.8"/><circle cx="589.5999999999999" cy="534.4" r="6" fill="#8B5CF6" opacity="0.8"/><circle cx="534.4" cy="479.20000000000005" r="6" fill="#8B5CF6" opacity="0.8"/><circle cx="479.20000000000005" cy="424" r="6" fill="#8B5CF6" opacity="0.8"/><circle cx="424" cy="368.8" r="6" fill="#8B5CF6" opacity="0.8"/><circle cx="368.8" cy="313.6" r="6" fill="#8B5CF6" opacity="0.8"/><circle cx="313.6" cy="658.4000000000001" r="6" fill="#8B5CF6" opacity="0.8"/><circle cx="658.4000000000001" cy="603.2" r="6" fill="#8B5CF6" opacity="0.8"/><circle cx="603.2" cy="548" r="6" fill="#8B5CF6" opacity="0.8"/><circle cx="548" cy="492.79999999999995" r="6" fill="#8B5CF6" opacity="0.8"/><circle cx="492.79999999999995" cy="437.6" r="6" fill="#8B5CF6" opacity="0.8"/><circle cx="437.6" cy="382.4" r="6" fill="#8B5CF6" opacity="0.8"/><circle cx="382.4" cy="327.2" r="6" fill="#8B5CF6" opacity="0.8"/><circle cx="327.2" cy="672" r="6" fill="#8B5CF6" opacity="0.8"/><circle cx="672" cy="616.8" r="6" fill="#8B5CF6" opacity="0.8"/><circle cx="616.8" cy="561.6" r="6" fill="#8B5CF6" opacity="0.8"/>
    <text x="500" y="960" font-family="system-ui, sans-serif" font-size="36" font-weight="700" fill="white" text-anchor="middle" opacity="0.85">linkedin</text>
  </svg>