<svg xmlns="http://www.w3.org/2000/svg" viewBox="0 0 1000 1000" width="1000" height="1000">
    <defs>
      <linearGradient id="g343" x1="0" y1="0" x2="1" y2="1">
        <stop offset="0%" stop-color="#06B6D4"/>
        <stop offset="100%" stop-color="#0EA5E9"/>
      </linearGradient>
      <radialGradient id="glow343" cx="50%" cy="50%" r="60%">
        <stop offset="0%" stop-color="#67E8F9" stop-opacity="0.2"/>
        <stop offset="100%" stop-color="#67E8F9" stop-opacity="0"/>
      </radialGradient>
    </defs>
    <rect width="1000" height="1000" fill="#030712"/>
    <rect width="1000" height="1000" fill="url(#glow343)"/>
    <line x1="436.8" y1="573.6" x2="310.4" y2="447.2" stroke="#06B6D4" stroke-width="1" opacity="0.14463343673720108"/><line x1="436.8" y1="573.6" x2="447.2" y2="584" stroke="#06B6D4" stroke-width="1" opacity="0.3789888270733141"/><line x1="436.8" y1="573.6" x2="320.8" y2="457.6" stroke="#06B6D4" stroke-width="1" opacity="0.16564460966388714"/><line x1="436.8" y1="573.6" x2="457.6" y2="594.4" stroke="#06B6D4" stroke-width="1" opacity="0.3579776541466281"/><line x1="436.8" y1="573.6" x2="331.2" y2="468" stroke="#06B6D4" stroke-width="1" opacity="0.18665578259057308"/><line x1="436.8" y1="573.6" x2="468" y2="604.8" stroke="#06B6D4" stroke-width="1" opacity="0.33696648121994216"/><line x1="436.8" y1="573.6" x2="341.6" y2="478.4" stroke="#06B6D4" stroke-width="1" opacity="0.20766695551725906"/><line x1="436.8" y1="573.6" x2="478.4" y2="615.2" stroke="#06B6D4" stroke-width="1" opacity="0.31595530829325613"/><line x1="436.8" y1="573.6" x2="352" y2="488.79999999999995" stroke="#06B6D4" stroke-width="1" opacity="0.228678128443945"/><line x1="436.8" y1="573.6" x2="488.79999999999995" y2="625.5999999999999" stroke="#06B6D4" stroke-width="1" opacity="0.29494413536657027"/><line x1="573.6" y1="310.4" x2="584" y2="320.8" stroke="#06B6D4" stroke-width="1" opacity="0.37898882707331405"/><line x1="573.6" y1="310.4" x2="594.4" y2="331.2" stroke="#06B6D4" stroke-width="1" opacity="0.3579776541466281"/><line x1="573.6" y1="310.4" x2="604.8" y2="341.6" stroke="#06B6D4" stroke-width="1" opacity="0.3369664812199421"/><line x1="573.6" y1="310.4" x2="615.2" y2="352" stroke="#06B6D4" stroke-width="1" opacity="0.315955308293256"/><line x1="310.4" y1="447.2" x2="447.2" y2="584" stroke="#06B6D4" stroke-width="1" opacity="0.12362226381051516"/><line x1="310.4" y1="447.2" x2="320.8" y2="457.6" stroke="#06B6D4" stroke-width="1" opacity="0.378988827073314"/><line x1="310.4" y1="447.2" x2="457.6" y2="594.4" stroke="#06B6D4" stroke-width="1" opacity="0.10261109088382914"/><line x1="310.4" y1="447.2" x2="331.2" y2="468" stroke="#06B6D4" stroke-width="1" opacity="0.357977654146628"/><line x1="310.4" y1="447.2" x2="468" y2="604.8" stroke="#06B6D4" stroke-width="1" opacity="0.08159991795714322"/><line x1="310.4" y1="447.2" x2="341.6" y2="478.4" stroke="#06B6D4" stroke-width="1" opacity="0.33696648121994205"/><line x1="310.4" y1="447.2" x2="478.4" y2="615.2" stroke="#06B6D4" stroke-width="1" opacity="0.060588745030457136"/><line x1="310.4" y1="447.2" x2="352" y2="488.79999999999995" stroke="#06B6D4" stroke-width="1" opacity="0.31595530829325613"/><line x1="310.4" y1="447.2" x2="488.79999999999995" y2="625.5999999999999" stroke="#06B6D4" stroke-width="1" opacity="0.03957757210377133"/><line x1="447.2" y1="584" x2="320.8" y2="457.6" stroke="#06B6D4" stroke-width="1" opacity="0.1446334367372012"/><line x1="447.2" y1="584" x2="457.6" y2="594.4" stroke="#06B6D4" stroke-width="1" opacity="0.37898882707331405"/><line x1="447.2" y1="584" x2="331.2" y2="468" stroke="#06B6D4" stroke-width="1" opacity="0.16564460966388714"/><line x1="447.2" y1="584" x2="468" y2="604.8" stroke="#06B6D4" stroke-width="1" opacity="0.3579776541466281"/><line x1="447.2" y1="584" x2="341.6" y2="478.4" stroke="#06B6D4" stroke-width="1" opacity="0.18665578259057314"/><line x1="447.2" y1="584" x2="478.4" y2="615.2" stroke="#06B6D4" stroke-width="1" opacity="0.33696648121994205"/><line x1="447.2" y1="584" x2="352" y2="488.79999999999995" stroke="#06B6D4" stroke-width="1" opacity="0.20766695551725906"/><line x1="447.2" y1="584" x2="488.79999999999995" y2="625.5999999999999" stroke="#06B6D4" stroke-width="1" opacity="0.31595530829325624"/><line x1="584" y1="320.8" x2="594.4" y2="331.2" stroke="#06B6D4" stroke-width="1" opacity="0.3789888270733141"/><line x1="584" y1="320.8" x2="604.8" y2="341.6" stroke="#06B6D4" stroke-width="1" opacity="0.3579776541466281"/><line x1="584" y1="320.8" x2="615.2" y2="352" stroke="#06B6D4" stroke-width="1" opacity="0.33696648121994205"/><line x1="320.8" y1="457.6" x2="457.6" y2="594.4" stroke="#06B6D4" stroke-width="1" opacity="0.12362226381051522"/><line x1="320.8" y1="457.6" x2="331.2" y2="468" stroke="#06B6D4" stroke-width="1" opacity="0.3789888270733141"/><line x1="320.8" y1="457.6" x2="468" y2="604.8" stroke="#06B6D4" stroke-width="1" opacity="0.10261109088382925"/><line x1="320.8" y1="457.6" x2="341.6" y2="478.4" stroke="#06B6D4" stroke-width="1" opacity="0.3579776541466281"/><line x1="320.8" y1="457.6" x2="478.4" y2="615.2" stroke="#06B6D4" stroke-width="1" opacity="0.08159991795714322"/><line x1="320.8" y1="457.6" x2="352" y2="488.79999999999995" stroke="#06B6D4" stroke-width="1" opacity="0.33696648121994216"/><line x1="320.8" y1="457.6" x2="488.79999999999995" y2="625.5999999999999" stroke="#06B6D4" stroke-width="1" opacity="0.060588745030457414"/><line x1="457.6" y1="594.4" x2="331.2" y2="468" stroke="#06B6D4" stroke-width="1" opacity="0.14463343673720114"/><line x1="457.6" y1="594.4" x2="468" y2="604.8" stroke="#06B6D4" stroke-width="1" opacity="0.3789888270733141"/><line x1="457.6" y1="594.4" x2="341.6" y2="478.4" stroke="#06B6D4" stroke-width="1" opacity="0.16564460966388714"/><line x1="457.6" y1="594.4" x2="478.4" y2="615.2" stroke="#06B6D4" stroke-width="1" opacity="0.357977654146628"/><line x1="457.6" y1="594.4" x2="352" y2="488.79999999999995" stroke="#06B6D4" stroke-width="1" opacity="0.18665578259057308"/><line x1="457.6" y1="594.4" x2="488.79999999999995" y2="625.5999999999999" stroke="#06B6D4" stroke-width="1" opacity="0.3369664812199422"/><line x1="594.4" y1="331.2" x2="604.8" y2="341.6" stroke="#06B6D4" stroke-width="1" opacity="0.37898882707331405"/><line x1="594.4" y1="331.2" x2="615.2" y2="352" stroke="#06B6D4" stroke-width="1" opacity="0.35797765414662797"/><line x1="331.2" y1="468" x2="468" y2="604.8" stroke="#06B6D4" stroke-width="1" opacity="0.12362226381051522"/><line x1="331.2" y1="468" x2="341.6" y2="478.4" stroke="#06B6D4" stroke-width="1" opacity="0.37898882707331405"/><line x1="331.2" y1="468" x2="478.4" y2="615.2" stroke="#06B6D4" stroke-width="1" opacity="0.10261109088382914"/><line x1="331.2" y1="468" x2="352" y2="488.79999999999995" stroke="#06B6D4" stroke-width="1" opacity="0.3579776541466281"/><line x1="331.2" y1="468" x2="488.79999999999995" y2="625.5999999999999" stroke="#06B6D4" stroke-width="1" opacity="0.08159991795714333"/><line x1="468" y1="604.8" x2="341.6" y2="478.4" stroke="#06B6D4" stroke-width="1" opacity="0.1446334367372012"/><line x1="468" y1="604.8" x2="478.4" y2="615.2" stroke="#06B6D4" stroke-width="1" opacity="0.378988827073314"/><line x1="468" y1="604.8" x2="352" y2="488.79999999999995" stroke="#06B6D4" stroke-width="1" opacity="0.16564460966388714"/><line x1="468" y1="604.8" x2="488.79999999999995" y2="625.5999999999999" stroke="#06B6D4" stroke-width="1" opacity="0.35797765414662813"/><line x1="604.8" y1="341.6" x2="615.2" y2="352" stroke="#06B6D4" stroke-width="1" opacity="0.378988827073314"/><line x1="341.6" y1="478.4" x2="478.4" y2="615.2" stroke="#06B6D4" stroke-width="1" opacity="0.12362226381051516"/><line x1="341.6" y1="478.4" x2="352" y2="488.79999999999995" stroke="#06B6D4" stroke-width="1" opacity="0.3789888270733141"/><line x1="341.6" y1="478.4" x2="488.79999999999995" y2="625.5999999999999" stroke="#06B6D4" stroke-width="1" opacity="0.1026110908838293"/><line x1="478.4" y1="615.2" x2="352" y2="488.79999999999995" stroke="#06B6D4" stroke-width="1" opacity="0.14463343673720108"/><line x1="478.4" y1="615.2" x2="488.79999999999995" y2="625.5999999999999" stroke="#06B6D4" stroke-width="1" opacity="0.3789888270733142"/><line x1="352" y1="488.79999999999995" x2="488.79999999999995" y2="625.5999999999999" stroke="#06B6D4" stroke-width="1" opacity="0.12362226381051528"/><circle cx="436.8" cy="573.6" r="6" fill="#6366F1" opacity="0.8"/><circle cx="573.6" cy="310.4" r="6" fill="#6366F1" opacity="0.8"/><circle cx="310.4" cy="447.2" r="6" fill="#6366F1" opacity="0.8"/><circle cx="447.2" cy="584" r="6" fill="#6366F1" opacity="0.8"/><circle cx="584" cy="320.8" r="6" fill="#6366F1" opacity="0.8"/><circle cx="320.8" cy="457.6" r="6" fill="#6366F1" opacity="0.8"/><circle cx="457.6" cy="594.4" r="6" fill="#6366F1" opacity="0.8"/><circle cx="594.4" cy="331.2" r="6" fill="#6366F1" opacity="0.8"/><circle cx="331.2" cy="468" r="6" fill="#6366F1" opacity="0.8"/><circle cx="468" cy="604.8" r="6" fill="#6366F1" opacity="0.8"/><circle cx="604.8" cy="341.6" r="6" fill="#6366F1" opacity="0.8"/><circle cx="341.6" cy="478.4" r="6" fill="#6366F1" opacity="0.8"/><circle cx="478.4" cy="615.2" r="6" fill="#6366F1" opacity="0.8"/><circle cx="615.2" cy="352" r="6" fill="#6366F1" opacity="0.8"/><circle cx="352" cy="488.79999999999995" r="6" fill="#6366F1" opacity="0.8"/><circle cx="488.79999999999995" cy="625.5999999999999" r="6" fill="#6366F1" opacity="0.8"/>
    <text x="500" y="960" font-family="system-ui, sans-serif" font-size="36" font-weight="700" fill="white" text-anchor="middle" opacity="0.85">pinterest</text>
  </svg>