<svg xmlns="http://www.w3.org/2000/svg" viewBox="0 0 1000 1000" width="1000" height="1000">
    <defs>
      <linearGradient id="g344" x1="0" y1="0" x2="1" y2="1">
        <stop offset="0%" stop-color="#10B981"/>
        <stop offset="100%" stop-color="#14B8A6"/>
      </linearGradient>
      <radialGradient id="glow344" cx="50%" cy="50%" r="60%">
        <stop offset="0%" stop-color="#6EE7B7" stop-opacity="0.2"/>
        <stop offset="100%" stop-color="#6EE7B7" stop-opacity="0"/>
      </radialGradient>
    </defs>
    <rect width="1000" height="1000" fill="#030712"/>
    <rect width="1000" height="1000" fill="url(#glow344)"/>
    <circle cx="554.5302487780792" cy="528.6533064095714" r="3.848" fill="#F59E0B" opacity="0.4848"/><circle cx="552.4156508993123" cy="576.0944120208667" r="4.464" fill="#10B981" opacity="0.5309999999999999"/><circle cx="514.672770123688" cy="622.3231368830011" r="5.08" fill="#14B8A6" opacity="0.5771999999999999"/><circle cx="445.1125706781594" cy="643.8866571383182" r="5.696" fill="#F59E0B" opacity="0.6234"/><circle cx="361.37947433229107" cy="622.2104327118109" r="6.312" fill="#14B8A6" opacity="0.6696"/><circle cx="290.51619838359625" cy="550.989183758315" r="6.928" fill="#10B981" opacity="0.7158"/><circle cx="260.9608066248379" cy="440.2235495320116" r="7.544" fill="#F59E0B" opacity="0.762"/><circle cx="293.2251144884167" cy="315.3815103472255" r="8.16" fill="#10B981" opacity="0.8082"/><circle cx="392.0354293810922" cy="211.54263488155675" r="8.776" fill="#14B8A6" opacity="0.8544"/><circle cx="542.4628995315862" cy="163.87153919465487" r="9.392" fill="#F59E0B" opacity="0.3006"/><circle cx="711.5709136197609" cy="196.94570039331285" r="2.008" fill="#14B8A6" opacity="0.3468"/><circle cx="500.3552545795254" cy="499.8161680557514" r="2.624" fill="#10B981" opacity="0.393"/><circle cx="531.1993841387115" cy="500.19603409172544" r="3.24" fill="#F59E0B" opacity="0.4392"/><circle cx="554.7020560389672" cy="529.1836437942507" r="3.856" fill="#10B981" opacity="0.48539999999999994"/><circle cx="552.1613374646777" cy="576.7530772926793" r="4.4719999999999995" fill="#14B8A6" opacity="0.5316"/><circle cx="513.9490491703623" cy="622.810357980273" r="5.088" fill="#F59E0B" opacity="0.5778"/><circle cx="444.06468338081817" cy="643.9117797635478" r="5.704000000000001" fill="#14B8A6" opacity="0.624"/><circle cx="360.31264428767355" cy="621.5996819654475" r="6.32" fill="#10B981" opacity="0.6701999999999999"/><circle cx="289.81072162786063" cy="549.7641161621435" r="6.936" fill="#F59E0B" opacity="0.7163999999999999"/><circle cx="260.9536758334539" cy="438.62333584771375" r="7.552" fill="#10B981" opacity="0.7626"/><circle cx="294.09248388772596" cy="313.8176839534066" r="8.168" fill="#14B8A6" opacity="0.8088"/><circle cx="393.7121224929788" cy="210.49447829954522" r="8.783999999999999" fill="#F59E0B" opacity="0.855"/><circle cx="544.626630604102" cy="163.7484515412234" r="9.4" fill="#14B8A6" opacity="0.30119999999999997"/><circle cx="713.7019002662389" cy="197.95447723464184" r="2.016" fill="#10B981" opacity="0.3474"/><circle cx="500.7128052193507" cy="499.6368076002084" r="2.632" fill="#F59E0B" opacity="0.3936"/><circle cx="531.5975049968406" cy="500.39708686031395" r="3.248" fill="#10B981" opacity="0.43979999999999997"/><circle cx="554.8693377558907" cy="529.7172639088794" r="3.864" fill="#14B8A6" opacity="0.486"/><circle cx="551.9008074566991" cy="577.4115378050498" r="4.48" fill="#F59E0B" opacity="0.5322"/><circle cx="513.2197831301322" cy="623.2932980092279" r="5.096" fill="#14B8A6" opacity="0.5784"/><circle cx="443.01431924441187" cy="643.9294000155013" r="5.712" fill="#10B981" opacity="0.6246"/><circle cx="359.24802852241316" cy="620.9803394158431" r="6.328" fill="#F59E0B" opacity="0.6708"/><circle cx="289.1123847289847" cy="548.5321926694461" r="6.944" fill="#10B981" opacity="0.717"/><circle cx="260.95723222512606" cy="437.02067661106787" r="7.56" fill="#14B8A6" opacity="0.7632"/><circle cx="294.9713533744276" cy="312.2574793423552" r="8.176" fill="#F59E0B" opacity="0.8093999999999999"/><circle cx="395.39773022825375" cy="209.4560185469353" r="8.792" fill="#14B8A6" opacity="0.8555999999999999"/><circle cx="546.7935827165031" cy="163.63929983341728" r="9.408000000000001" fill="#10B981" opacity="0.3018"/><circle cx="715.8285536692404" cy="198.9780814939818" r="2.024" fill="#F59E0B" opacity="0.348"/><circle cx="501.07260970898153" cy="499.461940140692" r="2.64" fill="#10B981" opacity="0.3942"/><circle cx="531.994315276186" cy="500.60315007089304" r="3.2560000000000002" fill="#14B8A6" opacity="0.4404"/><circle cx="555.0320595067546" cy="530.2541307335878" r="3.872" fill="#F59E0B" opacity="0.4866"/><circle cx="551.6340534908211" cy="578.0697413861928" r="4.4879999999999995" fill="#14B8A6" opacity="0.5327999999999999"/><circle cx="512.4849973274911" cy="623.7719065124737" r="5.104" fill="#10B981" opacity="0.579"/><circle cx="441.9615312694934" cy="643.9394877975394" r="5.720000000000001" fill="#F59E0B" opacity="0.6252"/><circle cx="358.1856929518707" cy="620.3524088519166" r="6.336" fill="#10B981" opacity="0.6714"/><circle cx="288.42124601167956" cy="547.2934547347704" r="6.952" fill="#14B8A6" opacity="0.7176"/><circle cx="260.9715062248814" cy="435.4156430426215" r="7.568" fill="#F59E0B" opacity="0.7638"/><circle cx="295.8617116116393" cy="310.70097936367847" r="8.184000000000001" fill="#14B8A6" opacity="0.81"/><circle cx="397.09219683349244" cy="208.42732630192637" r="8.8" fill="#10B981" opacity="0.8562000000000001"/><circle cx="548.9636660677656" cy="163.54411967509867" r="9.416" fill="#F59E0B" opacity="0.3024"/><circle cx="717.950771550049" cy="200.01649848576943" r="2.032" fill="#10B981" opacity="0.34859999999999997"/><circle cx="501.43462565885636" cy="499.29158683033774" r="2.648" fill="#14B8A6" opacity="0.3948"/><circle cx="532.3897677327789" cy="500.8142150923641" r="3.2640000000000002" fill="#F59E0B" opacity="0.44099999999999995"/><circle cx="555.1901871439869" cy="530.794207945841" r="3.88" fill="#14B8A6" opacity="0.48719999999999997"/><circle cx="551.3610685930213" cy="578.7276357639613" r="4.496" fill="#10B981" opacity="0.5334"/><circle cx="511.7447175021506" cy="624.2461331824644" r="5.112" fill="#F59E0B" opacity="0.5796"/><circle cx="440.9063727368078" cy="643.9420133834417" r="5.728" fill="#10B981" opacity="0.6258"/><circle cx="357.1257035307372" cy="619.7158945521154" r="6.344" fill="#14B8A6" opacity="0.6719999999999999"/><circle cx="287.73736356098834" cy="546.0479442750703" r="6.96" fill="#F59E0B" opacity="0.7182"/><circle cx="260.99652778407756" cy="433.8083066485469" r="7.576" fill="#14B8A6" opacity="0.7644"/><circle cx="296.76354667491046" cy="309.1482668670816" r="8.192" fill="#10B981" opacity="0.8106"/><circle cx="398.7954660188296" cy="207.4084719243325" r="8.808" fill="#F59E0B" opacity="0.8568"/><circle cx="551.1367905367058" cy="163.46294609121412" r="9.424" fill="#10B981" opacity="0.303"/><circle cx="720.068451643785" cy="201.06971282403134" r="2.04" fill="#14B8A6" opacity="0.3492"/><circle cx="501.79881050313276" cy="499.12576846669816" r="2.656" fill="#F59E0B" opacity="0.3954"/><circle cx="532.783815179996" cy="501.0302728977626" r="3.2720000000000002" fill="#14B8A6" opacity="0.4416"/><circle cx="555.3436867969818" cy="531.3374589224713" r="3.888" fill="#10B981" opacity="0.4878"/><circle cx="551.0818462007771" cy="579.3851685689472" r="4.504" fill="#F59E0B" opacity="0.534"/><circle cx="510.99896980815305" cy="624.7159278647252" r="5.12" fill="#10B981" opacity="0.5802"/><circle cx="439.84889720472614" cy="643.9369474197379" r="5.736000000000001" fill="#14B8A6" opacity="0.6264000000000001"/><circle cx="356.0681262494826" cy="619.0708012850553" r="6.352" fill="#F59E0B" opacity="0.6726"/><circle cx="287.06079521877723" cy="544.7957036683262" r="6.968" fill="#14B8A6" opacity="0.7187999999999999"/><circle cx="261.03232637801625" cy="432.1987392174964" r="7.584" fill="#10B981" opacity="0.7649999999999999"/><circle cx="297.6768460517765" cy="307.5994246982524" r="8.2" fill="#F59E0B" opacity="0.8111999999999999"/><circle cx="400.50748095976496" cy="206.3995254516293" r="8.815999999999999" fill="#10B981" opacity="0.8573999999999999"/><circle cx="553.3128656857106" cy="163.39581352517706" r="9.432" fill="#14B8A6" opacity="0.3036"/><circle cx="722.181491704174" cy="202.1377084219822" r="2.048" fill="#F59E0B" opacity="0.3498"/><circle cx="502.1651215024837" cy="498.9645054903657" r="2.664" fill="#14B8A6" opacity="0.396"/><circle cx="533.1764104916675" cy="501.2513140646418" r="3.2800000000000002" fill="#10B981" opacity="0.4422"/><circle cx="555.4925248745274" cy="531.8838467417274" r="3.896" fill="#F59E0B" opacity="0.48839999999999995"/><circle cx="550.7963801640088" cy="580.042287337591" r="4.5120000000000005" fill="#10B981" opacity="0.5346"/><circle cx="510.2477808129606" cy="625.1812405610741" r="5.128" fill="#14B8A6" opacity="0.5808"/><circle cx="438.7891585066615" cy="643.9242609280221" r="5.744" fill="#F59E0B" opacity="0.627"/><circle cx="355.013027130797" cy="618.4171343101369" r="6.36" fill="#14B8A6" opacity="0.6732"/><circle cx="286.39159858023413" cy="543.5367757521408" r="6.976" fill="#10B981" opacity="0.7193999999999999"/><circle cx="261.07893100357654" cy="430.58701281743976" r="7.592" fill="#F59E0B" opacity="0.7656000000000001"/><circle cx="298.6015966413412" cy="306.0545356947398" r="8.208" fill="#10B981" opacity="0.8117999999999999"/><circle cx="402.2281842989932" cy="205.40055659501257" r="8.824" fill="#14B8A6" opacity="0.8580000000000001"/><circle cx="555.4918007644944" cy="163.34275583627544" r="9.440000000000001" fill="#F59E0B" opacity="0.30419999999999997"/><circle cx="724.2897895083171" cy="203.22046849165145" r="2.056" fill="#14B8A6" opacity="0.3504"/><circle cx="502.53351574690487" cy="498.8078179836178" r="2.672" fill="#10B981" opacity="0.3966"/><circle cx="533.567506605185" cy="501.47732877548026" r="3.2880000000000003" fill="#F59E0B" opacity="0.44279999999999997"/><circle cx="555.6366680672186" cy="532.433334185343" r="3.904" fill="#10B981" opacity="0.489"/><circle cx="550.504664746001" cy="580.6989395152999" r="4.52" fill="#14B8A6" opacity="0.5352"/><circle cx="509.4911774965195" cy="625.6420214328374" r="5.136" fill="#F59E0B" opacity="0.5813999999999999"/><circle cx="437.7272107484664" cy="643.9039253072483" r="5.752" fill="#14B8A6" opacity="0.6275999999999999"/><circle cx="353.96047222602647" cy="617.7548993781354" r="6.368" fill="#10B981" opacity="0.6738"/><circle cx="285.72983099037583" cy="542.2712038223079" r="6.984" fill="#F59E0B" opacity="0.72"/><circle cx="261.13637017686995" cy="428.9731997924819" r="7.6" fill="#10B981" opacity="0.7662"/><circle cx="299.5377847538872" cy="304.51368268182773" r="8.216000000000001" fill="#14B8A6" opacity="0.8124"/><circle cx="403.9575181482663" cy="204.4116347354663" r="8.832" fill="#F59E0B" opacity="0.8586"/>
    <text x="500" y="960" font-family="system-ui, sans-serif" font-size="36" font-weight="700" fill="white" text-anchor="middle" opacity="0.85">twitch</text>
  </svg>