<svg xmlns="http://www.w3.org/2000/svg" viewBox="0 0 1000 1000" width="1000" height="1000">
    <defs>
      <linearGradient id="g345" x1="0" y1="0" x2="1" y2="1">
        <stop offset="0%" stop-color="#F59E0B"/>
        <stop offset="100%" stop-color="#EF4444"/>
      </linearGradient>
      <radialGradient id="glow345" cx="50%" cy="50%" r="60%">
        <stop offset="0%" stop-color="#FCD34D" stop-opacity="0.2"/>
        <stop offset="100%" stop-color="#FCD34D" stop-opacity="0"/>
      </radialGradient>
    </defs>
    <rect width="1000" height="1000" fill="#030712"/>
    <rect width="1000" height="1000" fill="url(#glow345)"/>
    <path d="M 0 500 L 0 588.2029364275451 L 16.666666666666668 621.3780739575484 L 33.333333333333336 642.6718992460444 L 50 649.999993710854 L 66.66666666666667 642.6450428595302 L 83.33333333333333 621.3270110957349 L 100 588.1326254953879 L 116.66666666666667 546.3112315016853 L 133.33333333333334 499.956538898266 L 150 453.6061345829605 L 166.66666666666666 411.79705296571126 L 183.33333333333331 378.62191833765127 L 200 357.3280967053005 L 216.66666666666669 350.0000062929439 L 233.33333333333334 357.354950135191 L 250 378.67299661521076 L 266.6666666666667 411.8673561770317 L 283.3333333333333 453.6887809710887 L 300 500.04343845236514 L 316.66666666666663 546.3938778874658 L 333.3333333333333 588.2029287144209 L 350 621.3780893671482 L 366.66666666666663 642.6718963019 L 383.33333333333337 649.999993703257 L 400 642.6450458089287 L 416.6666666666667 621.3269956738427 L 433.33333333333337 588.1326332117592 L 450 546.311206556137 L 466.6666666666667 499.95654843421846 L 483.3333333333333 453.6061436513368 L 500 411.7970606788349 L 516.6666666666667 378.6219239405092 L 533.3333333333334 357.3280996494441 L 550 350.000006290182 L 566.6666666666666 357.3549582469527 L 583.3333333333334 378.6729910078839 L 600 411.86737739945056 L 616.6666666666667 453.68877190100534 L 633.3333333333333 500.043464679198 L 650 546.3938688190898 L 666.6666666666666 588.2029499279085 L 683.3333333333334 621.378083764291 L 700 642.671893357755 L 716.6666666666666 649.9999937060198 L 733.3333333333333 642.6450487583265 L 750 621.3270012811702 L 766.6666666666667 588.1326409281302 L 783.3333333333334 546.3112156262206 L 800 499.9565579701709 L 816.6666666666666 453.60611871048405 L 833.3333333333334 411.79706839195893 L 850 378.6219085309098 L 866.6666666666667 357.32810259358826 L 883.3333333333333 350.0000062977796 L 900 357.354955297554 L 916.6666666666666 378.67298540055765 L 933.3333333333334 411.86736968307906 L 950 453.6887628309222 L 966.6666666666666 500.0434551432455 L 983.3333333333333 546.3938597507134 L 1000 588.202942214785" stroke="#F59E0B" stroke-width="3" fill="none" opacity="0.7"/><path d="M 0 500 L 0 630.8846696243992 L 16.666666666666668 612.909528887058 L 33.333333333333336 590.6472094227241 L 50 565.6148273603459 L 66.66666666666667 539.5183428244004 L 83.33333333333333 514.1361656193449 L 100 491.1980484882595 L 116.66666666666667 472.2671705865751 L 133.33333333333334 458.63367372904787 L 150 451.2266385424626 L 166.66666666666666 450.55084203347946 L 183.33333333333331 456.6523385990769 L 200 469.11533551623177 L 216.66666666666669 487.09047790856147 L 233.33333333333334 509.35279856477365 L 250 534.3851577252915 L 266.6666666666667 560.4816658697214 L 283.3333333333333 585.8638425413668 L 300 608.8019585829034 L 316.66666666666663 627.7328199143514 L 333.3333333333333 641.3663201333954 L 350 648.7733628226293 L 366.66666666666663 649.4491570501852 L 383.33333333333337 643.3476582656073 L 400 630.8846733626169 L 416.6666666666667 612.9095338287677 L 433.33333333333337 590.6471934477282 L 450 565.6148336396667 L 466.6666666666667 539.5183491466836 L 483.3333333333333 514.1361715537374 L 500 491.1980343459342 L 516.6666666666667 472.26717458592316 L 533.3333333333334 458.6336763131129 L 550 451.22663953514495 L 566.6666666666666 450.5508413671296 L 583.3333333333334 456.65234486970934 L 600 469.1153317780135 L 616.6666666666667 487.0904729668513 L 633.3333333333333 509.3527927563407 L 650 534.3851749953752 L 666.6666666666666 560.4816595474382 L 683.3333333333334 585.8638366069745 L 700 608.8019534408206 L 716.6666666666666 627.7328159150026 L 733.3333333333333 641.366327240378 L 750 648.7733618299475 L 766.6666666666667 649.4491577165356 L 783.3333333333334 643.3476605455794 L 800 630.8846630813554 L 816.6666666666666 612.9095202375293 L 833.3333333333334 590.6471992561613 L 850 565.6148399189875 L 866.6666666666667 539.5183554689668 L 883.3333333333333 514.136155232314 L 900 491.1980394880166 L 916.6666666666666 472.2671785852715 L 933.3333333333334 458.63367889717836 L 950 451.22663680496083 L 966.6666666666666 450.5508431997999 L 983.3333333333333 456.6523425897367 L 1000 469.1153280397956" stroke="#EF4444" stroke-width="2" fill="none" opacity="0.5"/>
    <text x="500" y="960" font-family="system-ui, sans-serif" font-size="36" font-weight="700" fill="white" text-anchor="middle" opacity="0.85">medium</text>
  </svg>