<svg xmlns="http://www.w3.org/2000/svg" viewBox="0 0 1000 1000" width="1000" height="1000">
    <defs>
      <linearGradient id="g355" x1="0" y1="0" x2="1" y2="1">
        <stop offset="0%" stop-color="#06B6D4"/>
        <stop offset="100%" stop-color="#0EA5E9"/>
      </linearGradient>
      <radialGradient id="glow355" cx="50%" cy="50%" r="60%">
        <stop offset="0%" stop-color="#67E8F9" stop-opacity="0.2"/>
        <stop offset="100%" stop-color="#67E8F9" stop-opacity="0"/>
      </radialGradient>
    </defs>
    <rect width="1000" height="1000" fill="#030712"/>
    <rect width="1000" height="1000" fill="url(#glow355)"/>
    <line x1="424.8" y1="549.6" x2="549.6" y2="674.4000000000001" stroke="#06B6D4" stroke-width="1" opacity="0.14786592487976813"/><line x1="424.8" y1="549.6" x2="399.2" y2="524" stroke="#06B6D4" stroke-width="1" opacity="0.34828018971892677"/><line x1="424.8" y1="549.6" x2="524" y2="648.8" stroke="#06B6D4" stroke-width="1" opacity="0.1995857351608415"/><line x1="424.8" y1="549.6" x2="373.6" y2="498.4" stroke="#06B6D4" stroke-width="1" opacity="0.2965603794378536"/><line x1="424.8" y1="549.6" x2="498.4" y2="623.2" stroke="#06B6D4" stroke-width="1" opacity="0.25130554544191464"/><line x1="424.8" y1="549.6" x2="348" y2="472.8" stroke="#06B6D4" stroke-width="1" opacity="0.24484056915678043"/><line x1="424.8" y1="549.6" x2="472.8" y2="597.6" stroke="#06B6D4" stroke-width="1" opacity="0.30302535572298783"/><line x1="424.8" y1="549.6" x2="322.4" y2="447.2" stroke="#06B6D4" stroke-width="1" opacity="0.19312075887570718"/><line x1="424.8" y1="549.6" x2="447.2" y2="572" stroke="#06B6D4" stroke-width="1" opacity="0.35474516600406103"/><line x1="424.8" y1="549.6" x2="572" y2="696.8" stroke="#06B6D4" stroke-width="1" opacity="0.10261109088382925"/><line x1="549.6" y1="674.4000000000001" x2="399.2" y2="524" stroke="#06B6D4" stroke-width="1" opacity="0.09614611459869488"/><line x1="549.6" y1="674.4000000000001" x2="524" y2="648.8" stroke="#06B6D4" stroke-width="1" opacity="0.34828018971892666"/><line x1="549.6" y1="674.4000000000001" x2="373.6" y2="498.4" stroke="#06B6D4" stroke-width="1" opacity="0.044426304317621734"/><line x1="549.6" y1="674.4000000000001" x2="498.4" y2="623.2" stroke="#06B6D4" stroke-width="1" opacity="0.2965603794378535"/><line x1="549.6" y1="674.4000000000001" x2="472.8" y2="597.6" stroke="#06B6D4" stroke-width="1" opacity="0.24484056915678037"/><line x1="549.6" y1="674.4000000000001" x2="447.2" y2="572" stroke="#06B6D4" stroke-width="1" opacity="0.19312075887570715"/><line x1="549.6" y1="674.4000000000001" x2="572" y2="696.8" stroke="#06B6D4" stroke-width="1" opacity="0.35474516600406114"/><line x1="674.4000000000001" y1="399.2" x2="648.8" y2="373.6" stroke="#06B6D4" stroke-width="1" opacity="0.3482801897189267"/><line x1="674.4000000000001" y1="399.2" x2="623.2" y2="348" stroke="#06B6D4" stroke-width="1" opacity="0.2965603794378536"/><line x1="674.4000000000001" y1="399.2" x2="597.6" y2="322.4" stroke="#06B6D4" stroke-width="1" opacity="0.24484056915678037"/><line x1="674.4000000000001" y1="399.2" x2="696.8" y2="421.6" stroke="#06B6D4" stroke-width="1" opacity="0.3547451660040611"/><line x1="399.2" y1="524" x2="524" y2="648.8" stroke="#06B6D4" stroke-width="1" opacity="0.1478659248797683"/><line x1="399.2" y1="524" x2="373.6" y2="498.4" stroke="#06B6D4" stroke-width="1" opacity="0.3482801897189268"/><line x1="399.2" y1="524" x2="498.4" y2="623.2" stroke="#06B6D4" stroke-width="1" opacity="0.19958573516084135"/><line x1="399.2" y1="524" x2="348" y2="472.8" stroke="#06B6D4" stroke-width="1" opacity="0.2965603794378537"/><line x1="399.2" y1="524" x2="472.8" y2="597.6" stroke="#06B6D4" stroke-width="1" opacity="0.2513055454419145"/><line x1="399.2" y1="524" x2="322.4" y2="447.2" stroke="#06B6D4" stroke-width="1" opacity="0.24484056915678043"/><line x1="399.2" y1="524" x2="447.2" y2="572" stroke="#06B6D4" stroke-width="1" opacity="0.30302535572298783"/><line x1="399.2" y1="524" x2="572" y2="696.8" stroke="#06B6D4" stroke-width="1" opacity="0.05089128060275605"/><line x1="524" y1="648.8" x2="373.6" y2="498.4" stroke="#06B6D4" stroke-width="1" opacity="0.09614611459869504"/><line x1="524" y1="648.8" x2="498.4" y2="623.2" stroke="#06B6D4" stroke-width="1" opacity="0.3482801897189269"/><line x1="524" y1="648.8" x2="348" y2="472.8" stroke="#06B6D4" stroke-width="1" opacity="0.0444263043176219"/><line x1="524" y1="648.8" x2="472.8" y2="597.6" stroke="#06B6D4" stroke-width="1" opacity="0.29656037943785374"/><line x1="524" y1="648.8" x2="447.2" y2="572" stroke="#06B6D4" stroke-width="1" opacity="0.24484056915678049"/><line x1="524" y1="648.8" x2="572" y2="696.8" stroke="#06B6D4" stroke-width="1" opacity="0.30302535572298783"/><line x1="648.8" y1="373.6" x2="623.2" y2="348" stroke="#06B6D4" stroke-width="1" opacity="0.3482801897189269"/><line x1="648.8" y1="373.6" x2="597.6" y2="322.4" stroke="#06B6D4" stroke-width="1" opacity="0.2965603794378537"/><line x1="648.8" y1="373.6" x2="696.8" y2="421.6" stroke="#06B6D4" stroke-width="1" opacity="0.30302535572298783"/><line x1="373.6" y1="498.4" x2="498.4" y2="623.2" stroke="#06B6D4" stroke-width="1" opacity="0.14786592487976818"/><line x1="373.6" y1="498.4" x2="348" y2="472.8" stroke="#06B6D4" stroke-width="1" opacity="0.3482801897189268"/><line x1="373.6" y1="498.4" x2="472.8" y2="597.6" stroke="#06B6D4" stroke-width="1" opacity="0.19958573516084135"/><line x1="373.6" y1="498.4" x2="322.4" y2="447.2" stroke="#06B6D4" stroke-width="1" opacity="0.2965603794378536"/><line x1="373.6" y1="498.4" x2="447.2" y2="572" stroke="#06B6D4" stroke-width="1" opacity="0.25130554544191464"/><line x1="498.4" y1="623.2" x2="348" y2="472.8" stroke="#06B6D4" stroke-width="1" opacity="0.09614611459869504"/><line x1="498.4" y1="623.2" x2="472.8" y2="597.6" stroke="#06B6D4" stroke-width="1" opacity="0.3482801897189268"/><line x1="498.4" y1="623.2" x2="322.4" y2="447.2" stroke="#06B6D4" stroke-width="1" opacity="0.04442630431762179"/><line x1="498.4" y1="623.2" x2="447.2" y2="572" stroke="#06B6D4" stroke-width="1" opacity="0.2965603794378536"/><line x1="498.4" y1="623.2" x2="572" y2="696.8" stroke="#06B6D4" stroke-width="1" opacity="0.25130554544191464"/><line x1="623.2" y1="348" x2="597.6" y2="322.4" stroke="#06B6D4" stroke-width="1" opacity="0.34828018971892677"/><line x1="623.2" y1="348" x2="696.8" y2="421.6" stroke="#06B6D4" stroke-width="1" opacity="0.25130554544191464"/><line x1="348" y1="472.8" x2="472.8" y2="597.6" stroke="#06B6D4" stroke-width="1" opacity="0.14786592487976818"/><line x1="348" y1="472.8" x2="322.4" y2="447.2" stroke="#06B6D4" stroke-width="1" opacity="0.34828018971892677"/><line x1="348" y1="472.8" x2="447.2" y2="572" stroke="#06B6D4" stroke-width="1" opacity="0.19958573516084144"/><line x1="472.8" y1="597.6" x2="322.4" y2="447.2" stroke="#06B6D4" stroke-width="1" opacity="0.09614611459869493"/><line x1="472.8" y1="597.6" x2="447.2" y2="572" stroke="#06B6D4" stroke-width="1" opacity="0.34828018971892677"/><line x1="472.8" y1="597.6" x2="572" y2="696.8" stroke="#06B6D4" stroke-width="1" opacity="0.1995857351608415"/><line x1="597.6" y1="322.4" x2="696.8" y2="421.6" stroke="#06B6D4" stroke-width="1" opacity="0.19958573516084144"/><line x1="322.4" y1="447.2" x2="447.2" y2="572" stroke="#06B6D4" stroke-width="1" opacity="0.14786592487976818"/><line x1="447.2" y1="572" x2="572" y2="696.8" stroke="#06B6D4" stroke-width="1" opacity="0.1478659248797683"/><circle cx="424.8" cy="549.6" r="6" fill="#6366F1" opacity="0.8"/><circle cx="549.6" cy="674.4000000000001" r="6" fill="#6366F1" opacity="0.8"/><circle cx="674.4000000000001" cy="399.2" r="6" fill="#6366F1" opacity="0.8"/><circle cx="399.2" cy="524" r="6" fill="#6366F1" opacity="0.8"/><circle cx="524" cy="648.8" r="6" fill="#6366F1" opacity="0.8"/><circle cx="648.8" cy="373.6" r="6" fill="#6366F1" opacity="0.8"/><circle cx="373.6" cy="498.4" r="6" fill="#6366F1" opacity="0.8"/><circle cx="498.4" cy="623.2" r="6" fill="#6366F1" opacity="0.8"/><circle cx="623.2" cy="348" r="6" fill="#6366F1" opacity="0.8"/><circle cx="348" cy="472.8" r="6" fill="#6366F1" opacity="0.8"/><circle cx="472.8" cy="597.6" r="6" fill="#6366F1" opacity="0.8"/><circle cx="597.6" cy="322.4" r="6" fill="#6366F1" opacity="0.8"/><circle cx="322.4" cy="447.2" r="6" fill="#6366F1" opacity="0.8"/><circle cx="447.2" cy="572" r="6" fill="#6366F1" opacity="0.8"/><circle cx="572" cy="696.8" r="6" fill="#6366F1" opacity="0.8"/><circle cx="696.8" cy="421.6" r="6" fill="#6366F1" opacity="0.8"/>
    <text x="500" y="960" font-family="system-ui, sans-serif" font-size="36" font-weight="700" fill="white" text-anchor="middle" opacity="0.85">triangle</text>
  </svg>