<svg xmlns="http://www.w3.org/2000/svg" viewBox="0 0 1000 1000" width="1000" height="1000">
    <defs>
      <linearGradient id="g359" x1="0" y1="0" x2="1" y2="1">
        <stop offset="0%" stop-color="#8B5CF6"/>
        <stop offset="100%" stop-color="#6366F1"/>
      </linearGradient>
      <radialGradient id="glow359" cx="50%" cy="50%" r="60%">
        <stop offset="0%" stop-color="#C4B5FD" stop-opacity="0.2"/>
        <stop offset="100%" stop-color="#C4B5FD" stop-opacity="0"/>
      </radialGradient>
    </defs>
    <rect width="1000" height="1000" fill="#0F172A"/>
    <rect width="1000" height="1000" fill="url(#glow359)"/>
    <path d="M 0 500 L 0 613.3144807080795 L 16.666666666666668 577.396916121895 L 33.333333333333336 533.9032017114984 L 50 487.09080551690425 L 66.66666666666667 441.54205129171095 L 83.33333333333333 401.71556870241324 L 100 371.5098515674558 L 116.66666666666667 353.88165014039384 L 133.33333333333334 350.5565224270466 L 150 361.8599643399212 L 166.66666666666666 386.6855161678017 L 183.33333333333331 422.60307979385186 L 200 466.0967936439092 L 216.66666666666669 512.9091897328093 L 233.33333333333334 558.4579443172996 L 250 598.2844276957151 L 266.6666666666667 628.4901459723665 L 283.3333333333333 646.1183528235188 L 300 649.4434764443961 L 316.66666666666663 638.1400305495229 L 333.3333333333333 613.3144752399004 L 350 577.3969242904013 L 366.66666666666663 533.9032110006831 L 383.33333333333337 487.09081501747727 L 400 441.5420600736899 L 416.6666666666667 401.7155759061568 L 433.33333333333337 371.50985648781136 L 450 353.8816482541457 L 466.6666666666667 350.5565231452657 L 483.3333333333333 361.85996759230306 L 500 386.68552163598065 L 516.6666666666667 422.60308694256423 L 533.3333333333334 466.0968017733894 L 550 512.909198047287 L 566.6666666666666 558.4579520028957 L 583.3333333333334 598.2844204919712 L 600 628.4901410520107 L 616.6666666666667 646.1183506681897 L 633.3333333333333 649.4434772650724 L 650 638.1400342658709 L 666.6666666666666 613.3144814881382 L 683.3333333333334 577.396917141689 L 700 533.903202871203 L 716.6666666666666 487.09080670299954 L 733.3333333333333 441.5420523880937 L 750 401.7155696017618 L 766.6666666666667 371.50985218173565 L 783.3333333333334 353.8816463678981 L 800 350.55652232458976 L 816.6666666666666 361.85996387595526 L 833.3333333333334 386.68551538774295 L 850 422.60307877405785 L 866.6666666666667 466.0967924842046 L 883.3333333333333 512.909188546714 L 900 558.4579432209168 L 916.6666666666666 598.2844267963665 L 933.3333333333334 628.4901453580866 L 950 646.1183525544375 L 966.6666666666666 649.4434765468532 L 983.3333333333333 638.1400310134889 L 1000 613.3144760199592" stroke="#8B5CF6" stroke-width="3" fill="none" opacity="0.7"/><path d="M 0 500 L 0 484.4770491036977 L 16.666666666666668 467.1577286495837 L 33.333333333333336 455.48396594764097 L 50 450.251318888455 L 66.66666666666667 451.81637916484874 L 83.33333333333333 460.0724891306188 L 100 474.4570157253797 L 116.66666666666667 493.98966459785987 L 133.33333333333334 517.3393350168285 L 150 542.9147650199973 L 166.66666666666666 568.9730418862628 L 183.33333333333331 593.7383485364462 L 200 615.5229484950544 L 216.66666666666669 632.8422762469955 L 233.33333333333334 644.5160330141903 L 250 649.7486817309559 L 266.6666666666667 648.1836214382382 L 283.3333333333333 639.9275122596705 L 300 625.5429863573663 L 316.66666666666663 606.0103380354068 L 333.3333333333333 582.6606679875064 L 350 557.0852381506652 L 366.66666666666663 531.0269495302521 L 383.33333333333337 506.2616543220354 L 400 484.47704490076774 L 416.6666666666667 467.15772553337746 L 433.33333333333337 455.4839680239785 L 450 450.25131849425884 L 466.6666666666667 451.8163779586749 L 483.3333333333333 460.0724915640573 L 500 474.4570115598878 L 516.6666666666667 493.9896692068951 L 533.3333333333334 517.3393290081588 L 550 542.9147586786725 L 566.6666666666666 568.9730473488333 L 583.3333333333334 593.7383428194829 L 600 615.5229526979845 L 616.6666666666667 632.8422726862494 L 633.3333333333333 644.5160348313082 L 650 649.7486812805263 L 666.6666666666666 648.1836203826485 L 683.3333333333334 639.9275098262322 L 700 625.542990522858 L 716.6666666666666 606.0103334263717 L 733.3333333333333 582.660673996176 L 750 557.0852326010206 L 766.6666666666667 531.0269557720812 L 783.3333333333334 506.2616493188042 L 800 484.47704970326345 L 816.6666666666666 467.1577224171715 L 833.3333333333334 455.4839662068605 L 850 450.2513189446887 L 866.6666666666667 451.8163790142644 L 883.3333333333333 460.07248878347855 L 900 474.45701520534044 L 916.6666666666666 493.98966394036154 L 933.3333333333334 517.3393342666784 L 950 542.914764228317 L 966.6666666666666 568.9730411070041 L 983.3333333333333 593.7383478227142 L 1000 615.5229478954886" stroke="#6366F1" stroke-width="2" fill="none" opacity="0.5"/>
    <text x="500" y="960" font-family="system-ui, sans-serif" font-size="36" font-weight="700" fill="white" text-anchor="middle" opacity="0.85">spiral</text>
  </svg>