<svg xmlns="http://www.w3.org/2000/svg" viewBox="0 0 1000 1000" width="1000" height="1000">
    <defs>
      <linearGradient id="g362" x1="0" y1="0" x2="1" y2="1">
        <stop offset="0%" stop-color="#10B981"/>
        <stop offset="100%" stop-color="#14B8A6"/>
      </linearGradient>
      <radialGradient id="glow362" cx="50%" cy="50%" r="60%">
        <stop offset="0%" stop-color="#6EE7B7" stop-opacity="0.2"/>
        <stop offset="100%" stop-color="#6EE7B7" stop-opacity="0"/>
      </radialGradient>
    </defs>
    <rect width="1000" height="1000" fill="#030712"/>
    <rect width="1000" height="1000" fill="url(#glow362)"/>
    <circle cx="430.71327864906914" cy="395.2397487381857" r="9.768" fill="#F59E0B" opacity="0.6768"/><circle cx="347.99046780043057" cy="857.418049516904" r="7.024" fill="#10B981" opacity="0.471"/><circle cx="747.0414354948268" cy="454.481112176863" r="4.279999999999999" fill="#14B8A6" opacity="0.8652"/><circle cx="420.9235231373402" cy="417.88477116277863" r="9.536" fill="#F59E0B" opacity="0.6594"/><circle cx="417.80362664178284" cy="867.72543589852" r="6.792" fill="#14B8A6" opacity="0.4536"/><circle cx="723.8652146126042" cy="414.603713860305" r="4.048" fill="#10B981" opacity="0.8477999999999999"/><circle cx="416.78011756205115" cy="440.3324948819378" r="9.304" fill="#F59E0B" opacity="0.6419999999999999"/><circle cx="486.2355452889399" cy="864.9405154083431" r="6.56" fill="#10B981" opacity="0.4362"/><circle cx="694.7752544274392" cy="381.48164588247823" r="3.816" fill="#14B8A6" opacity="0.8304"/><circle cx="417.8417036360854" cy="461.3392403258914" r="9.072" fill="#F59E0B" opacity="0.6246"/><circle cx="550.9222127104764" cy="849.9141155378974" r="6.328" fill="#14B8A6" opacity="0.4188"/><circle cx="661.421663869793" cy="355.8750318872279" r="3.584" fill="#10B981" opacity="0.813"/><circle cx="423.4134821692152" cy="479.8221585258761" r="8.84" fill="#F59E0B" opacity="0.6072"/><circle cx="609.7627145540656" cy="823.9076203082026" r="6.096" fill="#10B981" opacity="0.4014"/><circle cx="625.5233645881295" cy="338.17625346545856" r="3.3520000000000003" fill="#14B8A6" opacity="0.7955999999999999"/><circle cx="432.5920583423825" cy="494.90790794631175" r="8.608" fill="#F59E0B" opacity="0.5898"/><circle cx="660.9874415396498" cy="788.5259150691976" r="5.864" fill="#14B8A6" opacity="0.384"/><circle cx="588.7908290720713" cy="328.4120380892232" r="3.12" fill="#10B981" opacity="0.7782"/><circle cx="444.319155737768" cy="505.97022463941454" r="8.376000000000001" fill="#F59E0B" opacity="0.5724"/><circle cx="703.2107679318823" cy="745.6396217969216" r="5.632" fill="#10B981" opacity="0.3666"/><circle cx="552.8521678960142" cy="326.2610914369164" r="2.888" fill="#14B8A6" opacity="0.7607999999999999"/><circle cx="457.4416325676285" cy="512.6548552536669" r="8.144" fill="#F59E0B" opacity="0.5549999999999999"/><circle cx="735.4666516918322" cy="697.3000150558468" r="5.4" fill="#14B8A6" opacity="0.3492"/><circle cx="519.1855854284919" cy="331.08607721159854" r="2.656" fill="#10B981" opacity="0.7434"/><circle cx="470.77498600662153" cy="514.8908883914571" r="7.912" fill="#F59E0B" opacity="0.5376"/><circle cx="757.2263178803119" cy="645.650202161675" r="5.168" fill="#10B981" opacity="0.3318"/><circle cx="489.06089192683805" cy="341.9781789923819" r="2.424" fill="#14B8A6" opacity="0.726"/><circle cx="483.1674035486659" cy="512.8881223111256" r="7.68" fill="#F59E0B" opacity="0.5202"/><circle cx="768.3979133510645" cy="592.8362004220037" r="4.936" fill="#14B8A6" opacity="0.3144"/><circle cx="463.49232456419924" cy="357.811991946317" r="2.192" fill="#10B981" opacity="0.7086"/><circle cx="493.56141846524747" cy="507.1207210182919" r="7.448" fill="#F59E0B" opacity="0.5028"/><circle cx="769.3087352666078" cy="540.9214504764942" r="4.704000000000001" fill="#10B981" opacity="0.897"/><circle cx="443.2044095187238" cy="377.308105802041" r="9.96" fill="#14B8A6" opacity="0.6912"/><circle cx="290.9804972754043" cy="838.6958037542872" r="7.216" fill="#F59E0B" opacity="0.48539999999999994"/><circle cx="760.6713109433829" cy="491.80807403242414" r="4.4719999999999995" fill="#14B8A6" opacity="0.8795999999999999"/><circle cx="428.6120138570077" cy="399.10046861135606" r="9.728" fill="#10B981" opacity="0.6738"/><circle cx="360.0167983053636" cy="860.1522778538526" r="6.984" fill="#F59E0B" opacity="0.46799999999999997"/><circle cx="743.5352163931938" cy="447.1678282074239" r="4.24" fill="#10B981" opacity="0.8622000000000001"/><circle cx="419.81511390155487" cy="421.80547307273105" r="9.496" fill="#14B8A6" opacity="0.6564"/><circle cx="429.76948329327035" cy="868.1612615731125" r="6.752" fill="#F59E0B" opacity="0.4506"/><circle cx="719.2270429931393" cy="408.3852434348907" r="4.008" fill="#14B8A6" opacity="0.8448"/><circle cx="416.6081717207404" cy="444.08968810458595" r="9.264" fill="#10B981" opacity="0.639"/><circle cx="497.71796211170897" cy="863.192830742949" r="6.52" fill="#F59E0B" opacity="0.4332"/><circle cx="689.281337049524" cy="376.5148776380552" r="3.776" fill="#10B981" opacity="0.8273999999999999"/><circle cx="418.50338923926245" cy="464.73326731163155" r="9.032" fill="#14B8A6" opacity="0.6215999999999999"/><circle cx="561.538107535707" cy="846.1728200204686" r="6.288" fill="#F59E0B" opacity="0.4158"/><circle cx="655.3656311121028" cy="352.2539994817525" r="3.544" fill="#14B8A6" opacity="0.81"/><circle cx="424.76652542087623" cy="482.68629725470777" r="8.8" fill="#10B981" opacity="0.6042"/><circle cx="619.1816688650281" cy="818.4269614943854" r="6.056" fill="#F59E0B" opacity="0.3984"/><circle cx="619.2028491649135" cy="335.9313535407606" r="3.3120000000000003" fill="#10B981" opacity="0.7926"/><circle cx="434.46343948511503" cy="497.11569143834805" r="8.568" fill="#14B8A6" opacity="0.5868"/><circle cx="668.9419428938467" cy="781.6117538939955" r="5.824" fill="#F59E0B" opacity="0.381"/><circle cx="582.4943959341992" cy="327.5119869687996" r="3.08" fill="#14B8A6" opacity="0.7752"/><circle cx="446.51508301238084" cy="507.44067569697046" r="8.336" fill="#10B981" opacity="0.5693999999999999"/><circle cx="709.5035989345329" cy="737.6351868589296" r="5.5920000000000005" fill="#F59E0B" opacity="0.3636"/><circle cx="546.8471345296655" cy="326.61745766554407" r="2.848" fill="#10B981" opacity="0.7578"/><circle cx="459.7583234524115" cy="513.355428433385" r="8.104" fill="#14B8A6" opacity="0.552"/><circle cx="739.9752294880961" cy="688.57075391517" r="5.359999999999999" fill="#F59E0B" opacity="0.3462"/><circle cx="513.7072227434505" cy="332.560124090283" r="2.616" fill="#14B8A6" opacity="0.7404"/><circle cx="473.009754254649" cy="514.8380131623328" r="7.872" fill="#10B981" opacity="0.5346"/><circle cx="759.9039130072089" cy="636.5683565235418" r="5.128" fill="#F59E0B" opacity="0.3288"/><circle cx="484.30342779727" cy="344.38966094412467" r="2.384" fill="#10B981" opacity="0.723"/><circle cx="485.12954124418434" cy="512.145347108732" r="7.64" fill="#14B8A6" opacity="0.5172"/><circle cx="769.2718016185534" cy="583.7657260047239" r="4.896" fill="#F59E0B" opacity="0.3114"/><circle cx="459.6020878455196" cy="360.94947431397867" r="2.152" fill="#14B8A6" opacity="0.7056"/><circle cx="495.0823746920722" cy="505.794563083687" r="7.408" fill="#10B981" opacity="0.4998"/><circle cx="768.4754562756776" cy="532.2038720896528" r="4.664" fill="#F59E0B" opacity="0.8939999999999999"/><circle cx="440.27535561680776" cy="380.94032230305163" r="9.92" fill="#10B981" opacity="0.6881999999999999"/><circle cx="302.7186982855617" cy="843.3599976611381" r="7.176" fill="#14B8A6" opacity="0.48239999999999994"/><circle cx="758.2893173172367" cy="483.7498135458137" r="4.432" fill="#F59E0B" opacity="0.8766"/><circle cx="426.6837677306146" cy="402.98819615210977" r="9.687999999999999" fill="#14B8A6" opacity="0.6708"/><circle cx="372.064167085364" cy="862.485561997217" r="6.944" fill="#10B981" opacity="0.46499999999999997"/><circle cx="739.8152946523542" cy="440.02947014737526" r="4.2" fill="#F59E0B" opacity="0.8592"/><circle cx="418.87355709060085" cy="425.7133911066873" r="9.456" fill="#10B981" opacity="0.6534"/><circle cx="441.68123143300187" cy="868.2102133738673" r="6.712" fill="#14B8A6" opacity="0.4476"/><circle cx="714.4209666933849" cy="402.3731131179822" r="3.968" fill="#F59E0B" opacity="0.8417999999999999"/><circle cx="416.5884910892278" cy="447.7976994642174" r="9.224" fill="#14B8A6" opacity="0.636"/><circle cx="509.07699047413354" cy="861.0859291691279" r="6.48" fill="#10B981" opacity="0.43019999999999997"/><circle cx="683.6692724889012" cy="371.7752038668115" r="3.7359999999999998" fill="#F59E0B" opacity="0.8244"/><circle cx="419.2954010248998" cy="468.04678882696993" r="8.992" fill="#10B981" opacity="0.6186"/><circle cx="571.9695680259505" cy="842.111884152185" r="6.248" fill="#14B8A6" opacity="0.4128"/><circle cx="649.2428535852756" cy="348.86982216074784" r="3.504" fill="#F59E0B" opacity="0.8069999999999999"/><circle cx="426.2219930882613" cy="485.4450800025753" r="8.76" fill="#14B8A6" opacity="0.6012"/><circle cx="628.3653342863688" cy="812.6760959100468" r="6.016" fill="#10B981" opacity="0.3954"/><circle cx="612.8663422727078" cy="333.922220685668" r="3.2720000000000002" fill="#F59E0B" opacity="0.7895999999999999"/><circle cx="436.4050215886373" cy="499.20079986341875" r="8.527999999999999" fill="#10B981" opacity="0.5838"/><circle cx="676.6219766942123" cy="774.4843116621223" r="5.784" fill="#14B8A6" opacity="0.378"/><circle cx="576.2298976370249" cy="326.8363701401224" r="3.04" fill="#F59E0B" opacity="0.7722"/><circle cx="448.7464810522521" cy="508.77933912506217" r="8.296" fill="#14B8A6" opacity="0.5664"/><circle cx="715.4954289463512" cy="729.4793239122604" r="5.552" fill="#10B981" opacity="0.3606"/><circle cx="540.9171621777625" cy="327.1777044495743" r="2.808" fill="#F59E0B" opacity="0.7547999999999999"/><circle cx="462.0751521507835" cy="513.9235740962505" r="8.064" fill="#10B981" opacity="0.5489999999999999"/><circle cx="744.1693509476122" cy="679.7541878728332" r="5.32" fill="#14B8A6" opacity="0.3432"/><circle cx="508.3405568178418" cy="334.2096652034011" r="2.576" fill="#F59E0B" opacity="0.7373999999999999"/><circle cx="475.21062962228643" cy="514.6603927736107" r="7.832" fill="#14B8A6" opacity="0.5316"/><circle cx="762.2665713567537" cy="627.462957555412" r="5.088" fill="#10B981" opacity="0.3258"/><circle cx="479.68646295615156" cy="346.9421017628682" r="2.344" fill="#F59E0B" opacity="0.72"/><circle cx="487.026876251339" cy="511.29327499895084" r="7.6" fill="#10B981" opacity="0.5142"/><circle cx="769.8426299212027" cy="574.7325570097051" r="4.856" fill="#14B8A6" opacity="0.3084"/><circle cx="455.8723732032575" cy="364.1891294730521" r="2.112" fill="#F59E0B" opacity="0.7026"/>
    <text x="500" y="960" font-family="system-ui, sans-serif" font-size="36" font-weight="700" fill="white" text-anchor="middle" opacity="0.85">dot</text>
  </svg>