<svg xmlns="http://www.w3.org/2000/svg" viewBox="0 0 1000 1000" width="1000" height="1000">
    <defs>
      <linearGradient id="g365" x1="0" y1="0" x2="1" y2="1">
        <stop offset="0%" stop-color="#8B5CF6"/>
        <stop offset="100%" stop-color="#6366F1"/>
      </linearGradient>
      <radialGradient id="glow365" cx="50%" cy="50%" r="60%">
        <stop offset="0%" stop-color="#C4B5FD" stop-opacity="0.2"/>
        <stop offset="100%" stop-color="#C4B5FD" stop-opacity="0"/>
      </radialGradient>
    </defs>
    <rect width="1000" height="1000" fill="#0F172A"/>
    <rect width="1000" height="1000" fill="url(#glow365)"/>
    <line x1="400.8" y1="501.6" x2="501.6" y2="602.4" stroke="#8B5CF6" stroke-width="1" opacity="0.19635324701827436"/><line x1="400.8" y1="501.6" x2="303.2" y2="404" stroke="#8B5CF6" stroke-width="1" opacity="0.20281822330340843"/><line x1="400.8" y1="501.6" x2="404" y2="504.8" stroke="#8B5CF6" stroke-width="1" opacity="0.3935350237148659"/><line x1="400.8" y1="501.6" x2="504.8" y2="605.6" stroke="#8B5CF6" stroke-width="1" opacity="0.18988827073314019"/><line x1="400.8" y1="501.6" x2="306.4" y2="407.2" stroke="#8B5CF6" stroke-width="1" opacity="0.20928319958854255"/><line x1="400.8" y1="501.6" x2="407.2" y2="508" stroke="#8B5CF6" stroke-width="1" opacity="0.3870700474297318"/><line x1="400.8" y1="501.6" x2="508" y2="608.8" stroke="#8B5CF6" stroke-width="1" opacity="0.1834232944480061"/><line x1="400.8" y1="501.6" x2="309.6" y2="410.4" stroke="#8B5CF6" stroke-width="1" opacity="0.21574817587367673"/><line x1="400.8" y1="501.6" x2="410.4" y2="511.20000000000005" stroke="#8B5CF6" stroke-width="1" opacity="0.3806050711445976"/><line x1="400.8" y1="501.6" x2="511.20000000000005" y2="612" stroke="#8B5CF6" stroke-width="1" opacity="0.17695831816287189"/><line x1="400.8" y1="501.6" x2="312.8" y2="413.6" stroke="#8B5CF6" stroke-width="1" opacity="0.22221315215881093"/><line x1="501.6" y1="602.4" x2="404" y2="504.8" stroke="#8B5CF6" stroke-width="1" opacity="0.2028182233034085"/><line x1="501.6" y1="602.4" x2="504.8" y2="605.6" stroke="#8B5CF6" stroke-width="1" opacity="0.3935350237148658"/><line x1="501.6" y1="602.4" x2="306.4" y2="407.2" stroke="#8B5CF6" stroke-width="1" opacity="0.005636446606816892"/><line x1="501.6" y1="602.4" x2="407.2" y2="508" stroke="#8B5CF6" stroke-width="1" opacity="0.20928319958854263"/><line x1="501.6" y1="602.4" x2="508" y2="608.8" stroke="#8B5CF6" stroke-width="1" opacity="0.3870700474297318"/><line x1="501.6" y1="602.4" x2="309.6" y2="410.4" stroke="#8B5CF6" stroke-width="1" opacity="0.012101422891951152"/><line x1="501.6" y1="602.4" x2="410.4" y2="511.20000000000005" stroke="#8B5CF6" stroke-width="1" opacity="0.21574817587367678"/><line x1="501.6" y1="602.4" x2="511.20000000000005" y2="612" stroke="#8B5CF6" stroke-width="1" opacity="0.3806050711445975"/><line x1="501.6" y1="602.4" x2="312.8" y2="413.6" stroke="#8B5CF6" stroke-width="1" opacity="0.018566399177085358"/><line x1="602.4" y1="303.2" x2="605.6" y2="306.4" stroke="#8B5CF6" stroke-width="1" opacity="0.3935350237148658"/><line x1="602.4" y1="303.2" x2="608.8" y2="309.6" stroke="#8B5CF6" stroke-width="1" opacity="0.3870700474297317"/><line x1="602.4" y1="303.2" x2="612" y2="312.8" stroke="#8B5CF6" stroke-width="1" opacity="0.3806050711445975"/><line x1="303.2" y1="404" x2="404" y2="504.8" stroke="#8B5CF6" stroke-width="1" opacity="0.19635324701827428"/><line x1="303.2" y1="404" x2="306.4" y2="407.2" stroke="#8B5CF6" stroke-width="1" opacity="0.3935350237148659"/><line x1="303.2" y1="404" x2="407.2" y2="508" stroke="#8B5CF6" stroke-width="1" opacity="0.18988827073314019"/><line x1="303.2" y1="404" x2="309.6" y2="410.4" stroke="#8B5CF6" stroke-width="1" opacity="0.3870700474297317"/><line x1="303.2" y1="404" x2="410.4" y2="511.20000000000005" stroke="#8B5CF6" stroke-width="1" opacity="0.183423294448006"/><line x1="303.2" y1="404" x2="312.8" y2="413.6" stroke="#8B5CF6" stroke-width="1" opacity="0.3806050711445975"/><line x1="404" y1="504.8" x2="504.8" y2="605.6" stroke="#8B5CF6" stroke-width="1" opacity="0.19635324701827428"/><line x1="404" y1="504.8" x2="306.4" y2="407.2" stroke="#8B5CF6" stroke-width="1" opacity="0.20281822330340843"/><line x1="404" y1="504.8" x2="407.2" y2="508" stroke="#8B5CF6" stroke-width="1" opacity="0.3935350237148659"/><line x1="404" y1="504.8" x2="508" y2="608.8" stroke="#8B5CF6" stroke-width="1" opacity="0.18988827073314024"/><line x1="404" y1="504.8" x2="309.6" y2="410.4" stroke="#8B5CF6" stroke-width="1" opacity="0.20928319958854263"/><line x1="404" y1="504.8" x2="410.4" y2="511.20000000000005" stroke="#8B5CF6" stroke-width="1" opacity="0.3870700474297317"/><line x1="404" y1="504.8" x2="511.20000000000005" y2="612" stroke="#8B5CF6" stroke-width="1" opacity="0.183423294448006"/><line x1="404" y1="504.8" x2="312.8" y2="413.6" stroke="#8B5CF6" stroke-width="1" opacity="0.21574817587367678"/><line x1="504.8" y1="605.6" x2="407.2" y2="508" stroke="#8B5CF6" stroke-width="1" opacity="0.20281822330340843"/><line x1="504.8" y1="605.6" x2="508" y2="608.8" stroke="#8B5CF6" stroke-width="1" opacity="0.39353502371486593"/><line x1="504.8" y1="605.6" x2="309.6" y2="410.4" stroke="#8B5CF6" stroke-width="1" opacity="0.005636446606816892"/><line x1="504.8" y1="605.6" x2="410.4" y2="511.20000000000005" stroke="#8B5CF6" stroke-width="1" opacity="0.20928319958854263"/><line x1="504.8" y1="605.6" x2="511.20000000000005" y2="612" stroke="#8B5CF6" stroke-width="1" opacity="0.3870700474297317"/><line x1="504.8" y1="605.6" x2="312.8" y2="413.6" stroke="#8B5CF6" stroke-width="1" opacity="0.012101422891951152"/><line x1="605.6" y1="306.4" x2="608.8" y2="309.6" stroke="#8B5CF6" stroke-width="1" opacity="0.3935350237148659"/><line x1="605.6" y1="306.4" x2="612" y2="312.8" stroke="#8B5CF6" stroke-width="1" opacity="0.3870700474297317"/><line x1="306.4" y1="407.2" x2="407.2" y2="508" stroke="#8B5CF6" stroke-width="1" opacity="0.19635324701827428"/><line x1="306.4" y1="407.2" x2="309.6" y2="410.4" stroke="#8B5CF6" stroke-width="1" opacity="0.3935350237148658"/><line x1="306.4" y1="407.2" x2="410.4" y2="511.20000000000005" stroke="#8B5CF6" stroke-width="1" opacity="0.1898882707331401"/><line x1="306.4" y1="407.2" x2="312.8" y2="413.6" stroke="#8B5CF6" stroke-width="1" opacity="0.38707004742973167"/><line x1="407.2" y1="508" x2="508" y2="608.8" stroke="#8B5CF6" stroke-width="1" opacity="0.19635324701827436"/><line x1="407.2" y1="508" x2="309.6" y2="410.4" stroke="#8B5CF6" stroke-width="1" opacity="0.2028182233034085"/><line x1="407.2" y1="508" x2="410.4" y2="511.20000000000005" stroke="#8B5CF6" stroke-width="1" opacity="0.3935350237148658"/><line x1="407.2" y1="508" x2="511.20000000000005" y2="612" stroke="#8B5CF6" stroke-width="1" opacity="0.1898882707331401"/><line x1="407.2" y1="508" x2="312.8" y2="413.6" stroke="#8B5CF6" stroke-width="1" opacity="0.2092831995885427"/><line x1="508" y1="608.8" x2="410.4" y2="511.20000000000005" stroke="#8B5CF6" stroke-width="1" opacity="0.20281822330340854"/><line x1="508" y1="608.8" x2="511.20000000000005" y2="612" stroke="#8B5CF6" stroke-width="1" opacity="0.39353502371486576"/><line x1="508" y1="608.8" x2="312.8" y2="413.6" stroke="#8B5CF6" stroke-width="1" opacity="0.005636446606817058"/><line x1="608.8" y1="309.6" x2="612" y2="312.8" stroke="#8B5CF6" stroke-width="1" opacity="0.3935350237148658"/><line x1="309.6" y1="410.4" x2="410.4" y2="511.20000000000005" stroke="#8B5CF6" stroke-width="1" opacity="0.19635324701827428"/><line x1="309.6" y1="410.4" x2="312.8" y2="413.6" stroke="#8B5CF6" stroke-width="1" opacity="0.3935350237148658"/><line x1="410.4" y1="511.20000000000005" x2="511.20000000000005" y2="612" stroke="#8B5CF6" stroke-width="1" opacity="0.19635324701827428"/><line x1="410.4" y1="511.20000000000005" x2="312.8" y2="413.6" stroke="#8B5CF6" stroke-width="1" opacity="0.2028182233034085"/><circle cx="400.8" cy="501.6" r="6" fill="#06B6D4" opacity="0.8"/><circle cx="501.6" cy="602.4" r="6" fill="#06B6D4" opacity="0.8"/><circle cx="602.4" cy="303.2" r="6" fill="#06B6D4" opacity="0.8"/><circle cx="303.2" cy="404" r="6" fill="#06B6D4" opacity="0.8"/><circle cx="404" cy="504.8" r="6" fill="#06B6D4" opacity="0.8"/><circle cx="504.8" cy="605.6" r="6" fill="#06B6D4" opacity="0.8"/><circle cx="605.6" cy="306.4" r="6" fill="#06B6D4" opacity="0.8"/><circle cx="306.4" cy="407.2" r="6" fill="#06B6D4" opacity="0.8"/><circle cx="407.2" cy="508" r="6" fill="#06B6D4" opacity="0.8"/><circle cx="508" cy="608.8" r="6" fill="#06B6D4" opacity="0.8"/><circle cx="608.8" cy="309.6" r="6" fill="#06B6D4" opacity="0.8"/><circle cx="309.6" cy="410.4" r="6" fill="#06B6D4" opacity="0.8"/><circle cx="410.4" cy="511.20000000000005" r="6" fill="#06B6D4" opacity="0.8"/><circle cx="511.20000000000005" cy="612" r="6" fill="#06B6D4" opacity="0.8"/><circle cx="612" cy="312.8" r="6" fill="#06B6D4" opacity="0.8"/><circle cx="312.8" cy="413.6" r="6" fill="#06B6D4" opacity="0.8"/>
    <text x="500" y="960" font-family="system-ui, sans-serif" font-size="36" font-weight="700" fill="white" text-anchor="middle" opacity="0.85">plus ab</text>
  </svg>