<svg xmlns="http://www.w3.org/2000/svg" viewBox="0 0 1000 1000" width="1000" height="1000">
    <defs>
      <linearGradient id="g367" x1="0" y1="0" x2="1" y2="1">
        <stop offset="0%" stop-color="#06B6D4"/>
        <stop offset="100%" stop-color="#0EA5E9"/>
      </linearGradient>
      <radialGradient id="glow367" cx="50%" cy="50%" r="60%">
        <stop offset="0%" stop-color="#67E8F9" stop-opacity="0.2"/>
        <stop offset="100%" stop-color="#67E8F9" stop-opacity="0"/>
      </radialGradient>
    </defs>
    <rect width="1000" height="1000" fill="#030712"/>
    <rect width="1000" height="1000" fill="url(#glow367)"/>
    <rect x="7.5" y="261.75" width="35" height="476.5" fill="#0EA5E9" opacity="0.6035999999999999" rx="4"/><rect x="57.5" y="323.5" width="35" height="353" fill="#06B6D4" opacity="0.4554" rx="4"/><rect x="107.5" y="385.25" width="35" height="229.5" fill="#0EA5E9" opacity="0.3072" rx="4"/><rect x="157.5" y="447" width="35" height="106" fill="#06B6D4" opacity="0.7589999999999999" rx="4"/><rect x="207.5" y="258.75" width="35" height="482.5" fill="#0EA5E9" opacity="0.6108" rx="4"/><rect x="257.5" y="320.5" width="35" height="359" fill="#06B6D4" opacity="0.4626" rx="4"/><rect x="307.5" y="382.25" width="35" height="235.5" fill="#0EA5E9" opacity="0.3144" rx="4"/><rect x="357.5" y="444" width="35" height="112" fill="#06B6D4" opacity="0.7662" rx="4"/><rect x="407.5" y="255.75" width="35" height="488.5" fill="#0EA5E9" opacity="0.618" rx="4"/><rect x="457.5" y="317.5" width="35" height="365" fill="#06B6D4" opacity="0.4698" rx="4"/><rect x="507.5" y="379.25" width="35" height="241.5" fill="#0EA5E9" opacity="0.3216" rx="4"/><rect x="557.5" y="441" width="35" height="118" fill="#06B6D4" opacity="0.7734" rx="4"/><rect x="607.5" y="252.75" width="35" height="494.5" fill="#0EA5E9" opacity="0.6252" rx="4"/><rect x="657.5" y="314.5" width="35" height="371" fill="#06B6D4" opacity="0.477" rx="4"/><rect x="707.5" y="376.25" width="35" height="247.5" fill="#0EA5E9" opacity="0.3288" rx="4"/><rect x="757.5" y="438" width="35" height="124" fill="#06B6D4" opacity="0.7806" rx="4"/><rect x="807.5" y="249.75" width="35" height="500.5" fill="#0EA5E9" opacity="0.6324000000000001" rx="4"/><rect x="857.5" y="311.5" width="35" height="377" fill="#06B6D4" opacity="0.48419999999999996" rx="4"/><rect x="907.5" y="373.25" width="35" height="253.5" fill="#0EA5E9" opacity="0.33599999999999997" rx="4"/><rect x="957.5" y="435" width="35" height="130" fill="#06B6D4" opacity="0.7878" rx="4"/>
    <text x="500" y="960" font-family="system-ui, sans-serif" font-size="36" font-weight="700" fill="white" text-anchor="middle" opacity="0.85">atom</text>
  </svg>