<svg xmlns="http://www.w3.org/2000/svg" viewBox="0 0 1000 1000" width="1000" height="1000">
    <defs>
      <linearGradient id="g373" x1="0" y1="0" x2="1" y2="1">
        <stop offset="0%" stop-color="#06B6D4"/>
        <stop offset="100%" stop-color="#0EA5E9"/>
      </linearGradient>
      <radialGradient id="glow373" cx="50%" cy="50%" r="60%">
        <stop offset="0%" stop-color="#67E8F9" stop-opacity="0.2"/>
        <stop offset="100%" stop-color="#67E8F9" stop-opacity="0"/>
      </radialGradient>
    </defs>
    <rect width="1000" height="1000" fill="#030712"/>
    <rect width="1000" height="1000" fill="url(#glow373)"/>
    <path d="M 0 500 L 0 452.9301969468499 L 16.666666666666668 411.2226973161727 L 33.333333333333336 378.20533697741917 L 50 357.11008818669256 L 66.66666666666667 350.0018990041602 L 83.33333333333333 357.5765691543721 L 100 379.09263649602633 L 116.66666666666667 412.44396034324603 L 133.33333333333334 454.36587773471007 L 150 500.7547830265707 L 166.66666666666666 547.0698027705554 L 183.33333333333331 588.7773042455846 L 200 621.7946628488532 L 216.66666666666669 642.8899117227608 L 233.33333333333334 649.9981009973374 L 250 642.4234309390231 L 266.6666666666667 620.9073623572395 L 283.3333333333333 587.5560398984173 L 300 545.6341225488103 L 316.66666666666663 499.2452172710536 L 333.3333333333333 452.93019751203934 L 350 411.2226959943182 L 366.66666666666663 378.20533732487434 L 383.33333333333337 357.11008768778447 L 400 350.00189900116493 L 416.6666666666667 357.5765689675816 L 433.33333333333337 379.09263746660963 L 450 412.44395985991923 L 466.6666666666667 454.36587929689506 L 483.3333333333333 500.7547824313221 L 500 547.0698022053659 L 516.6666666666667 588.7773037657789 L 533.3333333333334 621.7946625013981 L 550 642.889912221669 L 566.6666666666666 649.9981010003327 L 583.3333333333334 642.4234311258137 L 600 620.9073627095411 L 616.6666666666667 587.5560403817442 L 633.3333333333333 545.6341209866252 L 650 499.2452178663022 L 666.6666666666666 452.93019595495434 L 683.3333333333334 411.2226964741239 L 700 378.20533767232945 L 716.6666666666666 357.1100878688777 L 733.3333333333333 350.0018989981697 L 750 357.5765694821857 L 766.6666666666667 379.09263711430805 L 783.3333333333334 412.44395937659243 L 800 454.3658787298544 L 816.6666666666666 500.75478183607345 L 833.3333333333334 547.0698037624509 L 850 588.7773032859733 L 866.6666666666667 621.794662153943 L 883.3333333333333 642.8899120405756 L 900 649.998101003328 L 916.6666666666666 642.4234306112096 L 933.3333333333334 620.9073630618427 L 950 587.556039050189 L 966.6666666666666 545.634121553666 L 983.3333333333333 499.24521846155085 L 1000 452.93019652014385" stroke="#06B6D4" stroke-width="3" fill="none" opacity="0.7"/><path d="M 0 500 L 0 455.05104613404654 L 16.666666666666668 466.40806133451787 L 33.333333333333336 483.461728215691 L 50 505.0498694280485 L 66.66666666666667 529.7012864656995 L 83.33333333333333 555.7360286931421 L 100 581.3798686079018 L 116.66666666666667 604.8852237040435 L 133.33333333333334 624.6502403083994 L 150 639.3279673651953 L 166.66666666666666 647.9181404281587 L 183.33333333333331 649.8353543388699 L 200 644.948953928217 L 216.66666666666669 633.5919387743847 L 233.33333333333334 616.5382719324291 L 250 594.950130749195 L 266.6666666666667 570.2987137285884 L 283.3333333333333 544.26397150495 L 300 518.6201315804947 L 316.66666666666663 495.11477646181856 L 333.3333333333333 475.34975982362505 L 350 460.67203272399416 L 366.66666666666663 452.08185961211774 L 383.33333333333337 450.16464564974876 L 400 455.0510460095195 L 416.6666666666667 466.40806111671276 L 433.33333333333337 483.4617279194509 L 450 505.0498690735617 L 466.6666666666667 529.7012860771238 L 483.3333333333333 555.736028296958 L 500 581.3798682311088 L 516.6666666666667 604.8852233723194 L 533.3333333333334 624.6502400443505 L 550 639.3279671868163 L 566.6666666666666 647.9181403476058 L 583.3333333333334 649.8353543616327 L 600 644.948954052744 L 616.6666666666667 633.5919389921899 L 633.3333333333333 616.5382722286691 L 650 594.9501311036818 L 666.6666666666666 570.2987141171642 L 683.3333333333334 544.263971901134 L 700 518.6201319572876 L 716.6666666666666 495.11477679354266 L 733.3333333333333 475.34976008767376 L 750 460.67203290237313 L 766.6666666666667 452.0818593901962 L 783.3333333333334 450.16464562698604 L 800 455.05104635258886 L 816.6666666666666 466.40806089890765 L 833.3333333333334 483.46172873558606 L 850 505.0498687190749 L 866.6666666666667 529.7012871476418 L 883.3333333333333 555.736027900774 L 900 581.3798692691655 L 916.6666666666666 604.8852230405953 L 933.3333333333334 624.6502407717993 L 950 639.3279670084374 L 966.6666666666666 647.9181405695274 L 983.3333333333333 649.8353543843954 L 1000 644.9489537096747" stroke="#0EA5E9" stroke-width="2" fill="none" opacity="0.5"/>
    <text x="500" y="960" font-family="system-ui, sans-serif" font-size="36" font-weight="700" fill="white" text-anchor="middle" opacity="0.85">prism</text>
  </svg>