<svg xmlns="http://www.w3.org/2000/svg" viewBox="0 0 1000 1000" width="1000" height="1000">
    <defs>
      <linearGradient id="g374" x1="0" y1="0" x2="1" y2="1">
        <stop offset="0%" stop-color="#10B981"/>
        <stop offset="100%" stop-color="#14B8A6"/>
      </linearGradient>
      <radialGradient id="glow374" cx="50%" cy="50%" r="60%">
        <stop offset="0%" stop-color="#6EE7B7" stop-opacity="0.2"/>
        <stop offset="100%" stop-color="#6EE7B7" stop-opacity="0"/>
      </radialGradient>
    </defs>
    <rect width="1000" height="1000" fill="#030712"/>
    <rect width="1000" height="1000" fill="url(#glow374)"/>
    <rect x="7.5" y="361.75" width="35" height="276.5" fill="#14B8A6" opacity="0.7236" rx="4"/><rect x="57.5" y="273.5" width="35" height="453" fill="#10B981" opacity="0.3354" rx="4"/><rect x="107.5" y="435.25" width="35" height="129.5" fill="#14B8A6" opacity="0.5471999999999999" rx="4"/><rect x="157.5" y="347" width="35" height="306" fill="#10B981" opacity="0.7589999999999999" rx="4"/><rect x="207.5" y="258.75" width="35" height="482.5" fill="#14B8A6" opacity="0.37079999999999996" rx="4"/><rect x="257.5" y="420.5" width="35" height="159" fill="#10B981" opacity="0.5826" rx="4"/><rect x="307.5" y="332.25" width="35" height="335.5" fill="#14B8A6" opacity="0.7944" rx="4"/><rect x="357.5" y="244" width="35" height="512" fill="#10B981" opacity="0.4062" rx="4"/><rect x="407.5" y="405.75" width="35" height="188.5" fill="#14B8A6" opacity="0.618" rx="4"/><rect x="457.5" y="317.5" width="35" height="365" fill="#10B981" opacity="0.8297999999999999" rx="4"/><rect x="507.5" y="229.25" width="35" height="541.5" fill="#14B8A6" opacity="0.4416" rx="4"/><rect x="557.5" y="391" width="35" height="218" fill="#10B981" opacity="0.6534" rx="4"/><rect x="607.5" y="302.75" width="35" height="394.5" fill="#14B8A6" opacity="0.8652" rx="4"/><rect x="657.5" y="214.5" width="35" height="571" fill="#10B981" opacity="0.477" rx="4"/><rect x="707.5" y="376.25" width="35" height="247.5" fill="#14B8A6" opacity="0.6888" rx="4"/><rect x="757.5" y="288" width="35" height="424" fill="#10B981" opacity="0.3006" rx="4"/><rect x="807.5" y="449.75" width="35" height="100.5" fill="#14B8A6" opacity="0.5124" rx="4"/><rect x="857.5" y="361.5" width="35" height="277" fill="#10B981" opacity="0.7242" rx="4"/><rect x="907.5" y="273.25" width="35" height="453.5" fill="#14B8A6" opacity="0.33599999999999997" rx="4"/><rect x="957.5" y="435" width="35" height="130" fill="#10B981" opacity="0.5478" rx="4"/>
    <text x="500" y="960" font-family="system-ui, sans-serif" font-size="36" font-weight="700" fill="white" text-anchor="middle" opacity="0.85">pulse</text>
  </svg>