<svg xmlns="http://www.w3.org/2000/svg" viewBox="0 0 1000 1000" width="1000" height="1000">
    <defs>
      <linearGradient id="g376" x1="0" y1="0" x2="1" y2="1">
        <stop offset="0%" stop-color="#EC4899"/>
        <stop offset="100%" stop-color="#F43F5E"/>
      </linearGradient>
      <radialGradient id="glow376" cx="50%" cy="50%" r="60%">
        <stop offset="0%" stop-color="#F9A8D4" stop-opacity="0.2"/>
        <stop offset="100%" stop-color="#F9A8D4" stop-opacity="0"/>
      </radialGradient>
    </defs>
    <rect width="1000" height="1000" fill="#030712"/>
    <rect width="1000" height="1000" fill="url(#glow376)"/>
    <circle cx="484.53042004667725" cy="311.03214004474796" r="3.6879999999999997" fill="#8B5CF6" opacity="0.8688"/><circle cx="416.723706308856" cy="513.7265767424482" r="9.584" fill="#EC4899" opacity="0.7110000000000001"/><circle cx="591.9936283176186" cy="867.8720053890481" r="7.48" fill="#F43F5E" opacity="0.5531999999999999"/><circle cx="759.5049355685599" cy="412.0614509128245" r="5.3759999999999994" fill="#8B5CF6" opacity="0.3954"/><circle cx="432.9614360608491" cy="345.083019184544" r="3.2720000000000002" fill="#F43F5E" opacity="0.8375999999999999"/><circle cx="443.886277998737" cy="529.9367700857151" r="9.168" fill="#EC4899" opacity="0.6798"/><circle cx="693.9378567622723" cy="801.3945382956638" r="7.064" fill="#8B5CF6" opacity="0.522"/><circle cx="701.0383689376318" cy="346.07204862372583" r="4.96" fill="#EC4899" opacity="0.36419999999999997"/><circle cx="400.73853467256544" cy="390.2222176346666" r="2.856" fill="#F43F5E" opacity="0.8064"/><circle cx="470.7013838662521" cy="531.1998572536364" r="8.751999999999999" fill="#8B5CF6" opacity="0.6486"/><circle cx="764.1351376506561" cy="710.2531546927868" r="6.648" fill="#F43F5E" opacity="0.4908"/><circle cx="629.4178932718548" cy="306.9695130268931" r="4.5440000000000005" fill="#EC4899" opacity="0.33299999999999996"/><circle cx="388.92101574817815" cy="438.0217840077378" r="2.44" fill="#8B5CF6" opacity="0.7752"/><circle cx="490.88373721814776" cy="520.0223313550699" r="8.336" fill="#EC4899" opacity="0.6174"/><circle cx="798.0710276046987" cy="607.3121731337083" r="6.232" fill="#F43F5E" opacity="0.4596"/><circle cx="555.1940627309423" cy="295.72524522287927" r="4.128" fill="#8B5CF6" opacity="0.3018"/><circle cx="395.3614301884969" cy="480.7197067500726" r="2.024" fill="#F43F5E" opacity="0.744"/><circle cx="499.87956594217854" cy="501.19394122037755" r="7.92" fill="#EC4899" opacity="0.5861999999999999"/><circle cx="795.9474163047195" cy="505.5791381557608" r="5.816" fill="#8B5CF6" opacity="0.4284"/><circle cx="488.01956887380703" cy="309.5765002158858" r="3.7119999999999997" fill="#EC4899" opacity="0.8706"/><circle cx="415.2922842476131" cy="512.3273229864728" r="9.608" fill="#F43F5E" opacity="0.7127999999999999"/><circle cx="585.3125974651446" cy="870.7100224080139" r="7.504" fill="#8B5CF6" opacity="0.5549999999999999"/><circle cx="762.2599147855385" cy="416.60469379706046" r="5.4" fill="#F43F5E" opacity="0.3972"/><circle cx="435.43755376129366" cy="342.73687483814217" r="3.2960000000000003" fill="#EC4899" opacity="0.8393999999999999"/><circle cx="442.26277723259375" cy="529.4185843831226" r="9.192" fill="#8B5CF6" opacity="0.6816"/><circle cx="688.8527969340819" cy="806.0176156533712" r="7.088" fill="#EC4899" opacity="0.5238"/><circle cx="704.8703261249094" cy="349.1772249510266" r="4.984" fill="#F43F5E" opacity="0.366"/><circle cx="402.0374052416589" cy="387.4656939941733" r="2.88" fill="#8B5CF6" opacity="0.8082"/><circle cx="469.2807215642872" cy="531.5012052529606" r="8.776" fill="#F43F5E" opacity="0.6504"/><circle cx="761.0498866524374" cy="715.9592477268561" r="6.672" fill="#EC4899" opacity="0.4926"/><circle cx="633.7201445388964" cy="308.45918726157436" r="4.568" fill="#8B5CF6" opacity="0.3348"/><circle cx="389.0722332324399" cy="435.33478090996834" r="2.464" fill="#EC4899" opacity="0.7769999999999999"/><circle cx="489.9902197402017" cy="520.9295078573423" r="8.36" fill="#F43F5E" opacity="0.6192"/><circle cx="797.1166037012026" cy="613.3389774308138" r="6.256" fill="#8B5CF6" opacity="0.46140000000000003"/><circle cx="559.369307365148" cy="295.6495036879465" r="4.152" fill="#F43F5E" opacity="0.3036"/><circle cx="394.56759636345504" cy="478.5112060966498" r="2.048" fill="#EC4899" opacity="0.7458"/><circle cx="499.71416681577233" cy="502.3829182509676" r="7.944" fill="#8B5CF6" opacity="0.588"/><circle cx="796.9888312687831" cy="511.20152228950457" r="5.84" fill="#EC4899" opacity="0.43019999999999997"/><circle cx="491.5581212829699" cy="308.18567654180004" r="3.7359999999999998" fill="#F43F5E" opacity="0.8723999999999998"/><circle cx="413.8844439259033" cy="510.8789246733816" r="9.632" fill="#8B5CF6" opacity="0.7145999999999999"/><circle cx="578.5571715065867" cy="873.4264730906001" r="7.528" fill="#F43F5E" opacity="0.5568"/><circle cx="764.9354224844026" cy="421.22067585329836" r="5.4239999999999995" fill="#EC4899" opacity="0.399"/><circle cx="437.9784572201818" cy="340.4294255471543" r="3.3200000000000003" fill="#8B5CF6" opacity="0.8412"/><circle cx="440.6392533966195" cy="528.8496405989615" r="9.216000000000001" fill="#EC4899" opacity="0.6834"/><circle cx="683.6621428027339" cy="810.5557233430229" r="7.112" fill="#F43F5E" opacity="0.5256"/><circle cx="708.6563124833121" cy="352.3724170052684" r="5.008" fill="#8B5CF6" opacity="0.3678"/><circle cx="403.4052009622417" cy="384.71945177587384" r="2.904" fill="#F43F5E" opacity="0.81"/><circle cx="467.8385873901403" cy="531.759778634908" r="8.8" fill="#EC4899" opacity="0.6521999999999999"/><circle cx="757.8430511981654" cy="721.6234666022988" r="6.696" fill="#8B5CF6" opacity="0.49439999999999995"/><circle cx="638.0119772382726" cy="310.0428097207623" r="4.5920000000000005" fill="#EC4899" opacity="0.3366"/><circle cx="389.28564485177134" cy="432.6316723963561" r="2.488" fill="#F43F5E" opacity="0.7787999999999999"/><circle cx="489.0594495274032" cy="521.8097307492908" r="8.384" fill="#8B5CF6" opacity="0.621"/><circle cx="796.0404929444239" cy="619.3677784715059" r="6.28" fill="#F43F5E" opacity="0.4632"/><circle cx="563.5668984574854" cy="295.65898742421837" r="4.176" fill="#EC4899" opacity="0.3054"/><circle cx="393.82025630106426" cy="476.26601533605617" r="2.072" fill="#8B5CF6" opacity="0.7476"/><circle cx="499.5039549535353" cy="503.56566113250796" r="7.968" fill="#EC4899" opacity="0.5898"/><circle cx="797.9230225525182" cy="516.8651306894361" r="5.864" fill="#F43F5E" opacity="0.432"/><circle cx="495.1448655603471" cy="306.86101463046646" r="3.76" fill="#8B5CF6" opacity="0.8741999999999999"/><circle cx="412.5015304450641" cy="509.38178157622286" r="9.655999999999999" fill="#F43F5E" opacity="0.7163999999999999"/><circle cx="571.7295672234154" cy="876.019559578942" r="7.552" fill="#EC4899" opacity="0.5586"/><circle cx="767.5296930933066" cy="425.9080077646637" r="5.448" fill="#8B5CF6" opacity="0.4008"/><circle cx="440.5835600447132" cy="338.1622829404721" r="3.3440000000000003" fill="#EC4899" opacity="0.843"/><circle cx="439.0170466708369" cy="528.2297609492734" r="9.24" fill="#F43F5E" opacity="0.6852"/><circle cx="678.3672976404815" cy="815.0065191903683" r="7.136" fill="#8B5CF6" opacity="0.5274"/><circle cx="712.3942914737074" cy="355.65698856757274" r="5.032" fill="#F43F5E" opacity="0.3696"/><circle cx="404.8419896283298" cy="381.9851150824392" r="2.928" fill="#EC4899" opacity="0.8117999999999999"/><circle cx="466.376094759321" cy="531.974880709173" r="8.824" fill="#8B5CF6" opacity="0.6539999999999999"/><circle cx="754.5151188187309" cy="727.2432491685666" r="6.72" fill="#EC4899" opacity="0.4962"/><circle cx="642.2913718386097" cy="311.7205122688972" r="4.616" fill="#F43F5E" opacity="0.3384"/><circle cx="389.5619073443364" cy="429.91385521674727" r="2.512" fill="#8B5CF6" opacity="0.7806"/><circle cx="488.09213240121704" cy="522.6619215701108" r="8.408000000000001" fill="#F43F5E" opacity="0.6228"/><circle cx="794.8422838960249" cy="625.3961228546397" r="6.304" fill="#EC4899" opacity="0.46499999999999997"/><circle cx="567.7850990298217" cy="295.7545095980886" r="4.2" fill="#8B5CF6" opacity="0.3072"/><circle cx="393.12050937938585" cy="473.98511032739026" r="2.096" fill="#EC4899" opacity="0.7494"/><circle cx="499.2491145678069" cy="504.74090403485667" r="7.992" fill="#F43F5E" opacity="0.5915999999999999"/><circle cx="798.74880651808" cy="522.5679109361687" r="5.888" fill="#8B5CF6" opacity="0.43379999999999996"/><circle cx="498.7785568130954" cy="305.60383728956697" r="3.784" fill="#F43F5E" opacity="0.8759999999999999"/><circle cx="411.144882064429" cy="507.8363267323263" r="9.68" fill="#EC4899" opacity="0.7182"/><circle cx="564.8320427696898" cy="878.4875245372152" r="7.576" fill="#8B5CF6" opacity="0.5604"/><circle cx="770.0409853226622" cy="430.66525945843836" r="5.4719999999999995" fill="#EC4899" opacity="0.4026"/><circle cx="443.2522380519019" cy="335.93705014878594" r="3.3680000000000003" fill="#F43F5E" opacity="0.8448"/><circle cx="437.39750379272925" cy="527.5588002028145" r="9.264" fill="#8B5CF6" opacity="0.687"/><circle cx="672.9697155721955" cy="819.36768386121" r="7.16" fill="#F43F5E" opacity="0.5292"/><circle cx="716.0822343308726" cy="359.0302585425586" r="5.056" fill="#EC4899" opacity="0.37139999999999995"/><circle cx="406.3478022018252" cy="379.2643141089945" r="2.952" fill="#8B5CF6" opacity="0.8135999999999999"/><circle cx="464.8943756137509" cy="532.1458416665607" r="8.847999999999999" fill="#EC4899" opacity="0.6557999999999999"/><circle cx="751.0666305466045" cy="732.8160368745563" r="6.744" fill="#F43F5E" opacity="0.498"/><circle cx="646.5563002250274" cy="313.49238389719403" r="4.640000000000001" fill="#8B5CF6" opacity="0.3402"/><circle cx="389.90164676306136" cy="427.18274507704723" r="2.536" fill="#F43F5E" opacity="0.7824"/><circle cx="487.08900153407404" cy="523.4850190251756" r="8.432" fill="#EC4899" opacity="0.6246"/><circle cx="793.5216145089664" cy="631.4215424352099" r="6.328" fill="#8B5CF6" opacity="0.4668"/><circle cx="572.0221494347743" cy="295.93684803278416" r="4.224" fill="#EC4899" opacity="0.309"/><circle cx="392.4694345608172" cy="471.66949530400785" r="2.12" fill="#F43F5E" opacity="0.7512"/><circle cx="498.94986164614835" cy="505.9073860071752" r="8.016" fill="#8B5CF6" opacity="0.5933999999999999"/><circle cx="799.4650389526064" cy="528.3077806462092" r="5.912" fill="#F43F5E" opacity="0.4356"/><circle cx="502.45791740118375" cy="304.4154437537336" r="3.808" fill="#EC4899" opacity="0.8777999999999999"/><circle cx="409.81582942494526" cy="506.24302632458233" r="9.704" fill="#8B5CF6" opacity="0.72"/><circle cx="557.8668969293157" cy="880.8286520730445" r="7.6" fill="#EC4899" opacity="0.5622"/><circle cx="772.4675830749954" cy="435.4909605305544" r="5.496" fill="#F43F5E" opacity="0.4044"/><circle cx="445.98382938325915" cy="333.75532095160713" r="3.392" fill="#8B5CF6" opacity="0.8466"/>
    <text x="500" y="960" font-family="system-ui, sans-serif" font-size="36" font-weight="700" fill="white" text-anchor="middle" opacity="0.85">book</text>
  </svg>