<svg xmlns="http://www.w3.org/2000/svg" viewBox="0 0 1000 1000" width="1000" height="1000">
    <defs>
      <linearGradient id="g378" x1="0" y1="0" x2="1" y2="1">
        <stop offset="0%" stop-color="#6366F1"/>
        <stop offset="100%" stop-color="#8B5CF6"/>
      </linearGradient>
      <radialGradient id="glow378" cx="50%" cy="50%" r="60%">
        <stop offset="0%" stop-color="#A78BFA" stop-opacity="0.2"/>
        <stop offset="100%" stop-color="#A78BFA" stop-opacity="0"/>
      </radialGradient>
    </defs>
    <rect width="1000" height="1000" fill="#030712"/>
    <rect width="1000" height="1000" fill="url(#glow378)"/>
    <rect x="7.5" y="231.75" width="35" height="536.5" fill="#8B5CF6" opacity="0.7476" rx="4"/><rect x="57.5" y="263.5" width="35" height="473" fill="#6366F1" opacity="0.6714" rx="4"/><rect x="107.5" y="295.25" width="35" height="409.5" fill="#8B5CF6" opacity="0.5952" rx="4"/><rect x="157.5" y="327" width="35" height="346" fill="#6366F1" opacity="0.519" rx="4"/><rect x="207.5" y="358.75" width="35" height="282.5" fill="#8B5CF6" opacity="0.44279999999999997" rx="4"/><rect x="257.5" y="390.5" width="35" height="219" fill="#6366F1" opacity="0.3666" rx="4"/><rect x="307.5" y="422.25" width="35" height="155.5" fill="#8B5CF6" opacity="0.8903999999999999" rx="4"/><rect x="357.5" y="204" width="35" height="592" fill="#6366F1" opacity="0.8142" rx="4"/><rect x="407.5" y="235.75" width="35" height="528.5" fill="#8B5CF6" opacity="0.738" rx="4"/><rect x="457.5" y="267.5" width="35" height="465" fill="#6366F1" opacity="0.6617999999999999" rx="4"/><rect x="507.5" y="299.25" width="35" height="401.5" fill="#8B5CF6" opacity="0.5855999999999999" rx="4"/><rect x="557.5" y="331" width="35" height="338" fill="#6366F1" opacity="0.5094" rx="4"/><rect x="607.5" y="362.75" width="35" height="274.5" fill="#8B5CF6" opacity="0.4332" rx="4"/><rect x="657.5" y="394.5" width="35" height="211" fill="#6366F1" opacity="0.357" rx="4"/><rect x="707.5" y="426.25" width="35" height="147.5" fill="#8B5CF6" opacity="0.8808" rx="4"/><rect x="757.5" y="208" width="35" height="584" fill="#6366F1" opacity="0.8046" rx="4"/><rect x="807.5" y="239.75" width="35" height="520.5" fill="#8B5CF6" opacity="0.7283999999999999" rx="4"/><rect x="857.5" y="271.5" width="35" height="457" fill="#6366F1" opacity="0.6521999999999999" rx="4"/><rect x="907.5" y="303.25" width="35" height="393.5" fill="#8B5CF6" opacity="0.5760000000000001" rx="4"/><rect x="957.5" y="335" width="35" height="330" fill="#6366F1" opacity="0.4998" rx="4"/>
    <text x="500" y="960" font-family="system-ui, sans-serif" font-size="36" font-weight="700" fill="white" text-anchor="middle" opacity="0.85">pen</text>
  </svg>