<svg xmlns="http://www.w3.org/2000/svg" viewBox="0 0 1000 1000" width="1000" height="1000">
    <defs>
      <linearGradient id="g379" x1="0" y1="0" x2="1" y2="1">
        <stop offset="0%" stop-color="#06B6D4"/>
        <stop offset="100%" stop-color="#0EA5E9"/>
      </linearGradient>
      <radialGradient id="glow379" cx="50%" cy="50%" r="60%">
        <stop offset="0%" stop-color="#67E8F9" stop-opacity="0.2"/>
        <stop offset="100%" stop-color="#67E8F9" stop-opacity="0"/>
      </radialGradient>
    </defs>
    <rect width="1000" height="1000" fill="#030712"/>
    <rect width="1000" height="1000" fill="url(#glow379)"/>
    <circle cx="557.6833652446985" cy="638.0318418845692" r="6.488" fill="#6366F1" opacity="0.7487999999999999"/><circle cx="342.32534677713824" cy="659.6686059657636" r="7.984" fill="#06B6D4" opacity="0.861"/><circle cx="222.50841012226937" cy="388.1114056432501" r="9.48" fill="#0EA5E9" opacity="0.3732"/><circle cx="495.30030108362604" cy="126.02952946777276" r="2.976" fill="#6366F1" opacity="0.48539999999999994"/><circle cx="544.7864257333783" cy="480.61918293702274" r="4.4719999999999995" fill="#0EA5E9" opacity="0.5975999999999999"/><circle cx="589.0301954761453" cy="585.7355485984626" r="5.968" fill="#06B6D4" opacity="0.7098"/><circle cx="428.1245672458181" cy="684.922908711709" r="7.464" fill="#6366F1" opacity="0.8220000000000001"/><circle cx="226.88627948780243" cy="506.8655420751199" r="8.96" fill="#06B6D4" opacity="0.3342"/><circle cx="357.79012199175065" cy="182.38332758358098" r="2.456" fill="#0EA5E9" opacity="0.4464"/><circle cx="515.6076740151741" cy="483.3795152947918" r="3.952" fill="#6366F1" opacity="0.5586"/><circle cx="591.4072689466236" cy="534.2121496506669" r="5.448" fill="#0EA5E9" opacity="0.6708"/><circle cx="506.49778749229677" cy="672.2775050832375" r="6.944" fill="#06B6D4" opacity="0.7829999999999999"/><circle cx="275.6698502534359" cy="603.8451920633986" r="8.440000000000001" fill="#6366F1" opacity="0.8952"/><circle cx="262.52077621066803" cy="282.54283578503015" r="9.936" fill="#06B6D4" opacity="0.4074"/><circle cx="634.4112067533318" cy="126.6585108789634" r="3.432" fill="#0EA5E9" opacity="0.5196"/><circle cx="571.5095660929909" cy="496.40250681832845" r="4.928" fill="#6366F1" opacity="0.6318"/><circle cx="563.1651650876925" cy="632.0724116515049" r="6.424" fill="#0EA5E9" opacity="0.744"/><circle cx="352.67817492354357" cy="665.002181367829" r="7.92" fill="#06B6D4" opacity="0.8562000000000001"/><circle cx="220.2613297467778" cy="403.241143222137" r="9.416" fill="#6366F1" opacity="0.3684"/><circle cx="476.7172753585307" cy="129.93168909879688" r="2.912" fill="#06B6D4" opacity="0.48059999999999997"/><circle cx="540.8868312774067" cy="479.8102246646261" r="4.4079999999999995" fill="#0EA5E9" opacity="0.5928"/><circle cx="590.8118662406268" cy="579.052924992656" r="5.904" fill="#6366F1" opacity="0.7050000000000001"/><circle cx="438.51463136328454" cy="685.2635675021055" r="7.4" fill="#0EA5E9" opacity="0.8171999999999999"/><circle cx="230.76709692963425" cy="520.3382374925419" r="8.896" fill="#06B6D4" opacity="0.32939999999999997"/><circle cx="343.4640756898042" cy="192.78095045985077" r="2.392" fill="#6366F1" opacity="0.4416"/><circle cx="512.6822968467611" cy="485.0561267841756" r="3.888" fill="#06B6D4" opacity="0.5538"/><circle cx="589.9612498392255" cy="528.6065294533339" r="5.384" fill="#0EA5E9" opacity="0.6659999999999999"/><circle cx="514.8644224563858" cy="668.5458066670247" r="6.88" fill="#6366F1" opacity="0.7782"/><circle cx="284.00356003488093" cy="613.4968630508998" r="8.376000000000001" fill="#0EA5E9" opacity="0.8903999999999999"/><circle cx="254.36037820307837" cy="296.7892320681177" r="9.872" fill="#06B6D4" opacity="0.4026"/><circle cx="614.5518352636078" cy="123.43813650644432" r="3.3680000000000003" fill="#6366F1" opacity="0.5147999999999999"/><circle cx="568.0546495615209" cy="493.13525870417686" r="4.864" fill="#06B6D4" opacity="0.627"/><circle cx="568.1973107652489" cy="625.9180956192877" r="6.36" fill="#0EA5E9" opacity="0.7392"/><circle cx="363.1632832386273" cy="669.7047817416111" r="7.856" fill="#6366F1" opacity="0.8513999999999999"/><circle cx="218.82600883379104" cy="418.31140415171365" r="9.352" fill="#0EA5E9" opacity="0.3636"/><circle cx="458.51399292050803" cy="134.7484822528449" r="2.848" fill="#06B6D4" opacity="0.4758"/><circle cx="537.0263280839406" cy="479.34059466924595" r="4.343999999999999" fill="#6366F1" opacity="0.588"/><circle cx="592.1530042464117" cy="572.4131466541871" r="5.84" fill="#06B6D4" opacity="0.7001999999999999"/><circle cx="448.7548180504879" cy="685.0349462316819" r="7.336" fill="#0EA5E9" opacity="0.8124"/><circle cx="235.3037976892973" cy="533.4389067149565" r="8.832" fill="#6366F1" opacity="0.3246"/><circle cx="329.81996801603003" cy="203.80864848221017" r="2.328" fill="#0EA5E9" opacity="0.43679999999999997"/><circle cx="509.97005688219156" cy="486.9785574621755" r="3.824" fill="#06B6D4" opacity="0.5489999999999999"/><circle cx="588.1905356839341" cy="523.2350901823245" r="5.32" fill="#6366F1" opacity="0.6612"/><circle cx="522.8731882536499" cy="664.4165966656441" r="6.816" fill="#06B6D4" opacity="0.7734"/><circle cx="292.73331989745043" cy="622.5771729126894" r="8.312000000000001" fill="#0EA5E9" opacity="0.8855999999999999"/><circle cx="247.02545957475124" cy="311.3011873470472" r="9.808" fill="#6366F1" opacity="0.3978"/><circle cx="594.7107397025269" cy="121.26257673026265" r="3.3040000000000003" fill="#0EA5E9" opacity="0.51"/><circle cx="564.460093756912" cy="490.2052915893266" r="4.8" fill="#06B6D4" opacity="0.6222"/><circle cx="572.7744279668993" cy="619.5988404379013" r="6.296" fill="#6366F1" opacity="0.7343999999999999"/><circle cx="373.74372780757676" cy="673.7768503917387" r="7.792" fill="#06B6D4" opacity="0.8466"/><circle cx="218.1906712195762" cy="433.27922203445934" r="9.288" fill="#0EA5E9" opacity="0.3588"/><circle cx="440.73501700298414" cy="140.4516419306529" r="2.784" fill="#6366F1" opacity="0.471"/><circle cx="533.2289750945353" cy="479.20396157517604" r="4.279999999999999" fill="#0EA5E9" opacity="0.5831999999999999"/><circle cx="593.062674581759" cy="565.8432881901385" r="5.776" fill="#06B6D4" opacity="0.6954"/><circle cx="458.81455602433283" cy="684.2530846540355" r="7.272" fill="#6366F1" opacity="0.8075999999999999"/><circle cx="240.46884141810148" cy="546.1360783458829" r="8.768" fill="#06B6D4" opacity="0.3198"/><circle cx="316.88456828026517" cy="215.4243533502996" r="2.2640000000000002" fill="#0EA5E9" opacity="0.432"/><circle cx="507.4879501284732" cy="489.1293697113048" r="3.76" fill="#6366F1" opacity="0.5442"/><circle cx="586.1151195806416" cy="518.1159095717495" r="5.256" fill="#0EA5E9" opacity="0.6564"/><circle cx="530.505678014556" cy="659.9163644186305" r="6.752" fill="#06B6D4" opacity="0.7686"/><circle cx="301.8229641735105" cy="631.0710588613151" r="8.248000000000001" fill="#6366F1" opacity="0.8808"/><circle cx="240.521841091228" cy="326.03205740909016" r="9.744" fill="#06B6D4" opacity="0.393"/><circle cx="574.9423540292931" cy="120.12175164594106" r="3.24" fill="#0EA5E9" opacity="0.5052"/><circle cx="560.7510132478233" cy="487.61798120810676" r="4.736000000000001" fill="#6366F1" opacity="0.6174"/><circle cx="576.8930060901714" cy="613.1446225607601" r="6.232" fill="#0EA5E9" opacity="0.7296"/><circle cx="384.3829562310287" cy="677.2209332729173" r="7.728" fill="#06B6D4" opacity="0.8417999999999999"/><circle cx="218.3412932893376" cy="448.10266929718784" r="9.224" fill="#6366F1" opacity="0.354"/><circle cx="423.4230318961538" cy="147.01075376716858" r="2.7199999999999998" fill="#06B6D4" opacity="0.4662"/><circle cx="529.5182759357162" cy="479.3924434785947" r="4.216" fill="#0EA5E9" opacity="0.5784"/><circle cx="593.5515341456232" cy="559.3696088836729" r="5.712" fill="#6366F1" opacity="0.6906"/><circle cx="468.66451266131656" cy="682.9356368596541" r="7.208" fill="#0EA5E9" opacity="0.8028"/><circle cx="246.23320232637525" cy="558.4001061512188" r="8.704" fill="#06B6D4" opacity="0.315"/><circle cx="304.6821512150934" cy="227.58491608202684" r="2.2" fill="#6366F1" opacity="0.42719999999999997"/><circle cx="505.25174629961293" cy="491.4900551820531" r="3.6959999999999997" fill="#06B6D4" opacity="0.5394"/><circle cx="583.7559712824677" cy="513.2656426354116" r="5.192" fill="#0EA5E9" opacity="0.6516"/><circle cx="537.7452399249864" cy="655.0724245731819" r="6.688" fill="#6366F1" opacity="0.7638"/><circle cx="311.2358315893131" cy="638.9656386457523" r="8.184000000000001" fill="#0EA5E9" opacity="0.8759999999999999"/><circle cx="234.85275790492267" cy="340.93529615475836" r="9.68" fill="#06B6D4" opacity="0.3882"/><circle cx="555.3001405000647" cy="120.00277045658197" r="3.176" fill="#6366F1" opacity="0.5004"/><circle cx="556.9526898743635" cy="485.3770346347065" r="4.672000000000001" fill="#06B6D4" opacity="0.6126"/><circle cx="580.5513867696537" cy="606.585337122353" r="6.168" fill="#0EA5E9" opacity="0.7247999999999999"/><circle cx="395.0449247791074" cy="680.0416401429869" r="7.664" fill="#6366F1" opacity="0.837"/><circle cx="219.26167888111576" cy="462.74097350506554" r="9.16" fill="#0EA5E9" opacity="0.3492"/><circle cx="406.6187407482167" cy="154.39337329768802" r="2.656" fill="#06B6D4" opacity="0.46140000000000003"/><circle cx="525.9170844059227" cy="479.8966486401824" r="4.152" fill="#6366F1" opacity="0.5736"/><circle cx="593.6317720024409" cy="553.0174619505962" r="5.648" fill="#06B6D4" opacity="0.6858"/><circle cx="478.27667799869573" cy="681.1017870735341" r="7.144" fill="#0EA5E9" opacity="0.7979999999999999"/><circle cx="252.5664828680587" cy="570.203237815056" r="8.64" fill="#6366F1" opacity="0.3102"/><circle cx="293.2344568779466" cy="240.24625088857277" r="2.136" fill="#0EA5E9" opacity="0.4224"/><circle cx="503.2759249838917" cy="494.0411145757017" r="3.6319999999999997" fill="#06B6D4" opacity="0.5346"/><circle cx="581.1349444963951" cy="508.6994701888612" r="5.128" fill="#6366F1" opacity="0.6467999999999999"/><circle cx="544.5770126503043" cy="649.9128078023176" r="6.624" fill="#06B6D4" opacity="0.7589999999999999"/><circle cx="320.93489248205276" cy="646.2502214343144" r="8.120000000000001" fill="#0EA5E9" opacity="0.8712"/><circle cx="230.01888471090422" cy="355.96459675740834" r="9.616" fill="#6366F1" opacity="0.38339999999999996"/><circle cx="535.8364457116903" cy="120.89000387914717" r="3.112" fill="#0EA5E9" opacity="0.4956"/><circle cx="553.0904686879134" cy="483.48448806431685" r="4.6080000000000005" fill="#06B6D4" opacity="0.6078"/><circle cx="583.7497459742266" cy="599.9506880879392" r="6.104" fill="#6366F1" opacity="0.72"/><circle cx="405.6942126004707" cy="682.2455992965394" r="7.6" fill="#06B6D4" opacity="0.8322"/><circle cx="220.93354015047163" cy="477.15462876091584" r="9.096" fill="#0EA5E9" opacity="0.3444"/><circle cx="390.3607703957686" cy="162.56514801847953" r="2.592" fill="#6366F1" opacity="0.4566"/>
    <text x="500" y="960" font-family="system-ui, sans-serif" font-size="36" font-weight="700" fill="white" text-anchor="middle" opacity="0.85">notebook</text>
  </svg>