<svg xmlns="http://www.w3.org/2000/svg" viewBox="0 0 1000 1000" width="1000" height="1000">
    <defs>
      <linearGradient id="g382" x1="0" y1="0" x2="1" y2="1">
        <stop offset="0%" stop-color="#EC4899"/>
        <stop offset="100%" stop-color="#F43F5E"/>
      </linearGradient>
      <radialGradient id="glow382" cx="50%" cy="50%" r="60%">
        <stop offset="0%" stop-color="#F9A8D4" stop-opacity="0.2"/>
        <stop offset="100%" stop-color="#F9A8D4" stop-opacity="0"/>
      </radialGradient>
    </defs>
    <rect width="1000" height="1000" fill="#030712"/>
    <rect width="1000" height="1000" fill="url(#glow382)"/>
    <circle cx="378.3164779749369" cy="731.5765110445703" r="9.847999999999999" fill="#8B5CF6" opacity="0.4848"/><circle cx="277.40366436266083" cy="176.8458086906051" r="4.464" fill="#EC4899" opacity="0.681"/><circle cx="622.3231368830011" cy="485.32722987631206" r="7.08" fill="#F43F5E" opacity="0.8772"/><circle cx="409.47138280683436" cy="737.3195513839795" r="9.696" fill="#8B5CF6" opacity="0.47339999999999993"/><circle cx="245.52719422345874" cy="211.3572604061992" r="4.311999999999999" fill="#F43F5E" opacity="0.6696"/><circle cx="612.3206283249363" cy="472.66071594405736" r="6.928" fill="#EC4899" opacity="0.8657999999999999"/><circle cx="440.22354953201165" cy="739.0391933751621" r="9.544" fill="#8B5CF6" opacity="0.46199999999999997"/><circle cx="218.6309999459985" cy="248.78032360380035" r="4.16" fill="#EC4899" opacity="0.6581999999999999"/><circle cx="601.1473877688047" cy="462.142293419344" r="6.776" fill="#F43F5E" opacity="0.8544"/><circle cx="470.0704238248441" cy="736.9169906738973" r="9.392" fill="#8B5CF6" opacity="0.4506"/><circle cx="196.94570039331273" cy="288.42908638023926" r="4.008" fill="#F43F5E" opacity="0.6467999999999999"/><circle cx="589.1688994608799" cy="453.8581819936026" r="6.624" fill="#EC4899" opacity="0.843"/><circle cx="498.54733711516275" cy="731.1954363099389" r="9.24" fill="#8B5CF6" opacity="0.4392"/><circle cx="180.61057603054684" cy="329.6051765561498" r="3.856" fill="#EC4899" opacity="0.6354"/><circle cx="576.7530772926793" cy="447.8386625353222" r="6.472" fill="#F43F5E" opacity="0.8315999999999999"/><circle cx="525.2346876577105" cy="722.1714890322739" r="9.088000000000001" fill="#8B5CF6" opacity="0.42779999999999996"/><circle cx="169.6739977448101" cy="371.6096100399089" r="3.7039999999999997" fill="#F43F5E" opacity="0.624"/><circle cx="564.262217638716" cy="444.0588936098481" r="6.32" fill="#EC4899" opacity="0.8202"/><circle cx="549.7641161621435" cy="710.1892783721394" r="8.936" fill="#8B5CF6" opacity="0.4164"/><circle cx="164.09535972059075" cy="413.75434713122826" r="3.552" fill="#EC4899" opacity="0.6126"/><circle cx="552.0452007392495" cy="442.4408384354738" r="6.168" fill="#F43F5E" opacity="0.8088"/><circle cx="571.8235851895694" cy="695.6321359350674" r="8.783999999999999" fill="#8B5CF6" opacity="0.40499999999999997"/><circle cx="163.7484515412234" cy="455.3733693958977" r="3.4" fill="#F43F5E" opacity="0.6012"/><circle cx="540.4300892395587" cy="442.8562524497971" r="6.016" fill="#EC4899" opacity="0.7973999999999999"/><circle cx="591.161292347701" cy="678.9141100570242" r="8.632" fill="#8B5CF6" opacity="0.3936"/><circle cx="168.4261817420146" cy="495.8331011746803" r="3.248" fill="#EC4899" opacity="0.5898"/><circle cx="529.7172639088793" cy="445.13066224410926" r="5.864" fill="#F43F5E" opacity="0.786"/><circle cx="607.5883691055179" cy="660.471127724631" r="8.48" fill="#8B5CF6" opacity="0.3822"/><circle cx="177.84654391137235" cy="534.5420139851842" r="3.096" fill="#F43F5E" opacity="0.5784"/><circle cx="520.1732254871204" cy="449.0482485733238" r="5.712" fill="#EC4899" opacity="0.7746"/><circle cx="620.9803394158431" cy="640.7519714775868" r="8.328" fill="#8B5CF6" opacity="0.37079999999999996"/><circle cx="191.65969745032692" cy="570.9592687643842" r="2.944" fill="#EC4899" opacity="0.567"/><circle cx="512.0251782522556" cy="454.3575297776131" r="5.5600000000000005" fill="#F43F5E" opacity="0.7632"/><circle cx="631.2773348897549" cy="620.2092398455424" r="8.176" fill="#8B5CF6" opacity="0.3594"/><circle cx="209.45601854693518" cy="604.602269771746" r="2.792" fill="#F43F5E" opacity="0.5556"/><circle cx="505.45649551111165" cy="460.7777275424126" r="5.4079999999999995" fill="#EC4899" opacity="0.7518"/><circle cx="638.4830856193992" cy="599.2904577355254" r="8.024000000000001" fill="#8B5CF6" opacity="0.348"/><circle cx="230.77496304563937" cy="635.0530246863177" r="2.64" fill="#EC4899" opacity="0.5442"/><circle cx="500.60315007089304" cy="468.0056847238141" r="5.256" fill="#F43F5E" opacity="0.7404"/><circle cx="642.6627275111409" cy="578.4294981437592" r="7.872" fill="#8B5CF6" opacity="0.3366"/><circle cx="255.11457189117294" cy="661.9632276165072" r="2.488" fill="#F43F5E" opacity="0.5327999999999999"/><circle cx="497.5511741576303" cy="475.72319518565627" r="5.104" fill="#EC4899" opacity="0.729"/><circle cx="643.9394877975394" cy="558.0384687305067" r="7.72" fill="#8B5CF6" opacity="0.3252"/><circle cx="281.9414418507259" cy="685.0580050088611" r="2.336" fill="#EC4899" opacity="0.5214"/><circle cx="496.3351935445381" cy="483.60459839942905" r="4.952" fill="#F43F5E" opacity="0.7176"/><circle cx="642.4903298917912" cy="538.5002063283888" r="7.568" fill="#8B5CF6" opacity="0.31379999999999997"/><circle cx="310.70097936367847" cy="704.1382883883607" r="2.184" fill="#F43F5E" opacity="0.51"/><circle cx="496.9380601903885" cy="491.3244870697857" r="4.8" fill="#EC4899" opacity="0.7061999999999999"/><circle cx="638.5406566043712" cy="520.1615095573153" r="7.416" fill="#8B5CF6" opacity="0.3024"/><circle cx="340.8277536791983" cy="719.0818020767358" r="2.032" fill="#EC4899" opacity="0.4986"/><circle cx="499.29158683033774" cy="498.56537434114364" r="4.648" fill="#F43F5E" opacity="0.6948"/><circle cx="632.3581866611089" cy="503.3272246366979" r="7.264" fill="#8B5CF6" opacity="0.891"/><circle cx="371.7557669090925" cy="729.8426781059709" r="9.879999999999999" fill="#F43F5E" opacity="0.48719999999999997"/><circle cx="284.7206273866981" cy="170.01395222339607" r="4.496" fill="#EC4899" opacity="0.6834"/><circle cx="624.2461331824644" cy="488.25528249784935" r="7.112" fill="#8B5CF6" opacity="0.8795999999999999"/><circle cx="402.9284631846277" cy="736.4497340668875" r="9.728" fill="#EC4899" opacity="0.4758"/><circle cx="251.83357481256772" cy="203.82710216886733" r="4.343999999999999" fill="#F43F5E" opacity="0.6719999999999999"/><circle cx="614.5358240821922" cy="475.1527667171352" r="6.96" fill="#8B5CF6" opacity="0.8681999999999999"/><circle cx="433.80830664854693" cy="739.0034722159224" r="9.576" fill="#F43F5E" opacity="0.46440000000000003"/><circle cx="223.86668393276932" cy="240.69355627421277" r="4.192" fill="#EC4899" opacity="0.6606"/><circle cx="603.5789130397065" cy="464.1730719498182" r="6.808" fill="#8B5CF6" opacity="0.8568"/><circle cx="463.88576837537" cy="737.6718794349945" r="9.424" fill="#EC4899" opacity="0.45299999999999996"/><circle cx="201.06971282403146" cy="279.9315483562148" r="4.04" fill="#F43F5E" opacity="0.6492"/><circle cx="591.7393356597698" cy="455.4141918016049" r="6.656" fill="#8B5CF6" opacity="0.8453999999999999"/><circle cx="492.6875752866117" cy="732.6851272531424" r="9.272" fill="#F43F5E" opacity="0.4416"/><circle cx="183.60118680216038" cy="320.84433861304126" r="3.888" fill="#EC4899" opacity="0.6377999999999999"/><circle cx="579.3851685689472" cy="448.9181537992229" r="6.504" fill="#8B5CF6" opacity="0.8340000000000001"/><circle cx="519.7840894632274" cy="724.3292887790424" r="9.120000000000001" fill="#EC4899" opacity="0.43019999999999997"/><circle cx="171.52850460623904" cy="362.7320987492469" r="3.7359999999999998" fill="#F43F5E" opacity="0.6264000000000001"/><circle cx="566.8805494729385" cy="444.6715976898137" r="6.352" fill="#8B5CF6" opacity="0.8226"/><circle cx="544.7957036683262" cy="712.9392047812228" r="8.968" fill="#F43F5E" opacity="0.4188"/><circle cx="164.82955921940766" cy="404.9035456657639" r="3.584" fill="#EC4899" opacity="0.615"/><circle cx="554.577813624278" cy="442.6074720891859" r="6.2" fill="#8B5CF6" opacity="0.8111999999999999"/><circle cx="567.398158059514" cy="698.8906440488963" r="8.815999999999999" fill="#EC4899" opacity="0.4074"/><circle cx="163.39581352517706" cy="446.6871343142894" r="3.432" fill="#F43F5E" opacity="0.6035999999999999"/><circle cx="542.8099967869183" cy="442.60780388324525" r="6.048" fill="#8B5CF6" opacity="0.7998"/><circle cx="587.3267036458261" cy="682.5919133761242" r="8.664" fill="#F43F5E" opacity="0.396"/><circle cx="167.03674771615567" cy="487.4416311343779" r="3.2800000000000002" fill="#EC4899" opacity="0.5922"/><circle cx="531.8838467417273" cy="444.50747512547264" r="5.896" fill="#8B5CF6" opacity="0.7884"/><circle cx="604.3790596619085" cy="664.4750798877925" r="8.512" fill="#EC4899" opacity="0.3846"/><circle cx="175.48557383211988" cy="526.5659031265922" r="3.128" fill="#F43F5E" opacity="0.5808"/><circle cx="522.0734748096182" cy="448.0989238085649" r="5.744" fill="#8B5CF6" opacity="0.7769999999999999"/><circle cx="618.4171343101369" cy="644.986972869203" r="8.36" fill="#F43F5E" opacity="0.3732"/><circle cx="188.40609334180948" cy="563.5077738035815" r="2.976" fill="#EC4899" opacity="0.5693999999999999"/><circle cx="513.6147659747144" cy="453.1376681389652" r="5.5920000000000005" fill="#8B5CF6" opacity="0.7656000000000001"/><circle cx="629.3675008698681" cy="624.5801337239798" r="8.208" fill="#EC4899" opacity="0.3618"/><circle cx="205.40055659501257" cy="597.7718157010066" r="2.824" fill="#F43F5E" opacity="0.558"/><circle cx="506.7006512060292" cy="459.34853909863585" r="5.4399999999999995" fill="#8B5CF6" opacity="0.7542"/><circle cx="637.2206436006343" cy="603.7038811705122" r="8.056000000000001" fill="#F43F5E" opacity="0.3504"/><circle cx="226.01836851328932" cy="628.925969485904" r="2.672" fill="#EC4899" opacity="0.5466"/><circle cx="501.47732877548026" cy="466.432493394815" r="5.288" fill="#8B5CF6" opacity="0.7427999999999999"/><circle cx="642.0290097865021" cy="582.795654348919" r="7.904" fill="#EC4899" opacity="0.33899999999999997"/><circle cx="249.7654732676835" cy="656.6069016073479" r="2.52" fill="#F43F5E" opacity="0.5352"/><circle cx="498.04150305627377" cy="474.07386859322406" r="5.136" fill="#8B5CF6" opacity="0.7313999999999999"/><circle cx="643.9039253072483" cy="562.2727892515336" r="7.752" fill="#F43F5E" opacity="0.3276"/><circle cx="276.1142420693241" cy="680.5240355072054" r="2.368" fill="#EC4899" opacity="0.5238"/><circle cx="496.4386897878642" cy="481.94793447904266" r="4.984" fill="#8B5CF6" opacity="0.72"/><circle cx="643.0114509213925" cy="542.5248739605204" r="7.6" fill="#EC4899" opacity="0.3162"/><circle cx="304.51368268182773" cy="700.4622152461128" r="2.216" fill="#F43F5E" opacity="0.5124"/><circle cx="496.66261646075054" cy="489.72858962401233" r="4.832" fill="#8B5CF6" opacity="0.7086"/>
    <text x="500" y="960" font-family="system-ui, sans-serif" font-size="36" font-weight="700" fill="white" text-anchor="middle" opacity="0.85">exam</text>
  </svg>