<svg xmlns="http://www.w3.org/2000/svg" viewBox="0 0 1000 1000" width="1000" height="1000">
    <defs>
      <linearGradient id="g386" x1="0" y1="0" x2="1" y2="1">
        <stop offset="0%" stop-color="#10B981"/>
        <stop offset="100%" stop-color="#14B8A6"/>
      </linearGradient>
      <radialGradient id="glow386" cx="50%" cy="50%" r="60%">
        <stop offset="0%" stop-color="#6EE7B7" stop-opacity="0.2"/>
        <stop offset="100%" stop-color="#6EE7B7" stop-opacity="0"/>
      </radialGradient>
    </defs>
    <rect width="1000" height="1000" fill="#030712"/>
    <rect width="1000" height="1000" fill="url(#glow386)"/>
    <rect x="7.5" y="241.75" width="35" height="516.5" fill="#14B8A6" opacity="0.6996" rx="4"/><rect x="57.5" y="283.5" width="35" height="433" fill="#10B981" opacity="0.5993999999999999" rx="4"/><rect x="107.5" y="325.25" width="35" height="349.5" fill="#14B8A6" opacity="0.4992" rx="4"/><rect x="157.5" y="367" width="35" height="266" fill="#10B981" opacity="0.399" rx="4"/><rect x="207.5" y="408.75" width="35" height="182.5" fill="#14B8A6" opacity="0.8988" rx="4"/><rect x="257.5" y="200.5" width="35" height="599" fill="#10B981" opacity="0.7986" rx="4"/><rect x="307.5" y="242.25" width="35" height="515.5" fill="#14B8A6" opacity="0.6984" rx="4"/><rect x="357.5" y="284" width="35" height="432" fill="#10B981" opacity="0.5982" rx="4"/><rect x="407.5" y="325.75" width="35" height="348.5" fill="#14B8A6" opacity="0.498" rx="4"/><rect x="457.5" y="367.5" width="35" height="265" fill="#10B981" opacity="0.3978" rx="4"/><rect x="507.5" y="409.25" width="35" height="181.5" fill="#14B8A6" opacity="0.8976" rx="4"/><rect x="557.5" y="201" width="35" height="598" fill="#10B981" opacity="0.7973999999999999" rx="4"/><rect x="607.5" y="242.75" width="35" height="514.5" fill="#14B8A6" opacity="0.6972" rx="4"/><rect x="657.5" y="284.5" width="35" height="431" fill="#10B981" opacity="0.597" rx="4"/><rect x="707.5" y="326.25" width="35" height="347.5" fill="#14B8A6" opacity="0.4968" rx="4"/><rect x="757.5" y="368" width="35" height="264" fill="#10B981" opacity="0.3966" rx="4"/><rect x="807.5" y="409.75" width="35" height="180.5" fill="#14B8A6" opacity="0.8963999999999999" rx="4"/><rect x="857.5" y="201.5" width="35" height="597" fill="#10B981" opacity="0.7962" rx="4"/><rect x="907.5" y="243.25" width="35" height="513.5" fill="#14B8A6" opacity="0.696" rx="4"/><rect x="957.5" y="285" width="35" height="430" fill="#10B981" opacity="0.5958" rx="4"/>
    <text x="500" y="960" font-family="system-ui, sans-serif" font-size="36" font-weight="700" fill="white" text-anchor="middle" opacity="0.85">desk</text>
  </svg>