<svg xmlns="http://www.w3.org/2000/svg" viewBox="0 0 1000 1000" width="1000" height="1000">
    <defs>
      <linearGradient id="g392" x1="0" y1="0" x2="1" y2="1">
        <stop offset="0%" stop-color="#10B981"/>
        <stop offset="100%" stop-color="#14B8A6"/>
      </linearGradient>
      <radialGradient id="glow392" cx="50%" cy="50%" r="60%">
        <stop offset="0%" stop-color="#6EE7B7" stop-opacity="0.2"/>
        <stop offset="100%" stop-color="#6EE7B7" stop-opacity="0"/>
      </radialGradient>
    </defs>
    <rect width="1000" height="1000" fill="#030712"/>
    <rect width="1000" height="1000" fill="url(#glow392)"/>
    <circle cx="413.90877096102685" cy="730.0166521853561" r="9.368" fill="#F59E0B" opacity="0.43679999999999997"/><circle cx="222.13379133681929" cy="258.1138075806109" r="3.824" fill="#10B981" opacity="0.621"/><circle cx="580.1936474893787" cy="456.567075825484" r="6.28" fill="#14B8A6" opacity="0.8051999999999999"/><circle cx="529.4871222065125" cy="711.9587450990833" r="8.736" fill="#F59E0B" opacity="0.38939999999999997"/><circle cx="171.31123457902987" cy="426.5293562976445" r="3.192" fill="#14B8A6" opacity="0.5736"/><circle cx="532.5651030653625" cy="450.0833288134883" r="5.648" fill="#10B981" opacity="0.7578"/><circle cx="608.1370839973772" cy="646.8881583537086" r="8.104" fill="#F59E0B" opacity="0.34199999999999997"/><circle cx="206.3891546319266" cy="583.3049307198876" r="2.56" fill="#10B981" opacity="0.5262"/><circle cx="502.2845371239084" cy="472.09335401504717" r="5.016" fill="#14B8A6" opacity="0.7104"/><circle cx="636.4479195118757" cy="564.2075171680129" r="7.472" fill="#F59E0B" opacity="0.8946000000000001"/><circle cx="304.11977824522694" cy="691.0180586366141" r="9.928" fill="#14B8A6" opacity="0.4788"/><circle cx="340.2878888831041" cy="137.1983991730683" r="4.384" fill="#10B981" opacity="0.663"/><circle cx="619.0094647729898" cy="493.26299068974265" r="6.84" fill="#F59E0B" opacity="0.8472"/><circle cx="428.1159372583576" cy="731.0772198286876" r="9.296" fill="#10B981" opacity="0.4314"/><circle cx="211.75145148534807" cy="276.41150682739425" r="3.752" fill="#14B8A6" opacity="0.6155999999999999"/><circle cx="574.547116605215" cy="453.9947024153905" r="6.208" fill="#F59E0B" opacity="0.7998"/><circle cx="540.722808077901" cy="706.4214448700775" r="8.664" fill="#14B8A6" opacity="0.384"/><circle cx="171.2362433899384" cy="445.80929655706484" r="3.12" fill="#10B981" opacity="0.5682"/><circle cx="527.8983658990114" cy="451.44404073478853" r="5.5760000000000005" fill="#F59E0B" opacity="0.7524"/><circle cx="613.9714093670657" cy="637.7677678083112" r="8.032" fill="#10B981" opacity="0.3366"/><circle cx="214.96897652577087" cy="598.5894297439307" r="2.488" fill="#14B8A6" opacity="0.5207999999999999"/><circle cx="500.6131743288174" cy="475.6077057814875" r="4.944" fill="#F59E0B" opacity="0.7050000000000001"/><circle cx="636.5199265708621" cy="555.0467950846042" r="7.4" fill="#14B8A6" opacity="0.8892"/><circle cx="317.6601418073234" cy="699.128541686707" r="9.856" fill="#10B981" opacity="0.47339999999999993"/><circle cx="321.67253170230595" cy="150.01263729880912" r="4.311999999999999" fill="#F59E0B" opacity="0.6576"/><circle cx="614.8614674961129" cy="486.9538019086255" r="6.768" fill="#10B981" opacity="0.8417999999999999"/><circle cx="442.16434337837495" cy="731.2781806032413" r="9.224" fill="#14B8A6" opacity="0.426"/><circle cx="202.54002573661194" cy="295.10245557541566" r="3.6799999999999997" fill="#F59E0B" opacity="0.6102"/><circle cx="568.8759771833379" cy="451.9157014500543" r="6.136" fill="#14B8A6" opacity="0.7944"/><circle cx="551.4290686656921" cy="700.302997721401" r="8.591999999999999" fill="#10B981" opacity="0.3786"/><circle cx="172.2784594851492" cy="464.8609635508744" r="3.048" fill="#F59E0B" opacity="0.5628"/><circle cx="523.4952805231177" cy="453.16270937447376" r="5.504" fill="#10B981" opacity="0.747"/><circle cx="619.1278319521679" cy="628.4663366581925" r="7.96" fill="#14B8A6" opacity="0.3312"/><circle cx="224.32699236333156" cy="613.1741704654968" r="2.416" fill="#F59E0B" opacity="0.5154"/><circle cx="499.34665621117495" cy="479.2102635443928" r="4.872" fill="#14B8A6" opacity="0.6996"/><circle cx="636.0033165972453" cy="546.0875023683153" r="7.328" fill="#10B981" opacity="0.8837999999999999"/><circle cx="331.48330886634363" cy="706.3276152369427" r="9.783999999999999" fill="#F59E0B" opacity="0.46799999999999997"/><circle cx="303.9898499233618" cy="163.76100602854854" r="4.24" fill="#10B981" opacity="0.6521999999999999"/><circle cx="610.3921946566878" cy="481.09065419217376" r="6.696" fill="#14B8A6" opacity="0.8364"/><circle cx="456.00286733527184" cy="730.641046471096" r="9.152000000000001" fill="#F59E0B" opacity="0.4206"/><circle cx="194.51039042433194" cy="314.1133182788344" r="3.608" fill="#14B8A6" opacity="0.6048"/><circle cx="563.2175899437841" cy="450.3240871075371" r="6.064" fill="#10B981" opacity="0.7889999999999999"/><circle cx="561.5767667893797" cy="693.6454021962988" r="8.52" fill="#F59E0B" opacity="0.3732"/><circle cx="174.4117521464383" cy="483.62035227339516" r="2.976" fill="#10B981" opacity="0.5573999999999999"/><circle cx="519.3808170629773" cy="455.2135742666217" r="5.432" fill="#14B8A6" opacity="0.7416"/><circle cx="623.6050286707648" cy="619.0309072774774" r="7.888" fill="#F59E0B" opacity="0.3258"/><circle cx="234.41176236200113" cy="627.0206598484745" r="2.344" fill="#14B8A6" opacity="0.51"/><circle cx="498.4889594193272" cy="482.8665019227374" r="4.8" fill="#10B981" opacity="0.6941999999999999"/><circle cx="634.9213149606014" cy="537.3662785048525" r="7.256" fill="#F59E0B" opacity="0.8783999999999998"/><circle cx="345.5300356975381" cy="712.6096661217362" r="9.712" fill="#10B981" opacity="0.4626"/><circle cx="287.2853522856773" cy="178.3793559987613" r="4.168" fill="#14B8A6" opacity="0.6467999999999999"/><circle cx="605.638713010065" cy="475.689049513087" r="6.624" fill="#F59E0B" opacity="0.831"/><circle cx="469.5823201778643" cy="729.1903243032699" r="9.08" fill="#14B8A6" opacity="0.4152"/><circle cx="187.66890584202645" cy="333.3708080134724" r="3.536" fill="#10B981" opacity="0.5993999999999999"/><circle cx="557.6085301476193" cy="449.2112487431435" r="5.992" fill="#F59E0B" opacity="0.7836000000000001"/><circle cx="571.1398109911648" cy="686.4920569143397" r="8.448" fill="#10B981" opacity="0.3678"/><circle cx="177.60636389998137" cy="502.02568561449624" r="2.904" fill="#14B8A6" opacity="0.552"/><circle cx="515.5778601274882" cy="457.56922963404486" r="5.359999999999999" fill="#F59E0B" opacity="0.7362"/><circle cx="627.4048017685053" cy="609.5080658505476" r="7.816" fill="#14B8A6" opacity="0.3204"/><circle cx="245.1700174432445" cy="640.0939684287789" r="2.2720000000000002" fill="#10B981" opacity="0.5045999999999999"/><circle cx="498.04145335728936" cy="486.54176478700396" r="4.728" fill="#F59E0B" opacity="0.6888"/><circle cx="633.2993720547016" cy="528.9177697933683" r="7.184" fill="#10B981" opacity="0.873"/><circle cx="359.74137144871383" cy="717.9728357316854" r="9.64" fill="#14B8A6" opacity="0.4572"/><circle cx="271.6002964720277" cy="193.80141177932524" r="4.096" fill="#F59E0B" opacity="0.6414"/><circle cx="600.6387782589436" cy="470.7617320870887" r="6.552" fill="#14B8A6" opacity="0.8255999999999999"/><circle cx="482.85561906184256" cy="726.9533656993157" r="9.008" fill="#10B981" opacity="0.4098"/><circle cx="182.0174576407926" cy="352.80196076450324" r="3.464" fill="#F59E0B" opacity="0.594"/><circle cx="552.0844115717197" cy="448.5660222107242" r="5.92" fill="#10B981" opacity="0.7782"/><circle cx="580.0952186483244" cy="678.8875511310865" r="8.376000000000001" fill="#14B8A6" opacity="0.3624"/><circle cx="181.829078977067" cy="520.0176176259451" r="2.832" fill="#F59E0B" opacity="0.5466"/><circle cx="512.1071045400561" cy="460.20077865515265" r="5.288" fill="#14B8A6" opacity="0.7307999999999999"/><circle cx="630.5320215377042" cy="599.9437409409932" r="7.744" fill="#10B981" opacity="0.315"/><circle cx="256.54689675636416" cy="652.3628121328941" r="2.2" fill="#F59E0B" opacity="0.4992"/><circle cx="498.00290019485595" cy="490.2014494761575" r="4.656000000000001" fill="#10B981" opacity="0.6834"/><circle cx="631.1650116310343" cy="520.7744969573426" r="7.112" fill="#14B8A6" opacity="0.8675999999999999"/><circle cx="374.0588915002567" cy="722.4189676935307" r="9.568" fill="#F59E0B" opacity="0.4518"/><circle cx="256.97159603798036" cy="209.9590462233421" r="4.024" fill="#14B8A6" opacity="0.636"/><circle cx="595.4306422323579" cy="466.3186620942737" r="6.48" fill="#10B981" opacity="0.8202"/><circle cx="495.7779495037486" cy="723.9602069333013" r="8.936" fill="#F59E0B" opacity="0.4044"/><circle cx="177.55351469395447" cy="372.33440512895356" r="3.392" fill="#10B981" opacity="0.5886"/><circle cx="546.6797161269557" cy="448.3747726173837" r="5.848" fill="#14B8A6" opacity="0.7727999999999999"/><circle cx="588.4231651835743" cy="670.877452751726" r="8.304" fill="#F59E0B" opacity="0.357"/><circle cx="187.04340303959475" cy="537.5394248619031" r="2.76" fill="#14B8A6" opacity="0.5412"/><circle cx="508.98696188690155" cy="463.0779941492424" r="5.216" fill="#10B981" opacity="0.7253999999999999"/><circle cx="632.9945563433496" cy="590.3830071586226" r="7.672" fill="#F59E0B" opacity="0.3096"/><circle cx="268.4861884966067" cy="663.7996186905551" r="2.128" fill="#10B981" opacity="0.4938"/><circle cx="498.36946735562634" cy="493.81119047832044" r="4.584" fill="#14B8A6" opacity="0.6779999999999999"/><circle cx="628.547671393984" cy="512.9667335587769" r="7.04" fill="#F59E0B" opacity="0.8622000000000001"/><circle cx="388.42492577819684" cy="725.9535412698795" r="9.496" fill="#14B8A6" opacity="0.4464"/><circle cx="243.4317446979274" cy="226.782558442455" r="3.952" fill="#10B981" opacity="0.6306"/><circle cx="590.0528594113232" cy="462.36700235372615" r="6.408" fill="#F59E0B" opacity="0.8148"/><circle cx="508.3069162604536" cy="720.2433997699859" r="8.864" fill="#10B981" opacity="0.399"/><circle cx="174.27020303933097" cy="391.8966264542993" r="3.3200000000000003" fill="#14B8A6" opacity="0.5831999999999999"/><circle cx="541.4276298451862" cy="448.6214880965764" r="5.776" fill="#F59E0B" opacity="0.7674"/><circle cx="596.1070192936701" cy="662.5080946983445" r="8.232" fill="#14B8A6" opacity="0.35159999999999997"/><circle cx="193.2097533606996" cy="554.5371851766961" r="2.6879999999999997" fill="#10B981" opacity="0.5358"/><circle cx="506.2334782687735" cy="466.16948494816063" r="5.144" fill="#F59E0B" opacity="0.72"/><circle cx="634.8031903536421" cy="580.8698947104529" r="7.6" fill="#10B981" opacity="0.30419999999999997"/><circle cx="280.93057303855534" cy="674.3805785366715" r="2.056" fill="#14B8A6" opacity="0.48839999999999995"/><circle cx="499.13475241575014" cy="497.33704175437356" r="4.5120000000000005" fill="#F59E0B" opacity="0.6726"/>
    <text x="500" y="960" font-family="system-ui, sans-serif" font-size="36" font-weight="700" fill="white" text-anchor="middle" opacity="0.85">user</text>
  </svg>