<svg xmlns="http://www.w3.org/2000/svg" viewBox="0 0 1000 1000" width="1000" height="1000">
    <defs>
      <linearGradient id="g393" x1="0" y1="0" x2="1" y2="1">
        <stop offset="0%" stop-color="#F59E0B"/>
        <stop offset="100%" stop-color="#EF4444"/>
      </linearGradient>
      <radialGradient id="glow393" cx="50%" cy="50%" r="60%">
        <stop offset="0%" stop-color="#FCD34D" stop-opacity="0.2"/>
        <stop offset="100%" stop-color="#FCD34D" stop-opacity="0"/>
      </radialGradient>
    </defs>
    <rect width="1000" height="1000" fill="#030712"/>
    <rect width="1000" height="1000" fill="url(#glow393)"/>
    <rect x="7.5" y="216.75" width="35" height="566.5" fill="#EF4444" opacity="0.8195999999999999" rx="4"/><rect x="57.5" y="233.5" width="35" height="533" fill="#F59E0B" opacity="0.7794" rx="4"/><rect x="107.5" y="250.25" width="35" height="499.5" fill="#EF4444" opacity="0.7392" rx="4"/><rect x="157.5" y="267" width="35" height="466" fill="#F59E0B" opacity="0.6990000000000001" rx="4"/><rect x="207.5" y="283.75" width="35" height="432.5" fill="#EF4444" opacity="0.6587999999999999" rx="4"/><rect x="257.5" y="300.5" width="35" height="399" fill="#F59E0B" opacity="0.6186" rx="4"/><rect x="307.5" y="317.25" width="35" height="365.5" fill="#EF4444" opacity="0.5784" rx="4"/><rect x="357.5" y="334" width="35" height="332" fill="#F59E0B" opacity="0.5382" rx="4"/><rect x="407.5" y="350.75" width="35" height="298.5" fill="#EF4444" opacity="0.498" rx="4"/><rect x="457.5" y="367.5" width="35" height="265" fill="#F59E0B" opacity="0.4578" rx="4"/><rect x="507.5" y="384.25" width="35" height="231.5" fill="#EF4444" opacity="0.41759999999999997" rx="4"/><rect x="557.5" y="401" width="35" height="198" fill="#F59E0B" opacity="0.37739999999999996" rx="4"/><rect x="607.5" y="417.75" width="35" height="164.5" fill="#EF4444" opacity="0.3372" rx="4"/><rect x="657.5" y="434.5" width="35" height="131" fill="#F59E0B" opacity="0.897" rx="4"/><rect x="707.5" y="201.25" width="35" height="597.5" fill="#EF4444" opacity="0.8568" rx="4"/><rect x="757.5" y="218" width="35" height="564" fill="#F59E0B" opacity="0.8166" rx="4"/><rect x="807.5" y="234.75" width="35" height="530.5" fill="#EF4444" opacity="0.7764" rx="4"/><rect x="857.5" y="251.5" width="35" height="497" fill="#F59E0B" opacity="0.7362" rx="4"/><rect x="907.5" y="268.25" width="35" height="463.5" fill="#EF4444" opacity="0.696" rx="4"/><rect x="957.5" y="285" width="35" height="430" fill="#F59E0B" opacity="0.6557999999999999" rx="4"/>
    <text x="500" y="960" font-family="system-ui, sans-serif" font-size="36" font-weight="700" fill="white" text-anchor="middle" opacity="0.85">team</text>
  </svg>