<svg xmlns="http://www.w3.org/2000/svg" viewBox="0 0 1000 1000" width="1000" height="1000">
    <defs>
      <linearGradient id="g394" x1="0" y1="0" x2="1" y2="1">
        <stop offset="0%" stop-color="#EC4899"/>
        <stop offset="100%" stop-color="#F43F5E"/>
      </linearGradient>
      <radialGradient id="glow394" cx="50%" cy="50%" r="60%">
        <stop offset="0%" stop-color="#F9A8D4" stop-opacity="0.2"/>
        <stop offset="100%" stop-color="#F9A8D4" stop-opacity="0"/>
      </radialGradient>
    </defs>
    <rect width="1000" height="1000" fill="#030712"/>
    <rect width="1000" height="1000" fill="url(#glow394)"/>
    <circle cx="503.72445168776466" cy="697.5648968304479" r="7.928" fill="#8B5CF6" opacity="0.8928"/><circle cx="203.8106003093294" cy="511.1713701433686" r="9.904" fill="#EC4899" opacity="0.44099999999999995"/><circle cx="477.6638751727038" cy="105.43170739693306" r="3.88" fill="#F43F5E" opacity="0.5892"/><circle cx="593.7329366244977" cy="492.9192802803743" r="5.856" fill="#8B5CF6" opacity="0.7373999999999999"/><circle cx="518.1440828078096" cy="691.9443467754738" r="7.832" fill="#F43F5E" opacity="0.8855999999999999"/><circle cx="210.2629418523656" cy="532.9089218291073" r="9.808" fill="#EC4899" opacity="0.43379999999999996"/><circle cx="448.63727421037294" cy="112.99350083046465" r="3.784" fill="#8B5CF6" opacity="0.582"/><circle cx="588.1877356306219" cy="486.59987745042844" r="5.76" fill="#EC4899" opacity="0.7302"/><circle cx="531.7406876059939" cy="685.3011838880116" r="7.736" fill="#F43F5E" opacity="0.8783999999999998"/><circle cx="218.28001649101208" cy="553.740961023186" r="9.712" fill="#8B5CF6" opacity="0.4266"/><circle cx="420.61937805833355" cy="122.65920329209803" r="3.6879999999999997" fill="#F43F5E" opacity="0.5748"/><circle cx="582.2500680631871" cy="481.0715477758722" r="5.664" fill="#EC4899" opacity="0.723"/><circle cx="544.4441790817186" cy="677.7271924769874" r="7.64" fill="#8B5CF6" opacity="0.8712"/><circle cx="227.7623778490168" cy="573.557304773751" r="9.616" fill="#EC4899" opacity="0.4194"/><circle cx="393.76018682026137" cy="134.3201644942202" r="3.592" fill="#F43F5E" opacity="0.5676"/><circle cx="576.0072177618327" cy="476.355490106468" r="5.568" fill="#8B5CF6" opacity="0.7158"/><circle cx="556.1935951065063" cy="669.3187522662686" r="7.544" fill="#F43F5E" opacity="0.8639999999999999"/><circle cx="238.60302345049797" cy="592.2575777417719" r="9.52" fill="#EC4899" opacity="0.4122"/><circle cx="368.1990956080866" cy="147.8572425826797" r="3.496" fill="#8B5CF6" opacity="0.5604"/><circle cx="569.5472811444412" cy="472.46428345918605" r="5.4719999999999995" fill="#EC4899" opacity="0.7086"/><circle cx="566.9373810593561" cy="660.1759876414519" r="7.448" fill="#F43F5E" opacity="0.8568"/><circle cx="250.68830457806203" cy="609.7517130884017" r="9.424" fill="#8B5CF6" opacity="0.40499999999999997"/><circle cx="344.06417761353754" cy="163.14178161033732" r="3.4" fill="#F43F5E" opacity="0.5531999999999999"/><circle cx="562.958367609646" cy="469.4018963344347" r="5.3759999999999994" fill="#EC4899" opacity="0.7014"/><circle cx="576.6335963560355" cy="650.4019012829965" r="7.352" fill="#8B5CF6" opacity="0.8495999999999999"/><circle cx="263.8988678060065" cy="625.960372247443" r="9.328" fill="#EC4899" opacity="0.3978"/><circle cx="321.4715539342384" cy="180.03663655764512" r="3.3040000000000003" fill="#F43F5E" opacity="0.5459999999999999"/><circle cx="556.3278068009729" cy="467.1637672533484" r="5.279999999999999" fill="#8B5CF6" opacity="0.6941999999999999"/><circle cx="585.2500441897963" cy="640.1014987986844" r="7.256" fill="#F43F5E" opacity="0.8424"/><circle cx="278.11062117807046" cy="640.8152817204805" r="9.232" fill="#EC4899" opacity="0.3906"/><circle cx="300.5248531807596" cy="198.39723840547737" r="3.208" fill="#8B5CF6" opacity="0.5388"/><circle cx="549.741368896757" cy="465.7369554727439" r="5.184" fill="#EC4899" opacity="0.687"/><circle cx="592.7643243632374" cy="629.3809109777485" r="7.16" fill="#F43F5E" opacity="0.8351999999999999"/><circle cx="293.19571790331383" cy="654.2594856288398" r="9.136" fill="#8B5CF6" opacity="0.38339999999999996"/><circle cx="281.314763256618" cy="218.07269158435366" r="3.112" fill="#F43F5E" opacity="0.5316"/><circle cx="543.2825039671266" cy="465.10036031223706" r="5.088" fill="#EC4899" opacity="0.6798"/><circle cx="599.1638096504646" cy="618.3465202513636" r="7.064" fill="#8B5CF6" opacity="0.8280000000000001"/><circle cx="309.0235503976185" cy="666.2475133566486" r="9.04" fill="#EC4899" opacity="0.3762"/><circle cx="263.9186770590745" cy="238.90689599596385" r="3.016" fill="#F43F5E" opacity="0.5244"/><circle cx="537.0316062730077" cy="465.2250070188226" r="4.992" fill="#8B5CF6" opacity="0.6726"/><circle cx="604.4455466814235" cy="607.104097860066" r="6.968" fill="#F43F5E" opacity="0.8208"/><circle cx="325.4617475019659" cy="676.7454622187865" r="8.943999999999999" fill="#EC4899" opacity="0.369"/><circle cx="248.40043319905732" cy="260.73968572791273" r="2.92" fill="#8B5CF6" opacity="0.5172"/><circle cx="531.0653091735671" cy="466.074396601524" r="4.896" fill="#EC4899" opacity="0.6654"/><circle cx="608.6160828824906" cy="595.7579580988647" r="6.872" fill="#F43F5E" opacity="0.8135999999999999"/><circle cx="342.37716776168344" cy="685.7309956823888" r="8.847999999999999" fill="#8B5CF6" opacity="0.3618"/><circle cx="234.81015218795352" cy="283.4079765609463" r="2.824" fill="#F43F5E" opacity="0.51"/><circle cx="525.4558160593218" cy="467.6049165959713" r="4.8" fill="#EC4899" opacity="0.6581999999999999"/><circle cx="611.6912215353999" cy="584.4101358364635" r="6.776" fill="#8B5CF6" opacity="0.8064"/><circle cx="359.63688175255743" cy="693.1932582567374" r="8.751999999999999" fill="#EC4899" opacity="0.35459999999999997"/><circle cx="223.18416789172727" cy="306.7469143992662" r="2.7279999999999998" fill="#F43F5E" opacity="0.5028"/><circle cx="520.2702724401701" cy="469.7663092692724" r="4.704000000000001" fill="#8B5CF6" opacity="0.651"/><circle cx="613.6957075267125" cy="573.1595932875537" r="6.68" fill="#F43F5E" opacity="0.7991999999999999"/><circle cx="377.1091365890568" cy="699.1327087399579" r="8.655999999999999" fill="#EC4899" opacity="0.3474"/><circle cx="213.5450534130875" cy="330.5910168382766" r="2.632" fill="#8B5CF6" opacity="0.4956"/><circle cx="515.570183992926" cy="472.502193352443" r="4.6080000000000005" fill="#EC4899" opacity="0.6437999999999999"/><circle cx="614.6628468488485" cy="562.1014617582993" r="6.584" fill="#F43F5E" opacity="0.7919999999999999"/><circle cx="394.664295945555" cy="703.5608740680644" r="8.559999999999999" fill="#8B5CF6" opacity="0.3402"/><circle cx="205.90173993444262" cy="354.77530021924036" r="2.536" fill="#F43F5E" opacity="0.48839999999999995"/><circle cx="511.4108850139439" cy="475.7506349939107" r="4.5120000000000005" fill="#EC4899" opacity="0.6366"/><circle cx="614.6340633778799" cy="551.3263237868855" r="6.488" fill="#8B5CF6" opacity="0.7847999999999999"/><circle cx="412.17574916173174" cy="706.5000265489014" r="8.464" fill="#EC4899" opacity="0.33299999999999996"/><circle cx="200.24972644223743" cy="379.13638470554287" r="2.44" fill="#F43F5E" opacity="0.48119999999999996"/><circle cx="507.84106133169155" cy="479.4447632659545" r="4.416" fill="#8B5CF6" opacity="0.6294"/><circle cx="613.6583968896705" cy="540.9195407656312" r="6.392" fill="#F43F5E" opacity="0.7776000000000001"/><circle cx="429.52078328633684" cy="707.9827877768458" r="8.368" fill="#EC4899" opacity="0.3258"/><circle cx="196.5713776609175" cy="403.5135701489247" r="2.344" fill="#8B5CF6" opacity="0.474"/><circle cx="504.9023313144836" cy="483.51342522890116" r="4.32" fill="#EC4899" opacity="0.6222"/><circle cx="611.7919466816411" cy="530.9606307611635" r="6.296" fill="#F43F5E" opacity="0.7704"/><circle cx="446.5814122369892" cy="708.05166301043" r="8.272" fill="#8B5CF6" opacity="0.3186"/><circle cx="194.8363069560051" cy="427.74987579422117" r="2.248" fill="#F43F5E" opacity="0.4668"/><circle cx="502.6288881630335" cy="487.8818752677544" r="4.224" fill="#EC4899" opacity="0.615"/><circle cx="609.0972655396988" cy="521.5227008472557" r="6.2" fill="#8B5CF6" opacity="0.7632"/><circle cx="463.245157615192" cy="706.7585102511331" r="8.176" fill="#EC4899" opacity="0.3114"/><circle cx="195.00184042422143" cy="451.6930371955767" r="2.152" fill="#F43F5E" opacity="0.4596"/><circle cx="501.04720620920324" cy="492.47249316470544" r="4.128" fill="#8B5CF6" opacity="0.6078"/><circle cx="605.6427091262282" cy="512.6719378340941" r="6.104" fill="#F43F5E" opacity="0.756"/><circle cx="479.4057761125307" cy="704.1639486845628" r="8.08" fill="#EC4899" opacity="0.30419999999999997"/><circle cx="197.01355787765493" cy="475.19645408328006" r="2.056" fill="#8B5CF6" opacity="0.4524"/><circle cx="500.1758134546821" cy="497.20552516040084" r="4.032" fill="#EC4899" opacity="0.6006"/><circle cx="601.5017461632974" cy="504.4671608210951" r="6.008" fill="#F43F5E" opacity="0.7487999999999999"/><circle cx="494.96392887315517" cy="700.3367115323733" r="7.984" fill="#8B5CF6" opacity="0.897"/><circle cx="200.80590595184378" cy="498.12008332550477" r="9.96" fill="#F43F5E" opacity="0.4452"/><circle cx="494.99871612642556" cy="102.03142440688117" r="3.936" fill="#EC4899" opacity="0.5933999999999999"/><circle cx="596.7522350434028" cy="496.9594385212372" r="5.912" fill="#8B5CF6" opacity="0.7416"/><circle cx="509.8277886359629" cy="695.352948712137" r="7.888" fill="#EC4899" opacity="0.8897999999999999"/><circle cx="206.30287812725533" cy="520.3312715703212" r="9.864" fill="#F43F5E" opacity="0.438"/><circle cx="465.4569095162478" cy="108.32026488490459" r="3.84" fill="#8B5CF6" opacity="0.5861999999999999"/><circle cx="591.4756727165238" cy="490.191773806676" r="5.816" fill="#F43F5E" opacity="0.7343999999999999"/><circle cx="523.9135809640693" cy="689.2954850108024" r="7.792" fill="#EC4899" opacity="0.8826"/><circle cx="213.41875605267234" cy="541.7055226271324" r="9.768" fill="#8B5CF6" opacity="0.43079999999999996"/><circle cx="436.83172503830696" cy="116.77117926966412" r="3.7439999999999998" fill="#EC4899" opacity="0.579"/><circle cx="585.7564218755928" cy="484.19885741171356" r="5.720000000000001" fill="#F43F5E" opacity="0.7272"/><circle cx="537.1460563756797" cy="682.2530397434699" r="7.696" fill="#8B5CF6" opacity="0.8754"/><circle cx="222.05890619984473" cy="562.1271951497353" r="9.672" fill="#F43F5E" opacity="0.4236"/><circle cx="409.27898474169905" cy="127.28206725393113" r="3.6479999999999997" fill="#EC4899" opacity="0.5718"/><circle cx="579.6809225916246" cy="479.0068922036893" r="5.6240000000000006" fill="#8B5CF6" opacity="0.72"/><circle cx="549.4588907157394" cy="674.3194140913988" r="7.6" fill="#EC4899" opacity="0.8681999999999999"/><circle cx="232.12062556352743" cy="581.4901267119161" r="9.576" fill="#F43F5E" opacity="0.4164"/><circle cx="382.94436253076987" cy="139.7397916273959" r="3.552" fill="#8B5CF6" opacity="0.5646"/>
    <text x="500" y="960" font-family="system-ui, sans-serif" font-size="36" font-weight="700" fill="white" text-anchor="middle" opacity="0.85">group</text>
  </svg>