<svg xmlns="http://www.w3.org/2000/svg" viewBox="0 0 1000 1000" width="1000" height="1000">
    <defs>
      <linearGradient id="g396" x1="0" y1="0" x2="1" y2="1">
        <stop offset="0%" stop-color="#6366F1"/>
        <stop offset="100%" stop-color="#8B5CF6"/>
      </linearGradient>
      <radialGradient id="glow396" cx="50%" cy="50%" r="60%">
        <stop offset="0%" stop-color="#A78BFA" stop-opacity="0.2"/>
        <stop offset="100%" stop-color="#A78BFA" stop-opacity="0"/>
      </radialGradient>
    </defs>
    <rect width="1000" height="1000" fill="#030712"/>
    <rect width="1000" height="1000" fill="url(#glow396)"/>
    <path d="M 0 500 L 0 627.9276573774042 L 16.666666666666668 645.8696100452419 L 33.333333333333336 649.5328360870718 L 50 638.5587481505108 L 66.66666666666667 614.0215507720977 L 83.33333333333333 578.3231510529392 L 100 534.9579061685178 L 116.66666666666667 488.1707707492572 L 133.33333333333334 442.5415288655573 L 150 402.5367542017863 L 166.66666666666666 372.07233577536954 L 183.33333333333331 354.1303868986393 L 200 350.46716494707385 L 216.66666666666669 361.44125687266705 L 233.33333333333334 385.97843451136157 L 250 421.676860130852 L 266.6666666666667 465.04207180578345 L 283.3333333333333 511.829242323319 L 300 557.4584502126545 L 316.66666666666663 597.4632557662949 L 333.3333333333333 627.9276523981654 L 350 645.8696161574785 L 366.66666666666663 649.532836839092 L 383.33333333333337 638.5587381041541 L 400 614.0215569681309 L 416.6666666666667 578.3231286853562 L 433.33333333333337 534.9579154418896 L 450 488.1707446041048 L 466.6666666666667 442.54153767415477 L 483.3333333333333 402.5367614504812 L 500 372.07234075460764 L 516.6666666666667 354.1303891210199 L 533.3333333333334 350.46716419505276 L 550 361.4412532198595 L 566.6666666666666 385.9784515523776 L 583.3333333333334 421.67685199810467 L 600 465.0420973104377 L 616.6666666666667 511.8292328170652 L 633.3333333333333 557.4584744390355 L 650 597.4632485176005 L 666.6666666666666 627.9276660926184 L 683.3333333333334 645.8696139350986 L 700 649.5328375911117 L 716.6666666666666 638.5587417569624 L 733.3333333333333 614.0215631641635 L 750 578.3231368181039 L 766.6666666666667 534.9579247152612 L 783.3333333333334 488.1707541103586 L 800 442.54154648275244 L 816.6666666666666 402.53674151431846 L 833.3333333333334 372.07234573384625 L 850 354.13038300878395 L 866.6666666666667 350.46716344303235 L 883.3333333333333 361.44126326621677 L 900 385.9784453563443 L 916.6666666666666 421.6768438653577 L 933.3333333333334 465.04208803706587 L 950 511.8292233108113 L 966.6666666666666 557.4584656304381 L 983.3333333333333 597.4632412689058 L 1000 627.9276611133805" stroke="#6366F1" stroke-width="3" fill="none" opacity="0.7"/><path d="M 0 500 L 0 602.2154275964467 L 16.666666666666668 578.3628256468081 L 33.333333333333336 552.5773447692618 L 50 526.6161989938983 L 66.66666666666667 502.2486438141879 L 83.33333333333333 481.13526335246655 L 100 464.7148990238859 L 116.66666666666667 454.1065643145752 L 133.33333333333334 450.03321862792245 L 150 452.7724411815073 L 166.66666666666666 462.1375585592673 L 183.33333333333331 477.49035374212724 L 200 497.78457985941446 L 216.66666666666669 521.6371827364624 L 233.33333333333334 547.4226639701121 L 250 573.3837863251489 L 266.6666666666667 597.7513638669905 L 283.3333333333333 618.8647429865276 L 300 635.2851055409321 L 316.66666666666663 645.8934314027586 L 333.3333333333333 649.9667809829107 L 350 647.227556774216 L 366.66666666666663 637.8624372661767 L 383.33333333333337 622.5096402375262 L 400 602.2154330182782 L 416.6666666666667 578.362831743043 L 433.33333333333337 552.577327290514 L 450 526.6162051749476 L 466.6666666666667 502.2486493998685 L 483.3333333333333 481.13526796212346 L 500 464.7148898942504 L 516.6666666666667 454.1065661176849 L 533.3333333333334 450.0332187917712 L 550 452.7724396949291 L 566.6666666666666 462.13755552357 L 583.3333333333334 477.49036578282085 L 600 497.78457443758265 L 616.6666666666667 521.6371766402274 L 633.3333333333333 547.4226576149221 L 650 573.3838033249558 L 666.6666666666666 597.7513582813102 L 683.3333333333334 618.8647383768711 L 700 635.2851022214397 L 716.6666666666666 645.8934295996479 L 733.3333333333333 649.9667814335462 L 750 647.2275582607948 L 766.6666666666667 637.8624403018745 L 783.3333333333334 622.5096446154654 L 800 602.2154181065561 L 816.6666666666666 578.3628149765021 L 833.3333333333334 552.577333645704 L 850 526.6162113559972 L 866.6666666666667 502.2486549855492 L 883.3333333333333 481.135255284135 L 900 464.71489321374236 L 916.6666666666666 454.10656792079493 L 933.3333333333334 450.0332189556204 L 950 452.772443783482 L 966.6666666666666 462.1375638726818 L 983.3333333333333 477.4903614048813 L 1000 497.7845690157511" stroke="#8B5CF6" stroke-width="2" fill="none" opacity="0.5"/>
    <text x="500" y="960" font-family="system-ui, sans-serif" font-size="36" font-weight="700" fill="white" text-anchor="middle" opacity="0.85">leader</text>
  </svg>