<svg xmlns="http://www.w3.org/2000/svg" viewBox="0 0 1000 1000" width="1000" height="1000">
    <defs>
      <linearGradient id="g397" x1="0" y1="0" x2="1" y2="1">
        <stop offset="0%" stop-color="#06B6D4"/>
        <stop offset="100%" stop-color="#0EA5E9"/>
      </linearGradient>
      <radialGradient id="glow397" cx="50%" cy="50%" r="60%">
        <stop offset="0%" stop-color="#67E8F9" stop-opacity="0.2"/>
        <stop offset="100%" stop-color="#67E8F9" stop-opacity="0"/>
      </radialGradient>
    </defs>
    <rect width="1000" height="1000" fill="#030712"/>
    <rect width="1000" height="1000" fill="url(#glow397)"/>
    <path d="M 0 500 L 0 436.9859999090344 L 16.666666666666668 398.00608354345627 L 33.333333333333336 369.01001796551805 L 50 352.8361817700413 L 66.66666666666667 351.0677596658469 L 83.33333333333333 363.8778596711126 L 100 390.0125582143564 L 116.66666666666667 426.9135713543353 L 133.33333333333334 470.96882345004934 L 150 517.8658161661004 L 166.66666666666666 563.0140119911409 L 183.33333333333331 601.9939260719527 L 200 630.9899884238994 L 216.66666666666669 647.1638207679464 L 233.33333333333334 648.9322430318164 L 250 636.1221348200287 L 266.6666666666667 609.987457186298 L 283.3333333333333 573.0864171941565 L 300 529.0311987710694 L 316.66666666666663 482.13417081382903 L 333.3333333333333 436.98600856272964 L 350 398.0060643126391 L 366.66666666666663 369.0100226118426 L 383.33333333333337 352.83617669406703 L 400 351.0677585300626 L 416.6666666666667 363.877870688831 L 433.33333333333337 390.01255173029426 L 450 426.9135942573522 L 466.6666666666667 470.96881409440084 L 483.3333333333333 517.8658066980281 L 500 563.014003337446 L 516.6666666666667 601.9939190797182 L 533.3333333333334 630.9899837775755 L 550 647.1638189223459 L 566.6666666666666 648.9322399080575 L 583.3333333333334 636.1221388260187 L 600 609.9874393531127 L 616.6666666666667 573.086425521585 L 633.3333333333333 529.0311730401287 L 650 482.1341802819012 L 666.6666666666666 436.98598476237885 L 683.3333333333334 398.006071304873 L 700 369.0100272581677 L 716.6666666666666 352.8361785396668 L 733.3333333333333 351.0677573942789 L 750 363.87786668284025 L 766.6666666666667 390.01254524623255 L 783.3333333333334 426.9135859299233 L 800 470.9688047387525 L 816.6666666666666 517.8658327381693 L 833.3333333333334 563.0139946837509 L 850 601.993938310535 L 866.6666666666667 630.9899791312512 L 883.3333333333333 647.1638239983195 L 900 648.9322410438419 L 916.6666666666666 636.1221428320082 L 933.3333333333334 609.987445837175 L 950 573.0864338490132 L 966.6666666666666 529.0311823957771 L 983.3333333333333 482.1341897499735 L 1000 436.98599341607365" stroke="#06B6D4" stroke-width="3" fill="none" opacity="0.7"/><path d="M 0 500 L 0 459.25190961902456 L 16.666666666666668 473.2168880171685 L 33.333333333333336 492.41450652737024 L 50 515.5365020748718 L 66.66666666666667 541.0071076270317 L 83.33333333333333 567.0905636894018 L 100 592.0093265426867 L 116.66666666666667 614.0652426600202 L 133.33333333333334 631.7551984619105 L 150 643.8736748096117 L 166.66666666666666 649.594817894956 L 183.33333333333331 648.5287414262561 L 200 640.7480867084023 L 216.66666666666669 626.7831063820706 L 233.33333333333334 607.5854863253636 L 250 584.4635120996587 L 266.6666666666667 558.9928836661123 L 283.3333333333333 532.9094276969417 L 300 507.9906655238628 L 316.66666666666663 485.9347689339063 L 333.3333333333333 468.2448102332561 L 350 456.12632217749325 L 366.66666666666663 450.40518131886006 L 383.33333333333337 451.4712600678482 L 400 459.25190694836465 L 416.6666666666667 473.2168839443486 L 433.33333333333337 492.41452082190295 L 450 515.5364961070388 L 466.6666666666667 541.0071012954884 L 483.3333333333333 567.0905574256324 L 500 592.0093424095874 L 516.6666666666667 614.0652377786865 L 533.3333333333334 631.7551948010275 L 550 643.8736726186625 L 566.6666666666666 649.59481732325 L 583.3333333333334 648.5287384380467 L 600 640.7480893790628 L 616.6666666666667 626.783110454891 L 633.3333333333333 607.5854915227881 L 650 584.4634956862634 L 666.6666666666666 558.9928899976558 L 683.3333333333334 532.9094339607112 L 700 507.99067129299294 L 716.6666666666666 485.9347738152406 L 733.3333333333333 468.24480016468965 L 750 456.126324368442 L 766.6666666666667 450.40518189056553 L 783.3333333333334 451.4712589813496 L 800 459.2519142935104 L 816.6666666666666 473.2168951458699 L 833.3333333333334 492.4145156244782 L 850 515.5364901392059 L 866.6666666666667 541.0070949639452 L 883.3333333333333 567.0905746529451 L 900 592.0093366404575 L 916.6666666666666 614.0652328973525 L 933.3333333333334 631.7551911401441 L 950 643.8736786444529 L 966.6666666666666 649.5948188956182 L 983.3333333333333 648.5287395245459 L 1000 640.7480920497229" stroke="#0EA5E9" stroke-width="2" fill="none" opacity="0.5"/>
    <text x="500" y="960" font-family="system-ui, sans-serif" font-size="36" font-weight="700" fill="white" text-anchor="middle" opacity="0.85">mentor</text>
  </svg>