<svg xmlns="http://www.w3.org/2000/svg" viewBox="0 0 1000 1000" width="1000" height="1000">
    <defs>
      <linearGradient id="g398" x1="0" y1="0" x2="1" y2="1">
        <stop offset="0%" stop-color="#10B981"/>
        <stop offset="100%" stop-color="#14B8A6"/>
      </linearGradient>
      <radialGradient id="glow398" cx="50%" cy="50%" r="60%">
        <stop offset="0%" stop-color="#6EE7B7" stop-opacity="0.2"/>
        <stop offset="100%" stop-color="#6EE7B7" stop-opacity="0"/>
      </radialGradient>
    </defs>
    <rect width="1000" height="1000" fill="#030712"/>
    <rect width="1000" height="1000" fill="url(#glow398)"/>
    <path d="M 0 500 L 0 649.933424295776 L 16.666666666666668 643.9760344764059 L 33.333333333333336 623.9252569424663 L 50 591.7438303147849 L 66.66666666666667 550.5818509544978 L 83.33333333333333 504.4685993452863 L 100 457.9178960761165 L 116.66666666666667 415.4865152161448 L 133.33333333333334 381.3278754435227 L 150 358.7857115038568 L 166.66666666666666 350.06657531356814 L 183.33333333333331 356.02396920252716 L 200 376.0747504459388 L 216.66666666666669 408.25618005986115 L 233.33333333333334 449.41812772273784 L 250 495.5314137623104 L 266.6666666666667 542.0820821841077 L 283.3333333333333 584.5134956177459 L 300 618.6721107035459 L 316.66666666666663 641.2142929181496 L 333.3333333333333 649.9334240116941 L 350 643.9760271185387 L 366.66666666666663 623.925262315244 L 383.33333333333337 591.743809565492 L 400 550.5818599319166 L 416.6666666666667 504.46857313009275 L 433.33333333333337 457.9179052291073 L 450 415.486493548364 L 466.6666666666667 381.32788127595404 L 483.3333333333333 358.78571471949874 L 500 350.0665755976492 L 516.6666666666667 356.0239665272418 L 533.3333333333334 376.0747450731604 L 550 408.25617251551654 L 566.6666666666666 449.4181524134293 L 583.3333333333334 495.53140423059 L 600 542.0821073576774 L 616.6666666666667 584.5134877394431 L 633.3333333333333 618.6721267445452 L 650 641.2142897025085 L 666.6666666666666 649.9334247930063 L 683.3333333333334 643.9760297938249 L 700 623.9252676880212 L 716.6666666666666 591.7438171098372 L 733.3333333333333 550.5818689093352 L 750 504.46858266181323 L 766.6666666666667 457.91791438209833 L 783.3333333333334 415.4865014266664 L 800 381.32788710838577 L 816.6666666666666 358.7857058754854 L 833.3333333333334 350.06657588173096 L 850 356.0239738851095 L 866.6666666666667 376.07473970038245 L 883.3333333333333 408.2561932648098 L 900 449.41814343601044 L 916.6666666666666 495.5313946988696 L 933.3333333333334 542.0820982046865 L 950 584.5134798611399 L 966.6666666666666 618.6721209121141 L 983.3333333333333 641.2142864868667 L 1000 649.9334245089254" stroke="#10B981" stroke-width="3" fill="none" opacity="0.7"/><path d="M 0 500 L 0 552.9790586837519 L 16.666666666666668 527.0071376756418 L 33.333333333333336 502.60214161473067 L 50 481.42721263696853 L 66.66666666666667 464.9254249326058 L 83.33333333333333 454.22132662266944 L 100 450.04438402772894 L 116.66666666666667 452.67925425170984 L 133.33333333333334 461.94637054287114 L 150 477.2141937813188 L 166.66666666666666 497.44224745811465 L 183.33333333333331 521.2520236914509 L 200 547.020950054646 L 216.66666666666669 572.9928708324086 L 233.33333333333334 597.3978660831629 L 250 618.5727763726806 L 266.6666666666667 635.0745796621381 L 283.3333333333333 645.7786758905576 L 300 649.955616232709 L 316.66666666666663 647.320749220117 L 333.3333333333333 638.0536366140076 L 350 622.7858002238577 L 366.66666666666663 602.5577451044296 L 383.33333333333337 578.7479679353113 L 400 552.9790650382322 L 416.6666666666667 527.0071438626157 L 433.33333333333337 502.6021262189439 L 450 481.42721726418176 L 466.6666666666667 464.9254282738605 L 483.3333333333333 454.2213284502648 L 500 450.04438350685393 L 516.6666666666667 452.67925278998337 L 533.3333333333334 461.9463675296454 L 550 477.21418942194015 L 566.6666666666666 497.4422420496674 L 583.3333333333334 521.2520404379268 L 600 547.0209437001657 L 616.6666666666667 572.9928646454348 L 633.3333333333333 597.3978604853276 L 650 618.5727890989554 L 666.6666666666666 635.0745763208839 L 683.3333333333334 645.7786740629628 L 700 649.9556160433211 L 716.6666666666666 647.3207506818426 L 733.3333333333333 638.053628326701 L 750 622.7858045832368 L 766.6666666666667 602.5577505128772 L 783.3333333333334 578.7479740242507 L 800 552.9790475614363 L 816.6666666666666 527.0071268465149 L 833.3333333333334 502.602131816779 L 850 481.42722189139533 L 866.6666666666667 464.92543161511566 L 883.3333333333333 454.2213234238104 L 900 450.04438369624125 L 916.6666666666666 452.67925132825724 L 933.3333333333334 461.9463645164201 L 950 477.21420141158694 L 966.6666666666666 497.44225692457866 L 983.3333333333333 521.2520343489872 L 1000 547.0209373456854" stroke="#14B8A6" stroke-width="2" fill="none" opacity="0.5"/>
    <text x="500" y="960" font-family="system-ui, sans-serif" font-size="36" font-weight="700" fill="white" text-anchor="middle" opacity="0.85">student</text>
  </svg>