<svg xmlns="http://www.w3.org/2000/svg" viewBox="0 0 1000 1000" width="1000" height="1000">
    <defs>
      <linearGradient id="g404" x1="0" y1="0" x2="1" y2="1">
        <stop offset="0%" stop-color="#10B981"/>
        <stop offset="100%" stop-color="#14B8A6"/>
      </linearGradient>
      <radialGradient id="glow404" cx="50%" cy="50%" r="60%">
        <stop offset="0%" stop-color="#6EE7B7" stop-opacity="0.2"/>
        <stop offset="100%" stop-color="#6EE7B7" stop-opacity="0"/>
      </radialGradient>
    </defs>
    <rect width="1000" height="1000" fill="#030712"/>
    <rect width="1000" height="1000" fill="url(#glow404)"/>
    <line x1="692.8" y1="685.5999999999999" x2="685.5999999999999" y2="678.4" stroke="#10B981" stroke-width="1" opacity="0.3854538033584482"/><line x1="692.8" y1="685.5999999999999" x2="678.4" y2="671.2" stroke="#10B981" stroke-width="1" opacity="0.3709076067168965"/><line x1="692.8" y1="685.5999999999999" x2="671.2" y2="664" stroke="#10B981" stroke-width="1" opacity="0.3563614100753447"/><line x1="692.8" y1="685.5999999999999" x2="664" y2="656.8" stroke="#10B981" stroke-width="1" opacity="0.3418152134337928"/><line x1="692.8" y1="685.5999999999999" x2="656.8" y2="649.6" stroke="#10B981" stroke-width="1" opacity="0.32726901679224096"/><line x1="692.8" y1="685.5999999999999" x2="649.6" y2="642.4" stroke="#10B981" stroke-width="1" opacity="0.31272282015068914"/><line x1="692.8" y1="685.5999999999999" x2="642.4" y2="635.2" stroke="#10B981" stroke-width="1" opacity="0.2981766235091373"/><line x1="692.8" y1="685.5999999999999" x2="635.2" y2="628" stroke="#10B981" stroke-width="1" opacity="0.28363042686758555"/><line x1="692.8" y1="685.5999999999999" x2="628" y2="620.8" stroke="#10B981" stroke-width="1" opacity="0.26908423022603356"/><line x1="692.8" y1="685.5999999999999" x2="620.8" y2="613.6" stroke="#10B981" stroke-width="1" opacity="0.2545380335844818"/><line x1="692.8" y1="685.5999999999999" x2="613.6" y2="606.4" stroke="#10B981" stroke-width="1" opacity="0.23999183694292997"/><line x1="692.8" y1="685.5999999999999" x2="606.4" y2="599.2" stroke="#10B981" stroke-width="1" opacity="0.22544564030137818"/><line x1="692.8" y1="685.5999999999999" x2="599.2" y2="592" stroke="#10B981" stroke-width="1" opacity="0.21089944365982635"/><line x1="692.8" y1="685.5999999999999" x2="592" y2="584.8" stroke="#10B981" stroke-width="1" opacity="0.19635324701827442"/><line x1="692.8" y1="685.5999999999999" x2="584.8" y2="577.5999999999999" stroke="#10B981" stroke-width="1" opacity="0.18180705037672248"/><line x1="685.5999999999999" y1="678.4" x2="678.4" y2="671.2" stroke="#10B981" stroke-width="1" opacity="0.3854538033584483"/><line x1="685.5999999999999" y1="678.4" x2="671.2" y2="664" stroke="#10B981" stroke-width="1" opacity="0.3709076067168965"/><line x1="685.5999999999999" y1="678.4" x2="664" y2="656.8" stroke="#10B981" stroke-width="1" opacity="0.3563614100753446"/><line x1="685.5999999999999" y1="678.4" x2="656.8" y2="649.6" stroke="#10B981" stroke-width="1" opacity="0.3418152134337928"/><line x1="685.5999999999999" y1="678.4" x2="649.6" y2="642.4" stroke="#10B981" stroke-width="1" opacity="0.32726901679224096"/><line x1="685.5999999999999" y1="678.4" x2="642.4" y2="635.2" stroke="#10B981" stroke-width="1" opacity="0.31272282015068914"/><line x1="685.5999999999999" y1="678.4" x2="635.2" y2="628" stroke="#10B981" stroke-width="1" opacity="0.2981766235091373"/><line x1="685.5999999999999" y1="678.4" x2="628" y2="620.8" stroke="#10B981" stroke-width="1" opacity="0.28363042686758544"/><line x1="685.5999999999999" y1="678.4" x2="620.8" y2="613.6" stroke="#10B981" stroke-width="1" opacity="0.26908423022603356"/><line x1="685.5999999999999" y1="678.4" x2="613.6" y2="606.4" stroke="#10B981" stroke-width="1" opacity="0.2545380335844818"/><line x1="685.5999999999999" y1="678.4" x2="606.4" y2="599.2" stroke="#10B981" stroke-width="1" opacity="0.23999183694292997"/><line x1="685.5999999999999" y1="678.4" x2="599.2" y2="592" stroke="#10B981" stroke-width="1" opacity="0.22544564030137818"/><line x1="685.5999999999999" y1="678.4" x2="592" y2="584.8" stroke="#10B981" stroke-width="1" opacity="0.2108994436598262"/><line x1="685.5999999999999" y1="678.4" x2="584.8" y2="577.5999999999999" stroke="#10B981" stroke-width="1" opacity="0.19635324701827428"/><line x1="678.4" y1="671.2" x2="671.2" y2="664" stroke="#10B981" stroke-width="1" opacity="0.3854538033584482"/><line x1="678.4" y1="671.2" x2="664" y2="656.8" stroke="#10B981" stroke-width="1" opacity="0.37090760671689627"/><line x1="678.4" y1="671.2" x2="656.8" y2="649.6" stroke="#10B981" stroke-width="1" opacity="0.3563614100753445"/><line x1="678.4" y1="671.2" x2="649.6" y2="642.4" stroke="#10B981" stroke-width="1" opacity="0.3418152134337927"/><line x1="678.4" y1="671.2" x2="642.4" y2="635.2" stroke="#10B981" stroke-width="1" opacity="0.32726901679224085"/><line x1="678.4" y1="671.2" x2="635.2" y2="628" stroke="#10B981" stroke-width="1" opacity="0.31272282015068903"/><line x1="678.4" y1="671.2" x2="628" y2="620.8" stroke="#10B981" stroke-width="1" opacity="0.2981766235091371"/><line x1="678.4" y1="671.2" x2="620.8" y2="613.6" stroke="#10B981" stroke-width="1" opacity="0.28363042686758533"/><line x1="678.4" y1="671.2" x2="613.6" y2="606.4" stroke="#10B981" stroke-width="1" opacity="0.26908423022603345"/><line x1="678.4" y1="671.2" x2="606.4" y2="599.2" stroke="#10B981" stroke-width="1" opacity="0.2545380335844817"/><line x1="678.4" y1="671.2" x2="599.2" y2="592" stroke="#10B981" stroke-width="1" opacity="0.23999183694292986"/><line x1="678.4" y1="671.2" x2="592" y2="584.8" stroke="#10B981" stroke-width="1" opacity="0.22544564030137793"/><line x1="678.4" y1="671.2" x2="584.8" y2="577.5999999999999" stroke="#10B981" stroke-width="1" opacity="0.21089944365982602"/><line x1="671.2" y1="664" x2="664" y2="656.8" stroke="#10B981" stroke-width="1" opacity="0.3854538033584481"/><line x1="671.2" y1="664" x2="656.8" y2="649.6" stroke="#10B981" stroke-width="1" opacity="0.37090760671689627"/><line x1="671.2" y1="664" x2="649.6" y2="642.4" stroke="#10B981" stroke-width="1" opacity="0.3563614100753445"/><line x1="671.2" y1="664" x2="642.4" y2="635.2" stroke="#10B981" stroke-width="1" opacity="0.3418152134337927"/><line x1="671.2" y1="664" x2="635.2" y2="628" stroke="#10B981" stroke-width="1" opacity="0.32726901679224085"/><line x1="671.2" y1="664" x2="628" y2="620.8" stroke="#10B981" stroke-width="1" opacity="0.3127228201506889"/><line x1="671.2" y1="664" x2="620.8" y2="613.6" stroke="#10B981" stroke-width="1" opacity="0.2981766235091371"/><line x1="671.2" y1="664" x2="613.6" y2="606.4" stroke="#10B981" stroke-width="1" opacity="0.28363042686758533"/><line x1="671.2" y1="664" x2="606.4" y2="599.2" stroke="#10B981" stroke-width="1" opacity="0.26908423022603345"/><line x1="671.2" y1="664" x2="599.2" y2="592" stroke="#10B981" stroke-width="1" opacity="0.2545380335844817"/><line x1="671.2" y1="664" x2="592" y2="584.8" stroke="#10B981" stroke-width="1" opacity="0.23999183694292975"/><line x1="671.2" y1="664" x2="584.8" y2="577.5999999999999" stroke="#10B981" stroke-width="1" opacity="0.22544564030137781"/><line x1="664" y1="656.8" x2="656.8" y2="649.6" stroke="#10B981" stroke-width="1" opacity="0.3854538033584482"/><line x1="664" y1="656.8" x2="649.6" y2="642.4" stroke="#10B981" stroke-width="1" opacity="0.3709076067168964"/><line x1="664" y1="656.8" x2="642.4" y2="635.2" stroke="#10B981" stroke-width="1" opacity="0.3563614100753446"/><line x1="664" y1="656.8" x2="635.2" y2="628" stroke="#10B981" stroke-width="1" opacity="0.3418152134337928"/><line x1="664" y1="656.8" x2="628" y2="620.8" stroke="#10B981" stroke-width="1" opacity="0.32726901679224085"/><line x1="664" y1="656.8" x2="620.8" y2="613.6" stroke="#10B981" stroke-width="1" opacity="0.31272282015068903"/><line x1="664" y1="656.8" x2="613.6" y2="606.4" stroke="#10B981" stroke-width="1" opacity="0.2981766235091372"/><line x1="664" y1="656.8" x2="606.4" y2="599.2" stroke="#10B981" stroke-width="1" opacity="0.28363042686758544"/><line x1="664" y1="656.8" x2="599.2" y2="592" stroke="#10B981" stroke-width="1" opacity="0.26908423022603356"/><line x1="664" y1="656.8" x2="592" y2="584.8" stroke="#10B981" stroke-width="1" opacity="0.2545380335844817"/><line x1="664" y1="656.8" x2="584.8" y2="577.5999999999999" stroke="#10B981" stroke-width="1" opacity="0.23999183694292975"/><line x1="656.8" y1="649.6" x2="649.6" y2="642.4" stroke="#10B981" stroke-width="1" opacity="0.3854538033584482"/><line x1="656.8" y1="649.6" x2="642.4" y2="635.2" stroke="#10B981" stroke-width="1" opacity="0.3709076067168964"/><line x1="656.8" y1="649.6" x2="635.2" y2="628" stroke="#10B981" stroke-width="1" opacity="0.3563614100753446"/><line x1="656.8" y1="649.6" x2="628" y2="620.8" stroke="#10B981" stroke-width="1" opacity="0.3418152134337927"/><line x1="656.8" y1="649.6" x2="620.8" y2="613.6" stroke="#10B981" stroke-width="1" opacity="0.32726901679224085"/><line x1="656.8" y1="649.6" x2="613.6" y2="606.4" stroke="#10B981" stroke-width="1" opacity="0.31272282015068903"/><line x1="656.8" y1="649.6" x2="606.4" y2="599.2" stroke="#10B981" stroke-width="1" opacity="0.2981766235091372"/><line x1="656.8" y1="649.6" x2="599.2" y2="592" stroke="#10B981" stroke-width="1" opacity="0.28363042686758544"/><line x1="656.8" y1="649.6" x2="592" y2="584.8" stroke="#10B981" stroke-width="1" opacity="0.26908423022603345"/><line x1="656.8" y1="649.6" x2="584.8" y2="577.5999999999999" stroke="#10B981" stroke-width="1" opacity="0.25453803358448157"/><line x1="649.6" y1="642.4" x2="642.4" y2="635.2" stroke="#10B981" stroke-width="1" opacity="0.3854538033584482"/><line x1="649.6" y1="642.4" x2="635.2" y2="628" stroke="#10B981" stroke-width="1" opacity="0.3709076067168964"/><line x1="649.6" y1="642.4" x2="628" y2="620.8" stroke="#10B981" stroke-width="1" opacity="0.3563614100753445"/><line x1="649.6" y1="642.4" x2="620.8" y2="613.6" stroke="#10B981" stroke-width="1" opacity="0.3418152134337927"/><line x1="649.6" y1="642.4" x2="613.6" y2="606.4" stroke="#10B981" stroke-width="1" opacity="0.32726901679224085"/><line x1="649.6" y1="642.4" x2="606.4" y2="599.2" stroke="#10B981" stroke-width="1" opacity="0.31272282015068903"/><line x1="649.6" y1="642.4" x2="599.2" y2="592" stroke="#10B981" stroke-width="1" opacity="0.2981766235091372"/><line x1="649.6" y1="642.4" x2="592" y2="584.8" stroke="#10B981" stroke-width="1" opacity="0.28363042686758533"/><line x1="649.6" y1="642.4" x2="584.8" y2="577.5999999999999" stroke="#10B981" stroke-width="1" opacity="0.26908423022603334"/><line x1="642.4" y1="635.2" x2="635.2" y2="628" stroke="#10B981" stroke-width="1" opacity="0.3854538033584482"/><line x1="642.4" y1="635.2" x2="628" y2="620.8" stroke="#10B981" stroke-width="1" opacity="0.37090760671689627"/><line x1="642.4" y1="635.2" x2="620.8" y2="613.6" stroke="#10B981" stroke-width="1" opacity="0.3563614100753445"/><line x1="642.4" y1="635.2" x2="613.6" y2="606.4" stroke="#10B981" stroke-width="1" opacity="0.3418152134337927"/><line x1="642.4" y1="635.2" x2="606.4" y2="599.2" stroke="#10B981" stroke-width="1" opacity="0.32726901679224085"/><line x1="642.4" y1="635.2" x2="599.2" y2="592" stroke="#10B981" stroke-width="1" opacity="0.31272282015068903"/><line x1="642.4" y1="635.2" x2="592" y2="584.8" stroke="#10B981" stroke-width="1" opacity="0.2981766235091371"/><line x1="642.4" y1="635.2" x2="584.8" y2="577.5999999999999" stroke="#10B981" stroke-width="1" opacity="0.2836304268675852"/><line x1="635.2" y1="628" x2="628" y2="620.8" stroke="#10B981" stroke-width="1" opacity="0.3854538033584481"/><line x1="635.2" y1="628" x2="620.8" y2="613.6" stroke="#10B981" stroke-width="1" opacity="0.37090760671689627"/><line x1="635.2" y1="628" x2="613.6" y2="606.4" stroke="#10B981" stroke-width="1" opacity="0.3563614100753445"/><line x1="635.2" y1="628" x2="606.4" y2="599.2" stroke="#10B981" stroke-width="1" opacity="0.3418152134337927"/><line x1="635.2" y1="628" x2="599.2" y2="592" stroke="#10B981" stroke-width="1" opacity="0.32726901679224085"/><line x1="635.2" y1="628" x2="592" y2="584.8" stroke="#10B981" stroke-width="1" opacity="0.3127228201506889"/><line x1="635.2" y1="628" x2="584.8" y2="577.5999999999999" stroke="#10B981" stroke-width="1" opacity="0.298176623509137"/><line x1="628" y1="620.8" x2="620.8" y2="613.6" stroke="#10B981" stroke-width="1" opacity="0.3854538033584482"/><line x1="628" y1="620.8" x2="613.6" y2="606.4" stroke="#10B981" stroke-width="1" opacity="0.3709076067168964"/><line x1="628" y1="620.8" x2="606.4" y2="599.2" stroke="#10B981" stroke-width="1" opacity="0.3563614100753446"/><line x1="628" y1="620.8" x2="599.2" y2="592" stroke="#10B981" stroke-width="1" opacity="0.3418152134337928"/><line x1="628" y1="620.8" x2="592" y2="584.8" stroke="#10B981" stroke-width="1" opacity="0.32726901679224085"/><line x1="628" y1="620.8" x2="584.8" y2="577.5999999999999" stroke="#10B981" stroke-width="1" opacity="0.3127228201506889"/><line x1="620.8" y1="613.6" x2="613.6" y2="606.4" stroke="#10B981" stroke-width="1" opacity="0.3854538033584482"/><line x1="620.8" y1="613.6" x2="606.4" y2="599.2" stroke="#10B981" stroke-width="1" opacity="0.3709076067168964"/><line x1="620.8" y1="613.6" x2="599.2" y2="592" stroke="#10B981" stroke-width="1" opacity="0.3563614100753446"/><line x1="620.8" y1="613.6" x2="592" y2="584.8" stroke="#10B981" stroke-width="1" opacity="0.3418152134337927"/><line x1="620.8" y1="613.6" x2="584.8" y2="577.5999999999999" stroke="#10B981" stroke-width="1" opacity="0.32726901679224074"/><line x1="613.6" y1="606.4" x2="606.4" y2="599.2" stroke="#10B981" stroke-width="1" opacity="0.3854538033584482"/><line x1="613.6" y1="606.4" x2="599.2" y2="592" stroke="#10B981" stroke-width="1" opacity="0.3709076067168964"/><line x1="613.6" y1="606.4" x2="592" y2="584.8" stroke="#10B981" stroke-width="1" opacity="0.3563614100753445"/><line x1="613.6" y1="606.4" x2="584.8" y2="577.5999999999999" stroke="#10B981" stroke-width="1" opacity="0.34181521343379256"/><line x1="606.4" y1="599.2" x2="599.2" y2="592" stroke="#10B981" stroke-width="1" opacity="0.3854538033584482"/><line x1="606.4" y1="599.2" x2="592" y2="584.8" stroke="#10B981" stroke-width="1" opacity="0.37090760671689627"/><line x1="606.4" y1="599.2" x2="584.8" y2="577.5999999999999" stroke="#10B981" stroke-width="1" opacity="0.35636141007534433"/><line x1="599.2" y1="592" x2="592" y2="584.8" stroke="#10B981" stroke-width="1" opacity="0.3854538033584481"/><line x1="599.2" y1="592" x2="584.8" y2="577.5999999999999" stroke="#10B981" stroke-width="1" opacity="0.37090760671689615"/><line x1="592" y1="584.8" x2="584.8" y2="577.5999999999999" stroke="#10B981" stroke-width="1" opacity="0.3854538033584481"/><circle cx="692.8" cy="685.5999999999999" r="6" fill="#F59E0B" opacity="0.8"/><circle cx="685.5999999999999" cy="678.4" r="6" fill="#F59E0B" opacity="0.8"/><circle cx="678.4" cy="671.2" r="6" fill="#F59E0B" opacity="0.8"/><circle cx="671.2" cy="664" r="6" fill="#F59E0B" opacity="0.8"/><circle cx="664" cy="656.8" r="6" fill="#F59E0B" opacity="0.8"/><circle cx="656.8" cy="649.6" r="6" fill="#F59E0B" opacity="0.8"/><circle cx="649.6" cy="642.4" r="6" fill="#F59E0B" opacity="0.8"/><circle cx="642.4" cy="635.2" r="6" fill="#F59E0B" opacity="0.8"/><circle cx="635.2" cy="628" r="6" fill="#F59E0B" opacity="0.8"/><circle cx="628" cy="620.8" r="6" fill="#F59E0B" opacity="0.8"/><circle cx="620.8" cy="613.6" r="6" fill="#F59E0B" opacity="0.8"/><circle cx="613.6" cy="606.4" r="6" fill="#F59E0B" opacity="0.8"/><circle cx="606.4" cy="599.2" r="6" fill="#F59E0B" opacity="0.8"/><circle cx="599.2" cy="592" r="6" fill="#F59E0B" opacity="0.8"/><circle cx="592" cy="584.8" r="6" fill="#F59E0B" opacity="0.8"/><circle cx="584.8" cy="577.5999999999999" r="6" fill="#F59E0B" opacity="0.8"/>
    <text x="500" y="960" font-family="system-ui, sans-serif" font-size="36" font-weight="700" fill="white" text-anchor="middle" opacity="0.85">call</text>
  </svg>