<svg xmlns="http://www.w3.org/2000/svg" viewBox="0 0 1000 1000" width="1000" height="1000">
    <defs>
      <linearGradient id="g405" x1="0" y1="0" x2="1" y2="1">
        <stop offset="0%" stop-color="#F59E0B"/>
        <stop offset="100%" stop-color="#EF4444"/>
      </linearGradient>
      <radialGradient id="glow405" cx="50%" cy="50%" r="60%">
        <stop offset="0%" stop-color="#FCD34D" stop-opacity="0.2"/>
        <stop offset="100%" stop-color="#FCD34D" stop-opacity="0"/>
      </radialGradient>
    </defs>
    <rect width="1000" height="1000" fill="#030712"/>
    <rect width="1000" height="1000" fill="url(#glow405)"/>
    <rect x="7.5" y="434.25" width="35" height="131.5" fill="#EF4444" opacity="0.3756" rx="4"/><rect x="57.5" y="418.5" width="35" height="163" fill="#F59E0B" opacity="0.4134" rx="4"/><rect x="107.5" y="402.75" width="35" height="194.5" fill="#EF4444" opacity="0.4512" rx="4"/><rect x="157.5" y="387" width="35" height="226" fill="#F59E0B" opacity="0.489" rx="4"/><rect x="207.5" y="371.25" width="35" height="257.5" fill="#EF4444" opacity="0.5267999999999999" rx="4"/><rect x="257.5" y="355.5" width="35" height="289" fill="#F59E0B" opacity="0.5646" rx="4"/><rect x="307.5" y="339.75" width="35" height="320.5" fill="#EF4444" opacity="0.6024" rx="4"/><rect x="357.5" y="324" width="35" height="352" fill="#F59E0B" opacity="0.6401999999999999" rx="4"/><rect x="407.5" y="308.25" width="35" height="383.5" fill="#EF4444" opacity="0.6779999999999999" rx="4"/><rect x="457.5" y="292.5" width="35" height="415" fill="#F59E0B" opacity="0.7158" rx="4"/><rect x="507.5" y="276.75" width="35" height="446.5" fill="#EF4444" opacity="0.7536" rx="4"/><rect x="557.5" y="261" width="35" height="478" fill="#F59E0B" opacity="0.7913999999999999" rx="4"/><rect x="607.5" y="245.25" width="35" height="509.5" fill="#EF4444" opacity="0.8291999999999999" rx="4"/><rect x="657.5" y="229.5" width="35" height="541" fill="#F59E0B" opacity="0.867" rx="4"/><rect x="707.5" y="213.75" width="35" height="572.5" fill="#EF4444" opacity="0.3048" rx="4"/><rect x="757.5" y="448" width="35" height="104" fill="#F59E0B" opacity="0.34259999999999996" rx="4"/><rect x="807.5" y="432.25" width="35" height="135.5" fill="#EF4444" opacity="0.38039999999999996" rx="4"/><rect x="857.5" y="416.5" width="35" height="167" fill="#F59E0B" opacity="0.4182" rx="4"/><rect x="907.5" y="400.75" width="35" height="198.5" fill="#EF4444" opacity="0.45599999999999996" rx="4"/><rect x="957.5" y="385" width="35" height="230" fill="#F59E0B" opacity="0.4938" rx="4"/>
    <text x="500" y="960" font-family="system-ui, sans-serif" font-size="36" font-weight="700" fill="white" text-anchor="middle" opacity="0.85">message</text>
  </svg>