<svg xmlns="http://www.w3.org/2000/svg" viewBox="0 0 1000 1000" width="1000" height="1000">
    <defs>
      <linearGradient id="g411" x1="0" y1="0" x2="1" y2="1">
        <stop offset="0%" stop-color="#F59E0B"/>
        <stop offset="100%" stop-color="#EF4444"/>
      </linearGradient>
      <radialGradient id="glow411" cx="50%" cy="50%" r="60%">
        <stop offset="0%" stop-color="#FCD34D" stop-opacity="0.2"/>
        <stop offset="100%" stop-color="#FCD34D" stop-opacity="0"/>
      </radialGradient>
    </defs>
    <rect width="1000" height="1000" fill="#030712"/>
    <rect width="1000" height="1000" fill="url(#glow411)"/>
    <path d="M 0 500 L 0 647.8479491038773 L 16.666666666666668 648.4353429783172 L 33.333333333333336 634.4928508474547 L 50 607.3852622427834 L 66.66666666666667 569.7660544027248 L 83.33333333333333 525.317660895202 L 100 478.3909984371102 L 116.66666666666667 433.57957352440883 L 133.33333333333334 395.2698446924978 L 150 367.2118317217444 L 166.66666666666666 352.1520509463577 L 183.33333333333331 351.5646573008057 L 200 365.50714902075475 L 216.66666666666669 392.6147375494124 L 233.33333333333334 430.2339453337987 L 250 474.68233881143993 L 266.6666666666667 521.6090034802253 L 283.3333333333333 566.4204262087322 L 300 604.7301550944297 L 316.66666666666663 632.7881681398267 L 333.3333333333333 647.8479490034074 L 350 648.4353427420706 L 366.66666666666663 634.4928511110359 L 383.33333333333337 607.3852610977909 L 400 569.7660549296779 L 416.6666666666667 525.3176614819181 L 433.33333333333337 478.39099681429826 L 450 433.5795740581268 L 466.6666666666667 395.26984351847767 L 483.3333333333333 367.2118319986022 L 500 352.15205104682764 L 516.6666666666667 351.5646572150531 L 533.3333333333334 365.50714875717364 L 550 392.6147386944048 L 566.6666666666666 430.23394480684556 L 583.3333333333334 474.68233822472394 L 600 521.6090028911783 L 616.6666666666667 566.4204256750143 L 633.3333333333333 604.73015626845 L 650 632.7881678629689 L 666.6666666666666 647.8479492801999 L 683.3333333333334 648.4353428278232 L 700 634.492851374617 L 716.6666666666666 607.3852615133994 L 733.3333333333333 569.7660554566311 L 750 525.317659865528 L 766.6666666666667 478.39099740334524 L 783.3333333333334 433.5795745918448 L 800 395.26984394462255 L 816.6666666666666 367.21183227546004 L 833.3333333333334 352.15205077003503 L 850 351.5646571293005 L 866.6666666666667 365.50714849359247 L 883.3333333333333 392.6147382787964 L 900 430.2339442798924 L 916.6666666666666 474.68233984111407 L 933.3333333333334 521.6090023021312 L 950 566.4204271453959 L 966.6666666666666 604.730155842305 L 983.3333333333333 632.7881675861111 L 1000 647.84794917973" stroke="#F59E0B" stroke-width="3" fill="none" opacity="0.7"/><path d="M 0 500 L 0 566.8784404990154 L 16.666666666666668 540.7927441884326 L 33.333333333333336 515.3345085781382 L 50 492.2386675677514 L 66.66666666666667 473.0791670775131 L 83.33333333333333 459.16169330693526 L 100 451.43470061416014 L 116.66666666666667 450.42476993629646 L 133.33333333333334 456.20072649037945 L 150 468.36894901444094 L 166.66666666666666 486.10019192310835 L 183.33333333333331 508.1861022544746 L 200 533.1215593054126 L 216.66666666666669 559.2072556139915 L 233.33333333333334 584.6654912357465 L 250 607.7613322702773 L 266.6666666666667 626.9208327956977 L 283.3333333333333 640.8383066100981 L 300 648.5652993523499 L 316.66666666666663 649.5752300819724 L 333.3333333333333 643.7992735784034 L 350 631.6310511001684 L 366.66666666666663 613.8998082295169 L 383.33333333333337 591.8138979257657 L 400 566.8784408901594 L 416.6666666666667 540.7927445835844 L 433.33333333333337 515.3345089503688 L 450 492.238667891694 L 466.6666666666667 473.0791673310914 L 483.3333333333333 459.1616934728685 L 500 451.4347006811401 L 516.6666666666667 450.42476989975864 L 533.3333333333334 456.20072635281383 L 550 468.36894878522236 L 566.6666666666666 486.1001916178577 L 583.3333333333334 508.1861018939942 L 600 533.1215589142687 L 616.6666666666667 559.2072552188397 L 633.3333333333333 584.6654908635159 L 650 607.7613319463347 L 666.6666666666666 626.9208325421193 L 683.3333333333334 640.8383064441649 L 700 648.56529928537 L 716.6666666666666 649.5752301185103 L 733.3333333333333 643.799273715969 L 750 631.631051329387 L 766.6666666666667 613.8998073885579 L 783.3333333333334 591.8138982862461 L 800 566.878439812566 L 816.6666666666666 540.7927449787362 L 833.3333333333334 515.3345079248813 L 850 492.2386682156365 L 866.6666666666667 473.07916663248847 L 883.3333333333333 459.1616936388017 L 900 451.4347004966117 L 916.6666666666666 450.4247698632208 L 933.3333333333334 456.20072673180425 L 950 468.3689485560038 L 966.6666666666666 486.1001924588168 L 983.3333333333333 508.18610153351375 L 1000 533.1215599918621" stroke="#EF4444" stroke-width="2" fill="none" opacity="0.5"/>
    <text x="500" y="960" font-family="system-ui, sans-serif" font-size="36" font-weight="700" fill="white" text-anchor="middle" opacity="0.85">watch</text>
  </svg>