<svg xmlns="http://www.w3.org/2000/svg" viewBox="0 0 1000 1000" width="1000" height="1000">
    <defs>
      <linearGradient id="g415" x1="0" y1="0" x2="1" y2="1">
        <stop offset="0%" stop-color="#06B6D4"/>
        <stop offset="100%" stop-color="#0EA5E9"/>
      </linearGradient>
      <radialGradient id="glow415" cx="50%" cy="50%" r="60%">
        <stop offset="0%" stop-color="#67E8F9" stop-opacity="0.2"/>
        <stop offset="100%" stop-color="#67E8F9" stop-opacity="0"/>
      </radialGradient>
    </defs>
    <rect width="1000" height="1000" fill="#030712"/>
    <rect width="1000" height="1000" fill="url(#glow415)"/>
    <rect x="7.5" y="424.25" width="35" height="151.5" fill="#0EA5E9" opacity="0.4236" rx="4"/><rect x="57.5" y="398.5" width="35" height="203" fill="#06B6D4" opacity="0.48539999999999994" rx="4"/><rect x="107.5" y="372.75" width="35" height="254.5" fill="#0EA5E9" opacity="0.5471999999999999" rx="4"/><rect x="157.5" y="347" width="35" height="306" fill="#06B6D4" opacity="0.609" rx="4"/><rect x="207.5" y="321.25" width="35" height="357.5" fill="#0EA5E9" opacity="0.6708" rx="4"/><rect x="257.5" y="295.5" width="35" height="409" fill="#06B6D4" opacity="0.7325999999999999" rx="4"/><rect x="307.5" y="269.75" width="35" height="460.5" fill="#0EA5E9" opacity="0.7944" rx="4"/><rect x="357.5" y="244" width="35" height="512" fill="#06B6D4" opacity="0.8562000000000001" rx="4"/><rect x="407.5" y="218.25" width="35" height="563.5" fill="#0EA5E9" opacity="0.318" rx="4"/><rect x="457.5" y="442.5" width="35" height="115" fill="#06B6D4" opacity="0.37979999999999997" rx="4"/><rect x="507.5" y="416.75" width="35" height="166.5" fill="#0EA5E9" opacity="0.4416" rx="4"/><rect x="557.5" y="391" width="35" height="218" fill="#06B6D4" opacity="0.5034" rx="4"/><rect x="607.5" y="365.25" width="35" height="269.5" fill="#0EA5E9" opacity="0.5651999999999999" rx="4"/><rect x="657.5" y="339.5" width="35" height="321" fill="#06B6D4" opacity="0.627" rx="4"/><rect x="707.5" y="313.75" width="35" height="372.5" fill="#0EA5E9" opacity="0.6888" rx="4"/><rect x="757.5" y="288" width="35" height="424" fill="#06B6D4" opacity="0.7505999999999999" rx="4"/><rect x="807.5" y="262.25" width="35" height="475.5" fill="#0EA5E9" opacity="0.8124" rx="4"/><rect x="857.5" y="236.5" width="35" height="527" fill="#06B6D4" opacity="0.8741999999999999" rx="4"/><rect x="907.5" y="210.75" width="35" height="578.5" fill="#0EA5E9" opacity="0.33599999999999997" rx="4"/><rect x="957.5" y="435" width="35" height="130" fill="#06B6D4" opacity="0.3978" rx="4"/>
    <text x="500" y="960" font-family="system-ui, sans-serif" font-size="36" font-weight="700" fill="white" text-anchor="middle" opacity="0.85">mic</text>
  </svg>