<svg xmlns="http://www.w3.org/2000/svg" viewBox="0 0 1000 1000" width="1000" height="1000">
    <defs>
      <linearGradient id="g420" x1="0" y1="0" x2="1" y2="1">
        <stop offset="0%" stop-color="#6366F1"/>
        <stop offset="100%" stop-color="#8B5CF6"/>
      </linearGradient>
      <radialGradient id="glow420" cx="50%" cy="50%" r="60%">
        <stop offset="0%" stop-color="#A78BFA" stop-opacity="0.2"/>
        <stop offset="100%" stop-color="#A78BFA" stop-opacity="0"/>
      </radialGradient>
    </defs>
    <rect width="1000" height="1000" fill="#030712"/>
    <rect width="1000" height="1000" fill="url(#glow420)"/>
    <line x1="528.8" y1="357.6" x2="586.4" y2="415.2" stroke="#6366F1" stroke-width="1" opacity="0.28363042686758533"/><line x1="528.8" y1="357.6" x2="644" y2="472.8" stroke="#6366F1" stroke-width="1" opacity="0.16726085373517063"/><line x1="528.8" y1="357.6" x2="472.8" y2="301.6" stroke="#6366F1" stroke-width="1" opacity="0.2868629150101525"/><line x1="528.8" y1="357.6" x2="530.4" y2="359.2" stroke="#6366F1" stroke-width="1" opacity="0.396767511857433"/><line x1="528.8" y1="357.6" x2="588" y2="416.8" stroke="#6366F1" stroke-width="1" opacity="0.2803979387250182"/><line x1="528.8" y1="357.6" x2="645.6" y2="474.4" stroke="#6366F1" stroke-width="1" opacity="0.16402836559260356"/><line x1="528.8" y1="357.6" x2="474.4" y2="303.2" stroke="#6366F1" stroke-width="1" opacity="0.2900954031527195"/><line x1="528.8" y1="357.6" x2="532" y2="360.8" stroke="#6366F1" stroke-width="1" opacity="0.3935350237148658"/><line x1="357.6" y1="586.4" x2="415.2" y2="644" stroke="#6366F1" stroke-width="1" opacity="0.28363042686758533"/><line x1="357.6" y1="586.4" x2="301.6" y2="530.4" stroke="#6366F1" stroke-width="1" opacity="0.28686291501015243"/><line x1="357.6" y1="586.4" x2="359.2" y2="588" stroke="#6366F1" stroke-width="1" opacity="0.396767511857433"/><line x1="357.6" y1="586.4" x2="416.8" y2="645.6" stroke="#6366F1" stroke-width="1" opacity="0.2803979387250182"/><line x1="357.6" y1="586.4" x2="303.2" y2="532" stroke="#6366F1" stroke-width="1" opacity="0.2900954031527195"/><line x1="357.6" y1="586.4" x2="360.8" y2="589.5999999999999" stroke="#6366F1" stroke-width="1" opacity="0.39353502371486593"/><line x1="586.4" y1="415.2" x2="644" y2="472.8" stroke="#6366F1" stroke-width="1" opacity="0.28363042686758533"/><line x1="586.4" y1="415.2" x2="472.8" y2="301.6" stroke="#6366F1" stroke-width="1" opacity="0.17049334187773782"/><line x1="586.4" y1="415.2" x2="530.4" y2="359.2" stroke="#6366F1" stroke-width="1" opacity="0.28686291501015243"/><line x1="586.4" y1="415.2" x2="588" y2="416.8" stroke="#6366F1" stroke-width="1" opacity="0.3967675118574329"/><line x1="586.4" y1="415.2" x2="645.6" y2="474.4" stroke="#6366F1" stroke-width="1" opacity="0.2803979387250182"/><line x1="586.4" y1="415.2" x2="474.4" y2="303.2" stroke="#6366F1" stroke-width="1" opacity="0.1737258300203048"/><line x1="586.4" y1="415.2" x2="532" y2="360.8" stroke="#6366F1" stroke-width="1" opacity="0.29009540315271953"/><line x1="415.2" y1="644" x2="301.6" y2="530.4" stroke="#6366F1" stroke-width="1" opacity="0.17049334187773774"/><line x1="415.2" y1="644" x2="359.2" y2="588" stroke="#6366F1" stroke-width="1" opacity="0.28686291501015243"/><line x1="415.2" y1="644" x2="416.8" y2="645.6" stroke="#6366F1" stroke-width="1" opacity="0.3967675118574329"/><line x1="415.2" y1="644" x2="303.2" y2="532" stroke="#6366F1" stroke-width="1" opacity="0.1737258300203048"/><line x1="415.2" y1="644" x2="360.8" y2="589.5999999999999" stroke="#6366F1" stroke-width="1" opacity="0.2900954031527194"/><line x1="644" y1="472.8" x2="472.8" y2="301.6" stroke="#6366F1" stroke-width="1" opacity="0.0541237687453231"/><line x1="644" y1="472.8" x2="530.4" y2="359.2" stroke="#6366F1" stroke-width="1" opacity="0.1704933418777377"/><line x1="644" y1="472.8" x2="588" y2="416.8" stroke="#6366F1" stroke-width="1" opacity="0.28686291501015243"/><line x1="644" y1="472.8" x2="645.6" y2="474.4" stroke="#6366F1" stroke-width="1" opacity="0.396767511857433"/><line x1="644" y1="472.8" x2="474.4" y2="303.2" stroke="#6366F1" stroke-width="1" opacity="0.05735625688789009"/><line x1="644" y1="472.8" x2="532" y2="360.8" stroke="#6366F1" stroke-width="1" opacity="0.1737258300203048"/><line x1="472.8" y1="301.6" x2="530.4" y2="359.2" stroke="#6366F1" stroke-width="1" opacity="0.28363042686758544"/><line x1="472.8" y1="301.6" x2="588" y2="416.8" stroke="#6366F1" stroke-width="1" opacity="0.1672608537351707"/><line x1="472.8" y1="301.6" x2="645.6" y2="474.4" stroke="#6366F1" stroke-width="1" opacity="0.05089128060275605"/><line x1="472.8" y1="301.6" x2="474.4" y2="303.2" stroke="#6366F1" stroke-width="1" opacity="0.39676751185743303"/><line x1="472.8" y1="301.6" x2="532" y2="360.8" stroke="#6366F1" stroke-width="1" opacity="0.2803979387250183"/><line x1="301.6" y1="530.4" x2="359.2" y2="588" stroke="#6366F1" stroke-width="1" opacity="0.28363042686758533"/><line x1="301.6" y1="530.4" x2="416.8" y2="645.6" stroke="#6366F1" stroke-width="1" opacity="0.16726085373517063"/><line x1="301.6" y1="530.4" x2="303.2" y2="532" stroke="#6366F1" stroke-width="1" opacity="0.396767511857433"/><line x1="301.6" y1="530.4" x2="360.8" y2="589.5999999999999" stroke="#6366F1" stroke-width="1" opacity="0.28039793872501834"/><line x1="530.4" y1="359.2" x2="588" y2="416.8" stroke="#6366F1" stroke-width="1" opacity="0.28363042686758533"/><line x1="530.4" y1="359.2" x2="645.6" y2="474.4" stroke="#6366F1" stroke-width="1" opacity="0.16726085373517063"/><line x1="530.4" y1="359.2" x2="474.4" y2="303.2" stroke="#6366F1" stroke-width="1" opacity="0.28686291501015243"/><line x1="530.4" y1="359.2" x2="532" y2="360.8" stroke="#6366F1" stroke-width="1" opacity="0.3967675118574329"/><line x1="359.2" y1="588" x2="416.8" y2="645.6" stroke="#6366F1" stroke-width="1" opacity="0.28363042686758533"/><line x1="359.2" y1="588" x2="303.2" y2="532" stroke="#6366F1" stroke-width="1" opacity="0.28686291501015243"/><line x1="359.2" y1="588" x2="360.8" y2="589.5999999999999" stroke="#6366F1" stroke-width="1" opacity="0.39676751185743303"/><line x1="588" y1="416.8" x2="645.6" y2="474.4" stroke="#6366F1" stroke-width="1" opacity="0.28363042686758533"/><line x1="588" y1="416.8" x2="474.4" y2="303.2" stroke="#6366F1" stroke-width="1" opacity="0.1704933418777377"/><line x1="588" y1="416.8" x2="532" y2="360.8" stroke="#6366F1" stroke-width="1" opacity="0.28686291501015243"/><line x1="416.8" y1="645.6" x2="303.2" y2="532" stroke="#6366F1" stroke-width="1" opacity="0.1704933418777377"/><line x1="416.8" y1="645.6" x2="360.8" y2="589.5999999999999" stroke="#6366F1" stroke-width="1" opacity="0.28686291501015226"/><line x1="645.6" y1="474.4" x2="474.4" y2="303.2" stroke="#6366F1" stroke-width="1" opacity="0.05412376874532299"/><line x1="645.6" y1="474.4" x2="532" y2="360.8" stroke="#6366F1" stroke-width="1" opacity="0.17049334187773774"/><line x1="474.4" y1="303.2" x2="532" y2="360.8" stroke="#6366F1" stroke-width="1" opacity="0.28363042686758533"/><line x1="303.2" y1="532" x2="360.8" y2="589.5999999999999" stroke="#6366F1" stroke-width="1" opacity="0.28363042686758544"/><circle cx="528.8" cy="357.6" r="6" fill="#06B6D4" opacity="0.8"/><circle cx="357.6" cy="586.4" r="6" fill="#06B6D4" opacity="0.8"/><circle cx="586.4" cy="415.2" r="6" fill="#06B6D4" opacity="0.8"/><circle cx="415.2" cy="644" r="6" fill="#06B6D4" opacity="0.8"/><circle cx="644" cy="472.8" r="6" fill="#06B6D4" opacity="0.8"/><circle cx="472.8" cy="301.6" r="6" fill="#06B6D4" opacity="0.8"/><circle cx="301.6" cy="530.4" r="6" fill="#06B6D4" opacity="0.8"/><circle cx="530.4" cy="359.2" r="6" fill="#06B6D4" opacity="0.8"/><circle cx="359.2" cy="588" r="6" fill="#06B6D4" opacity="0.8"/><circle cx="588" cy="416.8" r="6" fill="#06B6D4" opacity="0.8"/><circle cx="416.8" cy="645.6" r="6" fill="#06B6D4" opacity="0.8"/><circle cx="645.6" cy="474.4" r="6" fill="#06B6D4" opacity="0.8"/><circle cx="474.4" cy="303.2" r="6" fill="#06B6D4" opacity="0.8"/><circle cx="303.2" cy="532" r="6" fill="#06B6D4" opacity="0.8"/><circle cx="532" cy="360.8" r="6" fill="#06B6D4" opacity="0.8"/><circle cx="360.8" cy="589.5999999999999" r="6" fill="#06B6D4" opacity="0.8"/>
    <text x="500" y="960" font-family="system-ui, sans-serif" font-size="36" font-weight="700" fill="white" text-anchor="middle" opacity="0.85">gpu</text>
  </svg>