<svg xmlns="http://www.w3.org/2000/svg" viewBox="0 0 1000 1000" width="1000" height="1000">
    <defs>
      <linearGradient id="g422" x1="0" y1="0" x2="1" y2="1">
        <stop offset="0%" stop-color="#10B981"/>
        <stop offset="100%" stop-color="#14B8A6"/>
      </linearGradient>
      <radialGradient id="glow422" cx="50%" cy="50%" r="60%">
        <stop offset="0%" stop-color="#6EE7B7" stop-opacity="0.2"/>
        <stop offset="100%" stop-color="#6EE7B7" stop-opacity="0"/>
      </radialGradient>
    </defs>
    <rect width="1000" height="1000" fill="#030712"/>
    <rect width="1000" height="1000" fill="url(#glow422)"/>
    <rect x="7.5" y="436.75" width="35" height="126.5" fill="#14B8A6" opacity="0.3636" rx="4"/><rect x="57.5" y="423.5" width="35" height="153" fill="#10B981" opacity="0.3954" rx="4"/><rect x="107.5" y="410.25" width="35" height="179.5" fill="#14B8A6" opacity="0.42719999999999997" rx="4"/><rect x="157.5" y="397" width="35" height="206" fill="#10B981" opacity="0.45899999999999996" rx="4"/><rect x="207.5" y="383.75" width="35" height="232.5" fill="#14B8A6" opacity="0.4908" rx="4"/><rect x="257.5" y="370.5" width="35" height="259" fill="#10B981" opacity="0.5226" rx="4"/><rect x="307.5" y="357.25" width="35" height="285.5" fill="#14B8A6" opacity="0.5544" rx="4"/><rect x="357.5" y="344" width="35" height="312" fill="#10B981" opacity="0.5861999999999999" rx="4"/><rect x="407.5" y="330.75" width="35" height="338.5" fill="#14B8A6" opacity="0.618" rx="4"/><rect x="457.5" y="317.5" width="35" height="365" fill="#10B981" opacity="0.6497999999999999" rx="4"/><rect x="507.5" y="304.25" width="35" height="391.5" fill="#14B8A6" opacity="0.6816" rx="4"/><rect x="557.5" y="291" width="35" height="418" fill="#10B981" opacity="0.7133999999999999" rx="4"/><rect x="607.5" y="277.75" width="35" height="444.5" fill="#14B8A6" opacity="0.7452" rx="4"/><rect x="657.5" y="264.5" width="35" height="471" fill="#10B981" opacity="0.7769999999999999" rx="4"/><rect x="707.5" y="251.25" width="35" height="497.5" fill="#14B8A6" opacity="0.8088" rx="4"/><rect x="757.5" y="238" width="35" height="524" fill="#10B981" opacity="0.8406" rx="4"/><rect x="807.5" y="224.75" width="35" height="550.5" fill="#14B8A6" opacity="0.8723999999999998" rx="4"/><rect x="857.5" y="211.5" width="35" height="577" fill="#10B981" opacity="0.30419999999999997" rx="4"/><rect x="907.5" y="448.25" width="35" height="103.5" fill="#14B8A6" opacity="0.33599999999999997" rx="4"/><rect x="957.5" y="435" width="35" height="130" fill="#10B981" opacity="0.3678" rx="4"/>
    <text x="500" y="960" font-family="system-ui, sans-serif" font-size="36" font-weight="700" fill="white" text-anchor="middle" opacity="0.85">storage</text>
  </svg>