<svg xmlns="http://www.w3.org/2000/svg" viewBox="0 0 1000 1000" width="1000" height="1000">
    <defs>
      <linearGradient id="g428" x1="0" y1="0" x2="1" y2="1">
        <stop offset="0%" stop-color="#10B981"/>
        <stop offset="100%" stop-color="#14B8A6"/>
      </linearGradient>
      <radialGradient id="glow428" cx="50%" cy="50%" r="60%">
        <stop offset="0%" stop-color="#6EE7B7" stop-opacity="0.2"/>
        <stop offset="100%" stop-color="#6EE7B7" stop-opacity="0"/>
      </radialGradient>
    </defs>
    <rect width="1000" height="1000" fill="#030712"/>
    <rect width="1000" height="1000" fill="url(#glow428)"/>
    <circle cx="303.086714728819" cy="717.7753844760939" r="2.808" fill="#F59E0B" opacity="0.5808"/><circle cx="495.9453867200109" cy="459.80397891395546" r="5.744" fill="#10B981" opacity="0.8009999999999999"/><circle cx="650.753636205122" cy="610.9827967341503" r="8.68" fill="#14B8A6" opacity="0.4212"/><circle cx="172.72841250366156" cy="566.703133491812" r="3.616" fill="#F59E0B" opacity="0.6414"/><circle cx="541.13054639263" cy="430.4520442180813" r="6.552" fill="#14B8A6" opacity="0.8615999999999999"/><circle cx="567.6066639669332" cy="717.3271703843359" r="9.488" fill="#10B981" opacity="0.4818"/><circle cx="160.23783145180573" cy="342.71990328261984" r="4.4239999999999995" fill="#F59E0B" opacity="0.702"/><circle cx="611.5320999007434" cy="452.5655115793311" r="7.36" fill="#10B981" opacity="0.3222"/><circle cx="412.39400805247544" cy="753.2769041481877" r="2.296" fill="#14B8A6" opacity="0.5424"/><circle cx="492.87004562329463" cy="487.03066113535084" r="5.232" fill="#F59E0B" opacity="0.7626"/><circle cx="657.2527193747117" cy="537.230931350937" r="8.168" fill="#14B8A6" opacity="0.3828"/><circle cx="246.02254689139295" cy="674.9457439106917" r="3.104" fill="#10B981" opacity="0.603"/><circle cx="507.26235262189397" cy="445.27981876496324" r="6.04" fill="#F59E0B" opacity="0.8231999999999999"/><circle cx="630.7053042370278" cy="654.0133872243125" r="8.975999999999999" fill="#10B981" opacity="0.4434"/><circle cx="151.3721117444328" cy="489.04392723354897" r="3.912" fill="#14B8A6" opacity="0.6636"/><circle cx="566.3132560357042" cy="431.1384572207161" r="6.848" fill="#F59E0B" opacity="0.8837999999999999"/><circle cx="516.740150233172" cy="741.821271541961" r="9.783999999999999" fill="#14B8A6" opacity="0.504"/><circle cx="193.9765422124279" cy="259.529038585242" r="4.720000000000001" fill="#10B981" opacity="0.7242"/><circle cx="634.0476649402638" cy="477.03865151906814" r="7.656" fill="#F59E0B" opacity="0.3444"/><circle cx="348.46818237993966" cy="738.7759373319698" r="2.592" fill="#10B981" opacity="0.5646"/><circle cx="492.0997011161169" cy="471.4737791226157" r="5.5280000000000005" fill="#14B8A6" opacity="0.7847999999999999"/><circle cx="657.6736272202829" cy="579.0947993182817" r="8.464" fill="#F59E0B" opacity="0.40499999999999997"/><circle cx="198.75461645350617" cy="617.0873985189093" r="3.4" fill="#14B8A6" opacity="0.6252"/><circle cx="524.9488315099276" cy="434.59697402803715" r="6.336" fill="#10B981" opacity="0.8453999999999999"/><circle cx="598.4251403435337" cy="693.1702144440382" r="9.272" fill="#F59E0B" opacity="0.4656"/><circle cx="148.9872361202216" cy="405.1580283129935" r="4.208" fill="#10B981" opacity="0.6858"/><circle cx="592.8402818857179" cy="440.2602137651929" r="7.144" fill="#14B8A6" opacity="0.306"/><circle cx="458.16972111187596" cy="753.7756248502636" r="2.08" fill="#F59E0B" opacity="0.5262"/><circle cx="497.50884887804756" cy="496.87043675769365" r="5.016" fill="#14B8A6" opacity="0.7464"/><circle cx="650.5024306469834" cy="509.4688103450205" r="7.952" fill="#10B981" opacity="0.3666"/><circle cx="286.937302652703" cy="707.7740286924575" r="2.888" fill="#F59E0B" opacity="0.5868"/><circle cx="498.3265558894549" cy="455.63154741475785" r="5.824" fill="#10B981" opacity="0.8069999999999999"/><circle cx="646.5534629019477" cy="622.798707287363" r="8.76" fill="#14B8A6" opacity="0.42719999999999997"/><circle cx="165.22403811453188" cy="546.5731182514078" r="3.6959999999999997" fill="#F59E0B" opacity="0.6474"/><circle cx="547.6646704418607" cy="429.86356730151715" r="6.632" fill="#14B8A6" opacity="0.8675999999999999"/><circle cx="554.7731677106947" cy="725.0299093430385" r="9.568" fill="#10B981" opacity="0.4878"/><circle cx="167.26670822389343" cy="319.79146373205197" r="4.504" fill="#F59E0B" opacity="0.708"/><circle cx="618.0624150937866" cy="458.330993025722" r="7.44" fill="#10B981" opacity="0.3282"/><circle cx="395.12115410054815" cy="750.9669852446713" r="2.376" fill="#14B8A6" opacity="0.5484"/><circle cx="491.99534931857664" cy="482.98925141363884" r="5.311999999999999" fill="#F59E0B" opacity="0.7686"/><circle cx="658.4315157381424" cy="548.1955892267619" r="8.248000000000001" fill="#14B8A6" opacity="0.3888"/><circle cx="232.10867260510304" cy="660.7109103533427" r="3.184" fill="#10B981" opacity="0.609"/><circle cx="511.4581285086109" cy="441.91944136735464" r="6.12" fill="#F59E0B" opacity="0.8291999999999999"/><circle cx="623.1684265098489" cy="665.1227988834006" r="9.056000000000001" fill="#10B981" opacity="0.4494"/><circle cx="148.76573888803335" cy="466.7985870612282" r="3.992" fill="#14B8A6" opacity="0.6696"/><circle cx="573.4563064888741" cy="432.7368523111459" r="6.928" fill="#F59E0B" opacity="0.8897999999999999"/><circle cx="501.54816667311377" cy="746.3951362749522" r="9.864" fill="#14B8A6" opacity="0.51"/><circle cx="206.69594161921157" cy="238.12413372485236" r="4.8" fill="#10B981" opacity="0.7302"/><circle cx="639.2021106555799" cy="485.0744384014635" r="7.736" fill="#F59E0B" opacity="0.3504"/><circle cx="331.42318964251876" cy="732.0260739867349" r="2.672" fill="#10B981" opacity="0.5706"/><circle cx="493.08301634533194" cy="467.11968161466416" r="5.6080000000000005" fill="#14B8A6" opacity="0.7908"/><circle cx="655.8517844615875" cy="590.8536255750912" r="8.544" fill="#F59E0B" opacity="0.411"/><circle cx="188.185159455566" cy="599.1531402238437" r="3.48" fill="#14B8A6" opacity="0.6312"/><circle cx="530.663792993503" cy="432.6521581693103" r="6.416" fill="#10B981" opacity="0.8513999999999999"/><circle cx="587.6902542521595" cy="702.640221351023" r="9.352" fill="#F59E0B" opacity="0.47159999999999996"/><circle cx="151.84666308393196" cy="382.0211290348698" r="4.288" fill="#10B981" opacity="0.6918"/><circle cx="599.9012248302549" cy="444.25858561702205" r="7.224" fill="#14B8A6" opacity="0.312"/><circle cx="441.4204772400217" cy="754.5464191718539" r="2.16" fill="#F59E0B" opacity="0.5322"/><circle cx="495.4205429952433" cy="493.4403831253964" r="5.096" fill="#14B8A6" opacity="0.7524"/><circle cx="653.5793557634812" cy="519.4015845557543" r="8.032" fill="#10B981" opacity="0.3726"/><circle cx="271.2780463489214" cy="696.593051550745" r="2.968" fill="#F59E0B" opacity="0.5928"/><circle cx="501.2162966194575" cy="451.6152852386883" r="5.904" fill="#10B981" opacity="0.813"/><circle cx="641.4522910125115" cy="634.5150153972104" r="8.84" fill="#14B8A6" opacity="0.4332"/><circle cx="158.97165611087001" cy="525.7617674905531" r="3.776" fill="#F59E0B" opacity="0.6534"/><circle cx="554.4261463643843" cy="429.83423490103866" r="6.712" fill="#14B8A6" opacity="0.8735999999999999"/><circle cx="541.235432694575" cy="731.9633572150808" r="9.648" fill="#10B981" opacity="0.4938"/><circle cx="175.84795724106414" cy="297.132523121105" r="4.584" fill="#F59E0B" opacity="0.714"/><circle cx="624.2939751689223" cy="464.73460993116146" r="7.52" fill="#10B981" opacity="0.3342"/><circle cx="377.7987282332632" cy="747.4729261527251" r="2.456" fill="#14B8A6" opacity="0.5544"/><circle cx="491.60676019878935" cy="478.8010961217479" r="5.3919999999999995" fill="#F59E0B" opacity="0.7746"/><circle cx="658.8388607924934" cy="559.4506207044375" r="8.328" fill="#14B8A6" opacity="0.3948"/><circle cx="218.9936275953945" cy="645.4110679006388" r="3.2640000000000002" fill="#10B981" opacity="0.615"/><circle cx="516.1015098631898" cy="438.88550597341407" r="6.2" fill="#F59E0B" opacity="0.8351999999999999"/><circle cx="614.7428128141966" cy="675.8808884088497" r="9.136" fill="#10B981" opacity="0.4554"/><circle cx="147.59280007565485" cy="444.1841828736457" r="4.072" fill="#14B8A6" opacity="0.6756"/><circle cx="580.6486944423436" cy="434.9711749702834" r="7.008" fill="#F59E0B" opacity="0.8957999999999999"/><circle cx="485.8477589657011" cy="749.9997481472874" r="9.943999999999999" fill="#14B8A6" opacity="0.516"/><circle cx="220.90743199589707" cy="217.37802901247187" r="4.88" fill="#10B981" opacity="0.7362"/><circle cx="643.86074259365" cy="493.6685909622274" r="7.816" fill="#F59E0B" opacity="0.3564"/><circle cx="314.637103781081" cy="724.0652509991995" r="2.752" fill="#10B981" opacity="0.5766"/><circle cx="494.5851945760353" cy="462.7919379405403" r="5.688000000000001" fill="#14B8A6" opacity="0.7968"/><circle cx="653.1618838117079" cy="602.6878636804219" r="8.623999999999999" fill="#F59E0B" opacity="0.417"/><circle cx="178.69407124247698" cy="580.348865239439" r="3.56" fill="#14B8A6" opacity="0.6372"/><circle cx="536.7149067088959" cy="431.1812843380736" r="6.496" fill="#10B981" opacity="0.8573999999999999"/><circle cx="576.1482844711416" cy="711.50999686091" r="9.432" fill="#F59E0B" opacity="0.47759999999999997"/><circle cx="156.24130994031538" cy="358.8740881040987" r="4.368" fill="#10B981" opacity="0.6978"/><circle cx="606.8126607891952" cy="448.9156041913745" r="7.304" fill="#14B8A6" opacity="0.318"/><circle cx="424.41289159296235" cy="754.1999784474081" r="2.24" fill="#F59E0B" opacity="0.5382"/><circle cx="493.7621918885515" cy="489.74867081960844" r="5.176" fill="#14B8A6" opacity="0.7584"/><circle cx="655.9872154157158" cy="529.756152756213" r="8.112" fill="#10B981" opacity="0.3786"/><circle cx="256.19401927701267" cy="684.2552679401659" r="3.048" fill="#F59E0B" opacity="0.5988"/><circle cx="504.60340269925894" cy="447.80259888089773" r="5.984" fill="#10B981" opacity="0.819"/><circle cx="635.446713041506" cy="646.0644649675339" r="8.92" fill="#14B8A6" opacity="0.4392"/><circle cx="154.02731870547962" cy="504.3478497996401" r="3.856" fill="#F59E0B" opacity="0.6594"/><circle cx="561.3697411020349" cy="430.3896927382933" r="6.792" fill="#14B8A6" opacity="0.8795999999999999"/><circle cx="527.0403898156862" cy="738.069270000594" r="9.728" fill="#10B981" opacity="0.4998"/><circle cx="185.97497486305247" cy="274.8483986560623" r="4.664" fill="#F59E0B" opacity="0.72"/><circle cx="630.1721140592833" cy="471.7606529583823" r="7.6" fill="#10B981" opacity="0.3402"/><circle cx="360.5081705049426" cy="742.7797963260573" r="2.536" fill="#14B8A6" opacity="0.5604"/><circle cx="491.7183445507514" cy="474.51168536328987" r="5.4719999999999995" fill="#F59E0B" opacity="0.7806"/>
    <text x="500" y="960" font-family="system-ui, sans-serif" font-size="36" font-weight="700" fill="white" text-anchor="middle" opacity="0.85">keyboard</text>
  </svg>