<svg xmlns="http://www.w3.org/2000/svg" viewBox="0 0 1000 1000" width="1000" height="1000">
    <defs>
      <linearGradient id="g429" x1="0" y1="0" x2="1" y2="1">
        <stop offset="0%" stop-color="#F59E0B"/>
        <stop offset="100%" stop-color="#EF4444"/>
      </linearGradient>
      <radialGradient id="glow429" cx="50%" cy="50%" r="60%">
        <stop offset="0%" stop-color="#FCD34D" stop-opacity="0.2"/>
        <stop offset="100%" stop-color="#FCD34D" stop-opacity="0"/>
      </radialGradient>
    </defs>
    <rect width="1000" height="1000" fill="#030712"/>
    <rect width="1000" height="1000" fill="url(#glow429)"/>
    <rect x="7.5" y="276.75" width="35" height="446.5" fill="#EF4444" opacity="0.5316" rx="4"/><rect x="57.5" y="353.5" width="35" height="293" fill="#F59E0B" opacity="0.3474" rx="4"/><rect x="107.5" y="430.25" width="35" height="139.5" fill="#EF4444" opacity="0.7632" rx="4"/><rect x="157.5" y="257" width="35" height="486" fill="#F59E0B" opacity="0.579" rx="4"/><rect x="207.5" y="333.75" width="35" height="332.5" fill="#EF4444" opacity="0.3948" rx="4"/><rect x="257.5" y="410.5" width="35" height="179" fill="#F59E0B" opacity="0.8106" rx="4"/><rect x="307.5" y="237.25" width="35" height="525.5" fill="#EF4444" opacity="0.6264000000000001" rx="4"/><rect x="357.5" y="314" width="35" height="372" fill="#F59E0B" opacity="0.4422" rx="4"/><rect x="407.5" y="390.75" width="35" height="218.5" fill="#EF4444" opacity="0.8580000000000001" rx="4"/><rect x="457.5" y="217.5" width="35" height="565" fill="#F59E0B" opacity="0.6738" rx="4"/><rect x="507.5" y="294.25" width="35" height="411.5" fill="#EF4444" opacity="0.4896" rx="4"/><rect x="557.5" y="371" width="35" height="258" fill="#F59E0B" opacity="0.3054" rx="4"/><rect x="607.5" y="447.75" width="35" height="104.5" fill="#EF4444" opacity="0.7212" rx="4"/><rect x="657.5" y="274.5" width="35" height="451" fill="#F59E0B" opacity="0.5369999999999999" rx="4"/><rect x="707.5" y="351.25" width="35" height="297.5" fill="#EF4444" opacity="0.3528" rx="4"/><rect x="757.5" y="428" width="35" height="144" fill="#F59E0B" opacity="0.7686" rx="4"/><rect x="807.5" y="254.75" width="35" height="490.5" fill="#EF4444" opacity="0.5844" rx="4"/><rect x="857.5" y="331.5" width="35" height="337" fill="#F59E0B" opacity="0.4002" rx="4"/><rect x="907.5" y="408.25" width="35" height="183.5" fill="#EF4444" opacity="0.8160000000000001" rx="4"/><rect x="957.5" y="235" width="35" height="530" fill="#F59E0B" opacity="0.6318" rx="4"/>
    <text x="500" y="960" font-family="system-ui, sans-serif" font-size="36" font-weight="700" fill="white" text-anchor="middle" opacity="0.85">mouse</text>
  </svg>