<svg xmlns="http://www.w3.org/2000/svg" viewBox="0 0 1000 1000" width="1000" height="1000">
    <defs>
      <linearGradient id="g430" x1="0" y1="0" x2="1" y2="1">
        <stop offset="0%" stop-color="#EC4899"/>
        <stop offset="100%" stop-color="#F43F5E"/>
      </linearGradient>
      <radialGradient id="glow430" cx="50%" cy="50%" r="60%">
        <stop offset="0%" stop-color="#F9A8D4" stop-opacity="0.2"/>
        <stop offset="100%" stop-color="#F9A8D4" stop-opacity="0"/>
      </radialGradient>
    </defs>
    <rect width="1000" height="1000" fill="#030712"/>
    <rect width="1000" height="1000" fill="url(#glow430)"/>
    <path d="M 0 500 L 0 463.1673790162172 L 16.666666666666668 420.0366880444124 L 33.333333333333336 384.7333636160191 L 50 360.713141289558 L 66.66666666666667 350.32728850514945 L 83.33333333333333 354.59244104344054 L 100 373.09109935207596 L 116.66666666666667 404.0124857681267 L 133.33333333333334 444.32979938015313 L 150 490.09650040673307 L 166.66666666666666 536.8326250287499 L 183.33333333333331 579.9633079215967 L 200 615.2666333328729 L 216.66666666666669 639.2868569408806 L 233.33333333333334 649.6727117703475 L 250 645.4075579319447 L 266.6666666666667 626.9088984234938 L 283.3333333333333 595.9875110253705 L 300 555.6702050472899 L 316.66666666666663 509.90350435084 L 333.3333333333333 463.1673795932488 L 350 420.0366885480345 L 366.66666666666663 384.73336399693346 L 383.33333333333337 360.7131415104782 L 400 350.3272885444503 L 416.6666666666667 354.59244089727486 L 433.33333333333337 373.0910990347516 L 450 404.01248531070553 L 466.6666666666667 444.32979882741074 L 483.3333333333333 490.09649981277573 L 500 536.8326244517183 L 516.6666666666667 579.9633074179745 L 533.3333333333334 615.2666329519584 L 550 639.2868567199605 L 566.6666666666666 649.6727117310468 L 583.3333333333334 645.4075580781102 L 600 626.9088987408182 L 616.6666666666667 595.9875114827917 L 633.3333333333333 555.6702056000323 L 650 509.90350494479736 L 666.6666666666666 463.16738017028047 L 683.3333333333334 420.0366890516565 L 700 384.73336437784786 L 716.6666666666666 360.71314173139837 L 733.3333333333333 350.32728799345637 L 750 354.5924407511093 L 766.6666666666667 373.09109871742726 L 783.3333333333334 404.0124848532844 L 800 444.32979827466835 L 816.6666666666666 490.0964992188184 L 833.3333333333334 536.8326238746866 L 850 579.9633144787125 L 866.6666666666667 615.266632571044 L 883.3333333333333 639.2868564990403 L 900 649.6727116917459 L 916.6666666666666 645.4075582242759 L 933.3333333333334 626.9088990581425 L 950 595.9875119402128 L 966.6666666666666 555.6702061527747 L 983.3333333333333 509.9035055387547 L 1000 463.16738074731205" stroke="#EC4899" stroke-width="3" fill="none" opacity="0.7"/><path d="M 0 500 L 0 453.0616277525538 L 16.666666666666668 462.7200455711088 L 33.333333333333336 478.3264483761909 L 50 498.81728554858034 L 66.66666666666667 522.7961403204149 L 83.33333333333333 548.6288873155942 L 100 574.555079115189 L 116.66666666666667 598.8078827596705 L 133.33333333333334 619.7345096688604 L 150 635.9088447228668 L 166.66666666666666 646.2286336561162 L 183.33333333333331 649.9905998681484 L 200 646.9383715643696 L 216.66666666666669 637.2799559803234 L 233.33333333333334 621.6735538404257 L 250 601.182717182162 L 266.6666666666667 577.2038627383574 L 283.3333333333333 551.3711099028537 L 300 525.4449181881663 L 316.66666666666663 501.1921148123639 L 333.3333333333333 480.26548833731505 L 350 464.0911569040532 L 366.66666666666663 453.7713672085996 L 383.33333333333337 450.0094001754344 L 400 453.06162765511004 L 416.6666666666667 462.7200453774209 L 433.33333333333337 478.3264480994583 L 450 498.8172852076619 L 466.6666666666667 522.7961399385437 L 483.3333333333333 548.628886918794 L 500 574.5550787305012 L 516.6666666666667 598.807882413311 L 533.3333333333334 619.734509384433 L 550 635.9088445197546 L 566.6666666666666 646.2286335481612 L 583.3333333333334 649.9905998627073 L 600 646.9383716618133 L 616.6666666666667 637.2799561740113 L 633.3333333333333 621.6735541171583 L 650 601.1827175230804 L 666.6666666666666 577.2038631202287 L 683.3333333333334 551.371110299654 L 700 525.444918572854 L 716.6666666666666 501.1921151587234 L 733.3333333333333 480.2654886217425 L 750 464.0911571071654 L 766.6666666666667 453.7713673165547 L 783.3333333333334 450.00940018087545 L 800 453.0616275576663 L 816.6666666666666 462.7200451837329 L 833.3333333333334 478.32644782272564 L 850 498.8172848667434 L 866.6666666666667 522.7961395566724 L 883.3333333333333 548.6288924818981 L 900 574.5550783458134 L 916.6666666666666 598.8078820669514 L 933.3333333333334 619.7345091000054 L 950 635.9088443166424 L 966.6666666666666 646.2286334402061 L 983.3333333333333 649.9905998572663 L 1000 646.9383717592572" stroke="#F43F5E" stroke-width="2" fill="none" opacity="0.5"/>
    <text x="500" y="960" font-family="system-ui, sans-serif" font-size="36" font-weight="700" fill="white" text-anchor="middle" opacity="0.85">vr headset</text>
  </svg>