<svg xmlns="http://www.w3.org/2000/svg" viewBox="0 0 1000 1000" width="1000" height="1000">
    <defs>
      <linearGradient id="g432" x1="0" y1="0" x2="1" y2="1">
        <stop offset="0%" stop-color="#6366F1"/>
        <stop offset="100%" stop-color="#8B5CF6"/>
      </linearGradient>
      <radialGradient id="glow432" cx="50%" cy="50%" r="60%">
        <stop offset="0%" stop-color="#A78BFA" stop-opacity="0.2"/>
        <stop offset="100%" stop-color="#A78BFA" stop-opacity="0"/>
      </radialGradient>
    </defs>
    <rect width="1000" height="1000" fill="#030712"/>
    <rect width="1000" height="1000" fill="url(#glow432)"/>
    <line x1="372.8" y1="445.6" x2="445.6" y2="518.4" stroke="#6366F1" stroke-width="1" opacity="0.25292178951319816"/><line x1="372.8" y1="445.6" x2="518.4" y2="591.2" stroke="#6366F1" stroke-width="1" opacity="0.10584357902639624"/><line x1="372.8" y1="445.6" x2="336.8" y2="409.6" stroke="#6366F1" stroke-width="1" opacity="0.32726901679224085"/><line x1="372.8" y1="445.6" x2="409.6" y2="482.4" stroke="#6366F1" stroke-width="1" opacity="0.32565277272095733"/><line x1="372.8" y1="445.6" x2="482.4" y2="555.2" stroke="#6366F1" stroke-width="1" opacity="0.1785745622341554"/><line x1="372.8" y1="445.6" x2="555.2" y2="628" stroke="#6366F1" stroke-width="1" opacity="0.031496351747353546"/><line x1="372.8" y1="445.6" x2="300.8" y2="373.6" stroke="#6366F1" stroke-width="1" opacity="0.2545380335844817"/><line x1="372.8" y1="445.6" x2="373.6" y2="446.4" stroke="#6366F1" stroke-width="1" opacity="0.3983837559287165"/><line x1="372.8" y1="445.6" x2="446.4" y2="519.2" stroke="#6366F1" stroke-width="1" opacity="0.25130554544191464"/><line x1="372.8" y1="445.6" x2="519.2" y2="592" stroke="#6366F1" stroke-width="1" opacity="0.10422733495511272"/><line x1="445.6" y1="518.4" x2="518.4" y2="591.2" stroke="#6366F1" stroke-width="1" opacity="0.2529217895131981"/><line x1="445.6" y1="518.4" x2="591.2" y2="664" stroke="#6366F1" stroke-width="1" opacity="0.10584357902639618"/><line x1="445.6" y1="518.4" x2="336.8" y2="409.6" stroke="#6366F1" stroke-width="1" opacity="0.180190806305439"/><line x1="445.6" y1="518.4" x2="409.6" y2="482.4" stroke="#6366F1" stroke-width="1" opacity="0.32726901679224085"/><line x1="445.6" y1="518.4" x2="482.4" y2="555.2" stroke="#6366F1" stroke-width="1" opacity="0.3256527727209573"/><line x1="445.6" y1="518.4" x2="555.2" y2="628" stroke="#6366F1" stroke-width="1" opacity="0.17857456223415538"/><line x1="445.6" y1="518.4" x2="300.8" y2="373.6" stroke="#6366F1" stroke-width="1" opacity="0.10745982309767982"/><line x1="445.6" y1="518.4" x2="373.6" y2="446.4" stroke="#6366F1" stroke-width="1" opacity="0.2545380335844817"/><line x1="445.6" y1="518.4" x2="446.4" y2="519.2" stroke="#6366F1" stroke-width="1" opacity="0.39838375592871644"/><line x1="445.6" y1="518.4" x2="519.2" y2="592" stroke="#6366F1" stroke-width="1" opacity="0.2513055454419145"/><line x1="445.6" y1="518.4" x2="592" y2="664.8" stroke="#6366F1" stroke-width="1" opacity="0.10422733495511277"/><line x1="518.4" y1="591.2" x2="591.2" y2="664" stroke="#6366F1" stroke-width="1" opacity="0.2529217895131981"/><line x1="518.4" y1="591.2" x2="336.8" y2="409.6" stroke="#6366F1" stroke-width="1" opacity="0.03311259581863707"/><line x1="518.4" y1="591.2" x2="409.6" y2="482.4" stroke="#6366F1" stroke-width="1" opacity="0.18019080630543896"/><line x1="518.4" y1="591.2" x2="482.4" y2="555.2" stroke="#6366F1" stroke-width="1" opacity="0.32726901679224085"/><line x1="518.4" y1="591.2" x2="555.2" y2="628" stroke="#6366F1" stroke-width="1" opacity="0.3256527727209573"/><line x1="518.4" y1="591.2" x2="373.6" y2="446.4" stroke="#6366F1" stroke-width="1" opacity="0.10745982309767982"/><line x1="518.4" y1="591.2" x2="446.4" y2="519.2" stroke="#6366F1" stroke-width="1" opacity="0.2545380335844817"/><line x1="518.4" y1="591.2" x2="519.2" y2="592" stroke="#6366F1" stroke-width="1" opacity="0.39838375592871644"/><line x1="518.4" y1="591.2" x2="592" y2="664.8" stroke="#6366F1" stroke-width="1" opacity="0.25130554544191464"/><line x1="591.2" y1="664" x2="409.6" y2="482.4" stroke="#6366F1" stroke-width="1" opacity="0.03311259581863707"/><line x1="591.2" y1="664" x2="482.4" y2="555.2" stroke="#6366F1" stroke-width="1" opacity="0.18019080630543896"/><line x1="591.2" y1="664" x2="555.2" y2="628" stroke="#6366F1" stroke-width="1" opacity="0.32726901679224085"/><line x1="591.2" y1="664" x2="446.4" y2="519.2" stroke="#6366F1" stroke-width="1" opacity="0.10745982309767982"/><line x1="591.2" y1="664" x2="519.2" y2="592" stroke="#6366F1" stroke-width="1" opacity="0.2545380335844817"/><line x1="591.2" y1="664" x2="592" y2="664.8" stroke="#6366F1" stroke-width="1" opacity="0.39838375592871655"/><line x1="664" y1="336.8" x2="628" y2="300.8" stroke="#6366F1" stroke-width="1" opacity="0.32726901679224085"/><line x1="664" y1="336.8" x2="664.8" y2="337.6" stroke="#6366F1" stroke-width="1" opacity="0.3983837559287165"/><line x1="336.8" y1="409.6" x2="409.6" y2="482.4" stroke="#6366F1" stroke-width="1" opacity="0.25292178951319816"/><line x1="336.8" y1="409.6" x2="482.4" y2="555.2" stroke="#6366F1" stroke-width="1" opacity="0.10584357902639624"/><line x1="336.8" y1="409.6" x2="300.8" y2="373.6" stroke="#6366F1" stroke-width="1" opacity="0.32726901679224085"/><line x1="336.8" y1="409.6" x2="373.6" y2="446.4" stroke="#6366F1" stroke-width="1" opacity="0.32565277272095733"/><line x1="336.8" y1="409.6" x2="446.4" y2="519.2" stroke="#6366F1" stroke-width="1" opacity="0.1785745622341554"/><line x1="336.8" y1="409.6" x2="519.2" y2="592" stroke="#6366F1" stroke-width="1" opacity="0.031496351747353546"/><line x1="409.6" y1="482.4" x2="482.4" y2="555.2" stroke="#6366F1" stroke-width="1" opacity="0.2529217895131981"/><line x1="409.6" y1="482.4" x2="555.2" y2="628" stroke="#6366F1" stroke-width="1" opacity="0.10584357902639618"/><line x1="409.6" y1="482.4" x2="300.8" y2="373.6" stroke="#6366F1" stroke-width="1" opacity="0.180190806305439"/><line x1="409.6" y1="482.4" x2="373.6" y2="446.4" stroke="#6366F1" stroke-width="1" opacity="0.32726901679224085"/><line x1="409.6" y1="482.4" x2="446.4" y2="519.2" stroke="#6366F1" stroke-width="1" opacity="0.3256527727209573"/><line x1="409.6" y1="482.4" x2="519.2" y2="592" stroke="#6366F1" stroke-width="1" opacity="0.17857456223415538"/><line x1="409.6" y1="482.4" x2="592" y2="664.8" stroke="#6366F1" stroke-width="1" opacity="0.031496351747353546"/><line x1="482.4" y1="555.2" x2="555.2" y2="628" stroke="#6366F1" stroke-width="1" opacity="0.2529217895131981"/><line x1="482.4" y1="555.2" x2="300.8" y2="373.6" stroke="#6366F1" stroke-width="1" opacity="0.03311259581863707"/><line x1="482.4" y1="555.2" x2="373.6" y2="446.4" stroke="#6366F1" stroke-width="1" opacity="0.18019080630543896"/><line x1="482.4" y1="555.2" x2="446.4" y2="519.2" stroke="#6366F1" stroke-width="1" opacity="0.32726901679224085"/><line x1="482.4" y1="555.2" x2="519.2" y2="592" stroke="#6366F1" stroke-width="1" opacity="0.3256527727209573"/><line x1="482.4" y1="555.2" x2="592" y2="664.8" stroke="#6366F1" stroke-width="1" opacity="0.1785745622341555"/><line x1="555.2" y1="628" x2="373.6" y2="446.4" stroke="#6366F1" stroke-width="1" opacity="0.03311259581863707"/><line x1="555.2" y1="628" x2="446.4" y2="519.2" stroke="#6366F1" stroke-width="1" opacity="0.18019080630543896"/><line x1="555.2" y1="628" x2="519.2" y2="592" stroke="#6366F1" stroke-width="1" opacity="0.32726901679224085"/><line x1="555.2" y1="628" x2="592" y2="664.8" stroke="#6366F1" stroke-width="1" opacity="0.3256527727209574"/><line x1="628" y1="300.8" x2="664.8" y2="337.6" stroke="#6366F1" stroke-width="1" opacity="0.32565277272095733"/><line x1="300.8" y1="373.6" x2="373.6" y2="446.4" stroke="#6366F1" stroke-width="1" opacity="0.25292178951319816"/><line x1="300.8" y1="373.6" x2="446.4" y2="519.2" stroke="#6366F1" stroke-width="1" opacity="0.10584357902639624"/><line x1="373.6" y1="446.4" x2="446.4" y2="519.2" stroke="#6366F1" stroke-width="1" opacity="0.2529217895131981"/><line x1="373.6" y1="446.4" x2="519.2" y2="592" stroke="#6366F1" stroke-width="1" opacity="0.10584357902639618"/><line x1="446.4" y1="519.2" x2="519.2" y2="592" stroke="#6366F1" stroke-width="1" opacity="0.2529217895131981"/><line x1="446.4" y1="519.2" x2="592" y2="664.8" stroke="#6366F1" stroke-width="1" opacity="0.1058435790263963"/><line x1="519.2" y1="592" x2="592" y2="664.8" stroke="#6366F1" stroke-width="1" opacity="0.2529217895131982"/><circle cx="372.8" cy="445.6" r="6" fill="#06B6D4" opacity="0.8"/><circle cx="445.6" cy="518.4" r="6" fill="#06B6D4" opacity="0.8"/><circle cx="518.4" cy="591.2" r="6" fill="#06B6D4" opacity="0.8"/><circle cx="591.2" cy="664" r="6" fill="#06B6D4" opacity="0.8"/><circle cx="664" cy="336.8" r="6" fill="#06B6D4" opacity="0.8"/><circle cx="336.8" cy="409.6" r="6" fill="#06B6D4" opacity="0.8"/><circle cx="409.6" cy="482.4" r="6" fill="#06B6D4" opacity="0.8"/><circle cx="482.4" cy="555.2" r="6" fill="#06B6D4" opacity="0.8"/><circle cx="555.2" cy="628" r="6" fill="#06B6D4" opacity="0.8"/><circle cx="628" cy="300.8" r="6" fill="#06B6D4" opacity="0.8"/><circle cx="300.8" cy="373.6" r="6" fill="#06B6D4" opacity="0.8"/><circle cx="373.6" cy="446.4" r="6" fill="#06B6D4" opacity="0.8"/><circle cx="446.4" cy="519.2" r="6" fill="#06B6D4" opacity="0.8"/><circle cx="519.2" cy="592" r="6" fill="#06B6D4" opacity="0.8"/><circle cx="592" cy="664.8" r="6" fill="#06B6D4" opacity="0.8"/><circle cx="664.8" cy="337.6" r="6" fill="#06B6D4" opacity="0.8"/>
    <text x="500" y="960" font-family="system-ui, sans-serif" font-size="36" font-weight="700" fill="white" text-anchor="middle" opacity="0.85">pause</text>
  </svg>