<svg xmlns="http://www.w3.org/2000/svg" viewBox="0 0 1000 1000" width="1000" height="1000">
    <defs>
      <linearGradient id="g437" x1="0" y1="0" x2="1" y2="1">
        <stop offset="0%" stop-color="#8B5CF6"/>
        <stop offset="100%" stop-color="#6366F1"/>
      </linearGradient>
      <radialGradient id="glow437" cx="50%" cy="50%" r="60%">
        <stop offset="0%" stop-color="#C4B5FD" stop-opacity="0.2"/>
        <stop offset="100%" stop-color="#C4B5FD" stop-opacity="0"/>
      </radialGradient>
    </defs>
    <rect width="1000" height="1000" fill="#0F172A"/>
    <rect width="1000" height="1000" fill="url(#glow437)"/>
    <line x1="524.8" y1="349.6" x2="574.4000000000001" y2="399.2" stroke="#8B5CF6" stroke-width="1" opacity="0.2997928675804206"/><line x1="524.8" y1="349.6" x2="624" y2="448.8" stroke="#8B5CF6" stroke-width="1" opacity="0.19958573516084135"/><line x1="524.8" y1="349.6" x2="673.6" y2="498.4" stroke="#8B5CF6" stroke-width="1" opacity="0.09937860274126209"/><line x1="524.8" y1="349.6" x2="498.4" y2="323.2" stroke="#8B5CF6" stroke-width="1" opacity="0.3466639456476433"/><line x1="524.8" y1="349.6" x2="548" y2="372.8" stroke="#8B5CF6" stroke-width="1" opacity="0.3531289219327774"/><line x1="524.8" y1="349.6" x2="597.6" y2="422.4" stroke="#8B5CF6" stroke-width="1" opacity="0.2529217895131981"/><line x1="524.8" y1="349.6" x2="647.2" y2="472" stroke="#8B5CF6" stroke-width="1" opacity="0.15271465709361876"/><line x1="524.8" y1="349.6" x2="696.8" y2="521.6" stroke="#8B5CF6" stroke-width="1" opacity="0.05250752467403952"/><line x1="349.6" y1="574.4000000000001" x2="399.2" y2="624" stroke="#8B5CF6" stroke-width="1" opacity="0.29979286758042084"/><line x1="349.6" y1="574.4000000000001" x2="448.8" y2="673.6" stroke="#8B5CF6" stroke-width="1" opacity="0.1995857351608415"/><line x1="349.6" y1="574.4000000000001" x2="323.2" y2="548" stroke="#8B5CF6" stroke-width="1" opacity="0.3466639456476432"/><line x1="349.6" y1="574.4000000000001" x2="372.8" y2="597.6" stroke="#8B5CF6" stroke-width="1" opacity="0.3531289219327775"/><line x1="349.6" y1="574.4000000000001" x2="422.4" y2="647.2" stroke="#8B5CF6" stroke-width="1" opacity="0.2529217895131982"/><line x1="349.6" y1="574.4000000000001" x2="472" y2="696.8" stroke="#8B5CF6" stroke-width="1" opacity="0.152714657093619"/><line x1="574.4000000000001" y1="399.2" x2="624" y2="448.8" stroke="#8B5CF6" stroke-width="1" opacity="0.2997928675804208"/><line x1="574.4000000000001" y1="399.2" x2="673.6" y2="498.4" stroke="#8B5CF6" stroke-width="1" opacity="0.1995857351608415"/><line x1="574.4000000000001" y1="399.2" x2="498.4" y2="323.2" stroke="#8B5CF6" stroke-width="1" opacity="0.24645681322806387"/><line x1="574.4000000000001" y1="399.2" x2="548" y2="372.8" stroke="#8B5CF6" stroke-width="1" opacity="0.34666394564764325"/><line x1="574.4000000000001" y1="399.2" x2="597.6" y2="422.4" stroke="#8B5CF6" stroke-width="1" opacity="0.3531289219327775"/><line x1="574.4000000000001" y1="399.2" x2="647.2" y2="472" stroke="#8B5CF6" stroke-width="1" opacity="0.25292178951319816"/><line x1="574.4000000000001" y1="399.2" x2="696.8" y2="521.6" stroke="#8B5CF6" stroke-width="1" opacity="0.15271465709361895"/><line x1="399.2" y1="624" x2="448.8" y2="673.6" stroke="#8B5CF6" stroke-width="1" opacity="0.2997928675804207"/><line x1="399.2" y1="624" x2="323.2" y2="548" stroke="#8B5CF6" stroke-width="1" opacity="0.24645681322806398"/><line x1="399.2" y1="624" x2="372.8" y2="597.6" stroke="#8B5CF6" stroke-width="1" opacity="0.34666394564764336"/><line x1="399.2" y1="624" x2="422.4" y2="647.2" stroke="#8B5CF6" stroke-width="1" opacity="0.3531289219327774"/><line x1="399.2" y1="624" x2="472" y2="696.8" stroke="#8B5CF6" stroke-width="1" opacity="0.25292178951319816"/><line x1="624" y1="448.8" x2="673.6" y2="498.4" stroke="#8B5CF6" stroke-width="1" opacity="0.29979286758042073"/><line x1="624" y1="448.8" x2="498.4" y2="323.2" stroke="#8B5CF6" stroke-width="1" opacity="0.1462496808084846"/><line x1="624" y1="448.8" x2="548" y2="372.8" stroke="#8B5CF6" stroke-width="1" opacity="0.24645681322806398"/><line x1="624" y1="448.8" x2="597.6" y2="422.4" stroke="#8B5CF6" stroke-width="1" opacity="0.3466639456476433"/><line x1="624" y1="448.8" x2="647.2" y2="472" stroke="#8B5CF6" stroke-width="1" opacity="0.3531289219327774"/><line x1="624" y1="448.8" x2="696.8" y2="521.6" stroke="#8B5CF6" stroke-width="1" opacity="0.25292178951319816"/><line x1="448.8" y1="673.6" x2="323.2" y2="548" stroke="#8B5CF6" stroke-width="1" opacity="0.1462496808084846"/><line x1="448.8" y1="673.6" x2="372.8" y2="597.6" stroke="#8B5CF6" stroke-width="1" opacity="0.24645681322806398"/><line x1="448.8" y1="673.6" x2="422.4" y2="647.2" stroke="#8B5CF6" stroke-width="1" opacity="0.3466639456476433"/><line x1="448.8" y1="673.6" x2="472" y2="696.8" stroke="#8B5CF6" stroke-width="1" opacity="0.3531289219327775"/><line x1="673.6" y1="498.4" x2="498.4" y2="323.2" stroke="#8B5CF6" stroke-width="1" opacity="0.04604254838890537"/><line x1="673.6" y1="498.4" x2="548" y2="372.8" stroke="#8B5CF6" stroke-width="1" opacity="0.14624968080848472"/><line x1="673.6" y1="498.4" x2="597.6" y2="422.4" stroke="#8B5CF6" stroke-width="1" opacity="0.24645681322806398"/><line x1="673.6" y1="498.4" x2="647.2" y2="472" stroke="#8B5CF6" stroke-width="1" opacity="0.34666394564764336"/><line x1="673.6" y1="498.4" x2="696.8" y2="521.6" stroke="#8B5CF6" stroke-width="1" opacity="0.35312892193277745"/><line x1="498.4" y1="323.2" x2="548" y2="372.8" stroke="#8B5CF6" stroke-width="1" opacity="0.2997928675804207"/><line x1="498.4" y1="323.2" x2="597.6" y2="422.4" stroke="#8B5CF6" stroke-width="1" opacity="0.19958573516084135"/><line x1="498.4" y1="323.2" x2="647.2" y2="472" stroke="#8B5CF6" stroke-width="1" opacity="0.09937860274126203"/><line x1="323.2" y1="548" x2="372.8" y2="597.6" stroke="#8B5CF6" stroke-width="1" opacity="0.2997928675804207"/><line x1="323.2" y1="548" x2="422.4" y2="647.2" stroke="#8B5CF6" stroke-width="1" opacity="0.19958573516084135"/><line x1="323.2" y1="548" x2="472" y2="696.8" stroke="#8B5CF6" stroke-width="1" opacity="0.09937860274126215"/><line x1="548" y1="372.8" x2="597.6" y2="422.4" stroke="#8B5CF6" stroke-width="1" opacity="0.29979286758042073"/><line x1="548" y1="372.8" x2="647.2" y2="472" stroke="#8B5CF6" stroke-width="1" opacity="0.19958573516084135"/><line x1="548" y1="372.8" x2="696.8" y2="521.6" stroke="#8B5CF6" stroke-width="1" opacity="0.09937860274126215"/><line x1="372.8" y1="597.6" x2="422.4" y2="647.2" stroke="#8B5CF6" stroke-width="1" opacity="0.29979286758042073"/><line x1="372.8" y1="597.6" x2="472" y2="696.8" stroke="#8B5CF6" stroke-width="1" opacity="0.1995857351608415"/><line x1="597.6" y1="422.4" x2="647.2" y2="472" stroke="#8B5CF6" stroke-width="1" opacity="0.2997928675804207"/><line x1="597.6" y1="422.4" x2="696.8" y2="521.6" stroke="#8B5CF6" stroke-width="1" opacity="0.19958573516084144"/><line x1="422.4" y1="647.2" x2="472" y2="696.8" stroke="#8B5CF6" stroke-width="1" opacity="0.2997928675804208"/><line x1="647.2" y1="472" x2="696.8" y2="521.6" stroke="#8B5CF6" stroke-width="1" opacity="0.2997928675804208"/><circle cx="524.8" cy="349.6" r="6" fill="#06B6D4" opacity="0.8"/><circle cx="349.6" cy="574.4000000000001" r="6" fill="#06B6D4" opacity="0.8"/><circle cx="574.4000000000001" cy="399.2" r="6" fill="#06B6D4" opacity="0.8"/><circle cx="399.2" cy="624" r="6" fill="#06B6D4" opacity="0.8"/><circle cx="624" cy="448.8" r="6" fill="#06B6D4" opacity="0.8"/><circle cx="448.8" cy="673.6" r="6" fill="#06B6D4" opacity="0.8"/><circle cx="673.6" cy="498.4" r="6" fill="#06B6D4" opacity="0.8"/><circle cx="498.4" cy="323.2" r="6" fill="#06B6D4" opacity="0.8"/><circle cx="323.2" cy="548" r="6" fill="#06B6D4" opacity="0.8"/><circle cx="548" cy="372.8" r="6" fill="#06B6D4" opacity="0.8"/><circle cx="372.8" cy="597.6" r="6" fill="#06B6D4" opacity="0.8"/><circle cx="597.6" cy="422.4" r="6" fill="#06B6D4" opacity="0.8"/><circle cx="422.4" cy="647.2" r="6" fill="#06B6D4" opacity="0.8"/><circle cx="647.2" cy="472" r="6" fill="#06B6D4" opacity="0.8"/><circle cx="472" cy="696.8" r="6" fill="#06B6D4" opacity="0.8"/><circle cx="696.8" cy="521.6" r="6" fill="#06B6D4" opacity="0.8"/>
    <text x="500" y="960" font-family="system-ui, sans-serif" font-size="36" font-weight="700" fill="white" text-anchor="middle" opacity="0.85">star</text>
  </svg>