<svg xmlns="http://www.w3.org/2000/svg" viewBox="0 0 1000 1000" width="1000" height="1000">
    <defs>
      <linearGradient id="g438" x1="0" y1="0" x2="1" y2="1">
        <stop offset="0%" stop-color="#6366F1"/>
        <stop offset="100%" stop-color="#8B5CF6"/>
      </linearGradient>
      <radialGradient id="glow438" cx="50%" cy="50%" r="60%">
        <stop offset="0%" stop-color="#A78BFA" stop-opacity="0.2"/>
        <stop offset="100%" stop-color="#A78BFA" stop-opacity="0"/>
      </radialGradient>
    </defs>
    <rect width="1000" height="1000" fill="#030712"/>
    <rect width="1000" height="1000" fill="url(#glow438)"/>
    <circle cx="897.5293673066096" cy="492.5058603691537" r="9.928" fill="#06B6D4" opacity="0.8928"/><circle cx="896.1183469547295" cy="485.0596115896377" r="9.904" fill="#6366F1" opacity="0.891"/><circle cx="894.568292603067" cy="477.6638751727038" r="9.879999999999999" fill="#8B5CF6" opacity="0.8892"/><circle cx="892.8806067026819" cy="470.3212386219945" r="9.856" fill="#06B6D4" opacity="0.8874"/><circle cx="891.0567396960898" cy="463.03425452848734" r="9.832" fill="#8B5CF6" opacity="0.8855999999999999"/><circle cx="889.0981891996353" cy="455.8054396835445" r="9.808" fill="#6366F1" opacity="0.8837999999999999"/><circle cx="887.0064991695353" cy="448.6372742103729" r="9.783999999999999" fill="#06B6D4" opacity="0.8819999999999999"/><circle cx="884.7832590519961" cy="441.5322007142011" r="9.76" fill="#6366F1" opacity="0.8801999999999999"/><circle cx="882.4301029178112" cy="434.4926234514591" r="9.736" fill="#8B5CF6" opacity="0.8783999999999998"/><circle cx="879.9487085818569" cy="427.5209075182417" r="9.712" fill="#06B6D4" opacity="0.8766"/><circle cx="877.340796707902" cy="420.6193780583335" r="9.687999999999999" fill="#8B5CF6" opacity="0.8748"/><circle cx="874.6081298991602" cy="413.79031949105774" r="9.664" fill="#6366F1" opacity="0.873"/><circle cx="871.7525117750085" cy="407.03597475919986" r="9.64" fill="#06B6D4" opacity="0.8712"/><circle cx="868.7757860343106" cy="400.3585445972591" r="9.616" fill="#6366F1" opacity="0.8694"/><circle cx="865.6798355057798" cy="393.76018682026137" r="9.591999999999999" fill="#8B5CF6" opacity="0.8675999999999999"/><circle cx="862.4665811858256" cy="387.2430156333575" r="9.568" fill="#06B6D4" opacity="0.8657999999999999"/><circle cx="859.1379812643274" cy="380.8091009624324" r="9.544" fill="#8B5CF6" opacity="0.8639999999999999"/><circle cx="855.6960301387884" cy="374.4604678059293" r="9.52" fill="#6366F1" opacity="0.8622000000000001"/><circle cx="852.1427574173204" cy="368.1990956080865" r="9.496" fill="#06B6D4" opacity="0.8604"/><circle cx="848.4802269109166" cy="362.02691765378245" r="9.472000000000001" fill="#6366F1" opacity="0.8586"/><circle cx="844.710535615475" cy="355.9458204851648" r="9.448" fill="#8B5CF6" opacity="0.8568"/><circle cx="840.8358126840297" cy="349.9576433402319" r="9.424" fill="#06B6D4" opacity="0.855"/><circle cx="836.8582183896626" cy="344.0641776135375" r="9.4" fill="#8B5CF6" opacity="0.8532"/><circle cx="832.7799430795574" cy="338.267166339155" r="9.376000000000001" fill="#6366F1" opacity="0.8513999999999999"/><circle cx="828.60320612067" cy="332.56830369605507" r="9.352" fill="#06B6D4" opacity="0.8495999999999999"/><circle cx="824.3302548374888" cy="326.96923453602375" r="9.328" fill="#6366F1" opacity="0.8477999999999999"/><circle cx="819.9633634423549" cy="321.47155393423833" r="9.304" fill="#8B5CF6" opacity="0.8460000000000001"/><circle cx="815.5048319588234" cy="316.0768067626201" r="9.280000000000001" fill="#06B6D4" opacity="0.8442000000000001"/><circle cx="810.9569851385434" cy="310.78648728606174" r="9.256" fill="#8B5CF6" opacity="0.8424"/><circle cx="806.3221713721312" cy="305.60203878162014" r="9.232" fill="#6366F1" opacity="0.8406"/><circle cx="801.6027615945227" cy="300.5248531807595" r="9.208" fill="#06B6D4" opacity="0.8388"/><circle cx="796.8011481852852" cy="295.5562707347169" r="9.184000000000001" fill="#6366F1" opacity="0.837"/><circle cx="791.9197438643673" cy="290.6975797030476" r="9.16" fill="#8B5CF6" opacity="0.8351999999999999"/><circle cx="786.9609805837738" cy="285.95001606540814" r="9.136" fill="#06B6D4" opacity="0.8333999999999999"/><circle cx="781.9273084156464" cy="281.314763256618" r="9.112" fill="#8B5CF6" opacity="0.8315999999999999"/><circle cx="776.8211944372335" cy="276.79295192502695" r="9.088000000000001" fill="#6366F1" opacity="0.8297999999999999"/><circle cx="771.6451216132334" cy="272.3856597142184" r="9.064" fill="#06B6D4" opacity="0.8280000000000001"/><circle cx="766.4015876759918" cy="268.0939110680558" r="9.04" fill="#6366F1" opacity="0.8262"/><circle cx="761.0931040040363" cy="263.9186770590746" r="9.016" fill="#8B5CF6" opacity="0.8244"/><circle cx="755.722194499431" cy="259.86087524021593" r="8.992" fill="#06B6D4" opacity="0.8226"/><circle cx="750.2913944644322" cy="255.92136951988192" r="8.968" fill="#8B5CF6" opacity="0.8208"/><circle cx="744.803249477919" cy="252.10097006028505" r="8.943999999999999" fill="#6366F1" opacity="0.819"/><circle cx="739.2603142720873" cy="248.40043319905732" r="8.92" fill="#06B6D4" opacity="0.8171999999999999"/><circle cx="733.6651516098744" cy="244.82046139407177" r="8.896" fill="#6366F1" opacity="0.8153999999999999"/><circle cx="728.0203311635952" cy="241.36170319141758" r="8.872" fill="#8B5CF6" opacity="0.8135999999999999"/><circle cx="722.328428395261" cy="238.02475321646642" r="8.847999999999999" fill="#06B6D4" opacity="0.8117999999999999"/><circle cx="716.5920234390537" cy="234.81015218795352" r="8.824" fill="#8B5CF6" opacity="0.81"/><circle cx="710.8136999864221" cy="231.71838695498565" r="8.8" fill="#6366F1" opacity="0.8082"/><circle cx="704.9960441742683" cy="228.74989055688576" r="8.776" fill="#06B6D4" opacity="0.8064"/><circle cx="699.1416434766899" cy="225.90504230576778" r="8.751999999999999" fill="#6366F1" opacity="0.8046"/><circle cx="693.2530856007339" cy="223.18416789172733" r="8.728" fill="#8B5CF6" opacity="0.8028"/><circle cx="687.3329573866263" cy="220.5875395105286" r="8.704" fill="#06B6D4" opacity="0.8009999999999999"/><circle cx="681.3838437129288" cy="218.11537601365364" r="8.68" fill="#8B5CF6" opacity="0.7991999999999999"/><circle cx="675.4083264070725" cy="215.7678430805728" r="8.655999999999999" fill="#6366F1" opacity="0.7973999999999999"/><circle cx="669.4089831617234" cy="213.5450534130875" r="8.632" fill="#06B6D4" opacity="0.7955999999999999"/><circle cx="663.3883864574134" cy="211.44706695158527" r="8.608" fill="#6366F1" opacity="0.7938"/><circle cx="657.3491024918868" cy="209.4738911130401" r="8.584" fill="#8B5CF6" opacity="0.7919999999999999"/><circle cx="651.2936901165936" cy="207.62548105058107" r="8.559999999999999" fill="#06B6D4" opacity="0.7902"/><circle cx="645.2246997807596" cy="205.90173993444262" r="8.536" fill="#8B5CF6" opacity="0.7884"/><circle cx="639.1446724834655" cy="204.3025192541047" r="8.512" fill="#6366F1" opacity="0.7866"/><circle cx="633.0561387341551" cy="202.8276191414194" r="8.488" fill="#06B6D4" opacity="0.7847999999999999"/><circle cx="626.9616175219884" cy="201.4767887145116" r="8.464" fill="#6366F1" opacity="0.7829999999999999"/><circle cx="620.8636152944571" cy="200.24972644223737" r="8.440000000000001" fill="#8B5CF6" opacity="0.7812"/><circle cx="614.7646249456668" cy="199.14608052897097" r="8.416" fill="#06B6D4" opacity="0.7794"/><circle cx="608.6671248146896" cy="198.16544931948448" r="8.392" fill="#8B5CF6" opacity="0.7776000000000001"/><circle cx="602.5735776943841" cy="197.30738172367967" r="8.368" fill="#6366F1" opacity="0.7758"/><circle cx="596.4864298510753" cy="196.5713776609175" r="8.344000000000001" fill="#06B6D4" opacity="0.774"/><circle cx="590.4081100554765" cy="195.9568885236884" r="8.32" fill="#6366F1" opacity="0.7722"/><circle cx="584.3410286252387" cy="195.46331766035695" r="8.296" fill="#8B5CF6" opacity="0.7704"/><circle cx="578.2875764794964" cy="195.09002087670694" r="8.272" fill="#06B6D4" opacity="0.7686"/><circle cx="572.250124205779" cy="194.83630695600516" r="8.248000000000001" fill="#8B5CF6" opacity="0.7667999999999999"/><circle cx="566.2310211396498" cy="194.70143819729634" r="8.224" fill="#6366F1" opacity="0.7649999999999999"/><circle cx="560.2325944574277" cy="194.68463097163442" r="8.2" fill="#06B6D4" opacity="0.7632"/><circle cx="554.2571482823355" cy="194.78505629594633" r="8.176" fill="#6366F1" opacity="0.7614"/><circle cx="548.3069628044233" cy="195.00184042422143" r="8.152000000000001" fill="#8B5CF6" opacity="0.7596"/><circle cx="542.3842934145947" cy="195.33406545571006" r="8.128" fill="#06B6D4" opacity="0.7578"/><circle cx="536.4913698530679" cy="195.7807699598091" r="8.104" fill="#8B5CF6" opacity="0.756"/><circle cx="530.6303953725907" cy="196.34094961730722" r="8.08" fill="#6366F1" opacity="0.7542"/><circle cx="524.8035459167199" cy="197.01355787765493" r="8.056000000000001" fill="#06B6D4" opacity="0.7524"/><circle cx="519.0129693134759" cy="197.79750663191936" r="8.032" fill="#6366F1" opacity="0.7505999999999999"/><circle cx="513.260784484668" cy="198.69166690107755" r="8.008" fill="#8B5CF6" opacity="0.7487999999999999"/><circle cx="507.54908067117856" cy="199.69486953929675" r="7.984" fill="#06B6D4" opacity="0.747"/><circle cx="501.87991667449506" cy="200.80590595184378" r="7.96" fill="#8B5CF6" opacity="0.7452"/><circle cx="496.2553201147608" cy="202.0235288272628" r="7.936" fill="#6366F1" opacity="0.7434"/><circle cx="490.6772867056115" cy="203.34645288345087" r="7.912" fill="#06B6D4" opacity="0.7416"/><circle cx="485.14777954605995" cy="204.7733556272612" r="7.888" fill="#6366F1" opacity="0.7398"/><circle cx="479.6687284296788" cy="206.30287812725533" r="7.864" fill="#8B5CF6" opacity="0.738"/><circle cx="474.2420291713221" cy="207.93362579922183" r="7.84" fill="#06B6D4" opacity="0.7362"/><circle cx="468.86954295162394" cy="209.66416920407636" r="7.816" fill="#8B5CF6" opacity="0.7343999999999999"/><circle cx="463.55309567950025" cy="211.49304485774985" r="7.792" fill="#6366F1" opacity="0.7325999999999999"/><circle cx="458.29447737286773" cy="213.41875605267234" r="7.768" fill="#06B6D4" opacity="0.7307999999999999"/><circle cx="453.09544155779537" cy="215.43977369045092" r="7.744" fill="#6366F1" opacity="0.729"/><circle cx="447.95770468628604" cy="217.55453712534137" r="7.72" fill="#8B5CF6" opacity="0.7272"/><circle cx="442.8829455728796" cy="219.76145501810538" r="7.696" fill="#06B6D4" opacity="0.7253999999999999"/><circle cx="437.8728048502645" cy="222.05890619984478" r="7.672" fill="#8B5CF6" opacity="0.7236"/><circle cx="432.92888444407157" cy="224.44524054539852" r="7.648" fill="#6366F1" opacity="0.7218"/><circle cx="428.05274706701283" cy="226.91877985588837" r="7.624" fill="#06B6D4" opacity="0.72"/><circle cx="423.2459157325279" cy="229.4778187499927" r="7.6" fill="#6366F1" opacity="0.7182"/><circle cx="418.5098732880838" cy="232.12062556352748" r="7.576" fill="#8B5CF6" opacity="0.7163999999999999"/><circle cx="413.8460619682646" cy="234.84544325691127" r="7.552" fill="#06B6D4" opacity="0.7145999999999999"/>
    <text x="500" y="960" font-family="system-ui, sans-serif" font-size="36" font-weight="700" fill="white" text-anchor="middle" opacity="0.85">pin</text>
  </svg>