<svg xmlns="http://www.w3.org/2000/svg" viewBox="0 0 1000 1000" width="1000" height="1000">
    <defs>
      <linearGradient id="g439" x1="0" y1="0" x2="1" y2="1">
        <stop offset="0%" stop-color="#06B6D4"/>
        <stop offset="100%" stop-color="#0EA5E9"/>
      </linearGradient>
      <radialGradient id="glow439" cx="50%" cy="50%" r="60%">
        <stop offset="0%" stop-color="#67E8F9" stop-opacity="0.2"/>
        <stop offset="100%" stop-color="#67E8F9" stop-opacity="0"/>
      </radialGradient>
    </defs>
    <rect width="1000" height="1000" fill="#030712"/>
    <rect width="1000" height="1000" fill="url(#glow439)"/>
    <line x1="444.79999999999995" y1="589.5999999999999" x2="334.4" y2="479.20000000000005" stroke="#06B6D4" stroke-width="1" opacity="0.17695831816287205"/><line x1="444.79999999999995" y1="589.5999999999999" x2="479.20000000000005" y2="624" stroke="#06B6D4" stroke-width="1" opacity="0.33050150493480773"/><line x1="444.79999999999995" y1="589.5999999999999" x2="368.8" y2="513.6" stroke="#06B6D4" stroke-width="1" opacity="0.24645681322806415"/><line x1="444.79999999999995" y1="589.5999999999999" x2="513.6" y2="658.4000000000001" stroke="#06B6D4" stroke-width="1" opacity="0.26100300986961555"/><line x1="444.79999999999995" y1="589.5999999999999" x2="403.2" y2="548" stroke="#06B6D4" stroke-width="1" opacity="0.31595530829325624"/><line x1="444.79999999999995" y1="589.5999999999999" x2="548" y2="692.8" stroke="#06B6D4" stroke-width="1" opacity="0.19150451480442365"/><line x1="444.79999999999995" y1="589.5999999999999" x2="437.6" y2="582.4" stroke="#06B6D4" stroke-width="1" opacity="0.3854538033584483"/><line x1="444.79999999999995" y1="589.5999999999999" x2="327.2" y2="472" stroke="#06B6D4" stroke-width="1" opacity="0.1624121215213202"/><line x1="444.79999999999995" y1="589.5999999999999" x2="472" y2="616.8" stroke="#06B6D4" stroke-width="1" opacity="0.34504770157635967"/><line x1="589.5999999999999" y1="334.4" x2="624" y2="368.8" stroke="#06B6D4" stroke-width="1" opacity="0.3305015049348078"/><line x1="589.5999999999999" y1="334.4" x2="658.4000000000001" y2="403.2" stroke="#06B6D4" stroke-width="1" opacity="0.26100300986961567"/><line x1="589.5999999999999" y1="334.4" x2="692.8" y2="437.6" stroke="#06B6D4" stroke-width="1" opacity="0.19150451480442365"/><line x1="589.5999999999999" y1="334.4" x2="582.4" y2="327.2" stroke="#06B6D4" stroke-width="1" opacity="0.38545380335844825"/><line x1="589.5999999999999" y1="334.4" x2="616.8" y2="361.6" stroke="#06B6D4" stroke-width="1" opacity="0.34504770157635967"/><line x1="334.4" y1="479.20000000000005" x2="479.20000000000005" y2="624" stroke="#06B6D4" stroke-width="1" opacity="0.10745982309767982"/><line x1="334.4" y1="479.20000000000005" x2="368.8" y2="513.6" stroke="#06B6D4" stroke-width="1" opacity="0.3305015049348079"/><line x1="334.4" y1="479.20000000000005" x2="513.6" y2="658.4000000000001" stroke="#06B6D4" stroke-width="1" opacity="0.037961328032487585"/><line x1="334.4" y1="479.20000000000005" x2="403.2" y2="548" stroke="#06B6D4" stroke-width="1" opacity="0.2610030098696159"/><line x1="334.4" y1="479.20000000000005" x2="437.6" y2="582.4" stroke="#06B6D4" stroke-width="1" opacity="0.19150451480442374"/><line x1="334.4" y1="479.20000000000005" x2="327.2" y2="472" stroke="#06B6D4" stroke-width="1" opacity="0.38545380335844814"/><line x1="334.4" y1="479.20000000000005" x2="472" y2="616.8" stroke="#06B6D4" stroke-width="1" opacity="0.1220060197392317"/><line x1="479.20000000000005" y1="624" x2="368.8" y2="513.6" stroke="#06B6D4" stroke-width="1" opacity="0.17695831816287189"/><line x1="479.20000000000005" y1="624" x2="513.6" y2="658.4000000000001" stroke="#06B6D4" stroke-width="1" opacity="0.33050150493480784"/><line x1="479.20000000000005" y1="624" x2="403.2" y2="548" stroke="#06B6D4" stroke-width="1" opacity="0.24645681322806393"/><line x1="479.20000000000005" y1="624" x2="548" y2="692.8" stroke="#06B6D4" stroke-width="1" opacity="0.2610030098696159"/><line x1="479.20000000000005" y1="624" x2="437.6" y2="582.4" stroke="#06B6D4" stroke-width="1" opacity="0.315955308293256"/><line x1="479.20000000000005" y1="624" x2="327.2" y2="472" stroke="#06B6D4" stroke-width="1" opacity="0.09291362645612788"/><line x1="479.20000000000005" y1="624" x2="472" y2="616.8" stroke="#06B6D4" stroke-width="1" opacity="0.3854538033584481"/><line x1="624" y1="368.8" x2="658.4000000000001" y2="403.2" stroke="#06B6D4" stroke-width="1" opacity="0.33050150493480784"/><line x1="624" y1="368.8" x2="692.8" y2="437.6" stroke="#06B6D4" stroke-width="1" opacity="0.2610030098696159"/><line x1="624" y1="368.8" x2="582.4" y2="327.2" stroke="#06B6D4" stroke-width="1" opacity="0.315955308293256"/><line x1="624" y1="368.8" x2="616.8" y2="361.6" stroke="#06B6D4" stroke-width="1" opacity="0.38545380335844814"/><line x1="368.8" y1="513.6" x2="513.6" y2="658.4000000000001" stroke="#06B6D4" stroke-width="1" opacity="0.10745982309767971"/><line x1="368.8" y1="513.6" x2="403.2" y2="548" stroke="#06B6D4" stroke-width="1" opacity="0.33050150493480795"/><line x1="368.8" y1="513.6" x2="548" y2="692.8" stroke="#06B6D4" stroke-width="1" opacity="0.03796132803248781"/><line x1="368.8" y1="513.6" x2="437.6" y2="582.4" stroke="#06B6D4" stroke-width="1" opacity="0.2610030098696159"/><line x1="368.8" y1="513.6" x2="327.2" y2="472" stroke="#06B6D4" stroke-width="1" opacity="0.315955308293256"/><line x1="368.8" y1="513.6" x2="472" y2="616.8" stroke="#06B6D4" stroke-width="1" opacity="0.19150451480442382"/><line x1="513.6" y1="658.4000000000001" x2="403.2" y2="548" stroke="#06B6D4" stroke-width="1" opacity="0.17695831816287175"/><line x1="513.6" y1="658.4000000000001" x2="548" y2="692.8" stroke="#06B6D4" stroke-width="1" opacity="0.33050150493480807"/><line x1="513.6" y1="658.4000000000001" x2="437.6" y2="582.4" stroke="#06B6D4" stroke-width="1" opacity="0.24645681322806387"/><line x1="513.6" y1="658.4000000000001" x2="327.2" y2="472" stroke="#06B6D4" stroke-width="1" opacity="0.023415131390935706"/><line x1="513.6" y1="658.4000000000001" x2="472" y2="616.8" stroke="#06B6D4" stroke-width="1" opacity="0.3159553082932559"/><line x1="658.4000000000001" y1="403.2" x2="692.8" y2="437.6" stroke="#06B6D4" stroke-width="1" opacity="0.330501504934808"/><line x1="658.4000000000001" y1="403.2" x2="582.4" y2="327.2" stroke="#06B6D4" stroke-width="1" opacity="0.24645681322806387"/><line x1="658.4000000000001" y1="403.2" x2="616.8" y2="361.6" stroke="#06B6D4" stroke-width="1" opacity="0.31595530829325597"/><line x1="403.2" y1="548" x2="548" y2="692.8" stroke="#06B6D4" stroke-width="1" opacity="0.10745982309767982"/><line x1="403.2" y1="548" x2="437.6" y2="582.4" stroke="#06B6D4" stroke-width="1" opacity="0.3305015049348079"/><line x1="403.2" y1="548" x2="327.2" y2="472" stroke="#06B6D4" stroke-width="1" opacity="0.24645681322806398"/><line x1="403.2" y1="548" x2="472" y2="616.8" stroke="#06B6D4" stroke-width="1" opacity="0.2610030098696159"/><line x1="548" y1="692.8" x2="437.6" y2="582.4" stroke="#06B6D4" stroke-width="1" opacity="0.1769583181628719"/><line x1="548" y1="692.8" x2="472" y2="616.8" stroke="#06B6D4" stroke-width="1" opacity="0.24645681322806398"/><line x1="692.8" y1="437.6" x2="582.4" y2="327.2" stroke="#06B6D4" stroke-width="1" opacity="0.17695831816287189"/><line x1="692.8" y1="437.6" x2="616.8" y2="361.6" stroke="#06B6D4" stroke-width="1" opacity="0.24645681322806398"/><line x1="437.6" y1="582.4" x2="327.2" y2="472" stroke="#06B6D4" stroke-width="1" opacity="0.17695831816287189"/><line x1="437.6" y1="582.4" x2="472" y2="616.8" stroke="#06B6D4" stroke-width="1" opacity="0.33050150493480795"/><line x1="582.4" y1="327.2" x2="616.8" y2="361.6" stroke="#06B6D4" stroke-width="1" opacity="0.3305015049348079"/><line x1="327.2" y1="472" x2="472" y2="616.8" stroke="#06B6D4" stroke-width="1" opacity="0.10745982309767982"/><circle cx="444.79999999999995" cy="589.5999999999999" r="6" fill="#6366F1" opacity="0.8"/><circle cx="589.5999999999999" cy="334.4" r="6" fill="#6366F1" opacity="0.8"/><circle cx="334.4" cy="479.20000000000005" r="6" fill="#6366F1" opacity="0.8"/><circle cx="479.20000000000005" cy="624" r="6" fill="#6366F1" opacity="0.8"/><circle cx="624" cy="368.8" r="6" fill="#6366F1" opacity="0.8"/><circle cx="368.8" cy="513.6" r="6" fill="#6366F1" opacity="0.8"/><circle cx="513.6" cy="658.4000000000001" r="6" fill="#6366F1" opacity="0.8"/><circle cx="658.4000000000001" cy="403.2" r="6" fill="#6366F1" opacity="0.8"/><circle cx="403.2" cy="548" r="6" fill="#6366F1" opacity="0.8"/><circle cx="548" cy="692.8" r="6" fill="#6366F1" opacity="0.8"/><circle cx="692.8" cy="437.6" r="6" fill="#6366F1" opacity="0.8"/><circle cx="437.6" cy="582.4" r="6" fill="#6366F1" opacity="0.8"/><circle cx="582.4" cy="327.2" r="6" fill="#6366F1" opacity="0.8"/><circle cx="327.2" cy="472" r="6" fill="#6366F1" opacity="0.8"/><circle cx="472" cy="616.8" r="6" fill="#6366F1" opacity="0.8"/><circle cx="616.8" cy="361.6" r="6" fill="#6366F1" opacity="0.8"/>
    <text x="500" y="960" font-family="system-ui, sans-serif" font-size="36" font-weight="700" fill="white" text-anchor="middle" opacity="0.85">edit</text>
  </svg>