<svg xmlns="http://www.w3.org/2000/svg" viewBox="0 0 1000 1000" width="1000" height="1000">
    <defs>
      <linearGradient id="g443" x1="0" y1="0" x2="1" y2="1">
        <stop offset="0%" stop-color="#8B5CF6"/>
        <stop offset="100%" stop-color="#6366F1"/>
      </linearGradient>
      <radialGradient id="glow443" cx="50%" cy="50%" r="60%">
        <stop offset="0%" stop-color="#C4B5FD" stop-opacity="0.2"/>
        <stop offset="100%" stop-color="#C4B5FD" stop-opacity="0"/>
      </radialGradient>
    </defs>
    <rect width="1000" height="1000" fill="#0F172A"/>
    <rect width="1000" height="1000" fill="url(#glow443)"/>
    <line x1="348.8" y1="397.6" x2="397.6" y2="446.4" stroke="#8B5CF6" stroke-width="1" opacity="0.30140911165170425"/><line x1="348.8" y1="397.6" x2="446.4" y2="495.2" stroke="#8B5CF6" stroke-width="1" opacity="0.20281822330340854"/><line x1="348.8" y1="397.6" x2="495.2" y2="544" stroke="#8B5CF6" stroke-width="1" opacity="0.10422733495511277"/><line x1="348.8" y1="397.6" x2="544" y2="592.8" stroke="#8B5CF6" stroke-width="1" opacity="0.005636446606817058"/><line x1="348.8" y1="397.6" x2="339.2" y2="388" stroke="#8B5CF6" stroke-width="1" opacity="0.3806050711445975"/><line x1="348.8" y1="397.6" x2="388" y2="436.8" stroke="#8B5CF6" stroke-width="1" opacity="0.32080404050710676"/><line x1="348.8" y1="397.6" x2="436.8" y2="485.6" stroke="#8B5CF6" stroke-width="1" opacity="0.22221315215881093"/><line x1="348.8" y1="397.6" x2="485.6" y2="534.4" stroke="#8B5CF6" stroke-width="1" opacity="0.12362226381051522"/><line x1="348.8" y1="397.6" x2="534.4" y2="583.2" stroke="#8B5CF6" stroke-width="1" opacity="0.025031375462219396"/><line x1="397.6" y1="446.4" x2="446.4" y2="495.2" stroke="#8B5CF6" stroke-width="1" opacity="0.30140911165170425"/><line x1="397.6" y1="446.4" x2="495.2" y2="544" stroke="#8B5CF6" stroke-width="1" opacity="0.2028182233034085"/><line x1="397.6" y1="446.4" x2="544" y2="592.8" stroke="#8B5CF6" stroke-width="1" opacity="0.10422733495511277"/><line x1="397.6" y1="446.4" x2="592.8" y2="641.5999999999999" stroke="#8B5CF6" stroke-width="1" opacity="0.005636446606817058"/><line x1="397.6" y1="446.4" x2="339.2" y2="388" stroke="#8B5CF6" stroke-width="1" opacity="0.2820141827963018"/><line x1="397.6" y1="446.4" x2="388" y2="436.8" stroke="#8B5CF6" stroke-width="1" opacity="0.3806050711445976"/><line x1="397.6" y1="446.4" x2="436.8" y2="485.6" stroke="#8B5CF6" stroke-width="1" opacity="0.32080404050710665"/><line x1="397.6" y1="446.4" x2="485.6" y2="534.4" stroke="#8B5CF6" stroke-width="1" opacity="0.22221315215881093"/><line x1="397.6" y1="446.4" x2="534.4" y2="583.2" stroke="#8B5CF6" stroke-width="1" opacity="0.12362226381051516"/><line x1="397.6" y1="446.4" x2="583.2" y2="632" stroke="#8B5CF6" stroke-width="1" opacity="0.02503137546221934"/><line x1="446.4" y1="495.2" x2="495.2" y2="544" stroke="#8B5CF6" stroke-width="1" opacity="0.30140911165170425"/><line x1="446.4" y1="495.2" x2="544" y2="592.8" stroke="#8B5CF6" stroke-width="1" opacity="0.2028182233034085"/><line x1="446.4" y1="495.2" x2="592.8" y2="641.5999999999999" stroke="#8B5CF6" stroke-width="1" opacity="0.10422733495511283"/><line x1="446.4" y1="495.2" x2="641.5999999999999" y2="690.4" stroke="#8B5CF6" stroke-width="1" opacity="0.005636446606817058"/><line x1="446.4" y1="495.2" x2="339.2" y2="388" stroke="#8B5CF6" stroke-width="1" opacity="0.18342329444800606"/><line x1="446.4" y1="495.2" x2="388" y2="436.8" stroke="#8B5CF6" stroke-width="1" opacity="0.28201418279630186"/><line x1="446.4" y1="495.2" x2="436.8" y2="485.6" stroke="#8B5CF6" stroke-width="1" opacity="0.38060507114459763"/><line x1="446.4" y1="495.2" x2="485.6" y2="534.4" stroke="#8B5CF6" stroke-width="1" opacity="0.32080404050710665"/><line x1="446.4" y1="495.2" x2="534.4" y2="583.2" stroke="#8B5CF6" stroke-width="1" opacity="0.22221315215881088"/><line x1="446.4" y1="495.2" x2="583.2" y2="632" stroke="#8B5CF6" stroke-width="1" opacity="0.12362226381051505"/><line x1="446.4" y1="495.2" x2="632" y2="680.8" stroke="#8B5CF6" stroke-width="1" opacity="0.025031375462219396"/><line x1="495.2" y1="544" x2="544" y2="592.8" stroke="#8B5CF6" stroke-width="1" opacity="0.30140911165170425"/><line x1="495.2" y1="544" x2="592.8" y2="641.5999999999999" stroke="#8B5CF6" stroke-width="1" opacity="0.20281822330340862"/><line x1="495.2" y1="544" x2="641.5999999999999" y2="690.4" stroke="#8B5CF6" stroke-width="1" opacity="0.10422733495511283"/><line x1="495.2" y1="544" x2="339.2" y2="388" stroke="#8B5CF6" stroke-width="1" opacity="0.08483240609971027"/><line x1="495.2" y1="544" x2="388" y2="436.8" stroke="#8B5CF6" stroke-width="1" opacity="0.18342329444800606"/><line x1="495.2" y1="544" x2="436.8" y2="485.6" stroke="#8B5CF6" stroke-width="1" opacity="0.28201418279630186"/><line x1="495.2" y1="544" x2="485.6" y2="534.4" stroke="#8B5CF6" stroke-width="1" opacity="0.3806050711445976"/><line x1="495.2" y1="544" x2="534.4" y2="583.2" stroke="#8B5CF6" stroke-width="1" opacity="0.32080404050710665"/><line x1="495.2" y1="544" x2="583.2" y2="632" stroke="#8B5CF6" stroke-width="1" opacity="0.22221315215881088"/><line x1="495.2" y1="544" x2="632" y2="680.8" stroke="#8B5CF6" stroke-width="1" opacity="0.12362226381051522"/><line x1="544" y1="592.8" x2="592.8" y2="641.5999999999999" stroke="#8B5CF6" stroke-width="1" opacity="0.30140911165170436"/><line x1="544" y1="592.8" x2="641.5999999999999" y2="690.4" stroke="#8B5CF6" stroke-width="1" opacity="0.20281822330340854"/><line x1="544" y1="592.8" x2="388" y2="436.8" stroke="#8B5CF6" stroke-width="1" opacity="0.08483240609971032"/><line x1="544" y1="592.8" x2="436.8" y2="485.6" stroke="#8B5CF6" stroke-width="1" opacity="0.1834232944480061"/><line x1="544" y1="592.8" x2="485.6" y2="534.4" stroke="#8B5CF6" stroke-width="1" opacity="0.28201418279630186"/><line x1="544" y1="592.8" x2="534.4" y2="583.2" stroke="#8B5CF6" stroke-width="1" opacity="0.38060507114459763"/><line x1="544" y1="592.8" x2="583.2" y2="632" stroke="#8B5CF6" stroke-width="1" opacity="0.3208040405071066"/><line x1="544" y1="592.8" x2="632" y2="680.8" stroke="#8B5CF6" stroke-width="1" opacity="0.22221315215881093"/><line x1="592.8" y1="641.5999999999999" x2="641.5999999999999" y2="690.4" stroke="#8B5CF6" stroke-width="1" opacity="0.30140911165170425"/><line x1="592.8" y1="641.5999999999999" x2="436.8" y2="485.6" stroke="#8B5CF6" stroke-width="1" opacity="0.08483240609971043"/><line x1="592.8" y1="641.5999999999999" x2="485.6" y2="534.4" stroke="#8B5CF6" stroke-width="1" opacity="0.18342329444800617"/><line x1="592.8" y1="641.5999999999999" x2="534.4" y2="583.2" stroke="#8B5CF6" stroke-width="1" opacity="0.28201418279630197"/><line x1="592.8" y1="641.5999999999999" x2="583.2" y2="632" stroke="#8B5CF6" stroke-width="1" opacity="0.38060507114459774"/><line x1="592.8" y1="641.5999999999999" x2="632" y2="680.8" stroke="#8B5CF6" stroke-width="1" opacity="0.3208040405071066"/><line x1="641.5999999999999" y1="690.4" x2="485.6" y2="534.4" stroke="#8B5CF6" stroke-width="1" opacity="0.08483240609971038"/><line x1="641.5999999999999" y1="690.4" x2="534.4" y2="583.2" stroke="#8B5CF6" stroke-width="1" opacity="0.18342329444800617"/><line x1="641.5999999999999" y1="690.4" x2="583.2" y2="632" stroke="#8B5CF6" stroke-width="1" opacity="0.28201418279630197"/><line x1="641.5999999999999" y1="690.4" x2="632" y2="680.8" stroke="#8B5CF6" stroke-width="1" opacity="0.38060507114459763"/><line x1="690.4" y1="339.2" x2="680.8" y2="329.6" stroke="#8B5CF6" stroke-width="1" opacity="0.3806050711445976"/><line x1="339.2" y1="388" x2="388" y2="436.8" stroke="#8B5CF6" stroke-width="1" opacity="0.30140911165170425"/><line x1="339.2" y1="388" x2="436.8" y2="485.6" stroke="#8B5CF6" stroke-width="1" opacity="0.20281822330340843"/><line x1="339.2" y1="388" x2="485.6" y2="534.4" stroke="#8B5CF6" stroke-width="1" opacity="0.10422733495511272"/><line x1="339.2" y1="388" x2="534.4" y2="583.2" stroke="#8B5CF6" stroke-width="1" opacity="0.005636446606816892"/><line x1="388" y1="436.8" x2="436.8" y2="485.6" stroke="#8B5CF6" stroke-width="1" opacity="0.30140911165170425"/><line x1="388" y1="436.8" x2="485.6" y2="534.4" stroke="#8B5CF6" stroke-width="1" opacity="0.2028182233034085"/><line x1="388" y1="436.8" x2="534.4" y2="583.2" stroke="#8B5CF6" stroke-width="1" opacity="0.10422733495511272"/><line x1="388" y1="436.8" x2="583.2" y2="632" stroke="#8B5CF6" stroke-width="1" opacity="0.005636446606816892"/><line x1="436.8" y1="485.6" x2="485.6" y2="534.4" stroke="#8B5CF6" stroke-width="1" opacity="0.30140911165170425"/><line x1="436.8" y1="485.6" x2="534.4" y2="583.2" stroke="#8B5CF6" stroke-width="1" opacity="0.2028182233034085"/><line x1="436.8" y1="485.6" x2="583.2" y2="632" stroke="#8B5CF6" stroke-width="1" opacity="0.10422733495511272"/><line x1="436.8" y1="485.6" x2="632" y2="680.8" stroke="#8B5CF6" stroke-width="1" opacity="0.005636446606817058"/><line x1="485.6" y1="534.4" x2="534.4" y2="583.2" stroke="#8B5CF6" stroke-width="1" opacity="0.30140911165170425"/><line x1="485.6" y1="534.4" x2="583.2" y2="632" stroke="#8B5CF6" stroke-width="1" opacity="0.20281822330340843"/><line x1="485.6" y1="534.4" x2="632" y2="680.8" stroke="#8B5CF6" stroke-width="1" opacity="0.10422733495511277"/><line x1="534.4" y1="583.2" x2="583.2" y2="632" stroke="#8B5CF6" stroke-width="1" opacity="0.30140911165170425"/><line x1="534.4" y1="583.2" x2="632" y2="680.8" stroke="#8B5CF6" stroke-width="1" opacity="0.20281822330340854"/><line x1="583.2" y1="632" x2="632" y2="680.8" stroke="#8B5CF6" stroke-width="1" opacity="0.30140911165170436"/><circle cx="348.8" cy="397.6" r="6" fill="#06B6D4" opacity="0.8"/><circle cx="397.6" cy="446.4" r="6" fill="#06B6D4" opacity="0.8"/><circle cx="446.4" cy="495.2" r="6" fill="#06B6D4" opacity="0.8"/><circle cx="495.2" cy="544" r="6" fill="#06B6D4" opacity="0.8"/><circle cx="544" cy="592.8" r="6" fill="#06B6D4" opacity="0.8"/><circle cx="592.8" cy="641.5999999999999" r="6" fill="#06B6D4" opacity="0.8"/><circle cx="641.5999999999999" cy="690.4" r="6" fill="#06B6D4" opacity="0.8"/><circle cx="690.4" cy="339.2" r="6" fill="#06B6D4" opacity="0.8"/><circle cx="339.2" cy="388" r="6" fill="#06B6D4" opacity="0.8"/><circle cx="388" cy="436.8" r="6" fill="#06B6D4" opacity="0.8"/><circle cx="436.8" cy="485.6" r="6" fill="#06B6D4" opacity="0.8"/><circle cx="485.6" cy="534.4" r="6" fill="#06B6D4" opacity="0.8"/><circle cx="534.4" cy="583.2" r="6" fill="#06B6D4" opacity="0.8"/><circle cx="583.2" cy="632" r="6" fill="#06B6D4" opacity="0.8"/><circle cx="632" cy="680.8" r="6" fill="#06B6D4" opacity="0.8"/><circle cx="680.8" cy="329.6" r="6" fill="#06B6D4" opacity="0.8"/>
    <text x="500" y="960" font-family="system-ui, sans-serif" font-size="36" font-weight="700" fill="white" text-anchor="middle" opacity="0.85">plus</text>
  </svg>