<svg xmlns="http://www.w3.org/2000/svg" viewBox="0 0 1000 1000" width="1000" height="1000">
    <defs>
      <linearGradient id="g449" x1="0" y1="0" x2="1" y2="1">
        <stop offset="0%" stop-color="#8B5CF6"/>
        <stop offset="100%" stop-color="#6366F1"/>
      </linearGradient>
      <radialGradient id="glow449" cx="50%" cy="50%" r="60%">
        <stop offset="0%" stop-color="#C4B5FD" stop-opacity="0.2"/>
        <stop offset="100%" stop-color="#C4B5FD" stop-opacity="0"/>
      </radialGradient>
    </defs>
    <rect width="1000" height="1000" fill="#0F172A"/>
    <rect width="1000" height="1000" fill="url(#glow449)"/>
    <line x1="396.8" y1="493.6" x2="493.6" y2="590.4" stroke="#8B5CF6" stroke-width="1" opacity="0.20443446737469204"/><line x1="396.8" y1="493.6" x2="590.4" y2="687.2" stroke="#8B5CF6" stroke-width="1" opacity="0.00886893474938405"/><line x1="396.8" y1="493.6" x2="384" y2="480.8" stroke="#8B5CF6" stroke-width="1" opacity="0.3741400948594634"/><line x1="396.8" y1="493.6" x2="480.8" y2="577.5999999999999" stroke="#8B5CF6" stroke-width="1" opacity="0.23029437251522872"/><line x1="396.8" y1="493.6" x2="577.5999999999999" y2="674.4000000000001" stroke="#8B5CF6" stroke-width="1" opacity="0.03472883988992065"/><line x1="396.8" y1="493.6" x2="371.2" y2="468" stroke="#8B5CF6" stroke-width="1" opacity="0.34828018971892677"/><line x1="396.8" y1="493.6" x2="468" y2="564.8" stroke="#8B5CF6" stroke-width="1" opacity="0.25615427765576526"/><line x1="396.8" y1="493.6" x2="564.8" y2="661.6" stroke="#8B5CF6" stroke-width="1" opacity="0.06058874503045725"/><line x1="396.8" y1="493.6" x2="358.4" y2="455.20000000000005" stroke="#8B5CF6" stroke-width="1" opacity="0.3224202845783902"/><line x1="396.8" y1="493.6" x2="455.20000000000005" y2="552" stroke="#8B5CF6" stroke-width="1" opacity="0.2820141827963018"/><line x1="396.8" y1="493.6" x2="552" y2="648.8" stroke="#8B5CF6" stroke-width="1" opacity="0.0864486501709939"/><line x1="493.6" y1="590.4" x2="590.4" y2="687.2" stroke="#8B5CF6" stroke-width="1" opacity="0.204434467374692"/><line x1="493.6" y1="590.4" x2="384" y2="480.8" stroke="#8B5CF6" stroke-width="1" opacity="0.1785745622341554"/><line x1="493.6" y1="590.4" x2="480.8" y2="577.5999999999999" stroke="#8B5CF6" stroke-width="1" opacity="0.37414009485946337"/><line x1="493.6" y1="590.4" x2="577.5999999999999" y2="674.4000000000001" stroke="#8B5CF6" stroke-width="1" opacity="0.23029437251522863"/><line x1="493.6" y1="590.4" x2="371.2" y2="468" stroke="#8B5CF6" stroke-width="1" opacity="0.15271465709361884"/><line x1="493.6" y1="590.4" x2="468" y2="564.8" stroke="#8B5CF6" stroke-width="1" opacity="0.34828018971892677"/><line x1="493.6" y1="590.4" x2="564.8" y2="661.6" stroke="#8B5CF6" stroke-width="1" opacity="0.25615427765576526"/><line x1="493.6" y1="590.4" x2="358.4" y2="455.20000000000005" stroke="#8B5CF6" stroke-width="1" opacity="0.12685475195308227"/><line x1="493.6" y1="590.4" x2="455.20000000000005" y2="552" stroke="#8B5CF6" stroke-width="1" opacity="0.3224202845783903"/><line x1="493.6" y1="590.4" x2="552" y2="648.8" stroke="#8B5CF6" stroke-width="1" opacity="0.28201418279630186"/><line x1="590.4" y1="687.2" x2="480.8" y2="577.5999999999999" stroke="#8B5CF6" stroke-width="1" opacity="0.17857456223415533"/><line x1="590.4" y1="687.2" x2="577.5999999999999" y2="674.4000000000001" stroke="#8B5CF6" stroke-width="1" opacity="0.3741400948594634"/><line x1="590.4" y1="687.2" x2="468" y2="564.8" stroke="#8B5CF6" stroke-width="1" opacity="0.15271465709361876"/><line x1="590.4" y1="687.2" x2="564.8" y2="661.6" stroke="#8B5CF6" stroke-width="1" opacity="0.34828018971892677"/><line x1="590.4" y1="687.2" x2="455.20000000000005" y2="552" stroke="#8B5CF6" stroke-width="1" opacity="0.12685475195308227"/><line x1="590.4" y1="687.2" x2="552" y2="648.8" stroke="#8B5CF6" stroke-width="1" opacity="0.32242028457839017"/><line x1="687.2" y1="384" x2="674.4000000000001" y2="371.2" stroke="#8B5CF6" stroke-width="1" opacity="0.3741400948594635"/><line x1="687.2" y1="384" x2="661.6" y2="358.4" stroke="#8B5CF6" stroke-width="1" opacity="0.34828018971892677"/><line x1="687.2" y1="384" x2="648.8" y2="345.6" stroke="#8B5CF6" stroke-width="1" opacity="0.32242028457839017"/><line x1="384" y1="480.8" x2="480.8" y2="577.5999999999999" stroke="#8B5CF6" stroke-width="1" opacity="0.20443446737469212"/><line x1="384" y1="480.8" x2="577.5999999999999" y2="674.4000000000001" stroke="#8B5CF6" stroke-width="1" opacity="0.00886893474938405"/><line x1="384" y1="480.8" x2="371.2" y2="468" stroke="#8B5CF6" stroke-width="1" opacity="0.3741400948594634"/><line x1="384" y1="480.8" x2="468" y2="564.8" stroke="#8B5CF6" stroke-width="1" opacity="0.23029437251522866"/><line x1="384" y1="480.8" x2="564.8" y2="661.6" stroke="#8B5CF6" stroke-width="1" opacity="0.03472883988992065"/><line x1="384" y1="480.8" x2="358.4" y2="455.20000000000005" stroke="#8B5CF6" stroke-width="1" opacity="0.3482801897189268"/><line x1="384" y1="480.8" x2="455.20000000000005" y2="552" stroke="#8B5CF6" stroke-width="1" opacity="0.25615427765576515"/><line x1="384" y1="480.8" x2="552" y2="648.8" stroke="#8B5CF6" stroke-width="1" opacity="0.06058874503045725"/><line x1="480.8" y1="577.5999999999999" x2="577.5999999999999" y2="674.4000000000001" stroke="#8B5CF6" stroke-width="1" opacity="0.20443446737469195"/><line x1="480.8" y1="577.5999999999999" x2="371.2" y2="468" stroke="#8B5CF6" stroke-width="1" opacity="0.1785745622341555"/><line x1="480.8" y1="577.5999999999999" x2="468" y2="564.8" stroke="#8B5CF6" stroke-width="1" opacity="0.3741400948594635"/><line x1="480.8" y1="577.5999999999999" x2="564.8" y2="661.6" stroke="#8B5CF6" stroke-width="1" opacity="0.23029437251522855"/><line x1="480.8" y1="577.5999999999999" x2="358.4" y2="455.20000000000005" stroke="#8B5CF6" stroke-width="1" opacity="0.15271465709361895"/><line x1="480.8" y1="577.5999999999999" x2="455.20000000000005" y2="552" stroke="#8B5CF6" stroke-width="1" opacity="0.34828018971892694"/><line x1="480.8" y1="577.5999999999999" x2="552" y2="648.8" stroke="#8B5CF6" stroke-width="1" opacity="0.25615427765576515"/><line x1="577.5999999999999" y1="674.4000000000001" x2="468" y2="564.8" stroke="#8B5CF6" stroke-width="1" opacity="0.17857456223415538"/><line x1="577.5999999999999" y1="674.4000000000001" x2="564.8" y2="661.6" stroke="#8B5CF6" stroke-width="1" opacity="0.3741400948594634"/><line x1="577.5999999999999" y1="674.4000000000001" x2="455.20000000000005" y2="552" stroke="#8B5CF6" stroke-width="1" opacity="0.15271465709361887"/><line x1="577.5999999999999" y1="674.4000000000001" x2="552" y2="648.8" stroke="#8B5CF6" stroke-width="1" opacity="0.34828018971892677"/><line x1="674.4000000000001" y1="371.2" x2="661.6" y2="358.4" stroke="#8B5CF6" stroke-width="1" opacity="0.37414009485946337"/><line x1="674.4000000000001" y1="371.2" x2="648.8" y2="345.6" stroke="#8B5CF6" stroke-width="1" opacity="0.3482801897189267"/><line x1="371.2" y1="468" x2="468" y2="564.8" stroke="#8B5CF6" stroke-width="1" opacity="0.20443446737469204"/><line x1="371.2" y1="468" x2="564.8" y2="661.6" stroke="#8B5CF6" stroke-width="1" opacity="0.00886893474938405"/><line x1="371.2" y1="468" x2="358.4" y2="455.20000000000005" stroke="#8B5CF6" stroke-width="1" opacity="0.3741400948594635"/><line x1="371.2" y1="468" x2="455.20000000000005" y2="552" stroke="#8B5CF6" stroke-width="1" opacity="0.23029437251522855"/><line x1="371.2" y1="468" x2="552" y2="648.8" stroke="#8B5CF6" stroke-width="1" opacity="0.03472883988992065"/><line x1="468" y1="564.8" x2="564.8" y2="661.6" stroke="#8B5CF6" stroke-width="1" opacity="0.204434467374692"/><line x1="468" y1="564.8" x2="358.4" y2="455.20000000000005" stroke="#8B5CF6" stroke-width="1" opacity="0.1785745622341555"/><line x1="468" y1="564.8" x2="455.20000000000005" y2="552" stroke="#8B5CF6" stroke-width="1" opacity="0.37414009485946353"/><line x1="468" y1="564.8" x2="552" y2="648.8" stroke="#8B5CF6" stroke-width="1" opacity="0.23029437251522863"/><line x1="564.8" y1="661.6" x2="455.20000000000005" y2="552" stroke="#8B5CF6" stroke-width="1" opacity="0.1785745622341555"/><line x1="564.8" y1="661.6" x2="552" y2="648.8" stroke="#8B5CF6" stroke-width="1" opacity="0.3741400948594634"/><line x1="661.6" y1="358.4" x2="648.8" y2="345.6" stroke="#8B5CF6" stroke-width="1" opacity="0.3741400948594634"/><line x1="358.4" y1="455.20000000000005" x2="455.20000000000005" y2="552" stroke="#8B5CF6" stroke-width="1" opacity="0.204434467374692"/><line x1="358.4" y1="455.20000000000005" x2="552" y2="648.8" stroke="#8B5CF6" stroke-width="1" opacity="0.00886893474938405"/><line x1="455.20000000000005" y1="552" x2="552" y2="648.8" stroke="#8B5CF6" stroke-width="1" opacity="0.20443446737469212"/><circle cx="396.8" cy="493.6" r="6" fill="#06B6D4" opacity="0.8"/><circle cx="493.6" cy="590.4" r="6" fill="#06B6D4" opacity="0.8"/><circle cx="590.4" cy="687.2" r="6" fill="#06B6D4" opacity="0.8"/><circle cx="687.2" cy="384" r="6" fill="#06B6D4" opacity="0.8"/><circle cx="384" cy="480.8" r="6" fill="#06B6D4" opacity="0.8"/><circle cx="480.8" cy="577.5999999999999" r="6" fill="#06B6D4" opacity="0.8"/><circle cx="577.5999999999999" cy="674.4000000000001" r="6" fill="#06B6D4" opacity="0.8"/><circle cx="674.4000000000001" cy="371.2" r="6" fill="#06B6D4" opacity="0.8"/><circle cx="371.2" cy="468" r="6" fill="#06B6D4" opacity="0.8"/><circle cx="468" cy="564.8" r="6" fill="#06B6D4" opacity="0.8"/><circle cx="564.8" cy="661.6" r="6" fill="#06B6D4" opacity="0.8"/><circle cx="661.6" cy="358.4" r="6" fill="#06B6D4" opacity="0.8"/><circle cx="358.4" cy="455.20000000000005" r="6" fill="#06B6D4" opacity="0.8"/><circle cx="455.20000000000005" cy="552" r="6" fill="#06B6D4" opacity="0.8"/><circle cx="552" cy="648.8" r="6" fill="#06B6D4" opacity="0.8"/><circle cx="648.8" cy="345.6" r="6" fill="#06B6D4" opacity="0.8"/>
    <text x="500" y="960" font-family="system-ui, sans-serif" font-size="36" font-weight="700" fill="white" text-anchor="middle" opacity="0.85">compass</text>
  </svg>