<svg xmlns="http://www.w3.org/2000/svg" viewBox="0 0 1000 1000" width="1000" height="1000">
    <defs>
      <linearGradient id="g459" x1="0" y1="0" x2="1" y2="1">
        <stop offset="0%" stop-color="#F59E0B"/>
        <stop offset="100%" stop-color="#EF4444"/>
      </linearGradient>
      <radialGradient id="glow459" cx="50%" cy="50%" r="60%">
        <stop offset="0%" stop-color="#FCD34D" stop-opacity="0.2"/>
        <stop offset="100%" stop-color="#FCD34D" stop-opacity="0"/>
      </radialGradient>
    </defs>
    <rect width="1000" height="1000" fill="#030712"/>
    <rect width="1000" height="1000" fill="url(#glow459)"/>
    <path d="M 0 500 L 0 540.2742488240111 L 16.666666666666668 582.9536196276229 L 33.333333333333336 617.51291387513 L 50 640.5692239369558 L 66.66666666666667 649.865639586106 L 83.33333333333333 644.4921620476634 L 100 624.9747855019001 L 116.66666666666667 593.224004925304 L 133.33333333333334 552.3478108077366 L 150 506.3474462057481 L 166.66666666666666 459.7257514626884 L 183.33333333333331 417.04637875808106 L 200 382.4870863098439 L 216.66666666666669 359.430776166912 L 233.33333333333334 350.13436042648857 L 250 355.50783787242483 L 266.6666666666667 375.0252155696096 L 283.3333333333333 406.7759948415284 L 300 447.6521889133478 L 316.66666666666663 493.6525534968904 L 333.3333333333333 540.2742482506121 L 350 582.9536209939456 L 366.66666666666663 617.5129135051823 L 383.33333333333337 640.5692245092633 L 400 649.865639560917 L 416.6666666666667 644.4921622074868 L 433.33333333333337 624.9747845949859 L 450 593.2240053916393 L 466.6666666666667 552.3478092709232 L 483.3333333333333 506.34744680047106 L 500 459.7257520360874 L 516.6666666666667 417.0463792540278 L 533.3333333333334 382.4870866797916 L 550 359.43077559460454 L 566.6666666666666 350.1343604516776 L 583.3333333333334 355.5078377126016 L 600 375.0252152404186 L 616.6666666666667 406.7759943751932 L 633.3333333333333 447.65219045016113 L 650 493.65255290216743 L 666.6666666666666 540.2742498303141 L 683.3333333333334 582.9536204979988 L 700 617.5129131352345 L 716.6666666666666 640.5692243015276 L 733.3333333333333 649.865639535728 L 750 644.492161767177 L 766.6666666666667 624.9747849241769 L 783.3333333333334 593.2240058579744 L 800 552.3478098287545 L 816.6666666666666 506.347447395194 L 833.3333333333334 459.72575045638536 L 850 417.0463797499745 L 866.6666666666667 382.4870870497394 L 883.3333333333333 359.43077580234024 L 900 350.1343604768666 L 916.6666666666666 355.50783815291135 L 933.3333333333334 375.0252149112276 L 950 406.7759956599368 L 966.6666666666666 447.65218989232983 L 983.3333333333333 493.6525523074445 L 1000 540.2742492569151" stroke="#F59E0B" stroke-width="3" fill="none" opacity="0.7"/><path d="M 0 500 L 0 646.3281080051385 L 16.666666666666668 636.0966452005862 L 33.333333333333336 619.9978390465546 L 50 599.1287948164638 L 66.66666666666667 574.9117056666709 L 83.33333333333333 548.9969235524024 L 100 523.1505008795591 L 116.66666666666667 499.13382581208987 L 133.33333333333334 478.5835976900705 L 150 462.90027835066724 L 166.66666666666666 453.1526618022465 L 183.33333333333331 450.0050309373552 L 200 453.6718919415871 L 216.66666666666669 463.9033546984858 L 233.33333333333334 480.0021608117419 L 250 500.871205010714 L 266.6666666666667 525.0882941411659 L 283.3333333333333 551.0030762491888 L 300 576.8494989293079 L 316.66666666666663 600.8661740170783 L 333.3333333333333 621.4164021710407 L 350 637.0997215518521 L 366.66666666666663 646.8473381483241 L 383.33333333333337 649.9949690646351 L 400 646.3281081116872 L 416.6666666666667 636.0966454024422 L 433.33333333333337 619.9978393299616 L 450 599.1287951621082 L 466.6666666666667 574.9117060509974 L 483.3333333333333 548.99692394922 L 500 523.1505012618251 L 516.6666666666667 499.13382615375355 L 533.3333333333334 478.58359796784816 L 550 462.9002785456287 L 566.6666666666666 453.1526619011055 L 583.3333333333334 450.0050309333746 L 600 453.67189183503825 L 616.6666666666667 463.9033544966298 L 633.3333333333333 480.0021605283349 L 650 500.8712046650697 L 666.6666666666666 525.0882937568394 L 683.3333333333334 551.0030758523712 L 700 576.8494985470419 L 716.6666666666666 600.8661736754145 L 733.3333333333333 621.416401893263 L 750 637.0997213568907 L 766.6666666666667 646.8473384206784 L 783.3333333333334 649.9949690686157 L 800 646.3281078181475 L 816.6666666666666 636.0966456042983 L 833.3333333333334 619.9978385491813 L 850 599.1287955077524 L 866.6666666666667 574.9117049921861 L 883.3333333333333 548.9969243460374 L 900 523.1505002086903 L 916.6666666666666 499.1338264954173 L 933.3333333333334 478.5835972025767 L 950 462.9002787405901 L 966.6666666666666 453.1526616287511 L 983.3333333333333 450.005030929394 L 1000 453.6718921285781" stroke="#EF4444" stroke-width="2" fill="none" opacity="0.5"/>
    <text x="500" y="960" font-family="system-ui, sans-serif" font-size="36" font-weight="700" fill="white" text-anchor="middle" opacity="0.85">medal</text>
  </svg>