<svg xmlns="http://www.w3.org/2000/svg" viewBox="0 0 1000 1000" width="1000" height="1000">
    <defs>
      <linearGradient id="g461" x1="0" y1="0" x2="1" y2="1">
        <stop offset="0%" stop-color="#8B5CF6"/>
        <stop offset="100%" stop-color="#6366F1"/>
      </linearGradient>
      <radialGradient id="glow461" cx="50%" cy="50%" r="60%">
        <stop offset="0%" stop-color="#C4B5FD" stop-opacity="0.2"/>
        <stop offset="100%" stop-color="#C4B5FD" stop-opacity="0"/>
      </radialGradient>
    </defs>
    <rect width="1000" height="1000" fill="#0F172A"/>
    <rect width="1000" height="1000" fill="url(#glow461)"/>
    <circle cx="522.7721425531956" cy="287.617351171201" r="4.4079999999999995" fill="#06B6D4" opacity="0.3408"/><circle cx="382.3369179223895" cy="474.4743439653846" r="2.544" fill="#8B5CF6" opacity="0.8009999999999999"/><circle cx="491.4323666653757" cy="525.815415143736" r="8.68" fill="#6366F1" opacity="0.6612"/><circle cx="803.9753942087885" cy="638.4014440517569" r="6.816" fill="#06B6D4" opacity="0.5214"/><circle cx="622.5771729126893" cy="292.7333198974503" r="4.952" fill="#6366F1" opacity="0.3816"/><circle cx="381.68871303305855" cy="411.7492245007103" r="3.088" fill="#8B5CF6" opacity="0.8417999999999999"/><circle cx="463.0105361975004" cy="539.8890908345072" r="9.224" fill="#06B6D4" opacity="0.702"/><circle cx="737.1587749779678" cy="772.4355987218808" r="7.36" fill="#8B5CF6" opacity="0.5622"/><circle cx="719.7471652992211" cy="346.58819034064953" r="5.496" fill="#6366F1" opacity="0.4224"/><circle cx="415.78945776702017" cy="346.8215923283326" r="3.6319999999999997" fill="#06B6D4" opacity="0.8826"/><circle cx="424.70990442659865" cy="531.4636537698356" r="9.768" fill="#6366F1" opacity="0.7427999999999999"/><circle cx="610.7014815433388" cy="872.2898628543487" r="7.904" fill="#8B5CF6" opacity="0.603"/><circle cx="790.3130245146212" cy="446.5080585772689" r="6.04" fill="#06B6D4" opacity="0.4632"/><circle cx="484.7839852833576" cy="298.57390214735597" r="4.176" fill="#8B5CF6" opacity="0.32339999999999997"/><circle cx="391.2536862322084" cy="496.58250941229966" r="2.312" fill="#6366F1" opacity="0.7836000000000001"/><circle cx="497.85047146531963" cy="515.4511982408677" r="8.448" fill="#06B6D4" opacity="0.6437999999999999"/><circle cx="812.7688147084102" cy="578.2139920084394" r="6.584" fill="#6366F1" opacity="0.504"/><circle cx="578.9921579915994" cy="284.8421998257321" r="4.720000000000001" fill="#8B5CF6" opacity="0.36419999999999997"/><circle cx="378.05681899720787" cy="439.7848805787094" r="2.856" fill="#06B6D4" opacity="0.8244"/><circle cx="477.0666131748989" cy="536.1372352114862" r="8.992" fill="#8B5CF6" opacity="0.6846"/><circle cx="773.5238273775752" cy="717.7266080586442" r="7.128" fill="#6366F1" opacity="0.5448"/><circle cx="680.159452256425" cy="317.5622523635393" r="5.263999999999999" fill="#06B6D4" opacity="0.40499999999999997"/><circle cx="396.76454957577806" cy="373.60110057556665" r="3.4" fill="#6366F1" opacity="0.8652"/><circle cx="441.37303719705005" cy="538.2476042713988" r="9.536" fill="#8B5CF6" opacity="0.7253999999999999"/><circle cx="671.0636203018612" cy="835.731258314177" r="7.672" fill="#06B6D4" opacity="0.5855999999999999"/><circle cx="764.9756880806951" cy="398.92159119692195" r="5.808" fill="#8B5CF6" opacity="0.4458"/><circle cx="451.491653829884" cy="315.88291673003243" r="3.944" fill="#6366F1" opacity="0.306"/><circle cx="403.90305041147474" cy="514.6019272625376" r="2.08" fill="#06B6D4" opacity="0.7662"/><circle cx="500.17587247327145" cy="503.9961317387125" r="8.216000000000001" fill="#6366F1" opacity="0.6264000000000001"/><circle cx="810.1867071955069" cy="519.5152934697106" r="6.352" fill="#8B5CF6" opacity="0.4866"/><circle cx="536.7381575694909" cy="285.523736095578" r="4.4879999999999995" fill="#06B6D4" opacity="0.3468"/><circle cx="380.3237576546909" cy="466.0447792216447" r="2.624" fill="#8B5CF6" opacity="0.8069999999999999"/><circle cx="488.33247278098065" cy="528.9362887840414" r="8.76" fill="#6366F1" opacity="0.6672"/><circle cx="798.2144345350142" cy="659.0979290718824" r="6.896" fill="#06B6D4" opacity="0.5274"/><circle cx="637.5980108982016" cy="297.5306754175873" r="5.032" fill="#6366F1" opacity="0.3876"/><circle cx="384.41371533066444" cy="401.9063162260723" r="3.168" fill="#8B5CF6" opacity="0.8477999999999999"/><circle cx="457.68025719707646" cy="540.2442464098211" r="9.304" fill="#06B6D4" opacity="0.708"/><circle cx="722.0161447180699" cy="789.9652935861894" r="7.44" fill="#8B5CF6" opacity="0.5682"/><circle cx="732.3634614222083" cy="358.609682807167" r="5.5760000000000005" fill="#6366F1" opacity="0.4284"/><circle cx="423.8706626681651" cy="338.21692301907564" r="3.7119999999999997" fill="#06B6D4" opacity="0.8886000000000001"/><circle cx="419.1026007646087" cy="527.9816153384631" r="9.847999999999999" fill="#6366F1" opacity="0.7487999999999999"/><circle cx="588.0038465965372" cy="882.4043448814529" r="7.984" fill="#8B5CF6" opacity="0.609"/><circle cx="797.0704752872882" cy="464.366129699615" r="6.12" fill="#06B6D4" opacity="0.46919999999999995"/><circle cx="497.4113957840293" cy="294.0162648940139" r="4.256" fill="#8B5CF6" opacity="0.32939999999999997"/><circle cx="387.7006103927726" cy="489.3845822576716" r="2.392" fill="#6366F1" opacity="0.7895999999999999"/><circle cx="496.08568438191764" cy="519.2051590267313" r="8.527999999999999" fill="#06B6D4" opacity="0.6497999999999999"/><circle cx="811.0524570712203" cy="598.9107120081374" r="6.664" fill="#6366F1" opacity="0.51"/><circle cx="593.957780808426" cy="286.565758544802" r="4.8" fill="#8B5CF6" opacity="0.3702"/><circle cx="378.61010183697135" cy="430.2540852524713" r="2.936" fill="#06B6D4" opacity="0.8304"/><circle cx="472.49165019271226" cy="537.8619953367476" r="9.072" fill="#8B5CF6" opacity="0.6906"/><circle cx="762.2798908404181" cy="737.1544198633842" r="7.208" fill="#6366F1" opacity="0.5508"/><circle cx="694.243074268457" cy="326.5705097201208" r="5.343999999999999" fill="#06B6D4" opacity="0.411"/><circle cx="402.57415179941415" cy="364.11753570678667" r="3.48" fill="#6366F1" opacity="0.8712"/><circle cx="435.6064021544551" cy="536.4618232745736" r="9.616" fill="#8B5CF6" opacity="0.7313999999999999"/><circle cx="651.2339167537244" cy="849.48096146046" r="7.752" fill="#06B6D4" opacity="0.5915999999999999"/><circle cx="774.6190430691345" cy="414.57084113844473" r="5.888" fill="#8B5CF6" opacity="0.4518"/><circle cx="462.3739834109127" cy="309.27600340901586" r="4.024" fill="#6366F1" opacity="0.312"/><circle cx="399.19127875471094" cy="508.8905410909352" r="2.16" fill="#06B6D4" opacity="0.7722"/><circle cx="499.84921248227676" cy="507.9985788190465" r="8.296" fill="#6366F1" opacity="0.6324000000000001"/><circle cx="812.3177079737977" cy="539.454901926043" r="6.432" fill="#8B5CF6" opacity="0.4926"/><circle cx="551.0542969515326" cy="284.36136996636077" r="4.568" fill="#06B6D4" opacity="0.3528"/><circle cx="378.9200151913562" cy="457.2659704832485" r="2.7039999999999997" fill="#8B5CF6" opacity="0.813"/><circle cx="484.81274719203026" cy="531.7551153697607" r="8.84" fill="#6366F1" opacity="0.6732"/><circle cx="791.0401127737846" cy="679.6097234467632" r="6.976" fill="#06B6D4" opacity="0.5334"/><circle cx="652.4912749488605" cy="303.40943292092817" r="5.112" fill="#6366F1" opacity="0.3936"/><circle cx="387.91991572744166" cy="392.0675456155276" r="3.248" fill="#8B5CF6" opacity="0.8537999999999999"/><circle cx="452.1708363750966" cy="540.0765655582188" r="9.384" fill="#06B6D4" opacity="0.714"/><circle cx="705.598477607439" cy="806.656005983094" r="7.52" fill="#8B5CF6" opacity="0.5742"/><circle cx="744.3238419277576" cy="371.6183024506214" r="5.656000000000001" fill="#6366F1" opacity="0.4344"/><circle cx="432.70683176924075" cy="330.0368583796277" r="3.792" fill="#06B6D4" opacity="0.8946000000000001"/><circle cx="413.65035842521513" cy="523.9144182431056" r="9.928" fill="#6366F1" opacity="0.7547999999999999"/><circle cx="564.4693722832519" cy="891.1223082839988" r="8.064" fill="#8B5CF6" opacity="0.615"/><circle cx="802.7153499930412" cy="482.8635803450501" r="6.2" fill="#06B6D4" opacity="0.47519999999999996"/><circle cx="510.55130681775165" cy="290.26523911273637" r="4.336" fill="#8B5CF6" opacity="0.3354"/><circle cx="384.6380018184879" cy="481.72845448330105" r="2.472" fill="#6366F1" opacity="0.7955999999999999"/><circle cx="493.8441404515584" cy="522.7830066764652" r="8.608" fill="#06B6D4" opacity="0.6557999999999999"/><circle cx="807.9562955561928" cy="619.6957811591818" r="6.744" fill="#6366F1" opacity="0.516"/><circle cx="609.0123429394168" cy="289.3340343414272" r="4.88" fill="#8B5CF6" opacity="0.3762"/><circle cx="379.8927055597033" cy="420.5629946295061" r="3.016" fill="#06B6D4" opacity="0.8364"/><circle cx="467.61886132076654" cy="539.1420727330101" r="9.152000000000001" fill="#8B5CF6" opacity="0.6966"/><circle cx="749.6639538320659" cy="756.0188863286069" r="7.288" fill="#6366F1" opacity="0.5568"/><circle cx="707.894661456922" cy="336.63791829891545" r="5.4239999999999995" fill="#06B6D4" opacity="0.417"/><circle cx="409.17648524668715" cy="354.8775373422337" r="3.56" fill="#6366F1" opacity="0.8772"/><circle cx="429.84639037782307" cy="534.0950297987728" r="9.696" fill="#8B5CF6" opacity="0.7373999999999999"/><circle cx="630.3463517103881" cy="862.050919893586" r="7.832" fill="#06B6D4" opacity="0.5975999999999999"/><circle cx="783.3278133179189" cy="431.0368924678818" r="5.968" fill="#8B5CF6" opacity="0.4578"/><circle cx="473.89763115609117" cy="303.32456599580985" r="4.104" fill="#6366F1" opacity="0.318"/><circle cx="394.83322328739683" cy="502.6436860406391" r="2.24" fill="#06B6D4" opacity="0.7782"/><circle cx="499.02091266118214" cy="511.95999113640835" r="8.376000000000001" fill="#6366F1" opacity="0.6384"/><circle cx="813.153175532306" cy="559.737163089929" r="6.512" fill="#8B5CF6" opacity="0.4986"/><circle cx="565.6577592364581" cy="284.1657611683279" r="4.648" fill="#06B6D4" opacity="0.3588"/><circle cx="378.1613034087587" cy="448.1821265107544" r="2.784" fill="#8B5CF6" opacity="0.819"/><circle cx="480.899795071567" cy="534.2318882285489" r="8.92" fill="#6366F1" opacity="0.6792"/><circle cx="782.4533807481457" cy="699.8401553841045" r="7.056" fill="#06B6D4" opacity="0.5394"/><circle cx="667.1796395538192" cy="310.3719215974198" r="5.192" fill="#6366F1" opacity="0.3996"/><circle cx="392.2168838238845" cy="382.29290646963545" r="3.3280000000000003" fill="#8B5CF6" opacity="0.8597999999999999"/><circle cx="446.5275563887815" cy="539.3656928586944" r="9.464" fill="#06B6D4" opacity="0.72"/><circle cx="687.952178850466" cy="822.4162192963661" r="7.6" fill="#8B5CF6" opacity="0.5802"/><circle cx="755.5536444729807" cy="385.5782590738223" r="5.736000000000001" fill="#6366F1" opacity="0.4404"/><circle cx="442.2756254507598" cy="322.3426427560653" r="3.872" fill="#06B6D4" opacity="0.3006"/>
    <text x="500" y="960" font-family="system-ui, sans-serif" font-size="36" font-weight="700" fill="white" text-anchor="middle" opacity="0.85">certificate</text>
  </svg>