<svg xmlns="http://www.w3.org/2000/svg" viewBox="0 0 1000 1000" width="1000" height="1000">
    <defs>
      <linearGradient id="g465" x1="0" y1="0" x2="1" y2="1">
        <stop offset="0%" stop-color="#F59E0B"/>
        <stop offset="100%" stop-color="#EF4444"/>
      </linearGradient>
      <radialGradient id="glow465" cx="50%" cy="50%" r="60%">
        <stop offset="0%" stop-color="#FCD34D" stop-opacity="0.2"/>
        <stop offset="100%" stop-color="#FCD34D" stop-opacity="0"/>
      </radialGradient>
    </defs>
    <rect width="1000" height="1000" fill="#030712"/>
    <rect width="1000" height="1000" fill="url(#glow465)"/>
    <path d="M 0 500 L 0 467.85583199578514 L 16.666666666666668 424.1533558347061 L 33.333333333333336 387.8752487250172 L 50 362.57271668823944 L 66.66666666666667 350.7225117658135 L 83.33333333333333 353.48463161002974 L 100 370.5887046251551 L 116.66666666666667 400.3604403941017 L 133.33333333333334 439.88561644949766 L 150 485.29517637158 L 166.66666666666666 532.1441808129954 L 183.33333333333331 575.8466554787899 L 200 612.1247599857489 L 216.66666666666669 637.4272885671285 L 233.33333333333334 649.27748601382 L 250 646.5153655798382 L 266.6666666666667 629.4113068273712 L 283.3333333333333 599.6395498036411 L 300 560.1144043014456 L 316.66666666666663 514.7048105781671 L 333.3333333333333 467.85584131020937 L 350 424.15333320771464 L 366.66666666666663 387.8752550594045 L 383.33333333333337 362.5727061775046 L 400 350.72251270064316 L 416.6666666666667 353.4846372302951 L 433.33333333333337 370.5886998033539 L 450 400.3604599986168 L 466.6666666666667 439.8856077128299 L 483.3333333333333 485.29516688155945 L 500 532.1441714985713 L 516.6666666666667 575.8466472517226 L 533.3333333333334 612.1247536513623 L 550 637.4272847454747 L 566.6666666666666 649.2774885848927 L 583.3333333333334 646.5153676233398 L 600 629.41129356592 L 616.6666666666667 599.63955693175 L 633.3333333333333 560.1143802728942 L 650 514.7048200681877 L 666.6666666666666 467.85581569264826 L 683.3333333333334 424.1533414347815 L 700 387.87526139379224 L 716.6666666666666 362.5727099991576 L 733.3333333333333 350.7225136354734 L 750 353.4846351867926 L 766.6666666666667 370.5886949815532 L 783.3333333333334 400.36045287050746 L 800 439.8855989761623 L 816.6666666666666 485.2951929820654 L 833.3333333333334 532.1441621841471 L 850 575.8466698787138 L 866.6666666666667 612.1247473169751 L 883.3333333333333 637.427295256209 L 900 649.2774876500632 L 916.6666666666666 646.5153696668408 L 933.3333333333334 629.4112983877214 L 950 599.6395640598583 L 966.6666666666666 560.114389009562 L 983.3333333333333 514.7048295582082 L 1000 467.85582500707227" stroke="#F59E0B" stroke-width="3" fill="none" opacity="0.7"/><path d="M 0 500 L 0 452.32308935789763 L 16.666666666666668 461.1976955519998 L 33.333333333333336 476.12402963649635 L 50 496.08490709453457 L 66.66666666666667 519.7199915063468 L 83.33333333333333 545.4186076368626 L 100 571.4294379617415 L 116.66666666666667 595.9799092558305 L 133.33333333333334 617.3969036767892 L 150 634.2209123161019 L 166.66666666666666 645.305407243625 L 183.33333333333331 649.894998748238 L 200 647.6769087686803 L 216.66666666666669 638.8023004283096 L 233.33333333333334 623.8759644714797 L 250 603.9151056224694 L 266.6666666666667 580.2800001617893 L 283.3333333333333 554.581383630039 L 300 528.5705534990713 L 316.66666666666663 504.02010415294376 L 333.3333333333333 482.6031074781712 L 350 465.77908297049055 L 366.66666666666663 454.69459010921213 L 383.33333333333337 450.1050008512437 L 400 452.3230879955633 L 416.6666666666667 461.1976926289193 L 433.33333333333337 476.12404142054476 L 450 496.08490174035677 L 466.6666666666667 519.7199854474942 L 483.3333333333333 545.4186012862358 L 500 571.4294550401157 L 516.6666666666667 595.9799036104004 L 533.3333333333334 617.3968989802712 L 550 634.2209088885561 L 566.6666666666666 645.3054053186329 L 583.3333333333334 649.8949995492738 L 600 647.6769101310151 L 616.6666666666667 638.8023033513906 L 633.3333333333333 623.8759687561039 L 650 603.9150908968167 L 666.6666666666666 580.280006220642 L 683.3333333333334 554.5813899806656 L 700 528.5705597086874 L 716.6666666666666 504.0201097983744 L 733.3333333333333 482.6030945612869 L 750 465.7790863980359 L 766.6666666666667 454.6945920342038 L 783.3333333333334 450.10500114249675 L 800 452.3230917424071 L 816.6666666666666 461.19770066830006 L 833.3333333333334 476.12403713592016 L 850 496.08489638617914 L 866.6666666666667 519.7199793886418 L 883.3333333333333 545.4186187524328 L 900 571.4294488304997 L 916.6666666666666 595.97989796497 L 933.3333333333334 617.396894283753 L 950 634.2209183153715 L 966.6666666666666 645.3054106129588 L 983.3333333333333 649.8949992580214 L 1000 647.6769114933497" stroke="#EF4444" stroke-width="2" fill="none" opacity="0.5"/>
    <text x="500" y="960" font-family="system-ui, sans-serif" font-size="36" font-weight="700" fill="white" text-anchor="middle" opacity="0.85">growth alt</text>
  </svg>