<svg xmlns="http://www.w3.org/2000/svg" viewBox="0 0 1000 1000" width="1000" height="1000">
    <defs>
      <linearGradient id="g466" x1="0" y1="0" x2="1" y2="1">
        <stop offset="0%" stop-color="#EC4899"/>
        <stop offset="100%" stop-color="#F43F5E"/>
      </linearGradient>
      <radialGradient id="glow466" cx="50%" cy="50%" r="60%">
        <stop offset="0%" stop-color="#F9A8D4" stop-opacity="0.2"/>
        <stop offset="100%" stop-color="#F9A8D4" stop-opacity="0"/>
      </radialGradient>
    </defs>
    <rect width="1000" height="1000" fill="#030712"/>
    <rect width="1000" height="1000" fill="url(#glow466)"/>
    <path d="M 0 500 L 0 445.82877168149804 L 16.666666666666668 491.7043644792315 L 33.333333333333336 538.3919919256506 L 50 581.3215435022175 L 66.66666666666667 616.2907697137025 L 83.33333333333333 639.8766520245931 L 100 649.7704323016185 L 116.66666666666667 645.0036383437864 L 133.33333333333334 626.0428771816507 L 150 594.7441603275983 L 166.66666666666666 554.1712244273942 L 183.33333333333331 508.2956402814478 L 200 461.6080126835089 L 216.66666666666669 418.6784605042456 L 233.33333333333334 383.70922765069156 L 250 360.12334646846426 L 266.6666666666667 350.22956746761236 L 283.3333333333333 354.9963627242073 L 300 373.95712023342134 L 316.66666666666663 405.255835975924 L 333.3333333333333 445.8287711264151 L 350 491.70436388488633 L 366.66666666666663 538.3919913502219 L 383.33333333333337 581.3215430020322 L 400 616.2907693377222 L 416.6666666666667 639.8766518096214 L 433.33333333333337 649.7704322686983 L 450 645.0036384961402 L 466.6666666666667 626.0428775043652 L 483.3333333333333 594.7441607890836 L 500 554.1712249824773 L 516.6666666666667 508.2956408757929 L 533.3333333333334 461.6080132589376 L 550 418.6784610044309 L 566.6666666666666 383.7092280266719 L 583.3333333333334 360.123346683436 L 600 350.22956750053254 L 616.6666666666667 354.99636257185347 L 633.3333333333333 373.95711991070704 L 650 405.25583551443873 L 666.6666666666666 445.8287705713322 L 683.3333333333334 491.7043632905412 L 700 538.3919907747932 L 716.6666666666666 581.3215425018469 L 733.3333333333333 616.290774608934 L 750 639.8766515946497 L 766.6666666666667 649.7704322357781 L 783.3333333333334 645.003638648494 L 800 626.0428778270795 L 816.6666666666666 594.7441612505688 L 833.3333333333334 554.1712255375602 L 850 508.29563254312467 L 866.6666666666667 461.6080138343664 L 883.3333333333333 418.6784615046163 L 900 383.7092284026522 L 916.6666666666666 360.1233468984077 L 933.3333333333334 350.2295675334527 L 950 354.99636241949963 L 966.6666666666666 373.9571195879927 L 983.3333333333333 405.2558350529534 L 1000 445.8287700162493" stroke="#EC4899" stroke-width="3" fill="none" opacity="0.7"/><path d="M 0 500 L 0 643.2511019237002 L 16.666666666666668 649.4206781466046 L 33.333333333333336 648.8148990793303 L 50 641.4750475664991 L 66.66666666666667 627.901322386712 L 83.33333333333333 609.0187553421993 L 100 586.1141536943982 L 116.66666666666667 560.748432017594 L 133.33333333333334 534.6502224208812 L 150 509.59807485736417 L 166.66666666666666 487.2992518773398 L 183.33333333333331 469.2733815004409 L 200 456.7488970716714 L 216.66666666666669 450.5793221950505 L 233.33333333333334 451.18510043275387 L 250 458.52495114926467 L 266.6666666666667 472.0986756202501 L 283.3333333333333 490.9812469034647 L 300 513.8858488996736 L 316.66666666666663 539.2515707481039 L 333.3333333333333 565.349780327965 L 350 590.4019222349633 L 366.66666666666663 612.700745646449 L 383.33333333333337 630.7266166235589 L 400 643.2511017803857 L 416.6666666666667 649.4206781039508 L 433.33333333333337 648.8148991402439 L 450 641.4750477268291 L 466.6666666666667 627.901322635532 L 483.3333333333333 609.0187556625526 L 500 586.1141540644535 L 516.6666666666667 560.7484324121326 L 533.3333333333334 534.6502228130157 L 550 509.59807522037136 L 566.6666666666666 487.29925218648145 L 583.3333333333334 469.27338173464943 L 600 456.7488972149859 L 616.6666666666667 450.57932223770433 L 633.3333333333333 451.18510037184024 L 650 458.52495098893473 L 666.6666666666666 472.09867537143003 L 683.3333333333334 490.9812465831113 L 700 513.8858485296183 L 716.6666666666666 539.2515703535653 L 733.3333333333333 565.3497799358305 L 750 590.4019218719561 L 766.6666666666667 612.7007453373074 L 783.3333333333334 630.7266163893504 L 800 643.2511016370713 L 816.6666666666666 649.420678061297 L 833.3333333333334 648.8148992011576 L 850 641.4750478871591 L 866.6666666666667 627.9013228843521 L 883.3333333333333 609.0187511712247 L 900 586.1141544345087 L 916.6666666666666 560.748432806671 L 933.3333333333334 534.6502232051503 L 950 509.5980755833786 L 966.6666666666666 487.299252495623 L 983.3333333333333 469.27338196885796 L 1000 456.7488973583004" stroke="#F43F5E" stroke-width="2" fill="none" opacity="0.5"/>
    <text x="500" y="960" font-family="system-ui, sans-serif" font-size="36" font-weight="700" fill="white" text-anchor="middle" opacity="0.85">trend alt</text>
  </svg>