<svg xmlns="http://www.w3.org/2000/svg" viewBox="0 0 1000 1000" width="1000" height="1000">
    <defs>
      <linearGradient id="g471" x1="0" y1="0" x2="1" y2="1">
        <stop offset="0%" stop-color="#F59E0B"/>
        <stop offset="100%" stop-color="#EF4444"/>
      </linearGradient>
      <radialGradient id="glow471" cx="50%" cy="50%" r="60%">
        <stop offset="0%" stop-color="#FCD34D" stop-opacity="0.2"/>
        <stop offset="100%" stop-color="#FCD34D" stop-opacity="0"/>
      </radialGradient>
    </defs>
    <rect width="1000" height="1000" fill="#030712"/>
    <rect width="1000" height="1000" fill="url(#glow471)"/>
    <path d="M 0 500 L 0 379.2361559704585 L 16.666666666666668 357.652764716133 L 33.333333333333336 350.0033134120048 L 50 357.0365836899135 L 66.66666666666667 378.064104806364 L 83.33333333333333 411.02756428677696 L 100 452.7002661629315 L 116.66666666666667 499.0029957992439 L 133.33333333333334 545.4033191586499 L 150 587.359249049966 L 166.66666666666666 620.7638465045886 L 183.33333333333331 642.3472337803736 L 200 649.996686556304 L 216.66666666666669 642.9634177532995 L 233.33333333333334 621.9358927634647 L 250 588.9724323537981 L 266.6666666666667 547.2997298772339 L 283.3333333333333 500.997000028128 L 300 454.59668538565813 L 316.66666666666663 412.64075482595047 L 333.3333333333333 379.2361563235345 L 350 357.652764903836 L 366.66666666666663 350.0033134159613 L 383.33333333333337 357.03658350973615 L 400 378.0641044596898 L 416.6666666666667 411.02756380754084 L 433.33333333333337 452.7002655980444 L 450 499.0029952040009 L 466.6666666666667 545.4033185913175 L 483.3333333333333 587.3592485660787 L 500 620.7638461515127 L 516.6666666666667 642.3472335926706 L 533.3333333333334 649.9966865523475 L 550 642.9634179334769 L 566.6666666666666 621.9358931101389 L 583.3333333333334 588.9724328330342 L 600 547.299730442121 L 616.6666666666667 500.997000623371 L 633.3333333333333 454.5966859529905 L 650 412.6407553098377 L 666.6666666666666 379.2361566766104 L 683.3333333333334 357.65276509153904 L 700 350.00331341991773 L 716.6666666666666 357.03658332955877 L 733.3333333333333 378.0641093200325 L 750 411.0275633283047 L 766.6666666666667 452.7002650331573 L 783.3333333333334 499.0029946087579 L 800 545.4033180239852 L 816.6666666666666 587.3592480821915 L 833.3333333333334 620.7638457984368 L 850 642.3472362242512 L 866.6666666666667 649.9966865483909 L 883.3333333333333 642.9634181136543 L 900 621.9358934568131 L 916.6666666666666 588.9724333122704 L 933.3333333333334 547.2997310070082 L 950 500.997001218614 L 966.6666666666666 454.59668652032286 L 983.3333333333333 412.64075579372496 L 1000 379.2361570296863" stroke="#F59E0B" stroke-width="3" fill="none" opacity="0.7"/><path d="M 0 500 L 0 490.685044137405 L 16.666666666666668 513.5434747885984 L 33.333333333333336 538.886357523174 L 50 564.9866166682935 L 66.66666666666667 590.0655625975077 L 83.33333333333333 612.414101839102 L 100 630.5092284103199 L 116.66666666666667 643.1177838095557 L 133.33333333333334 649.3805157754261 L 150 648.8706294504938 L 166.66666666666666 641.6228727470984 L 183.33333333333331 628.1311683344244 L 200 609.3149536229784 L 216.66666666666669 586.456528171291 L 233.33333333333334 561.1136456357857 L 250 535.0133864744587 L 266.6666666666667 509.93444031486365 L 283.3333333333333 487.58589598743447 L 300 469.4907699396486 L 316.66666666666663 456.8822151762917 L 333.3333333333333 450.61948391541296 L 350 451.1293700731341 L 366.66666666666663 458.3771259793573 L 383.33333333333337 471.8688296816491 L 400 490.6850438179142 L 416.6666666666667 513.5434744190721 L 433.33333333333337 538.8863571287949 L 450 564.9866162759379 L 466.6666666666667 590.0655622339139 L 483.3333333333333 612.4141015290484 L 500 630.509228174936 L 516.6666666666667 643.1177836648826 L 533.3333333333334 649.3805157313232 L 550 648.8706295099663 L 566.6666666666666 641.6228729060936 L 583.3333333333334 628.1311685821069 L 600 609.3149539424692 L 616.6666666666667 586.4565285408172 L 633.3333333333333 561.1136460301648 L 650 535.0133868668144 L 666.6666666666666 509.9344406784575 L 683.3333333333334 487.5858962974882 L 700 469.49077017503254 L 716.6666666666666 456.88221532096486 L 733.3333333333333 450.61948395951606 L 750 451.1293700136616 L 766.6666666666667 458.37712582036215 L 783.3333333333334 471.8688294339666 L 800 490.6850434984235 L 816.6666666666666 513.5434740495459 L 833.3333333333334 538.8863567344158 L 850 564.9866158835822 L 866.6666666666667 590.0655618703199 L 883.3333333333333 612.4141058759752 L 900 630.509227939552 L 916.6666666666666 643.1177835202094 L 933.3333333333334 649.38051568722 L 950 648.8706295694387 L 966.6666666666666 641.6228730650887 L 983.3333333333333 628.1311688297894 L 1000 609.3149542619599" stroke="#EF4444" stroke-width="2" fill="none" opacity="0.5"/>
    <text x="500" y="960" font-family="system-ui, sans-serif" font-size="36" font-weight="700" fill="white" text-anchor="middle" opacity="0.85">forecast alt</text>
  </svg>