<svg xmlns="http://www.w3.org/2000/svg" viewBox="0 0 1000 1000" width="1000" height="1000">
    <defs>
      <linearGradient id="g472" x1="0" y1="0" x2="1" y2="1">
        <stop offset="0%" stop-color="#EC4899"/>
        <stop offset="100%" stop-color="#F43F5E"/>
      </linearGradient>
      <radialGradient id="glow472" cx="50%" cy="50%" r="60%">
        <stop offset="0%" stop-color="#F9A8D4" stop-opacity="0.2"/>
        <stop offset="100%" stop-color="#F9A8D4" stop-opacity="0"/>
      </radialGradient>
    </defs>
    <rect width="1000" height="1000" fill="#030712"/>
    <rect width="1000" height="1000" fill="url(#glow472)"/>
    <circle cx="822.5663898585922" cy="365.1998362998223" r="8.488" fill="#8B5CF6" opacity="0.7487999999999999"/><circle cx="727.9396502027467" cy="269.17782631330783" r="7.984" fill="#EC4899" opacity="0.7110000000000001"/><circle cx="611.8885943567499" cy="222.5084101222693" r="7.48" fill="#F43F5E" opacity="0.6732"/><circle cx="496.5569050719613" cy="226.02163388815438" r="6.976" fill="#8B5CF6" opacity="0.6354"/><circle cx="401.18960481006667" cy="271.66264912982547" r="6.472" fill="#F43F5E" opacity="0.5975999999999999"/><circle cx="338.93890203506396" cy="344.8991208202568" r="5.968" fill="#EC4899" opacity="0.5598"/><circle cx="315.07709128829094" cy="428.12456724581807" r="5.464" fill="#8B5CF6" opacity="0.522"/><circle cx="326.85469841613246" cy="504.3525325307861" r="4.96" fill="#EC4899" opacity="0.48419999999999996"/><circle cx="364.9216450642816" cy="560.4800630609797" r="4.4559999999999995" fill="#F43F5E" opacity="0.4464"/><circle cx="415.937615391957" cy="589.5173474473493" r="3.952" fill="#8B5CF6" opacity="0.40859999999999996"/><circle cx="465.78785034933316" cy="591.4072689466236" r="3.448" fill="#F43F5E" opacity="0.37079999999999996"/><circle cx="502.72876922530327" cy="572.3485578191786" r="2.944" fill="#EC4899" opacity="0.33299999999999996"/><circle cx="519.8280463810372" cy="542.8332648383407" r="2.44" fill="#8B5CF6" opacity="0.8952"/><circle cx="516.2252885818798" cy="514.8573217786625" r="9.936" fill="#EC4899" opacity="0.8573999999999999"/><circle cx="873.3414891210366" cy="634.4112067533316" r="9.432" fill="#F43F5E" opacity="0.8195999999999999"/><circle cx="871.1306530747961" cy="481.3292113643974" r="8.928" fill="#8B5CF6" opacity="0.7818"/><circle cx="812.4992035251455" cy="350.54362577611585" r="8.424" fill="#F43F5E" opacity="0.744"/><circle cx="713.9230118198816" cy="260.40370408975264" r="7.92" fill="#EC4899" opacity="0.7061999999999999"/><circle cx="596.7588567778631" cy="220.2613297467778" r="7.416" fill="#8B5CF6" opacity="0.6684"/><circle cx="482.996327311462" cy="229.73436194162406" r="6.912" fill="#EC4899" opacity="0.6306"/><circle cx="391.2585784568458" cy="279.7849613655461" r="6.408" fill="#F43F5E" opacity="0.5928"/><circle cx="333.7629956857627" cy="355.2884994320484" r="5.904" fill="#8B5CF6" opacity="0.5549999999999999"/><circle cx="314.7364324978945" cy="438.5146313632844" r="5.4" fill="#F43F5E" opacity="0.5172"/><circle cx="330.48298695569565" cy="512.8055569397486" r="4.896" fill="#EC4899" opacity="0.47939999999999994"/><circle cx="370.9822552975244" cy="565.7378243622863" r="4.3919999999999995" fill="#8B5CF6" opacity="0.4416"/><circle cx="422.61210699629453" cy="591.1881243169692" r="3.888" fill="#EC4899" opacity="0.4038"/><circle cx="471.39347054666615" cy="589.9612498392255" r="3.384" fill="#F43F5E" opacity="0.366"/><circle cx="506.0793028013114" cy="568.9324457527075" r="2.88" fill="#8B5CF6" opacity="0.3282"/><circle cx="520.4666474354082" cy="538.9501776986281" r="2.376" fill="#F43F5E" opacity="0.8903999999999999"/><circle cx="514.4856489641849" cy="511.9835710072754" r="9.872" fill="#EC4899" opacity="0.8526"/><circle cx="876.5618634935557" cy="614.5518352636078" r="9.368" fill="#8B5CF6" opacity="0.8148"/><circle cx="866.5399546559111" cy="463.02674424881235" r="8.864" fill="#EC4899" opacity="0.7769999999999999"/><circle cx="801.781357657399" cy="336.55504850116347" r="8.36" fill="#F43F5E" opacity="0.7392"/><circle cx="699.6058528904425" cy="252.44898810168644" r="7.856" fill="#8B5CF6" opacity="0.7014"/><circle cx="581.6885958482864" cy="218.82600883379104" r="7.352" fill="#F43F5E" opacity="0.6636"/><circle cx="469.7996314078562" cy="234.1096133048457" r="6.848" fill="#EC4899" opacity="0.6258"/><circle cx="381.89056952417957" cy="288.3211809540753" r="6.344" fill="#8B5CF6" opacity="0.588"/><circle cx="329.21815253992634" cy="365.80089203677943" r="5.84" fill="#EC4899" opacity="0.5502"/><circle cx="314.96505376831817" cy="448.75481805048787" r="5.336" fill="#F43F5E" opacity="0.5124"/><circle cx="334.5152678207451" cy="520.905583358526" r="4.832" fill="#8B5CF6" opacity="0.47459999999999997"/><circle cx="377.2227887151082" cy="570.5430109160719" r="4.327999999999999" fill="#F43F5E" opacity="0.43679999999999997"/><circle cx="429.23691334834797" cy="592.4204824026081" r="3.824" fill="#EC4899" opacity="0.399"/><circle cx="476.7649098176756" cy="588.1905356839341" r="3.3200000000000003" fill="#8B5CF6" opacity="0.36119999999999997"/><circle cx="509.09415918518613" cy="565.370454095979" r="2.816" fill="#EC4899" opacity="0.32339999999999997"/><circle cx="520.7688897626151" cy="535.1182747017609" r="2.312" fill="#F43F5E" opacity="0.8855999999999999"/><circle cx="512.5044449639856" cy="509.3273177356973" r="9.808" fill="#8B5CF6" opacity="0.8477999999999999"/><circle cx="878.7374232697373" cy="594.710739702527" r="9.304" fill="#F43F5E" opacity="0.81"/><circle cx="861.0556171782862" cy="445.1376148530993" r="8.8" fill="#EC4899" opacity="0.7722"/><circle cx="790.4543267777603" cy="323.26210350895883" r="8.296" fill="#8B5CF6" opacity="0.7343999999999999"/><circle cx="685.0347974216704" cy="245.3214501707665" r="7.792" fill="#EC4899" opacity="0.6966"/><circle cx="566.7207779655407" cy="218.19067121957625" r="7.288" fill="#F43F5E" opacity="0.6587999999999999"/><circle cx="456.9987335224726" cy="239.1202363514397" r="6.784" fill="#8B5CF6" opacity="0.621"/><circle cx="373.10172471382924" cy="297.2354376884481" r="6.28" fill="#F43F5E" opacity="0.5831999999999999"/><circle cx="325.3034003465226" cy="376.3994414676348" r="5.776" fill="#EC4899" opacity="0.5454"/><circle cx="315.7469153459645" cy="458.8145560243328" r="5.272" fill="#8B5CF6" opacity="0.5075999999999999"/><circle cx="338.925274871022" cy="528.6337724483552" r="4.768" fill="#EC4899" opacity="0.4698"/><circle cx="383.6132698099334" cy="574.8911812943596" r="4.263999999999999" fill="#F43F5E" opacity="0.432"/><circle cx="435.7851549588512" cy="593.223890051538" r="3.76" fill="#8B5CF6" opacity="0.3942"/><circle cx="481.8840904282505" cy="586.1151195806416" r="3.2560000000000002" fill="#F43F5E" opacity="0.3564"/><circle cx="511.76754655598353" cy="561.6876393457617" r="2.752" fill="#EC4899" opacity="0.3186"/><circle cx="520.741884735629" cy="531.3613491038552" r="2.248" fill="#8B5CF6" opacity="0.8808"/><circle cx="510.2993891500281" cy="506.9052576444535" r="9.744" fill="#EC4899" opacity="0.843"/><circle cx="879.878248354059" cy="574.942354029293" r="9.24" fill="#F43F5E" opacity="0.8051999999999999"/><circle cx="854.7075289630974" cy="427.7049870537846" r="8.736" fill="#8B5CF6" opacity="0.7674"/><circle cx="778.5607374156723" cy="310.6903183394023" r="8.232" fill="#F43F5E" opacity="0.7296"/><circle cx="670.2564784423981" cy="239.02626272286852" r="7.728" fill="#EC4899" opacity="0.6918"/><circle cx="551.8973307028122" cy="218.3412932893376" r="7.224" fill="#8B5CF6" opacity="0.6539999999999999"/><circle cx="444.6237428883593" cy="244.7375661239879" r="6.72" fill="#EC4899" opacity="0.6162"/><circle cx="364.90601835967647" cy="306.49130219919334" r="6.216" fill="#F43F5E" opacity="0.5784"/><circle cx="322.01567330417515" cy="387.04771161842757" r="5.712" fill="#8B5CF6" opacity="0.5406"/><circle cx="317.0643631403459" cy="468.6645126613166" r="5.208" fill="#F43F5E" opacity="0.5028"/><circle cx="343.685889605033" cy="535.9730300562807" r="4.704000000000001" fill="#EC4899" opacity="0.46499999999999997"/><circle cx="390.1237489686457" cy="578.7797528511915" r="4.2" fill="#8B5CF6" opacity="0.42719999999999997"/><circle cx="442.23079070425746" cy="593.6093929974161" r="3.6959999999999997" fill="#EC4899" opacity="0.38939999999999997"/><circle cx="486.7343573645884" cy="583.7559712824677" r="3.192" fill="#F43F5E" opacity="0.35159999999999997"/><circle cx="514.095340222614" cy="557.9092512817145" r="2.6879999999999997" fill="#8B5CF6" opacity="0.31379999999999997"/><circle cx="520.3942746135405" cy="527.7025912684626" r="2.184" fill="#F43F5E" opacity="0.8759999999999999"/><circle cx="507.8892452369816" cy="504.73284371078984" r="9.68" fill="#EC4899" opacity="0.8382000000000001"/><circle cx="879.9972295434179" cy="555.3001405000648" r="9.176" fill="#8B5CF6" opacity="0.8004"/><circle cx="847.5276382129528" cy="410.7700684852499" r="8.672" fill="#EC4899" opacity="0.7626"/><circle cx="766.1442250300672" cy="298.8627048925414" r="8.168" fill="#F43F5E" opacity="0.7247999999999999"/><circle cx="655.3173953844687" cy="233.56601813772954" r="7.664" fill="#8B5CF6" opacity="0.687"/><circle cx="537.2590264949343" cy="219.26167888111576" r="7.16" fill="#F43F5E" opacity="0.6492"/><circle cx="432.7028913772064" cy="250.9315371810154" r="6.656" fill="#EC4899" opacity="0.6113999999999999"/><circle cx="357.3152379095871" cy="316.0519131189393" r="6.152" fill="#8B5CF6" opacity="0.5736"/><circle cx="319.3498525306064" cy="397.7098038945747" r="5.648" fill="#EC4899" opacity="0.5358"/><circle cx="318.898212926466" cy="478.27667799869573" r="5.144" fill="#F43F5E" opacity="0.498"/><circle cx="348.76925002666724" cy="542.9080442633235" r="4.640000000000001" fill="#8B5CF6" opacity="0.4602"/><circle cx="396.7244130038904" cy="582.2079870244308" r="4.136" fill="#F43F5E" opacity="0.4224"/><circle cx="448.5487076059368" cy="593.5895534286847" r="3.6319999999999997" fill="#EC4899" opacity="0.3846"/><circle cx="491.3005298111388" cy="581.1349444963951" r="3.128" fill="#8B5CF6" opacity="0.3468"/><circle cx="516.0750864033066" cy="554.06062890058" r="2.624" fill="#EC4899" opacity="0.309"/><circle cx="519.7361890516895" cy="524.1644954782005" r="2.12" fill="#F43F5E" opacity="0.8712"/><circle cx="505.2937473586097" cy="502.824223592992" r="9.616" fill="#8B5CF6" opacity="0.8333999999999999"/><circle cx="879.1099961208529" cy="535.8364457116902" r="9.112" fill="#F43F5E" opacity="0.7955999999999999"/><circle cx="839.5498321119062" cy="394.3720135912063" r="8.608" fill="#EC4899" opacity="0.7578"/><circle cx="753.2492894498091" cy="287.79972339045645" r="8.104" fill="#8B5CF6" opacity="0.72"/><circle cx="640.2637734616779" cy="228.94075582210615" r="7.6" fill="#EC4899" opacity="0.6821999999999999"/><circle cx="522.8453712390841" cy="220.93354015047163" r="7.096" fill="#F43F5E" opacity="0.6444"/><circle cx="421.26246983326337" cy="257.67079964799484" r="6.592" fill="#8B5CF6" opacity="0.6066"/>
    <text x="500" y="960" font-family="system-ui, sans-serif" font-size="36" font-weight="700" fill="white" text-anchor="middle" opacity="0.85">realtime alt</text>
  </svg>