<svg xmlns="http://www.w3.org/2000/svg" viewBox="0 0 1000 1000" width="1000" height="1000">
    <defs>
      <linearGradient id="g477" x1="0" y1="0" x2="1" y2="1">
        <stop offset="0%" stop-color="#F59E0B"/>
        <stop offset="100%" stop-color="#EF4444"/>
      </linearGradient>
      <radialGradient id="glow477" cx="50%" cy="50%" r="60%">
        <stop offset="0%" stop-color="#FCD34D" stop-opacity="0.2"/>
        <stop offset="100%" stop-color="#FCD34D" stop-opacity="0"/>
      </radialGradient>
    </defs>
    <rect width="1000" height="1000" fill="#030712"/>
    <rect width="1000" height="1000" fill="url(#glow477)"/>
    <rect x="7.5" y="299.25" width="35" height="401.5" fill="#EF4444" opacity="0.4236" rx="4"/><rect x="57.5" y="398.5" width="35" height="203" fill="#F59E0B" opacity="0.7854" rx="4"/><rect x="107.5" y="247.75" width="35" height="504.5" fill="#EF4444" opacity="0.5471999999999999" rx="4"/><rect x="157.5" y="347" width="35" height="306" fill="#F59E0B" opacity="0.309" rx="4"/><rect x="207.5" y="446.25" width="35" height="107.5" fill="#EF4444" opacity="0.6708" rx="4"/><rect x="257.5" y="295.5" width="35" height="409" fill="#F59E0B" opacity="0.4326" rx="4"/><rect x="307.5" y="394.75" width="35" height="210.5" fill="#EF4444" opacity="0.7944" rx="4"/><rect x="357.5" y="244" width="35" height="512" fill="#F59E0B" opacity="0.5562" rx="4"/><rect x="407.5" y="343.25" width="35" height="313.5" fill="#EF4444" opacity="0.318" rx="4"/><rect x="457.5" y="442.5" width="35" height="115" fill="#F59E0B" opacity="0.6798" rx="4"/><rect x="507.5" y="291.75" width="35" height="416.5" fill="#EF4444" opacity="0.4416" rx="4"/><rect x="557.5" y="391" width="35" height="218" fill="#F59E0B" opacity="0.8033999999999999" rx="4"/><rect x="607.5" y="240.25" width="35" height="519.5" fill="#EF4444" opacity="0.5651999999999999" rx="4"/><rect x="657.5" y="339.5" width="35" height="321" fill="#F59E0B" opacity="0.327" rx="4"/><rect x="707.5" y="438.75" width="35" height="122.5" fill="#EF4444" opacity="0.6888" rx="4"/><rect x="757.5" y="288" width="35" height="424" fill="#F59E0B" opacity="0.4506" rx="4"/><rect x="807.5" y="387.25" width="35" height="225.5" fill="#EF4444" opacity="0.8124" rx="4"/><rect x="857.5" y="236.5" width="35" height="527" fill="#F59E0B" opacity="0.5742" rx="4"/><rect x="907.5" y="335.75" width="35" height="328.5" fill="#EF4444" opacity="0.33599999999999997" rx="4"/><rect x="957.5" y="435" width="35" height="130" fill="#F59E0B" opacity="0.6978" rx="4"/>
    <text x="500" y="960" font-family="system-ui, sans-serif" font-size="36" font-weight="700" fill="white" text-anchor="middle" opacity="0.85">neural alt</text>
  </svg>