<svg xmlns="http://www.w3.org/2000/svg" viewBox="0 0 1000 1000" width="1000" height="1000">
    <defs>
      <linearGradient id="g478" x1="0" y1="0" x2="1" y2="1">
        <stop offset="0%" stop-color="#EC4899"/>
        <stop offset="100%" stop-color="#F43F5E"/>
      </linearGradient>
      <radialGradient id="glow478" cx="50%" cy="50%" r="60%">
        <stop offset="0%" stop-color="#F9A8D4" stop-opacity="0.2"/>
        <stop offset="100%" stop-color="#F9A8D4" stop-opacity="0"/>
      </radialGradient>
    </defs>
    <rect width="1000" height="1000" fill="#030712"/>
    <rect width="1000" height="1000" fill="url(#glow478)"/>
    <line x1="452.8" y1="605.6" x2="358.4" y2="511.20000000000005" stroke="#EC4899" stroke-width="1" opacity="0.20928319958854263"/><line x1="452.8" y1="605.6" x2="511.20000000000005" y2="664" stroke="#EC4899" stroke-width="1" opacity="0.2820141827963018"/><line x1="452.8" y1="605.6" x2="416.8" y2="569.6" stroke="#EC4899" stroke-width="1" opacity="0.32726901679224085"/><line x1="452.8" y1="605.6" x2="322.4" y2="475.2" stroke="#EC4899" stroke-width="1" opacity="0.1365522163807834"/><line x1="452.8" y1="605.6" x2="475.2" y2="628" stroke="#EC4899" stroke-width="1" opacity="0.35474516600406103"/><line x1="452.8" y1="605.6" x2="380.8" y2="533.6" stroke="#EC4899" stroke-width="1" opacity="0.2545380335844817"/><line x1="452.8" y1="605.6" x2="533.6" y2="686.4" stroke="#EC4899" stroke-width="1" opacity="0.2367593488003628"/><line x1="452.8" y1="605.6" x2="439.2" y2="592" stroke="#EC4899" stroke-width="1" opacity="0.37252385078817984"/><line x1="452.8" y1="605.6" x2="344.8" y2="497.6" stroke="#EC4899" stroke-width="1" opacity="0.18180705037672248"/><line x1="605.6" y1="358.4" x2="664" y2="416.8" stroke="#EC4899" stroke-width="1" opacity="0.2820141827963018"/><line x1="605.6" y1="358.4" x2="569.6" y2="322.4" stroke="#EC4899" stroke-width="1" opacity="0.32726901679224085"/><line x1="605.6" y1="358.4" x2="628" y2="380.8" stroke="#EC4899" stroke-width="1" opacity="0.354745166004061"/><line x1="605.6" y1="358.4" x2="686.4" y2="439.2" stroke="#EC4899" stroke-width="1" opacity="0.2367593488003628"/><line x1="605.6" y1="358.4" x2="592" y2="344.8" stroke="#EC4899" stroke-width="1" opacity="0.3725238507881799"/><line x1="358.4" y1="511.20000000000005" x2="511.20000000000005" y2="664" stroke="#EC4899" stroke-width="1" opacity="0.09129738238484436"/><line x1="358.4" y1="511.20000000000005" x2="416.8" y2="569.6" stroke="#EC4899" stroke-width="1" opacity="0.2820141827963018"/><line x1="358.4" y1="511.20000000000005" x2="322.4" y2="475.2" stroke="#EC4899" stroke-width="1" opacity="0.3272690167922408"/><line x1="358.4" y1="511.20000000000005" x2="475.2" y2="628" stroke="#EC4899" stroke-width="1" opacity="0.16402836559260361"/><line x1="358.4" y1="511.20000000000005" x2="380.8" y2="533.6" stroke="#EC4899" stroke-width="1" opacity="0.354745166004061"/><line x1="358.4" y1="511.20000000000005" x2="533.6" y2="686.4" stroke="#EC4899" stroke-width="1" opacity="0.046042548388905424"/><line x1="358.4" y1="511.20000000000005" x2="439.2" y2="592" stroke="#EC4899" stroke-width="1" opacity="0.2367593488003628"/><line x1="358.4" y1="511.20000000000005" x2="344.8" y2="497.6" stroke="#EC4899" stroke-width="1" opacity="0.3725238507881799"/><line x1="511.20000000000005" y1="664" x2="416.8" y2="569.6" stroke="#EC4899" stroke-width="1" opacity="0.20928319958854263"/><line x1="511.20000000000005" y1="664" x2="322.4" y2="475.2" stroke="#EC4899" stroke-width="1" opacity="0.01856639917708519"/><line x1="511.20000000000005" y1="664" x2="475.2" y2="628" stroke="#EC4899" stroke-width="1" opacity="0.3272690167922408"/><line x1="511.20000000000005" y1="664" x2="380.8" y2="533.6" stroke="#EC4899" stroke-width="1" opacity="0.13655221638078346"/><line x1="511.20000000000005" y1="664" x2="533.6" y2="686.4" stroke="#EC4899" stroke-width="1" opacity="0.35474516600406103"/><line x1="511.20000000000005" y1="664" x2="439.2" y2="592" stroke="#EC4899" stroke-width="1" opacity="0.2545380335844816"/><line x1="511.20000000000005" y1="664" x2="344.8" y2="497.6" stroke="#EC4899" stroke-width="1" opacity="0.0638212331730243"/><line x1="664" y1="416.8" x2="569.6" y2="322.4" stroke="#EC4899" stroke-width="1" opacity="0.20928319958854263"/><line x1="664" y1="416.8" x2="628" y2="380.8" stroke="#EC4899" stroke-width="1" opacity="0.32726901679224085"/><line x1="664" y1="416.8" x2="686.4" y2="439.2" stroke="#EC4899" stroke-width="1" opacity="0.35474516600406103"/><line x1="664" y1="416.8" x2="592" y2="344.8" stroke="#EC4899" stroke-width="1" opacity="0.2545380335844817"/><line x1="416.8" y1="569.6" x2="322.4" y2="475.2" stroke="#EC4899" stroke-width="1" opacity="0.20928319958854255"/><line x1="416.8" y1="569.6" x2="475.2" y2="628" stroke="#EC4899" stroke-width="1" opacity="0.28201418279630186"/><line x1="416.8" y1="569.6" x2="380.8" y2="533.6" stroke="#EC4899" stroke-width="1" opacity="0.32726901679224085"/><line x1="416.8" y1="569.6" x2="533.6" y2="686.4" stroke="#EC4899" stroke-width="1" opacity="0.16402836559260361"/><line x1="416.8" y1="569.6" x2="439.2" y2="592" stroke="#EC4899" stroke-width="1" opacity="0.35474516600406103"/><line x1="416.8" y1="569.6" x2="344.8" y2="497.6" stroke="#EC4899" stroke-width="1" opacity="0.2545380335844817"/><line x1="569.6" y1="322.4" x2="628" y2="380.8" stroke="#EC4899" stroke-width="1" opacity="0.2820141827963018"/><line x1="569.6" y1="322.4" x2="686.4" y2="439.2" stroke="#EC4899" stroke-width="1" opacity="0.16402836559260361"/><line x1="569.6" y1="322.4" x2="592" y2="344.8" stroke="#EC4899" stroke-width="1" opacity="0.354745166004061"/><line x1="322.4" y1="475.2" x2="475.2" y2="628" stroke="#EC4899" stroke-width="1" opacity="0.09129738238484436"/><line x1="322.4" y1="475.2" x2="380.8" y2="533.6" stroke="#EC4899" stroke-width="1" opacity="0.28201418279630175"/><line x1="322.4" y1="475.2" x2="439.2" y2="592" stroke="#EC4899" stroke-width="1" opacity="0.16402836559260356"/><line x1="322.4" y1="475.2" x2="344.8" y2="497.6" stroke="#EC4899" stroke-width="1" opacity="0.3547451660040609"/><line x1="475.2" y1="628" x2="380.8" y2="533.6" stroke="#EC4899" stroke-width="1" opacity="0.2092831995885427"/><line x1="475.2" y1="628" x2="533.6" y2="686.4" stroke="#EC4899" stroke-width="1" opacity="0.2820141827963018"/><line x1="475.2" y1="628" x2="439.2" y2="592" stroke="#EC4899" stroke-width="1" opacity="0.32726901679224085"/><line x1="475.2" y1="628" x2="344.8" y2="497.6" stroke="#EC4899" stroke-width="1" opacity="0.13655221638078352"/><line x1="628" y1="380.8" x2="686.4" y2="439.2" stroke="#EC4899" stroke-width="1" opacity="0.28201418279630186"/><line x1="628" y1="380.8" x2="592" y2="344.8" stroke="#EC4899" stroke-width="1" opacity="0.32726901679224085"/><line x1="380.8" y1="533.6" x2="533.6" y2="686.4" stroke="#EC4899" stroke-width="1" opacity="0.09129738238484447"/><line x1="380.8" y1="533.6" x2="439.2" y2="592" stroke="#EC4899" stroke-width="1" opacity="0.28201418279630186"/><line x1="380.8" y1="533.6" x2="344.8" y2="497.6" stroke="#EC4899" stroke-width="1" opacity="0.32726901679224085"/><line x1="533.6" y1="686.4" x2="439.2" y2="592" stroke="#EC4899" stroke-width="1" opacity="0.20928319958854263"/><line x1="533.6" y1="686.4" x2="344.8" y2="497.6" stroke="#EC4899" stroke-width="1" opacity="0.018566399177085358"/><line x1="686.4" y1="439.2" x2="592" y2="344.8" stroke="#EC4899" stroke-width="1" opacity="0.2092831995885427"/><line x1="439.2" y1="592" x2="344.8" y2="497.6" stroke="#EC4899" stroke-width="1" opacity="0.2092831995885427"/><circle cx="452.8" cy="605.6" r="6" fill="#8B5CF6" opacity="0.8"/><circle cx="605.6" cy="358.4" r="6" fill="#8B5CF6" opacity="0.8"/><circle cx="358.4" cy="511.20000000000005" r="6" fill="#8B5CF6" opacity="0.8"/><circle cx="511.20000000000005" cy="664" r="6" fill="#8B5CF6" opacity="0.8"/><circle cx="664" cy="416.8" r="6" fill="#8B5CF6" opacity="0.8"/><circle cx="416.8" cy="569.6" r="6" fill="#8B5CF6" opacity="0.8"/><circle cx="569.6" cy="322.4" r="6" fill="#8B5CF6" opacity="0.8"/><circle cx="322.4" cy="475.2" r="6" fill="#8B5CF6" opacity="0.8"/><circle cx="475.2" cy="628" r="6" fill="#8B5CF6" opacity="0.8"/><circle cx="628" cy="380.8" r="6" fill="#8B5CF6" opacity="0.8"/><circle cx="380.8" cy="533.6" r="6" fill="#8B5CF6" opacity="0.8"/><circle cx="533.6" cy="686.4" r="6" fill="#8B5CF6" opacity="0.8"/><circle cx="686.4" cy="439.2" r="6" fill="#8B5CF6" opacity="0.8"/><circle cx="439.2" cy="592" r="6" fill="#8B5CF6" opacity="0.8"/><circle cx="592" cy="344.8" r="6" fill="#8B5CF6" opacity="0.8"/><circle cx="344.8" cy="497.6" r="6" fill="#8B5CF6" opacity="0.8"/>
    <text x="500" y="960" font-family="system-ui, sans-serif" font-size="36" font-weight="700" fill="white" text-anchor="middle" opacity="0.85">brain alt</text>
  </svg>