<svg xmlns="http://www.w3.org/2000/svg" viewBox="0 0 1000 1000" width="1000" height="1000">
    <defs>
      <linearGradient id="g480" x1="0" y1="0" x2="1" y2="1">
        <stop offset="0%" stop-color="#6366F1"/>
        <stop offset="100%" stop-color="#8B5CF6"/>
      </linearGradient>
      <radialGradient id="glow480" cx="50%" cy="50%" r="60%">
        <stop offset="0%" stop-color="#A78BFA" stop-opacity="0.2"/>
        <stop offset="100%" stop-color="#A78BFA" stop-opacity="0"/>
      </radialGradient>
    </defs>
    <rect width="1000" height="1000" fill="#030712"/>
    <rect width="1000" height="1000" fill="url(#glow480)"/>
    <circle cx="548.9202690848277" cy="521.9035904058683" r="3.608" fill="#06B6D4" opacity="0.4608"/><circle cx="553.5473541417139" cy="559.9736680921043" r="4.144" fill="#6366F1" opacity="0.501"/><circle cx="532.4853809046334" cy="602.1593854106459" r="4.68" fill="#8B5CF6" opacity="0.5412"/><circle cx="484.87724442695344" cy="633.1439156096811" r="5.216" fill="#06B6D4" opacity="0.5813999999999999"/><circle cx="418.1461403473403" cy="638.4073179422342" r="5.752" fill="#8B5CF6" opacity="0.6215999999999999"/><circle cx="346.8547565654563" cy="608.3526391620175" r="6.288" fill="#6366F1" opacity="0.6617999999999999"/><circle cx="289.65419306014917" cy="541.4970059501045" r="6.824" fill="#06B6D4" opacity="0.702"/><circle cx="264.94411828387763" cy="445.90589245900924" r="7.36" fill="#6366F1" opacity="0.7422"/><circle cx="286.19109020366295" cy="338.41488282734144" r="7.896" fill="#8B5CF6" opacity="0.7824"/><circle cx="357.9790168748143" cy="241.66479072306902" r="8.432" fill="#06B6D4" opacity="0.8226"/><circle cx="473.76045931968036" cy="179.47223754425596" r="8.968" fill="#8B5CF6" opacity="0.8628"/><circle cx="615.9543293118086" cy="171.46209729492608" r="9.504" fill="#6366F1" opacity="0.303"/><circle cx="758.555500906933" cy="228.11014555382002" r="2.04" fill="#06B6D4" opacity="0.3432"/><circle cx="501.8501544136689" cy="499.2404418089564" r="2.576" fill="#6366F1" opacity="0.38339999999999996"/><circle cx="528.7857889385331" cy="500.9046298614501" r="3.112" fill="#8B5CF6" opacity="0.4236"/><circle cx="550.0069319870902" cy="524.3036366257919" r="3.6479999999999997" fill="#06B6D4" opacity="0.4638"/><circle cx="552.9216186217506" cy="563.1590237610905" r="4.184" fill="#8B5CF6" opacity="0.504"/><circle cx="529.806351358492" cy="605.0534217372006" r="4.720000000000001" fill="#6366F1" opacity="0.5442"/><circle cx="480.4145335728937" cy="634.5823521299606" r="5.256" fill="#06B6D4" opacity="0.5844"/><circle cx="412.7673977774193" cy="637.456586271728" r="5.792" fill="#6366F1" opacity="0.6246"/><circle cx="341.85872898694277" cy="604.5920570711504" r="6.328" fill="#8B5CF6" opacity="0.6648"/><circle cx="286.4811616734173" cy="535.1946825481729" r="6.864" fill="#06B6D4" opacity="0.7050000000000001"/><circle cx="264.82523817617584" cy="438.0397595138014" r="7.4" fill="#8B5CF6" opacity="0.7452"/><circle cx="289.81517857690363" cy="330.5233324515109" r="7.936" fill="#6366F1" opacity="0.7854"/><circle cx="365.25561967730243" cy="235.54926362089242" r="8.472000000000001" fill="#06B6D4" opacity="0.8255999999999999"/><circle cx="483.7409386370264" cy="176.8087208422927" r="9.008" fill="#6366F1" opacity="0.8657999999999999"/><circle cx="626.9412884932727" cy="173.40228219464285" r="9.544" fill="#8B5CF6" opacity="0.306"/><circle cx="768.3912574433423" cy="234.9604313918739" r="2.08" fill="#06B6D4" opacity="0.3462"/><circle cx="503.7461995469928" cy="498.59786271923497" r="2.616" fill="#8B5CF6" opacity="0.38639999999999997"/><circle cx="530.7392232355908" cy="501.93394800150287" r="3.152" fill="#6366F1" opacity="0.4266"/><circle cx="550.9893235327494" cy="526.7927020972616" r="3.6879999999999997" fill="#06B6D4" opacity="0.4668"/><circle cx="552.1473513448242" cy="566.3627436723307" r="4.224" fill="#6366F1" opacity="0.507"/><circle cx="526.9770344644493" cy="607.8780775296998" r="4.76" fill="#8B5CF6" opacity="0.5471999999999999"/><circle cx="475.84681786141186" cy="635.8698781650303" r="5.295999999999999" fill="#06B6D4" opacity="0.5873999999999999"/><circle cx="407.3686593299689" cy="636.3028786404478" r="5.832" fill="#8B5CF6" opacity="0.6275999999999999"/><circle cx="336.94945728813707" cy="600.6234591005843" r="6.368" fill="#6366F1" opacity="0.6678"/><circle cx="283.4984133744198" cy="528.7336560257546" r="6.904" fill="#06B6D4" opacity="0.708"/><circle cx="264.9704573329394" cy="430.1132768423618" r="7.44" fill="#6366F1" opacity="0.7482"/><circle cx="293.7255590414676" cy="322.701226718161" r="7.976" fill="#8B5CF6" opacity="0.7884"/><circle cx="372.77714768035645" cy="229.63767672315328" r="8.512" fill="#06B6D4" opacity="0.8286"/><circle cx="493.86294802866314" cy="174.45784206480863" r="9.048" fill="#8B5CF6" opacity="0.8688"/><circle cx="637.9200801934301" cy="175.71029698826726" r="9.584" fill="#6366F1" opacity="0.309"/><circle cx="778.0504272875949" cy="242.1616787884587" r="2.12" fill="#06B6D4" opacity="0.3492"/><circle cx="505.6825898299685" cy="498.07433834115676" r="2.656" fill="#6366F1" opacity="0.38939999999999997"/><circle cx="532.6544324389811" cy="503.08675267684725" r="3.192" fill="#8B5CF6" opacity="0.4296"/><circle cx="551.8629517783037" cy="529.3665495562782" r="3.7279999999999998" fill="#06B6D4" opacity="0.4698"/><circle cx="551.2228292619155" cy="569.5786013254409" r="4.263999999999999" fill="#8B5CF6" opacity="0.51"/><circle cx="523.9992048431766" cy="610.6267515879194" r="4.8" fill="#6366F1" opacity="0.5502"/><circle cx="471.17923477221666" cy="637.0013266055661" r="5.336" fill="#06B6D4" opacity="0.5904"/><circle cx="401.95741991761554" cy="634.9440346617412" r="5.872" fill="#6366F1" opacity="0.6306"/><circle cx="332.13511225455477" cy="596.4486363937255" r="6.408" fill="#8B5CF6" opacity="0.6708"/><circle cx="280.71279585732145" cy="522.1197219532078" r="6.944" fill="#06B6D4" opacity="0.7110000000000001"/><circle cx="265.3834329583992" cy="422.1353323412086" r="7.48" fill="#8B5CF6" opacity="0.7512"/><circle cx="297.9214058438604" cy="314.95881057483933" r="8.016" fill="#6366F1" opacity="0.7913999999999999"/><circle cx="380.53791449705807" cy="223.93940859425845" r="8.552" fill="#06B6D4" opacity="0.8315999999999999"/><circle cx="504.1166346657863" cy="172.42586591882986" r="9.088000000000001" fill="#6366F1" opacity="0.8717999999999999"/><circle cx="648.8783821491439" cy="178.3875199426281" r="9.623999999999999" fill="#8B5CF6" opacity="0.312"/><circle cx="787.5206263366027" cy="249.70950990697298" r="2.16" fill="#06B6D4" opacity="0.35219999999999996"/><circle cx="507.65369641247065" cy="497.67171066537384" r="2.6959999999999997" fill="#8B5CF6" opacity="0.39239999999999997"/><circle cx="534.5255916057438" cy="504.3615965280378" r="3.232" fill="#6366F1" opacity="0.4326"/><circle cx="552.6234897926765" cy="532.0207483054357" r="3.768" fill="#06B6D4" opacity="0.4728"/><circle cx="550.1465751028053" cy="572.800281630353" r="4.304" fill="#6366F1" opacity="0.513"/><circle cx="520.8749039698462" cy="613.292887615462" r="4.84" fill="#8B5CF6" opacity="0.5531999999999999"/><circle cx="466.4171424226311" cy="637.9717060738838" r="5.3759999999999994" fill="#06B6D4" opacity="0.5933999999999999"/><circle cx="396.5412893433776" cy="633.3781660890165" r="5.912" fill="#8B5CF6" opacity="0.6335999999999999"/><circle cx="327.42383610932313" cy="592.0696891315391" r="6.448" fill="#6366F1" opacity="0.6738"/><circle cx="278.1309785852635" cy="515.3589497188839" r="6.984" fill="#06B6D4" opacity="0.714"/><circle cx="266.0675226726546" cy="414.11498354491033" r="7.52" fill="#6366F1" opacity="0.7542"/><circle cx="302.40153068597454" cy="307.30634435780155" r="8.056000000000001" fill="#8B5CF6" opacity="0.7944"/><circle cx="388.53188544707933" cy="218.46368007303755" r="8.591999999999999" fill="#06B6D4" opacity="0.8346"/><circle cx="514.4918917975682" cy="170.71874473009012" r="9.128" fill="#8B5CF6" opacity="0.8748"/><circle cx="659.8037782144872" cy="181.4349164324895" r="9.664" fill="#6366F1" opacity="0.315"/><circle cx="796.7895726681547" cy="257.59911395489064" r="2.2" fill="#06B6D4" opacity="0.35519999999999996"/><circle cx="509.65381638833276" cy="497.391584937101" r="2.7359999999999998" fill="#6366F1" opacity="0.3954"/><circle cx="536.346930933901" cy="505.7567883134805" r="3.2720000000000002" fill="#8B5CF6" opacity="0.4356"/><circle cx="553.2667833466802" cy="534.7506804522995" r="3.808" fill="#06B6D4" opacity="0.4758"/><circle cx="548.9173611922696" cy="576.0213902397545" r="4.343999999999999" fill="#8B5CF6" opacity="0.516"/><circle cx="517.6064390449527" cy="615.8699844832835" r="4.88" fill="#6366F1" opacity="0.5562"/><circle cx="461.56611353786593" cy="638.7762096737614" r="5.416" fill="#06B6D4" opacity="0.5964"/><circle cx="391.1279825509238" cy="631.6036618661049" r="5.952" fill="#6366F1" opacity="0.6366"/><circle cx="322.8237311312374" cy="587.4890264532869" r="6.488" fill="#8B5CF6" opacity="0.6768"/><circle cx="275.75944233945177" cy="508.4576769911333" r="7.024" fill="#06B6D4" opacity="0.717"/><circle cx="267.02577748233307" cy="406.0614475186645" r="7.56" fill="#8B5CF6" opacity="0.7572"/><circle cx="307.16438098404024" cy="299.75409108116185" r="8.096" fill="#6366F1" opacity="0.7973999999999999"/><circle cx="396.7526819092349" cy="213.21954162275216" r="8.632" fill="#06B6D4" opacity="0.8375999999999999"/><circle cx="524.9783687130623" cy="169.34210867358047" r="9.168" fill="#6366F1" opacity="0.8777999999999999"/><circle cx="670.6837721945891" cy="184.85303442770447" r="9.704" fill="#8B5CF6" opacity="0.318"/><circle cx="805.8451015591461" cy="265.8252493280379" r="2.24" fill="#06B6D4" opacity="0.35819999999999996"/><circle cx="511.6771821317855" cy="497.2353268798809" r="2.776" fill="#8B5CF6" opacity="0.3984"/><circle cx="538.1127453282731" cy="507.2703950059261" r="3.3120000000000003" fill="#6366F1" opacity="0.4386"/><circle cx="553.7888583717497" cy="537.5515474390052" r="3.848" fill="#06B6D4" opacity="0.4788"/><circle cx="547.5342129214112" cy="579.2354630322935" r="4.384" fill="#6366F1" opacity="0.519"/><circle cx="514.1963814833084" cy="618.3516064647217" r="4.92" fill="#8B5CF6" opacity="0.5591999999999999"/><circle cx="456.63192908975293" cy="639.4102235330099" r="5.4559999999999995" fill="#06B6D4" opacity="0.5993999999999999"/><circle cx="385.72530967207297" cy="629.6191928321434" r="5.992" fill="#8B5CF6" opacity="0.6396"/><circle cx="318.34284825127486" cy="582.7093659662595" r="6.528" fill="#6366F1" opacity="0.6798"/><circle cx="273.60446894217057" cy="501.4225037938026" r="7.064" fill="#06B6D4" opacity="0.72"/><circle cx="268.26093509238365" cy="397.98409047730075" r="7.6" fill="#6366F1" opacity="0.7602"/><circle cx="312.2080385697184" cy="292.3123036331531" r="8.136" fill="#8B5CF6" opacity="0.8004"/><circle cx="405.1935861257661" cy="208.2158608006469" r="8.672" fill="#06B6D4" opacity="0.8406"/>
    <text x="500" y="960" font-family="system-ui, sans-serif" font-size="36" font-weight="700" fill="white" text-anchor="middle" opacity="0.85">transformer alt</text>
  </svg>