<svg xmlns="http://www.w3.org/2000/svg" viewBox="0 0 1000 1000" width="1000" height="1000">
    <defs>
      <linearGradient id="g483" x1="0" y1="0" x2="1" y2="1">
        <stop offset="0%" stop-color="#F59E0B"/>
        <stop offset="100%" stop-color="#EF4444"/>
      </linearGradient>
      <radialGradient id="glow483" cx="50%" cy="50%" r="60%">
        <stop offset="0%" stop-color="#FCD34D" stop-opacity="0.2"/>
        <stop offset="100%" stop-color="#FCD34D" stop-opacity="0"/>
      </radialGradient>
    </defs>
    <rect width="1000" height="1000" fill="#030712"/>
    <rect width="1000" height="1000" fill="url(#glow483)"/>
    <circle cx="457.2933251642824" cy="484.0156349992786" r="7.368" fill="#EC4899" opacity="0.43679999999999997"/><circle cx="702.4410705895702" cy="676.2276168440935" r="3.824" fill="#F59E0B" opacity="0.7709999999999999"/><circle cx="456.567075825484" cy="419.80635251062125" r="8.280000000000001" fill="#EF4444" opacity="0.5052"/><circle cx="543.2661512749763" cy="811.0048876687486" r="4.736000000000001" fill="#EC4899" opacity="0.8393999999999999"/><circle cx="529.841995423047" cy="366.49458696677937" r="9.192" fill="#EF4444" opacity="0.5736"/><circle cx="303.51659291435686" cy="801.1750831991542" r="5.648" fill="#F59E0B" opacity="0.30779999999999996"/><circle cx="646.8881583537086" cy="391.8629160026228" r="2.104" fill="#EC4899" opacity="0.6419999999999999"/><circle cx="494.9974561077523" cy="501.4193500646901" r="6.56" fill="#F59E0B" opacity="0.3762"/><circle cx="727.2398315917587" cy="518.60265943754" r="3.016" fill="#EF4444" opacity="0.7104"/><circle cx="454.0347857347262" cy="478.3704119884943" r="7.472" fill="#EC4899" opacity="0.4446"/><circle cx="691.0180586366141" cy="695.880221754773" r="3.928" fill="#EF4444" opacity="0.7787999999999999"/><circle cx="461.1598195972029" cy="411.77075095934356" r="8.384" fill="#F59E0B" opacity="0.513"/><circle cx="518.0407162066623" cy="818.6897747947849" r="4.84" fill="#EC4899" opacity="0.8472"/><circle cx="542.1799045839389" cy="364.40923464597665" r="9.296" fill="#F59E0B" opacity="0.5813999999999999"/><circle cx="276.41150682739425" cy="788.2485485146519" r="5.752" fill="#EF4444" opacity="0.3156"/><circle cx="659.6465647846842" cy="401.47723941926097" r="2.208" fill="#EC4899" opacity="0.6497999999999999"/><circle cx="489.79665861858933" cy="502.01291446772893" r="6.664" fill="#EF4444" opacity="0.384"/><circle cx="730.0951621892748" cy="537.9269869234469" r="3.12" fill="#F59E0B" opacity="0.7182"/><circle cx="451.44404073478853" cy="472.1016341009885" r="7.576" fill="#EC4899" opacity="0.4524"/><circle cx="677.7138083419346" cy="714.81909208589" r="4.032" fill="#F59E0B" opacity="0.7866"/><circle cx="466.7881761870578" cy="403.9815915617319" r="8.488" fill="#EF4444" opacity="0.5207999999999999"/><circle cx="491.84779703818134" cy="824.2975510035026" r="4.944" fill="#EC4899" opacity="0.855"/><circle cx="555.0467950846042" cy="363.48007342913786" r="9.4" fill="#EF4444" opacity="0.5892"/><circle cx="250.126860995221" cy="772.8798534225243" r="5.856" fill="#F59E0B" opacity="0.32339999999999997"/><circle cx="671.7860578635173" cy="412.47063165021535" r="2.312" fill="#EC4899" opacity="0.6576"/><circle cx="484.4996635558879" cy="501.7605596040263" r="6.768" fill="#F59E0B" opacity="0.3918"/><circle cx="731.2781806032413" cy="557.8356566216252" r="3.224" fill="#EF4444" opacity="0.726"/><circle cx="449.5998050251402" cy="465.2831403134425" r="7.68" fill="#EC4899" opacity="0.4602"/><circle cx="662.5707236688638" cy="732.8663990484284" r="4.136" fill="#EF4444" opacity="0.7944"/><circle cx="473.43992005079343" cy="396.5553183914622" r="8.591999999999999" fill="#F59E0B" opacity="0.5286"/><circle cx="464.8609635508744" cy="827.7215405148509" r="5.048" fill="#EC4899" opacity="0.8628"/><circle cx="568.3336021321209" cy="363.77856695934736" r="9.504" fill="#F59E0B" opacity="0.597"/><circle cx="224.88259409729557" cy="755.1185076966517" r="5.96" fill="#EF4444" opacity="0.3312"/><circle cx="683.1652869532227" cy="424.8037390866832" r="2.416" fill="#EC4899" opacity="0.6654"/><circle cx="479.2102635443928" cy="500.65334378882505" r="6.872" fill="#EF4444" opacity="0.3996"/><circle cx="730.7131470967197" cy="578.1818633490362" r="3.3280000000000003" fill="#F59E0B" opacity="0.7338"/><circle cx="448.5729968028041" cy="457.99734124896855" r="7.784" fill="#EC4899" opacity="0.46799999999999997"/><circle cx="645.6478299130621" cy="749.8466522521679" r="4.24" fill="#F59E0B" opacity="0.8022"/><circle cx="481.09065419217376" cy="389.60780534331224" r="8.696" fill="#EF4444" opacity="0.5364"/><circle cx="437.2647358766993" cy="828.8697715439649" r="5.152" fill="#EC4899" opacity="0.8706"/><circle cx="581.9232131970238" cy="365.36587676419106" r="9.608" fill="#EF4444" opacity="0.6048"/><circle cx="200.89588041523018" cy="735.0337968195631" r="6.064" fill="#F59E0B" opacity="0.33899999999999997"/><circle cx="693.6454021962988" cy="438.4232332106202" r="2.52" fill="#EC4899" opacity="0.6732"/><circle cx="474.03283912824355" cy="498.693647727326" r="6.976" fill="#F59E0B" opacity="0.4074"/><circle cx="728.3373508701745" cy="598.8103951899334" r="3.432" fill="#EF4444" opacity="0.7416"/><circle cx="448.4258738180259" cy="450.3344233038032" r="7.888" fill="#EC4899" opacity="0.4758"/><circle cx="627.0206598484743" cy="765.5882376379989" r="4.343999999999999" fill="#EF4444" opacity="0.81"/><circle cx="489.7038397642529" cy="383.2531410084202" r="8.8" fill="#F59E0B" opacity="0.5442"/><circle cx="409.25332363107236" cy="827.6660506186033" r="5.256" fill="#EC4899" opacity="0.8783999999999998"/><circle cx="595.6914390732146" cy="368.29203331575854" r="9.712" fill="#F59E0B" opacity="0.6126"/><circle cx="178.37935599876124" cy="712.7146477143227" r="6.168" fill="#EF4444" opacity="0.3468"/><circle cx="703.0914002887226" cy="453.2619734181489" r="2.624" fill="#EC4899" opacity="0.681"/><circle cx="469.0712019106314" cy="495.89519199632076" r="7.08" fill="#EF4444" opacity="0.4152"/><circle cx="724.1019715144781" cy="619.5587987699945" r="3.536" fill="#F59E0B" opacity="0.7494"/><circle cx="449.2112487431435" cy="442.39146985238074" r="7.992" fill="#EC4899" opacity="0.4836"/><circle cx="606.7809988624899" cy="779.924951160001" r="4.448" fill="#F59E0B" opacity="0.8177999999999999"/><circle cx="499.23094317861563" cy="377.60241607120884" r="8.904" fill="#EF4444" opacity="0.552"/><circle cx="381.0292629201568" cy="824.0509276621174" r="5.359999999999999" fill="#EC4899" opacity="0.8861999999999999"/><circle cx="609.5080658505476" cy="372.59519823149475" r="9.815999999999999" fill="#EF4444" opacity="0.6204000000000001"/><circle cx="157.53934943885815" cy="688.2693358389505" r="6.272" fill="#F59E0B" opacity="0.35459999999999997"/><circle cx="711.3734589335263" cy="469.2392968468389" r="2.7279999999999998" fill="#EC4899" opacity="0.6888"/><circle cx="464.42744030211776" cy="492.2829411988372" r="7.184" fill="#F59E0B" opacity="0.423"/><circle cx="717.9728357316854" cy="640.2586285512862" r="3.6399999999999997" fill="#EF4444" opacity="0.7572"/><circle cx="450.97179138928345" cy="434.2715072405881" r="8.096" fill="#EC4899" opacity="0.49139999999999995"/><circle cx="585.0364891207571" cy="792.6975153943322" r="4.552" fill="#EF4444" opacity="0.8255999999999999"/><circle cx="509.61170038536414" cy="372.7625243267456" r="9.008" fill="#F59E0B" opacity="0.5598"/><circle cx="352.80196076450306" cy="817.9825423592074" r="5.464" fill="#EC4899" opacity="0.8939999999999999"/><circle cx="623.2379792926481" cy="378.30102523083923" r="9.92" fill="#F59E0B" opacity="0.6282"/><circle cx="138.5741313882129" cy="661.8250335955943" r="6.376" fill="#EF4444" opacity="0.3624"/><circle cx="718.3682481801059" cy="486.26143432698626" r="2.832" fill="#EC4899" opacity="0.6966"/><circle cx="460.20077865515265" cy="487.8928954599439" r="7.288" fill="#EF4444" opacity="0.43079999999999996"/><circle cx="709.9310614024877" cy="660.7367707104537" r="3.7439999999999998" fill="#F59E0B" opacity="0.7649999999999999"/><circle cx="453.7394247284528" cy="426.0824839733807" r="8.2" fill="#EC4899" opacity="0.4992"/><circle cx="561.9100939594662" cy="803.7550662391166" r="4.656000000000001" fill="#F59E0B" opacity="0.8333999999999999"/><circle cx="520.7744969573426" cy="368.8349883689657" r="9.112" fill="#EF4444" opacity="0.5676"/><circle cx="324.78615734542757" cy="809.4373431604834" r="5.568" fill="#EC4899" opacity="0.3018"/><circle cx="636.742352414788" cy="385.42212667329727" r="2.024" fill="#EF4444" opacity="0.636"/><circle cx="498.86841135692856" cy="500.39938345342756" r="6.48" fill="#F59E0B" opacity="0.3702"/><circle cx="723.9602069333013" cy="504.2220504962514" r="2.936" fill="#EC4899" opacity="0.7044"/><circle cx="456.48646046042984" cy="482.77177093435705" r="7.392" fill="#F59E0B" opacity="0.4386"/><circle cx="699.9735819303642" cy="680.8168314342997" r="3.848" fill="#EF4444" opacity="0.7727999999999999"/><circle cx="457.5348208785745" cy="417.93619212962847" r="8.304" fill="#EC4899" opacity="0.507"/><circle cx="537.539424861903" cy="812.9565969604052" r="4.76" fill="#EF4444" opacity="0.8412"/><circle cx="532.636861589274" cy="365.914820857775" r="9.216000000000001" fill="#F59E0B" opacity="0.5753999999999999"/><circle cx="297.20031727095136" cy="798.410671198262" r="5.672000000000001" fill="#EC4899" opacity="0.3096"/><circle cx="649.879886431675" cy="393.95765165167165" r="2.128" fill="#F59E0B" opacity="0.6437999999999999"/><circle cx="493.81119047832044" cy="501.63053264437366" r="6.584" fill="#EF4444" opacity="0.378"/><circle cx="728.042773092114" cy="523.0029050438984" r="3.04" fill="#EC4899" opacity="0.7121999999999999"/><circle cx="453.3746660871677" cy="476.9765719859771" r="7.496" fill="#EF4444" opacity="0.4464"/><circle cx="688.1135447092037" cy="700.3205788154039" r="3.952" fill="#F59E0B" opacity="0.7806"/><circle cx="462.36700235372615" cy="409.9471405886768" r="8.408000000000001" fill="#EC4899" opacity="0.5147999999999999"/><circle cx="512.0759345274471" cy="820.1723470340448" r="4.864" fill="#F59E0B" opacity="0.849"/><circle cx="545.1060696146396" cy="364.0894320373898" r="9.32" fill="#EF4444" opacity="0.5831999999999999"/><circle cx="270.26496176760367" cy="784.9172023735306" r="5.776" fill="#EC4899" opacity="0.3174"/><circle cx="662.5080946983446" cy="403.8929807063299" r="2.232" fill="#EF4444" opacity="0.6516"/><circle cx="488.5790537194612" cy="502.0302674841132" r="6.688" fill="#F59E0B" opacity="0.3858"/><circle cx="730.5195560509053" cy="542.474630994201" r="3.144" fill="#EC4899" opacity="0.72"/><circle cx="450.9494752657231" cy="470.57405866769784" r="7.6" fill="#F59E0B" opacity="0.4542"/><circle cx="674.3805785366715" cy="719.0694269614446" r="4.056" fill="#EF4444" opacity="0.7884"/><circle cx="468.2330529782554" cy="402.2313901248582" r="8.512" fill="#EC4899" opacity="0.5226"/>
    <text x="500" y="960" font-family="system-ui, sans-serif" font-size="36" font-weight="700" fill="white" text-anchor="middle" opacity="0.85">token alt</text>
  </svg>