<svg xmlns="http://www.w3.org/2000/svg" viewBox="0 0 1000 1000" width="1000" height="1000">
    <defs>
      <linearGradient id="g485" x1="0" y1="0" x2="1" y2="1">
        <stop offset="0%" stop-color="#8B5CF6"/>
        <stop offset="100%" stop-color="#6366F1"/>
      </linearGradient>
      <radialGradient id="glow485" cx="50%" cy="50%" r="60%">
        <stop offset="0%" stop-color="#C4B5FD" stop-opacity="0.2"/>
        <stop offset="100%" stop-color="#C4B5FD" stop-opacity="0"/>
      </radialGradient>
    </defs>
    <rect width="1000" height="1000" fill="#0F172A"/>
    <rect width="1000" height="1000" fill="url(#glow485)"/>
    <circle cx="528.803715925071" cy="506.81952702962707" r="2.888" fill="#06B6D4" opacity="0.3888"/><circle cx="539.6865592323161" cy="519.9082147943974" r="3.184" fill="#8B5CF6" opacity="0.411"/><circle cx="545.3763860031136" cy="538.0213570680538" r="3.48" fill="#6366F1" opacity="0.4332"/><circle cx="544.2449687462564" cy="559.3159568804449" r="3.776" fill="#06B6D4" opacity="0.4554"/><circle cx="535.2667326883685" cy="581.4966107607376" r="4.072" fill="#6366F1" opacity="0.47759999999999997"/><circle cx="518.1323889098386" cy="602.0008650572257" r="4.368" fill="#8B5CF6" opacity="0.4998"/><circle cx="493.3082055173283" cy="618.2107435329026" r="4.664" fill="#06B6D4" opacity="0.522"/><circle cx="462.0354342389992" cy="627.6751022971144" r="4.96" fill="#8B5CF6" opacity="0.5442"/><circle cx="426.26860440975537" cy="628.3264637723446" r="5.256" fill="#6366F1" opacity="0.5664"/><circle cx="388.5557311548095" cy="618.6760925442057" r="5.552" fill="#06B6D4" opacity="0.5886"/><circle cx="351.8676701903008" cy="597.9723066236093" r="5.848" fill="#6366F1" opacity="0.6108"/><circle cx="319.3876057873946" cy="566.3092984187771" r="6.144" fill="#8B5CF6" opacity="0.633"/><circle cx="294.2747243331346" cy="524.6769315716571" r="6.44" fill="#06B6D4" opacity="0.6552"/><circle cx="279.4182890645581" cy="474.9458825580871" r="6.736" fill="#8B5CF6" opacity="0.6774"/><circle cx="277.1994339116394" cy="419.786860485915" r="7.032" fill="#6366F1" opacity="0.6996"/><circle cx="289.27794512539714" cy="362.5271823616579" r="7.328" fill="#06B6D4" opacity="0.7218"/><circle cx="316.4200814456103" cy="306.95240611817076" r="7.624" fill="#6366F1" opacity="0.744"/><circle cx="358.381155700024" cy="257.06473508537476" r="7.92" fill="#8B5CF6" opacity="0.7662"/><circle cx="413.8532946188314" cy="216.81323273858624" r="8.216000000000001" fill="#06B6D4" opacity="0.7884"/><circle cx="480.48470653028943" cy="189.8132928044932" r="8.512" fill="#8B5CF6" opacity="0.8106"/><circle cx="554.9721695984662" cy="179.07411981948627" r="8.808" fill="#6366F1" opacity="0.8328"/><circle cx="633.2235961913836" cy="186.7530791566577" r="9.104" fill="#06B6D4" opacity="0.855"/><circle cx="710.582742521208" cy="213.95463899540937" r="9.4" fill="#6366F1" opacity="0.8772"/><circle cx="782.1037290742357" cy="260.5892942193056" r="9.696" fill="#8B5CF6" opacity="0.8994"/><circle cx="842.8593105076839" cy="325.3044557002223" r="9.992" fill="#06B6D4" opacity="0.3216"/><circle cx="888.2640404727038" cy="405.4950007893194" r="2.288" fill="#8B5CF6" opacity="0.3438"/><circle cx="514.3997157563284" cy="499.90952272689594" r="2.584" fill="#6366F1" opacity="0.366"/><circle cx="528.456184685368" cy="506.5487062197219" r="2.88" fill="#06B6D4" opacity="0.3882"/><circle cx="539.4522056185504" cy="519.4813621657116" r="3.176" fill="#6366F1" opacity="0.4104"/><circle cx="545.3061786752164" cy="537.4805305972229" r="3.472" fill="#8B5CF6" opacity="0.4326"/><circle cx="544.3756142683122" cy="558.7176707500388" r="3.768" fill="#06B6D4" opacity="0.4548"/><circle cx="535.6169289170878" cy="580.9073196596892" r="4.064" fill="#8B5CF6" opacity="0.477"/><circle cx="518.7004348063206" cy="601.491545155518" r="4.359999999999999" fill="#6366F1" opacity="0.4992"/><circle cx="494.0711704547872" cy="617.85096087951" r="4.656000000000001" fill="#06B6D4" opacity="0.5214"/><circle cx="462.9499811179904" cy="627.527001457898" r="4.952" fill="#6366F1" opacity="0.5436"/><circle cx="427.2734443874722" cy="628.439122189222" r="5.248" fill="#8B5CF6" opacity="0.5658"/><circle cx="389.5755712954791" cy="619.0806682265437" r="5.5440000000000005" fill="#06B6D4" opacity="0.588"/><circle cx="352.81840666250196" cy="598.6783592417069" r="5.84" fill="#8B5CF6" opacity="0.6102"/><circle cx="320.1824217443471" cy="567.3025894767218" r="6.136" fill="#6366F1" opacity="0.6324000000000001"/><circle cx="294.83067976816596" cy="525.9189127010982" r="6.432" fill="#06B6D4" opacity="0.6546"/><circle cx="279.662944848025" cy="476.3749682126024" r="6.728" fill="#6366F1" opacity="0.6768"/><circle cx="277.0770373149269" cy="421.32145967476595" r="7.024" fill="#8B5CF6" opacity="0.6990000000000001"/><circle cx="288.7547209266999" cy="364.0703414657288" r="7.32" fill="#06B6D4" opacity="0.7212"/><circle cx="315.48822065379386" cy="308.3977993798168" r="7.616" fill="#8B5CF6" opacity="0.7434"/><circle cx="357.0611704572958" cy="258.3036388172926" r="7.912" fill="#6366F1" opacity="0.7656000000000001"/><circle cx="412.19450848582846" cy="217.74204057289234" r="8.208" fill="#06B6D4" opacity="0.7878"/><circle cx="478.5637680182483" cy="190.34107802547567" r="8.504" fill="#6366F1" opacity="0.81"/><circle cx="552.8896061213762" cy="179.12973094360132" r="8.8" fill="#8B5CF6" opacity="0.8322"/><circle cx="631.0985573743146" cy="186.29126844416083" r="9.096" fill="#06B6D4" opacity="0.8544"/><circle cx="708.5462075133694" cy="212.96077039576858" r="9.392" fill="#8B5CF6" opacity="0.8766"/><circle cx="780.2905638907115" cy="259.08225512879505" r="9.687999999999999" fill="#6366F1" opacity="0.8988"/><circle cx="841.3996509239265" cy="323.33750157710017" r="9.984" fill="#06B6D4" opacity="0.321"/><circle cx="887.2745373188502" cy="403.1543870664733" r="2.2800000000000002" fill="#6366F1" opacity="0.3432"/><circle cx="513.9988946188535" cy="499.82407544163306" r="2.576" fill="#8B5CF6" opacity="0.3654"/><circle cx="528.1064027438359" cy="506.28252535222043" r="2.872" fill="#06B6D4" opacity="0.3876"/><circle cx="539.2140689682938" cy="519.0582474259807" r="3.168" fill="#8B5CF6" opacity="0.4098"/><circle cx="545.230978715606" cy="536.9420974557265" r="3.464" fill="#6366F1" opacity="0.432"/><circle cx="544.5004977912452" cy="558.1200971810215" r="3.76" fill="#06B6D4" opacity="0.4542"/><circle cx="535.9611185767988" cy="580.3168596915083" r="4.056" fill="#6366F1" opacity="0.47639999999999993"/><circle cx="519.2627991394126" cy="600.9791293749092" r="4.352" fill="#8B5CF6" opacity="0.4986"/><circle cx="494.8293492858191" cy="617.4862731181474" r="4.648" fill="#06B6D4" opacity="0.5207999999999999"/><circle cx="463.86116373750616" cy="627.3724637179978" r="4.944" fill="#8B5CF6" opacity="0.5429999999999999"/><circle cx="428.27678149323106" cy="628.5442333480203" r="5.24" fill="#6366F1" opacity="0.5651999999999999"/><circle cx="390.5960850843941" cy="619.4771250120242" r="5.536" fill="#06B6D4" opacity="0.5873999999999999"/><circle cx="353.77215446825744" cy="599.3763412042567" r="5.832" fill="#6366F1" opacity="0.6095999999999999"/><circle cx="320.98257462531313" cy="568.2885159614589" r="6.128" fill="#8B5CF6" opacity="0.6318"/><circle cx="295.3941049472538" cy="527.1548837166472" r="6.424" fill="#06B6D4" opacity="0.6539999999999999"/><circle cx="279.9168350437364" cy="477.7999886749113" r="6.72" fill="#8B5CF6" opacity="0.6761999999999999"/><circle cx="276.96511425756603" cy="422.8544250014336" r="7.016" fill="#6366F1" opacity="0.6984"/><circle cx="288.2425562840946" cy="365.6146398192677" r="7.312" fill="#06B6D4" opacity="0.7205999999999999"/><circle cx="314.56726471533364" cy="309.8472701094016" r="7.608" fill="#6366F1" opacity="0.7427999999999999"/><circle cx="355.7511547276655" cy="259.54952560329997" r="7.904" fill="#8B5CF6" opacity="0.7649999999999999"/><circle cx="410.54398840440496" cy="218.68049838411707" r="8.2" fill="#06B6D4" opacity="0.7872"/><circle cx="476.64869028634087" cy="190.8807409192097" r="8.496" fill="#8B5CF6" opacity="0.8093999999999999"/><circle cx="550.8099142450669" cy="179.19882697469922" r="8.792" fill="#6366F1" opacity="0.8315999999999999"/><circle cx="628.9729808392037" cy="185.84378055901811" r="9.088000000000001" fill="#06B6D4" opacity="0.8537999999999999"/><circle cx="706.5055059945431" cy="211.98118812491134" r="9.384" fill="#6366F1" opacity="0.8759999999999999"/><circle cx="778.4696097677695" cy="257.5885389760084" r="9.68" fill="#8B5CF6" opacity="0.8981999999999999"/><circle cx="839.9288235516627" cy="321.3819860182559" r="9.975999999999999" fill="#06B6D4" opacity="0.3204"/><circle cx="886.270964658098" cy="400.8224729986557" r="2.2720000000000002" fill="#8B5CF6" opacity="0.34259999999999996"/><circle cx="513.597583992379" cy="499.74366121987043" r="2.568" fill="#6366F1" opacity="0.3648"/><circle cx="527.7544147093367" cy="506.02100192178636" r="2.864" fill="#06B6D4" opacity="0.387"/><circle cx="538.9721870447064" cy="518.6389011734175" r="3.16" fill="#6366F1" opacity="0.4092"/><circle cx="545.1508134908873" cy="536.4060989548607" r="3.456" fill="#8B5CF6" opacity="0.4314"/><circle cx="544.6196335059367" cy="557.5232849009502" r="3.752" fill="#06B6D4" opacity="0.4536"/><circle cx="536.2993008950117" cy="579.7252830320056" r="4.048" fill="#8B5CF6" opacity="0.4758"/><circle cx="519.8194655284082" cy="600.4636689861974" r="4.343999999999999" fill="#6366F1" opacity="0.498"/><circle cx="495.5827105910837" cy="617.116726193477" r="4.640000000000001" fill="#06B6D4" opacity="0.5202"/><circle cx="464.7689374097105" cy="627.2115255342812" r="4.936" fill="#6366F1" opacity="0.5424"/><circle cx="429.2785606418682" cy="628.6418206304392" r="5.232" fill="#8B5CF6" opacity="0.5646"/><circle cx="391.61721083166606" cy="619.8654704745803" r="5.5280000000000005" fill="#06B6D4" opacity="0.5868"/><circle cx="354.7288497783454" cy="600.0662426259598" r="5.824" fill="#8B5CF6" opacity="0.609"/><circle cx="321.7880032979901" cy="569.2670501139091" r="6.12" fill="#6366F1" opacity="0.6312"/><circle cx="295.9649463064899" cy="528.3847998810355" r="6.416" fill="#06B6D4" opacity="0.6534"/><circle cx="280.17991821563993" cy="479.22088441927207" r="6.712" fill="#6366F1" opacity="0.6756"/><circle cx="276.8636393432382" cy="424.38568552942144" r="7.008" fill="#8B5CF6" opacity="0.6978"/><circle cx="287.74144480429516" cy="367.15999944959384" r="7.304" fill="#06B6D4" opacity="0.72"/><circle cx="313.6572280093452" cy="311.3007384040975" r="7.6" fill="#8B5CF6" opacity="0.7422"/><circle cx="354.4511440662013" cy="260.80231912419737" r="7.896" fill="#6366F1" opacity="0.7644"/><circle cx="408.9017900582655" cy="219.62853899618875" r="8.192" fill="#06B6D4" opacity="0.7866"/>
    <text x="500" y="960" font-family="system-ui, sans-serif" font-size="36" font-weight="700" fill="white" text-anchor="middle" opacity="0.85">tensor alt</text>
  </svg>