<svg xmlns="http://www.w3.org/2000/svg" viewBox="0 0 1000 1000" width="1000" height="1000">
    <defs>
      <linearGradient id="g493" x1="0" y1="0" x2="1" y2="1">
        <stop offset="0%" stop-color="#06B6D4"/>
        <stop offset="100%" stop-color="#0EA5E9"/>
      </linearGradient>
      <radialGradient id="glow493" cx="50%" cy="50%" r="60%">
        <stop offset="0%" stop-color="#67E8F9" stop-opacity="0.2"/>
        <stop offset="100%" stop-color="#67E8F9" stop-opacity="0"/>
      </radialGradient>
    </defs>
    <rect width="1000" height="1000" fill="#030712"/>
    <rect width="1000" height="1000" fill="url(#glow493)"/>
    <circle cx="544.1989694314542" cy="659.5926411248256" r="6.968" fill="#6366F1" opacity="0.7968"/><circle cx="286.9903786014968" cy="627.7867801913262" r="8.623999999999999" fill="#06B6D4" opacity="0.321"/><circle cx="259.99488328205007" cy="271.7655066621103" r="2.2800000000000002" fill="#0EA5E9" opacity="0.4452"/><circle cx="506.58985505031467" cy="487.64792282991067" r="3.936" fill="#6366F1" opacity="0.5693999999999999"/><circle cx="594.4687425556707" cy="521.1162657671853" r="5.5920000000000005" fill="#0EA5E9" opacity="0.6936"/><circle cx="509.02387954508663" cy="679.3731574064407" r="7.248" fill="#06B6D4" opacity="0.8177999999999999"/><circle cx="250.9571715545467" cy="582.652462757552" r="8.904" fill="#6366F1" opacity="0.34199999999999997"/><circle cx="307.76653718827754" cy="213.27829559760545" r="2.56" fill="#06B6D4" opacity="0.4662"/><circle cx="518.2513443084246" cy="478.76586637191576" r="4.216" fill="#0EA5E9" opacity="0.5904"/><circle cx="600.254837413235" cy="547.17634550541" r="5.872" fill="#6366F1" opacity="0.7145999999999999"/><circle cx="467.3138451036147" cy="690.820793620846" r="7.528" fill="#0EA5E9" opacity="0.8388"/><circle cx="224.99553890636867" cy="527.7399779848758" r="9.184000000000001" fill="#06B6D4" opacity="0.363"/><circle cx="369.8706882797271" cy="165.20005640501068" r="2.84" fill="#6366F1" opacity="0.48719999999999997"/><circle cx="533.6658133645768" cy="474.88799071158417" r="4.496" fill="#06B6D4" opacity="0.6113999999999999"/><circle cx="598.6113455444862" cy="576.4908002958914" r="6.152" fill="#0EA5E9" opacity="0.7356"/><circle cx="421.15785976967413" cy="692.0460281388334" r="7.808" fill="#6366F1" opacity="0.8597999999999999"/><circle cx="211.66689163292614" cy="465.41418470844985" r="9.464" fill="#0EA5E9" opacity="0.384"/><circle cx="443.93581014013324" cy="131.03516886381044" r="3.12" fill="#06B6D4" opacity="0.5082"/><circle cx="551.1107288945961" cy="477.1156518147645" r="4.776" fill="#6366F1" opacity="0.6324000000000001"/><circle cx="588.4744497771181" cy="606.9472380972795" r="6.432" fill="#06B6D4" opacity="0.7565999999999999"/><circle cx="373.1490409682387" cy="681.7013874265203" r="8.088000000000001" fill="#0EA5E9" opacity="0.8808"/><circle cx="212.95368087421207" cy="398.68973064720285" r="9.744" fill="#6366F1" opacity="0.40499999999999997"/><circle cx="526.7400419566179" cy="113.72443753693358" r="3.4" fill="#0EA5E9" opacity="0.5292"/><circle cx="568.5898536668973" cy="486.0203013639915" r="5.056" fill="#06B6D4" opacity="0.6534"/><circle cx="569.3697483602027" cy="636.1457968959826" r="6.712" fill="#6366F1" opacity="0.7776000000000001"/><circle cx="326.2419095504142" cy="659.1084095933134" r="8.368" fill="#06B6D4" opacity="0.3018"/><circle cx="230.0993451505094" cy="331.08523891673593" r="2.024" fill="#0EA5E9" opacity="0.426"/><circle cx="500.342023114964" cy="498.84977385317916" r="3.6799999999999997" fill="#6366F1" opacity="0.5502"/><circle cx="583.985077599988" cy="501.58326893609427" r="5.336" fill="#0EA5E9" opacity="0.6744"/><circle cx="541.4814731790977" cy="661.5596712762556" r="6.992" fill="#06B6D4" opacity="0.7986"/><circle cx="283.5791529893433" cy="624.347002292737" r="8.648" fill="#6366F1" opacity="0.3228"/><circle cx="263.4855408956335" cy="266.4391500388626" r="2.304" fill="#06B6D4" opacity="0.44699999999999995"/><circle cx="507.40620191102505" cy="486.7264106868892" r="3.96" fill="#0EA5E9" opacity="0.5711999999999999"/><circle cx="595.2199098256381" cy="523.176901708325" r="5.616" fill="#6366F1" opacity="0.6954"/><circle cx="505.6790652413256" cy="680.7107861141243" r="7.272" fill="#0EA5E9" opacity="0.8195999999999999"/><circle cx="248.29770600478489" cy="578.3001609037065" r="8.928" fill="#06B6D4" opacity="0.3438"/><circle cx="312.5555982632502" cy="208.69679669191424" r="2.584" fill="#6366F1" opacity="0.46799999999999997"/><circle cx="519.4475465290801" cy="478.2185185536139" r="4.24" fill="#06B6D4" opacity="0.5922"/><circle cx="600.4237961199465" cy="549.588921876357" r="5.896" fill="#0EA5E9" opacity="0.7163999999999999"/><circle cx="463.4981199187008" cy="691.3495564419485" r="7.552" fill="#6366F1" opacity="0.8406"/><circle cx="223.32553837775333" cy="522.6495537713206" r="9.208" fill="#0EA5E9" opacity="0.3648"/><circle cx="375.7906904879039" cy="161.6803177015438" r="2.864" fill="#06B6D4" opacity="0.489"/><circle cx="535.1083879035097" cy="474.8277712783175" r="4.52" fill="#6366F1" opacity="0.6132"/><circle cx="598.086249997445" cy="579.0891115226283" r="6.176" fill="#06B6D4" opacity="0.7373999999999999"/><circle cx="417.07552043545786" cy="691.6271658428153" r="7.832" fill="#0EA5E9" opacity="0.8615999999999999"/><circle cx="211.18144826685653" cy="459.8203512363595" r="9.488" fill="#6366F1" opacity="0.3858"/><circle cx="450.7423039558494" cy="128.8544229275767" r="3.144" fill="#0EA5E9" opacity="0.51"/><circle cx="552.6372616693278" cy="477.613426256912" r="4.8" fill="#06B6D4" opacity="0.6342"/><circle cx="587.1902892683357" cy="609.5347134807223" r="6.456" fill="#6366F1" opacity="0.7584"/><circle cx="369.041445789237" cy="680.2489863467383" r="8.112" fill="#06B6D4" opacity="0.8826"/><circle cx="213.7903546097524" cy="392.8767117495512" r="9.768" fill="#0EA5E9" opacity="0.4068"/><circle cx="534.1214047403085" cy="113.10170620879182" r="3.424" fill="#6366F1" opacity="0.5309999999999999"/><circle cx="570.0212985956675" cy="487.0981496297478" r="5.08" fill="#0EA5E9" opacity="0.6552"/><circle cx="567.3158280642436" cy="638.5084087412212" r="6.736" fill="#06B6D4" opacity="0.7794"/><circle cx="322.37369871150725" cy="656.5986497086408" r="8.392" fill="#6366F1" opacity="0.3036"/><circle cx="232.32603840253148" cy="325.3723667837276" r="2.048" fill="#06B6D4" opacity="0.42779999999999996"/><circle cx="500.72728464711867" cy="497.7128495803587" r="3.7039999999999997" fill="#0EA5E9" opacity="0.552"/><circle cx="585.1394630689782" cy="503.2112035634784" r="5.359999999999999" fill="#6366F1" opacity="0.6761999999999999"/><circle cx="538.7054236816672" cy="663.4805498449973" r="7.016" fill="#0EA5E9" opacity="0.8004"/><circle cx="280.22228464499904" cy="620.8238214647102" r="8.672" fill="#06B6D4" opacity="0.3246"/><circle cx="267.09201622377753" cy="261.1635892639172" r="2.328" fill="#6366F1" opacity="0.4488"/><circle cx="508.2594205068265" cy="485.8316559580375" r="3.984" fill="#06B6D4" opacity="0.573"/><circle cx="595.9265475860336" cy="525.2732559877915" r="5.640000000000001" fill="#0EA5E9" opacity="0.6972"/><circle cx="502.2870192587702" cy="681.9856300450945" r="7.296" fill="#6366F1" opacity="0.8213999999999999"/><circle cx="245.71423203274546" cy="573.8768448791878" r="8.952" fill="#0EA5E9" opacity="0.34559999999999996"/><circle cx="317.44929862545376" cy="204.19431812816504" r="2.608" fill="#06B6D4" opacity="0.4698"/><circle cx="520.6705827131615" cy="477.7090374748342" r="4.263999999999999" fill="#6366F1" opacity="0.594"/><circle cx="600.5370460056932" cy="552.0244402223524" r="5.92" fill="#06B6D4" opacity="0.7182"/><circle cx="459.6509286811033" cy="691.8018572477926" r="7.576" fill="#0EA5E9" opacity="0.8424"/><circle cx="221.75014811419794" cy="517.5059968447727" r="9.232" fill="#6366F1" opacity="0.3666"/><circle cx="381.79728847677256" cy="158.26519201498263" r="2.888" fill="#0EA5E9" opacity="0.4908"/><circle cx="536.5648473347022" cy="474.813258658772" r="4.5440000000000005" fill="#06B6D4" opacity="0.615"/><circle cx="597.4979104661493" cy="581.6945374840616" r="6.2" fill="#6366F1" opacity="0.7392"/><circle cx="412.98112799141035" cy="691.1222538438491" r="7.856" fill="#06B6D4" opacity="0.8634"/><circle cx="210.80485387374364" cy="454.1959886362204" r="9.512" fill="#0EA5E9" opacity="0.3876"/><circle cx="457.6111418415202" cy="126.79959176868488" r="3.168" fill="#6366F1" opacity="0.5118"/><circle cx="554.1627969547442" cy="478.1607823849124" r="4.824" fill="#0EA5E9" opacity="0.636"/><circle cx="585.8397580344783" cy="612.1114442890744" r="6.48" fill="#06B6D4" opacity="0.7602"/><circle cx="364.9437826616585" cy="678.70595445664" r="8.136" fill="#6366F1" opacity="0.8843999999999999"/><circle cx="214.74457412948453" cy="387.0593872363407" r="9.792" fill="#06B6D4" opacity="0.40859999999999996"/><circle cx="541.5357057056414" cy="112.62041206132932" r="3.448" fill="#0EA5E9" opacity="0.5327999999999999"/><circle cx="571.4360623606497" cy="488.2250692398904" r="5.104" fill="#6366F1" opacity="0.657"/><circle cx="565.1973050495124" cy="640.8415826887814" r="6.76" fill="#0EA5E9" opacity="0.7812"/><circle cx="318.5386823792754" cy="653.9993188535277" r="8.416" fill="#06B6D4" opacity="0.3054"/><circle cx="234.6725517727205" cy="319.6836523850366" r="2.072" fill="#6366F1" opacity="0.4296"/><circle cx="501.155396995306" cy="496.5904461020189" r="3.7279999999999998" fill="#06B6D4" opacity="0.5538"/><circle cx="586.2618939294155" cy="504.88320137924694" r="5.384" fill="#0EA5E9" opacity="0.6779999999999999"/><circle cx="535.8716029988117" cy="665.3537665077383" r="7.04" fill="#6366F1" opacity="0.8022"/><circle cx="276.9217095442213" cy="617.2180716755196" r="8.696" fill="#0EA5E9" opacity="0.32639999999999997"/><circle cx="270.8136289350749" cy="255.9413035393115" r="2.352" fill="#06B6D4" opacity="0.4506"/><circle cx="509.1487852301245" cy="484.9647172020924" r="4.008" fill="#6366F1" opacity="0.5748"/><circle cx="596.5875782272431" cy="527.4043743259394" r="5.664" fill="#06B6D4" opacity="0.6990000000000001"/><circle cx="498.8489280255096" cy="683.1963837888443" r="7.32" fill="#0EA5E9" opacity="0.8231999999999999"/><circle cx="243.20848407034913" cy="569.3838406731127" r="8.975999999999999" fill="#6366F1" opacity="0.3474"/><circle cx="322.4463541862706" cy="199.77318098102438" r="2.632" fill="#0EA5E9" opacity="0.47159999999999996"/><circle cx="521.9194444636846" cy="477.23823481354214" r="4.288" fill="#06B6D4" opacity="0.5958"/><circle cx="600.5937858857997" cy="554.4816504996122" r="5.944" fill="#6366F1" opacity="0.72"/><circle cx="455.77380594078204" cy="692.176699313513" r="7.6" fill="#06B6D4" opacity="0.8442000000000001"/><circle cx="220.27077829012507" cy="512.3110731290022" r="9.256" fill="#0EA5E9" opacity="0.3684"/><circle cx="387.888634440769" cy="154.9566958881183" r="2.912" fill="#6366F1" opacity="0.4926"/>
    <text x="500" y="960" font-family="system-ui, sans-serif" font-size="36" font-weight="700" fill="white" text-anchor="middle" opacity="0.85">vector alt</text>
  </svg>