<svg xmlns="http://www.w3.org/2000/svg" viewBox="0 0 1000 1000" width="1000" height="1000">
    <defs>
      <linearGradient id="g494" x1="0" y1="0" x2="1" y2="1">
        <stop offset="0%" stop-color="#10B981"/>
        <stop offset="100%" stop-color="#14B8A6"/>
      </linearGradient>
      <radialGradient id="glow494" cx="50%" cy="50%" r="60%">
        <stop offset="0%" stop-color="#6EE7B7" stop-opacity="0.2"/>
        <stop offset="100%" stop-color="#6EE7B7" stop-opacity="0"/>
      </radialGradient>
    </defs>
    <rect width="1000" height="1000" fill="#030712"/>
    <rect width="1000" height="1000" fill="url(#glow494)"/>
    <line x1="476.8" y1="653.6" x2="430.4" y2="607.2" stroke="#10B981" stroke-width="1" opacity="0.3062578438655549"/><line x1="476.8" y1="653.6" x2="384" y2="560.8" stroke="#10B981" stroke-width="1" opacity="0.21251568773110963"/><line x1="476.8" y1="653.6" x2="337.6" y2="514.4" stroke="#10B981" stroke-width="1" opacity="0.11877353159666448"/><line x1="476.8" y1="653.6" x2="514.4" y2="691.2" stroke="#10B981" stroke-width="1" opacity="0.3240365286496738"/><line x1="476.8" y1="653.6" x2="468" y2="644.8" stroke="#10B981" stroke-width="1" opacity="0.38222131521588104"/><line x1="476.8" y1="653.6" x2="421.6" y2="598.4" stroke="#10B981" stroke-width="1" opacity="0.28847915908143595"/><line x1="476.8" y1="653.6" x2="375.2" y2="552" stroke="#10B981" stroke-width="1" opacity="0.19473700294699076"/><line x1="476.8" y1="653.6" x2="328.8" y2="505.6" stroke="#10B981" stroke-width="1" opacity="0.10099484681254561"/><line x1="653.6" y1="430.4" x2="607.2" y2="384" stroke="#10B981" stroke-width="1" opacity="0.3062578438655549"/><line x1="653.6" y1="430.4" x2="560.8" y2="337.6" stroke="#10B981" stroke-width="1" opacity="0.21251568773110968"/><line x1="653.6" y1="430.4" x2="691.2" y2="468" stroke="#10B981" stroke-width="1" opacity="0.3240365286496737"/><line x1="653.6" y1="430.4" x2="644.8" y2="421.6" stroke="#10B981" stroke-width="1" opacity="0.3822213152158811"/><line x1="653.6" y1="430.4" x2="598.4" y2="375.2" stroke="#10B981" stroke-width="1" opacity="0.28847915908143595"/><line x1="653.6" y1="430.4" x2="552" y2="328.8" stroke="#10B981" stroke-width="1" opacity="0.19473700294699084"/><line x1="430.4" y1="607.2" x2="384" y2="560.8" stroke="#10B981" stroke-width="1" opacity="0.3062578438655548"/><line x1="430.4" y1="607.2" x2="337.6" y2="514.4" stroke="#10B981" stroke-width="1" opacity="0.21251568773110968"/><line x1="430.4" y1="607.2" x2="514.4" y2="691.2" stroke="#10B981" stroke-width="1" opacity="0.23029437251522863"/><line x1="430.4" y1="607.2" x2="468" y2="644.8" stroke="#10B981" stroke-width="1" opacity="0.32403652864967386"/><line x1="430.4" y1="607.2" x2="421.6" y2="598.4" stroke="#10B981" stroke-width="1" opacity="0.3822213152158811"/><line x1="430.4" y1="607.2" x2="375.2" y2="552" stroke="#10B981" stroke-width="1" opacity="0.28847915908143595"/><line x1="430.4" y1="607.2" x2="328.8" y2="505.6" stroke="#10B981" stroke-width="1" opacity="0.19473700294699084"/><line x1="607.2" y1="384" x2="560.8" y2="337.6" stroke="#10B981" stroke-width="1" opacity="0.3062578438655548"/><line x1="607.2" y1="384" x2="691.2" y2="468" stroke="#10B981" stroke-width="1" opacity="0.23029437251522863"/><line x1="607.2" y1="384" x2="644.8" y2="421.6" stroke="#10B981" stroke-width="1" opacity="0.32403652864967386"/><line x1="607.2" y1="384" x2="598.4" y2="375.2" stroke="#10B981" stroke-width="1" opacity="0.38222131521588104"/><line x1="607.2" y1="384" x2="552" y2="328.8" stroke="#10B981" stroke-width="1" opacity="0.28847915908143595"/><line x1="384" y1="560.8" x2="337.6" y2="514.4" stroke="#10B981" stroke-width="1" opacity="0.3062578438655549"/><line x1="384" y1="560.8" x2="514.4" y2="691.2" stroke="#10B981" stroke-width="1" opacity="0.13655221638078335"/><line x1="384" y1="560.8" x2="468" y2="644.8" stroke="#10B981" stroke-width="1" opacity="0.23029437251522863"/><line x1="384" y1="560.8" x2="421.6" y2="598.4" stroke="#10B981" stroke-width="1" opacity="0.3240365286496737"/><line x1="384" y1="560.8" x2="375.2" y2="552" stroke="#10B981" stroke-width="1" opacity="0.38222131521588115"/><line x1="384" y1="560.8" x2="328.8" y2="505.6" stroke="#10B981" stroke-width="1" opacity="0.28847915908143607"/><line x1="560.8" y1="337.6" x2="691.2" y2="468" stroke="#10B981" stroke-width="1" opacity="0.13655221638078335"/><line x1="560.8" y1="337.6" x2="644.8" y2="421.6" stroke="#10B981" stroke-width="1" opacity="0.23029437251522863"/><line x1="560.8" y1="337.6" x2="598.4" y2="375.2" stroke="#10B981" stroke-width="1" opacity="0.3240365286496738"/><line x1="560.8" y1="337.6" x2="552" y2="328.8" stroke="#10B981" stroke-width="1" opacity="0.38222131521588115"/><line x1="337.6" y1="514.4" x2="514.4" y2="691.2" stroke="#10B981" stroke-width="1" opacity="0.042810060246338266"/><line x1="337.6" y1="514.4" x2="468" y2="644.8" stroke="#10B981" stroke-width="1" opacity="0.13655221638078352"/><line x1="337.6" y1="514.4" x2="421.6" y2="598.4" stroke="#10B981" stroke-width="1" opacity="0.23029437251522863"/><line x1="337.6" y1="514.4" x2="375.2" y2="552" stroke="#10B981" stroke-width="1" opacity="0.3240365286496738"/><line x1="337.6" y1="514.4" x2="328.8" y2="505.6" stroke="#10B981" stroke-width="1" opacity="0.38222131521588115"/><line x1="514.4" y1="691.2" x2="468" y2="644.8" stroke="#10B981" stroke-width="1" opacity="0.3062578438655548"/><line x1="514.4" y1="691.2" x2="421.6" y2="598.4" stroke="#10B981" stroke-width="1" opacity="0.21251568773110968"/><line x1="514.4" y1="691.2" x2="375.2" y2="552" stroke="#10B981" stroke-width="1" opacity="0.11877353159666448"/><line x1="514.4" y1="691.2" x2="328.8" y2="505.6" stroke="#10B981" stroke-width="1" opacity="0.025031375462219396"/><line x1="691.2" y1="468" x2="644.8" y2="421.6" stroke="#10B981" stroke-width="1" opacity="0.3062578438655548"/><line x1="691.2" y1="468" x2="598.4" y2="375.2" stroke="#10B981" stroke-width="1" opacity="0.21251568773110963"/><line x1="691.2" y1="468" x2="552" y2="328.8" stroke="#10B981" stroke-width="1" opacity="0.11877353159666448"/><line x1="468" y1="644.8" x2="421.6" y2="598.4" stroke="#10B981" stroke-width="1" opacity="0.3062578438655549"/><line x1="468" y1="644.8" x2="375.2" y2="552" stroke="#10B981" stroke-width="1" opacity="0.21251568773110976"/><line x1="468" y1="644.8" x2="328.8" y2="505.6" stroke="#10B981" stroke-width="1" opacity="0.1187735315966646"/><line x1="644.8" y1="421.6" x2="598.4" y2="375.2" stroke="#10B981" stroke-width="1" opacity="0.3062578438655549"/><line x1="644.8" y1="421.6" x2="552" y2="328.8" stroke="#10B981" stroke-width="1" opacity="0.21251568773110976"/><line x1="421.6" y1="598.4" x2="375.2" y2="552" stroke="#10B981" stroke-width="1" opacity="0.3062578438655549"/><line x1="421.6" y1="598.4" x2="328.8" y2="505.6" stroke="#10B981" stroke-width="1" opacity="0.21251568773110976"/><line x1="598.4" y1="375.2" x2="552" y2="328.8" stroke="#10B981" stroke-width="1" opacity="0.3062578438655549"/><line x1="375.2" y1="552" x2="328.8" y2="505.6" stroke="#10B981" stroke-width="1" opacity="0.3062578438655549"/><circle cx="476.8" cy="653.6" r="6" fill="#F59E0B" opacity="0.8"/><circle cx="653.6" cy="430.4" r="6" fill="#F59E0B" opacity="0.8"/><circle cx="430.4" cy="607.2" r="6" fill="#F59E0B" opacity="0.8"/><circle cx="607.2" cy="384" r="6" fill="#F59E0B" opacity="0.8"/><circle cx="384" cy="560.8" r="6" fill="#F59E0B" opacity="0.8"/><circle cx="560.8" cy="337.6" r="6" fill="#F59E0B" opacity="0.8"/><circle cx="337.6" cy="514.4" r="6" fill="#F59E0B" opacity="0.8"/><circle cx="514.4" cy="691.2" r="6" fill="#F59E0B" opacity="0.8"/><circle cx="691.2" cy="468" r="6" fill="#F59E0B" opacity="0.8"/><circle cx="468" cy="644.8" r="6" fill="#F59E0B" opacity="0.8"/><circle cx="644.8" cy="421.6" r="6" fill="#F59E0B" opacity="0.8"/><circle cx="421.6" cy="598.4" r="6" fill="#F59E0B" opacity="0.8"/><circle cx="598.4" cy="375.2" r="6" fill="#F59E0B" opacity="0.8"/><circle cx="375.2" cy="552" r="6" fill="#F59E0B" opacity="0.8"/><circle cx="552" cy="328.8" r="6" fill="#F59E0B" opacity="0.8"/><circle cx="328.8" cy="505.6" r="6" fill="#F59E0B" opacity="0.8"/>
    <text x="500" y="960" font-family="system-ui, sans-serif" font-size="36" font-weight="700" fill="white" text-anchor="middle" opacity="0.85">classification alt</text>
  </svg>