<svg xmlns="http://www.w3.org/2000/svg" viewBox="0 0 1000 1000" width="1000" height="1000">
    <defs>
      <linearGradient id="g495" x1="0" y1="0" x2="1" y2="1">
        <stop offset="0%" stop-color="#F59E0B"/>
        <stop offset="100%" stop-color="#EF4444"/>
      </linearGradient>
      <radialGradient id="glow495" cx="50%" cy="50%" r="60%">
        <stop offset="0%" stop-color="#FCD34D" stop-opacity="0.2"/>
        <stop offset="100%" stop-color="#FCD34D" stop-opacity="0"/>
      </radialGradient>
    </defs>
    <rect width="1000" height="1000" fill="#030712"/>
    <rect width="1000" height="1000" fill="url(#glow495)"/>
    <path d="M 0 500 L 0 449.7447871348624 L 16.666666666666668 408.53081197793335 L 33.333333333333336 376.2704787421217 L 50 356.12165378981064 L 66.66666666666667 350.05664460131516 L 83.33333333333333 358.6691365661784 L 100 381.11607891758615 L 116.66666666666667 415.20019367014925 L 133.33333333333334 457.58511566342287 L 150 504.1219022866056 L 166.66666666666666 550.2552083727227 L 183.33333333333331 591.4691842431616 L 200 623.7295185623886 L 216.66666666666669 643.8783448619686 L 233.33333333333334 649.943355529706 L 250 641.3308650312595 L 266.6666666666667 618.8839239899002 L 283.3333333333333 584.7997955130722 L 300 542.4148717583323 L 316.66666666666663 495.8780846049294 L 333.3333333333333 449.7447792717402 L 350 408.5308195357436 L 366.66666666666663 376.2704841331011 L 383.33333333333337 356.1216564862525 L 400 350.05664433927296 L 416.6666666666667 358.6691333713027 L 433.33333333333337 381.1160731026136 L 450 415.2002005539981 L 466.6666666666667 457.58512366827733 L 483.3333333333333 504.1219106288947 L 500 550.255216235845 L 516.6666666666667 591.4691908574198 L 533.3333333333334 623.7295232803331 L 550 643.878347221774 L 566.6666666666666 649.9433553003781 L 583.3333333333334 641.330868226135 L 600 618.8839298048724 L 616.6666666666667 584.7998033789314 L 633.3333333333333 542.414880905113 L 650 495.8780941372812 L 666.6666666666666 449.74478825656996 L 683.3333333333334 408.5308129214852 L 700 376.2704794151564 L 716.6666666666666 356.12165412644686 L 733.3333333333333 350.0566445686006 L 750 358.6691361673154 L 766.6666666666667 381.11607819161816 L 783.3333333333334 415.20020743784727 L 800 457.5851145214966 L 816.6666666666666 504.12190109654284 L 833.3333333333334 550.2552072510151 L 850 591.4691832996098 L 866.6666666666667 623.7295178893539 L 883.3333333333333 643.8783445253323 L 900 649.9433555624206 L 916.6666666666666 641.3308654301225 L 933.3333333333334 618.8839247158681 L 950 584.7997964950824 L 966.6666666666666 542.4148729002585 L 983.3333333333333 495.87808579499216 L 1000 449.74478039344774" stroke="#F59E0B" stroke-width="3" fill="none" opacity="0.7"/><path d="M 0 500 L 0 455.7794229129687 L 16.666666666666668 467.66124572487627 L 33.333333333333336 485.15432541429215 L 50 507.0665221431127 L 66.66666666666667 531.9045749983388 L 83.33333333333333 557.9757899069223 L 100 583.5034793619375 L 116.66666666666667 606.7479510899607 L 133.33333333333334 626.1251529987107 L 150 640.3145437794794 L 166.66666666666666 648.3491500994622 L 183.33333333333331 649.6814260825765 L 200 644.2205781519898 L 216.66666666666669 632.3387493140601 L 233.33333333333334 614.8456770054606 L 250 592.9334699613388 L 266.6666666666667 568.0954281278373 L 283.3333333333333 542.0242132616024 L 300 516.4965236330058 L 316.66666666666663 493.25205152730086 L 333.3333333333333 473.87484906250677 L 350 459.6854575852259 L 366.66666666666663 451.6508483185851 L 383.33333333333337 450.3185736639008 L 400 455.7794247769773 L 416.6666666666667 467.66124888212056 L 433.33333333333337 485.15432057478665 L 450 507.06652716787704 L 466.6666666666667 531.9045687459865 L 483.3333333333333 557.975795452825 L 500 583.5034733720508 L 516.6666666666667 606.7479556709817 L 533.3333333333334 626.1251488762756 L 550 640.3145410500687 L 566.6666666666666 648.3491511062244 L 583.3333333333334 649.6814265896217 L 600 644.2205762879814 L 616.6666666666667 632.3387529216988 L 633.3333333333333 614.8456727701412 L 650 592.9334757029071 L 666.6666666666666 568.0954226560574 L 683.3333333333334 542.0242077156995 L 700 516.4965296228925 L 716.6666666666666 493.25204694627973 L 733.3333333333333 473.8748531849422 L 750 459.68545519656755 L 766.6666666666667 451.65084946896604 L 783.3333333333334 450.3185741076442 L 800 455.7794226470601 L 816.6666666666666 467.6612520393651 L 833.3333333333334 485.15432481010595 L 850 507.0665214263089 L 866.6666666666667 531.9045742177664 L 883.3333333333333 557.9757891157758 L 900 583.5034786141324 L 916.6666666666666 606.7479504364587 L 933.3333333333334 626.125152484047 L 950 640.3145434387272 L 966.6666666666666 648.3491499558434 L 983.3333333333333 649.6814261458784 L 1000 644.2205784178984" stroke="#EF4444" stroke-width="2" fill="none" opacity="0.5"/>
    <text x="500" y="960" font-family="system-ui, sans-serif" font-size="36" font-weight="700" fill="white" text-anchor="middle" opacity="0.85">regression alt</text>
  </svg>