<svg xmlns="http://www.w3.org/2000/svg" viewBox="0 0 1000 1000" width="1000" height="1000">
    <defs>
      <linearGradient id="g499" x1="0" y1="0" x2="1" y2="1">
        <stop offset="0%" stop-color="#06B6D4"/>
        <stop offset="100%" stop-color="#0EA5E9"/>
      </linearGradient>
      <radialGradient id="glow499" cx="50%" cy="50%" r="60%">
        <stop offset="0%" stop-color="#67E8F9" stop-opacity="0.2"/>
        <stop offset="100%" stop-color="#67E8F9" stop-opacity="0"/>
      </radialGradient>
    </defs>
    <rect width="1000" height="1000" fill="#030712"/>
    <rect width="1000" height="1000" fill="url(#glow499)"/>
    <path d="M 0 500 L 0 437.30518172256944 L 16.666666666666668 398.26412452762725 L 33.333333333333336 369.18165921539185 L 50 352.9046219128204 L 66.66666666666667 351.02629922495123 L 83.33333333333333 363.73055716274644 L 100 389.773832562777 L 116.66666666666667 426.6067907494193 L 133.33333333333334 470.62401767760997 L 150 517.5167372349289 L 166.66666666666666 562.6948301904835 L 183.33333333333331 601.7358851086518 L 200 630.8183472008452 L 216.66666666666669 647.0953806553111 L 233.33333333333334 648.9737034200025 L 250 636.2694373562987 L 266.6666666666667 610.2261827989142 L 283.3333333333333 573.3931978140779 L 300 529.3760045331745 L 316.66666666666663 482.48324974137597 L 333.3333333333333 437.30519038562915 L 350 398.2641052550699 L 366.66666666666663 369.1816638812194 L 383.33333333333337 352.90461677655844 L 400 351.02629811135887 L 416.6666666666667 363.73056812465734 L 433.33333333333337 389.7738260951193 L 450 426.6068136224255 L 466.6666666666667 470.62400832631243 L 483.3333333333333 517.5167277642208 L 500 562.6948215274241 L 516.6666666666667 601.7358781012408 L 533.3333333333334 630.8183425350184 L 550 647.0953787877902 L 566.6666666666666 648.9737003572785 L 583.3333333333334 636.2694413419973 L 600 610.2261650108462 L 616.6666666666667 573.3932061305946 L 633.3333333333333 529.3759788142003 L 650 482.4832592120839 L 666.6666666666666 437.3051665595232 L 683.3333333333334 398.26411226248035 L 700 369.1816685470475 L 716.6666666666666 352.9046186440785 L 733.3333333333333 351.0262969977672 L 750 363.73056413895785 L 766.6666666666667 389.7738196274621 L 783.3333333333334 426.6068053059083 L 800 470.623998975015 L 816.6666666666666 517.5167538116111 L 833.3333333333334 562.6948128643645 L 850 601.7358973737978 L 866.6666666666667 630.818337869191 L 883.3333333333333 647.0953839240517 L 900 648.973701470871 L 916.6666666666666 636.2694453276955 L 933.3333333333334 610.226171478504 L 950 573.3932144471112 L 966.6666666666666 529.3759881654979 L 983.3333333333333 482.4832686827919 L 1000 437.3051752225825" stroke="#06B6D4" stroke-width="3" fill="none" opacity="0.7"/><path d="M 0 500 L 0 459.1537079307154 L 16.666666666666668 473.0669589248738 L 33.333333333333336 492.2230674468999 L 50 515.3165992386894 L 66.66666666666667 540.7737270762901 L 83.33333333333333 566.859609916634 L 100 591.7965386595827 L 116.66666666666667 613.885121839148 L 133.33333333333334 631.6200196112576 L 150 643.7926501407956 L 166.66666666666666 649.5734691030624 L 183.33333333333331 648.568523395594 L 200 640.846288415314 L 216.66666666666669 626.933035490112 L 233.33333333333334 607.7769254176517 L 250 584.6834149236067 L 266.6666666666667 559.2262642187203 L 283.3333333333333 533.1403814662319 L 300 508.2034533983818 L 316.66666666666663 486.11488977741715 L 333.3333333333333 468.37998911281545 L 350 456.2073468270849 L 366.66666666666663 450.42653009035087 L 383.33333333333337 451.43147807831974 L 400 459.153705273583 L 416.6666666666667 473.0669548635047 L 433.33333333333337 492.2230817177972 L 450 515.3165932760073 L 466.6666666666667 540.773720746104 L 483.3333333333333 566.8596036503354 L 500 591.7965545436534 L 516.6666666666667 613.8851169482829 L 533.3333333333334 631.6200159382042 L 550 643.7926479358664 L 566.6666666666666 649.5734685165197 L 583.3333333333334 648.5685204477659 L 600 640.846291072447 L 616.6666666666667 626.9330395514816 L 633.3333333333333 607.7769306064823 L 650 584.6833985243782 L 666.6666666666666 559.2262705489064 L 683.3333333333334 533.1403877325304 L 700 508.2034591737549 L 716.6666666666666 486.1148946682829 L 733.3333333333333 468.37997901077676 L 750 456.20734903201355 L 766.6666666666667 450.42653067689304 L 783.3333333333334 451.43147700650354 L 800 459.1537125815238 L 816.6666666666666 473.0669660335327 L 833.3333333333334 492.2230765289662 L 850 515.3165873133255 L 866.6666666666667 540.773714415918 L 883.3333333333333 566.8596208846038 L 900 591.7965487682806 L 916.6666666666666 613.8851120574175 L 933.3333333333334 631.6200122651505 L 950 643.7926540001058 L 966.6666666666666 649.5734701296935 L 983.3333333333333 648.5685215195825 L 1000 640.8462937295794" stroke="#0EA5E9" stroke-width="2" fill="none" opacity="0.5"/>
    <text x="500" y="960" font-family="system-ui, sans-serif" font-size="36" font-weight="700" fill="white" text-anchor="middle" opacity="0.85">video alt</text>
  </svg>