<svg xmlns="http://www.w3.org/2000/svg" viewBox="0 0 1000 1000" width="1000" height="1000">
    <defs>
      <linearGradient id="g501" x1="0" y1="0" x2="1" y2="1">
        <stop offset="0%" stop-color="#F59E0B"/>
        <stop offset="100%" stop-color="#EF4444"/>
      </linearGradient>
      <radialGradient id="glow501" cx="50%" cy="50%" r="60%">
        <stop offset="0%" stop-color="#FCD34D" stop-opacity="0.2"/>
        <stop offset="100%" stop-color="#FCD34D" stop-opacity="0"/>
      </radialGradient>
    </defs>
    <rect width="1000" height="1000" fill="#030712"/>
    <rect width="1000" height="1000" fill="url(#glow501)"/>
    <circle cx="542.7066748357175" cy="515.9843650007214" r="3.3680000000000003" fill="#EC4899" opacity="0.43679999999999997"/><circle cx="551.5907944423495" cy="544.9104656935023" r="3.824" fill="#F59E0B" opacity="0.471"/><circle cx="543.4329241745161" cy="580.1936474893787" r="4.279999999999999" fill="#EF4444" opacity="0.5052"/><circle cx="515.7080931380488" cy="612.9126025294182" r="4.736000000000001" fill="#EC4899" opacity="0.5394"/><circle cx="470.158004576953" cy="633.5054130332206" r="5.192" fill="#EF4444" opacity="0.5736"/><circle cx="412.7954622612107" cy="633.6694751907258" r="5.648" fill="#F59E0B" opacity="0.6078"/><circle cx="353.1118416462914" cy="608.1370839973772" r="6.104" fill="#EC4899" opacity="0.6419999999999999"/><circle cx="302.59192179053514" cy="556.0097371681551" r="6.56" fill="#F59E0B" opacity="0.6761999999999999"/><circle cx="272.7601684082412" cy="481.39734056246004" r="7.016" fill="#EF4444" opacity="0.7104"/><circle cx="273.06937524152227" cy="393.21455367547986" r="7.472" fill="#EC4899" opacity="0.7445999999999999"/><circle cx="308.9819413633859" cy="304.119778245227" r="7.928" fill="#EF4444" opacity="0.7787999999999999"/><circle cx="380.57853245447035" cy="228.72251643516006" r="8.384" fill="#F59E0B" opacity="0.813"/><circle cx="481.9592837933377" cy="181.31022520521515" r="8.84" fill="#EC4899" opacity="0.8472"/><circle cx="601.5882208993459" cy="173.43632569664805" r="9.296" fill="#F59E0B" opacity="0.8814"/><circle cx="723.5884931726057" cy="211.75145148534807" r="9.751999999999999" fill="#EF4444" opacity="0.3156"/><circle cx="829.8454611436226" cy="296.4423134270019" r="2.208" fill="#EC4899" opacity="0.3498"/><circle cx="510.20334138141067" cy="497.98708553227107" r="2.664" fill="#EF4444" opacity="0.384"/><circle cx="532.7579733477012" cy="505.39955388447015" r="3.12" fill="#F59E0B" opacity="0.4182"/><circle cx="548.5559592652114" cy="527.8983658990115" r="3.576" fill="#EC4899" opacity="0.4524"/><circle cx="550.2290103921968" cy="560.7164435307322" r="4.032" fill="#F59E0B" opacity="0.4866"/><circle cx="533.2118238129422" cy="596.0184084382681" r="4.4879999999999995" fill="#EF4444" opacity="0.5207999999999999"/><circle cx="496.87381612684885" cy="624.3607131468425" r="4.944" fill="#EC4899" opacity="0.5549999999999999"/><circle cx="444.9532049153958" cy="636.5199265708621" r="5.4" fill="#EF4444" opacity="0.5892"/><circle cx="385.19342261942586" cy="625.3772299508896" r="5.856" fill="#F59E0B" opacity="0.6234"/><circle cx="328.21394213648273" cy="587.5293683497846" r="6.312" fill="#EC4899" opacity="0.6576"/><circle cx="285.77740145188613" cy="524.3318365787227" r="6.768" fill="#F59E0B" opacity="0.6918"/><circle cx="268.7218193967588" cy="442.16434337837484" r="7.224" fill="#EF4444" opacity="0.726"/><circle cx="284.8932854994547" cy="351.8293504880913" r="7.68" fill="#EC4899" opacity="0.7602"/><circle cx="337.42927633113607" cy="267.1336009515716" r="8.136" fill="#EF4444" opacity="0.7944"/><circle cx="423.7019426178224" cy="202.83868616573602" r="8.591999999999999" fill="#F59E0B" opacity="0.8286"/><circle cx="535.1390364491258" cy="172.2784594851492" r="9.048" fill="#EC4899" opacity="0.8628"/><circle cx="658.0102453501271" cy="185.01028212909455" r="9.504" fill="#F59E0B" opacity="0.897"/><circle cx="775.1174059027046" cy="244.88149230334835" r="9.96" fill="#EF4444" opacity="0.3312"/><circle cx="868.1807283201142" cy="348.8479199823229" r="2.416" fill="#EC4899" opacity="0.3654"/><circle cx="520.7897364556072" cy="499.34665621117495" r="2.872" fill="#EF4444" opacity="0.3996"/><circle cx="541.2934860977708" cy="513.9931413875943" r="3.3280000000000003" fill="#F59E0B" opacity="0.43379999999999996"/><circle cx="551.427003197196" cy="542.0026587510315" r="3.784" fill="#EC4899" opacity="0.46799999999999997"/><circle cx="544.9231895859099" cy="577.061968813601" r="4.24" fill="#F59E0B" opacity="0.5022"/><circle cx="518.9093458078262" cy="610.3921946566878" r="4.696" fill="#EF4444" opacity="0.5364"/><circle cx="474.7409987938443" cy="632.4123213982273" r="5.152" fill="#EC4899" opacity="0.5706"/><circle cx="418.0767868029762" cy="634.6341232358089" r="5.6080000000000005" fill="#EF4444" opacity="0.6048"/><circle cx="358.1535668425539" cy="611.4618742014964" r="6.064" fill="#F59E0B" opacity="0.639"/><circle cx="306.35459780370115" cy="561.5767667893797" r="6.52" fill="#EC4899" opacity="0.6732"/><circle cx="274.2854478070401" cy="488.6447840913721" r="6.976" fill="#F59E0B" opacity="0.7074"/><circle cx="271.66264912982547" cy="401.1896048100667" r="7.432" fill="#EF4444" opacity="0.7416"/><circle cx="304.3640688404444" cy="311.6037621412422" r="7.888" fill="#EC4899" opacity="0.7758"/><circle cx="372.9793401515257" cy="234.41176236200113" r="8.344000000000001" fill="#EF4444" opacity="0.81"/><circle cx="472.1336004541042" cy="184.0264191797857" r="8.8" fill="#F59E0B" opacity="0.8442000000000001"/><circle cx="590.7466763689276" cy="172.33394938139668" r="9.256" fill="#EC4899" opacity="0.8783999999999998"/><circle cx="713.2484895317092" cy="206.48863444076903" r="9.712" fill="#F59E0B" opacity="0.3126"/><circle cx="821.6206440012387" cy="287.2853522856772" r="2.168" fill="#EF4444" opacity="0.3468"/><circle cx="508.18602573140726" cy="498.1161256080252" r="2.624" fill="#EC4899" opacity="0.381"/><circle cx="530.9287980893686" cy="504.10480800367924" r="3.08" fill="#EF4444" opacity="0.4152"/><circle cx="547.6437262274875" cy="525.418012336928" r="3.536" fill="#F59E0B" opacity="0.4494"/><circle cx="550.7887512568565" cy="557.6085301476193" r="3.992" fill="#EC4899" opacity="0.4836"/><circle cx="535.4986231198397" cy="593.0591626686786" r="4.448" fill="#F59E0B" opacity="0.5178"/><circle cx="500.7690568213844" cy="622.3975839287912" r="4.904" fill="#EF4444" opacity="0.552"/><circle cx="449.95784755506014" cy="636.3041561313426" r="5.359999999999999" fill="#EC4899" opacity="0.5861999999999999"/><circle cx="390.4919341494524" cy="627.4048017685053" r="5.816" fill="#EF4444" opacity="0.6204000000000001"/><circle cx="332.8006854476308" cy="591.9186010186073" r="6.272" fill="#F59E0B" opacity="0.6546"/><circle cx="288.62654106647375" cy="530.7607031531611" r="6.728" fill="#EC4899" opacity="0.6888"/><circle cx="268.97381558847906" cy="449.8815192144263" r="7.184" fill="#F59E0B" opacity="0.723"/><circle cx="282.02716426831455" cy="359.74137144871383" r="7.64" fill="#EF4444" opacity="0.7572"/><circle cx="331.39079477777966" cy="273.95811026641286" r="8.096" fill="#EC4899" opacity="0.7913999999999999"/><circle cx="414.9635108792428" cy="207.30248460566776" r="8.552" fill="#EF4444" opacity="0.8255999999999999"/><circle cx="524.6770614909506" cy="173.33074427462293" r="9.008" fill="#F59E0B" opacity="0.8597999999999999"/><circle cx="647.1980392354967" cy="182.0174576407926" r="9.464" fill="#EC4899" opacity="0.8939999999999999"/><circle cx="765.5451147345052" cy="237.77103127106926" r="9.92" fill="#F59E0B" opacity="0.3282"/><circle cx="861.4258686117871" cy="338.17496640440584" r="2.376" fill="#EF4444" opacity="0.3624"/><circle cx="518.7629024944515" cy="498.8195382328489" r="2.832" fill="#EC4899" opacity="0.3966"/><circle cx="539.7992213448474" cy="512.1071045400561" r="3.2880000000000003" fill="#EF4444" opacity="0.43079999999999996"/><circle cx="551.1329816729206" cy="539.1507111715326" r="3.7439999999999998" fill="#F59E0B" opacity="0.46499999999999997"/><circle cx="546.2605752715472" cy="573.9175160266193" r="4.2" fill="#EC4899" opacity="0.4992"/><circle cx="521.9680978565848" cy="607.7840557622671" r="4.656000000000001" fill="#F59E0B" opacity="0.5334"/><circle cx="479.2255030426573" cy="631.1650116310343" r="5.112" fill="#EF4444" opacity="0.5676"/><circle cx="423.3316256550859" cy="635.4005922265782" r="5.568" fill="#EC4899" opacity="0.6018"/><circle cx="363.257647585212" cy="614.5778733267027" r="6.024" fill="#EF4444" opacity="0.636"/><circle cx="310.2703041783557" cy="566.9632923580249" r="6.48" fill="#F59E0B" opacity="0.6701999999999999"/><circle cx="276.03979306669873" cy="495.7779495037486" r="6.936" fill="#EC4899" opacity="0.7044"/><circle cx="270.5311632827796" cy="409.1468603974214" r="7.392" fill="#F59E0B" opacity="0.7385999999999999"/><circle cx="300.02641806963584" cy="319.18316856570027" r="7.848" fill="#EF4444" opacity="0.7727999999999999"/><circle cx="365.618848754277" cy="240.3089023669196" r="8.304" fill="#EC4899" opacity="0.8069999999999999"/><circle cx="462.4605751380971" cy="187.04340303959475" r="8.76" fill="#EF4444" opacity="0.8412"/><circle cx="579.936660994019" cy="171.58847427484022" r="9.216000000000001" fill="#F59E0B" opacity="0.8754"/><circle cx="702.7996827290488" cy="201.58932880173808" r="9.672" fill="#EC4899" opacity="0.3096"/><circle cx="813.1477365751117" cy="278.4431109672181" r="2.128" fill="#F59E0B" opacity="0.3438"/><circle cx="506.18880952167956" cy="498.36946735562634" r="2.584" fill="#EF4444" opacity="0.378"/><circle cx="529.052569695854" cy="502.9305620736555" r="3.04" fill="#EC4899" opacity="0.4122"/><circle cx="546.6253339128323" cy="523.0234280140229" r="3.496" fill="#EF4444" opacity="0.4464"/><circle cx="551.2041235234659" cy="554.5268533311216" r="3.952" fill="#F59E0B" opacity="0.48059999999999997"/><circle cx="537.6329976462739" cy="590.0528594113232" r="4.4079999999999995" fill="#EC4899" opacity="0.5147999999999999"/><circle cx="504.53789799346015" cy="620.314452505927" r="4.864" fill="#F59E0B" opacity="0.5489999999999999"/><circle cx="454.89393038536036" cy="635.9105679626102" r="5.32" fill="#EF4444" opacity="0.5831999999999999"/><circle cx="395.80323402574373" cy="629.2247420601259" r="5.776" fill="#EC4899" opacity="0.6174"/><circle cx="337.4919053016555" cy="596.1070192936701" r="6.232" fill="#EF4444" opacity="0.6516"/><circle cx="291.66618681362013" cy="537.0348792791684" r="6.688" fill="#F59E0B" opacity="0.6858"/><circle cx="269.4804439490947" cy="457.525369005799" r="7.144" fill="#EC4899" opacity="0.72"/><circle cx="279.4441440269926" cy="367.6861519113967" r="7.6" fill="#F59E0B" opacity="0.7542"/><circle cx="325.6194214633285" cy="280.93057303855534" r="8.056000000000001" fill="#EF4444" opacity="0.7884"/><circle cx="406.4296541032659" cy="212.02008686582752" r="8.512" fill="#EC4899" opacity="0.8226"/>
    <text x="500" y="960" font-family="system-ui, sans-serif" font-size="36" font-weight="700" fill="white" text-anchor="middle" opacity="0.85">music alt</text>
  </svg>