<svg xmlns="http://www.w3.org/2000/svg" viewBox="0 0 1000 1000" width="1000" height="1000">
    <defs>
      <linearGradient id="g506" x1="0" y1="0" x2="1" y2="1">
        <stop offset="0%" stop-color="#10B981"/>
        <stop offset="100%" stop-color="#14B8A6"/>
      </linearGradient>
      <radialGradient id="glow506" cx="50%" cy="50%" r="60%">
        <stop offset="0%" stop-color="#6EE7B7" stop-opacity="0.2"/>
        <stop offset="100%" stop-color="#6EE7B7" stop-opacity="0"/>
      </radialGradient>
    </defs>
    <rect width="1000" height="1000" fill="#030712"/>
    <rect width="1000" height="1000" fill="url(#glow506)"/>
    <line x1="632.8" y1="565.6" x2="565.6" y2="498.4" stroke="#10B981" stroke-width="1" opacity="0.26423549801218293"/><line x1="632.8" y1="565.6" x2="498.4" y2="431.20000000000005" stroke="#10B981" stroke-width="1" opacity="0.12847099602436585"/><line x1="632.8" y1="565.6" x2="696.8" y2="629.5999999999999" stroke="#10B981" stroke-width="1" opacity="0.27070047429731714"/><line x1="632.8" y1="565.6" x2="629.5999999999999" y2="562.4000000000001" stroke="#10B981" stroke-width="1" opacity="0.3935350237148659"/><line x1="632.8" y1="565.6" x2="562.4000000000001" y2="495.2" stroke="#10B981" stroke-width="1" opacity="0.25777052172704884"/><line x1="632.8" y1="565.6" x2="495.2" y2="428" stroke="#10B981" stroke-width="1" opacity="0.12200601973923164"/><line x1="632.8" y1="565.6" x2="693.6" y2="626.4" stroke="#10B981" stroke-width="1" opacity="0.2771654505824512"/><line x1="632.8" y1="565.6" x2="626.4" y2="559.2" stroke="#10B981" stroke-width="1" opacity="0.3870700474297318"/><line x1="632.8" y1="565.6" x2="559.2" y2="492" stroke="#10B981" stroke-width="1" opacity="0.25130554544191464"/><line x1="632.8" y1="565.6" x2="492" y2="424.8" stroke="#10B981" stroke-width="1" opacity="0.11554104345409749"/><line x1="565.6" y1="498.4" x2="498.4" y2="431.20000000000005" stroke="#10B981" stroke-width="1" opacity="0.26423549801218293"/><line x1="565.6" y1="498.4" x2="431.20000000000005" y2="364" stroke="#10B981" stroke-width="1" opacity="0.12847099602436585"/><line x1="565.6" y1="498.4" x2="696.8" y2="629.5999999999999" stroke="#10B981" stroke-width="1" opacity="0.13493597230950005"/><line x1="565.6" y1="498.4" x2="629.5999999999999" y2="562.4000000000001" stroke="#10B981" stroke-width="1" opacity="0.27070047429731703"/><line x1="565.6" y1="498.4" x2="562.4000000000001" y2="495.2" stroke="#10B981" stroke-width="1" opacity="0.39353502371486593"/><line x1="565.6" y1="498.4" x2="495.2" y2="428" stroke="#10B981" stroke-width="1" opacity="0.25777052172704873"/><line x1="565.6" y1="498.4" x2="428" y2="360.8" stroke="#10B981" stroke-width="1" opacity="0.12200601973923164"/><line x1="565.6" y1="498.4" x2="693.6" y2="626.4" stroke="#10B981" stroke-width="1" opacity="0.14140094859463403"/><line x1="565.6" y1="498.4" x2="626.4" y2="559.2" stroke="#10B981" stroke-width="1" opacity="0.2771654505824512"/><line x1="565.6" y1="498.4" x2="559.2" y2="492" stroke="#10B981" stroke-width="1" opacity="0.3870700474297318"/><line x1="565.6" y1="498.4" x2="492" y2="424.8" stroke="#10B981" stroke-width="1" opacity="0.25130554544191464"/><line x1="565.6" y1="498.4" x2="424.8" y2="357.6" stroke="#10B981" stroke-width="1" opacity="0.11554104345409749"/><line x1="498.4" y1="431.20000000000005" x2="431.20000000000005" y2="364" stroke="#10B981" stroke-width="1" opacity="0.26423549801218293"/><line x1="498.4" y1="431.20000000000005" x2="629.5999999999999" y2="562.4000000000001" stroke="#10B981" stroke-width="1" opacity="0.13493597230949994"/><line x1="498.4" y1="431.20000000000005" x2="562.4000000000001" y2="495.2" stroke="#10B981" stroke-width="1" opacity="0.27070047429731703"/><line x1="498.4" y1="431.20000000000005" x2="495.2" y2="428" stroke="#10B981" stroke-width="1" opacity="0.3935350237148658"/><line x1="498.4" y1="431.20000000000005" x2="428" y2="360.8" stroke="#10B981" stroke-width="1" opacity="0.25777052172704873"/><line x1="498.4" y1="431.20000000000005" x2="693.6" y2="626.4" stroke="#10B981" stroke-width="1" opacity="0.005636446606817003"/><line x1="498.4" y1="431.20000000000005" x2="626.4" y2="559.2" stroke="#10B981" stroke-width="1" opacity="0.14140094859463403"/><line x1="498.4" y1="431.20000000000005" x2="559.2" y2="492" stroke="#10B981" stroke-width="1" opacity="0.2771654505824512"/><line x1="498.4" y1="431.20000000000005" x2="492" y2="424.8" stroke="#10B981" stroke-width="1" opacity="0.3870700474297317"/><line x1="498.4" y1="431.20000000000005" x2="424.8" y2="357.6" stroke="#10B981" stroke-width="1" opacity="0.25130554544191464"/><line x1="431.20000000000005" y1="364" x2="562.4000000000001" y2="495.2" stroke="#10B981" stroke-width="1" opacity="0.13493597230949989"/><line x1="431.20000000000005" y1="364" x2="495.2" y2="428" stroke="#10B981" stroke-width="1" opacity="0.27070047429731714"/><line x1="431.20000000000005" y1="364" x2="428" y2="360.8" stroke="#10B981" stroke-width="1" opacity="0.3935350237148658"/><line x1="431.20000000000005" y1="364" x2="626.4" y2="559.2" stroke="#10B981" stroke-width="1" opacity="0.005636446606817003"/><line x1="431.20000000000005" y1="364" x2="559.2" y2="492" stroke="#10B981" stroke-width="1" opacity="0.14140094859463403"/><line x1="431.20000000000005" y1="364" x2="492" y2="424.8" stroke="#10B981" stroke-width="1" opacity="0.27716545058245123"/><line x1="431.20000000000005" y1="364" x2="424.8" y2="357.6" stroke="#10B981" stroke-width="1" opacity="0.3870700474297317"/><line x1="364" y1="696.8" x2="360.8" y2="693.6" stroke="#10B981" stroke-width="1" opacity="0.39353502371486593"/><line x1="696.8" y1="629.5999999999999" x2="629.5999999999999" y2="562.4000000000001" stroke="#10B981" stroke-width="1" opacity="0.26423549801218305"/><line x1="696.8" y1="629.5999999999999" x2="562.4000000000001" y2="495.2" stroke="#10B981" stroke-width="1" opacity="0.12847099602436596"/><line x1="696.8" y1="629.5999999999999" x2="693.6" y2="626.4" stroke="#10B981" stroke-width="1" opacity="0.39353502371486604"/><line x1="696.8" y1="629.5999999999999" x2="626.4" y2="559.2" stroke="#10B981" stroke-width="1" opacity="0.2577705217270489"/><line x1="696.8" y1="629.5999999999999" x2="559.2" y2="492" stroke="#10B981" stroke-width="1" opacity="0.12200601973923181"/><line x1="629.5999999999999" y1="562.4000000000001" x2="562.4000000000001" y2="495.2" stroke="#10B981" stroke-width="1" opacity="0.264235498012183"/><line x1="629.5999999999999" y1="562.4000000000001" x2="495.2" y2="428" stroke="#10B981" stroke-width="1" opacity="0.1284709960243658"/><line x1="629.5999999999999" y1="562.4000000000001" x2="693.6" y2="626.4" stroke="#10B981" stroke-width="1" opacity="0.27070047429731703"/><line x1="629.5999999999999" y1="562.4000000000001" x2="626.4" y2="559.2" stroke="#10B981" stroke-width="1" opacity="0.3935350237148659"/><line x1="629.5999999999999" y1="562.4000000000001" x2="559.2" y2="492" stroke="#10B981" stroke-width="1" opacity="0.25777052172704884"/><line x1="629.5999999999999" y1="562.4000000000001" x2="492" y2="424.8" stroke="#10B981" stroke-width="1" opacity="0.12200601973923164"/><line x1="562.4000000000001" y1="495.2" x2="495.2" y2="428" stroke="#10B981" stroke-width="1" opacity="0.2642354980121828"/><line x1="562.4000000000001" y1="495.2" x2="428" y2="360.8" stroke="#10B981" stroke-width="1" opacity="0.12847099602436568"/><line x1="562.4000000000001" y1="495.2" x2="693.6" y2="626.4" stroke="#10B981" stroke-width="1" opacity="0.1349359723095"/><line x1="562.4000000000001" y1="495.2" x2="626.4" y2="559.2" stroke="#10B981" stroke-width="1" opacity="0.27070047429731714"/><line x1="562.4000000000001" y1="495.2" x2="559.2" y2="492" stroke="#10B981" stroke-width="1" opacity="0.3935350237148658"/><line x1="562.4000000000001" y1="495.2" x2="492" y2="424.8" stroke="#10B981" stroke-width="1" opacity="0.2577705217270487"/><line x1="562.4000000000001" y1="495.2" x2="424.8" y2="357.6" stroke="#10B981" stroke-width="1" opacity="0.12200601973923159"/><line x1="495.2" y1="428" x2="428" y2="360.8" stroke="#10B981" stroke-width="1" opacity="0.26423549801218293"/><line x1="495.2" y1="428" x2="626.4" y2="559.2" stroke="#10B981" stroke-width="1" opacity="0.13493597230949989"/><line x1="495.2" y1="428" x2="559.2" y2="492" stroke="#10B981" stroke-width="1" opacity="0.27070047429731703"/><line x1="495.2" y1="428" x2="492" y2="424.8" stroke="#10B981" stroke-width="1" opacity="0.3935350237148659"/><line x1="495.2" y1="428" x2="424.8" y2="357.6" stroke="#10B981" stroke-width="1" opacity="0.2577705217270488"/><line x1="428" y1="360.8" x2="559.2" y2="492" stroke="#10B981" stroke-width="1" opacity="0.13493597230949989"/><line x1="428" y1="360.8" x2="492" y2="424.8" stroke="#10B981" stroke-width="1" opacity="0.27070047429731703"/><line x1="428" y1="360.8" x2="424.8" y2="357.6" stroke="#10B981" stroke-width="1" opacity="0.3935350237148659"/><line x1="693.6" y1="626.4" x2="626.4" y2="559.2" stroke="#10B981" stroke-width="1" opacity="0.26423549801218293"/><line x1="693.6" y1="626.4" x2="559.2" y2="492" stroke="#10B981" stroke-width="1" opacity="0.12847099602436585"/><line x1="626.4" y1="559.2" x2="559.2" y2="492" stroke="#10B981" stroke-width="1" opacity="0.26423549801218293"/><line x1="626.4" y1="559.2" x2="492" y2="424.8" stroke="#10B981" stroke-width="1" opacity="0.1284709960243658"/><line x1="559.2" y1="492" x2="492" y2="424.8" stroke="#10B981" stroke-width="1" opacity="0.2642354980121828"/><line x1="559.2" y1="492" x2="424.8" y2="357.6" stroke="#10B981" stroke-width="1" opacity="0.1284709960243658"/><line x1="492" y1="424.8" x2="424.8" y2="357.6" stroke="#10B981" stroke-width="1" opacity="0.26423549801218293"/><circle cx="632.8" cy="565.6" r="6" fill="#F59E0B" opacity="0.8"/><circle cx="565.6" cy="498.4" r="6" fill="#F59E0B" opacity="0.8"/><circle cx="498.4" cy="431.20000000000005" r="6" fill="#F59E0B" opacity="0.8"/><circle cx="431.20000000000005" cy="364" r="6" fill="#F59E0B" opacity="0.8"/><circle cx="364" cy="696.8" r="6" fill="#F59E0B" opacity="0.8"/><circle cx="696.8" cy="629.5999999999999" r="6" fill="#F59E0B" opacity="0.8"/><circle cx="629.5999999999999" cy="562.4000000000001" r="6" fill="#F59E0B" opacity="0.8"/><circle cx="562.4000000000001" cy="495.2" r="6" fill="#F59E0B" opacity="0.8"/><circle cx="495.2" cy="428" r="6" fill="#F59E0B" opacity="0.8"/><circle cx="428" cy="360.8" r="6" fill="#F59E0B" opacity="0.8"/><circle cx="360.8" cy="693.6" r="6" fill="#F59E0B" opacity="0.8"/><circle cx="693.6" cy="626.4" r="6" fill="#F59E0B" opacity="0.8"/><circle cx="626.4" cy="559.2" r="6" fill="#F59E0B" opacity="0.8"/><circle cx="559.2" cy="492" r="6" fill="#F59E0B" opacity="0.8"/><circle cx="492" cy="424.8" r="6" fill="#F59E0B" opacity="0.8"/><circle cx="424.8" cy="357.6" r="6" fill="#F59E0B" opacity="0.8"/>
    <text x="500" y="960" font-family="system-ui, sans-serif" font-size="36" font-weight="700" fill="white" text-anchor="middle" opacity="0.85">science alt</text>
  </svg>