<svg xmlns="http://www.w3.org/2000/svg" viewBox="0 0 1000 1000" width="1000" height="1000">
    <defs>
      <linearGradient id="g512" x1="0" y1="0" x2="1" y2="1">
        <stop offset="0%" stop-color="#10B981"/>
        <stop offset="100%" stop-color="#14B8A6"/>
      </linearGradient>
      <radialGradient id="glow512" cx="50%" cy="50%" r="60%">
        <stop offset="0%" stop-color="#6EE7B7" stop-opacity="0.2"/>
        <stop offset="100%" stop-color="#6EE7B7" stop-opacity="0"/>
      </radialGradient>
    </defs>
    <rect width="1000" height="1000" fill="#030712"/>
    <rect width="1000" height="1000" fill="url(#glow512)"/>
    <path d="M 500 500 L 520 500 L 522.3875937187556 502.24625187455365 L 524.501664446031 504.96673326987656 L 526.2717534509542 508.12680568318683 L 527.6318298200865 511.68255026925954 L 528.5214332614371 515.5813300046366 L 528.8867465218387 519.7624865688263 L 528.6815820231683 524.1581632714134 L 527.8682683738866 528.6942436359809 L 526.4184236515032 533.2913936591681 L 524.3136037640663 537.8661943163553 L 521.5458157677149 542.3323496029182 L 518.1178877238336 546.6019542983613 L 514.0436885027908 550.5868047344027 L 509.34819285951323 554.1997351493653 L 504.0673890958929 557.3559617297332 L 498.24802866192266 559.9744161824904 L 491.9472191065297 561.9790506532793 L 485.2318638449493 563.3000960070827 L 478.1779542367135 563.8752559189005 L 470.8697214417 563.6508198777977 L 463.3986574165103 562.5826790820433 L 455.862416205849 560.6372302864693 L 448.3636083508136 557.7921539436958 L 441.0085027567003 554.0370544440921 L 433.9056517173779 549.3739518885764 L 427.1644559636394 543.8176166048244 L 420.89368757350707 537.3957395204601 L 415.1999893398207 530.1489335140313 L 410.18636972366284 522.1305629522933 L 405.95071282295766 513.4064007656873 L 402.5843228483552 504.0541145872457 L 400.17052242052466 494.16258565724183 L 398.78332358434136 483.83106635031686 L 398.4861897791566 473.16818428718256 L 399.3309061162394 462.2908030233657 L 401.3565742032439 451.322751237566 L 404.58874643257917 440.3934341477943 L 409.03871312984217 429.63634254158706 L 414.7029542564837 419.18747629588285 L 421.5627654963667 409.18370056304843 L 429.5840665496747 399.7610538946096 L 438.71739733241265 391.0530284483014 L 448.89810555980324 383.1888430644444 L 460.04672690280546 376.2917303943629 L 472.0695565754217 370.47725940937465 L 484.8594088637676 365.8517145094823 L 498.29655877385244 362.51055208493614 L 512.2498576815224 360.5369547629823 L 526.5780126427168 360.0005027010326 L 541.1310168921675 360.95598017384486 L 555.7517170501643 363.44233435665944 L 570.2775006950562 367.48180164197686 L 584.5420862673217 373.0792150608549 L 598.3773957711079 380.22150442882173 L 611.615489450873 388.8773987226629 L 624.0905405616395 398.99733794042817 L 635.640827536363 410.51359932788336 L 646.1107202953172 423.34064039672944 L 655.3526371496256 437.37565864093466 L 663.2289487305618 452.49936530618174 L 669.6138056313455 468.5769680130626 L 674.3948669790628 485.4593545069371 L 677.4749079580561 502.984467335971 L 678.7732853764746 520.9788568730876 L 678.2272416953645 539.2593978260251 L 675.7930295123282 557.6351522499735 L 671.4468402941228 575.9093601156108 L 665.1855231664674 593.8815367163342 L 657.0270817741321 611.349654644727 L 647.0109395969454 628.1123867501624 L 635.1979666224554 643.9713854248591 L 621.6702629064523 658.7335727698293 L 606.5306972696753 672.213415677283 L 589.9022021527519 684.2351596413823 L 571.9268284507698 694.6349951807573 L 552.7645669422758 703.2631311266113 L 532.5919456830486 709.9857496988619 L 511.6004154209722 714.6868192555396 L 489.99453767340344 717.2697418501502 L 467.9899925621078 717.6588142571441 L 445.8114257937892 715.800482913032 L 423.69015627863996 711.6643752529496 L 401.8617677691868 705.2440921795578 L 380.5636095531653 696.5577488603059 L 360.0322326257814 685.6482536849633 L 340.50078887979976 672.5833180004187 L 322.19642167062034 657.4551921445209 L 305.3376766252051 640.3801262940257 L 290.13196175903255 621.4975576910401 L 276.7730858382561 600.9690288842338 L 265.4389034725515 578.9768446814683 L 256.2890946489604 555.7224785250658 L 249.4631053232186 531.4247419355374 L 245.07827428102289 506.31773349061075 L 243.22816977943268 480.6485864810887 L 243.9811574935266 454.67503688202993 L 247.37921904428023 428.6628355671322 L 253.43703789223892 402.883030748244 L 262.14136667271396 377.6091484151064 L 273.4506871493553 353.11430005987484 L 287.2951709038945 329.6682481766941 L 303.5769456925166 307.53446091178 L 322.17066911738516 286.96718779061007 L 342.9244079203713 268.20858865602077 L 365.660817841127 251.48594780800653 L 390.17861563002316 237.009004840353 L 416.2543315051075 224.9674328223233 L 443.64432712794644 215.52849328071932 L 472.08706108221526 208.83489590788582 L 501.30558090646815 205.00288906754304 L 531.010217992538 204.12060500931307 L 560.9014591456182 206.2466812546039 L 590.6729663412897 211.40917690461646 L 620.0147142360995 219.6047996722715 L 648.6162133165424 230.7984562833051 L 676.1697852280652 244.9231355596964 L 702.37385582933 261.88013002529755 L 726.9362308821079 281.53959829520085 L 749.5773190247742 303.7414668647357 L 770.0332667943924 328.29666623985395 L 788.058970961752 354.9886926875837 L 803.4309343242534 383.5754832730228 L 815.9499323578616 413.7915883276914 L 825.4434597520228 445.35062210204876 L 831.7679278268768 477.9479691307164 L 834.8105861428362 511.26372081907124 L 834.4911442373111 544.9658139792209 L 830.7630723371296 578.7133405345131 L 823.6145630697549 612.1599954046499 L 813.0691396003215 644.9576277051814 L 799.1858992206562 676.7598588693904 L 782.0593851741634 707.225730147519 L 761.8190833780504 736.0233411742934 L 738.6285446614891 762.833440933111 L 712.6841371332952 787.352932492197 L 684.2134372831431 809.2982533483319 L 653.4732723633764 828.4085940868117 L 620.7474304514135 844.4489193470934 L 586.3440583133969 857.2127567626499 L 550.5927707369107 866.5247216070995 L 513.8414983345954 872.242747308598 L 476.45310390348203 874.2599947686356 L 438.8018002213697 872.5064165136679 L 401.26940463878606 866.9499550887281 L 364.24146795333337 857.5973587381952 L 328.10331680629037 844.4946012740994 L 293.236050196729 827.7268970678936 L 260.0125316476709 807.4183062763816 L 228.79341906775431 783.7309296834601 L 199.9232744207759 756.8636968620717 L 173.72679493917366 727.0507556898572 L 150.50520679557604 694.5594755415325 L 130.5328608832541 659.6880806850854 L 114.05406866069768 622.7629344820242 L 101.28021390130891 584.1354988896675 L 92.38717367463846 544.1789974427879 L 87.51307899339844 503.28481331171525 L 86.75644231758474 461.8586571555291 L 90.17467554433227 420.31654227629286 L 97.78301826417447 379.08060700068927 L 109.55389196909681 338.5748262397732 L 125.41669159604328 299.220655780667 L 145.258021324789 261.43265402491625 L 168.92237696690006 225.6141265903949 L 196.21327263006611 192.15283942536576 L 226.8948046678106 161.41684583759053 L 260.69364127751066 133.7504721163691 L 297.3014215389884 109.4705052241452 L 336.37754324053446 88.86262436504734 L 377.5523145670274 72.17811611360133 L 420.43044067239333 59.63091022596751 L 464.5948123706608 51.39497028128329 L 509.6105606985636 47.602069939462865 L 555.029337967446 48.33998188586128 L 600.3937831692331 53.65110249831628 L 645.2421272628425 63.53153095766032 L 689.1128919719742 77.93061697157424 L 731.5496342966057 96.75098653920094 L 772.1056879979866 119.84905029825057 L 810.3488528747125 147.0359940173081 L 845.8659827147226 178.0792457750216 L 878.2674233886602 212.70440935701117 L 907.1912536424891 250.59764845323147 L 932.3072827446872 291.4085014054866 L 953.3207612335322 334.75310158840875 L 969.9757635754382 380.21777405773554 L 982.0582045633957 427.3629749155764 L 989.3984547277329 475.72753596959825 L 991.8735238674245 524.8331737448545 L 989.4087860024013 574.1892187831614 L 981.9792235550871 623.2975184715225 L 969.6101733484348 671.6574644099494 L 952.3775620105198 718.7710935873805 L 930.4076235520577 764.1482114046398 L 903.8760971805746 807.3114838827005 L 873.006908779201 847.8014462347519 L 838.0703448538952 885.1813753679799 L 799.38073308443 919.0419748161627 L 757.2936488458425 949.0058220820667 L 712.2026721429572 974.7315303783697 L 664.5357242669387 995.9175792810277 L 614.7510180872539 1012.3057718276647 L 563.3326601848709 1023.6842790784426 L 510.7859469657807 1029.8902370756155 L 457.63240042416606 1030.8118654534603 L 404.40459231175566 1026.390081620958 L 351.64080807839844 1016.6195894198845 L 299.8796040476609 1001.5494264017054 L 249.65431285435517 981.282959315594 L 201.48755317776033 955.9773230021426 L 155.8858002399582 925.8423035860892 L 113.33407339402464 891.1386725982786 L 74.29079639862886 852.1759843729939 L 39.18288466675676 809.3098547022862 L 8.401111895701604 762.9387442249973 L -17.704193951916523 713.5002753267485 L -38.827078319722204 661.4671163718265 L -54.7094678682065 607.3424718244008 L -65.14421887113303 551.6552211933897 L -69.97767104494403 494.95475370444547 L -69.11167645700084 437.80554911968994 L -62.505078308737325 380.7815581510875 L -50.174619841148 324.46043841159457 L -32.195269308469165 269.417703789542 L -8.69995285445981 216.2208464917273 L 20.121306855034504 165.42349176088055 L 54.0228423007153 117.55964542105534 L 92.70537304109399 73.13809393387282 L 135.81860182745237 32.637015559543954 L 182.96435290165635 -3.5011404842456955 L 233.70022473454065 -34.87445227227636 L 287.543723962218 -61.125949116737615 L 343.97684207693646 -81.94761292724331 L 402.45103158390367 -97.08391266300032 L 462.3925338984282 -106.3348319974873 L 523.208007277599 -109.55835520334301 L 584.2903996019401 -106.67238154950428 L 645.0250078846121 -97.65604413246774 L 704.7956640230485 -82.55041498342507 L 762.9909845489788 -61.45858444408975 L 819.0106210001597 -34.54510912466003 L 872.2714470470439 -2.0348291836954218 L 922.2136186697985 35.78893786365194 L 968.3064444986234 78.58681316188 L 1010.0540048995317 125.9663623603476 L 1047.0004604982532 177.4856651019967 L 1078.7349935695981 232.6574160033615 L 1104.8963290548486 290.9535192930265 L 1125.1767858755043 351.8101339417011 L 1139.3258136519498 414.6331211869906 L 1147.1529748684588 478.8038418833328" stroke="#10B981" stroke-width="2" fill="none" opacity="0.8"/><path d="M 500 500 L 520 500 L 522.3875937187556 502.24625187455365 L 524.501664446031 504.96673326987656 L 526.2717534509542 508.12680568318683 L 527.6318298200865 511.68255026925954 L 528.5214332614371 515.5813300046366 L 528.8867465218387 519.7624865688263 L 528.6815820231683 524.1581632714134 L 527.8682683738866 528.6942436359809 L 526.4184236515032 533.2913936591681 L 524.3136037640663 537.8661943163553 L 521.5458157677149 542.3323496029182 L 518.1178877238336 546.6019542983613 L 514.0436885027908 550.5868047344027 L 509.34819285951323 554.1997351493653 L 504.0673890958929 557.3559617297332 L 498.24802866192266 559.9744161824904 L 491.9472191065297 561.9790506532793 L 485.2318638449493 563.3000960070827 L 478.1779542367135 563.8752559189005 L 470.8697214417 563.6508198777977 L 463.3986574165103 562.5826790820433 L 455.862416205849 560.6372302864693 L 448.3636083508136 557.7921539436958 L 441.0085027567003 554.0370544440921 L 433.9056517173779 549.3739518885764 L 427.1644559636394 543.8176166048244 L 420.89368757350707 537.3957395204601 L 415.1999893398207 530.1489335140313 L 410.18636972366284 522.1305629522933 L 405.95071282295766 513.4064007656873 L 402.5843228483552 504.0541145872457 L 400.17052242052466 494.16258565724183 L 398.78332358434136 483.83106635031686 L 398.4861897791566 473.16818428718256 L 399.3309061162394 462.2908030233657 L 401.3565742032439 451.322751237566 L 404.58874643257917 440.3934341477943 L 409.03871312984217 429.63634254158706 L 414.7029542564837 419.18747629588285 L 421.5627654963667 409.18370056304843 L 429.5840665496747 399.7610538946096 L 438.71739733241265 391.0530284483014 L 448.89810555980324 383.1888430644444 L 460.04672690280546 376.2917303943629 L 472.0695565754217 370.47725940937465 L 484.8594088637676 365.8517145094823 L 498.29655877385244 362.51055208493614 L 512.2498576815224 360.5369547629823 L 526.5780126427168 360.0005027010326 L 541.1310168921675 360.95598017384486 L 555.7517170501643 363.44233435665944 L 570.2775006950562 367.48180164197686 L 584.5420862673217 373.0792150608549 L 598.3773957711079 380.22150442882173 L 611.615489450873 388.8773987226629 L 624.0905405616395 398.99733794042817 L 635.640827536363 410.51359932788336 L 646.1107202953172 423.34064039672944 L 655.3526371496256 437.37565864093466 L 663.2289487305618 452.49936530618174 L 669.6138056313455 468.5769680130626 L 674.3948669790628 485.4593545069371 L 677.4749079580561 502.984467335971 L 678.7732853764746 520.9788568730876 L 678.2272416953645 539.2593978260251 L 675.7930295123282 557.6351522499735 L 671.4468402941228 575.9093601156108 L 665.1855231664674 593.8815367163342 L 657.0270817741321 611.349654644727 L 647.0109395969454 628.1123867501624 L 635.1979666224554 643.9713854248591 L 621.6702629064523 658.7335727698293 L 606.5306972696753 672.213415677283 L 589.9022021527519 684.2351596413823 L 571.9268284507698 694.6349951807573 L 552.7645669422758 703.2631311266113 L 532.5919456830486 709.9857496988619 L 511.6004154209722 714.6868192555396 L 489.99453767340344 717.2697418501502 L 467.9899925621078 717.6588142571441 L 445.8114257937892 715.800482913032 L 423.69015627863996 711.6643752529496 L 401.8617677691868 705.2440921795578 L 380.5636095531653 696.5577488603059 L 360.0322326257814 685.6482536849633 L 340.50078887979976 672.5833180004187 L 322.19642167062034 657.4551921445209 L 305.3376766252051 640.3801262940257 L 290.13196175903255 621.4975576910401 L 276.7730858382561 600.9690288842338 L 265.4389034725515 578.9768446814683 L 256.2890946489604 555.7224785250658 L 249.4631053232186 531.4247419355374 L 245.07827428102289 506.31773349061075 L 243.22816977943268 480.6485864810887 L 243.9811574935266 454.67503688202993 L 247.37921904428023 428.6628355671322 L 253.43703789223892 402.883030748244 L 262.14136667271396 377.6091484151064 L 273.4506871493553 353.11430005987484 L 287.2951709038945 329.6682481766941 L 303.5769456925166 307.53446091178 L 322.17066911738516 286.96718779061007 L 342.9244079203713 268.20858865602077 L 365.660817841127 251.48594780800653 L 390.17861563002316 237.009004840353 L 416.2543315051075 224.9674328223233 L 443.64432712794644 215.52849328071932 L 472.08706108221526 208.83489590788582 L 501.30558090646815 205.00288906754304 L 531.010217992538 204.12060500931307 L 560.9014591456182 206.2466812546039 L 590.6729663412897 211.40917690461646 L 620.0147142360995 219.6047996722715 L 648.6162133165424 230.7984562833051 L 676.1697852280652 244.9231355596964 L 702.37385582933 261.88013002529755 L 726.9362308821079 281.53959829520085 L 749.5773190247742 303.7414668647357 L 770.0332667943924 328.29666623985395 L 788.058970961752 354.9886926875837 L 803.4309343242534 383.5754832730228 L 815.9499323578616 413.7915883276914 L 825.4434597520228 445.35062210204876 L 831.7679278268768 477.9479691307164 L 834.8105861428362 511.26372081907124 L 834.4911442373111 544.9658139792209 L 830.7630723371296 578.7133405345131 L 823.6145630697549 612.1599954046499 L 813.0691396003215 644.9576277051814 L 799.1858992206562 676.7598588693904 L 782.0593851741634 707.225730147519 L 761.8190833780504 736.0233411742934 L 738.6285446614891 762.833440933111 L 712.6841371332952 787.352932492197 L 684.2134372831431 809.2982533483319 L 653.4732723633764 828.4085940868117 L 620.7474304514135 844.4489193470934 L 586.3440583133969 857.2127567626499 L 550.5927707369107 866.5247216070995 L 513.8414983345954 872.242747308598 L 476.45310390348203 874.2599947686356 L 438.8018002213697 872.5064165136679 L 401.26940463878606 866.9499550887281 L 364.24146795333337 857.5973587381952 L 328.10331680629037 844.4946012740994 L 293.236050196729 827.7268970678936 L 260.0125316476709 807.4183062763816 L 228.79341906775431 783.7309296834601 L 199.9232744207759 756.8636968620717 L 173.72679493917366 727.0507556898572 L 150.50520679557604 694.5594755415325 L 130.5328608832541 659.6880806850854 L 114.05406866069768 622.7629344820242 L 101.28021390130891 584.1354988896675 L 92.38717367463846 544.1789974427879 L 87.51307899339844 503.28481331171525 L 86.75644231758474 461.8586571555291 L 90.17467554433227 420.31654227629286 L 97.78301826417447 379.08060700068927 L 109.55389196909681 338.5748262397732 L 125.41669159604328 299.220655780667 L 145.258021324789 261.43265402491625 L 168.92237696690006 225.6141265903949 L 196.21327263006611 192.15283942536576 L 226.8948046678106 161.41684583759053 L 260.69364127751066 133.7504721163691 L 297.3014215389884 109.4705052241452 L 336.37754324053446 88.86262436504734 L 377.5523145670274 72.17811611360133 L 420.43044067239333 59.63091022596751 L 464.5948123706608 51.39497028128329 L 509.6105606985636 47.602069939462865 L 555.029337967446 48.33998188586128 L 600.3937831692331 53.65110249831628 L 645.2421272628425 63.53153095766032 L 689.1128919719742 77.93061697157424 L 731.5496342966057 96.75098653920094 L 772.1056879979866 119.84905029825057 L 810.3488528747125 147.0359940173081 L 845.8659827147226 178.0792457750216 L 878.2674233886602 212.70440935701117 L 907.1912536424891 250.59764845323147 L 932.3072827446872 291.4085014054866 L 953.3207612335322 334.75310158840875 L 969.9757635754382 380.21777405773554 L 982.0582045633957 427.3629749155764 L 989.3984547277329 475.72753596959825 L 991.8735238674245 524.8331737448545 L 989.4087860024013 574.1892187831614 L 981.9792235550871 623.2975184715225 L 969.6101733484348 671.6574644099494 L 952.3775620105198 718.7710935873805 L 930.4076235520577 764.1482114046398 L 903.8760971805746 807.3114838827005 L 873.006908779201 847.8014462347519 L 838.0703448538952 885.1813753679799 L 799.38073308443 919.0419748161627 L 757.2936488458425 949.0058220820667 L 712.2026721429572 974.7315303783697 L 664.5357242669387 995.9175792810277 L 614.7510180872539 1012.3057718276647 L 563.3326601848709 1023.6842790784426 L 510.7859469657807 1029.8902370756155 L 457.63240042416606 1030.8118654534603 L 404.40459231175566 1026.390081620958 L 351.64080807839844 1016.6195894198845 L 299.8796040476609 1001.5494264017054 L 249.65431285435517 981.282959315594 L 201.48755317776033 955.9773230021426 L 155.8858002399582 925.8423035860892 L 113.33407339402464 891.1386725982786 L 74.29079639862886 852.1759843729939 L 39.18288466675676 809.3098547022862 L 8.401111895701604 762.9387442249973 L -17.704193951916523 713.5002753267485 L -38.827078319722204 661.4671163718265 L -54.7094678682065 607.3424718244008 L -65.14421887113303 551.6552211933897 L -69.97767104494403 494.95475370444547 L -69.11167645700084 437.80554911968994 L -62.505078308737325 380.7815581510875 L -50.174619841148 324.46043841159457 L -32.195269308469165 269.417703789542 L -8.69995285445981 216.2208464917273 L 20.121306855034504 165.42349176088055 L 54.0228423007153 117.55964542105534 L 92.70537304109399 73.13809393387282 L 135.81860182745237 32.637015559543954 L 182.96435290165635 -3.5011404842456955 L 233.70022473454065 -34.87445227227636 L 287.543723962218 -61.125949116737615 L 343.97684207693646 -81.94761292724331 L 402.45103158390367 -97.08391266300032 L 462.3925338984282 -106.3348319974873 L 523.208007277599 -109.55835520334301 L 584.2903996019401 -106.67238154950428 L 645.0250078846121 -97.65604413246774 L 704.7956640230485 -82.55041498342507 L 762.9909845489788 -61.45858444408975 L 819.0106210001597 -34.54510912466003 L 872.2714470470439 -2.0348291836954218 L 922.2136186697985 35.78893786365194 L 968.3064444986234 78.58681316188 L 1010.0540048995317 125.9663623603476 L 1047.0004604982532 177.4856651019967 L 1078.7349935695981 232.6574160033615 L 1104.8963290548486 290.9535192930265 L 1125.1767858755043 351.8101339417011 L 1139.3258136519498 414.6331211869906 L 1147.1529748684588 478.8038418833328" stroke="#F59E0B" stroke-width="1" fill="none" opacity="0.5" transform="rotate(45 500 500)"/>
    <text x="500" y="960" font-family="system-ui, sans-serif" font-size="36" font-weight="700" fill="white" text-anchor="middle" opacity="0.85">stream alt</text>
  </svg>