<svg xmlns="http://www.w3.org/2000/svg" viewBox="0 0 1000 1000" width="1000" height="1000">
    <defs>
      <linearGradient id="g518" x1="0" y1="0" x2="1" y2="1">
        <stop offset="0%" stop-color="#10B981"/>
        <stop offset="100%" stop-color="#14B8A6"/>
      </linearGradient>
      <radialGradient id="glow518" cx="50%" cy="50%" r="60%">
        <stop offset="0%" stop-color="#6EE7B7" stop-opacity="0.2"/>
        <stop offset="100%" stop-color="#6EE7B7" stop-opacity="0"/>
      </radialGradient>
    </defs>
    <rect width="1000" height="1000" fill="#030712"/>
    <rect width="1000" height="1000" fill="url(#glow518)"/>
    <line x1="656.8" y1="613.6" x2="613.6" y2="570.4000000000001" stroke="#10B981" stroke-width="1" opacity="0.31272282015068914"/><line x1="656.8" y1="613.6" x2="570.4000000000001" y2="527.2" stroke="#10B981" stroke-width="1" opacity="0.22544564030137818"/><line x1="656.8" y1="613.6" x2="527.2" y2="484" stroke="#10B981" stroke-width="1" opacity="0.13816846045206704"/><line x1="656.8" y1="613.6" x2="484" y2="440.79999999999995" stroke="#10B981" stroke-width="1" opacity="0.05089128060275594"/><line x1="656.8" y1="613.6" x2="668" y2="624.8" stroke="#10B981" stroke-width="1" opacity="0.3773725830020305"/><line x1="656.8" y1="613.6" x2="624.8" y2="581.5999999999999" stroke="#10B981" stroke-width="1" opacity="0.3353502371486584"/><line x1="656.8" y1="613.6" x2="581.5999999999999" y2="538.4" stroke="#10B981" stroke-width="1" opacity="0.24807305729934742"/><line x1="656.8" y1="613.6" x2="538.4" y2="495.2" stroke="#10B981" stroke-width="1" opacity="0.1607958774500365"/><line x1="656.8" y1="613.6" x2="495.2" y2="452" stroke="#10B981" stroke-width="1" opacity="0.07351869760072549"/><line x1="613.6" y1="570.4000000000001" x2="570.4000000000001" y2="527.2" stroke="#10B981" stroke-width="1" opacity="0.31272282015068903"/><line x1="613.6" y1="570.4000000000001" x2="527.2" y2="484" stroke="#10B981" stroke-width="1" opacity="0.22544564030137793"/><line x1="613.6" y1="570.4000000000001" x2="484" y2="440.79999999999995" stroke="#10B981" stroke-width="1" opacity="0.13816846045206682"/><line x1="613.6" y1="570.4000000000001" x2="440.79999999999995" y2="397.6" stroke="#10B981" stroke-width="1" opacity="0.050891280602755884"/><line x1="613.6" y1="570.4000000000001" x2="668" y2="624.8" stroke="#10B981" stroke-width="1" opacity="0.29009540315271964"/><line x1="613.6" y1="570.4000000000001" x2="624.8" y2="581.5999999999999" stroke="#10B981" stroke-width="1" opacity="0.37737258300203075"/><line x1="613.6" y1="570.4000000000001" x2="581.5999999999999" y2="538.4" stroke="#10B981" stroke-width="1" opacity="0.3353502371486583"/><line x1="613.6" y1="570.4000000000001" x2="538.4" y2="495.2" stroke="#10B981" stroke-width="1" opacity="0.24807305729934737"/><line x1="613.6" y1="570.4000000000001" x2="495.2" y2="452" stroke="#10B981" stroke-width="1" opacity="0.16079587745003637"/><line x1="613.6" y1="570.4000000000001" x2="452" y2="408.8" stroke="#10B981" stroke-width="1" opacity="0.07351869760072538"/><line x1="570.4000000000001" y1="527.2" x2="527.2" y2="484" stroke="#10B981" stroke-width="1" opacity="0.3127228201506889"/><line x1="570.4000000000001" y1="527.2" x2="484" y2="440.79999999999995" stroke="#10B981" stroke-width="1" opacity="0.22544564030137781"/><line x1="570.4000000000001" y1="527.2" x2="440.79999999999995" y2="397.6" stroke="#10B981" stroke-width="1" opacity="0.13816846045206682"/><line x1="570.4000000000001" y1="527.2" x2="397.6" y2="354.4" stroke="#10B981" stroke-width="1" opacity="0.050891280602755884"/><line x1="570.4000000000001" y1="527.2" x2="668" y2="624.8" stroke="#10B981" stroke-width="1" opacity="0.20281822330340868"/><line x1="570.4000000000001" y1="527.2" x2="624.8" y2="581.5999999999999" stroke="#10B981" stroke-width="1" opacity="0.29009540315271976"/><line x1="570.4000000000001" y1="527.2" x2="581.5999999999999" y2="538.4" stroke="#10B981" stroke-width="1" opacity="0.37737258300203075"/><line x1="570.4000000000001" y1="527.2" x2="538.4" y2="495.2" stroke="#10B981" stroke-width="1" opacity="0.33535023714865836"/><line x1="570.4000000000001" y1="527.2" x2="495.2" y2="452" stroke="#10B981" stroke-width="1" opacity="0.24807305729934737"/><line x1="570.4000000000001" y1="527.2" x2="452" y2="408.8" stroke="#10B981" stroke-width="1" opacity="0.16079587745003637"/><line x1="570.4000000000001" y1="527.2" x2="408.8" y2="365.6" stroke="#10B981" stroke-width="1" opacity="0.07351869760072538"/><line x1="527.2" y1="484" x2="484" y2="440.79999999999995" stroke="#10B981" stroke-width="1" opacity="0.3127228201506889"/><line x1="527.2" y1="484" x2="440.79999999999995" y2="397.6" stroke="#10B981" stroke-width="1" opacity="0.22544564030137793"/><line x1="527.2" y1="484" x2="397.6" y2="354.4" stroke="#10B981" stroke-width="1" opacity="0.13816846045206693"/><line x1="527.2" y1="484" x2="354.4" y2="311.2" stroke="#10B981" stroke-width="1" opacity="0.050891280602755884"/><line x1="527.2" y1="484" x2="668" y2="624.8" stroke="#10B981" stroke-width="1" opacity="0.11554104345409755"/><line x1="527.2" y1="484" x2="624.8" y2="581.5999999999999" stroke="#10B981" stroke-width="1" opacity="0.20281822330340868"/><line x1="527.2" y1="484" x2="581.5999999999999" y2="538.4" stroke="#10B981" stroke-width="1" opacity="0.29009540315271964"/><line x1="527.2" y1="484" x2="538.4" y2="495.2" stroke="#10B981" stroke-width="1" opacity="0.3773725830020306"/><line x1="527.2" y1="484" x2="495.2" y2="452" stroke="#10B981" stroke-width="1" opacity="0.33535023714865847"/><line x1="527.2" y1="484" x2="452" y2="408.8" stroke="#10B981" stroke-width="1" opacity="0.24807305729934748"/><line x1="527.2" y1="484" x2="408.8" y2="365.6" stroke="#10B981" stroke-width="1" opacity="0.1607958774500365"/><line x1="484" y1="440.79999999999995" x2="440.79999999999995" y2="397.6" stroke="#10B981" stroke-width="1" opacity="0.31272282015068903"/><line x1="484" y1="440.79999999999995" x2="397.6" y2="354.4" stroke="#10B981" stroke-width="1" opacity="0.22544564030137804"/><line x1="484" y1="440.79999999999995" x2="354.4" y2="311.2" stroke="#10B981" stroke-width="1" opacity="0.138168460452067"/><line x1="484" y1="440.79999999999995" x2="668" y2="624.8" stroke="#10B981" stroke-width="1" opacity="0.028263863604786443"/><line x1="484" y1="440.79999999999995" x2="624.8" y2="581.5999999999999" stroke="#10B981" stroke-width="1" opacity="0.11554104345409755"/><line x1="484" y1="440.79999999999995" x2="581.5999999999999" y2="538.4" stroke="#10B981" stroke-width="1" opacity="0.20281822330340854"/><line x1="484" y1="440.79999999999995" x2="538.4" y2="495.2" stroke="#10B981" stroke-width="1" opacity="0.2900954031527195"/><line x1="484" y1="440.79999999999995" x2="495.2" y2="452" stroke="#10B981" stroke-width="1" opacity="0.37737258300203047"/><line x1="484" y1="440.79999999999995" x2="452" y2="408.8" stroke="#10B981" stroke-width="1" opacity="0.3353502371486586"/><line x1="484" y1="440.79999999999995" x2="408.8" y2="365.6" stroke="#10B981" stroke-width="1" opacity="0.24807305729934762"/><line x1="440.79999999999995" y1="397.6" x2="397.6" y2="354.4" stroke="#10B981" stroke-width="1" opacity="0.31272282015068903"/><line x1="440.79999999999995" y1="397.6" x2="354.4" y2="311.2" stroke="#10B981" stroke-width="1" opacity="0.22544564030137798"/><line x1="440.79999999999995" y1="397.6" x2="624.8" y2="581.5999999999999" stroke="#10B981" stroke-width="1" opacity="0.028263863604786554"/><line x1="440.79999999999995" y1="397.6" x2="581.5999999999999" y2="538.4" stroke="#10B981" stroke-width="1" opacity="0.11554104345409755"/><line x1="440.79999999999995" y1="397.6" x2="538.4" y2="495.2" stroke="#10B981" stroke-width="1" opacity="0.2028182233034085"/><line x1="440.79999999999995" y1="397.6" x2="495.2" y2="452" stroke="#10B981" stroke-width="1" opacity="0.2900954031527195"/><line x1="440.79999999999995" y1="397.6" x2="452" y2="408.8" stroke="#10B981" stroke-width="1" opacity="0.37737258300203047"/><line x1="440.79999999999995" y1="397.6" x2="408.8" y2="365.6" stroke="#10B981" stroke-width="1" opacity="0.3353502371486586"/><line x1="397.6" y1="354.4" x2="354.4" y2="311.2" stroke="#10B981" stroke-width="1" opacity="0.312722820150689"/><line x1="397.6" y1="354.4" x2="581.5999999999999" y2="538.4" stroke="#10B981" stroke-width="1" opacity="0.028263863604786554"/><line x1="397.6" y1="354.4" x2="538.4" y2="495.2" stroke="#10B981" stroke-width="1" opacity="0.11554104345409749"/><line x1="397.6" y1="354.4" x2="495.2" y2="452" stroke="#10B981" stroke-width="1" opacity="0.2028182233034085"/><line x1="397.6" y1="354.4" x2="452" y2="408.8" stroke="#10B981" stroke-width="1" opacity="0.2900954031527195"/><line x1="397.6" y1="354.4" x2="408.8" y2="365.6" stroke="#10B981" stroke-width="1" opacity="0.37737258300203047"/><line x1="354.4" y1="311.2" x2="538.4" y2="495.2" stroke="#10B981" stroke-width="1" opacity="0.028263863604786443"/><line x1="354.4" y1="311.2" x2="495.2" y2="452" stroke="#10B981" stroke-width="1" opacity="0.11554104345409749"/><line x1="354.4" y1="311.2" x2="452" y2="408.8" stroke="#10B981" stroke-width="1" opacity="0.20281822330340843"/><line x1="354.4" y1="311.2" x2="408.8" y2="365.6" stroke="#10B981" stroke-width="1" opacity="0.2900954031527194"/><line x1="668" y1="624.8" x2="624.8" y2="581.5999999999999" stroke="#10B981" stroke-width="1" opacity="0.3127228201506889"/><line x1="668" y1="624.8" x2="581.5999999999999" y2="538.4" stroke="#10B981" stroke-width="1" opacity="0.22544564030137793"/><line x1="668" y1="624.8" x2="538.4" y2="495.2" stroke="#10B981" stroke-width="1" opacity="0.138168460452067"/><line x1="668" y1="624.8" x2="495.2" y2="452" stroke="#10B981" stroke-width="1" opacity="0.05089128060275605"/><line x1="624.8" y1="581.5999999999999" x2="581.5999999999999" y2="538.4" stroke="#10B981" stroke-width="1" opacity="0.31272282015068903"/><line x1="624.8" y1="581.5999999999999" x2="538.4" y2="495.2" stroke="#10B981" stroke-width="1" opacity="0.2254456403013781"/><line x1="624.8" y1="581.5999999999999" x2="495.2" y2="452" stroke="#10B981" stroke-width="1" opacity="0.1381684604520671"/><line x1="624.8" y1="581.5999999999999" x2="452" y2="408.8" stroke="#10B981" stroke-width="1" opacity="0.05089128060275616"/><line x1="581.5999999999999" y1="538.4" x2="538.4" y2="495.2" stroke="#10B981" stroke-width="1" opacity="0.3127228201506891"/><line x1="581.5999999999999" y1="538.4" x2="495.2" y2="452" stroke="#10B981" stroke-width="1" opacity="0.2254456403013781"/><line x1="581.5999999999999" y1="538.4" x2="452" y2="408.8" stroke="#10B981" stroke-width="1" opacity="0.1381684604520671"/><line x1="581.5999999999999" y1="538.4" x2="408.8" y2="365.6" stroke="#10B981" stroke-width="1" opacity="0.05089128060275616"/><line x1="538.4" y1="495.2" x2="495.2" y2="452" stroke="#10B981" stroke-width="1" opacity="0.31272282015068903"/><line x1="538.4" y1="495.2" x2="452" y2="408.8" stroke="#10B981" stroke-width="1" opacity="0.22544564030137804"/><line x1="538.4" y1="495.2" x2="408.8" y2="365.6" stroke="#10B981" stroke-width="1" opacity="0.13816846045206704"/><line x1="495.2" y1="452" x2="452" y2="408.8" stroke="#10B981" stroke-width="1" opacity="0.31272282015068903"/><line x1="495.2" y1="452" x2="408.8" y2="365.6" stroke="#10B981" stroke-width="1" opacity="0.22544564030137804"/><line x1="452" y1="408.8" x2="408.8" y2="365.6" stroke="#10B981" stroke-width="1" opacity="0.31272282015068903"/><circle cx="656.8" cy="613.6" r="6" fill="#F59E0B" opacity="0.8"/><circle cx="613.6" cy="570.4000000000001" r="6" fill="#F59E0B" opacity="0.8"/><circle cx="570.4000000000001" cy="527.2" r="6" fill="#F59E0B" opacity="0.8"/><circle cx="527.2" cy="484" r="6" fill="#F59E0B" opacity="0.8"/><circle cx="484" cy="440.79999999999995" r="6" fill="#F59E0B" opacity="0.8"/><circle cx="440.79999999999995" cy="397.6" r="6" fill="#F59E0B" opacity="0.8"/><circle cx="397.6" cy="354.4" r="6" fill="#F59E0B" opacity="0.8"/><circle cx="354.4" cy="311.2" r="6" fill="#F59E0B" opacity="0.8"/><circle cx="311.2" cy="668" r="6" fill="#F59E0B" opacity="0.8"/><circle cx="668" cy="624.8" r="6" fill="#F59E0B" opacity="0.8"/><circle cx="624.8" cy="581.5999999999999" r="6" fill="#F59E0B" opacity="0.8"/><circle cx="581.5999999999999" cy="538.4" r="6" fill="#F59E0B" opacity="0.8"/><circle cx="538.4" cy="495.2" r="6" fill="#F59E0B" opacity="0.8"/><circle cx="495.2" cy="452" r="6" fill="#F59E0B" opacity="0.8"/><circle cx="452" cy="408.8" r="6" fill="#F59E0B" opacity="0.8"/><circle cx="408.8" cy="365.6" r="6" fill="#F59E0B" opacity="0.8"/>
    <text x="500" y="960" font-family="system-ui, sans-serif" font-size="36" font-weight="700" fill="white" text-anchor="middle" opacity="0.85">security alt</text>
  </svg>