<svg xmlns="http://www.w3.org/2000/svg" viewBox="0 0 1000 1000" width="1000" height="1000">
    <defs>
      <linearGradient id="g521" x1="0" y1="0" x2="1" y2="1">
        <stop offset="0%" stop-color="#8B5CF6"/>
        <stop offset="100%" stop-color="#6366F1"/>
      </linearGradient>
      <radialGradient id="glow521" cx="50%" cy="50%" r="60%">
        <stop offset="0%" stop-color="#C4B5FD" stop-opacity="0.2"/>
        <stop offset="100%" stop-color="#C4B5FD" stop-opacity="0"/>
      </radialGradient>
    </defs>
    <rect width="1000" height="1000" fill="#0F172A"/>
    <rect width="1000" height="1000" fill="url(#glow521)"/>
    <circle cx="177.43361014140783" cy="634.8001637001778" r="4.4879999999999995" fill="#06B6D4" opacity="0.7487999999999999"/><circle cx="587.4096562429769" cy="411.48496175516493" r="7.984" fill="#8B5CF6" opacity="0.411"/><circle cx="388.1114056432502" cy="777.4915898777307" r="3.48" fill="#6366F1" opacity="0.6732"/><circle cx="499.07011304863187" cy="426.0058427289176" r="6.976" fill="#06B6D4" opacity="0.3354"/><circle cx="598.8103951899334" cy="728.3373508701745" r="2.472" fill="#6366F1" opacity="0.5975999999999999"/><circle cx="483.0007070126454" cy="483.6297819828178" r="5.968" fill="#8B5CF6" opacity="0.8597999999999999"/><circle cx="684.922908711709" cy="571.8754327541818" r="9.464" fill="#06B6D4" opacity="0.522"/><circle cx="126.91786055947244" cy="509.3785516194537" r="4.96" fill="#8B5CF6" opacity="0.7842"/><circle cx="635.0783549357184" cy="439.51993693902034" r="8.456" fill="#6366F1" opacity="0.4464"/><circle cx="279.02819420621927" cy="735.3110729316317" r="3.952" fill="#06B6D4" opacity="0.7086"/><circle cx="534.2121496506669" cy="408.59273105337644" r="7.448" fill="#6366F1" opacity="0.37079999999999996"/><circle cx="510.2668057592902" cy="772.2064523472966" r="2.944" fill="#8B5CF6" opacity="0.633"/><circle cx="480.17195361896273" cy="457.1667351616593" r="6.44" fill="#06B6D4" opacity="0.8952"/><circle cx="663.7279120535146" cy="649.9238834028674" r="9.936" fill="#8B5CF6" opacity="0.5573999999999999"/><circle cx="126.65851087896334" cy="365.58879324666833" r="5.432" fill="#6366F1" opacity="0.8195999999999999"/><circle cx="671.3832617535926" cy="491.37807500035143" r="8.928" fill="#06B6D4" opacity="0.4818"/><circle cx="187.5007964748546" cy="649.4563742238843" r="4.4239999999999995" fill="#6366F1" opacity="0.744"/><circle cx="580.7206383330313" cy="409.5919331745891" r="7.92" fill="#8B5CF6" opacity="0.4062"/><circle cx="403.24114322213705" cy="779.7386702532223" r="3.416" fill="#06B6D4" opacity="0.6684"/><circle cx="495.55443121732463" cy="429.33970762727836" r="6.912" fill="#8B5CF6" opacity="0.3306"/><circle cx="608.7414215431543" cy="720.2150386344539" r="2.408" fill="#6366F1" opacity="0.5928"/><circle cx="484.61327183298346" cy="486.60565058263967" r="5.904" fill="#06B6D4" opacity="0.855"/><circle cx="685.2635675021055" cy="561.4853686367155" r="9.4" fill="#6366F1" opacity="0.5172"/><circle cx="131.05120690357285" cy="527.8709180453352" r="4.896" fill="#8B5CF6" opacity="0.7794"/><circle cx="629.0177447024756" cy="434.2621756377136" r="8.392" fill="#06B6D4" opacity="0.4416"/><circle cx="293.2009146824057" cy="743.6766265192589" r="3.888" fill="#8B5CF6" opacity="0.7038"/><circle cx="528.6065294533339" cy="410.03875016077455" r="7.384" fill="#6366F1" opacity="0.366"/><circle cx="523.64954211146" cy="768.1591675813421" r="2.88" fill="#06B6D4" opacity="0.6282"/><circle cx="479.53335256459184" cy="461.049822301372" r="6.376" fill="#6366F1" opacity="0.8903999999999999"/><circle cx="668.5882975193426" cy="639.4683689570134" r="9.872" fill="#8B5CF6" opacity="0.5526"/><circle cx="123.43813650644432" cy="385.44816473639213" r="5.368" fill="#06B6D4" opacity="0.8148"/><circle cx="667.549751259651" cy="483.0990872190554" r="8.864" fill="#8B5CF6" opacity="0.477"/><circle cx="198.21864234260113" cy="663.4449514988368" r="4.359999999999999" fill="#6366F1" opacity="0.7392"/><circle cx="574.0675806323026" cy="408.1414484150912" r="7.856" fill="#06B6D4" opacity="0.4014"/><circle cx="418.3114041517137" cy="781.1739911662089" r="3.3520000000000003" fill="#6366F1" opacity="0.6636"/><circle cx="492.3709083825526" cy="432.8318754088474" r="6.848" fill="#8B5CF6" opacity="0.3258"/><circle cx="618.1094304758205" cy="711.6788190459247" r="2.344" fill="#06B6D4" opacity="0.588"/><circle cx="486.4758389672501" cy="489.37281465484625" r="5.84" fill="#8B5CF6" opacity="0.8502000000000001"/><circle cx="685.0349462316818" cy="551.2451819495121" r="9.336" fill="#6366F1" opacity="0.5124"/><circle cx="136.09232755784956" cy="545.9722300713869" r="4.832" fill="#06B6D4" opacity="0.7746"/><circle cx="622.7772112848918" cy="429.45698908392814" r="8.328" fill="#6366F1" opacity="0.43679999999999997"/><circle cx="307.6508538094269" cy="751.2185621321752" r="3.824" fill="#8B5CF6" opacity="0.6990000000000001"/><circle cx="523.2350901823245" cy="411.80946431606594" r="7.32" fill="#06B6D4" opacity="0.36119999999999997"/><circle cx="536.6522173221138" cy="763.4627392353093" r="2.816" fill="#8B5CF6" opacity="0.6234"/><circle cx="479.2311102373849" cy="464.8817252982391" r="6.312" fill="#6366F1" opacity="0.8855999999999999"/><circle cx="672.817841938161" cy="628.9083143472011" r="9.808" fill="#06B6D4" opacity="0.5478"/><circle cx="121.26257673026271" cy="405.2892602974729" r="5.304" fill="#6366F1" opacity="0.81"/><circle cx="663.3252682307034" cy="475.18273267725084" r="8.8" fill="#8B5CF6" opacity="0.47219999999999995"/><circle cx="209.5456732222397" cy="676.7378964910413" r="4.295999999999999" fill="#06B6D4" opacity="0.7343999999999999"/><circle cx="567.4777469631758" cy="407.12484904575604" r="7.792" fill="#8B5CF6" opacity="0.3966"/><circle cx="433.27922203445945" cy="781.8093287804238" r="3.2880000000000003" fill="#6366F1" opacity="0.6587999999999999"/><circle cx="489.52616656144943" cy="436.4574251930133" r="6.784" fill="#06B6D4" opacity="0.321"/><circle cx="626.8982752861708" cy="702.7645623115519" r="2.2800000000000002" fill="#6366F1" opacity="0.5831999999999999"/><circle cx="488.5712504899594" cy="491.91398215208824" r="5.776" fill="#8B5CF6" opacity="0.8453999999999999"/><circle cx="684.2530846540355" cy="541.1854439756672" r="9.272" fill="#06B6D4" opacity="0.5075999999999999"/><circle cx="142.0124079651809" cy="563.6383842434104" r="4.768" fill="#8B5CF6" opacity="0.7698"/><circle cx="616.3867301900666" cy="425.1088187056404" r="8.264" fill="#6366F1" opacity="0.432"/><circle cx="322.33136513349996" cy="757.9304095772235" r="3.76" fill="#06B6D4" opacity="0.6941999999999999"/><circle cx="518.1159095717496" cy="413.88488041935847" r="7.256" fill="#6366F1" opacity="0.3564"/><circle cx="549.2438094731285" cy="758.1450894914994" r="2.752" fill="#8B5CF6" opacity="0.6186"/><circle cx="479.25811526437104" cy="468.6386508961448" r="6.248" fill="#06B6D4" opacity="0.8808"/><circle cx="676.4185689891906" cy="618.2803809420911" r="9.744" fill="#8B5CF6" opacity="0.5429999999999999"/><circle cx="120.12175164594106" cy="425.05764597070686" r="5.24" fill="#6366F1" opacity="0.8051999999999999"/><circle cx="658.736518486248" cy="467.646983156666" r="8.736" fill="#06B6D4" opacity="0.46740000000000004"/><circle cx="221.43926258432754" cy="689.3096816605976" r="4.232" fill="#6366F1" opacity="0.7296"/><circle cx="560.9776090955444" cy="406.5318707312969" r="7.728" fill="#8B5CF6" opacity="0.3918"/><circle cx="448.10266929718784" cy="781.6587067106624" r="3.224" fill="#06B6D4" opacity="0.6539999999999999"/><circle cx="487.02516487277023" cy="440.19119083762655" r="6.72" fill="#8B5CF6" opacity="0.3162"/><circle cx="635.0939816403235" cy="693.5086978008068" r="2.216" fill="#6366F1" opacity="0.5784"/><circle cx="490.88125840457826" cy="494.21307061422687" r="5.712" fill="#06B6D4" opacity="0.8406"/><circle cx="682.9356368596541" cy="531.3354873386834" r="9.208" fill="#6366F1" opacity="0.5028"/><circle cx="148.78051504771753" cy="580.8271822461569" r="4.704000000000001" fill="#8B5CF6" opacity="0.7649999999999999"/><circle cx="609.8762510313543" cy="421.22024714880854" r="8.2" fill="#06B6D4" opacity="0.42719999999999997"/><circle cx="337.1958647119983" cy="763.8082893563544" r="3.6959999999999997" fill="#8B5CF6" opacity="0.6894"/><circle cx="513.2656426354116" cy="416.24402871753233" r="7.192" fill="#6366F1" opacity="0.35159999999999997"/><circle cx="561.395139627359" cy="752.2355978646494" r="2.6879999999999997" fill="#06B6D4" opacity="0.6138"/><circle cx="479.6057253864596" cy="472.2974087315374" r="6.184" fill="#6366F1" opacity="0.8759999999999999"/><circle cx="679.394576475712" cy="607.6207504670912" r="9.68" fill="#8B5CF6" opacity="0.5382"/><circle cx="120.00277045658203" cy="444.6998594999351" r="5.176" fill="#06B6D4" opacity="0.8004"/><circle cx="653.8110059872266" cy="460.50804591822094" r="8.672" fill="#8B5CF6" opacity="0.4626"/><circle cx="233.85577496993272" cy="701.1372951074586" r="4.168" fill="#6366F1" opacity="0.7247999999999999"/><circle cx="554.5927550573165" cy="406.3507015762966" r="7.664" fill="#06B6D4" opacity="0.387"/><circle cx="462.7409735050656" cy="780.7383211188842" r="3.16" fill="#6366F1" opacity="0.6492"/><circle cx="484.87119263518593" cy="444.00786494767016" r="6.656" fill="#8B5CF6" opacity="0.3114"/><circle cx="642.684762090413" cy="683.9480868810607" r="2.152" fill="#06B6D4" opacity="0.5736"/><circle cx="493.3866034645116" cy="496.255272204233" r="5.648" fill="#8B5CF6" opacity="0.8357999999999999"/><circle cx="681.1017870735341" cy="521.7233220013043" r="9.144" fill="#6366F1" opacity="0.498"/><circle cx="156.3637157094501" cy="597.4984313667885" r="4.640000000000001" fill="#06B6D4" opacity="0.7602"/><circle cx="603.2755869961096" cy="417.79201297556915" r="8.136" fill="#6366F1" opacity="0.4224"/><circle cx="352.1979727855937" cy="768.8508894374573" r="3.6319999999999997" fill="#8B5CF6" opacity="0.6846"/><circle cx="508.69947018886126" cy="418.86505550360494" r="7.128" fill="#06B6D4" opacity="0.3468"/><circle cx="573.0789388973019" cy="745.7649867040551" r="2.624" fill="#8B5CF6" opacity="0.609"/><circle cx="480.2638109483105" cy="475.8355045217995" r="6.12" fill="#6366F1" opacity="0.8712"/><circle cx="681.7519926456004" cy="596.9650100260585" r="9.616" fill="#06B6D4" opacity="0.5334"/><circle cx="120.89000387914717" cy="464.16355428830985" r="5.112" fill="#6366F1" opacity="0.7955999999999999"/><circle cx="648.5769231625776" cy="453.78032990661336" r="8.608" fill="#8B5CF6" opacity="0.4578"/><circle cx="246.75071055019086" cy="712.2002766095435" r="4.104" fill="#06B6D4" opacity="0.72"/><circle cx="548.3478013373805" cy="406.5680455848151" r="7.6" fill="#8B5CF6" opacity="0.3822"/><circle cx="477.1546287609159" cy="779.0664598495284" r="3.096" fill="#6366F1" opacity="0.6444"/><circle cx="483.0658687082529" cy="447.88210290702557" r="6.592" fill="#06B6D4" opacity="0.3066"/>
    <text x="500" y="960" font-family="system-ui, sans-serif" font-size="36" font-weight="700" fill="white" text-anchor="middle" opacity="0.85">sleep alt</text>
  </svg>