<svg xmlns="http://www.w3.org/2000/svg" viewBox="0 0 1000 1000" width="1000" height="1000">
    <defs>
      <linearGradient id="g522" x1="0" y1="0" x2="1" y2="1">
        <stop offset="0%" stop-color="#6366F1"/>
        <stop offset="100%" stop-color="#8B5CF6"/>
      </linearGradient>
      <radialGradient id="glow522" cx="50%" cy="50%" r="60%">
        <stop offset="0%" stop-color="#A78BFA" stop-opacity="0.2"/>
        <stop offset="100%" stop-color="#A78BFA" stop-opacity="0"/>
      </radialGradient>
    </defs>
    <rect width="1000" height="1000" fill="#030712"/>
    <rect width="1000" height="1000" fill="url(#glow522)"/>
    <line x1="672.8" y1="645.6" x2="645.6" y2="618.4000000000001" stroke="#6366F1" stroke-width="1" opacity="0.3450477015763599"/><line x1="672.8" y1="645.6" x2="618.4000000000001" y2="591.2" stroke="#6366F1" stroke-width="1" opacity="0.29009540315271964"/><line x1="672.8" y1="645.6" x2="591.2" y2="564" stroke="#6366F1" stroke-width="1" opacity="0.23514310472907932"/><line x1="672.8" y1="645.6" x2="564" y2="536.8" stroke="#6366F1" stroke-width="1" opacity="0.18019080630543896"/><line x1="672.8" y1="645.6" x2="536.8" y2="509.6" stroke="#6366F1" stroke-width="1" opacity="0.1252385078817987"/><line x1="672.8" y1="645.6" x2="509.6" y2="482.4" stroke="#6366F1" stroke-width="1" opacity="0.07028620945815844"/><line x1="672.8" y1="645.6" x2="482.4" y2="455.20000000000005" stroke="#6366F1" stroke-width="1" opacity="0.0153339110345182"/><line x1="672.8" y1="645.6" x2="692" y2="664.8" stroke="#6366F1" stroke-width="1" opacity="0.3612101422891951"/><line x1="672.8" y1="645.6" x2="664.8" y2="637.5999999999999" stroke="#6366F1" stroke-width="1" opacity="0.3838375592871645"/><line x1="645.6" y1="618.4000000000001" x2="618.4000000000001" y2="591.2" stroke="#6366F1" stroke-width="1" opacity="0.3450477015763598"/><line x1="645.6" y1="618.4000000000001" x2="591.2" y2="564" stroke="#6366F1" stroke-width="1" opacity="0.2900954031527194"/><line x1="645.6" y1="618.4000000000001" x2="564" y2="536.8" stroke="#6366F1" stroke-width="1" opacity="0.23514310472907907"/><line x1="645.6" y1="618.4000000000001" x2="536.8" y2="509.6" stroke="#6366F1" stroke-width="1" opacity="0.18019080630543882"/><line x1="645.6" y1="618.4000000000001" x2="509.6" y2="482.4" stroke="#6366F1" stroke-width="1" opacity="0.12523850788179858"/><line x1="645.6" y1="618.4000000000001" x2="482.4" y2="455.20000000000005" stroke="#6366F1" stroke-width="1" opacity="0.07028620945815833"/><line x1="645.6" y1="618.4000000000001" x2="455.20000000000005" y2="428" stroke="#6366F1" stroke-width="1" opacity="0.015333911034518088"/><line x1="645.6" y1="618.4000000000001" x2="692" y2="664.8" stroke="#6366F1" stroke-width="1" opacity="0.30625784386555505"/><line x1="645.6" y1="618.4000000000001" x2="664.8" y2="637.5999999999999" stroke="#6366F1" stroke-width="1" opacity="0.3612101422891954"/><line x1="618.4000000000001" y1="591.2" x2="591.2" y2="564" stroke="#6366F1" stroke-width="1" opacity="0.34504770157635967"/><line x1="618.4000000000001" y1="591.2" x2="564" y2="536.8" stroke="#6366F1" stroke-width="1" opacity="0.2900954031527193"/><line x1="618.4000000000001" y1="591.2" x2="536.8" y2="509.6" stroke="#6366F1" stroke-width="1" opacity="0.23514310472907907"/><line x1="618.4000000000001" y1="591.2" x2="509.6" y2="482.4" stroke="#6366F1" stroke-width="1" opacity="0.18019080630543882"/><line x1="618.4000000000001" y1="591.2" x2="482.4" y2="455.20000000000005" stroke="#6366F1" stroke-width="1" opacity="0.12523850788179858"/><line x1="618.4000000000001" y1="591.2" x2="455.20000000000005" y2="428" stroke="#6366F1" stroke-width="1" opacity="0.07028620945815833"/><line x1="618.4000000000001" y1="591.2" x2="428" y2="400.8" stroke="#6366F1" stroke-width="1" opacity="0.015333911034518033"/><line x1="618.4000000000001" y1="591.2" x2="692" y2="664.8" stroke="#6366F1" stroke-width="1" opacity="0.2513055454419148"/><line x1="618.4000000000001" y1="591.2" x2="664.8" y2="637.5999999999999" stroke="#6366F1" stroke-width="1" opacity="0.30625784386555516"/><line x1="591.2" y1="564" x2="564" y2="536.8" stroke="#6366F1" stroke-width="1" opacity="0.34504770157635967"/><line x1="591.2" y1="564" x2="536.8" y2="509.6" stroke="#6366F1" stroke-width="1" opacity="0.2900954031527194"/><line x1="591.2" y1="564" x2="509.6" y2="482.4" stroke="#6366F1" stroke-width="1" opacity="0.23514310472907918"/><line x1="591.2" y1="564" x2="482.4" y2="455.20000000000005" stroke="#6366F1" stroke-width="1" opacity="0.18019080630543896"/><line x1="591.2" y1="564" x2="455.20000000000005" y2="428" stroke="#6366F1" stroke-width="1" opacity="0.1252385078817987"/><line x1="591.2" y1="564" x2="428" y2="400.8" stroke="#6366F1" stroke-width="1" opacity="0.07028620945815839"/><line x1="591.2" y1="564" x2="400.8" y2="373.6" stroke="#6366F1" stroke-width="1" opacity="0.015333911034518088"/><line x1="591.2" y1="564" x2="692" y2="664.8" stroke="#6366F1" stroke-width="1" opacity="0.19635324701827442"/><line x1="591.2" y1="564" x2="664.8" y2="637.5999999999999" stroke="#6366F1" stroke-width="1" opacity="0.2513055454419148"/><line x1="564" y1="536.8" x2="536.8" y2="509.6" stroke="#6366F1" stroke-width="1" opacity="0.3450477015763598"/><line x1="564" y1="536.8" x2="509.6" y2="482.4" stroke="#6366F1" stroke-width="1" opacity="0.29009540315271953"/><line x1="564" y1="536.8" x2="482.4" y2="455.20000000000005" stroke="#6366F1" stroke-width="1" opacity="0.23514310472907932"/><line x1="564" y1="536.8" x2="455.20000000000005" y2="428" stroke="#6366F1" stroke-width="1" opacity="0.18019080630543907"/><line x1="564" y1="536.8" x2="428" y2="400.8" stroke="#6366F1" stroke-width="1" opacity="0.12523850788179874"/><line x1="564" y1="536.8" x2="400.8" y2="373.6" stroke="#6366F1" stroke-width="1" opacity="0.0702862094581585"/><line x1="564" y1="536.8" x2="373.6" y2="346.4" stroke="#6366F1" stroke-width="1" opacity="0.0153339110345182"/><line x1="564" y1="536.8" x2="692" y2="664.8" stroke="#6366F1" stroke-width="1" opacity="0.14140094859463403"/><line x1="564" y1="536.8" x2="664.8" y2="637.5999999999999" stroke="#6366F1" stroke-width="1" opacity="0.19635324701827442"/><line x1="536.8" y1="509.6" x2="509.6" y2="482.4" stroke="#6366F1" stroke-width="1" opacity="0.3450477015763598"/><line x1="536.8" y1="509.6" x2="482.4" y2="455.20000000000005" stroke="#6366F1" stroke-width="1" opacity="0.29009540315271953"/><line x1="536.8" y1="509.6" x2="455.20000000000005" y2="428" stroke="#6366F1" stroke-width="1" opacity="0.23514310472907932"/><line x1="536.8" y1="509.6" x2="428" y2="400.8" stroke="#6366F1" stroke-width="1" opacity="0.180190806305439"/><line x1="536.8" y1="509.6" x2="400.8" y2="373.6" stroke="#6366F1" stroke-width="1" opacity="0.12523850788179874"/><line x1="536.8" y1="509.6" x2="373.6" y2="346.4" stroke="#6366F1" stroke-width="1" opacity="0.07028620945815844"/><line x1="536.8" y1="509.6" x2="346.4" y2="319.2" stroke="#6366F1" stroke-width="1" opacity="0.015333911034518088"/><line x1="536.8" y1="509.6" x2="692" y2="664.8" stroke="#6366F1" stroke-width="1" opacity="0.08644865017099379"/><line x1="536.8" y1="509.6" x2="664.8" y2="637.5999999999999" stroke="#6366F1" stroke-width="1" opacity="0.1414009485946342"/><line x1="509.6" y1="482.4" x2="482.4" y2="455.20000000000005" stroke="#6366F1" stroke-width="1" opacity="0.3450477015763598"/><line x1="509.6" y1="482.4" x2="455.20000000000005" y2="428" stroke="#6366F1" stroke-width="1" opacity="0.29009540315271953"/><line x1="509.6" y1="482.4" x2="428" y2="400.8" stroke="#6366F1" stroke-width="1" opacity="0.23514310472907923"/><line x1="509.6" y1="482.4" x2="400.8" y2="373.6" stroke="#6366F1" stroke-width="1" opacity="0.180190806305439"/><line x1="509.6" y1="482.4" x2="373.6" y2="346.4" stroke="#6366F1" stroke-width="1" opacity="0.1252385078817987"/><line x1="509.6" y1="482.4" x2="346.4" y2="319.2" stroke="#6366F1" stroke-width="1" opacity="0.07028620945815839"/><line x1="509.6" y1="482.4" x2="692" y2="664.8" stroke="#6366F1" stroke-width="1" opacity="0.031496351747353546"/><line x1="509.6" y1="482.4" x2="664.8" y2="637.5999999999999" stroke="#6366F1" stroke-width="1" opacity="0.08644865017099396"/><line x1="482.4" y1="455.20000000000005" x2="455.20000000000005" y2="428" stroke="#6366F1" stroke-width="1" opacity="0.3450477015763598"/><line x1="482.4" y1="455.20000000000005" x2="428" y2="400.8" stroke="#6366F1" stroke-width="1" opacity="0.2900954031527195"/><line x1="482.4" y1="455.20000000000005" x2="400.8" y2="373.6" stroke="#6366F1" stroke-width="1" opacity="0.23514310472907923"/><line x1="482.4" y1="455.20000000000005" x2="373.6" y2="346.4" stroke="#6366F1" stroke-width="1" opacity="0.18019080630543896"/><line x1="482.4" y1="455.20000000000005" x2="346.4" y2="319.2" stroke="#6366F1" stroke-width="1" opacity="0.12523850788179863"/><line x1="482.4" y1="455.20000000000005" x2="664.8" y2="637.5999999999999" stroke="#6366F1" stroke-width="1" opacity="0.03149635174735371"/><line x1="455.20000000000005" y1="428" x2="428" y2="400.8" stroke="#6366F1" stroke-width="1" opacity="0.3450477015763597"/><line x1="455.20000000000005" y1="428" x2="400.8" y2="373.6" stroke="#6366F1" stroke-width="1" opacity="0.2900954031527195"/><line x1="455.20000000000005" y1="428" x2="373.6" y2="346.4" stroke="#6366F1" stroke-width="1" opacity="0.23514310472907918"/><line x1="455.20000000000005" y1="428" x2="346.4" y2="319.2" stroke="#6366F1" stroke-width="1" opacity="0.18019080630543888"/><line x1="428" y1="400.8" x2="400.8" y2="373.6" stroke="#6366F1" stroke-width="1" opacity="0.3450477015763598"/><line x1="428" y1="400.8" x2="373.6" y2="346.4" stroke="#6366F1" stroke-width="1" opacity="0.2900954031527195"/><line x1="428" y1="400.8" x2="346.4" y2="319.2" stroke="#6366F1" stroke-width="1" opacity="0.23514310472907918"/><line x1="400.8" y1="373.6" x2="373.6" y2="346.4" stroke="#6366F1" stroke-width="1" opacity="0.3450477015763597"/><line x1="400.8" y1="373.6" x2="346.4" y2="319.2" stroke="#6366F1" stroke-width="1" opacity="0.2900954031527194"/><line x1="373.6" y1="346.4" x2="346.4" y2="319.2" stroke="#6366F1" stroke-width="1" opacity="0.3450477015763597"/><line x1="692" y1="664.8" x2="664.8" y2="637.5999999999999" stroke="#6366F1" stroke-width="1" opacity="0.34504770157635967"/><circle cx="672.8" cy="645.6" r="6" fill="#06B6D4" opacity="0.8"/><circle cx="645.6" cy="618.4000000000001" r="6" fill="#06B6D4" opacity="0.8"/><circle cx="618.4000000000001" cy="591.2" r="6" fill="#06B6D4" opacity="0.8"/><circle cx="591.2" cy="564" r="6" fill="#06B6D4" opacity="0.8"/><circle cx="564" cy="536.8" r="6" fill="#06B6D4" opacity="0.8"/><circle cx="536.8" cy="509.6" r="6" fill="#06B6D4" opacity="0.8"/><circle cx="509.6" cy="482.4" r="6" fill="#06B6D4" opacity="0.8"/><circle cx="482.4" cy="455.20000000000005" r="6" fill="#06B6D4" opacity="0.8"/><circle cx="455.20000000000005" cy="428" r="6" fill="#06B6D4" opacity="0.8"/><circle cx="428" cy="400.8" r="6" fill="#06B6D4" opacity="0.8"/><circle cx="400.8" cy="373.6" r="6" fill="#06B6D4" opacity="0.8"/><circle cx="373.6" cy="346.4" r="6" fill="#06B6D4" opacity="0.8"/><circle cx="346.4" cy="319.2" r="6" fill="#06B6D4" opacity="0.8"/><circle cx="319.2" cy="692" r="6" fill="#06B6D4" opacity="0.8"/><circle cx="692" cy="664.8" r="6" fill="#06B6D4" opacity="0.8"/><circle cx="664.8" cy="637.5999999999999" r="6" fill="#06B6D4" opacity="0.8"/>
    <text x="500" y="960" font-family="system-ui, sans-serif" font-size="36" font-weight="700" fill="white" text-anchor="middle" opacity="0.85">breath alt</text>
  </svg>