<svg xmlns="http://www.w3.org/2000/svg" viewBox="0 0 1000 1000" width="1000" height="1000">
    <defs>
      <linearGradient id="g525" x1="0" y1="0" x2="1" y2="1">
        <stop offset="0%" stop-color="#F59E0B"/>
        <stop offset="100%" stop-color="#EF4444"/>
      </linearGradient>
      <radialGradient id="glow525" cx="50%" cy="50%" r="60%">
        <stop offset="0%" stop-color="#FCD34D" stop-opacity="0.2"/>
        <stop offset="100%" stop-color="#FCD34D" stop-opacity="0"/>
      </radialGradient>
    </defs>
    <rect width="1000" height="1000" fill="#030712"/>
    <rect width="1000" height="1000" fill="url(#glow525)"/>
    <path d="M 0 500 L 0 352.3318421466458 L 16.666666666666668 367.7006103246348 L 33.333333333333336 396.0197812915142 L 50 434.51723658592135 L 66.66666666666667 479.42463196262014 L 83.33333333333333 526.346054140072 L 100 570.6885743158798 L 116.66666666666667 608.1115739406347 L 133.33333333333334 634.95188244379 L 150 648.5821448509615 L 166.66666666666666 647.6681555501074 L 183.33333333333331 632.299383495575 L 200 603.9802092570703 L 216.66666666666669 565.4827516162106 L 233.33333333333334 520.5753904726596 L 250 473.65393295036694 L 266.6666666666667 429.31144566077137 L 283.3333333333333 391.88841696912516 L 300 365.04812744383037 L 316.66666666666663 351.41785335028226 L 333.3333333333333 352.33184047174717 L 350 367.7006226842164 L 366.66666666666663 396.0197744185348 L 383.33333333333337 434.51726018165795 L 400 479.42462251680456 L 416.6666666666667 526.3460799591938 L 433.33333333333337 570.6885659052087 L 450 608.1115921211141 L 466.6666666666667 634.9518782808542 L 483.3333333333333 648.5821435429223 L 500 647.6681572250068 L 516.6666666666667 632.2993879894601 L 533.3333333333334 603.9802161300504 L 550 565.4827601955087 L 566.6666666666666 520.5753644937312 L 583.3333333333334 473.6539423380776 L 600 429.3114225288117 L 616.6666666666667 391.88842357946174 L 633.3333333333333 365.04811599446225 L 650 351.41785465832066 L 666.6666666666666 352.33184507824035 L 683.3333333333334 367.7006181903305 L 700 396.01976754555574 L 716.6666666666666 434.51725160235947 L 733.3333333333333 479.42461307098904 L 750 526.3460705714833 L 766.6666666666667 570.6885574945375 L 783.3333333333334 608.1115855107781 L 800 634.9518741179178 L 816.6666666666666 648.5821471404353 L 833.3333333333334 647.6681588999056 L 850 632.2993756298779 L 866.6666666666667 603.98022300303 L 883.3333333333333 565.4827365997719 L 900 520.5753739395468 L 916.6666666666666 473.6539517257884 L 933.3333333333334 429.31143093948265 L 950 391.8884301897988 L 966.6666666666666 365.0481201573979 L 983.3333333333333 351.41785596635975 L 1000 352.33184340334066" stroke="#F59E0B" stroke-width="3" fill="none" opacity="0.7"/><path d="M 0 500 L 0 567.5640435258052 L 16.666666666666668 592.4451129234773 L 33.333333333333336 614.4336191688005 L 50 632.0310961299692 L 66.66666666666667 644.0382734414085 L 83.33333333333333 649.6369003702038 L 100 648.4454398949509 L 116.66666666666667 640.5450779260848 L 133.33333333333334 626.4742251691562 L 150 607.1917824176968 L 166.66666666666666 584.0118157572581 L 183.33333333333331 558.5140009812709 L 200 532.4359478678209 L 216.66666666666669 507.55487916081984 L 233.33333333333334 485.5663741456095 L 250 467.96891250574964 L 266.6666666666667 455.961723585185 L 283.3333333333333 450.36309888547964 L 300 451.5545616405463 L 316.66666666666663 459.4549156648803 L 333.3333333333333 473.5257651016369 L 350 492.8082247536895 L 366.66666666666663 515.9881924638291 L 383.33333333333337 541.486007729264 L 400 567.5640372673315 L 416.6666666666667 592.4451071672528 L 433.33333333333337 614.4336325399801 L 450 632.0310924941152 L 466.6666666666667 644.038271279175 L 483.3333333333333 649.6368998289432 L 500 648.4454368239557 L 516.6666666666667 640.5450806244495 L 533.3333333333334 626.4742292653966 L 550 607.1917876326609 L 566.6666666666666 584.0118217355548 L 583.3333333333334 558.5139835602013 L 600 532.4359541262945 L 616.6666666666667 507.5548849170441 L 633.3333333333333 485.5663790073073 L 650 467.9689025060206 L 666.6666666666666 455.96172574741803 L 683.3333333333334 450.3630994267396 L 700 451.5545605239472 L 716.6666666666666 459.4549129665164 L 733.3333333333333 473.52577636757053 L 750 492.80821953872515 L 766.6666666666667 515.9881864855322 L 783.3333333333334 541.4860013950454 L 800 567.5640544800792 L 816.6666666666666 592.4451229986587 L 833.3333333333334 614.4336276782826 L 850 632.0310888582608 L 866.6666666666667 644.038269116941 L 883.3333333333333 649.6369013175768 L 900 648.4454379405554 L 916.6666666666666 640.5450833228139 L 933.3333333333334 626.4742333616366 L 950 607.1917732898884 L 966.6666666666666 584.0118052933805 L 983.3333333333333 558.5139898944199 L 1000 532.4359603847684" stroke="#EF4444" stroke-width="2" fill="none" opacity="0.5"/>
    <text x="500" y="960" font-family="system-ui, sans-serif" font-size="36" font-weight="700" fill="white" text-anchor="middle" opacity="0.85">break alt</text>
  </svg>