<svg xmlns="http://www.w3.org/2000/svg" viewBox="0 0 1000 1000" width="1000" height="1000">
    <defs>
      <linearGradient id="g530" x1="0" y1="0" x2="1" y2="1">
        <stop offset="0%" stop-color="#10B981"/>
        <stop offset="100%" stop-color="#14B8A6"/>
      </linearGradient>
      <radialGradient id="glow530" cx="50%" cy="50%" r="60%">
        <stop offset="0%" stop-color="#6EE7B7" stop-opacity="0.2"/>
        <stop offset="100%" stop-color="#6EE7B7" stop-opacity="0"/>
      </radialGradient>
    </defs>
    <rect width="1000" height="1000" fill="#030712"/>
    <rect width="1000" height="1000" fill="url(#glow530)"/>
    <path d="M 0 500 L 0 354.4413831942792 L 16.666666666666668 372.76154023421395 L 33.333333333333336 403.5366849259743 L 50 443.7543315178105 L 66.66666666666667 489.47768741252423 L 83.33333333333333 536.2310489217671 L 100 579.4378627302287 L 116.66666666666667 614.868744629316 L 133.33333333333334 639.0554728458424 L 150 649.6304817724482 L 166.66666666666666 645.5586157978405 L 183.33333333333331 627.2384622908385 L 200 596.4633187253021 L 216.66666666666669 556.2456729022776 L 233.33333333333334 510.5223084250348 L 250 463.7689470290636 L 266.6666666666667 420.5621337302346 L 283.3333333333333 385.13125268725446 L 300 360.9445289420112 L 316.66666666666663 350.36951856201927 L 333.3333333333333 354.4413830505008 L 350 372.76153991897473 L 366.66666666666663 403.5366844701322 L 383.33333333333337 443.75433096598636 L 400 489.47768681873447 L 416.6666666666667 536.2310483441361 L 433.33333333333337 579.4378622252989 L 450 614.8687442465134 L 466.6666666666667 639.0554726226385 L 483.3333333333333 649.6304817306918 L 500 645.5586159416189 L 516.6666666666667 627.2384626060776 L 533.3333333333334 596.4633191811442 L 550 556.2456734541017 L 566.6666666666666 510.52230901882456 L 583.3333333333334 463.7689476066947 L 600 420.5621342351644 L 616.6666666666667 385.13125307005697 L 633.3333333333333 360.94452916521504 L 650 350.3695186037757 L 666.6666666666666 354.4413829067224 L 683.3333333333334 372.76153960373557 L 700 403.53668401428996 L 716.6666666666666 443.75433041416215 L 733.3333333333333 489.4776951436164 L 750 536.231047766505 L 766.6666666666667 579.437861720369 L 783.3333333333334 614.868743863711 L 800 639.0554723994346 L 816.6666666666666 649.6304816889353 L 833.3333333333334 645.5586160853973 L 850 627.2384581864511 L 866.6666666666667 596.4633196369865 L 883.3333333333333 556.2456740059259 L 900 510.5223096126143 L 916.6666666666666 463.7689481843258 L 933.3333333333334 420.5621347400943 L 950 385.1312534528595 L 966.6666666666666 360.944529388419 L 983.3333333333333 350.36951864553214 L 1000 354.44138276294404" stroke="#10B981" stroke-width="3" fill="none" opacity="0.7"/><path d="M 0 500 L 0 574.1540341567782 L 16.666666666666668 598.4465675104868 L 33.333333333333336 619.4375471673966 L 50 635.6964724739637 L 66.66666666666667 646.1153244783758 L 83.33333333333333 649.9840754888409 L 100 647.0390782543668 L 116.66666666666667 637.4810278355714 L 133.33333333333334 621.9612896091148 L 150 601.5375081460768 L 166.66666666666666 577.6015304782891 L 183.33333333333331 551.7845540180033 L 200 525.8459631437756 L 216.66666666666669 501.55343527022967 L 233.33333333333334 480.5624551200017 L 250 464.30352916423385 L 266.6666666666667 453.88467639898056 L 283.3333333333333 450.0159244615161 L 300 452.96092241755343 L 316.66666666666663 462.5189735121218 L 333.3333333333333 478.0387123225082 L 350 498.4624891299315 L 366.66666666666663 522.3984664665403 L 383.33333333333337 548.215442803852 L 400 574.1540337716908 L 416.6666666666667 598.4465671633294 L 433.33333333333337 619.4375468818272 L 450 635.6964722694436 L 466.6666666666667 646.1153243688426 L 483.3333333333333 649.9840754817591 L 500 647.039078350219 L 516.6666666666667 637.4810280278255 L 533.3333333333334 621.961289884669 L 550 601.5375084861525 L 566.6666666666666 577.6015308597107 L 583.3333333333334 551.7845544147774 L 600 525.845963528863 L 616.6666666666667 501.55343561738715 L 633.3333333333333 480.562455405571 L 650 464.30352936875397 L 666.6666666666666 453.88467650851373 L 683.3333333333334 450.01592446859786 L 700 452.96092232170116 L 716.6666666666666 462.51897331986765 L 733.3333333333333 478.03871204695406 L 750 498.4624887898558 L 766.6666666666667 522.3984660851187 L 783.3333333333334 548.2154424070777 L 800 574.1540333866034 L 816.6666666666666 598.4465668161719 L 833.3333333333334 619.4375465962579 L 850 635.6964720649235 L 866.6666666666667 646.1153242593094 L 883.3333333333333 649.9840755810451 L 900 647.0390784460712 L 916.6666666666666 637.4810282200796 L 933.3333333333334 621.9612901602231 L 950 601.5375088262282 L 966.6666666666666 577.6015312411322 L 983.3333333333333 551.7845548115517 L 1000 525.8459639139504" stroke="#14B8A6" stroke-width="2" fill="none" opacity="0.5"/>
    <text x="500" y="960" font-family="system-ui, sans-serif" font-size="36" font-weight="700" fill="white" text-anchor="middle" opacity="0.85">mood alt</text>
  </svg>