<svg xmlns="http://www.w3.org/2000/svg" viewBox="0 0 1000 1000" width="1000" height="1000">
    <defs>
      <linearGradient id="g531" x1="0" y1="0" x2="1" y2="1">
        <stop offset="0%" stop-color="#F59E0B"/>
        <stop offset="100%" stop-color="#EF4444"/>
      </linearGradient>
      <radialGradient id="glow531" cx="50%" cy="50%" r="60%">
        <stop offset="0%" stop-color="#FCD34D" stop-opacity="0.2"/>
        <stop offset="100%" stop-color="#FCD34D" stop-opacity="0"/>
      </radialGradient>
    </defs>
    <rect width="1000" height="1000" fill="#030712"/>
    <rect width="1000" height="1000" fill="url(#glow531)"/>
    <path d="M 0 500 L 0 352.95061012354427 L 16.666666666666668 369.29627689318664 L 33.333333333333336 398.4361344400386 L 50 437.51777114021127 L 66.66666666666667 482.7156037903474 L 83.33333333333333 529.6053530349508 L 100 573.5971245833065 L 116.66666666666667 610.3846967373754 L 133.33333333333334 636.3670453584981 L 150 649.0008377243487 L 166.66666666666666 647.0493898249097 L 183.33333333333331 630.7037232528438 L 200 601.5638653677703 L 216.66666666666669 562.4822291303665 L 233.33333333333334 517.2843965052981 L 250 470.39464670902106 L 266.6666666666667 426.40287567603417 L 283.3333333333333 389.6153034641463 L 300 363.6329545327139 L 316.66666666666663 350.99916230994677 L 333.3333333333333 352.95061011634766 L 350 369.29627687529637 L 366.66666666666663 398.4361344132058 L 383.33333333333337 437.51777110706263 L 400 482.7156037541277 L 416.6666666666667 529.6053529992055 L 433.33333333333337 573.5971245515345 L 450 610.384696712687 L 466.6666666666667 636.3670453433097 L 483.3333333333333 649.0008377201472 L 500 647.0493898321063 L 516.6666666666667 630.7037232707341 L 533.3333333333334 601.563865394603 L 550 562.4822286555083 L 566.6666666666666 517.2843965415178 L 583.3333333333334 470.3946467447664 L 600 426.4028752208968 L 616.6666666666667 389.6153034888348 L 633.3333333333333 363.6329545479023 L 650 350.99916231414835 L 666.6666666666666 352.9506101091511 L 683.3333333333334 369.29627685740604 L 700 398.43613438637306 L 716.6666666666666 437.517771073914 L 733.3333333333333 482.715603717908 L 750 529.6053529634601 L 766.6666666666667 573.5971245197625 L 783.3333333333334 610.3846966879983 L 800 636.3670453281213 L 816.6666666666666 649.0008377159456 L 833.3333333333334 647.0493898393029 L 850 630.7037232886244 L 866.6666666666667 601.5638654214358 L 883.3333333333333 562.482228688657 L 900 517.2843965777375 L 916.6666666666666 470.3946467805118 L 933.3333333333334 426.4028752526688 L 950 389.6153035135234 L 966.6666666666666 363.6329545630907 L 983.3333333333333 350.99916225396055 L 1000 352.95061010195457" stroke="#F59E0B" stroke-width="3" fill="none" opacity="0.7"/><path d="M 0 500 L 0 569.7369021205584 L 16.666666666666668 594.4371719215292 L 33.333333333333336 616.1091218957499 L 50 633.2758444689232 L 66.66666666666667 644.7674558685069 L 83.33333333333333 649.8008217693887 L 100 648.0329266038847 L 116.66666666666667 639.5842495057879 L 133.33333333333334 625.0305538565113 L 150 605.3636499621883 L 166.66666666666666 581.9238048204384 L 183.33333333333331 556.3084051394898 L 200 530.2630977087563 L 216.66666666666669 505.5628279224954 L 233.33333333333334 483.8908779736141 L 250 466.724155434683 L 266.6666666666667 455.23254407591054 L 283.3333333333333 450.1991782196278 L 300 451.96707343047933 L 316.66666666666663 460.41575057158184 L 333.3333333333333 474.96944625859146 L 350 494.6363501828035 L 366.66666666666663 518.0761953445615 L 383.33333333333337 543.6915950342737 L 400 569.7369020967282 L 416.6666666666667 594.4371718997527 L 433.33333333333337 616.1091218775113 L 450 633.2758444554652 L 466.6666666666667 644.7674558607466 L 483.3333333333333 649.8008217678552 L 500 648.0329266086824 L 516.6666666666667 639.5842495165898 L 533.3333333333334 625.0305538725814 L 550 605.3636499824314 L 566.6666666666666 581.9238044904386 L 583.3333333333334 556.3084047919627 L 600 530.2630977325864 L 616.6666666666667 505.56282794427193 L 633.3333333333333 483.89087799185285 L 650 466.724155448141 L 666.6666666666666 455.2325440836707 L 683.3333333333334 450.1991782211613 L 700 451.96707342568163 L 716.6666666666666 460.4157505607799 L 733.3333333333333 474.96944624252137 L 750 494.63635016256046 L 766.6666666666667 518.0761953215251 L 783.3333333333334 543.6915950100138 L 800 569.7369020728979 L 816.6666666666666 594.4371718779762 L 833.3333333333334 616.1091218592725 L 850 633.2758444420072 L 866.6666666666667 644.7674558529865 L 883.3333333333333 649.8008217663216 L 900 648.0329266134801 L 916.6666666666666 639.5842495273918 L 933.3333333333334 625.0305538886514 L 950 605.3636496924478 L 966.6666666666666 581.923804513475 L 983.3333333333333 556.3084048162227 L 1000 530.2630977564168" stroke="#EF4444" stroke-width="2" fill="none" opacity="0.5"/>
    <text x="500" y="960" font-family="system-ui, sans-serif" font-size="36" font-weight="700" fill="white" text-anchor="middle" opacity="0.85">journal alt</text>
  </svg>