<svg xmlns="http://www.w3.org/2000/svg" viewBox="0 0 1000 1000" width="1000" height="1000">
    <defs>
      <linearGradient id="g532" x1="0" y1="0" x2="1" y2="1">
        <stop offset="0%" stop-color="#EC4899"/>
        <stop offset="100%" stop-color="#F43F5E"/>
      </linearGradient>
      <radialGradient id="glow532" cx="50%" cy="50%" r="60%">
        <stop offset="0%" stop-color="#F9A8D4" stop-opacity="0.2"/>
        <stop offset="100%" stop-color="#F9A8D4" stop-opacity="0"/>
      </radialGradient>
    </defs>
    <rect width="1000" height="1000" fill="#030712"/>
    <rect width="1000" height="1000" fill="url(#glow532)"/>
    <rect x="7.5" y="381.75" width="35" height="236.5" fill="#F43F5E" opacity="0.6275999999999999" rx="4"/><rect x="57.5" y="313.5" width="35" height="373" fill="#EC4899" opacity="0.7913999999999999" rx="4"/><rect x="107.5" y="245.25" width="35" height="509.5" fill="#F43F5E" opacity="0.35519999999999996" rx="4"/><rect x="157.5" y="427" width="35" height="146" fill="#EC4899" opacity="0.519" rx="4"/><rect x="207.5" y="358.75" width="35" height="282.5" fill="#F43F5E" opacity="0.6828" rx="4"/><rect x="257.5" y="290.5" width="35" height="419" fill="#EC4899" opacity="0.8466" rx="4"/><rect x="307.5" y="222.25" width="35" height="555.5" fill="#F43F5E" opacity="0.4104" rx="4"/><rect x="357.5" y="404" width="35" height="192" fill="#EC4899" opacity="0.5742" rx="4"/><rect x="407.5" y="335.75" width="35" height="328.5" fill="#F43F5E" opacity="0.738" rx="4"/><rect x="457.5" y="267.5" width="35" height="465" fill="#EC4899" opacity="0.3018" rx="4"/><rect x="507.5" y="449.25" width="35" height="101.5" fill="#F43F5E" opacity="0.4656" rx="4"/><rect x="557.5" y="381" width="35" height="238" fill="#EC4899" opacity="0.6294" rx="4"/><rect x="607.5" y="312.75" width="35" height="374.5" fill="#F43F5E" opacity="0.7931999999999999" rx="4"/><rect x="657.5" y="244.5" width="35" height="511" fill="#EC4899" opacity="0.357" rx="4"/><rect x="707.5" y="426.25" width="35" height="147.5" fill="#F43F5E" opacity="0.5207999999999999" rx="4"/><rect x="757.5" y="358" width="35" height="284" fill="#EC4899" opacity="0.6846" rx="4"/><rect x="807.5" y="289.75" width="35" height="420.5" fill="#F43F5E" opacity="0.8484" rx="4"/><rect x="857.5" y="221.5" width="35" height="557" fill="#EC4899" opacity="0.4122" rx="4"/><rect x="907.5" y="403.25" width="35" height="193.5" fill="#F43F5E" opacity="0.5760000000000001" rx="4"/><rect x="957.5" y="335" width="35" height="330" fill="#EC4899" opacity="0.7398" rx="4"/>
    <text x="500" y="960" font-family="system-ui, sans-serif" font-size="36" font-weight="700" fill="white" text-anchor="middle" opacity="0.85">gratitude alt</text>
  </svg>