<svg xmlns="http://www.w3.org/2000/svg" viewBox="0 0 1000 1000" width="1000" height="1000">
    <defs>
      <linearGradient id="g536" x1="0" y1="0" x2="1" y2="1">
        <stop offset="0%" stop-color="#10B981"/>
        <stop offset="100%" stop-color="#14B8A6"/>
      </linearGradient>
      <radialGradient id="glow536" cx="50%" cy="50%" r="60%">
        <stop offset="0%" stop-color="#6EE7B7" stop-opacity="0.2"/>
        <stop offset="100%" stop-color="#6EE7B7" stop-opacity="0"/>
      </radialGradient>
    </defs>
    <rect width="1000" height="1000" fill="#030712"/>
    <rect width="1000" height="1000" fill="url(#glow536)"/>
    <circle cx="566.557530073356" cy="615.8406456755758" r="6.008" fill="#F59E0B" opacity="0.7008"/><circle cx="399.0739103921935" cy="673.1302528054442" r="7.344" fill="#10B981" opacity="0.8009999999999999"/><circle cx="232.80527429924018" cy="498.32114393240266" r="8.68" fill="#14B8A6" opacity="0.30119999999999997"/><circle cx="335.42906792287056" cy="209.35862594037843" r="2.016" fill="#F59E0B" opacity="0.4014"/><circle cx="500.4072331326003" cy="499.31140637839684" r="3.3520000000000003" fill="#14B8A6" opacity="0.5016"/><circle cx="567.5946625881779" cy="500.84946429611466" r="4.688000000000001" fill="#10B981" opacity="0.6018"/><circle cx="565.4864168974847" cy="617.3664739264533" r="6.024" fill="#F59E0B" opacity="0.702"/><circle cx="396.4947658031609" cy="672.5343632261628" r="7.36" fill="#10B981" opacity="0.8022"/><circle cx="232.0476095619432" cy="494.9486181562706" r="8.696" fill="#14B8A6" opacity="0.3024"/><circle cx="338.70886991074576" cy="206.61252352131447" r="2.032" fill="#F59E0B" opacity="0.4026"/><circle cx="500.83170774819314" cy="498.6331561092811" r="3.3680000000000003" fill="#14B8A6" opacity="0.5028"/><circle cx="568.3783985469777" cy="501.7188985283243" r="4.704000000000001" fill="#10B981" opacity="0.603"/><circle cx="564.3874051359054" cy="618.8835651377632" r="6.04" fill="#F59E0B" opacity="0.7032"/><circle cx="393.91472474781824" cy="671.9008853225278" r="7.376" fill="#10B981" opacity="0.8033999999999999"/><circle cx="231.33263657369133" cy="491.5567879597992" r="8.712" fill="#14B8A6" opacity="0.3036"/><circle cx="342.0317603653144" cy="203.90306440842966" r="2.048" fill="#F59E0B" opacity="0.4038"/><circle cx="501.27322684233616" cy="497.9655729533958" r="3.384" fill="#14B8A6" opacity="0.504"/><circle cx="569.1508315067288" cy="502.6081606407595" r="4.720000000000001" fill="#10B981" opacity="0.6042"/><circle cx="563.2605466185344" cy="620.3914583412139" r="6.056" fill="#F59E0B" opacity="0.7044"/><circle cx="391.3343259782594" cy="671.2297032918086" r="7.392" fill="#10B981" opacity="0.8046"/><circle cx="230.66072081077755" cy="488.14619530150367" r="8.728" fill="#14B8A6" opacity="0.3048"/><circle cx="345.39733488693156" cy="201.2308986191236" r="2.064" fill="#F59E0B" opacity="0.40499999999999997"/><circle cx="501.731588006806" cy="497.30897733664585" r="3.4" fill="#14B8A6" opacity="0.5052"/><circle cx="569.9115869624212" cy="503.5171022725839" r="4.736000000000001" fill="#10B981" opacity="0.6053999999999999"/><circle cx="562.10590036437" cy="621.8896925089687" r="6.072" fill="#F59E0B" opacity="0.7056"/><circle cx="388.7541110049028" cy="670.5207089525801" r="7.408" fill="#10B981" opacity="0.8057999999999998"/><circle cx="230.03222085053312" cy="484.7173882760606" r="8.744" fill="#14B8A6" opacity="0.306"/><circle cx="348.8051795344412" cy="198.59667177619383" r="2.08" fill="#F59E0B" opacity="0.4062"/><circle cx="502.20658348251374" cy="496.6636862655473" r="3.416" fill="#14B8A6" opacity="0.5064"/><circle cx="570.6602923727216" cy="504.44556878267537" r="4.752" fill="#10B981" opacity="0.6066"/><circle cx="560.9235325909528" cy="623.3778066616485" r="6.088" fill="#F59E0B" opacity="0.7068"/><circle cx="386.17462398981445" cy="669.7738017956242" r="7.424" fill="#10B981" opacity="0.8069999999999999"/><circle cx="229.44748827483568" cy="481.2709210262531" r="8.76" fill="#14B8A6" opacity="0.3072"/><circle cx="352.25487087198485" cy="196.00102497056656" r="2.096" fill="#F59E0B" opacity="0.4074"/><circle cx="502.69800021369025" cy="496.03001324348213" r="3.432" fill="#14B8A6" opacity="0.5075999999999999"/><circle cx="571.3965772586599" cy="505.3933992758" r="4.768" fill="#10B981" opacity="0.6078"/><circle cx="559.7135167222448" cy="624.8553399765592" r="6.104" fill="#F59E0B" opacity="0.708"/><circle cx="383.59641163918957" cy="668.9888890333534" r="7.44" fill="#10B981" opacity="0.8082"/><circle cx="228.9068675747439" cy="477.8073536534611" r="8.776" fill="#14B8A6" opacity="0.3084"/><circle cx="355.74597601775355" cy="193.4445946245125" r="2.112" fill="#F59E0B" opacity="0.40859999999999996"/><circle cx="503.2056199033297" cy="495.4082681877775" r="3.448" fill="#14B8A6" opacity="0.5087999999999999"/><circle cx="572.1200733019657" cy="506.3604266302738" r="4.784" fill="#10B981" opacity="0.609"/><circle cx="558.4759333949235" cy="626.3218318961235" r="6.12" fill="#F59E0B" opacity="0.7092"/><circle cx="381.0200230950129" cy="668.16588564774" r="7.456" fill="#10B981" opacity="0.8093999999999999"/><circle cx="228.4106960562798" cy="474.32725212670937" r="8.792" fill="#14B8A6" opacity="0.3096"/><circle cx="359.27805269468064" cy="190.92801235537553" r="2.128" fill="#F59E0B" opacity="0.4098"/><circle cx="503.72921906987887" cy="494.79875734762817" r="3.464" fill="#14B8A6" opacity="0.51"/><circle cx="572.8304144430311" cy="507.34647752710896" r="4.8" fill="#10B981" opacity="0.6102"/><circle cx="557.2108704630889" cy="627.7768222364904" r="6.136" fill="#F59E0B" opacity="0.7104"/><circle cx="378.4460098259166" cy="667.3047144367391" r="7.472" fill="#10B981" opacity="0.8106"/><circle cx="227.95930374738106" cy="470.8311881902889" r="8.808" fill="#14B8A6" opacity="0.31079999999999997"/><circle cx="362.8506492830692" cy="188.4519048398397" r="2.144" fill="#F59E0B" opacity="0.411"/><circle cx="504.2685691051596" cy="494.2017832228799" r="3.48" fill="#14B8A6" opacity="0.5112"/><circle cx="573.5272369784806" cy="508.3513724806376" r="4.816" fill="#10B981" opacity="0.6113999999999999"/><circle cx="555.918423001377" cy="629.2198512963046" r="6.152" fill="#F59E0B" opacity="0.7116"/><circle cx="375.87492551725916" cy="666.405306059194" r="7.488" fill="#10B981" opacity="0.8117999999999999"/><circle cx="227.5530133060431" cy="467.3197392699677" r="8.824" fill="#14B8A6" opacity="0.312"/><circle cx="366.46330487514655" cy="186.01689367876503" r="2.16" fill="#F59E0B" opacity="0.4122"/><circle cx="504.8234363335122" cy="493.61764448369144" r="3.496" fill="#14B8A6" opacity="0.5124"/><circle cx="574.2101796583229" cy="509.37492587060996" r="4.832" fill="#10B981" opacity="0.6126"/><circle cx="554.5986933064794" cy="630.6504599656082" r="6.168" fill="#F59E0B" opacity="0.7127999999999999"/><circle cx="373.3073259604443" cy="665.4675990782089" r="7.504" fill="#10B981" opacity="0.813"/><circle cx="227.19213992967178" cy="463.79348837780384" r="8.84" fill="#14B8A6" opacity="0.3132"/><circle cx="370.1155493315438" cy="183.62359526261548" r="2.176" fill="#F59E0B" opacity="0.4134"/><circle cx="505.3935820721462" cy="493.0466358910939" r="3.512" fill="#14B8A6" opacity="0.5136"/><circle cx="574.8788837826668" cy="510.4169459757586" r="4.848" fill="#10B981" opacity="0.6138"/><circle cx="553.2517908970627" cy="632.0681898348557" r="6.184" fill="#F59E0B" opacity="0.714"/><circle cx="370.7437689415021" cy="664.4915400029807" r="7.52" fill="#10B981" opacity="0.8142"/><circle cx="226.87699126566832" cy="460.2530240155784" r="8.856" fill="#14B8A6" opacity="0.3144"/><circle cx="373.80690333969216" cy="181.2726206375075" r="2.192" fill="#F59E0B" opacity="0.41459999999999997"/><circle cx="505.9787626926859" cy="492.48904821846475" r="3.528" fill="#14B8A6" opacity="0.5147999999999999"/><circle cx="575.5329932979766" cy="511.47723500882586" r="4.864" fill="#10B981" opacity="0.615"/><circle cx="551.8778325120909" cy="633.4725833040158" r="6.2" fill="#F59E0B" opacity="0.7152"/><circle cx="368.1848141289529" cy="663.477083329075" r="7.536" fill="#10B981" opacity="0.8153999999999999"/><circle cx="226.6078673232659" cy="456.6989400768641" r="8.872" fill="#14B8A6" opacity="0.3156"/><circle cx="377.53687847412687" cy="178.96457537190815" r="2.208" fill="#F59E0B" opacity="0.4158"/><circle cx="506.5787296838965" cy="491.94516817393315" r="3.544" fill="#14B8A6" opacity="0.516"/><circle cx="576.1721548928474" cy="512.555589153045" r="4.88" fill="#10B981" opacity="0.6162"/><circle cx="550.4769421075413" cy="634.8631836917397" r="6.216" fill="#F59E0B" opacity="0.7163999999999999"/><circle cx="365.6310229609762" cy="662.4241915771364" r="7.552" fill="#10B981" opacity="0.8166"/><circle cx="226.3850603866382" cy="453.1318357477451" r="8.888" fill="#14B8A6" opacity="0.31679999999999997"/><circle cx="381.30497725869617" cy="176.70005942400581" r="2.224" fill="#F59E0B" opacity="0.417"/><circle cx="507.19322971557773" cy="491.41527832373527" r="3.56" fill="#14B8A6" opacity="0.5172"/><circle cx="576.796018093278" cy="513.6517986000715" r="4.896" fill="#10B981" opacity="0.6174"/><circle cx="549.0492508515182" cy="636.2395353445718" r="6.232" fill="#F59E0B" opacity="0.7176"/><circle cx="363.08295853190566" cy="661.3328353300225" r="7.568" fill="#10B981" opacity="0.8177999999999999"/><circle cx="226.20885492930023" cy="449.5523154062049" r="8.904" fill="#14B8A6" opacity="0.318"/><circle cx="385.1106932306649" cy="174.47966700978327" r="2.24" fill="#F59E0B" opacity="0.4182"/><circle cx="507.82200470361056" cy="490.89965701653534" r="3.576" fill="#14B8A6" opacity="0.5184"/><circle cx="577.4042353574207" cy="514.7656475893551" r="4.912" fill="#10B981" opacity="0.6186"/><circle cx="547.5948971177596" cy="637.6011837461796" r="6.248" fill="#F59E0B" opacity="0.7187999999999999"/><circle cx="360.54118547807207" cy="660.2029932683485" r="7.584" fill="#10B981" opacity="0.819"/><circle cx="226.07952752982112" cy="445.96098852019975" r="8.92" fill="#14B8A6" opacity="0.3192"/><circle cx="388.9535110067054" cy="172.30398647181852" r="2.2560000000000002" fill="#F59E0B" opacity="0.4194"/><circle cx="508.4647918761427" cy="490.3985783087301" r="3.592" fill="#14B8A6" opacity="0.5196"/><circle cx="577.996462169786" cy="515.8969144489467" r="4.928" fill="#10B981" opacity="0.6198"/><circle cx="546.1140264775366" cy="638.9476756265791" r="6.264" fill="#F59E0B" opacity="0.72"/><circle cx="358.00626986301756" cy="659.0346522044357" r="7.6" fill="#10B981" opacity="0.8202"/><circle cx="225.9973467888678" cy="442.35846954443326" r="8.936" fill="#14B8A6" opacity="0.3204"/><circle cx="392.8329063507682" cy="170.17360014884076" r="2.2720000000000002" fill="#F59E0B" opacity="0.4206"/>
    <text x="500" y="960" font-family="system-ui, sans-serif" font-size="36" font-weight="700" fill="white" text-anchor="middle" opacity="0.85">sunrise alt</text>
  </svg>