<svg xmlns="http://www.w3.org/2000/svg" viewBox="0 0 1000 1000" width="1000" height="1000">
    <defs>
      <linearGradient id="g538" x1="0" y1="0" x2="1" y2="1">
        <stop offset="0%" stop-color="#EC4899"/>
        <stop offset="100%" stop-color="#F43F5E"/>
      </linearGradient>
      <radialGradient id="glow538" cx="50%" cy="50%" r="60%">
        <stop offset="0%" stop-color="#F9A8D4" stop-opacity="0.2"/>
        <stop offset="100%" stop-color="#F9A8D4" stop-opacity="0"/>
      </radialGradient>
    </defs>
    <rect width="1000" height="1000" fill="#030712"/>
    <rect width="1000" height="1000" fill="url(#glow538)"/>
    <path d="M 0 500 L 0 596.2063645457932 L 16.666666666666668 627.0606136183924 L 33.333333333333336 645.4772838601608 L 50 649.6536231718416 L 66.66666666666667 639.1808256747474 L 83.33333333333333 615.0840378715326 L 100 579.7220219820092 L 116.66666666666667 536.5562586941579 L 133.33333333333334 489.812113905377 L 150 444.0652304457595 L 166.66666666666666 403.79363225278354 L 183.33333333333331 372.9393889156924 L 200 354.5227173018351 L 216.66666666666669 350.34637650432114 L 233.33333333333334 360.8191758812534 L 250 384.9159648047491 L 266.6666666666667 420.2779815525801 L 283.3333333333333 463.4437453527488 L 300 510.1878813376567 L 316.66666666666663 555.934765130168 L 333.3333333333333 596.2063640890967 L 350 627.0606133020256 L 366.66666666666663 645.4772837150919 L 383.33333333333337 649.6536232122709 L 400 639.1808258967176 L 416.6666666666667 615.0840382533155 L 433.33333333333337 579.7220224862333 L 450 536.5562592714663 L 466.6666666666667 489.8121144992586 L 483.3333333333333 444.06523099808106 L 500 403.79363270948005 L 516.6666666666667 372.9393892320592 L 533.3333333333334 354.52271744690404 L 550 350.3463764638918 L 566.6666666666666 360.81917565928325 L 583.3333333333334 384.91596442296617 L 600 420.2779810483561 L 616.6666666666667 463.44374477544045 L 633.3333333333333 510.18788074377505 L 650 555.9347645778463 L 666.6666666666666 596.2063636324001 L 683.3333333333334 627.0606129856587 L 700 645.477283570023 L 716.6666666666666 649.6536232527003 L 733.3333333333333 639.1808227847157 L 750 615.0840386350983 L 766.6666666666667 579.7220229904574 L 783.3333333333334 536.5562598487746 L 800 489.81211509314016 L 816.6666666666666 444.0652315504027 L 833.3333333333334 403.79363316617656 L 850 372.9393847966233 L 866.6666666666667 354.52271759197293 L 883.3333333333333 350.3463764234624 L 900 360.8191754373132 L 916.6666666666666 384.9159640411833 L 933.3333333333334 420.277980544132 L 950 463.44374419813215 L 966.6666666666666 510.1878801498935 L 983.3333333333333 555.9347640255247 L 1000 596.2063631757036" stroke="#EC4899" stroke-width="3" fill="none" opacity="0.7"/><path d="M 0 500 L 0 626.7226908950003 L 16.666666666666668 607.5084017321884 L 33.333333333333336 584.3750098115845 L 50 558.8990176500788 L 66.66666666666667 532.8165721084831 L 83.33333333333333 507.90515425218274 L 100 485.8624248555111 L 116.66666666666667 468.1905654544521 L 133.33333333333334 456.09388412970185 L 150 450.3967497684491 L 166.66666666666666 451.48741268393803 L 183.33333333333331 459.29154599677076 L 200 473.27731088918756 L 216.66666666666669 492.49159566737524 L 233.33333333333334 515.6249872034678 L 250 541.1009791838815 L 266.6666666666667 567.1834247601456 L 283.3333333333333 592.0948482711573 L 300 614.137577278771 L 316.66666666666663 631.8094361453244 L 333.3333333333333 643.9061168265468 L 350 649.6032499486821 L 366.66666666666663 648.512587862263 L 383.33333333333337 640.7084553412775 L 400 626.7226911495221 L 416.6666666666667 607.5084020568388 L 433.33333333333337 584.3750101842392 L 450 558.8990180453418 L 466.6666666666667 532.8165724994178 L 483.3333333333333 507.90515461214784 L 500 485.8624251599755 L 516.6666666666667 468.19056568266694 L 533.3333333333334 456.0938842661148 L 550 450.3967498037638 L 566.6666666666666 451.4874126157478 L 583.3333333333334 459.2915458297227 L 600 473.27731063466564 L 616.6666666666667 492.4915953427248 L 633.3333333333333 515.6249868308132 L 650 541.1009787886185 L 666.6666666666666 567.1834243692108 L 683.3333333333334 592.0948479111922 L 700 614.1375769743067 L 716.6666666666666 631.8094359171096 L 733.3333333333333 643.9061166901339 L 750 649.6032499133674 L 766.6666666666667 648.5125879304533 L 783.3333333333334 640.7084555083256 L 800 626.7226914040441 L 816.6666666666666 607.5084023814893 L 833.3333333333334 584.3750105568938 L 850 558.8990184406048 L 866.6666666666667 532.8165728903527 L 883.3333333333333 507.90514956546775 L 900 485.86242546443987 L 916.6666666666666 468.1905659108818 L 933.3333333333334 456.0938844025277 L 950 450.39674983907844 L 966.6666666666666 451.48741254755754 L 983.3333333333333 459.29154566267454 L 1000 473.2773103801437" stroke="#F43F5E" stroke-width="2" fill="none" opacity="0.5"/>
    <text x="500" y="960" font-family="system-ui, sans-serif" font-size="36" font-weight="700" fill="white" text-anchor="middle" opacity="0.85">moon alt</text>
  </svg>