<svg xmlns="http://www.w3.org/2000/svg" viewBox="0 0 1000 1000" width="1000" height="1000">
    <defs>
      <linearGradient id="g539" x1="0" y1="0" x2="1" y2="1">
        <stop offset="0%" stop-color="#8B5CF6"/>
        <stop offset="100%" stop-color="#6366F1"/>
      </linearGradient>
      <radialGradient id="glow539" cx="50%" cy="50%" r="60%">
        <stop offset="0%" stop-color="#C4B5FD" stop-opacity="0.2"/>
        <stop offset="100%" stop-color="#C4B5FD" stop-opacity="0"/>
      </radialGradient>
    </defs>
    <rect width="1000" height="1000" fill="#0F172A"/>
    <rect width="1000" height="1000" fill="url(#glow539)"/>
    <line x1="0" y1="41.666666666666664" x2="1000" y2="54.806666666666665" stroke="#8B5CF6" stroke-width="1" opacity="0.4"/><line x1="0" y1="125" x2="1000" y2="121.28" stroke="#8B5CF6" stroke-width="1" opacity="0.4"/><line x1="0" y1="208.33333333333331" x2="1000" y2="187.75333333333333" stroke="#8B5CF6" stroke-width="1" opacity="0.4"/><line x1="0" y1="291.66666666666663" x2="1000" y2="314.22666666666663" stroke="#8B5CF6" stroke-width="1" opacity="0.4"/><line x1="0" y1="375" x2="1000" y2="380.7" stroke="#8B5CF6" stroke-width="1" opacity="0.4"/><line x1="0" y1="458.3333333333333" x2="1000" y2="447.1733333333333" stroke="#8B5CF6" stroke-width="1" opacity="0.4"/><line x1="0" y1="541.6666666666666" x2="1000" y2="513.6466666666666" stroke="#8B5CF6" stroke-width="1" opacity="0.4"/><line x1="0" y1="625" x2="1000" y2="640.12" stroke="#8B5CF6" stroke-width="1" opacity="0.4"/><line x1="0" y1="708.3333333333333" x2="1000" y2="706.5933333333332" stroke="#8B5CF6" stroke-width="1" opacity="0.4"/><line x1="0" y1="791.6666666666666" x2="1000" y2="773.0666666666666" stroke="#8B5CF6" stroke-width="1" opacity="0.4"/><line x1="0" y1="875" x2="1000" y2="899.54" stroke="#8B5CF6" stroke-width="1" opacity="0.4"/><line x1="0" y1="958.3333333333333" x2="1000" y2="966.0133333333332" stroke="#8B5CF6" stroke-width="1" opacity="0.4"/><rect x="300" y="300" width="400" height="400" fill="url(#g539)" opacity="0.3"/><rect x="350" y="350" width="300" height="300" fill="none" stroke="#06B6D4" stroke-width="2" opacity="0.6"/>
    <text x="500" y="960" font-family="system-ui, sans-serif" font-size="36" font-weight="700" fill="white" text-anchor="middle" opacity="0.85">cloud alt</text>
  </svg>