<svg xmlns="http://www.w3.org/2000/svg" viewBox="0 0 1000 1000" width="1000" height="1000">
    <defs>
      <linearGradient id="g544" x1="0" y1="0" x2="1" y2="1">
        <stop offset="0%" stop-color="#EC4899"/>
        <stop offset="100%" stop-color="#F43F5E"/>
      </linearGradient>
      <radialGradient id="glow544" cx="50%" cy="50%" r="60%">
        <stop offset="0%" stop-color="#F9A8D4" stop-opacity="0.2"/>
        <stop offset="100%" stop-color="#F9A8D4" stop-opacity="0"/>
      </radialGradient>
    </defs>
    <rect width="1000" height="1000" fill="#030712"/>
    <rect width="1000" height="1000" fill="url(#glow544)"/>
    <circle cx="677.8681901074049" cy="276.54918449932643" r="6.568" fill="#8B5CF6" opacity="0.5568"/><circle cx="448.7765581991613" cy="277.4180622555458" r="5.4239999999999995" fill="#EC4899" opacity="0.471"/><circle cx="345.55466615616365" cy="426.1347249794199" r="4.279999999999999" fill="#F43F5E" opacity="0.3852"/><circle cx="397.46780132143374" cy="549.8311973982063" r="3.136" fill="#8B5CF6" opacity="0.8994"/><circle cx="487.6094638886764" cy="555.4320720781209" r="9.992" fill="#F43F5E" opacity="0.8135999999999999"/><circle cx="750.8254679717639" cy="811.0735357061826" r="8.847999999999999" fill="#EC4899" opacity="0.7278"/><circle cx="842.3932413171412" cy="497.84865150619265" r="7.704" fill="#8B5CF6" opacity="0.6419999999999999"/><circle cx="676.2135616533634" cy="275.75053915463633" r="6.56" fill="#EC4899" opacity="0.5562"/><circle cx="447.47121071773716" cy="278.1335394960752" r="5.416" fill="#F43F5E" opacity="0.47039999999999993"/><circle cx="345.45553943880384" cy="427.27689700068566" r="4.272" fill="#8B5CF6" opacity="0.3846"/><circle cx="398.1415782211972" cy="550.2973350460193" r="3.128" fill="#F43F5E" opacity="0.8988"/><circle cx="488.04279900039614" cy="555.1179221692461" r="9.984" fill="#EC4899" opacity="0.813"/><circle cx="752.5220086357193" cy="809.1816216313346" r="8.84" fill="#8B5CF6" opacity="0.7272"/><circle cx="841.9729971177051" cy="495.7024143598933" r="7.696" fill="#EC4899" opacity="0.6414"/><circle cx="674.5559288803677" cy="274.9638524754033" r="6.552" fill="#F43F5E" opacity="0.5556"/><circle cx="446.1728282774002" cy="278.8566175886202" r="5.4079999999999995" fill="#8B5CF6" opacity="0.4698"/><circle cx="345.36465405819365" cy="428.4173918786283" r="4.263999999999999" fill="#F43F5E" opacity="0.384"/><circle cx="398.8171507860769" cy="550.7569800613917" r="3.12" fill="#EC4899" opacity="0.8981999999999999"/><circle cx="488.47169390888666" cy="554.8005306422265" r="9.975999999999999" fill="#8B5CF6" opacity="0.8124"/><circle cx="754.2046871117775" cy="807.2806812189847" r="8.832" fill="#EC4899" opacity="0.7265999999999999"/><circle cx="841.5393155732843" cy="493.5613729932166" r="7.688" fill="#F43F5E" opacity="0.6407999999999999"/><circle cx="672.8953766643458" cy="274.1891306245557" r="6.544" fill="#8B5CF6" opacity="0.5549999999999999"/><circle cx="444.88145476328344" cy="279.58723727744797" r="5.4" fill="#F43F5E" opacity="0.46919999999999995"/><circle cx="345.28198498355073" cy="429.55615123114177" r="4.256" fill="#EC4899" opacity="0.38339999999999996"/><circle cx="399.4944640715521" cy="551.2101283706209" r="3.112" fill="#8B5CF6" opacity="0.8976"/><circle cx="488.896125083399" cy="554.4799409125642" r="9.968" fill="#EC4899" opacity="0.8117999999999999"/><circle cx="755.8734570255511" cy="805.3708139128449" r="8.824" fill="#F43F5E" opacity="0.726"/><circle cx="841.0922453834619" cy="491.42561143473307" r="7.68" fill="#8B5CF6" opacity="0.6401999999999999"/><circle cx="671.2319898396829" cy="273.4263791710457" r="6.536" fill="#F43F5E" opacity="0.5544"/><circle cx="443.59713359101085" cy="280.3253390560265" r="5.3919999999999995" fill="#EC4899" opacity="0.4686"/><circle cx="345.2075067763659" cy="430.6931169247153" r="4.248" fill="#8B5CF6" opacity="0.3828"/><circle cx="400.1734631533576" cy="551.6567763338553" r="3.104" fill="#EC4899" opacity="0.897"/><circle cx="489.31606936359253" cy="554.1561965628721" r="9.96" fill="#F43F5E" opacity="0.8111999999999999"/><circle cx="757.5282727046388" cy="803.4521193825562" r="8.815999999999999" fill="#8B5CF6" opacity="0.7253999999999999"/><circle cx="840.6318357726414" cy="489.2952133061739" r="7.672" fill="#F43F5E" opacity="0.6396"/><circle cx="669.5658531951124" cy="272.6756030906194" r="6.528" fill="#EC4899" opacity="0.5538"/><circle cx="442.3199077052823" cy="281.07086317058474" r="5.384" fill="#8B5CF6" opacity="0.46799999999999997"/><circle cx="345.14119359254073" cy="431.82823107724835" r="4.24" fill="#EC4899" opacity="0.3822"/><circle cx="400.854093130765" cy="552.0969207446753" r="3.096" fill="#F43F5E" opacity="0.8963999999999999"/><circle cx="489.7315039607023" cy="553.8293413399322" r="9.952" fill="#8B5CF6" opacity="0.8106"/><circle cx="759.1690891796294" cy="801.5246975187958" r="8.808" fill="#F43F5E" opacity="0.7247999999999999"/><circle cx="840.1581364868566" cy="487.1702618191541" r="7.664" fill="#EC4899" opacity="0.639"/><circle cx="667.8970514696118" cy="271.9368067666102" r="6.52" fill="#8B5CF6" opacity="0.5531999999999999"/><circle cx="441.04981957848315" cy="281.8237496236802" r="5.3759999999999994" fill="#EC4899" opacity="0.46740000000000004"/><circle cx="345.08301918454396" cy="432.9614360608491" r="4.232" fill="#F43F5E" opacity="0.3816"/><circle cx="401.53629912985923" cy="552.5305588296511" r="3.088" fill="#8B5CF6" opacity="0.8957999999999999"/><circle cx="490.1424064586837" cy="553.499419151746" r="9.943999999999999" fill="#F43F5E" opacity="0.81"/><circle cx="760.7958621850743" cy="799.5886484283803" r="8.8" fill="#EC4899" opacity="0.7242"/><circle cx="839.6711977905625" cy="485.0508397719259" r="7.656" fill="#8B5CF6" opacity="0.6384"/><circle cx="666.2256693483114" cy="271.2099939907648" r="6.512" fill="#EC4899" opacity="0.5526"/><circle cx="439.78691120932325" cy="282.58393817777386" r="5.368" fill="#F43F5E" opacity="0.4668"/><circle cx="345.03295690358743" cy="434.09267450461516" r="4.224" fill="#8B5CF6" opacity="0.381"/><circle cx="402.22002630681015" cy="552.9576882478749" r="3.08" fill="#F43F5E" opacity="0.8952"/><circle cx="490.5487548153351" cy="553.1664740645771" r="9.936" fill="#EC4899" opacity="0.8093999999999999"/><circle cx="762.408548160425" cy="797.6440724293664" r="8.792" fill="#8B5CF6" opacity="0.7236"/><circle cx="839.1710704634036" cy="482.93702954615003" r="7.648" fill="#EC4899" opacity="0.6377999999999999"/><circle cx="664.5517914584057" cy="270.49516796409415" r="6.504" fill="#F43F5E" opacity="0.552"/><circle cx="438.5312241214982" cy="283.3513683588135" r="5.359999999999999" fill="#8B5CF6" opacity="0.4662"/><circle cx="344.9909797018207" cy="435.2218892973974" r="4.216" fill="#F43F5E" opacity="0.38039999999999996"/><circle cx="402.9052198511399" cy="553.3783070904701" r="3.072" fill="#EC4899" opacity="0.8946000000000001"/><circle cx="490.95052736339744" cy="552.8305502999863" r="9.928" fill="#8B5CF6" opacity="0.8088"/><circle cx="764.0071042509373" cy="795.6910700461458" r="8.783999999999999" fill="#EC4899" opacity="0.723"/><circle cx="838.6578057969643" cy="480.8289131036972" r="7.64" fill="#F43F5E" opacity="0.6372"/><circle cx="662.8755023650793" cy="269.79233129775406" r="6.496" fill="#8B5CF6" opacity="0.5513999999999999"/><circle cx="437.2827993623812" cy="284.1259794598232" r="5.352" fill="#F43F5E" opacity="0.4656"/><circle cx="344.9570601345448" cy="436.34902359054615" r="4.208" fill="#EC4899" opacity="0.37979999999999997"/><circle cx="403.59182498898485" cy="553.7924138800768" r="3.064" fill="#8B5CF6" opacity="0.8939999999999999"/><circle cx="491.3477028116322" cy="552.4916922318586" r="9.92" fill="#EC4899" opacity="0.8082"/><circle cx="765.5914883085411" cy="793.7297420045406" r="8.776" fill="#F43F5E" opacity="0.7223999999999999"/><circle cx="838.1314555914985" cy="478.72657198346866" r="7.632" fill="#8B5CF6" opacity="0.6366"/><circle cx="661.1968865674369" cy="269.1014860139527" r="6.488" fill="#F43F5E" opacity="0.5508"/><circle cx="436.0416775017372" cy="284.9077105445009" r="5.343999999999999" fill="#EC4899" opacity="0.46499999999999997"/><circle cx="344.9311703624446" cy="437.4740208006398" r="4.2" fill="#8B5CF6" opacity="0.3792"/><circle cx="404.2797869863522" cy="554.2000075703121" r="3.056" fill="#EC4899" opacity="0.8934"/><circle cx="491.7402602458758" cy="552.1499443834233" r="9.911999999999999" fill="#F43F5E" opacity="0.8075999999999999"/><circle cx="767.1616588926772" cy="791.7601892268935" r="8.768" fill="#8B5CF6" opacity="0.7218"/><circle cx="837.5920721526386" cy="476.630087298245" r="7.624" fill="#F43F5E" opacity="0.636"/><circle cx="659.5160284944438" cy="268.4226335468861" r="6.48" fill="#EC4899" opacity="0.5502"/><circle cx="434.807898630467" cy="285.696500450822" r="5.336" fill="#8B5CF6" opacity="0.46440000000000003"/><circle cx="344.9132821538397" cy="438.59682461219563" r="4.192" fill="#EC4899" opacity="0.3786"/><circle cx="404.9690511523719" cy="554.6010875452082" r="3.048" fill="#F43F5E" opacity="0.8928"/><circle cx="492.12817913007234" cy="551.8053514242667" r="9.904" fill="#8B5CF6" opacity="0.8069999999999999"/><circle cx="768.7175752711" cy="789.7825128271556" r="8.76" fill="#F43F5E" opacity="0.7212"/><circle cx="837.0397082880875" cy="474.53953973155876" r="7.616" fill="#EC4899" opacity="0.6354"/><circle cx="657.8330125008782" cy="267.7557747437031" r="6.472" fill="#8B5CF6" opacity="0.5496"/><circle cx="433.581502359375" cy="286.4922877946506" r="5.327999999999999" fill="#EC4899" opacity="0.4638"/><circle cx="344.9033668869537" cy="439.71737898036355" r="4.184" fill="#F43F5E" opacity="0.378"/><circle cx="405.6595628425424" cy="554.995653618625" r="3.04" fill="#8B5CF6" opacity="0.8921999999999999"/><circle cx="492.5114393072829" cy="551.4579581673379" r="9.896" fill="#F43F5E" opacity="0.8064"/><circle cx="770.2591974206464" cy="787.7968141059732" r="8.751999999999999" fill="#EC4899" opacity="0.7205999999999999"/><circle cx="836.4744173042884" cy="472.45500953458986" r="7.608" fill="#8B5CF6" opacity="0.6348"/><circle cx="656.1479228632878" cy="267.1009098654941" r="6.464" fill="#EC4899" opacity="0.5489999999999999"/><circle cx="432.36252781796475" cy="287.2950109733568" r="5.32" fill="#F43F5E" opacity="0.4632"/><circle cx="344.9013955522024" cy="440.8356281336003" r="4.176" fill="#8B5CF6" opacity="0.37739999999999996"/><circle cx="406.3512674619709" cy="555.3837060336405" r="3.032" fill="#F43F5E" opacity="0.8916"/><circle cx="492.8900210006727" cy="551.1078095659472" r="9.888" fill="#EC4899" opacity="0.8057999999999998"/><circle cx="771.7864860279702" cy="785.8031945457711" r="8.744" fill="#8B5CF6" opacity="0.72"/><circle cx="835.8962530030777" cy="470.3765765230894" r="7.6" fill="#EC4899" opacity="0.6342"/><circle cx="654.4608437759605" cy="266.4580385883121" r="6.456" fill="#F43F5E" opacity="0.5484"/><circle cx="431.15101365326166" cy="288.10460816943976" r="5.311999999999999" fill="#8B5CF6" opacity="0.4626"/>
    <text x="500" y="960" font-family="system-ui, sans-serif" font-size="36" font-weight="700" fill="white" text-anchor="middle" opacity="0.85">mountain alt</text>
  </svg>