<svg xmlns="http://www.w3.org/2000/svg" viewBox="0 0 1000 1000" width="1000" height="1000">
    <defs>
      <linearGradient id="g545" x1="0" y1="0" x2="1" y2="1">
        <stop offset="0%" stop-color="#8B5CF6"/>
        <stop offset="100%" stop-color="#6366F1"/>
      </linearGradient>
      <radialGradient id="glow545" cx="50%" cy="50%" r="60%">
        <stop offset="0%" stop-color="#C4B5FD" stop-opacity="0.2"/>
        <stop offset="100%" stop-color="#C4B5FD" stop-opacity="0"/>
      </radialGradient>
    </defs>
    <rect width="1000" height="1000" fill="#0F172A"/>
    <rect width="1000" height="1000" fill="url(#glow545)"/>
    <path d="M 0 500 L 0 472.3613587789469 L 16.666666666666668 428.1551908513574 L 33.333333333333336 390.9816916067325 L 50 364.47966551000343 L 66.66666666666667 351.2433131758129 L 83.33333333333333 352.56830218864366 L 100 368.3249324391065 L 116.66666666666667 396.9708368598631 L 133.33333333333334 435.70195215242506 L 150 480.7270103310527 L 166.66666666666666 527.638640928521 L 183.33333333333331 571.844810849486 L 200 609.0183081888383 L 216.66666666666669 635.5203343624172 L 233.33333333333334 648.7566867859459 L 250 647.4316978661966 L 266.6666666666667 631.675066632876 L 283.3333333333333 603.0291633564497 L 300 564.2980481164727 L 316.66666666666663 519.2729899641083 L 333.3333333333333 472.3613593640111 L 350 428.155189411782 L 366.66666666666663 390.9816920155908 L 383.33333333333337 364.47966480704656 L 400 351.2433132522953 L 416.6666666666667 352.56830207896314 L 433.33333333333337 368.3249332245705 L 450 396.97083642723766 L 466.6666666666667 435.70195363403997 L 483.3333333333333 480.7270097407305 L 500 527.6386403434568 L 516.6666666666667 571.84481032695 L 533.3333333333334 609.0183077799801 L 550 635.5203350653741 L 566.6666666666666 648.7566867094635 L 583.3333333333334 647.4316979758771 L 600 631.675066917983 L 616.6666666666667 603.029163789075 L 633.3333333333333 564.2980466348578 L 650 519.2729905544306 L 666.6666666666666 472.3613577521718 L 683.3333333333334 428.15518993431795 L 700 390.9816924244491 L 716.6666666666666 364.4796650622053 L 733.3333333333333 351.24331332877773 L 750 352.5683023811306 L 766.6666666666667 368.32493293946334 L 783.3333333333334 396.97083599461223 L 800 435.70195309624455 L 816.6666666666666 480.7270091504083 L 833.3333333333334 527.6386419552962 L 850 571.8448098044141 L 866.6666666666667 609.0183073711218 L 883.3333333333333 635.5203348102153 L 900 648.756686632981 L 916.6666666666666 647.4316976737097 L 933.3333333333334 631.6750672030902 L 950 603.0291625972011 L 966.6666666666666 564.2980471726531 L 983.3333333333333 519.2729911447528 L 1000 472.3613583372359" stroke="#8B5CF6" stroke-width="3" fill="none" opacity="0.7"/><path d="M 0 500 L 0 451.71220147737586 L 16.666666666666668 459.8302151320661 L 33.333333333333336 474.09314998284975 L 50 493.5290121508315 L 66.66666666666667 516.8132776253071 L 83.33333333333333 542.3591647408946 L 100 568.4257607165247 L 116.66666666666667 593.2366729656073 L 133.33333333333334 615.1010761099136 L 150 632.5289496000753 L 166.66666666666666 644.332610754783 L 183.33333333333331 649.7076608643065 L 200 648.2877985591844 L 216.66666666666669 640.1697849537236 L 233.33333333333334 625.906850146323 L 250 606.4709880129215 L 266.6666666666667 583.1867225618663 L 283.3333333333333 557.6408354569442 L 300 531.5742394784967 L 316.66666666666663 506.7633272133064 L 333.3333333333333 484.89892404069974 L 350 467.47105051197366 L 366.66666666666663 455.66738931106573 L 383.33333333333337 450.29233915085433 L 400 451.71220140425555 L 416.6666666666667 459.8302149604867 L 433.33333333333337 474.0931497245043 L 450 493.52901182332573 L 466.6666666666667 516.81327725096 L 483.3333333333333 542.3591643452172 L 500 568.4257603264818 L 516.6666666666667 593.2366726077798 L 533.3333333333334 615.1010758086868 L 550 632.5289493759773 L 566.6666666666666 644.3326106230855 L 583.3333333333334 649.7076608339848 L 600 648.2877986323047 L 616.6666666666667 640.169785125303 L 633.3333333333333 625.9068504046684 L 650 606.4709883404272 L 666.6666666666666 583.1867229362134 L 683.3333333333334 557.6408358526214 L 700 531.5742398685395 L 716.6666666666666 506.7633275711339 L 733.3333333333333 484.89892434192654 L 750 467.4710507360717 L 766.6666666666667 455.6673889482424 L 783.3333333333334 450.29233918117603 L 800 451.71220160570044 L 816.6666666666666 459.8302147889075 L 833.3333333333334 474.09315043624053 L 850 493.52901149582 L 866.6666666666667 516.8132782822784 L 883.3333333333333 542.3591639495398 L 900 568.4257614010414 L 916.6666666666666 593.2366722499523 L 933.3333333333334 615.1010766385602 L 950 632.5289491518793 L 966.6666666666666 644.332610985909 L 983.3333333333333 649.7076608036631 L 1000 648.2877984308598" stroke="#6366F1" stroke-width="2" fill="none" opacity="0.5"/>
    <text x="500" y="960" font-family="system-ui, sans-serif" font-size="36" font-weight="700" fill="white" text-anchor="middle" opacity="0.85">youtube alt</text>
  </svg>