<svg xmlns="http://www.w3.org/2000/svg" viewBox="0 0 1000 1000" width="1000" height="1000">
    <defs>
      <linearGradient id="g550" x1="0" y1="0" x2="1" y2="1">
        <stop offset="0%" stop-color="#EC4899"/>
        <stop offset="100%" stop-color="#F43F5E"/>
      </linearGradient>
      <radialGradient id="glow550" cx="50%" cy="50%" r="60%">
        <stop offset="0%" stop-color="#F9A8D4" stop-opacity="0.2"/>
        <stop offset="100%" stop-color="#F9A8D4" stop-opacity="0"/>
      </radialGradient>
    </defs>
    <rect width="1000" height="1000" fill="#030712"/>
    <rect width="1000" height="1000" fill="url(#glow550)"/>
    <path d="M 0 500 L 0 648.872693909291 L 16.666666666666668 635.9142195955457 L 33.333333333333336 609.6514993735876 L 50 572.6553490225244 L 66.66666666666667 528.5471567407486 L 83.33333333333333 481.64460309400334 L 100 436.53876992834665 L 116.66666666666667 397.64499528386125 L 133.33333333333334 368.7704173398423 L 150 352.74152246046674 L 166.66666666666666 351.12730769539036 L 183.33333333333331 364.0857859524101 L 200 390.3485095745726 L 216.66666666666669 427.3446624499298 L 233.33333333333334 471.4528210238399 L 250 518.3554099208615 L 266.6666666666667 563.461209549178 L 283.3333333333333 602.355014302178 L 300 631.2295716895069 L 316.66666666666663 647.2584800352055 L 333.3333333333333 648.8726950761994 L 350 635.9142084996331 L 366.66666666666663 609.6515058806046 L 383.33333333333337 572.6553260776154 L 400 528.5471661024147 L 416.6666666666667 481.64457706427385 L 433.33333333333337 436.53877856882343 L 450 397.6449761117836 L 466.6666666666667 368.7704219587612 L 483.3333333333333 352.7415242752967 L 500 351.1273065284811 L 516.6666666666667 364.08578191798904 L 533.3333333333334 390.348503067555 L 550 427.34465410726955 L 566.6666666666666 471.45284677133094 L 583.3333333333334 518.3554004565749 L 600 563.4612333131747 L 616.6666666666667 602.355007331301 L 633.3333333333333 631.2295843929699 L 650 647.2584782203763 L 666.6666666666666 648.8726918668372 L 683.3333333333334 635.914212534055 L 700 609.6515123876211 L 716.6666666666666 572.6553344202762 L 733.3333333333333 528.5471754640806 L 750 481.64458652856035 L 766.6666666666667 436.53878720930044 L 783.3333333333334 397.64498308266 L 800 368.7704265776805 L 816.6666666666666 352.74151928395173 L 833.3333333333334 351.1273053615725 L 850 364.0857930139021 L 866.6666666666667 390.34849656053785 L 883.3333333333333 427.3446770521787 L 900 471.45283740966477 L 916.6666666666666 518.3553909922881 L 933.3333333333334 563.4612246726981 L 950 602.3550003604236 L 966.6666666666666 631.2295797740512 L 983.3333333333333 647.2584764055466 L 1000 648.8726930337466" stroke="#EC4899" stroke-width="3" fill="none" opacity="0.7"/><path d="M 0 500 L 0 537.763061236285 L 16.666666666666668 512.4926373437651 L 33.333333333333336 489.7782772166261 L 50 471.167911676069 L 66.66666666666667 457.9298395773535 L 83.33333333333333 450.9661942648154 L 100 450.7515364699431 L 116.66666666666667 457.300503703358 L 133.33333333333334 470.1667829881778 L 150 488.4735619196397 L 166.66666666666666 510.9732642627408 L 183.33333333333331 536.1325730946637 L 200 562.2369474402914 L 216.66666666666669 587.507370760283 L 233.33333333333334 610.2217297626163 L 250 628.8320790336973 L 266.6666666666667 642.0701638344713 L 283.3333333333333 649.0338069475126 L 300 649.2484624602699 L 316.66666666666663 642.6995019600975 L 333.3333333333333 629.8332261050505 L 350 611.5264311886402 L 366.66666666666663 589.0267276882299 L 383.33333333333337 563.8674182475257 L 400 537.7630675458095 L 416.6666666666667 512.4926432369523 L 433.33333333333337 489.7782632581418 L 450 471.16791558749026 L 466.6666666666667 457.9298420584007 L 483.3333333333333 450.9661951464093 L 500 450.75153860951775 L 516.6666666666667 457.30050131890096 L 533.3333333333334 470.16677915970035 L 550 488.47355690804625 L 566.6666666666666 510.9732584095631 L 583.3333333333334 536.1325904102849 L 600 562.236941130767 L 616.6666666666667 587.5073648670959 L 633.3333333333333 610.2217246873772 L 650 628.8320897913217 L 666.6666666666666 642.0701613534246 L 683.3333333333334 649.0338060659192 L 700 649.248463238209 L 716.6666666666666 642.6995043445536 L 733.3333333333333 629.8332155755481 L 750 611.526436200234 L 766.6666666666667 589.0267335414079 L 783.3333333333334 563.8674245434038 L 800 537.7630501926565 L 816.6666666666666 512.4926270288561 L 833.3333333333334 489.77826833338054 L 850 471.1679194989118 L 866.6666666666667 457.9298445394482 L 883.3333333333333 450.96619272175303 L 900 450.75153783157816 L 916.6666666666666 457.30049893444425 L 933.3333333333334 470.16677533122333 L 950 488.4735706914863 L 966.6666666666666 510.97327450762145 L 983.3333333333333 536.1325841144069 L 1000 562.2369348212426" stroke="#F43F5E" stroke-width="2" fill="none" opacity="0.5"/>
    <text x="500" y="960" font-family="system-ui, sans-serif" font-size="36" font-weight="700" fill="white" text-anchor="middle" opacity="0.85">github alt</text>
  </svg>