<svg xmlns="http://www.w3.org/2000/svg" viewBox="0 0 1000 1000" width="1000" height="1000">
    <defs>
      <linearGradient id="g551" x1="0" y1="0" x2="1" y2="1">
        <stop offset="0%" stop-color="#8B5CF6"/>
        <stop offset="100%" stop-color="#6366F1"/>
      </linearGradient>
      <radialGradient id="glow551" cx="50%" cy="50%" r="60%">
        <stop offset="0%" stop-color="#C4B5FD" stop-opacity="0.2"/>
        <stop offset="100%" stop-color="#C4B5FD" stop-opacity="0"/>
      </radialGradient>
    </defs>
    <rect width="1000" height="1000" fill="#0F172A"/>
    <rect width="1000" height="1000" fill="url(#glow551)"/>
    <circle cx="41.666666666666664" cy="41.666666666666664" r="3.8" fill="#6366F1" opacity="0.1"/><circle cx="125" cy="41.666666666666664" r="3.8" fill="#6366F1" opacity="0.1"/><circle cx="208.33333333333331" cy="41.666666666666664" r="3.8" fill="#6366F1" opacity="0.1"/><circle cx="291.66666666666663" cy="41.666666666666664" r="3.8" fill="#6366F1" opacity="0.1"/><circle cx="375" cy="41.666666666666664" r="3.8" fill="#6366F1" opacity="0.1"/><circle cx="458.3333333333333" cy="41.666666666666664" r="3.8" fill="#6366F1" opacity="0.1"/><circle cx="541.6666666666666" cy="41.666666666666664" r="3.8" fill="#6366F1" opacity="0.1"/><circle cx="625" cy="41.666666666666664" r="3.8" fill="#6366F1" opacity="0.1"/><circle cx="708.3333333333333" cy="41.666666666666664" r="3.8" fill="#6366F1" opacity="0.1"/><circle cx="791.6666666666666" cy="41.666666666666664" r="3.8" fill="#6366F1" opacity="0.1"/><circle cx="875" cy="41.666666666666664" r="3.8" fill="#6366F1" opacity="0.1"/><circle cx="958.3333333333333" cy="41.666666666666664" r="3.8" fill="#6366F1" opacity="0.1"/><circle cx="41.666666666666664" cy="125" r="3.8" fill="#8B5CF6" opacity="0.1"/><circle cx="125" cy="125" r="3.8" fill="#8B5CF6" opacity="0.1"/><circle cx="208.33333333333331" cy="125" r="3.8" fill="#8B5CF6" opacity="0.1"/><circle cx="291.66666666666663" cy="125" r="4.136246572675333" fill="#8B5CF6" opacity="0.1420308215844166"/><circle cx="375" cy="125" r="4.675444679663241" fill="#8B5CF6" opacity="0.20943058495790512"/><circle cx="458.3333333333333" cy="125" r="4.963076574575055" fill="#8B5CF6" opacity="0.2453845718218819"/><circle cx="541.6666666666666" cy="125" r="4.963076574575056" fill="#8B5CF6" opacity="0.245384571821882"/><circle cx="625" cy="125" r="4.675444679663241" fill="#8B5CF6" opacity="0.20943058495790512"/><circle cx="708.3333333333333" cy="125" r="4.136246572675334" fill="#8B5CF6" opacity="0.1420308215844167"/><circle cx="791.6666666666666" cy="125" r="3.8" fill="#8B5CF6" opacity="0.1"/><circle cx="875" cy="125" r="3.8" fill="#8B5CF6" opacity="0.1"/><circle cx="958.3333333333333" cy="125" r="3.8" fill="#8B5CF6" opacity="0.1"/><circle cx="41.666666666666664" cy="208.33333333333331" r="3.8" fill="#6366F1" opacity="0.1"/><circle cx="125" cy="208.33333333333331" r="3.8" fill="#6366F1" opacity="0.1"/><circle cx="208.33333333333331" cy="208.33333333333331" r="4.400336708925556" fill="#6366F1" opacity="0.17504208861569448"/><circle cx="291.66666666666663" cy="208.33333333333331" r="5.265116488638249" fill="#6366F1" opacity="0.2831395610797811"/><circle cx="375" cy="208.33333333333331" r="5.922817929424061" fill="#6366F1" opacity="0.3653522411780076"/><circle cx="458.3333333333333" cy="208.33333333333331" r="6.285954792089683" fill="#6366F1" opacity="0.4107443490112104"/><circle cx="541.6666666666666" cy="208.33333333333331" r="6.285954792089683" fill="#6366F1" opacity="0.4107443490112104"/><circle cx="625" cy="208.33333333333331" r="5.922817929424061" fill="#6366F1" opacity="0.3653522411780076"/><circle cx="708.3333333333333" cy="208.33333333333331" r="5.26511648863825" fill="#6366F1" opacity="0.2831395610797812"/><circle cx="791.6666666666666" cy="208.33333333333331" r="4.400336708925557" fill="#6366F1" opacity="0.1750420886156946"/><circle cx="875" cy="208.33333333333331" r="3.8" fill="#6366F1" opacity="0.1"/><circle cx="958.3333333333333" cy="208.33333333333331" r="3.8" fill="#6366F1" opacity="0.1"/><circle cx="41.666666666666664" cy="291.66666666666663" r="3.8" fill="#8B5CF6" opacity="0.1"/><circle cx="125" cy="291.66666666666663" r="4.136246572675333" fill="#8B5CF6" opacity="0.1420308215844166"/><circle cx="208.33333333333331" cy="291.66666666666663" r="5.265116488638249" fill="#8B5CF6" opacity="0.2831395610797811"/><circle cx="291.66666666666663" cy="291.66666666666663" r="6.285954792089682" fill="#8B5CF6" opacity="0.41074434901121026"/><circle cx="375" cy="291.66666666666663" r="7.112698736769799" fill="#8B5CF6" opacity="0.5140873420962249"/><circle cx="458.3333333333333" cy="291.66666666666663" r="7.600653657604809" fill="#8B5CF6" opacity="0.5750817072006011"/><circle cx="541.6666666666666" cy="291.66666666666663" r="7.600653657604809" fill="#8B5CF6" opacity="0.5750817072006011"/><circle cx="625" cy="291.66666666666663" r="7.112698736769799" fill="#8B5CF6" opacity="0.5140873420962249"/><circle cx="708.3333333333333" cy="291.66666666666663" r="6.285954792089684" fill="#8B5CF6" opacity="0.4107443490112105"/><circle cx="791.6666666666666" cy="291.66666666666663" r="5.265116488638249" fill="#8B5CF6" opacity="0.2831395610797811"/><circle cx="875" cy="291.66666666666663" r="4.136246572675333" fill="#8B5CF6" opacity="0.1420308215844166"/><circle cx="958.3333333333333" cy="291.66666666666663" r="3.8" fill="#8B5CF6" opacity="0.1"/><circle cx="41.666666666666664" cy="375" r="3.8" fill="#6366F1" opacity="0.1"/><circle cx="125" cy="375" r="4.675444679663241" fill="#6366F1" opacity="0.20943058495790512"/><circle cx="208.33333333333331" cy="375" r="5.922817929424061" fill="#6366F1" opacity="0.3653522411780076"/><circle cx="291.66666666666663" cy="375" r="7.112698736769799" fill="#6366F1" opacity="0.5140873420962249"/><circle cx="375" cy="375" r="8.17157287525381" fill="#6366F1" opacity="0.6464466094067263"/><circle cx="458.3333333333333" cy="375" r="8.891814893221081" fill="#6366F1" opacity="0.736476861652635"/><circle cx="541.6666666666666" cy="375" r="8.891814893221081" fill="#6366F1" opacity="0.7364768616526352"/><circle cx="625" cy="375" r="8.17157287525381" fill="#6366F1" opacity="0.6464466094067263"/><circle cx="708.3333333333333" cy="375" r="7.112698736769801" fill="#6366F1" opacity="0.5140873420962251"/><circle cx="791.6666666666666" cy="375" r="5.9228179294240615" fill="#6366F1" opacity="0.3653522411780077"/><circle cx="875" cy="375" r="4.675444679663241" fill="#6366F1" opacity="0.20943058495790512"/><circle cx="958.3333333333333" cy="375" r="3.8" fill="#6366F1" opacity="0.1"/><circle cx="41.666666666666664" cy="458.3333333333333" r="3.8" fill="#8B5CF6" opacity="0.1"/><circle cx="125" cy="458.3333333333333" r="4.963076574575055" fill="#8B5CF6" opacity="0.2453845718218819"/><circle cx="208.33333333333331" cy="458.3333333333333" r="6.285954792089683" fill="#8B5CF6" opacity="0.4107443490112104"/><circle cx="291.66666666666663" cy="458.3333333333333" r="7.600653657604809" fill="#8B5CF6" opacity="0.5750817072006011"/><circle cx="375" cy="458.3333333333333" r="8.891814893221081" fill="#8B5CF6" opacity="0.736476861652635"/><circle cx="458.3333333333333" cy="458.3333333333333" r="10.057190958417937" fill="#8B5CF6" opacity="0.882148869802242"/><circle cx="541.6666666666666" cy="458.3333333333333" r="10.057190958417937" fill="#8B5CF6" opacity="0.8821488698022422"/><circle cx="625" cy="458.3333333333333" r="8.891814893221081" fill="#8B5CF6" opacity="0.736476861652635"/><circle cx="708.3333333333333" cy="458.3333333333333" r="7.600653657604811" fill="#8B5CF6" opacity="0.5750817072006014"/><circle cx="791.6666666666666" cy="458.3333333333333" r="6.285954792089684" fill="#8B5CF6" opacity="0.4107443490112105"/><circle cx="875" cy="458.3333333333333" r="4.963076574575055" fill="#8B5CF6" opacity="0.2453845718218819"/><circle cx="958.3333333333333" cy="458.3333333333333" r="3.8" fill="#8B5CF6" opacity="0.1"/><circle cx="41.666666666666664" cy="541.6666666666666" r="3.8" fill="#6366F1" opacity="0.1"/><circle cx="125" cy="541.6666666666666" r="4.963076574575056" fill="#6366F1" opacity="0.245384571821882"/><circle cx="208.33333333333331" cy="541.6666666666666" r="6.285954792089683" fill="#6366F1" opacity="0.4107443490112104"/><circle cx="291.66666666666663" cy="541.6666666666666" r="7.600653657604809" fill="#6366F1" opacity="0.5750817072006011"/><circle cx="375" cy="541.6666666666666" r="8.891814893221081" fill="#6366F1" opacity="0.7364768616526352"/><circle cx="458.3333333333333" cy="541.6666666666666" r="10.057190958417937" fill="#6366F1" opacity="0.8821488698022422"/><circle cx="541.6666666666666" cy="541.6666666666666" r="10.057190958417937" fill="#6366F1" opacity="0.8821488698022422"/><circle cx="625" cy="541.6666666666666" r="8.891814893221081" fill="#6366F1" opacity="0.7364768616526352"/><circle cx="708.3333333333333" cy="541.6666666666666" r="7.600653657604811" fill="#6366F1" opacity="0.5750817072006014"/><circle cx="791.6666666666666" cy="541.6666666666666" r="6.285954792089684" fill="#6366F1" opacity="0.4107443490112105"/><circle cx="875" cy="541.6666666666666" r="4.963076574575056" fill="#6366F1" opacity="0.245384571821882"/><circle cx="958.3333333333333" cy="541.6666666666666" r="3.8" fill="#6366F1" opacity="0.1"/><circle cx="41.666666666666664" cy="625" r="3.8" fill="#8B5CF6" opacity="0.1"/><circle cx="125" cy="625" r="4.675444679663241" fill="#8B5CF6" opacity="0.20943058495790512"/><circle cx="208.33333333333331" cy="625" r="5.922817929424061" fill="#8B5CF6" opacity="0.3653522411780076"/><circle cx="291.66666666666663" cy="625" r="7.112698736769799" fill="#8B5CF6" opacity="0.5140873420962249"/><circle cx="375" cy="625" r="8.17157287525381" fill="#8B5CF6" opacity="0.6464466094067263"/><circle cx="458.3333333333333" cy="625" r="8.891814893221081" fill="#8B5CF6" opacity="0.736476861652635"/><circle cx="541.6666666666666" cy="625" r="8.891814893221081" fill="#8B5CF6" opacity="0.7364768616526352"/><circle cx="625" cy="625" r="8.17157287525381" fill="#8B5CF6" opacity="0.6464466094067263"/><circle cx="708.3333333333333" cy="625" r="7.112698736769801" fill="#8B5CF6" opacity="0.5140873420962251"/><circle cx="791.6666666666666" cy="625" r="5.9228179294240615" fill="#8B5CF6" opacity="0.3653522411780077"/><circle cx="875" cy="625" r="4.675444679663241" fill="#8B5CF6" opacity="0.20943058495790512"/><circle cx="958.3333333333333" cy="625" r="3.8" fill="#8B5CF6" opacity="0.1"/><circle cx="41.666666666666664" cy="708.3333333333333" r="3.8" fill="#6366F1" opacity="0.1"/><circle cx="125" cy="708.3333333333333" r="4.136246572675334" fill="#6366F1" opacity="0.1420308215844167"/><circle cx="208.33333333333331" cy="708.3333333333333" r="5.26511648863825" fill="#6366F1" opacity="0.2831395610797812"/><circle cx="291.66666666666663" cy="708.3333333333333" r="6.285954792089684" fill="#6366F1" opacity="0.4107443490112105"/><circle cx="375" cy="708.3333333333333" r="7.112698736769801" fill="#6366F1" opacity="0.5140873420962251"/><circle cx="458.3333333333333" cy="708.3333333333333" r="7.600653657604811" fill="#6366F1" opacity="0.5750817072006014"/><circle cx="541.6666666666666" cy="708.3333333333333" r="7.600653657604811" fill="#6366F1" opacity="0.5750817072006014"/><circle cx="625" cy="708.3333333333333" r="7.112698736769801" fill="#6366F1" opacity="0.5140873420962251"/><circle cx="708.3333333333333" cy="708.3333333333333" r="6.285954792089685" fill="#6366F1" opacity="0.4107443490112106"/><circle cx="791.6666666666666" cy="708.3333333333333" r="5.265116488638251" fill="#6366F1" opacity="0.28313956107978133"/><circle cx="875" cy="708.3333333333333" r="4.136246572675334" fill="#6366F1" opacity="0.1420308215844167"/><circle cx="958.3333333333333" cy="708.3333333333333" r="3.8" fill="#6366F1" opacity="0.1"/><circle cx="41.666666666666664" cy="791.6666666666666" r="3.8" fill="#8B5CF6" opacity="0.1"/><circle cx="125" cy="791.6666666666666" r="3.8" fill="#8B5CF6" opacity="0.1"/><circle cx="208.33333333333331" cy="791.6666666666666" r="4.400336708925557" fill="#8B5CF6" opacity="0.1750420886156946"/><circle cx="291.66666666666663" cy="791.6666666666666" r="5.265116488638249" fill="#8B5CF6" opacity="0.2831395610797811"/><circle cx="375" cy="791.6666666666666" r="5.9228179294240615" fill="#8B5CF6" opacity="0.3653522411780077"/><circle cx="458.3333333333333" cy="791.6666666666666" r="6.285954792089684" fill="#8B5CF6" opacity="0.4107443490112105"/><circle cx="541.6666666666666" cy="791.6666666666666" r="6.285954792089684" fill="#8B5CF6" opacity="0.4107443490112105"/><circle cx="625" cy="791.6666666666666" r="5.9228179294240615" fill="#8B5CF6" opacity="0.3653522411780077"/><circle cx="708.3333333333333" cy="791.6666666666666" r="5.265116488638251" fill="#8B5CF6" opacity="0.28313956107978133"/><circle cx="791.6666666666666" cy="791.6666666666666" r="4.400336708925557" fill="#8B5CF6" opacity="0.1750420886156946"/><circle cx="875" cy="791.6666666666666" r="3.8" fill="#8B5CF6" opacity="0.1"/><circle cx="958.3333333333333" cy="791.6666666666666" r="3.8" fill="#8B5CF6" opacity="0.1"/><circle cx="41.666666666666664" cy="875" r="3.8" fill="#6366F1" opacity="0.1"/><circle cx="125" cy="875" r="3.8" fill="#6366F1" opacity="0.1"/><circle cx="208.33333333333331" cy="875" r="3.8" fill="#6366F1" opacity="0.1"/><circle cx="291.66666666666663" cy="875" r="4.136246572675333" fill="#6366F1" opacity="0.1420308215844166"/><circle cx="375" cy="875" r="4.675444679663241" fill="#6366F1" opacity="0.20943058495790512"/><circle cx="458.3333333333333" cy="875" r="4.963076574575055" fill="#6366F1" opacity="0.2453845718218819"/><circle cx="541.6666666666666" cy="875" r="4.963076574575056" fill="#6366F1" opacity="0.245384571821882"/><circle cx="625" cy="875" r="4.675444679663241" fill="#6366F1" opacity="0.20943058495790512"/><circle cx="708.3333333333333" cy="875" r="4.136246572675334" fill="#6366F1" opacity="0.1420308215844167"/><circle cx="791.6666666666666" cy="875" r="3.8" fill="#6366F1" opacity="0.1"/><circle cx="875" cy="875" r="3.8" fill="#6366F1" opacity="0.1"/><circle cx="958.3333333333333" cy="875" r="3.8" fill="#6366F1" opacity="0.1"/><circle cx="41.666666666666664" cy="958.3333333333333" r="3.8" fill="#8B5CF6" opacity="0.1"/><circle cx="125" cy="958.3333333333333" r="3.8" fill="#8B5CF6" opacity="0.1"/><circle cx="208.33333333333331" cy="958.3333333333333" r="3.8" fill="#8B5CF6" opacity="0.1"/><circle cx="291.66666666666663" cy="958.3333333333333" r="3.8" fill="#8B5CF6" opacity="0.1"/><circle cx="375" cy="958.3333333333333" r="3.8" fill="#8B5CF6" opacity="0.1"/><circle cx="458.3333333333333" cy="958.3333333333333" r="3.8" fill="#8B5CF6" opacity="0.1"/><circle cx="541.6666666666666" cy="958.3333333333333" r="3.8" fill="#8B5CF6" opacity="0.1"/><circle cx="625" cy="958.3333333333333" r="3.8" fill="#8B5CF6" opacity="0.1"/><circle cx="708.3333333333333" cy="958.3333333333333" r="3.8" fill="#8B5CF6" opacity="0.1"/><circle cx="791.6666666666666" cy="958.3333333333333" r="3.8" fill="#8B5CF6" opacity="0.1"/><circle cx="875" cy="958.3333333333333" r="3.8" fill="#8B5CF6" opacity="0.1"/><circle cx="958.3333333333333" cy="958.3333333333333" r="3.8" fill="#8B5CF6" opacity="0.1"/>
    <text x="500" y="960" font-family="system-ui, sans-serif" font-size="36" font-weight="700" fill="white" text-anchor="middle" opacity="0.85">twitter alt</text>
  </svg>