<svg xmlns="http://www.w3.org/2000/svg" viewBox="0 0 1000 1000" width="1000" height="1000">
    <defs>
      <linearGradient id="g558" x1="0" y1="0" x2="1" y2="1">
        <stop offset="0%" stop-color="#6366F1"/>
        <stop offset="100%" stop-color="#8B5CF6"/>
      </linearGradient>
      <radialGradient id="glow558" cx="50%" cy="50%" r="60%">
        <stop offset="0%" stop-color="#A78BFA" stop-opacity="0.2"/>
        <stop offset="100%" stop-color="#A78BFA" stop-opacity="0"/>
      </radialGradient>
    </defs>
    <rect width="1000" height="1000" fill="#030712"/>
    <rect width="1000" height="1000" fill="url(#glow558)"/>
    <circle cx="586.0912290389731" cy="269.98334781464393" r="5.368" fill="#06B6D4" opacity="0.43679999999999997"/><circle cx="372.9840674840401" cy="389.43095873120217" r="3.824" fill="#6366F1" opacity="0.321"/><circle cx="419.8063525106213" cy="543.4329241745161" r="2.2800000000000002" fill="#8B5CF6" opacity="0.8051999999999999"/><circle cx="501.9290640695849" cy="513.8664599597531" r="8.736" fill="#06B6D4" opacity="0.6894"/><circle cx="828.6887654209702" cy="573.4706437023556" r="7.192" fill="#8B5CF6" opacity="0.5736"/><circle cx="641.8439724122161" cy="282.5777208050599" r="5.648" fill="#6366F1" opacity="0.4578"/><circle cx="391.86291600262285" cy="353.1118416462913" r="4.104" fill="#06B6D4" opacity="0.34199999999999997"/><circle cx="398.79468894914373" cy="528.7145436164226" r="2.56" fill="#6366F1" opacity="0.8262"/><circle cx="497.7154628760916" cy="527.9066459849529" r="9.016" fill="#8B5CF6" opacity="0.7104"/><circle cx="817.4133300050796" cy="649.3633754810276" r="7.472" fill="#06B6D4" opacity="0.5946"/><circle cx="695.880221754773" cy="308.9819413633859" r="5.928" fill="#8B5CF6" opacity="0.4788"/><circle cx="420.8691760258366" cy="320.2466336972518" r="4.384" fill="#6366F1" opacity="0.363"/><circle cx="380.9905352270102" cy="506.73700931025735" r="2.84" fill="#06B6D4" opacity="0.8472"/><circle cx="487.52425357376455" cy="540.104310879359" r="9.296" fill="#6366F1" opacity="0.7313999999999999"/><circle cx="788.2485485146519" cy="723.5884931726058" r="7.752" fill="#8B5CF6" opacity="0.6155999999999999"/><circle cx="744.7460129641534" cy="348.9597764231315" r="6.208" fill="#06B6D4" opacity="0.4998"/><circle cx="459.2771919220989" cy="293.5785551299225" r="4.664" fill="#8B5CF6" opacity="0.384"/><circle cx="368.57343223151196" cy="478.3367295960415" r="3.12" fill="#6366F1" opacity="0.8681999999999999"/><circle cx="472.1016341009885" cy="548.5559592652114" r="9.576" fill="#06B6D4" opacity="0.7524"/><circle cx="741.4562073168036" cy="791.870416363469" r="8.032" fill="#6366F1" opacity="0.6366"/><circle cx="785.0310234742291" cy="401.4105702560691" r="6.488" fill="#8B5CF6" opacity="0.5207999999999999"/><circle cx="505.63919341748493" cy="275.67086792482746" r="4.944" fill="#06B6D4" opacity="0.40499999999999997"/><circle cx="363.48007342913786" cy="444.95320491539576" r="3.4" fill="#8B5CF6" opacity="0.8892"/><circle cx="452.7267034315283" cy="551.6259182150721" r="9.856" fill="#6366F1" opacity="0.7734"/><circle cx="678.327468297694" cy="849.9873627011909" r="8.312000000000001" fill="#06B6D4" opacity="0.6576"/><circle cx="813.5837296001147" cy="464.38252493392906" r="6.768" fill="#6366F1" opacity="0.5418000000000001"/><circle cx="557.835656621625" cy="268.72181939675875" r="5.224" fill="#8B5CF6" opacity="0.426"/><circle cx="367.24654526229745" cy="408.5562454007669" r="3.6799999999999997" fill="#06B6D4" opacity="0.3102"/><circle cx="431.124022816662" cy="548.0842985499456" r="2.136" fill="#8B5CF6" opacity="0.7944"/><circle cx="501.691091232721" cy="506.58636549567467" r="8.591999999999999" fill="#6366F1" opacity="0.6786"/><circle cx="827.7215405148509" cy="535.1390364491257" r="7.048" fill="#06B6D4" opacity="0.5628"/><circle cx="613.171923741124" cy="274.3944245442209" r="5.504" fill="#6366F1" opacity="0.44699999999999995"/><circle cx="380.87216804783213" cy="371.53366334180754" r="3.96" fill="#8B5CF6" opacity="0.3312"/><circle cx="409.3424337302231" cy="537.2183513611366" r="2.416" fill="#06B6D4" opacity="0.8153999999999999"/><circle cx="500.65334378882505" cy="520.7897364556072" r="8.872" fill="#8B5CF6" opacity="0.6996"/><circle cx="825.4229775961942" cy="610.2762243297572" r="7.328" fill="#6366F1" opacity="0.5838"/><circle cx="668.5166911336563" cy="293.67238476305727" r="5.784" fill="#06B6D4" opacity="0.46799999999999997"/><circle cx="404.714490250514" cy="336.5456894671156" r="4.24" fill="#6366F1" opacity="0.35219999999999996"/><circle cx="389.6078053433122" cy="518.9093458078262" r="2.6959999999999997" fill="#8B5CF6" opacity="0.8364"/><circle cx="493.4791302524168" cy="534.1835963253584" r="9.152000000000001" fill="#06B6D4" opacity="0.7205999999999999"/><circle cx="805.4896095756679" cy="685.8866817211657" r="7.608" fill="#8B5CF6" opacity="0.6048"/><circle cx="720.4752763711078" cy="326.75216448947015" r="6.064" fill="#6366F1" opacity="0.489"/><circle cx="438.4232332106202" cy="306.35459780370115" r="4.52" fill="#06B6D4" opacity="0.3732"/><circle cx="374.1591434676418" cy="493.6692159093491" r="2.976" fill="#6366F1" opacity="0.8573999999999999"/><circle cx="480.61918293702274" cy="544.7864257333783" r="9.432" fill="#8B5CF6" opacity="0.7416"/><circle cx="767.6668336483463" cy="757.7615684400383" r="7.888" fill="#06B6D4" opacity="0.6258"/><circle cx="765.5882376379989" cy="372.97934015152566" r="6.344" fill="#8B5CF6" opacity="0.51"/><circle cx="480.9187201091786" cy="283.6397800941029" r="4.8" fill="#6366F1" opacity="0.3942"/><circle cx="365.07868503939864" cy="462.6337214951474" r="3.2560000000000002" fill="#06B6D4" opacity="0.8783999999999998"/><circle cx="463.0870861560327" cy="550.8062672467468" r="9.712" fill="#6366F1" opacity="0.7626"/><circle cx="712.7146477143226" cy="821.6206440012388" r="8.168" fill="#8B5CF6" opacity="0.6467999999999999"/><circle cx="800.5440875673803" cy="430.8348973232107" r="6.624" fill="#06B6D4" opacity="0.5309999999999999"/><circle cx="530.4176798221356" cy="270.8096756967301" r="5.08" fill="#8B5CF6" opacity="0.4152"/><circle cx="364.1271511290172" cy="427.5115944465388" r="3.536" fill="#6366F1" opacity="0.8994"/><circle cx="442.39146985238074" cy="550.7887512568565" r="9.992" fill="#06B6D4" opacity="0.7836000000000001"/><circle cx="642.422186733815" cy="873.3578454056621" r="8.448" fill="#6366F1" opacity="0.6678"/><circle cx="822.3936361000186" cy="497.9743143855038" r="6.904" fill="#8B5CF6" opacity="0.552"/><circle cx="584.5064447623917" cy="269.8224581032701" r="5.359999999999999" fill="#06B6D4" opacity="0.4362"/><circle cx="372.5951982314947" cy="390.4919341494524" r="3.816" fill="#8B5CF6" opacity="0.3204"/><circle cx="420.4313534520172" cy="543.7432336084357" r="2.2720000000000002" fill="#6366F1" opacity="0.8046"/><circle cx="501.95854664271064" cy="513.4582352129961" r="8.728" fill="#06B6D4" opacity="0.6888"/><circle cx="828.7529967683403" cy="571.3191917777792" r="7.184" fill="#6366F1" opacity="0.573"/><circle cx="640.2586285512862" cy="282.02716426831455" r="5.640000000000001" fill="#8B5CF6" opacity="0.4572"/><circle cx="391.1812930835315" cy="354.1148087535005" r="4.096" fill="#06B6D4" opacity="0.3414"/><circle cx="399.36122174105634" cy="529.2382679129112" r="2.552" fill="#8B5CF6" opacity="0.8255999999999999"/><circle cx="497.92098016742904" cy="527.521585647193" r="9.008" fill="#6366F1" opacity="0.7098"/><circle cx="817.9825423592074" cy="647.1980392354969" r="7.464" fill="#06B6D4" opacity="0.594"/><circle cx="694.3915470135767" cy="308.03602825095425" r="5.92" fill="#6366F1" opacity="0.47819999999999996"/><circle cx="419.90478135167564" cy="321.1124488689135" r="4.3759999999999994" fill="#8B5CF6" opacity="0.3624"/><circle cx="381.4344246627213" cy="507.45951372008244" r="2.832" fill="#06B6D4" opacity="0.8466"/><circle cx="487.89289545994393" cy="539.7992213448474" r="9.288" fill="#8B5CF6" opacity="0.7307999999999999"/><circle cx="789.3301012672712" cy="721.5298004799142" r="7.744" fill="#6366F1" opacity="0.615"/><circle cx="743.453103243636" cy="347.6371878671059" r="6.2" fill="#06B6D4" opacity="0.4992"/><circle cx="458.0609040919745" cy="294.23043899930815" r="4.656000000000001" fill="#6366F1" opacity="0.38339999999999996"/><circle cx="368.8349883689657" cy="479.22550304265735" r="3.112" fill="#8B5CF6" opacity="0.8675999999999999"/><circle cx="472.60435980991497" cy="548.3822167596256" r="9.568" fill="#06B6D4" opacity="0.7518"/><circle cx="743.0284039620195" cy="790.040953776658" r="8.024000000000001" fill="#8B5CF6" opacity="0.636"/><circle cx="784.0287494109307" cy="399.7547531896763" r="6.48" fill="#6366F1" opacity="0.5202"/><circle cx="504.2220504962513" cy="276.03979306669873" r="4.936" fill="#06B6D4" opacity="0.4044"/><circle cx="363.50881187160473" cy="445.9593156658892" r="3.392" fill="#6366F1" opacity="0.8886000000000001"/><circle cx="453.3202838730443" cy="551.6252273826162" r="9.847999999999999" fill="#8B5CF6" opacity="0.7727999999999999"/><circle cx="680.3391373078719" cy="848.5047425144348" r="8.304" fill="#06B6D4" opacity="0.657"/><circle cx="812.9565969604052" cy="462.46057513809706" r="6.76" fill="#8B5CF6" opacity="0.5412"/><circle cx="556.2867612916465" cy="268.7516475663076" r="5.216" fill="#6366F1" opacity="0.4254"/><circle cx="367.0054436566504" cy="409.61699284137745" r="3.6719999999999997" fill="#06B6D4" opacity="0.3096"/><circle cx="431.7540386400434" cy="548.2850780061016" r="2.128" fill="#6366F1" opacity="0.7938"/><circle cx="501.63053264437366" cy="506.18880952167956" r="8.584" fill="#8B5CF6" opacity="0.6779999999999999"/><circle cx="827.537874790244" cy="533.0390765290199" r="7.04" fill="#06B6D4" opacity="0.5622"/><circle cx="611.5750742218031" cy="274.04645873012055" r="5.496" fill="#8B5CF6" opacity="0.4464"/><circle cx="380.34116588366516" cy="372.5762839267373" r="3.952" fill="#6366F1" opacity="0.3306"/><circle cx="409.9471405886768" cy="537.6329976462739" r="2.408" fill="#06B6D4" opacity="0.8148"/><circle cx="500.76887972646665" cy="520.385505241868" r="8.864" fill="#6366F1" opacity="0.6990000000000001"/><circle cx="825.7297969606691" cy="608.1033735457006" r="7.32" fill="#8B5CF6" opacity="0.5831999999999999"/><circle cx="666.9659021033262" cy="292.9290277831717" r="5.776" fill="#06B6D4" opacity="0.46740000000000004"/><circle cx="403.8929807063299" cy="337.49190530165544" r="4.232" fill="#8B5CF6" opacity="0.35159999999999997"/><circle cx="390.1226202665407" cy="519.5325733816409" r="2.6879999999999997" fill="#6366F1" opacity="0.8357999999999999"/><circle cx="493.7665217312265" cy="533.8305150518394" r="9.144" fill="#06B6D4" opacity="0.72"/><circle cx="806.3085215923726" cy="683.757801466754" r="7.6" fill="#6366F1" opacity="0.6042"/><circle cx="719.0694269614446" cy="325.6194214633285" r="6.056" fill="#8B5CF6" opacity="0.48839999999999995"/><circle cx="437.33135354076063" cy="307.12573849534283" r="4.5120000000000005" fill="#06B6D4" opacity="0.3726"/>
    <text x="500" y="960" font-family="system-ui, sans-serif" font-size="36" font-weight="700" fill="white" text-anchor="middle" opacity="0.85">medium alt</text>
  </svg>