<svg xmlns="http://www.w3.org/2000/svg" viewBox="0 0 1000 1000" width="1000" height="1000">
    <defs>
      <linearGradient id="g559" x1="0" y1="0" x2="1" y2="1">
        <stop offset="0%" stop-color="#06B6D4"/>
        <stop offset="100%" stop-color="#0EA5E9"/>
      </linearGradient>
      <radialGradient id="glow559" cx="50%" cy="50%" r="60%">
        <stop offset="0%" stop-color="#67E8F9" stop-opacity="0.2"/>
        <stop offset="100%" stop-color="#67E8F9" stop-opacity="0"/>
      </radialGradient>
    </defs>
    <rect width="1000" height="1000" fill="#030712"/>
    <rect width="1000" height="1000" fill="url(#glow559)"/>
    <rect x="7.5" y="246.75" width="35" height="506.5" fill="#0EA5E9" opacity="0.6756" rx="4"/><rect x="57.5" y="293.5" width="35" height="413" fill="#06B6D4" opacity="0.5633999999999999" rx="4"/><rect x="107.5" y="340.25" width="35" height="319.5" fill="#0EA5E9" opacity="0.4512" rx="4"/><rect x="157.5" y="387" width="35" height="226" fill="#06B6D4" opacity="0.33899999999999997" rx="4"/><rect x="207.5" y="433.75" width="35" height="132.5" fill="#0EA5E9" opacity="0.8268" rx="4"/><rect x="257.5" y="230.5" width="35" height="539" fill="#06B6D4" opacity="0.7145999999999999" rx="4"/><rect x="307.5" y="277.25" width="35" height="445.5" fill="#0EA5E9" opacity="0.6024" rx="4"/><rect x="357.5" y="324" width="35" height="352" fill="#06B6D4" opacity="0.49019999999999997" rx="4"/><rect x="407.5" y="370.75" width="35" height="258.5" fill="#0EA5E9" opacity="0.378" rx="4"/><rect x="457.5" y="417.5" width="35" height="165" fill="#06B6D4" opacity="0.8657999999999999" rx="4"/><rect x="507.5" y="214.25" width="35" height="571.5" fill="#0EA5E9" opacity="0.7536" rx="4"/><rect x="557.5" y="261" width="35" height="478" fill="#06B6D4" opacity="0.6414" rx="4"/><rect x="607.5" y="307.75" width="35" height="384.5" fill="#0EA5E9" opacity="0.5292" rx="4"/><rect x="657.5" y="354.5" width="35" height="291" fill="#06B6D4" opacity="0.417" rx="4"/><rect x="707.5" y="401.25" width="35" height="197.5" fill="#0EA5E9" opacity="0.3048" rx="4"/><rect x="757.5" y="448" width="35" height="104" fill="#06B6D4" opacity="0.7926" rx="4"/><rect x="807.5" y="244.75" width="35" height="510.5" fill="#0EA5E9" opacity="0.6804" rx="4"/><rect x="857.5" y="291.5" width="35" height="417" fill="#06B6D4" opacity="0.5682" rx="4"/><rect x="907.5" y="338.25" width="35" height="323.5" fill="#0EA5E9" opacity="0.45599999999999996" rx="4"/><rect x="957.5" y="385" width="35" height="230" fill="#06B6D4" opacity="0.3438" rx="4"/>
    <text x="500" y="960" font-family="system-ui, sans-serif" font-size="36" font-weight="700" fill="white" text-anchor="middle" opacity="0.85">khan academy alt</text>
  </svg>