<svg xmlns="http://www.w3.org/2000/svg" viewBox="0 0 1000 1000" width="1000" height="1000">
    <defs>
      <linearGradient id="g561" x1="0" y1="0" x2="1" y2="1">
        <stop offset="0%" stop-color="#F59E0B"/>
        <stop offset="100%" stop-color="#EF4444"/>
      </linearGradient>
      <radialGradient id="glow561" cx="50%" cy="50%" r="60%">
        <stop offset="0%" stop-color="#FCD34D" stop-opacity="0.2"/>
        <stop offset="100%" stop-color="#FCD34D" stop-opacity="0"/>
      </radialGradient>
    </defs>
    <rect width="1000" height="1000" fill="#030712"/>
    <rect width="1000" height="1000" fill="url(#glow561)"/>
    <line x1="684.8" y1="669.6" x2="669.6" y2="654.4" stroke="#F59E0B" stroke-width="1" opacity="0.36929136264561285"/><line x1="684.8" y1="669.6" x2="654.4" y2="639.2" stroke="#F59E0B" stroke-width="1" opacity="0.3385827252912257"/><line x1="684.8" y1="669.6" x2="639.2" y2="624" stroke="#F59E0B" stroke-width="1" opacity="0.30787408793683846"/><line x1="684.8" y1="669.6" x2="624" y2="608.8" stroke="#F59E0B" stroke-width="1" opacity="0.2771654505824512"/><line x1="684.8" y1="669.6" x2="608.8" y2="593.6" stroke="#F59E0B" stroke-width="1" opacity="0.24645681322806398"/><line x1="684.8" y1="669.6" x2="593.6" y2="578.4" stroke="#F59E0B" stroke-width="1" opacity="0.21574817587367678"/><line x1="684.8" y1="669.6" x2="578.4" y2="563.2" stroke="#F59E0B" stroke-width="1" opacity="0.18503953851928964"/><line x1="684.8" y1="669.6" x2="563.2" y2="548" stroke="#F59E0B" stroke-width="1" opacity="0.15433090116490245"/><line x1="684.8" y1="669.6" x2="548" y2="532.8" stroke="#F59E0B" stroke-width="1" opacity="0.12362226381051516"/><line x1="684.8" y1="669.6" x2="532.8" y2="517.6" stroke="#F59E0B" stroke-width="1" opacity="0.09291362645612794"/><line x1="684.8" y1="669.6" x2="517.6" y2="502.4" stroke="#F59E0B" stroke-width="1" opacity="0.06220498910174077"/><line x1="684.8" y1="669.6" x2="502.4" y2="487.20000000000005" stroke="#F59E0B" stroke-width="1" opacity="0.031496351747353546"/><line x1="684.8" y1="669.6" x2="487.20000000000005" y2="472" stroke="#F59E0B" stroke-width="1" opacity="0.0007877143929663766"/><line x1="669.6" y1="654.4" x2="654.4" y2="639.2" stroke="#F59E0B" stroke-width="1" opacity="0.36929136264561285"/><line x1="669.6" y1="654.4" x2="639.2" y2="624" stroke="#F59E0B" stroke-width="1" opacity="0.3385827252912257"/><line x1="669.6" y1="654.4" x2="624" y2="608.8" stroke="#F59E0B" stroke-width="1" opacity="0.30787408793683835"/><line x1="669.6" y1="654.4" x2="608.8" y2="593.6" stroke="#F59E0B" stroke-width="1" opacity="0.2771654505824512"/><line x1="669.6" y1="654.4" x2="593.6" y2="578.4" stroke="#F59E0B" stroke-width="1" opacity="0.24645681322806398"/><line x1="669.6" y1="654.4" x2="578.4" y2="563.2" stroke="#F59E0B" stroke-width="1" opacity="0.21574817587367678"/><line x1="669.6" y1="654.4" x2="563.2" y2="548" stroke="#F59E0B" stroke-width="1" opacity="0.18503953851928964"/><line x1="669.6" y1="654.4" x2="548" y2="532.8" stroke="#F59E0B" stroke-width="1" opacity="0.15433090116490233"/><line x1="669.6" y1="654.4" x2="532.8" y2="517.6" stroke="#F59E0B" stroke-width="1" opacity="0.12362226381051516"/><line x1="669.6" y1="654.4" x2="517.6" y2="502.4" stroke="#F59E0B" stroke-width="1" opacity="0.09291362645612794"/><line x1="669.6" y1="654.4" x2="502.4" y2="487.20000000000005" stroke="#F59E0B" stroke-width="1" opacity="0.06220498910174077"/><line x1="669.6" y1="654.4" x2="487.20000000000005" y2="472" stroke="#F59E0B" stroke-width="1" opacity="0.031496351747353546"/><line x1="669.6" y1="654.4" x2="472" y2="456.8" stroke="#F59E0B" stroke-width="1" opacity="0.0007877143929663766"/><line x1="654.4" y1="639.2" x2="639.2" y2="624" stroke="#F59E0B" stroke-width="1" opacity="0.36929136264561285"/><line x1="654.4" y1="639.2" x2="624" y2="608.8" stroke="#F59E0B" stroke-width="1" opacity="0.3385827252912255"/><line x1="654.4" y1="639.2" x2="608.8" y2="593.6" stroke="#F59E0B" stroke-width="1" opacity="0.30787408793683835"/><line x1="654.4" y1="639.2" x2="593.6" y2="578.4" stroke="#F59E0B" stroke-width="1" opacity="0.2771654505824512"/><line x1="654.4" y1="639.2" x2="578.4" y2="563.2" stroke="#F59E0B" stroke-width="1" opacity="0.24645681322806398"/><line x1="654.4" y1="639.2" x2="563.2" y2="548" stroke="#F59E0B" stroke-width="1" opacity="0.21574817587367678"/><line x1="654.4" y1="639.2" x2="548" y2="532.8" stroke="#F59E0B" stroke-width="1" opacity="0.1850395385192895"/><line x1="654.4" y1="639.2" x2="532.8" y2="517.6" stroke="#F59E0B" stroke-width="1" opacity="0.15433090116490233"/><line x1="654.4" y1="639.2" x2="517.6" y2="502.4" stroke="#F59E0B" stroke-width="1" opacity="0.12362226381051516"/><line x1="654.4" y1="639.2" x2="502.4" y2="487.20000000000005" stroke="#F59E0B" stroke-width="1" opacity="0.09291362645612794"/><line x1="654.4" y1="639.2" x2="487.20000000000005" y2="472" stroke="#F59E0B" stroke-width="1" opacity="0.06220498910174077"/><line x1="654.4" y1="639.2" x2="472" y2="456.8" stroke="#F59E0B" stroke-width="1" opacity="0.031496351747353546"/><line x1="654.4" y1="639.2" x2="456.8" y2="441.6" stroke="#F59E0B" stroke-width="1" opacity="0.0007877143929663766"/><line x1="639.2" y1="624" x2="624" y2="608.8" stroke="#F59E0B" stroke-width="1" opacity="0.36929136264561274"/><line x1="639.2" y1="624" x2="608.8" y2="593.6" stroke="#F59E0B" stroke-width="1" opacity="0.3385827252912255"/><line x1="639.2" y1="624" x2="593.6" y2="578.4" stroke="#F59E0B" stroke-width="1" opacity="0.30787408793683835"/><line x1="639.2" y1="624" x2="578.4" y2="563.2" stroke="#F59E0B" stroke-width="1" opacity="0.2771654505824512"/><line x1="639.2" y1="624" x2="563.2" y2="548" stroke="#F59E0B" stroke-width="1" opacity="0.24645681322806398"/><line x1="639.2" y1="624" x2="548" y2="532.8" stroke="#F59E0B" stroke-width="1" opacity="0.2157481758736767"/><line x1="639.2" y1="624" x2="532.8" y2="517.6" stroke="#F59E0B" stroke-width="1" opacity="0.1850395385192895"/><line x1="639.2" y1="624" x2="517.6" y2="502.4" stroke="#F59E0B" stroke-width="1" opacity="0.15433090116490233"/><line x1="639.2" y1="624" x2="502.4" y2="487.20000000000005" stroke="#F59E0B" stroke-width="1" opacity="0.12362226381051516"/><line x1="639.2" y1="624" x2="487.20000000000005" y2="472" stroke="#F59E0B" stroke-width="1" opacity="0.09291362645612794"/><line x1="639.2" y1="624" x2="472" y2="456.8" stroke="#F59E0B" stroke-width="1" opacity="0.062204989101740715"/><line x1="639.2" y1="624" x2="456.8" y2="441.6" stroke="#F59E0B" stroke-width="1" opacity="0.031496351747353546"/><line x1="624" y1="608.8" x2="608.8" y2="593.6" stroke="#F59E0B" stroke-width="1" opacity="0.36929136264561285"/><line x1="624" y1="608.8" x2="593.6" y2="578.4" stroke="#F59E0B" stroke-width="1" opacity="0.3385827252912257"/><line x1="624" y1="608.8" x2="578.4" y2="563.2" stroke="#F59E0B" stroke-width="1" opacity="0.30787408793683846"/><line x1="624" y1="608.8" x2="563.2" y2="548" stroke="#F59E0B" stroke-width="1" opacity="0.2771654505824513"/><line x1="624" y1="608.8" x2="548" y2="532.8" stroke="#F59E0B" stroke-width="1" opacity="0.24645681322806398"/><line x1="624" y1="608.8" x2="532.8" y2="517.6" stroke="#F59E0B" stroke-width="1" opacity="0.21574817587367678"/><line x1="624" y1="608.8" x2="517.6" y2="502.4" stroke="#F59E0B" stroke-width="1" opacity="0.18503953851928964"/><line x1="624" y1="608.8" x2="502.4" y2="487.20000000000005" stroke="#F59E0B" stroke-width="1" opacity="0.15433090116490245"/><line x1="624" y1="608.8" x2="487.20000000000005" y2="472" stroke="#F59E0B" stroke-width="1" opacity="0.12362226381051528"/><line x1="624" y1="608.8" x2="472" y2="456.8" stroke="#F59E0B" stroke-width="1" opacity="0.092913626456128"/><line x1="624" y1="608.8" x2="456.8" y2="441.6" stroke="#F59E0B" stroke-width="1" opacity="0.062204989101740826"/><line x1="608.8" y1="593.6" x2="593.6" y2="578.4" stroke="#F59E0B" stroke-width="1" opacity="0.36929136264561285"/><line x1="608.8" y1="593.6" x2="578.4" y2="563.2" stroke="#F59E0B" stroke-width="1" opacity="0.3385827252912257"/><line x1="608.8" y1="593.6" x2="563.2" y2="548" stroke="#F59E0B" stroke-width="1" opacity="0.30787408793683846"/><line x1="608.8" y1="593.6" x2="548" y2="532.8" stroke="#F59E0B" stroke-width="1" opacity="0.2771654505824512"/><line x1="608.8" y1="593.6" x2="532.8" y2="517.6" stroke="#F59E0B" stroke-width="1" opacity="0.24645681322806398"/><line x1="608.8" y1="593.6" x2="517.6" y2="502.4" stroke="#F59E0B" stroke-width="1" opacity="0.21574817587367678"/><line x1="608.8" y1="593.6" x2="502.4" y2="487.20000000000005" stroke="#F59E0B" stroke-width="1" opacity="0.18503953851928964"/><line x1="608.8" y1="593.6" x2="487.20000000000005" y2="472" stroke="#F59E0B" stroke-width="1" opacity="0.15433090116490245"/><line x1="608.8" y1="593.6" x2="472" y2="456.8" stroke="#F59E0B" stroke-width="1" opacity="0.12362226381051522"/><line x1="608.8" y1="593.6" x2="456.8" y2="441.6" stroke="#F59E0B" stroke-width="1" opacity="0.092913626456128"/><line x1="593.6" y1="578.4" x2="578.4" y2="563.2" stroke="#F59E0B" stroke-width="1" opacity="0.36929136264561285"/><line x1="593.6" y1="578.4" x2="563.2" y2="548" stroke="#F59E0B" stroke-width="1" opacity="0.3385827252912257"/><line x1="593.6" y1="578.4" x2="548" y2="532.8" stroke="#F59E0B" stroke-width="1" opacity="0.30787408793683835"/><line x1="593.6" y1="578.4" x2="532.8" y2="517.6" stroke="#F59E0B" stroke-width="1" opacity="0.2771654505824512"/><line x1="593.6" y1="578.4" x2="517.6" y2="502.4" stroke="#F59E0B" stroke-width="1" opacity="0.24645681322806398"/><line x1="593.6" y1="578.4" x2="502.4" y2="487.20000000000005" stroke="#F59E0B" stroke-width="1" opacity="0.21574817587367678"/><line x1="593.6" y1="578.4" x2="487.20000000000005" y2="472" stroke="#F59E0B" stroke-width="1" opacity="0.18503953851928964"/><line x1="593.6" y1="578.4" x2="472" y2="456.8" stroke="#F59E0B" stroke-width="1" opacity="0.15433090116490242"/><line x1="593.6" y1="578.4" x2="456.8" y2="441.6" stroke="#F59E0B" stroke-width="1" opacity="0.12362226381051522"/><line x1="578.4" y1="563.2" x2="563.2" y2="548" stroke="#F59E0B" stroke-width="1" opacity="0.36929136264561285"/><line x1="578.4" y1="563.2" x2="548" y2="532.8" stroke="#F59E0B" stroke-width="1" opacity="0.3385827252912255"/><line x1="578.4" y1="563.2" x2="532.8" y2="517.6" stroke="#F59E0B" stroke-width="1" opacity="0.30787408793683835"/><line x1="578.4" y1="563.2" x2="517.6" y2="502.4" stroke="#F59E0B" stroke-width="1" opacity="0.2771654505824512"/><line x1="578.4" y1="563.2" x2="502.4" y2="487.20000000000005" stroke="#F59E0B" stroke-width="1" opacity="0.24645681322806398"/><line x1="578.4" y1="563.2" x2="487.20000000000005" y2="472" stroke="#F59E0B" stroke-width="1" opacity="0.21574817587367678"/><line x1="578.4" y1="563.2" x2="472" y2="456.8" stroke="#F59E0B" stroke-width="1" opacity="0.18503953851928956"/><line x1="578.4" y1="563.2" x2="456.8" y2="441.6" stroke="#F59E0B" stroke-width="1" opacity="0.15433090116490242"/><line x1="563.2" y1="548" x2="548" y2="532.8" stroke="#F59E0B" stroke-width="1" opacity="0.36929136264561274"/><line x1="563.2" y1="548" x2="532.8" y2="517.6" stroke="#F59E0B" stroke-width="1" opacity="0.3385827252912255"/><line x1="563.2" y1="548" x2="517.6" y2="502.4" stroke="#F59E0B" stroke-width="1" opacity="0.30787408793683835"/><line x1="563.2" y1="548" x2="502.4" y2="487.20000000000005" stroke="#F59E0B" stroke-width="1" opacity="0.2771654505824512"/><line x1="563.2" y1="548" x2="487.20000000000005" y2="472" stroke="#F59E0B" stroke-width="1" opacity="0.24645681322806398"/><line x1="563.2" y1="548" x2="472" y2="456.8" stroke="#F59E0B" stroke-width="1" opacity="0.21574817587367673"/><line x1="563.2" y1="548" x2="456.8" y2="441.6" stroke="#F59E0B" stroke-width="1" opacity="0.18503953851928956"/><line x1="548" y1="532.8" x2="532.8" y2="517.6" stroke="#F59E0B" stroke-width="1" opacity="0.36929136264561285"/><line x1="548" y1="532.8" x2="517.6" y2="502.4" stroke="#F59E0B" stroke-width="1" opacity="0.3385827252912257"/><line x1="548" y1="532.8" x2="502.4" y2="487.20000000000005" stroke="#F59E0B" stroke-width="1" opacity="0.30787408793683846"/><line x1="548" y1="532.8" x2="487.20000000000005" y2="472" stroke="#F59E0B" stroke-width="1" opacity="0.2771654505824513"/><line x1="548" y1="532.8" x2="472" y2="456.8" stroke="#F59E0B" stroke-width="1" opacity="0.24645681322806404"/><line x1="548" y1="532.8" x2="456.8" y2="441.6" stroke="#F59E0B" stroke-width="1" opacity="0.21574817587367687"/><line x1="532.8" y1="517.6" x2="517.6" y2="502.4" stroke="#F59E0B" stroke-width="1" opacity="0.36929136264561285"/><line x1="532.8" y1="517.6" x2="502.4" y2="487.20000000000005" stroke="#F59E0B" stroke-width="1" opacity="0.3385827252912257"/><line x1="532.8" y1="517.6" x2="487.20000000000005" y2="472" stroke="#F59E0B" stroke-width="1" opacity="0.30787408793683846"/><line x1="532.8" y1="517.6" x2="472" y2="456.8" stroke="#F59E0B" stroke-width="1" opacity="0.27716545058245123"/><line x1="532.8" y1="517.6" x2="456.8" y2="441.6" stroke="#F59E0B" stroke-width="1" opacity="0.24645681322806404"/><line x1="517.6" y1="502.4" x2="502.4" y2="487.20000000000005" stroke="#F59E0B" stroke-width="1" opacity="0.36929136264561285"/><line x1="517.6" y1="502.4" x2="487.20000000000005" y2="472" stroke="#F59E0B" stroke-width="1" opacity="0.3385827252912257"/><line x1="517.6" y1="502.4" x2="472" y2="456.8" stroke="#F59E0B" stroke-width="1" opacity="0.3078740879368384"/><line x1="517.6" y1="502.4" x2="456.8" y2="441.6" stroke="#F59E0B" stroke-width="1" opacity="0.27716545058245123"/><line x1="502.4" y1="487.20000000000005" x2="487.20000000000005" y2="472" stroke="#F59E0B" stroke-width="1" opacity="0.36929136264561285"/><line x1="502.4" y1="487.20000000000005" x2="472" y2="456.8" stroke="#F59E0B" stroke-width="1" opacity="0.3385827252912256"/><line x1="502.4" y1="487.20000000000005" x2="456.8" y2="441.6" stroke="#F59E0B" stroke-width="1" opacity="0.3078740879368384"/><line x1="487.20000000000005" y1="472" x2="472" y2="456.8" stroke="#F59E0B" stroke-width="1" opacity="0.3692913626456128"/><line x1="487.20000000000005" y1="472" x2="456.8" y2="441.6" stroke="#F59E0B" stroke-width="1" opacity="0.3385827252912256"/><line x1="472" y1="456.8" x2="456.8" y2="441.6" stroke="#F59E0B" stroke-width="1" opacity="0.36929136264561285"/><circle cx="684.8" cy="669.6" r="6" fill="#EC4899" opacity="0.8"/><circle cx="669.6" cy="654.4" r="6" fill="#EC4899" opacity="0.8"/><circle cx="654.4" cy="639.2" r="6" fill="#EC4899" opacity="0.8"/><circle cx="639.2" cy="624" r="6" fill="#EC4899" opacity="0.8"/><circle cx="624" cy="608.8" r="6" fill="#EC4899" opacity="0.8"/><circle cx="608.8" cy="593.6" r="6" fill="#EC4899" opacity="0.8"/><circle cx="593.6" cy="578.4" r="6" fill="#EC4899" opacity="0.8"/><circle cx="578.4" cy="563.2" r="6" fill="#EC4899" opacity="0.8"/><circle cx="563.2" cy="548" r="6" fill="#EC4899" opacity="0.8"/><circle cx="548" cy="532.8" r="6" fill="#EC4899" opacity="0.8"/><circle cx="532.8" cy="517.6" r="6" fill="#EC4899" opacity="0.8"/><circle cx="517.6" cy="502.4" r="6" fill="#EC4899" opacity="0.8"/><circle cx="502.4" cy="487.20000000000005" r="6" fill="#EC4899" opacity="0.8"/><circle cx="487.20000000000005" cy="472" r="6" fill="#EC4899" opacity="0.8"/><circle cx="472" cy="456.8" r="6" fill="#EC4899" opacity="0.8"/><circle cx="456.8" cy="441.6" r="6" fill="#EC4899" opacity="0.8"/>
    <text x="500" y="960" font-family="system-ui, sans-serif" font-size="36" font-weight="700" fill="white" text-anchor="middle" opacity="0.85">udemy alt</text>
  </svg>