<svg xmlns="http://www.w3.org/2000/svg" viewBox="0 0 1000 1000" width="1000" height="1000">
    <defs>
      <linearGradient id="g562" x1="0" y1="0" x2="1" y2="1">
        <stop offset="0%" stop-color="#EC4899"/>
        <stop offset="100%" stop-color="#F43F5E"/>
      </linearGradient>
      <radialGradient id="glow562" cx="50%" cy="50%" r="60%">
        <stop offset="0%" stop-color="#F9A8D4" stop-opacity="0.2"/>
        <stop offset="100%" stop-color="#F9A8D4" stop-opacity="0"/>
      </radialGradient>
    </defs>
    <rect width="1000" height="1000" fill="#030712"/>
    <rect width="1000" height="1000" fill="url(#glow562)"/>
    <circle cx="471.19628407492905" cy="493.18047297037293" r="6.888" fill="#8B5CF6" opacity="0.3888"/><circle cx="718.4548440625689" cy="609.5848580124039" r="3.184" fill="#EC4899" opacity="0.7110000000000001"/><circle cx="454.6236139968865" cy="461.9786429319462" r="7.48" fill="#F43F5E" opacity="0.4332"/><circle cx="663.8259653577602" cy="719.6293538546201" r="3.776" fill="#8B5CF6" opacity="0.7554"/><circle cx="464.7332673116315" cy="418.50338923926245" r="8.072" fill="#F43F5E" opacity="0.47759999999999997"/><circle cx="553.1370007048938" cy="798.9137319630668" r="4.368" fill="#EC4899" opacity="0.7998"/><circle cx="506.6917944826717" cy="381.78925646709735" r="8.664" fill="#8B5CF6" opacity="0.522"/><circle cx="405.03158174500396" cy="819.3794601005897" r="4.96" fill="#EC4899" opacity="0.8442000000000001"/><circle cx="573.7313955902446" cy="371.6735362276554" r="9.256" fill="#F43F5E" opacity="0.5664"/><circle cx="251.64630996907172" cy="764.4698180284881" r="5.552" fill="#8B5CF6" opacity="0.8886000000000001"/><circle cx="648.1323298096992" cy="402.02769337639074" r="9.847999999999999" fill="#F43F5E" opacity="0.6108"/><circle cx="131.64083425661983" cy="635.2378830536804" r="6.144" fill="#EC4899" opacity="0.33299999999999996"/><circle cx="705.7252756668654" cy="475.323068428343" r="2.44" fill="#8B5CF6" opacity="0.6552"/><circle cx="478.1405511685598" cy="497.5171595327834" r="6.736" fill="#EC4899" opacity="0.37739999999999996"/><circle cx="722.8005660883606" cy="580.213139514085" r="3.032" fill="#F43F5E" opacity="0.6996"/><circle cx="456.7835531338255" cy="471.80605170851175" r="7.328" fill="#8B5CF6" opacity="0.4218"/><circle cx="683.5799185543897" cy="693.0475938818292" r="3.624" fill="#F43F5E" opacity="0.744"/><circle cx="459.1057960271762" cy="429.8494185239418" r="7.92" fill="#EC4899" opacity="0.4662"/><circle cx="586.1467053811684" cy="783.1867672614138" r="4.216" fill="#8B5CF6" opacity="0.7884"/><circle cx="493.0428104361521" cy="389.4186384901475" r="8.512" fill="#EC4899" opacity="0.5105999999999999"/><circle cx="445.02783040153383" cy="820.9258801805138" r="4.808" fill="#F43F5E" opacity="0.8328"/><circle cx="554.9488628239432" cy="370.7994486298318" r="9.104" fill="#8B5CF6" opacity="0.5549999999999999"/><circle cx="289.4172574787918" cy="786.0453610045905" r="5.4" fill="#F43F5E" opacity="0.8772"/><circle cx="629.6152268719461" cy="390.0004865331945" r="9.696" fill="#EC4899" opacity="0.5993999999999999"/><circle cx="157.14068949231608" cy="674.6955442997776" r="5.992" fill="#8B5CF6" opacity="0.3216"/><circle cx="693.9376938897689" cy="452.79480019406446" r="2.288" fill="#EC4899" opacity="0.6437999999999999"/><circle cx="485.60028424367164" cy="500.09047727310406" r="6.584" fill="#F43F5E" opacity="0.366"/><circle cx="723.3615592426835" cy="551.4028584095981" r="2.88" fill="#8B5CF6" opacity="0.6881999999999999"/><circle cx="460.54779438144965" cy="480.51863783428837" r="7.176" fill="#F43F5E" opacity="0.4104"/><circle cx="699.4088272303743" cy="664.9653285469609" r="3.472" fill="#EC4899" opacity="0.7325999999999999"/><circle cx="455.62438573168777" cy="441.28232924996115" r="7.768" fill="#8B5CF6" opacity="0.4548"/><circle cx="616.1982160598203" cy="763.9555541838727" r="4.064" fill="#EC4899" opacity="0.7769999999999999"/><circle cx="481.29956519367937" cy="398.508454844482" r="8.36" fill="#F43F5E" opacity="0.4992"/><circle cx="484.02230681883333" cy="817.5983522007136" r="4.656000000000001" fill="#8B5CF6" opacity="0.8213999999999999"/><circle cx="537.0500188820097" cy="372.47299854210195" r="8.952" fill="#F43F5E" opacity="0.5436"/><circle cx="328.7279760778139" cy="802.4758731231271" r="5.248" fill="#EC4899" opacity="0.8657999999999999"/><circle cx="610.4244287045208" cy="380.9193317734562" r="9.544" fill="#8B5CF6" opacity="0.588"/><circle cx="186.69922682333942" cy="710.0534825393445" r="5.84" fill="#EC4899" opacity="0.3102"/><circle cx="679.817578255653" cy="432.6974105232782" r="2.136" fill="#F43F5E" opacity="0.6324000000000001"/><circle cx="493.25362003106153" cy="500.85226598823726" r="6.432" fill="#8B5CF6" opacity="0.35459999999999997"/><circle cx="720.3370551519749" cy="523.6250317873976" r="2.7279999999999998" fill="#F43F5E" opacity="0.6768"/><circle cx="465.6751444934997" cy="487.8853685793633" r="7.024" fill="#EC4899" opacity="0.399"/><circle cx="711.2452790733" cy="635.9296585342712" r="3.3200000000000003" fill="#8B5CF6" opacity="0.7212"/><circle cx="454.2188818163549" cy="452.4596043573981" r="7.616" fill="#EC4899" opacity="0.4434"/><circle cx="642.9388295427042" cy="741.6963611827073" r="3.912" fill="#F43F5E" opacity="0.7656000000000001"/><circle cx="471.60282480123544" cy="408.71494952222093" r="8.208" fill="#8B5CF6" opacity="0.4878"/><circle cx="521.4362319817516" cy="809.6589219745243" r="4.504" fill="#F43F5E" opacity="0.81"/><circle cx="520.3621730823995" cy="376.4669197851749" r="8.8" fill="#EC4899" opacity="0.5322"/><circle cx="368.9014426256852" cy="813.708731555839" r="5.096" fill="#8B5CF6" opacity="0.8544"/><circle cx="590.9891570548748" cy="374.7641692707581" r="9.392" fill="#EC4899" opacity="0.5766"/><circle cx="219.70943610928833" cy="740.9177448712048" r="5.688000000000001" fill="#F43F5E" opacity="0.8988"/><circle cx="663.7723611612176" cy="415.25347370139764" r="9.984" fill="#8B5CF6" opacity="0.621"/><circle cx="112.72546268114979" cy="596.8456129335266" r="6.28" fill="#F43F5E" opacity="0.3432"/><circle cx="713.9831034596166" cy="497.3108674649625" r="2.576" fill="#EC4899" opacity="0.6654"/><circle cx="471.89359725616407" cy="493.71747464777957" r="6.872" fill="#8B5CF6" opacity="0.3876"/><circle cx="719.095119281568" cy="606.4814007561672" r="3.168" fill="#EC4899" opacity="0.7098"/><circle cx="454.76902128439394" cy="463.05790254427353" r="7.464" fill="#F43F5E" opacity="0.432"/><circle cx="666.0865573301662" cy="716.9181769105886" r="3.76" fill="#8B5CF6" opacity="0.7542"/><circle cx="464.0388814232013" cy="419.6831403084917" r="8.056000000000001" fill="#F43F5E" opacity="0.47639999999999993"/><circle cx="556.7390620565575" cy="797.436579520647" r="4.352" fill="#EC4899" opacity="0.7986"/><circle cx="505.1706507141809" cy="382.51372688185256" r="8.648" fill="#8B5CF6" opacity="0.5207999999999999"/><circle cx="409.27077663404117" cy="819.777998035215" r="4.944" fill="#EC4899" opacity="0.843"/><circle cx="571.7232185067688" cy="371.45576665197973" r="9.24" fill="#F43F5E" opacity="0.5651999999999999"/><circle cx="255.52952346018918" cy="766.979748483659" r="5.536" fill="#8B5CF6" opacity="0.8874"/><circle cx="646.2278455317426" cy="400.62365879574327" r="9.832" fill="#F43F5E" opacity="0.6095999999999999"/><circle cx="134.1167861339908" cy="639.570891704109" r="6.128" fill="#EC4899" opacity="0.3318"/><circle cx="704.6058950527462" cy="472.84511628335287" r="2.424" fill="#8B5CF6" opacity="0.6539999999999999"/><circle cx="478.9070384399964" cy="497.87233164515425" r="6.72" fill="#EC4899" opacity="0.3762"/><circle cx="723.034885742434" cy="577.1455749985664" r="3.016" fill="#F43F5E" opacity="0.6984"/><circle cx="457.1081413844976" cy="472.77999881506696" r="7.312" fill="#8B5CF6" opacity="0.4206"/><circle cx="685.4327352846664" cy="690.1527298905984" r="3.608" fill="#F43F5E" opacity="0.7427999999999999"/><circle cx="458.6390614839669" cy="431.05485684203035" r="7.904" fill="#EC4899" opacity="0.46499999999999997"/><circle cx="589.4560115955949" cy="781.3195016158829" r="4.2" fill="#8B5CF6" opacity="0.7872"/><circle cx="491.7140513919274" cy="390.31252097133245" r="8.496" fill="#EC4899" opacity="0.5094"/><circle cx="449.19008575493297" cy="820.8011730253007" r="4.792" fill="#F43F5E" opacity="0.8315999999999999"/><circle cx="553.0171617348435" cy="370.85922192590965" r="9.088000000000001" fill="#8B5CF6" opacity="0.5538"/><circle cx="293.4944940054567" cy="788.0188118750884" r="5.384" fill="#F43F5E" opacity="0.8759999999999999"/><circle cx="627.6193336205488" cy="388.9056901265998" r="9.68" fill="#EC4899" opacity="0.5982"/><circle cx="160.0711764483372" cy="678.6180139817441" r="5.976" fill="#8B5CF6" opacity="0.3204"/><circle cx="692.5543324323719" cy="450.56045043162675" r="2.2720000000000002" fill="#EC4899" opacity="0.6426"/><circle cx="486.402416007621" cy="500.25633878012957" r="6.568" fill="#F43F5E" opacity="0.3648"/><circle cx="723.2080394229754" cy="548.4224239061973" r="2.864" fill="#8B5CF6" opacity="0.687"/><circle cx="461.0278129552936" cy="481.3610988265826" r="7.16" fill="#F43F5E" opacity="0.4092"/><circle cx="700.843273804292" cy="661.9443712130007" r="3.456" fill="#EC4899" opacity="0.7313999999999999"/><circle cx="455.3803664940633" cy="442.4767150990497" r="7.752" fill="#8B5CF6" opacity="0.4536"/><circle cx="619.1744170936686" cy="761.7464771690047" r="4.048" fill="#EC4899" opacity="0.7758"/><circle cx="480.18053447159184" cy="399.5363310138026" r="8.344000000000001" fill="#F43F5E" opacity="0.498"/><circle cx="488.04467405709676" cy="816.9746207215949" r="4.640000000000001" fill="#8B5CF6" opacity="0.8202"/><circle cx="535.2310625902895" cy="372.7884744657187" r="8.936" fill="#F43F5E" opacity="0.5424"/><circle cx="332.92782582152506" cy="803.9031566392118" r="5.232" fill="#EC4899" opacity="0.8646"/><circle cx="608.3827891683339" cy="380.1345295254197" r="9.527999999999999" fill="#8B5CF6" opacity="0.5868"/><circle cx="190.0223302526599" cy="713.5200324513111" r="5.824" fill="#EC4899" opacity="0.309"/><circle cx="678.2119967020099" cy="430.7329498860908" r="2.12" fill="#F43F5E" opacity="0.6312"/><circle cx="494.0572314458201" cy="500.82674174410784" r="6.416" fill="#8B5CF6" opacity="0.3534"/><circle cx="719.8200817843601" cy="520.779115580728" r="2.7119999999999997" fill="#F43F5E" opacity="0.6756"/><circle cx="466.2833003421871" cy="488.57440749086334" r="7.008" fill="#EC4899" opacity="0.3978"/><circle cx="712.2585551957048" cy="632.8400005504062" r="3.3040000000000003" fill="#8B5CF6" opacity="0.72"/><circle cx="454.187221969115" cy="453.6078738459546" r="7.6" fill="#EC4899" opacity="0.4422"/><circle cx="645.5488559337987" cy="739.1976808758027" r="3.896" fill="#F43F5E" opacity="0.7644"/><circle cx="470.705188933255" cy="409.8398422552194" r="8.192" fill="#8B5CF6" opacity="0.4866"/>
    <text x="500" y="960" font-family="system-ui, sans-serif" font-size="36" font-weight="700" fill="white" text-anchor="middle" opacity="0.85">duolingo alt</text>
  </svg>