<svg xmlns="http://www.w3.org/2000/svg" viewBox="0 0 1000 1000" width="1000" height="1000">
    <defs>
      <linearGradient id="g568" x1="0" y1="0" x2="1" y2="1">
        <stop offset="0%" stop-color="#EC4899"/>
        <stop offset="100%" stop-color="#F43F5E"/>
      </linearGradient>
      <radialGradient id="glow568" cx="50%" cy="50%" r="60%">
        <stop offset="0%" stop-color="#F9A8D4" stop-opacity="0.2"/>
        <stop offset="100%" stop-color="#F9A8D4" stop-opacity="0"/>
      </radialGradient>
    </defs>
    <rect width="1000" height="1000" fill="#030712"/>
    <rect width="1000" height="1000" fill="url(#glow568)"/>
    <line x1="480.8" y1="661.6" x2="442.4" y2="623.2" stroke="#EC4899" stroke-width="1" opacity="0.3224202845783902"/><line x1="480.8" y1="661.6" x2="404" y2="584.8" stroke="#EC4899" stroke-width="1" opacity="0.24484056915678037"/><line x1="480.8" y1="661.6" x2="365.6" y2="546.4" stroke="#EC4899" stroke-width="1" opacity="0.16726085373517063"/><line x1="480.8" y1="661.6" x2="327.2" y2="508" stroke="#EC4899" stroke-width="1" opacity="0.08968113831356084"/><line x1="480.8" y1="661.6" x2="508" y2="688.8" stroke="#EC4899" stroke-width="1" opacity="0.34504770157635983"/><line x1="480.8" y1="661.6" x2="469.6" y2="650.4" stroke="#EC4899" stroke-width="1" opacity="0.37737258300203047"/><line x1="480.8" y1="661.6" x2="431.20000000000005" y2="612" stroke="#EC4899" stroke-width="1" opacity="0.29979286758042073"/><line x1="480.8" y1="661.6" x2="392.8" y2="573.6" stroke="#EC4899" stroke-width="1" opacity="0.22221315215881093"/><line x1="661.6" y1="442.4" x2="623.2" y2="404" stroke="#EC4899" stroke-width="1" opacity="0.3224202845783903"/><line x1="661.6" y1="442.4" x2="584.8" y2="365.6" stroke="#EC4899" stroke-width="1" opacity="0.24484056915678043"/><line x1="661.6" y1="442.4" x2="546.4" y2="327.2" stroke="#EC4899" stroke-width="1" opacity="0.16726085373517063"/><line x1="661.6" y1="442.4" x2="688.8" y2="469.6" stroke="#EC4899" stroke-width="1" opacity="0.3450477015763598"/><line x1="661.6" y1="442.4" x2="650.4" y2="431.20000000000005" stroke="#EC4899" stroke-width="1" opacity="0.3773725830020305"/><line x1="661.6" y1="442.4" x2="612" y2="392.8" stroke="#EC4899" stroke-width="1" opacity="0.29979286758042073"/><line x1="442.4" y1="623.2" x2="404" y2="584.8" stroke="#EC4899" stroke-width="1" opacity="0.32242028457839017"/><line x1="442.4" y1="623.2" x2="365.6" y2="546.4" stroke="#EC4899" stroke-width="1" opacity="0.24484056915678043"/><line x1="442.4" y1="623.2" x2="327.2" y2="508" stroke="#EC4899" stroke-width="1" opacity="0.16726085373517063"/><line x1="442.4" y1="623.2" x2="508" y2="688.8" stroke="#EC4899" stroke-width="1" opacity="0.26746798615475004"/><line x1="442.4" y1="623.2" x2="469.6" y2="650.4" stroke="#EC4899" stroke-width="1" opacity="0.3450477015763598"/><line x1="442.4" y1="623.2" x2="431.20000000000005" y2="612" stroke="#EC4899" stroke-width="1" opacity="0.3773725830020305"/><line x1="442.4" y1="623.2" x2="392.8" y2="573.6" stroke="#EC4899" stroke-width="1" opacity="0.29979286758042073"/><line x1="623.2" y1="404" x2="584.8" y2="365.6" stroke="#EC4899" stroke-width="1" opacity="0.32242028457839017"/><line x1="623.2" y1="404" x2="546.4" y2="327.2" stroke="#EC4899" stroke-width="1" opacity="0.24484056915678037"/><line x1="623.2" y1="404" x2="688.8" y2="469.6" stroke="#EC4899" stroke-width="1" opacity="0.26746798615475004"/><line x1="623.2" y1="404" x2="650.4" y2="431.20000000000005" stroke="#EC4899" stroke-width="1" opacity="0.3450477015763598"/><line x1="623.2" y1="404" x2="612" y2="392.8" stroke="#EC4899" stroke-width="1" opacity="0.37737258300203047"/><line x1="404" y1="584.8" x2="365.6" y2="546.4" stroke="#EC4899" stroke-width="1" opacity="0.3224202845783903"/><line x1="404" y1="584.8" x2="327.2" y2="508" stroke="#EC4899" stroke-width="1" opacity="0.24484056915678049"/><line x1="404" y1="584.8" x2="508" y2="688.8" stroke="#EC4899" stroke-width="1" opacity="0.18988827073314019"/><line x1="404" y1="584.8" x2="469.6" y2="650.4" stroke="#EC4899" stroke-width="1" opacity="0.2674679861547499"/><line x1="404" y1="584.8" x2="431.20000000000005" y2="612" stroke="#EC4899" stroke-width="1" opacity="0.34504770157635967"/><line x1="404" y1="584.8" x2="392.8" y2="573.6" stroke="#EC4899" stroke-width="1" opacity="0.3773725830020306"/><line x1="584.8" y1="365.6" x2="546.4" y2="327.2" stroke="#EC4899" stroke-width="1" opacity="0.3224202845783902"/><line x1="584.8" y1="365.6" x2="688.8" y2="469.6" stroke="#EC4899" stroke-width="1" opacity="0.18988827073314019"/><line x1="584.8" y1="365.6" x2="650.4" y2="431.20000000000005" stroke="#EC4899" stroke-width="1" opacity="0.2674679861547499"/><line x1="584.8" y1="365.6" x2="612" y2="392.8" stroke="#EC4899" stroke-width="1" opacity="0.3450477015763597"/><line x1="365.6" y1="546.4" x2="327.2" y2="508" stroke="#EC4899" stroke-width="1" opacity="0.3224202845783902"/><line x1="365.6" y1="546.4" x2="508" y2="688.8" stroke="#EC4899" stroke-width="1" opacity="0.11230855531153044"/><line x1="365.6" y1="546.4" x2="469.6" y2="650.4" stroke="#EC4899" stroke-width="1" opacity="0.18988827073314019"/><line x1="365.6" y1="546.4" x2="431.20000000000005" y2="612" stroke="#EC4899" stroke-width="1" opacity="0.2674679861547499"/><line x1="365.6" y1="546.4" x2="392.8" y2="573.6" stroke="#EC4899" stroke-width="1" opacity="0.3450477015763597"/><line x1="546.4" y1="327.2" x2="688.8" y2="469.6" stroke="#EC4899" stroke-width="1" opacity="0.11230855531153039"/><line x1="546.4" y1="327.2" x2="650.4" y2="431.20000000000005" stroke="#EC4899" stroke-width="1" opacity="0.1898882707331401"/><line x1="546.4" y1="327.2" x2="612" y2="392.8" stroke="#EC4899" stroke-width="1" opacity="0.2674679861547499"/><line x1="327.2" y1="508" x2="508" y2="688.8" stroke="#EC4899" stroke-width="1" opacity="0.03472883988992065"/><line x1="327.2" y1="508" x2="469.6" y2="650.4" stroke="#EC4899" stroke-width="1" opacity="0.11230855531153039"/><line x1="327.2" y1="508" x2="431.20000000000005" y2="612" stroke="#EC4899" stroke-width="1" opacity="0.1898882707331401"/><line x1="327.2" y1="508" x2="392.8" y2="573.6" stroke="#EC4899" stroke-width="1" opacity="0.2674679861547499"/><line x1="508" y1="688.8" x2="469.6" y2="650.4" stroke="#EC4899" stroke-width="1" opacity="0.3224202845783903"/><line x1="508" y1="688.8" x2="431.20000000000005" y2="612" stroke="#EC4899" stroke-width="1" opacity="0.24484056915678054"/><line x1="508" y1="688.8" x2="392.8" y2="573.6" stroke="#EC4899" stroke-width="1" opacity="0.16726085373517077"/><line x1="688.8" y1="469.6" x2="650.4" y2="431.20000000000005" stroke="#EC4899" stroke-width="1" opacity="0.3224202845783903"/><line x1="688.8" y1="469.6" x2="612" y2="392.8" stroke="#EC4899" stroke-width="1" opacity="0.24484056915678049"/><line x1="469.6" y1="650.4" x2="431.20000000000005" y2="612" stroke="#EC4899" stroke-width="1" opacity="0.3224202845783903"/><line x1="469.6" y1="650.4" x2="392.8" y2="573.6" stroke="#EC4899" stroke-width="1" opacity="0.24484056915678049"/><line x1="650.4" y1="431.20000000000005" x2="612" y2="392.8" stroke="#EC4899" stroke-width="1" opacity="0.3224202845783902"/><line x1="431.20000000000005" y1="612" x2="392.8" y2="573.6" stroke="#EC4899" stroke-width="1" opacity="0.3224202845783902"/><circle cx="480.8" cy="661.6" r="6" fill="#8B5CF6" opacity="0.8"/><circle cx="661.6" cy="442.4" r="6" fill="#8B5CF6" opacity="0.8"/><circle cx="442.4" cy="623.2" r="6" fill="#8B5CF6" opacity="0.8"/><circle cx="623.2" cy="404" r="6" fill="#8B5CF6" opacity="0.8"/><circle cx="404" cy="584.8" r="6" fill="#8B5CF6" opacity="0.8"/><circle cx="584.8" cy="365.6" r="6" fill="#8B5CF6" opacity="0.8"/><circle cx="365.6" cy="546.4" r="6" fill="#8B5CF6" opacity="0.8"/><circle cx="546.4" cy="327.2" r="6" fill="#8B5CF6" opacity="0.8"/><circle cx="327.2" cy="508" r="6" fill="#8B5CF6" opacity="0.8"/><circle cx="508" cy="688.8" r="6" fill="#8B5CF6" opacity="0.8"/><circle cx="688.8" cy="469.6" r="6" fill="#8B5CF6" opacity="0.8"/><circle cx="469.6" cy="650.4" r="6" fill="#8B5CF6" opacity="0.8"/><circle cx="650.4" cy="431.20000000000005" r="6" fill="#8B5CF6" opacity="0.8"/><circle cx="431.20000000000005" cy="612" r="6" fill="#8B5CF6" opacity="0.8"/><circle cx="612" cy="392.8" r="6" fill="#8B5CF6" opacity="0.8"/><circle cx="392.8" cy="573.6" r="6" fill="#8B5CF6" opacity="0.8"/>
    <text x="500" y="960" font-family="system-ui, sans-serif" font-size="36" font-weight="700" fill="white" text-anchor="middle" opacity="0.85">triangle alt</text>
  </svg>