<svg xmlns="http://www.w3.org/2000/svg" viewBox="0 0 1000 1000" width="1000" height="1000">
    <defs>
      <linearGradient id="g572" x1="0" y1="0" x2="1" y2="1">
        <stop offset="0%" stop-color="#10B981"/>
        <stop offset="100%" stop-color="#14B8A6"/>
      </linearGradient>
      <radialGradient id="glow572" cx="50%" cy="50%" r="60%">
        <stop offset="0%" stop-color="#6EE7B7" stop-opacity="0.2"/>
        <stop offset="100%" stop-color="#6EE7B7" stop-opacity="0"/>
      </radialGradient>
    </defs>
    <rect width="1000" height="1000" fill="#030712"/>
    <rect width="1000" height="1000" fill="url(#glow572)"/>
    <path d="M 0 500 L 0 591.463735740877 L 16.666666666666668 623.7256219794972 L 33.333333333333336 643.8764008527771 L 50 649.9435447683384 L 66.66666666666667 641.333168060638 L 83.33333333333333 618.8881267673269 L 100 584.8054659020278 L 116.66666666666667 542.4214827563371 L 133.33333333333334 495.8849564574938 L 150 449.75127331364905 L 166.66666666666666 408.5362538655934 L 183.33333333333331 376.274370606572 L 200 356.12359543862044 L 216.66666666666669 350.0564555914086 L 233.33333333333334 358.6668243520154 L 250 381.1118812286868 L 266.6666666666667 415.19451541592196 L 283.3333333333333 457.5785298217377 L 300 504.1150209016609 L 316.66666666666663 550.2487390420896 L 333.3333333333333 591.4637281828001 L 350 623.725636807358 L 366.66666666666663 643.8763981559158 L 383.33333333333337 649.9435440488433 L 400 641.3331712551017 L 416.6666666666667 618.8881107752986 L 433.33333333333337 584.8054737676398 L 450 542.4214576001872 L 466.6666666666667 495.8849659898576 L 483.3333333333333 449.7512822986256 L 500 408.53626142366977 L 516.6666666666667 376.27437599791233 L 533.3333333333334 356.12359813548096 L 550 350.05645532980395 L 566.6666666666666 358.6668331377824 L 583.3333333333334 381.11187541406116 L 600 415.1945370487991 L 616.6666666666667 457.57852067508054 L 633.3333333333333 504.11504711862386 L 650 550.2487300571133 L 666.6666666666666 591.4637489698596 L 683.3333333333334 623.7256314160184 L 700 643.8763954590539 L 716.6666666666666 649.9435443104488 L 733.3333333333333 641.3331744495647 L 750 618.888116589925 L 766.6666666666667 584.8054816332515 L 783.3333333333334 542.4214667468445 L 800 495.88497552222145 L 816.6666666666666 449.7512575871482 L 833.3333333333334 408.53626898174656 L 850 376.27436117005203 L 866.6666666666667 356.12360083234205 L 883.3333333333333 350.05645604929964 L 900 358.6668299433186 L 916.6666666666666 381.1118695994359 L 933.3333333333334 415.19452918318694 L 950 457.57851152842363 L 966.6666666666666 504.1150375862601 L 983.3333333333333 550.2487210721368 L 1000 591.4637414117833" stroke="#10B981" stroke-width="3" fill="none" opacity="0.7"/><path d="M 0 500 L 0 629.2587465746716 L 16.666666666666668 610.7763699332452 L 33.333333333333336 588.1521857645456 L 50 562.9279705769368 L 66.66666666666667 536.8227579475699 L 83.33333333333333 511.615552230781 L 100 489.0241821566177 L 116.66666666666667 470.5881971595839 L 133.33333333333334 457.5640120380007 L 150 450.8391842349357 L 166.66666666666666 450.8719994697391 L 183.33333333333331 457.66022143927745 L 200 470.74125875600475 L 216.66666666666669 489.2236370091547 L 233.33333333333334 511.84782231646506 L 250 537.0720144501965 L 266.6666666666667 563.1772507184754 L 283.3333333333333 588.3844558418187 L 300 610.9758247724025 L 316.66666666666663 629.4117936634407 L 333.3333333333333 642.4359822011808 L 350 649.1608168952637 L 366.66666666666663 649.12799937827 L 383.33333333333337 642.3397752050477 L 400 629.2587504510886 L 416.6666666666667 610.7763749816926 L 433.33333333333337 588.152169602524 L 450 562.9279768808893 L 466.6666666666667 536.8227642494361 L 483.3333333333333 511.6155581010994 L 500 489.02416829857793 L 516.6666666666667 470.58820102332055 L 533.3333333333334 457.56401446344955 L 550 450.8391850568065 L 566.6666666666666 450.8719986320227 L 583.3333333333334 457.6602281506279 L 600 470.7412548795873 L 616.6666666666667 489.22363196070705 L 633.3333333333333 511.8478164400305 L 650 537.072031788025 L 666.6666666666666 563.1772444166093 L 683.3333333333334 588.3844499715005 L 700 610.9758197336845 L 716.6666666666666 629.4117897997032 L 733.3333333333333 642.4359888719194 L 750 649.1608160733934 L 766.6666666666667 649.128000215987 L 783.3333333333334 642.3397776452628 L 800 629.2587397897362 L 816.6666666666666 610.7763610968929 L 833.3333333333334 588.1521754789588 L 850 562.9279831848418 L 866.6666666666667 536.8227705513024 L 883.3333333333333 511.6155419558998 L 900 489.02417333729545 L 916.6666666666666 470.58820488705754 L 933.3333333333334 457.56401688889883 L 950 450.8391827964074 L 966.6666666666666 450.8720009360041 L 983.3333333333333 457.6602257104123 L 1000 470.74125100317013" stroke="#14B8A6" stroke-width="2" fill="none" opacity="0.5"/>
    <text x="500" y="960" font-family="system-ui, sans-serif" font-size="36" font-weight="700" fill="white" text-anchor="middle" opacity="0.85">spiral alt</text>
  </svg>