<svg xmlns="http://www.w3.org/2000/svg" viewBox="0 0 1000 1000" width="1000" height="1000">
    <defs>
      <linearGradient id="g573" x1="0" y1="0" x2="1" y2="1">
        <stop offset="0%" stop-color="#F59E0B"/>
        <stop offset="100%" stop-color="#EF4444"/>
      </linearGradient>
      <radialGradient id="glow573" cx="50%" cy="50%" r="60%">
        <stop offset="0%" stop-color="#FCD34D" stop-opacity="0.2"/>
        <stop offset="100%" stop-color="#FCD34D" stop-opacity="0"/>
      </radialGradient>
    </defs>
    <rect width="1000" height="1000" fill="#030712"/>
    <rect width="1000" height="1000" fill="url(#glow573)"/>
    <circle cx="562.6945655151085" cy="626.9643708087893" r="6.248" fill="#EC4899" opacity="0.7247999999999999"/><circle cx="370.87560476966587" cy="668.6435606728003" r="7.664" fill="#F59E0B" opacity="0.831"/><circle cx="222.15516546004778" cy="445.1867906479963" r="9.08" fill="#EF4444" opacity="0.3372"/><circle cx="407.66210677337625" cy="158.25489985302113" r="2.496" fill="#EC4899" opacity="0.4434"/><circle cx="518.6027545268354" cy="483.5994657399734" r="3.912" fill="#EF4444" opacity="0.5496"/><circle cx="588.4373809733742" cy="536.3068815318842" r="5.327999999999999" fill="#F59E0B" opacity="0.6557999999999999"/><circle cx="511.49158827887715" cy="666.0027210585079" r="6.744" fill="#EC4899" opacity="0.762"/><circle cx="295.07736544185946" cy="619.4594234280025" r="8.16" fill="#F59E0B" opacity="0.8681999999999999"/><circle cx="243.10384244714317" cy="330.09307184644365" r="9.576" fill="#EF4444" opacity="0.37439999999999996"/><circle cx="547.4762288741584" cy="124.18695114207583" r="2.992" fill="#EC4899" opacity="0.48059999999999997"/><circle cx="546.8751285289184" cy="483.7863537291148" r="4.4079999999999995" fill="#EF4444" opacity="0.5868"/><circle cx="585.668895535998" cy="584.5990563637814" r="5.824" fill="#F59E0B" opacity="0.6930000000000001"/><circle cx="439.77457744190576" cy="681.4671829221443" r="7.24" fill="#EC4899" opacity="0.7991999999999999"/><circle cx="240.49910646747736" cy="536.1010561593753" r="8.655999999999999" fill="#F59E0B" opacity="0.3054"/><circle cx="312.93865185081086" cy="224.7475848814259" r="2.072" fill="#EF4444" opacity="0.41159999999999997"/><circle cx="501.77381842957385" cy="496.8673384831897" r="3.488" fill="#EC4899" opacity="0.5178"/><circle cx="574.2810753281077" cy="504.2049789654626" r="4.904" fill="#EF4444" opacity="0.624"/><circle cx="556.8274564247617" cy="633.6176642375244" r="6.32" fill="#F59E0B" opacity="0.7302"/><circle cx="359.20391533501027" cy="663.8061737023639" r="7.736" fill="#EC4899" opacity="0.8364"/><circle cx="222.2103493883086" cy="428.67574036111955" r="9.152000000000001" fill="#F59E0B" opacity="0.34259999999999996"/><circle cx="426.3835311038902" cy="150.0594686132112" r="2.568" fill="#EF4444" opacity="0.4488"/><circle cx="522.33059147268" cy="482.4527869882345" r="3.984" fill="#EC4899" opacity="0.5549999999999999"/><circle cx="589.4916887693257" cy="542.8004397315511" r="5.4" fill="#EF4444" opacity="0.6612"/><circle cx="502.13622678017" cy="669.9865775146487" r="6.816" fill="#F59E0B" opacity="0.7674"/><circle cx="285.4456289754411" cy="609.3209123372828" r="8.232" fill="#EC4899" opacity="0.8735999999999999"/><circle cx="250.23172751423476" cy="313.6928072792772" r="9.648" fill="#F59E0B" opacity="0.37979999999999997"/><circle cx="569.2930840110173" cy="123.93055360978593" r="3.064" fill="#EF4444" opacity="0.486"/><circle cx="551.1798721283798" cy="485.4789570304782" r="4.48" fill="#EC4899" opacity="0.5922"/><circle cx="583.1650114905533" cy="591.9759798196037" r="5.896" fill="#EF4444" opacity="0.6984"/><circle cx="428.28933713702475" cy="681.1204594510314" r="7.312" fill="#F59E0B" opacity="0.8046"/><circle cx="235.28552951416162" cy="521.6704664325027" r="8.728" fill="#EC4899" opacity="0.31079999999999997"/><circle cx="326.9425408359011" cy="211.52803285645547" r="2.144" fill="#F59E0B" opacity="0.417"/><circle cx="503.8960730153135" cy="493.9451990074532" r="3.56" fill="#EF4444" opacity="0.5232"/><circle cx="577.5016822205606" cy="508.80279802013155" r="4.976" fill="#EC4899" opacity="0.6294"/><circle cx="550.4042025324994" cy="640.0030584203887" r="6.392" fill="#EF4444" opacity="0.7356"/><circle cx="347.67373404350803" cy="658.1798618653844" r="7.808" fill="#F59E0B" opacity="0.8417999999999999"/><circle cx="223.2547992233997" cy="411.99855769864234" r="9.224" fill="#EC4899" opacity="0.348"/><circle cx="445.73851720958237" cy="142.8989898006655" r="2.64" fill="#F59E0B" opacity="0.4542"/><circle cx="526.2384674984145" cy="481.68217198097307" r="4.056" fill="#EF4444" opacity="0.5604"/><circle cx="590.0843267085091" cy="549.5242776976563" r="5.4719999999999995" fill="#EC4899" opacity="0.6666"/><circle cx="492.3671346600187" cy="673.4321174601224" r="6.888" fill="#EF4444" opacity="0.7727999999999999"/><circle cx="276.31505741144775" cy="598.4703328884192" r="8.304" fill="#F59E0B" opacity="0.879"/><circle cx="258.40140425369293" cy="297.56196371874057" r="9.719999999999999" fill="#EC4899" opacity="0.3852"/><circle cx="591.2886128511577" cy="124.95015109493585" r="3.136" fill="#F59E0B" opacity="0.49139999999999995"/><circle cx="555.4320720781209" cy="487.6094638886763" r="4.552" fill="#EF4444" opacity="0.5975999999999999"/><circle cx="580.0934177006934" cy="599.3317896799522" r="5.968" fill="#EC4899" opacity="0.7038"/><circle cx="416.65499148309766" cy="680.0449098289575" r="7.384" fill="#EF4444" opacity="0.81"/><circle cx="230.88501624493563" cy="506.7650216933465" r="8.8" fill="#F59E0B" opacity="0.3162"/><circle cx="341.8486334536641" cy="199.02135414696528" r="2.216" fill="#EC4899" opacity="0.4224"/><circle cx="506.3480807247587" cy="491.26261646075056" r="3.6319999999999997" fill="#F59E0B" opacity="0.5286"/><circle cx="580.4285989641583" cy="513.776809088559" r="5.048" fill="#EF4444" opacity="0.6348"/><circle cx="543.4369356004244" cy="646.078720646248" r="6.464" fill="#EC4899" opacity="0.741"/><circle cx="336.3374067231247" cy="651.765594130844" r="7.88" fill="#EF4444" opacity="0.8472"/><circle cx="225.30729091775612" cy="395.21490765830424" r="9.296" fill="#F59E0B" opacity="0.3534"/><circle cx="465.6692873014058" cy="136.8189953127964" r="2.7119999999999997" fill="#EC4899" opacity="0.4596"/><circle cx="530.295403551891" cy="481.3037831733779" r="4.128" fill="#F59E0B" opacity="0.5658"/><circle cx="590.1929323994528" cy="556.4463900102365" r="5.5440000000000005" fill="#EF4444" opacity="0.6719999999999999"/><circle cx="482.2159041283647" cy="676.3053202090864" r="6.96" fill="#EC4899" opacity="0.7782"/><circle cx="267.7356280864483" cy="586.9325114074322" r="8.376000000000001" fill="#EF4444" opacity="0.8843999999999999"/><circle cx="267.604801578054" cy="281.766382629934" r="9.792" fill="#F59E0B" opacity="0.3906"/><circle cx="613.3876905962948" cy="127.26498471267968" r="3.208" fill="#EC4899" opacity="0.4968"/><circle cx="559.5958310301552" cy="490.176715222229" r="4.6240000000000006" fill="#F59E0B" opacity="0.603"/><circle cx="576.4489909325172" cy="606.625474373622" r="6.04" fill="#EF4444" opacity="0.7092"/><circle cx="404.9178057026028" cy="678.2228277398606" r="7.456" fill="#EC4899" opacity="0.8153999999999999"/><circle cx="227.3346103322284" cy="491.43114492348667" r="8.872" fill="#EF4444" opacity="0.3216"/><circle cx="357.6205503707075" cy="187.2875884726355" r="2.288" fill="#F59E0B" opacity="0.42779999999999996"/><circle cx="509.109010331549" cy="488.84715593313825" r="3.7039999999999997" fill="#EC4899" opacity="0.534"/><circle cx="583.0296895614164" cy="519.1078688328872" r="5.12" fill="#F59E0B" opacity="0.6401999999999999"/><circle cx="535.9407505615482" cy="651.8033677132117" r="6.536" fill="#EF4444" opacity="0.7464"/><circle cx="325.24759653845103" cy="644.5677608750028" r="7.952" fill="#EC4899" opacity="0.8526"/><circle cx="228.38298358871748" cy="378.38603535846266" r="9.368" fill="#EF4444" opacity="0.3588"/><circle cx="486.1149367043959" cy="131.86175827920692" r="2.784" fill="#F59E0B" opacity="0.46499999999999997"/><circle cx="534.4691993594698" cy="481.3314624162168" r="4.2" fill="#EC4899" opacity="0.5711999999999999"/><circle cx="589.7973175788902" cy="563.5329973764494" r="5.616" fill="#F59E0B" opacity="0.6774"/><circle cx="471.7166487207262" cy="678.5740519796009" r="7.032" fill="#EF4444" opacity="0.7836000000000001"/><circle cx="259.7560805417446" cy="574.735661924782" r="8.448" fill="#EC4899" opacity="0.8897999999999999"/><circle cx="277.8297081759188" cy="266.37183082769616" r="9.864" fill="#EF4444" opacity="0.396"/><circle cx="635.5135973922202" cy="130.88984717049675" r="3.2800000000000002" fill="#F59E0B" opacity="0.5022"/><circle cx="563.6352505854079" cy="493.1768861263833" r="4.696" fill="#EC4899" opacity="0.6084"/><circle cx="572.2294519631687" cy="613.8154043576717" r="6.112" fill="#F59E0B" opacity="0.7145999999999999"/><circle cx="393.1255543571821" cy="675.6394399573751" r="7.528" fill="#EF4444" opacity="0.8208"/><circle cx="224.66867043282713" cy="475.71792927337464" r="8.943999999999999" fill="#EC4899" opacity="0.327"/><circle cx="374.2179926801817" cy="176.38490975450918" r="2.36" fill="#EF4444" opacity="0.4332"/><circle cx="512.1559905461785" cy="486.72476388755285" r="3.776" fill="#F59E0B" opacity="0.5394"/><circle cx="585.2740792881125" cy="524.7744102162835" r="5.192" fill="#EC4899" opacity="0.6456"/><circle cx="527.9336802124541" cy="657.1364677908612" r="6.608" fill="#F59E0B" opacity="0.7518"/><circle cx="314.45706313215754" cy="636.5942113651081" r="8.024000000000001" fill="#EF4444" opacity="0.8580000000000001"/><circle cx="232.49330161736032" cy="361.574545980808" r="9.440000000000001" fill="#EC4899" opacity="0.36419999999999997"/><circle cx="507.01161957413166" cy="128.06608491433906" r="2.856" fill="#EF4444" opacity="0.47039999999999993"/><circle cx="538.7265978455456" cy="481.77664632101494" r="4.272" fill="#F59E0B" opacity="0.5766"/><circle cx="588.8795960815004" cy="570.7486918634496" r="5.688000000000001" fill="#EC4899" opacity="0.6828"/><circle cx="460.9058889303732" cy="680.2082419859748" r="7.104" fill="#F59E0B" opacity="0.7889999999999999"/><circle cx="252.42369257572497" cy="561.911323698988" r="8.52" fill="#EF4444" opacity="0.8952"/><circle cx="289.05975652836116" cy="251.443741410268" r="9.936" fill="#EC4899" opacity="0.4014"/><circle cx="657.5882830038806" cy="135.83496452859612" r="3.3520000000000003" fill="#EF4444" opacity="0.5075999999999999"/><circle cx="567.5146182665668" cy="496.6034840910475" r="4.768" fill="#F59E0B" opacity="0.6138"/><circle cx="567.435417400386" cy="620.859523745693" r="6.184" fill="#EC4899" opacity="0.72"/><circle cx="381.3273358426826" cy="672.283019423867" r="7.6" fill="#F59E0B" opacity="0.8262"/><circle cx="222.91868679125776" cy="459.67698088536935" r="9.016" fill="#EF4444" opacity="0.3324"/><circle cx="391.5968383732684" cy="166.36937408366015" r="2.432" fill="#EC4899" opacity="0.4386"/>
    <text x="500" y="960" font-family="system-ui, sans-serif" font-size="36" font-weight="700" fill="white" text-anchor="middle" opacity="0.85">wave shape alt</text>
  </svg>