<svg xmlns="http://www.w3.org/2000/svg" viewBox="0 0 1000 1000" width="1000" height="1000">
    <defs>
      <linearGradient id="g575" x1="0" y1="0" x2="1" y2="1">
        <stop offset="0%" stop-color="#8B5CF6"/>
        <stop offset="100%" stop-color="#6366F1"/>
      </linearGradient>
      <radialGradient id="glow575" cx="50%" cy="50%" r="60%">
        <stop offset="0%" stop-color="#C4B5FD" stop-opacity="0.2"/>
        <stop offset="100%" stop-color="#C4B5FD" stop-opacity="0"/>
      </radialGradient>
    </defs>
    <rect width="1000" height="1000" fill="#0F172A"/>
    <rect width="1000" height="1000" fill="url(#glow575)"/>
    <circle cx="322.13180989259513" cy="723.4508155006736" r="2.568" fill="#06B6D4" opacity="0.5568"/><circle cx="493.6307103890376" cy="472.3234368128612" r="5.4239999999999995" fill="#8B5CF6" opacity="0.7709999999999999"/><circle cx="654.4453338438364" cy="573.8652750205802" r="8.280000000000001" fill="#6366F1" opacity="0.3852"/><circle cx="217.58675100815947" cy="637.2543507283929" r="3.136" fill="#06B6D4" opacity="0.5993999999999999"/><circle cx="512.3905361113236" cy="444.5679279218792" r="5.992" fill="#6366F1" opacity="0.8135999999999999"/><circle cx="625.2871957136239" cy="655.3810753927778" r="8.847999999999999" fill="#8B5CF6" opacity="0.42779999999999996"/><circle cx="157.6067586828587" cy="502.15134849380746" r="3.7039999999999997" fill="#06B6D4" opacity="0.6419999999999999"/><circle cx="552.6416390352965" cy="433.00822558196006" r="6.56" fill="#8B5CF6" opacity="0.8562000000000001"/><circle cx="552.5287892822627" cy="721.8664605039248" r="9.416" fill="#6366F1" opacity="0.47039999999999993"/><circle cx="164.4901289455999" cy="342.1210386876712" r="4.272" fill="#06B6D4" opacity="0.6846"/><circle cx="601.8584217788027" cy="449.7026649539808" r="7.128" fill="#6366F1" opacity="0.8988"/><circle cx="445.64137701598526" cy="750.5715468828848" r="9.984" fill="#8B5CF6" opacity="0.513"/><circle cx="247.47799136428065" cy="190.8183783686655" r="4.84" fill="#06B6D4" opacity="0.7272"/><circle cx="641.9887882769419" cy="498.21562233656385" r="7.696" fill="#8B5CF6" opacity="0.3414"/><circle cx="325.4440711196323" cy="725.0361475245967" r="2.552" fill="#6366F1" opacity="0.5556"/><circle cx="493.4726276821452" cy="473.182964171555" r="5.4079999999999995" fill="#06B6D4" opacity="0.7698"/><circle cx="654.6353459418063" cy="571.5826081213718" r="8.264" fill="#6366F1" opacity="0.384"/><circle cx="220.04886595582417" cy="640.4336232793981" r="3.12" fill="#8B5CF6" opacity="0.5982"/><circle cx="511.5283060911134" cy="445.1994693577736" r="5.976" fill="#06B6D4" opacity="0.8124"/><circle cx="626.7198891620395" cy="653.1780326638269" r="8.832" fill="#8B5CF6" opacity="0.4266"/><circle cx="158.46068442671572" cy="506.4386270067835" r="3.6879999999999997" fill="#6366F1" opacity="0.6407999999999999"/><circle cx="551.3093171254247" cy="432.9872103541227" r="6.544" fill="#06B6D4" opacity="0.855"/><circle cx="555.1185452367166" cy="720.4127627225521" r="9.4" fill="#6366F1" opacity="0.46919999999999995"/><circle cx="163.26079084655152" cy="346.68103503248506" r="4.256" fill="#8B5CF6" opacity="0.6834"/><circle cx="600.5055359284479" cy="448.7898716293791" r="7.112" fill="#06B6D4" opacity="0.8976"/><circle cx="448.9541289805176" cy="750.4509513894135" r="9.968" fill="#8B5CF6" opacity="0.5118"/><circle cx="244.12654297444868" cy="194.62918608715512" r="4.824" fill="#6366F1" opacity="0.726"/><circle cx="641.1554075268019" cy="496.4516305234007" r="7.68" fill="#06B6D4" opacity="0.3402"/><circle cx="328.7680101603171" cy="726.5736208289543" r="2.536" fill="#6366F1" opacity="0.5544"/><circle cx="493.3351110239819" cy="474.0419712817527" r="5.3919999999999995" fill="#8B5CF6" opacity="0.7686"/><circle cx="654.7924932236341" cy="569.3068830752848" r="8.248000000000001" fill="#06B6D4" opacity="0.3828"/><circle cx="222.54617339064868" cy="643.5727484581529" r="3.104" fill="#8B5CF6" opacity="0.597"/><circle cx="510.68393063640747" cy="445.843803437128" r="5.96" fill="#6366F1" opacity="0.8111999999999999"/><circle cx="628.11708039075" cy="650.9636171802667" r="8.815999999999999" fill="#06B6D4" opacity="0.4254"/><circle cx="159.36816422735865" cy="510.7047866938261" r="3.6719999999999997" fill="#6366F1" opacity="0.6396"/><circle cx="549.9848565836086" cy="432.9890000647947" r="6.528" fill="#8B5CF6" opacity="0.8537999999999999"/><circle cx="557.6800922947177" cy="718.9291368294153" r="9.384" fill="#06B6D4" opacity="0.46799999999999997"/><circle cx="162.09295906835706" cy="351.2469439345159" r="4.24" fill="#8B5CF6" opacity="0.6821999999999999"/><circle cx="599.145906869235" cy="447.90307925532466" r="7.096" fill="#6366F1" opacity="0.8963999999999999"/><circle cx="452.2552410435573" cy="750.2867914856699" r="9.952" fill="#06B6D4" opacity="0.5105999999999999"/><circle cx="240.8309108203705" cy="198.47530248120432" r="4.808" fill="#6366F1" opacity="0.7247999999999999"/><circle cx="640.3002419587388" cy="494.7082983531411" r="7.664" fill="#8B5CF6" opacity="0.33899999999999997"/><circle cx="332.10294853038806" cy="728.0631932333897" r="2.52" fill="#06B6D4" opacity="0.5531999999999999"/><circle cx="493.2181208364627" cy="474.9000773903349" r="5.3759999999999994" fill="#8B5CF6" opacity="0.7674"/><circle cx="654.916980815456" cy="567.038563939151" r="8.232" fill="#6366F1" opacity="0.3816"/><circle cx="225.0780538428686" cy="646.6713452627178" r="3.088" fill="#06B6D4" opacity="0.5958"/><circle cx="509.85759354131625" cy="446.50058084825406" r="5.944" fill="#6366F1" opacity="0.81"/><circle cx="629.478711034483" cy="648.7383722811596" r="8.8" fill="#8B5CF6" opacity="0.42419999999999997"/><circle cx="160.32880220943758" cy="514.9491602280741" r="3.6559999999999997" fill="#06B6D4" opacity="0.6384"/><circle cx="548.6686188898168" cy="433.0133928657543" r="6.512" fill="#8B5CF6" opacity="0.8526"/><circle cx="560.2130887906767" cy="717.4160618222262" r="9.368" fill="#6366F1" opacity="0.4668"/><circle cx="160.9865874304133" cy="355.8179411371747" r="4.224" fill="#06B6D4" opacity="0.681"/><circle cx="597.7799736931898" cy="447.0423117521252" r="7.08" fill="#6366F1" opacity="0.8952"/><circle cx="455.5441430202799" cy="750.0793409704181" r="9.936" fill="#8B5CF6" opacity="0.5094"/><circle cx="237.59145183957492" cy="202.3559275706337" r="4.792" fill="#06B6D4" opacity="0.7236"/><circle cx="639.4236791422001" cy="492.98589318210406" r="7.648" fill="#8B5CF6" opacity="0.3378"/><circle cx="335.44820854159417" cy="729.5048320359058" r="2.504" fill="#6366F1" opacity="0.552"/><circle cx="493.1216112249634" cy="475.7569026760306" r="5.359999999999999" fill="#06B6D4" opacity="0.7662"/><circle cx="655.0090202981793" cy="564.7781107026026" r="8.216000000000001" fill="#6366F1" opacity="0.38039999999999996"/><circle cx="227.64388384236725" cy="649.7290419108132" r="3.072" fill="#8B5CF6" opacity="0.5946"/><circle cx="509.04947263660256" cy="447.16944970001373" r="5.928" fill="#06B6D4" opacity="0.8088"/><circle cx="630.804730764087" cy="646.5028409613094" r="8.783999999999999" fill="#8B5CF6" opacity="0.423"/><circle cx="161.34219420303566" cy="519.1710868963028" r="3.6399999999999997" fill="#6366F1" opacity="0.6372"/><circle cx="547.3609616806259" cy="433.0601814411909" r="6.496" fill="#06B6D4" opacity="0.8513999999999999"/><circle cx="562.7172006376188" cy="715.8740205401768" r="9.352" fill="#6366F1" opacity="0.4656"/><circle cx="159.9416187676532" cy="360.3932044861859" r="4.208" fill="#8B5CF6" opacity="0.6798"/><circle cx="596.4081750110153" cy="446.20758611992335" r="7.064" fill="#06B6D4" opacity="0.8939999999999999"/><circle cx="458.8202697726555" cy="749.8288810734322" r="9.92" fill="#8B5CF6" opacity="0.5082"/><circle cx="234.40851169145884" cy="206.2702579954593" r="4.776" fill="#6366F1" opacity="0.7223999999999999"/><circle cx="638.5261099058441" cy="491.2846758893313" r="7.632" fill="#06B6D4" opacity="0.3366"/><circle cx="338.8031134325633" cy="730.8985139860474" r="2.488" fill="#6366F1" opacity="0.5508"/><circle cx="493.0455299957326" cy="476.61206834797605" r="5.343999999999999" fill="#8B5CF6" opacity="0.7649999999999999"/><circle cx="655.0688296375554" cy="562.5259791993602" r="8.2" fill="#06B6D4" opacity="0.3792"/><circle cx="230.24303605244705" cy="652.7454758799704" r="3.056" fill="#8B5CF6" opacity="0.5933999999999999"/><circle cx="508.25973975412415" cy="447.8500556165767" r="5.912" fill="#6366F1" opacity="0.8075999999999999"/><circle cx="632.0950972684724" cy="644.2575657552588" r="8.768" fill="#06B6D4" opacity="0.4218"/><circle cx="162.4079278473614" cy="523.369912701755" r="3.624" fill="#6366F1" opacity="0.636"/><circle cx="546.0622386690926" cy="433.1291530725717" r="6.48" fill="#8B5CF6" opacity="0.8502000000000001"/><circle cx="565.1921013695329" cy="714.303499549178" r="9.336" fill="#06B6D4" opacity="0.46440000000000003"/><circle cx="158.95798497618944" cy="364.97191407526" r="4.192" fill="#8B5CF6" opacity="0.6786"/><circle cx="595.0309488476281" cy="445.3989124547918" r="7.048" fill="#6366F1" opacity="0.8928"/><circle cx="462.08306130592086" cy="749.5357003718495" r="9.904" fill="#06B6D4" opacity="0.507"/><circle cx="231.28242472889985" cy="210.21748717284436" r="4.76" fill="#6366F1" opacity="0.7212"/><circle cx="637.6079282359647" cy="489.6049008371453" r="7.616" fill="#8B5CF6" opacity="0.3354"/><circle cx="342.16698749912183" cy="732.244225256297" r="2.472" fill="#06B6D4" opacity="0.5496"/><circle cx="492.989818674782" cy="477.4651967439792" r="5.327999999999999" fill="#8B5CF6" opacity="0.7638"/><circle cx="655.0966331130463" cy="560.2826210196364" r="8.184000000000001" fill="#6366F1" opacity="0.378"/><circle cx="232.87487940397534" cy="655.7202939457773" r="3.04" fill="#06B6D4" opacity="0.5922"/><circle cx="507.4885606927171" cy="448.54204183266216" r="5.896" fill="#6366F1" opacity="0.8064"/><circle cx="633.3497762349085" cy="642.003088621691" r="8.751999999999999" fill="#8B5CF6" opacity="0.4206"/><circle cx="163.52558269571153" cy="527.5449904654101" r="3.608" fill="#06B6D4" opacity="0.6348"/><circle cx="544.7727995656503" cy="433.22008970465663" r="6.464" fill="#8B5CF6" opacity="0.849"/><circle cx="567.6374721820351" cy="712.7049890266433" r="9.32" fill="#6366F1" opacity="0.4632"/><circle cx="158.03560706088007" cy="369.55325239095015" r="4.176" fill="#06B6D4" opacity="0.6774"/><circle cx="593.6487325380291" cy="444.6162939663596" r="7.032" fill="#6366F1" opacity="0.8916"/><circle cx="465.33196286374505" cy="749.2000947052775" r="9.888" fill="#8B5CF6" opacity="0.5058"/><circle cx="228.21351397202977" cy="214.1968054542288" r="4.744" fill="#06B6D4" opacity="0.72"/><circle cx="636.6695311744433" cy="487.946815833238" r="7.6" fill="#8B5CF6" opacity="0.3342"/><circle cx="345.5391562240395" cy="733.5419614116879" r="2.456" fill="#6366F1" opacity="0.5484"/><circle cx="492.95441252825117" cy="478.3159114284705" r="5.311999999999999" fill="#06B6D4" opacity="0.7626"/>
    <text x="500" y="960" font-family="system-ui, sans-serif" font-size="36" font-weight="700" fill="white" text-anchor="middle" opacity="0.85">dot alt</text>
  </svg>