<svg xmlns="http://www.w3.org/2000/svg" viewBox="0 0 1000 1000" width="1000" height="1000">
    <defs>
      <linearGradient id="g577" x1="0" y1="0" x2="1" y2="1">
        <stop offset="0%" stop-color="#06B6D4"/>
        <stop offset="100%" stop-color="#0EA5E9"/>
      </linearGradient>
      <radialGradient id="glow577" cx="50%" cy="50%" r="60%">
        <stop offset="0%" stop-color="#67E8F9" stop-opacity="0.2"/>
        <stop offset="100%" stop-color="#67E8F9" stop-opacity="0"/>
      </radialGradient>
    </defs>
    <rect width="1000" height="1000" fill="#030712"/>
    <rect width="1000" height="1000" fill="url(#glow577)"/>
    <line x1="384.8" y1="469.6" x2="469.6" y2="554.4" stroke="#06B6D4" stroke-width="1" opacity="0.2286781284439451"/><line x1="384.8" y1="469.6" x2="554.4" y2="639.2" stroke="#06B6D4" stroke-width="1" opacity="0.057356256887890145"/><line x1="384.8" y1="469.6" x2="324" y2="408.8" stroke="#06B6D4" stroke-width="1" opacity="0.2771654505824512"/><line x1="384.8" y1="469.6" x2="408.8" y2="493.6" stroke="#06B6D4" stroke-width="1" opacity="0.3515126778614939"/><line x1="384.8" y1="469.6" x2="493.6" y2="578.4" stroke="#06B6D4" stroke-width="1" opacity="0.180190806305439"/><line x1="384.8" y1="469.6" x2="578.4" y2="663.2" stroke="#06B6D4" stroke-width="1" opacity="0.00886893474938405"/><line x1="384.8" y1="469.6" x2="348" y2="432.8" stroke="#06B6D4" stroke-width="1" opacity="0.3256527727209573"/><line x1="384.8" y1="469.6" x2="432.8" y2="517.6" stroke="#06B6D4" stroke-width="1" opacity="0.30302535572298783"/><line x1="384.8" y1="469.6" x2="517.6" y2="602.4" stroke="#06B6D4" stroke-width="1" opacity="0.1317034841669329"/><line x1="384.8" y1="469.6" x2="372" y2="456.8" stroke="#06B6D4" stroke-width="1" opacity="0.3741400948594634"/><line x1="384.8" y1="469.6" x2="456.8" y2="541.6" stroke="#06B6D4" stroke-width="1" opacity="0.2545380335844817"/><line x1="469.6" y1="554.4" x2="554.4" y2="639.2" stroke="#06B6D4" stroke-width="1" opacity="0.22867812844394506"/><line x1="469.6" y1="554.4" x2="324" y2="408.8" stroke="#06B6D4" stroke-width="1" opacity="0.10584357902639624"/><line x1="469.6" y1="554.4" x2="408.8" y2="493.6" stroke="#06B6D4" stroke-width="1" opacity="0.27716545058245123"/><line x1="469.6" y1="554.4" x2="493.6" y2="578.4" stroke="#06B6D4" stroke-width="1" opacity="0.3515126778614939"/><line x1="469.6" y1="554.4" x2="578.4" y2="663.2" stroke="#06B6D4" stroke-width="1" opacity="0.18019080630543896"/><line x1="469.6" y1="554.4" x2="348" y2="432.8" stroke="#06B6D4" stroke-width="1" opacity="0.15433090116490242"/><line x1="469.6" y1="554.4" x2="432.8" y2="517.6" stroke="#06B6D4" stroke-width="1" opacity="0.32565277272095733"/><line x1="469.6" y1="554.4" x2="517.6" y2="602.4" stroke="#06B6D4" stroke-width="1" opacity="0.30302535572298783"/><line x1="469.6" y1="554.4" x2="602.4" y2="687.2" stroke="#06B6D4" stroke-width="1" opacity="0.13170348416693278"/><line x1="469.6" y1="554.4" x2="372" y2="456.8" stroke="#06B6D4" stroke-width="1" opacity="0.2028182233034085"/><line x1="469.6" y1="554.4" x2="456.8" y2="541.6" stroke="#06B6D4" stroke-width="1" opacity="0.3741400948594635"/><line x1="554.4" y1="639.2" x2="408.8" y2="493.6" stroke="#06B6D4" stroke-width="1" opacity="0.10584357902639624"/><line x1="554.4" y1="639.2" x2="493.6" y2="578.4" stroke="#06B6D4" stroke-width="1" opacity="0.2771654505824512"/><line x1="554.4" y1="639.2" x2="578.4" y2="663.2" stroke="#06B6D4" stroke-width="1" opacity="0.3515126778614939"/><line x1="554.4" y1="639.2" x2="432.8" y2="517.6" stroke="#06B6D4" stroke-width="1" opacity="0.15433090116490242"/><line x1="554.4" y1="639.2" x2="517.6" y2="602.4" stroke="#06B6D4" stroke-width="1" opacity="0.3256527727209573"/><line x1="554.4" y1="639.2" x2="602.4" y2="687.2" stroke="#06B6D4" stroke-width="1" opacity="0.30302535572298783"/><line x1="554.4" y1="639.2" x2="372" y2="456.8" stroke="#06B6D4" stroke-width="1" opacity="0.031496351747353546"/><line x1="554.4" y1="639.2" x2="456.8" y2="541.6" stroke="#06B6D4" stroke-width="1" opacity="0.2028182233034085"/><line x1="639.2" y1="324" x2="663.2" y2="348" stroke="#06B6D4" stroke-width="1" opacity="0.3515126778614939"/><line x1="639.2" y1="324" x2="687.2" y2="372" stroke="#06B6D4" stroke-width="1" opacity="0.30302535572298783"/><line x1="324" y1="408.8" x2="408.8" y2="493.6" stroke="#06B6D4" stroke-width="1" opacity="0.22867812844394506"/><line x1="324" y1="408.8" x2="493.6" y2="578.4" stroke="#06B6D4" stroke-width="1" opacity="0.057356256887890145"/><line x1="324" y1="408.8" x2="348" y2="432.8" stroke="#06B6D4" stroke-width="1" opacity="0.3515126778614939"/><line x1="324" y1="408.8" x2="432.8" y2="517.6" stroke="#06B6D4" stroke-width="1" opacity="0.18019080630543896"/><line x1="324" y1="408.8" x2="517.6" y2="602.4" stroke="#06B6D4" stroke-width="1" opacity="0.00886893474938405"/><line x1="324" y1="408.8" x2="372" y2="456.8" stroke="#06B6D4" stroke-width="1" opacity="0.30302535572298783"/><line x1="324" y1="408.8" x2="456.8" y2="541.6" stroke="#06B6D4" stroke-width="1" opacity="0.13170348416693278"/><line x1="408.8" y1="493.6" x2="493.6" y2="578.4" stroke="#06B6D4" stroke-width="1" opacity="0.2286781284439451"/><line x1="408.8" y1="493.6" x2="578.4" y2="663.2" stroke="#06B6D4" stroke-width="1" opacity="0.057356256887890145"/><line x1="408.8" y1="493.6" x2="348" y2="432.8" stroke="#06B6D4" stroke-width="1" opacity="0.2771654505824512"/><line x1="408.8" y1="493.6" x2="432.8" y2="517.6" stroke="#06B6D4" stroke-width="1" opacity="0.3515126778614939"/><line x1="408.8" y1="493.6" x2="517.6" y2="602.4" stroke="#06B6D4" stroke-width="1" opacity="0.180190806305439"/><line x1="408.8" y1="493.6" x2="602.4" y2="687.2" stroke="#06B6D4" stroke-width="1" opacity="0.00886893474938405"/><line x1="408.8" y1="493.6" x2="372" y2="456.8" stroke="#06B6D4" stroke-width="1" opacity="0.3256527727209573"/><line x1="408.8" y1="493.6" x2="456.8" y2="541.6" stroke="#06B6D4" stroke-width="1" opacity="0.30302535572298783"/><line x1="493.6" y1="578.4" x2="578.4" y2="663.2" stroke="#06B6D4" stroke-width="1" opacity="0.22867812844394506"/><line x1="493.6" y1="578.4" x2="348" y2="432.8" stroke="#06B6D4" stroke-width="1" opacity="0.10584357902639624"/><line x1="493.6" y1="578.4" x2="432.8" y2="517.6" stroke="#06B6D4" stroke-width="1" opacity="0.27716545058245123"/><line x1="493.6" y1="578.4" x2="517.6" y2="602.4" stroke="#06B6D4" stroke-width="1" opacity="0.3515126778614939"/><line x1="493.6" y1="578.4" x2="602.4" y2="687.2" stroke="#06B6D4" stroke-width="1" opacity="0.18019080630543896"/><line x1="493.6" y1="578.4" x2="372" y2="456.8" stroke="#06B6D4" stroke-width="1" opacity="0.15433090116490242"/><line x1="493.6" y1="578.4" x2="456.8" y2="541.6" stroke="#06B6D4" stroke-width="1" opacity="0.32565277272095733"/><line x1="578.4" y1="663.2" x2="432.8" y2="517.6" stroke="#06B6D4" stroke-width="1" opacity="0.10584357902639624"/><line x1="578.4" y1="663.2" x2="517.6" y2="602.4" stroke="#06B6D4" stroke-width="1" opacity="0.2771654505824512"/><line x1="578.4" y1="663.2" x2="602.4" y2="687.2" stroke="#06B6D4" stroke-width="1" opacity="0.3515126778614939"/><line x1="578.4" y1="663.2" x2="456.8" y2="541.6" stroke="#06B6D4" stroke-width="1" opacity="0.15433090116490242"/><line x1="663.2" y1="348" x2="687.2" y2="372" stroke="#06B6D4" stroke-width="1" opacity="0.3515126778614939"/><line x1="348" y1="432.8" x2="432.8" y2="517.6" stroke="#06B6D4" stroke-width="1" opacity="0.22867812844394506"/><line x1="348" y1="432.8" x2="517.6" y2="602.4" stroke="#06B6D4" stroke-width="1" opacity="0.057356256887890145"/><line x1="348" y1="432.8" x2="372" y2="456.8" stroke="#06B6D4" stroke-width="1" opacity="0.3515126778614939"/><line x1="348" y1="432.8" x2="456.8" y2="541.6" stroke="#06B6D4" stroke-width="1" opacity="0.18019080630543896"/><line x1="432.8" y1="517.6" x2="517.6" y2="602.4" stroke="#06B6D4" stroke-width="1" opacity="0.2286781284439451"/><line x1="432.8" y1="517.6" x2="602.4" y2="687.2" stroke="#06B6D4" stroke-width="1" opacity="0.057356256887890145"/><line x1="432.8" y1="517.6" x2="372" y2="456.8" stroke="#06B6D4" stroke-width="1" opacity="0.2771654505824512"/><line x1="432.8" y1="517.6" x2="456.8" y2="541.6" stroke="#06B6D4" stroke-width="1" opacity="0.3515126778614939"/><line x1="517.6" y1="602.4" x2="602.4" y2="687.2" stroke="#06B6D4" stroke-width="1" opacity="0.22867812844394506"/><line x1="517.6" y1="602.4" x2="372" y2="456.8" stroke="#06B6D4" stroke-width="1" opacity="0.10584357902639624"/><line x1="517.6" y1="602.4" x2="456.8" y2="541.6" stroke="#06B6D4" stroke-width="1" opacity="0.27716545058245123"/><line x1="602.4" y1="687.2" x2="456.8" y2="541.6" stroke="#06B6D4" stroke-width="1" opacity="0.10584357902639624"/><line x1="372" y1="456.8" x2="456.8" y2="541.6" stroke="#06B6D4" stroke-width="1" opacity="0.22867812844394506"/><circle cx="384.8" cy="469.6" r="6" fill="#6366F1" opacity="0.8"/><circle cx="469.6" cy="554.4" r="6" fill="#6366F1" opacity="0.8"/><circle cx="554.4" cy="639.2" r="6" fill="#6366F1" opacity="0.8"/><circle cx="639.2" cy="324" r="6" fill="#6366F1" opacity="0.8"/><circle cx="324" cy="408.8" r="6" fill="#6366F1" opacity="0.8"/><circle cx="408.8" cy="493.6" r="6" fill="#6366F1" opacity="0.8"/><circle cx="493.6" cy="578.4" r="6" fill="#6366F1" opacity="0.8"/><circle cx="578.4" cy="663.2" r="6" fill="#6366F1" opacity="0.8"/><circle cx="663.2" cy="348" r="6" fill="#6366F1" opacity="0.8"/><circle cx="348" cy="432.8" r="6" fill="#6366F1" opacity="0.8"/><circle cx="432.8" cy="517.6" r="6" fill="#6366F1" opacity="0.8"/><circle cx="517.6" cy="602.4" r="6" fill="#6366F1" opacity="0.8"/><circle cx="602.4" cy="687.2" r="6" fill="#6366F1" opacity="0.8"/><circle cx="687.2" cy="372" r="6" fill="#6366F1" opacity="0.8"/><circle cx="372" cy="456.8" r="6" fill="#6366F1" opacity="0.8"/><circle cx="456.8" cy="541.6" r="6" fill="#6366F1" opacity="0.8"/>
    <text x="500" y="960" font-family="system-ui, sans-serif" font-size="36" font-weight="700" fill="white" text-anchor="middle" opacity="0.85">cross alt</text>
  </svg>