<svg xmlns="http://www.w3.org/2000/svg" viewBox="0 0 1000 1000" width="1000" height="1000">
    <defs>
      <linearGradient id="g580" x1="0" y1="0" x2="1" y2="1">
        <stop offset="0%" stop-color="#EC4899"/>
        <stop offset="100%" stop-color="#F43F5E"/>
      </linearGradient>
      <radialGradient id="glow580" cx="50%" cy="50%" r="60%">
        <stop offset="0%" stop-color="#F9A8D4" stop-opacity="0.2"/>
        <stop offset="100%" stop-color="#F9A8D4" stop-opacity="0"/>
      </radialGradient>
    </defs>
    <rect width="1000" height="1000" fill="#030712"/>
    <rect width="1000" height="1000" fill="url(#glow580)"/>
    <rect x="7.5" y="356.75" width="35" height="286.5" fill="#F43F5E" opacity="0.7476" rx="4"/><rect x="57.5" y="263.5" width="35" height="473" fill="#EC4899" opacity="0.37139999999999995" rx="4"/><rect x="107.5" y="420.25" width="35" height="159.5" fill="#F43F5E" opacity="0.5952" rx="4"/><rect x="157.5" y="327" width="35" height="346" fill="#EC4899" opacity="0.819" rx="4"/><rect x="207.5" y="233.75" width="35" height="532.5" fill="#F43F5E" opacity="0.44279999999999997" rx="4"/><rect x="257.5" y="390.5" width="35" height="219" fill="#EC4899" opacity="0.6666" rx="4"/><rect x="307.5" y="297.25" width="35" height="405.5" fill="#F43F5E" opacity="0.8903999999999999" rx="4"/><rect x="357.5" y="204" width="35" height="592" fill="#EC4899" opacity="0.5142" rx="4"/><rect x="407.5" y="360.75" width="35" height="278.5" fill="#F43F5E" opacity="0.738" rx="4"/><rect x="457.5" y="267.5" width="35" height="465" fill="#EC4899" opacity="0.3618" rx="4"/><rect x="507.5" y="424.25" width="35" height="151.5" fill="#F43F5E" opacity="0.5855999999999999" rx="4"/><rect x="557.5" y="331" width="35" height="338" fill="#EC4899" opacity="0.8093999999999999" rx="4"/><rect x="607.5" y="237.75" width="35" height="524.5" fill="#F43F5E" opacity="0.4332" rx="4"/><rect x="657.5" y="394.5" width="35" height="211" fill="#EC4899" opacity="0.657" rx="4"/><rect x="707.5" y="301.25" width="35" height="397.5" fill="#F43F5E" opacity="0.8808" rx="4"/><rect x="757.5" y="208" width="35" height="584" fill="#EC4899" opacity="0.5045999999999999" rx="4"/><rect x="807.5" y="364.75" width="35" height="270.5" fill="#F43F5E" opacity="0.7283999999999999" rx="4"/><rect x="857.5" y="271.5" width="35" height="457" fill="#EC4899" opacity="0.35219999999999996" rx="4"/><rect x="907.5" y="428.25" width="35" height="143.5" fill="#F43F5E" opacity="0.5760000000000001" rx="4"/><rect x="957.5" y="335" width="35" height="330" fill="#EC4899" opacity="0.7998" rx="4"/>
    <text x="500" y="960" font-family="system-ui, sans-serif" font-size="36" font-weight="700" fill="white" text-anchor="middle" opacity="0.85">atom alt</text>
  </svg>