<svg xmlns="http://www.w3.org/2000/svg" viewBox="0 0 1000 1000" width="1000" height="1000">
    <defs>
      <linearGradient id="g586" x1="0" y1="0" x2="1" y2="1">
        <stop offset="0%" stop-color="#EC4899"/>
        <stop offset="100%" stop-color="#F43F5E"/>
      </linearGradient>
      <radialGradient id="glow586" cx="50%" cy="50%" r="60%">
        <stop offset="0%" stop-color="#F9A8D4" stop-opacity="0.2"/>
        <stop offset="100%" stop-color="#F9A8D4" stop-opacity="0"/>
      </radialGradient>
    </defs>
    <rect width="1000" height="1000" fill="#030712"/>
    <rect width="1000" height="1000" fill="url(#glow586)"/>
    <rect x="7.5" y="389.25" width="35" height="221.5" fill="#F43F5E" opacity="0.5915999999999999" rx="4"/><rect x="57.5" y="328.5" width="35" height="343" fill="#EC4899" opacity="0.7373999999999999" rx="4"/><rect x="107.5" y="267.75" width="35" height="464.5" fill="#F43F5E" opacity="0.8832" rx="4"/><rect x="157.5" y="207" width="35" height="586" fill="#EC4899" opacity="0.429" rx="4"/><rect x="207.5" y="396.25" width="35" height="207.5" fill="#F43F5E" opacity="0.5748" rx="4"/><rect x="257.5" y="335.5" width="35" height="329" fill="#EC4899" opacity="0.7205999999999999" rx="4"/><rect x="307.5" y="274.75" width="35" height="450.5" fill="#F43F5E" opacity="0.8663999999999998" rx="4"/><rect x="357.5" y="214" width="35" height="572" fill="#EC4899" opacity="0.4122" rx="4"/><rect x="407.5" y="403.25" width="35" height="193.5" fill="#F43F5E" opacity="0.558" rx="4"/><rect x="457.5" y="342.5" width="35" height="315" fill="#EC4899" opacity="0.7038" rx="4"/><rect x="507.5" y="281.75" width="35" height="436.5" fill="#F43F5E" opacity="0.8495999999999999" rx="4"/><rect x="557.5" y="221" width="35" height="558" fill="#EC4899" opacity="0.3954" rx="4"/><rect x="607.5" y="410.25" width="35" height="179.5" fill="#F43F5E" opacity="0.5412" rx="4"/><rect x="657.5" y="349.5" width="35" height="301" fill="#EC4899" opacity="0.687" rx="4"/><rect x="707.5" y="288.75" width="35" height="422.5" fill="#F43F5E" opacity="0.8328" rx="4"/><rect x="757.5" y="228" width="35" height="544" fill="#EC4899" opacity="0.3786" rx="4"/><rect x="807.5" y="417.25" width="35" height="165.5" fill="#F43F5E" opacity="0.5244" rx="4"/><rect x="857.5" y="356.5" width="35" height="287" fill="#EC4899" opacity="0.6701999999999999" rx="4"/><rect x="907.5" y="295.75" width="35" height="408.5" fill="#F43F5E" opacity="0.8160000000000001" rx="4"/><rect x="957.5" y="235" width="35" height="530" fill="#EC4899" opacity="0.3618" rx="4"/>
    <text x="500" y="960" font-family="system-ui, sans-serif" font-size="36" font-weight="700" fill="white" text-anchor="middle" opacity="0.85">prism alt</text>
  </svg>