<svg xmlns="http://www.w3.org/2000/svg" viewBox="0 0 1000 1000" width="1000" height="1000">
    <defs>
      <linearGradient id="g590" x1="0" y1="0" x2="1" y2="1">
        <stop offset="0%" stop-color="#10B981"/>
        <stop offset="100%" stop-color="#14B8A6"/>
      </linearGradient>
      <radialGradient id="glow590" cx="50%" cy="50%" r="60%">
        <stop offset="0%" stop-color="#6EE7B7" stop-opacity="0.2"/>
        <stop offset="100%" stop-color="#6EE7B7" stop-opacity="0"/>
      </radialGradient>
    </defs>
    <rect width="1000" height="1000" fill="#030712"/>
    <rect width="1000" height="1000" fill="url(#glow590)"/>
    <circle cx="513.5224907493991" cy="501.4499116981435" r="2.408" fill="#F59E0B" opacity="0.3408"/><circle cx="519.9362697207912" cy="504.3249450424099" r="2.544" fill="#10B981" opacity="0.351"/><circle cx="525.815415143736" cy="508.5676333346243" r="2.68" fill="#14B8A6" opacity="0.36119999999999997"/><circle cx="530.9436030032898" cy="514.0887697537717" r="2.816" fill="#F59E0B" opacity="0.37139999999999995"/><circle cx="535.1182747017609" cy="520.7688897626151" r="2.952" fill="#14B8A6" opacity="0.3816"/><circle cx="538.1545884798537" cy="528.4602771935379" r="3.088" fill="#10B981" opacity="0.3918"/><circle cx="539.8890908345072" cy="536.9894638024996" r="3.224" fill="#F59E0B" opacity="0.402"/><circle cx="540.1830482520809" cy="546.1601845010496" r="3.3600000000000003" fill="#10B981" opacity="0.4122"/><circle cx="538.9253845404322" cy="555.7567434341307" r="3.496" fill="#14B8A6" opacity="0.4224"/><circle cx="536.0351748228082" cy="565.547739667281" r="3.6319999999999997" fill="#F59E0B" opacity="0.4326"/><circle cx="531.4636537698356" cy="575.2900955734013" r="3.768" fill="#14B8A6" opacity="0.44279999999999997"/><circle cx="525.1957028023459" cy="584.733326149136" r="3.904" fill="#10B981" opacity="0.45299999999999996"/><circle cx="517.2507886973035" cy="593.6239835155554" r="4.04" fill="#F59E0B" opacity="0.4632"/><circle cx="507.68333416384917" cy="601.7102078265826" r="4.176" fill="#10B981" opacity="0.47339999999999993"/><circle cx="496.58250941229966" cy="608.7463137677917" r="4.311999999999999" fill="#14B8A6" opacity="0.4836"/><circle cx="484.07144239685584" cy="614.4973408105329" r="4.448" fill="#F59E0B" opacity="0.4938"/><circle cx="470.3058541506422" cy="618.743495410389" r="4.584" fill="#14B8A6" opacity="0.504"/><circle cx="455.4721343258524" cy="621.2844144088806" r="4.720000000000001" fill="#10B981" opacity="0.5142"/><circle cx="439.7848805787094" cy="621.9431810027921" r="4.856" fill="#F59E0B" opacity="0.5244"/><circle cx="423.48393367699924" cy="620.5700277616877" r="4.992" fill="#10B981" opacity="0.5346"/><circle cx="406.83094803897836" cy="617.0456652622576" r="5.128" fill="#14B8A6" opacity="0.5448"/><circle cx="390.10554472346" cy="611.2841799155323" r="5.263999999999999" fill="#F59E0B" opacity="0.5549999999999999"/><circle cx="373.60110057556665" cy="603.2354504242219" r="5.4" fill="#14B8A6" opacity="0.5651999999999999"/><circle cx="357.62023319283594" cy="592.8870389448258" r="5.536" fill="#10B981" opacity="0.5753999999999999"/><circle cx="342.47004652349653" cy="580.2655203539518" r="5.672000000000001" fill="#F59E0B" opacity="0.5855999999999999"/><circle cx="328.457206164966" cy="565.4372209317528" r="5.808" fill="#10B981" opacity="0.5958"/><circle cx="315.88291673003243" cy="548.5083461701159" r="5.944" fill="#14B8A6" opacity="0.606"/><circle cx="305.03787593768334" cy="529.6244861746133" r="6.08" fill="#F59E0B" opacity="0.6162"/><circle cx="296.1972813256626" cy="508.96949613684444" r="6.216" fill="#14B8A6" opacity="0.6264000000000001"/><circle cx="289.6159656473203" cy="486.7637584832207" r="6.352" fill="#10B981" opacity="0.6366"/><circle cx="285.523736095578" cy="463.2618424305091" r="6.488" fill="#F59E0B" opacity="0.6467999999999999"/><circle cx="284.1209904960823" cy="438.7495856699122" r="6.624" fill="#10B981" opacity="0.657"/><circle cx="285.5746805490263" cy="413.54063163342056" r="6.76" fill="#14B8A6" opacity="0.6672"/><circle cx="290.0146881084811" cy="387.9724641446509" r="6.896" fill="#F59E0B" opacity="0.6774"/><circle cx="297.5306754175872" cy="362.40198910179856" r="7.032" fill="#14B8A6" opacity="0.6876"/><circle cx="308.1694642295197" cy="337.2007200691279" r="7.168" fill="#10B981" opacity="0.6978"/><circle cx="321.9329919127091" cy="312.7496311596671" r="7.304" fill="#F59E0B" opacity="0.708"/><circle cx="338.77688505139054" cy="289.4337462785941" r="7.44" fill="#10B981" opacity="0.7182"/><circle cx="358.609682807167" cy="267.6365385777917" r="7.576" fill="#14B8A6" opacity="0.7283999999999999"/><circle cx="381.2927335116579" cy="247.73421777247373" r="7.712" fill="#F59E0B" opacity="0.7385999999999999"/><circle cx="406.6407787305482" cy="230.08998572864783" r="7.848" fill="#14B8A6" opacity="0.7487999999999999"/><circle cx="434.4232294984009" cy="215.04834239720486" r="7.984" fill="#10B981" opacity="0.7589999999999999"/><circle cx="464.36612969961504" cy="202.92952471271172" r="8.120000000000001" fill="#F59E0B" opacity="0.7692"/><circle cx="496.154791795694" cy="194.02416047363226" r="8.256" fill="#10B981" opacity="0.7794"/><circle cx="529.4370804060313" cy="188.58821747215654" r="8.392" fill="#14B8A6" opacity="0.7895999999999999"/><circle cx="563.8273097724044" cy="186.83832525799465" r="8.527999999999999" fill="#F59E0B" opacity="0.7998"/><circle cx="598.9107120081375" cy="188.9475429287798" r="8.664" fill="#14B8A6" opacity="0.81"/><circle cx="634.2484243797924" cy="195.04164128271026" r="8.8" fill="#10B981" opacity="0.8202"/><circle cx="669.3829358154267" cy="205.19596160407326" r="8.936" fill="#F59E0B" opacity="0.8304"/><circle cx="703.8439254950297" cy="219.43290635076818" r="9.072" fill="#10B981" opacity="0.8406"/><circle cx="737.1544198633841" cy="237.72010915958163" r="9.208" fill="#14B8A6" opacity="0.8508"/><circle cx="768.8371888108752" cy="259.9693229766956" r="9.344000000000001" fill="#F59E0B" opacity="0.861"/><circle cx="798.4212971798322" cy="286.036055865699" r="9.48" fill="#14B8A6" opacity="0.8712"/><circle cx="825.4487242464025" cy="315.7199742609389" r="9.616" fill="#10B981" opacity="0.8814"/><circle cx="849.4809614604601" cy="348.7660832462757" r="9.751999999999999" fill="#F59E0B" opacity="0.8916"/><circle cx="870.1054975437987" cy="384.86668298074125" r="9.888" fill="#10B981" opacity="0.3018"/><circle cx="886.9421000796509" cy="423.6640898007405" r="2.024" fill="#14B8A6" opacity="0.312"/><circle cx="501.1953603309718" cy="499.8945785641391" r="2.16" fill="#F59E0B" opacity="0.3222"/><circle cx="507.9985788190465" cy="500.15078751772324" r="2.296" fill="#14B8A6" opacity="0.3324"/><circle cx="514.6832975794542" cy="501.8549318567517" r="2.432" fill="#10B981" opacity="0.34259999999999996"/><circle cx="521.0189278372139" cy="504.97641161621436" r="2.568" fill="#F59E0B" opacity="0.3528"/><circle cx="526.7809312193574" cy="509.4520750644528" r="2.7039999999999997" fill="#10B981" opacity="0.363"/><circle cx="531.7551153697607" cy="515.1872528079698" r="2.84" fill="#14B8A6" opacity="0.3732"/><circle cx="535.7417682353771" cy="522.0573344583744" r="2.976" fill="#F59E0B" opacity="0.38339999999999996"/><circle cx="538.5595646039337" cy="529.9098642182653" r="3.112" fill="#14B8A6" opacity="0.3936"/><circle cx="540.0491817837676" cy="538.567123803192" r="3.248" fill="#10B981" opacity="0.4038"/><circle cx="540.0765655582188" cy="547.8291636249035" r="3.384" fill="#F59E0B" opacity="0.414"/><circle cx="538.5357926609826" cy="557.4772362243502" r="3.52" fill="#10B981" opacity="0.42419999999999997"/><circle cx="535.3514819338868" cy="567.2775796612666" r="3.6559999999999997" fill="#14B8A6" opacity="0.4344"/><circle cx="530.4807129622914" cy="576.9854930315472" r="3.792" fill="#F59E0B" opacity="0.4446"/><circle cx="523.9144182431056" cy="586.3496415747849" r="3.928" fill="#14B8A6" opacity="0.4548"/><circle cx="515.6782227247868" cy="595.1165250216385" r="4.064" fill="#10B981" opacity="0.46499999999999997"/><circle cx="505.8327127585449" cy="603.0350399712462" r="4.2" fill="#F59E0B" opacity="0.47519999999999996"/><circle cx="494.47312500022537" cy="609.8610652266619" r="4.336" fill="#10B981" opacity="0.48539999999999994"/><circle cx="481.728454483301" cy="615.361998181512" r="4.4719999999999995" fill="#14B8A6" opacity="0.4956"/><circle cx="467.7599898225688" cy="619.3211705597927" r="4.6080000000000005" fill="#F59E0B" opacity="0.5058"/><circle cx="452.75929218172723" cy="621.5420730645507" r="4.744" fill="#14B8A6" opacity="0.516"/><circle cx="436.9456431227319" cy="621.8523207772183" r="4.88" fill="#10B981" opacity="0.5262"/><circle cx="420.5629946295061" cy="620.1072944402966" r="5.016" fill="#F59E0B" opacity="0.5364"/><circle cx="403.8764623458976" cy="616.193397010589" r="5.152" fill="#10B981" opacity="0.5466"/><circle cx="387.1684102757594" cy="610.0308700333713" r="5.288" fill="#14B8A6" opacity="0.5568"/><circle cx="370.7341817567399" cy="601.5761203920509" r="5.4239999999999995" fill="#F59E0B" opacity="0.567"/><circle cx="354.87753734223384" cy="590.8235147533129" r="5.5600000000000005" fill="#14B8A6" opacity="0.5771999999999999"/><circle cx="339.90586522118593" cy="577.806606463866" r="5.696" fill="#10B981" opacity="0.5873999999999999"/><circle cx="326.12523389725914" cy="562.5987676613298" r="5.832" fill="#F59E0B" opacity="0.5975999999999999"/><circle cx="313.83535997354846" cy="545.3132078297456" r="5.968" fill="#10B981" opacity="0.6078"/><circle cx="303.3245659958099" cy="526.102368843909" r="6.104" fill="#14B8A6" opacity="0.618"/><circle cx="294.86480435906685" cy="505.1566955849729" r="6.24" fill="#F59E0B" opacity="0.6282"/><circle cx="288.7068232567857" cy="482.70279034755055" r="6.376" fill="#14B8A6" opacity="0.6384"/><circle cx="285.0755495405629" cy="459.00096836864344" r="6.512" fill="#10B981" opacity="0.6486"/><circle cx="284.1657611683279" cy="434.34224076354184" r="6.648" fill="#F59E0B" opacity="0.6587999999999999"/><circle cx="286.1381186721717" cy="409.0447598270342" r="6.784" fill="#10B981" opacity="0.669"/><circle cx="291.1156208094671" cy="383.44976992650055" r="6.92" fill="#14B8A6" opacity="0.6792"/><circle cx="299.1805443235727" cy="357.9171149581222" r="7.056" fill="#F59E0B" opacity="0.6894"/><circle cx="310.37192159741977" cy="332.82036044618087" r="7.192" fill="#14B8A6" opacity="0.6996"/><circle cx="324.683603011782" cy="308.5415947338181" r="7.328" fill="#10B981" opacity="0.7098"/><circle cx="342.06294310909385" cy="285.465979246557" r="7.464" fill="#F59E0B" opacity="0.72"/><circle cx="362.4101413131101" cy="263.9761224229174" r="7.6" fill="#10B981" opacity="0.7302"/><circle cx="385.5782590738223" cy="244.4463555270192" r="7.736" fill="#14B8A6" opacity="0.7404"/><circle cx="411.373926013265" cy="227.23699112654998" r="7.872" fill="#F59E0B" opacity="0.7505999999999999"/>
    <text x="500" y="960" font-family="system-ui, sans-serif" font-size="36" font-weight="700" fill="white" text-anchor="middle" opacity="0.85">pencil alt</text>
  </svg>