<svg xmlns="http://www.w3.org/2000/svg" viewBox="0 0 1000 1000" width="1000" height="1000">
    <defs>
      <linearGradient id="g591" x1="0" y1="0" x2="1" y2="1">
        <stop offset="0%" stop-color="#F59E0B"/>
        <stop offset="100%" stop-color="#EF4444"/>
      </linearGradient>
      <radialGradient id="glow591" cx="50%" cy="50%" r="60%">
        <stop offset="0%" stop-color="#FCD34D" stop-opacity="0.2"/>
        <stop offset="100%" stop-color="#FCD34D" stop-opacity="0"/>
      </radialGradient>
    </defs>
    <rect width="1000" height="1000" fill="#030712"/>
    <rect width="1000" height="1000" fill="url(#glow591)"/>
    <path d="M 0 500 L 0 533.4249187703277 L 16.666666666666668 486.6018933085774 L 33.333333333333336 441.0903679522723 L 50 401.3453281466302 L 66.66666666666667 371.25729552254666 L 83.33333333333333 353.7714965114833 L 100 350.5995630458447 L 116.66666666666667 362.05197906797065 L 133.33333333333334 387.00771086181686 L 150 423.02391579057917 L 166.66666666666666 466.57507658157857 L 183.33333333333331 513.3981019425041 L 200 558.9096276628418 L 216.66666666666669 598.6546682617395 L 233.33333333333334 628.7427020306526 L 250 646.2285024260553 L 266.6666666666667 649.4004373800344 L 283.3333333333333 637.948015781986 L 300 612.9922805135177 L 316.66666666666663 576.9760729543759 L 333.3333333333333 533.4249106347193 L 350 486.60190280641433 L 366.66666666666663 441.09037672204425 L 383.33333333333337 401.34533532989093 L 400 371.2573004161483 L 416.6666666666667 353.77149863640614 L 433.33333333333337 350.5995621940865 L 450 362.05198234548254 L 466.6666666666667 387.0077163505946 L 483.3333333333333 423.0239229533429 L 500 466.57508471718705 L 516.6666666666667 513.3981102545873 L 533.3333333333334 558.9096353377549 L 550 598.6546745482086 L 566.6666666666666 628.7427063133143 L 583.3333333333334 646.2285003011323 L 600 649.4004382317924 L 616.6666666666667 637.9480195270489 L 633.3333333333333 612.992286785293 L 650 576.9760811389382 L 666.6666666666666 533.4249199309066 L 683.3333333333334 486.6018944943312 L 700 441.090369047131 L 716.6666666666666 401.3453290434216 L 733.3333333333333 371.25729613348636 L 750 353.77149677676834 L 766.6666666666667 350.5995629395073 L 783.3333333333334 362.05198562299483 L 800 387.0077100788196 L 816.6666666666666 423.02391476878074 L 833.3333333333334 466.5750754209997 L 850 513.3981007567504 L 866.6666666666667 558.909626567983 L 883.3333333333333 598.6546673649481 L 900 628.7427014197128 L 916.6666666666666 646.2285021607702 L 933.3333333333334 649.4004374863719 L 950 637.9480162495369 L 966.6666666666666 612.9922812965151 L 983.3333333333333 576.9760739761743 L 1000 533.4249117952982" stroke="#F59E0B" stroke-width="3" fill="none" opacity="0.7"/><path d="M 0 500 L 0 452.51433198168854 L 16.666666666666668 450.06873833493773 L 33.333333333333336 454.43329583016333 L 50 465.3105632530033 L 66.66666666666667 481.95928227670106 L 83.33333333333333 503.2448555888376 L 100 527.7167250810155 L 116.66666666666667 553.7071517928875 L 133.33333333333334 579.4449537292702 L 150 603.1761196137987 L 166.66666666666666 623.2834222644829 L 183.33333333333331 638.3965883527711 L 200 647.4856673100038 L 216.66666666666669 649.9312613409728 L 233.33333333333334 645.5667051057887 L 250 634.6894320981925 L 266.6666666666667 618.0407200527233 L 283.3333333333333 596.7551472209813 L 300 572.2832780177135 L 316.66666666666663 546.2928513835784 L 333.3333333333333 520.5550493084618 L 350 496.8238830781828 L 366.66666666666663 476.7165717872083 L 383.33333333333337 461.60341313341166 L 400 452.5143307419301 L 416.6666666666667 450.06873854118976 L 433.33333333333337 454.4332939582592 L 450 465.3105662115242 L 466.6666666666667 481.9592776178525 L 483.3333333333333 503.24486050689404 L 500 527.7167188835573 L 516.6666666666667 553.7071573526903 L 533.3333333333334 579.4449476538064 L 550 603.1761142298357 L 566.6666666666666 623.2834260500148 L 583.3333333333334 638.3965853804054 L 600 647.4856685497623 L 616.6666666666667 649.9312615766477 L 633.3333333333333 645.5667034675816 L 650 634.689435478759 L 666.6666666666666 618.0407159755067 L 683.3333333333334 596.7551423029249 L 700 572.2832842151718 L 716.6666666666666 546.2928458237757 L 733.3333333333333 520.5550553839257 L 750 496.8238783663785 L 766.6666666666667 476.71657611276225 L 783.3333333333334 461.60341053213 L 800 452.5143321585453 L 816.6666666666666 450.06873874744207 L 833.3333333333334 454.43329559646617 L 850 465.3105628309578 L 866.6666666666667 481.95928169506897 L 883.3333333333333 503.2448548872561 L 900 527.7167243072963 L 916.6666666666666 553.7071509997583 L 933.3333333333334 579.4449529707813 L 950 603.17611894164 L 966.6666666666666 623.2834217244607 L 983.3333333333333 638.3965879816873 L 1000 647.485667133147" stroke="#EF4444" stroke-width="2" fill="none" opacity="0.5"/>
    <text x="500" y="960" font-family="system-ui, sans-serif" font-size="36" font-weight="700" fill="white" text-anchor="middle" opacity="0.85">pen alt</text>
  </svg>