<svg xmlns="http://www.w3.org/2000/svg" viewBox="0 0 1000 1000" width="1000" height="1000">
    <defs>
      <linearGradient id="g592" x1="0" y1="0" x2="1" y2="1">
        <stop offset="0%" stop-color="#EC4899"/>
        <stop offset="100%" stop-color="#F43F5E"/>
      </linearGradient>
      <radialGradient id="glow592" cx="50%" cy="50%" r="60%">
        <stop offset="0%" stop-color="#F9A8D4" stop-opacity="0.2"/>
        <stop offset="100%" stop-color="#F9A8D4" stop-opacity="0"/>
      </radialGradient>
    </defs>
    <rect width="1000" height="1000" fill="#030712"/>
    <rect width="1000" height="1000" fill="url(#glow592)"/>
    <path d="M 0 500 L 0 519.2783278792009 L 16.666666666666668 564.3028948794088 L 33.333333333333336 603.0330768854285 L 50 631.6776381765393 L 66.66666666666667 647.4326903691278 L 83.33333333333333 648.7559965419971 L 100 635.5180241542796 L 116.66666666666667 609.0146172011941 L 133.33333333333334 571.8400760152439 L 150 527.6333571193718 L 166.66666666666666 480.72165911613655 L 183.33333333333331 435.6970932732281 L 200 396.96691358421174 L 216.66666666666669 368.3223555430002 L 233.33333333333334 352.56731380339306 L 250 351.24400514336753 L 266.6666666666667 364.4819661362516 L 283.3333333333333 390.98539180624357 L 300 428.159904101985 L 316.66666666666663 472.3666557696038 L 333.3333333333333 519.2783184223332 L 350 564.3029185741345 L 366.66666666666663 603.0330699550404 L 383.33333333333337 631.6776507374593 L 400 647.4326886123922 L 416.6666666666667 648.7559931712667 L 433.33333333333337 635.51802824221 L 450 609.0145991863179 L 466.6666666666667 571.8400843863894 L 483.3333333333333 527.6333664921128 L 500 480.7216685730042 L 516.6666666666667 435.6971018885185 L 533.3333333333334 396.9669205145992 L 550 368.3223601100916 L 566.6666666666666 352.56730897182354 L 583.3333333333334 351.2440039177862 L 600 364.4819773793296 L 616.6666666666667 390.9853852561199 L 633.3333333333333 428.1599271252366 L 650 472.3666463968626 L 666.6666666666666 519.2783444316583 L 683.3333333333334 564.3029099588445 L 700 603.0330630246519 L 716.6666666666666 631.6776461703687 L 733.3333333333333 647.4326868556561 L 750 648.7559943968489 L 766.6666666666667 635.5180323301397 L 783.3333333333334 609.0146057364421 L 800 571.8400927575348 L 816.6666666666666 527.6333407141617 L 833.3333333333334 480.7216780298719 L 850 435.69707819379306 L 866.6666666666667 396.9669274449871 L 883.3333333333333 368.32234754917204 L 900 352.5673107285588 L 916.6666666666666 351.24400269220547 L 933.3333333333334 364.4819732913991 L 950 390.9853787059967 L 966.6666666666666 428.1599187540909 L 983.3333333333333 472.36663702412153 L 1000 519.2783349747907" stroke="#EC4899" stroke-width="3" fill="none" opacity="0.7"/><path d="M 0 500 L 0 649.1706633910162 L 16.666666666666668 642.4651080300944 L 33.333333333333336 629.4582108669255 L 50 611.036351210361 L 66.66666666666667 588.4549812149143 L 83.33333333333333 563.2529688409902 L 100 537.1477889010429 L 116.66666666666667 511.91844351473696 L 133.33333333333334 489.2843158829381 L 150 470.78786014197124 L 166.66666666666666 457.6895786828144 L 183.33333333333331 450.88209738624096 L 200 450.82933773256093 L 216.66666666666669 457.5348952991003 L 233.33333333333334 470.5417944410076 L 250 488.9636368289387 L 266.6666666666667 511.5450268551198 L 283.3333333333333 536.7470398241726 L 300 562.8522197687322 L 316.66666666666663 588.0815425234207 L 333.3333333333333 610.7156721192067 L 350 629.2121451939964 L 366.66666666666663 642.3104246790273 L 383.33333333333337 649.1179037723707 L 400 649.1706642080703 L 416.6666666666667 642.4651104510527 L 433.33333333333337 629.4582002510588 L 450 611.0363562461159 L 466.6666666666667 588.4549870833665 L 483.3333333333333 563.2529751422145 L 500 537.1477715614927 L 516.6666666666667 511.9184493930227 L 533.3333333333334 489.28432093433594 L 550 470.78786402223693 L 566.6666666666666 457.68958112751426 L 583.3333333333334 450.88209506901836 L 600 450.8293369155062 L 616.6666666666667 457.53489287814136 L 633.3333333333333 470.5417905811288 L 650 488.96365067882977 L 666.6666666666666 511.5450209866673 L 683.3333333333334 536.7470335229482 L 700 562.8522134641537 L 716.6666666666666 588.0815366451345 L 733.3333333333333 610.715686012121 L 750 629.2121413137312 L 766.6666666666667 642.3104222343279 L 783.3333333333334 649.1179029298394 L 800 649.1706619609165 L 816.6666666666666 642.4651037926639 L 833.3333333333334 629.4582041109379 L 850 611.0363612818708 L 866.6666666666667 588.4549929518187 L 883.3333333333333 563.2529578118891 L 900 537.1477778660712 L 916.6666666666666 511.91845527130863 L 933.3333333333334 489.28432598573403 L 950 470.7878533503012 L 966.6666666666666 457.68957440383065 L 983.3333333333333 450.8820959115492 L 1000 450.8293360984519" stroke="#F43F5E" stroke-width="2" fill="none" opacity="0.5"/>
    <text x="500" y="960" font-family="system-ui, sans-serif" font-size="36" font-weight="700" fill="white" text-anchor="middle" opacity="0.85">notebook alt</text>
  </svg>