<svg xmlns="http://www.w3.org/2000/svg" viewBox="0 0 1000 1000" width="1000" height="1000">
    <defs>
      <linearGradient id="g599" x1="0" y1="0" x2="1" y2="1">
        <stop offset="0%" stop-color="#8B5CF6"/>
        <stop offset="100%" stop-color="#6366F1"/>
      </linearGradient>
      <radialGradient id="glow599" cx="50%" cy="50%" r="60%">
        <stop offset="0%" stop-color="#C4B5FD" stop-opacity="0.2"/>
        <stop offset="100%" stop-color="#C4B5FD" stop-opacity="0"/>
      </radialGradient>
    </defs>
    <rect width="1000" height="1000" fill="#0F172A"/>
    <rect width="1000" height="1000" fill="url(#glow599)"/>
    <circle cx="396.3665946468619" cy="731.4585865655283" r="9.608" fill="#06B6D4" opacity="0.4608"/><circle cx="246.64908562801068" cy="216.24398828064113" r="4.144" fill="#8B5CF6" opacity="0.651"/><circle cx="602.1593854106459" cy="467.5146190953666" r="6.68" fill="#6366F1" opacity="0.8412"/><circle cx="473.5916059396053" cy="732.505046661682" r="9.216000000000001" fill="#06B6D4" opacity="0.4314"/><circle cx="189.44427665697702" cy="316.3378571972662" r="3.752" fill="#6366F1" opacity="0.6215999999999999"/><circle cx="571.5113183628253" cy="449.4046311802093" r="6.288" fill="#8B5CF6" opacity="0.8117999999999999"/><circle cx="541.4970059501045" cy="710.3458069398508" r="8.824" fill="#06B6D4" opacity="0.402"/><circle cx="167.4914310052199" cy="423.4788163640711" r="3.3600000000000003" fill="#8B5CF6" opacity="0.5922"/><circle cx="540.9992088348537" cy="445.7499781113772" r="5.896" fill="#6366F1" opacity="0.7824"/><circle cx="593.8456157150141" cy="670.7045412725447" r="8.432" fill="#06B6D4" opacity="0.3726"/><circle cx="179.47223754425596" cy="526.2395406803196" r="2.968" fill="#6366F1" opacity="0.5628"/><circle cx="516.1084659549125" cy="454.3592580627854" r="5.504" fill="#8B5CF6" opacity="0.7529999999999999"/><circle cx="626.9592284087705" cy="620.7327392294635" r="8.04" fill="#06B6D4" opacity="0.3432"/><circle cx="220.62668353599372" cy="614.693286847584" r="2.576" fill="#8B5CF6" opacity="0.5334"/><circle cx="500.9046298614501" cy="471.2142110614669" r="5.112" fill="#6366F1" opacity="0.7236"/><circle cx="639.9474571437273" cy="568.0152132908852" r="7.648" fill="#06B6D4" opacity="0.31379999999999997"/><circle cx="283.54237487703966" cy="681.3721492570675" r="2.184" fill="#6366F1" opacity="0.504"/><circle cx="497.4888421932406" cy="491.149345421408" r="4.720000000000001" fill="#8B5CF6" opacity="0.6941999999999999"/><circle cx="634.5823521299606" cy="519.5854664271063" r="7.256" fill="#06B6D4" opacity="0.8843999999999999"/><circle cx="359.18471827951964" cy="721.8893788219295" r="9.792" fill="#8B5CF6" opacity="0.47459999999999997"/><circle cx="285.07876880316354" cy="175.0430422643086" r="4.327999999999999" fill="#6366F1" opacity="0.6648"/><circle cx="614.8502439057959" cy="481.0690339713155" r="6.864" fill="#06B6D4" opacity="0.855"/><circle cx="438.03975951380147" cy="735.1747618238242" r="9.4" fill="#6366F1" opacity="0.4452"/><circle cx="211.9689484202013" cy="267.75419632244086" r="3.936" fill="#8B5CF6" opacity="0.6354"/><circle cx="586.249431541434" cy="456.05371962521184" r="6.472" fill="#06B6D4" opacity="0.8255999999999999"/><circle cx="511.2346295449965" cy="723.3175834971055" r="9.008" fill="#8B5CF6" opacity="0.4158"/><circle cx="173.40228219464296" cy="373.0587115067271" r="3.544" fill="#6366F1" opacity="0.606"/><circle cx="554.9305542805567" cy="445.7554223315288" r="6.08" fill="#06B6D4" opacity="0.7962"/><circle cx="571.5090013190169" cy="691.0561768966313" r="8.616" fill="#6366F1" opacity="0.38639999999999997"/><circle cx="169.8527582359278" cy="479.2288961397031" r="3.152" fill="#8B5CF6" opacity="0.5766"/><circle cx="526.7927020972616" cy="449.01067646725056" r="5.688000000000001" fill="#06B6D4" opacity="0.7667999999999999"/><circle cx="613.9333126538577" cy="644.9915868859925" r="8.224" fill="#8B5CF6" opacity="0.357"/><circle cx="198.09660317227906" cy="575.4968806235308" r="2.76" fill="#6366F1" opacity="0.5471999999999999"/><circle cx="506.6508762410605" cy="462.5865552878902" r="5.295999999999999" fill="#06B6D4" opacity="0.7373999999999999"/><circle cx="636.3028786404477" cy="592.6313406700311" r="7.832" fill="#6366F1" opacity="0.3276"/><circle cx="251.85000910866793" cy="653.1409220967139" r="2.368" fill="#8B5CF6" opacity="0.5178"/><circle cx="497.57921579270203" cy="481.75993958832106" r="4.904" fill="#06B6D4" opacity="0.708"/><circle cx="639.177363765323" cy="541.3847969106405" r="7.44" fill="#8B5CF6" opacity="0.8981999999999999"/><circle cx="322.701226718161" cy="706.2744409585324" r="9.975999999999999" fill="#6366F1" opacity="0.48839999999999995"/><circle cx="330.19921852384925" cy="139.15497147655128" r="4.5120000000000005" fill="#06B6D4" opacity="0.6786"/><circle cx="625.5776874590296" cy="497.6326359717447" r="7.048" fill="#6366F1" opacity="0.8688"/><circle cx="401.2172864902901" cy="732.2665182751457" r="9.584" fill="#8B5CF6" opacity="0.45899999999999996"/><circle cx="242.16167878845857" cy="221.9495727124053" r="4.12" fill="#06B6D4" opacity="0.6492"/><circle cx="600.3924203294429" cy="465.9799773604358" r="6.656" fill="#8B5CF6" opacity="0.8393999999999999"/><circle cx="478.09158465944984" cy="731.766825359597" r="9.192" fill="#6366F1" opacity="0.4296"/><circle cx="187.0819218208385" cy="322.8152479792344" r="3.7279999999999998" fill="#06B6D4" opacity="0.6198"/><circle cx="569.5786013254409" cy="448.77717073808446" r="6.264" fill="#6366F1" opacity="0.81"/><circle cx="545.1999158353821" cy="708.3535639447389" r="8.8" fill="#8B5CF6" opacity="0.4002"/><circle cx="167.28249252933944" cy="430.00671301824036" r="3.3360000000000003" fill="#06B6D4" opacity="0.5904"/><circle cx="539.2640548531372" cy="445.9576647757535" r="5.872" fill="#8B5CF6" opacity="0.7806"/><circle cx="596.4486363937255" cy="667.8648877454452" r="8.408000000000001" fill="#6366F1" opacity="0.37079999999999996"/><circle cx="181.2176941591914" cy="532.1558934383293" r="2.944" fill="#06B6D4" opacity="0.5609999999999999"/><circle cx="514.8673637277304" cy="455.2026619564581" r="5.48" fill="#6366F1" opacity="0.7512"/><circle cx="628.3272824203223" cy="617.5079086130582" r="8.016" fill="#8B5CF6" opacity="0.3414"/><circle cx="223.93940859425845" cy="619.462085502942" r="2.552" fill="#06B6D4" opacity="0.5316"/><circle cx="500.34682270078054" cy="472.40217917997467" r="5.088" fill="#8B5CF6" opacity="0.7218"/><circle cx="640.1155951491485" cy="564.8612364667829" r="7.624" fill="#6366F1" opacity="0.312"/><circle cx="287.9045117370076" cy="684.6319145177313" r="2.16" fill="#06B6D4" opacity="0.5022"/><circle cx="497.67171066537384" cy="492.34630358752935" r="4.696" fill="#6366F1" opacity="0.6924"/><circle cx="633.7370617371917" cy="516.8949198844682" r="7.232" fill="#8B5CF6" opacity="0.8826"/><circle cx="364.01578317042237" cy="723.4789761325356" r="9.768" fill="#06B6D4" opacity="0.4728"/><circle cx="279.6727401591678" cy="180.13993908111877" r="4.304" fill="#8B5CF6" opacity="0.663"/><circle cx="613.292887615462" cy="479.1250960301537" r="6.84" fill="#6366F1" opacity="0.8532"/><circle cx="442.7672427202587" cy="735.1348793653511" r="9.376000000000001" fill="#06B6D4" opacity="0.4434"/><circle cx="208.5908314358453" cy="273.95987861278235" r="3.912" fill="#6366F1" opacity="0.6335999999999999"/><circle cx="584.3470412471816" cy="455.0007040849942" r="6.448" fill="#8B5CF6" opacity="0.8237999999999999"/><circle cx="515.3589497188839" cy="721.8690214147365" r="8.984" fill="#06B6D4" opacity="0.414"/><circle cx="172.1941369072672" cy="379.6506912274586" r="3.52" fill="#8B5CF6" opacity="0.6042"/><circle cx="553.0605718435039" cy="445.5888272903408" r="6.056" fill="#6366F1" opacity="0.7944"/><circle cx="574.6556592844527" cy="688.5586713381374" r="8.591999999999999" fill="#06B6D4" opacity="0.3846"/><circle cx="170.71874473009012" cy="485.5081082024318" r="3.128" fill="#6366F1" opacity="0.5748"/><circle cx="525.2888133874778" cy="449.5873436778687" r="5.664" fill="#8B5CF6" opacity="0.7649999999999999"/><circle cx="615.8868536624844" cy="641.8889606284081" r="8.2" fill="#06B6D4" opacity="0.35519999999999996"/><circle cx="200.7316919616851" cy="580.8608669498681" r="2.7359999999999998" fill="#8B5CF6" opacity="0.5454"/><circle cx="505.7567883134805" cy="463.6530690660989" r="5.272" fill="#6366F1" opacity="0.7356"/><circle cx="637.0195873508944" cy="589.3901151257264" r="7.808" fill="#06B6D4" opacity="0.3258"/><circle cx="255.78969330061173" cy="657.1416116176447" r="2.344" fill="#6366F1" opacity="0.516"/><circle cx="497.416119867123" cy="482.99518999050787" r="4.88" fill="#8B5CF6" opacity="0.7061999999999999"/><circle cx="638.7762096737614" cy="538.4338864621341" r="7.416" fill="#06B6D4" opacity="0.8963999999999999"/><circle cx="327.38558357605484" cy="708.6549861436838" r="9.952" fill="#8B5CF6" opacity="0.4866"/><circle cx="323.9593273389327" cy="143.4955237741902" r="4.4879999999999995" fill="#6366F1" opacity="0.6768"/><circle cx="624.3116103964893" cy="495.31134127586006" r="7.024" fill="#06B6D4" opacity="0.867"/><circle cx="406.0614475186646" cy="732.9742225176669" r="9.559999999999999" fill="#6366F1" opacity="0.4572"/><circle cx="237.79905040275975" cy="227.72318859237117" r="4.096" fill="#8B5CF6" opacity="0.6474"/><circle cx="598.6043045864028" cy="464.50026595829337" r="6.632" fill="#06B6D4" opacity="0.8375999999999999"/><circle cx="482.5543118397308" cy="730.9420013003582" r="9.168" fill="#8B5CF6" opacity="0.42779999999999996"/><circle cx="184.85303442770453" cy="329.31622780541073" r="3.7039999999999997" fill="#6366F1" opacity="0.618"/><circle cx="567.6479819647956" cy="448.2043386364196" r="6.24" fill="#06B6D4" opacity="0.8082"/><circle cx="548.8425584554373" cy="706.2968843282108" r="8.776" fill="#6366F1" opacity="0.3984"/><circle cx="167.20107945312031" cy="436.51521061835643" r="3.3120000000000003" fill="#8B5CF6" opacity="0.5886"/><circle cx="537.5515474390052" cy="446.21114162825035" r="5.848" fill="#06B6D4" opacity="0.7787999999999999"/><circle cx="598.9781662995618" cy="664.9881286516587" r="8.384" fill="#8B5CF6" opacity="0.369"/><circle cx="183.07187262131544" cy="538.0158135022825" r="2.92" fill="#6366F1" opacity="0.5591999999999999"/><circle cx="513.6639127525436" cy="456.07623094165444" r="5.4559999999999995" fill="#06B6D4" opacity="0.7494"/><circle cx="629.6191928321434" cy="614.274690327927" r="7.992" fill="#6366F1" opacity="0.3396"/><circle cx="227.33225118277528" cy="624.146924065588" r="2.528" fill="#8B5CF6" opacity="0.5298"/><circle cx="499.83412499930927" cy="473.600521113398" r="5.064" fill="#06B6D4" opacity="0.72"/><circle cx="640.2149476455245" cy="561.7252659513331" r="7.6" fill="#8B5CF6" opacity="0.3102"/><circle cx="292.312303633153" cy="687.7919614302816" r="2.136" fill="#6366F1" opacity="0.5004"/><circle cx="497.89868443825037" cy="493.53281568919294" r="4.672000000000001" fill="#06B6D4" opacity="0.6906"/>
    <text x="500" y="960" font-family="system-ui, sans-serif" font-size="36" font-weight="700" fill="white" text-anchor="middle" opacity="0.85">desk alt</text>
  </svg>