<svg xmlns="http://www.w3.org/2000/svg" viewBox="0 0 1000 1000" width="1000" height="1000">
    <defs>
      <linearGradient id="g602" x1="0" y1="0" x2="1" y2="1">
        <stop offset="0%" stop-color="#10B981"/>
        <stop offset="100%" stop-color="#14B8A6"/>
      </linearGradient>
      <radialGradient id="glow602" cx="50%" cy="50%" r="60%">
        <stop offset="0%" stop-color="#6EE7B7" stop-opacity="0.2"/>
        <stop offset="100%" stop-color="#6EE7B7" stop-opacity="0"/>
      </radialGradient>
    </defs>
    <rect width="1000" height="1000" fill="#030712"/>
    <rect width="1000" height="1000" fill="url(#glow602)"/>
    <line x1="652.8" y1="605.6" x2="605.6" y2="558.4000000000001" stroke="#10B981" stroke-width="1" opacity="0.30464159979427147"/><line x1="652.8" y1="605.6" x2="558.4000000000001" y2="511.20000000000005" stroke="#10B981" stroke-width="1" opacity="0.20928319958854277"/><line x1="652.8" y1="605.6" x2="511.20000000000005" y2="464" stroke="#10B981" stroke-width="1" opacity="0.11392479938281402"/><line x1="652.8" y1="605.6" x2="464" y2="416.8" stroke="#10B981" stroke-width="1" opacity="0.018566399177085358"/><line x1="652.8" y1="605.6" x2="675.2" y2="628" stroke="#10B981" stroke-width="1" opacity="0.3547451660040609"/><line x1="652.8" y1="605.6" x2="628" y2="580.8" stroke="#10B981" stroke-width="1" opacity="0.34989643379021035"/><line x1="652.8" y1="605.6" x2="580.8" y2="533.6" stroke="#10B981" stroke-width="1" opacity="0.2545380335844817"/><line x1="652.8" y1="605.6" x2="533.6" y2="486.4" stroke="#10B981" stroke-width="1" opacity="0.15917963337875302"/><line x1="652.8" y1="605.6" x2="486.4" y2="439.2" stroke="#10B981" stroke-width="1" opacity="0.0638212331730243"/><line x1="605.6" y1="558.4000000000001" x2="558.4000000000001" y2="511.20000000000005" stroke="#10B981" stroke-width="1" opacity="0.30464159979427136"/><line x1="605.6" y1="558.4000000000001" x2="511.20000000000005" y2="464" stroke="#10B981" stroke-width="1" opacity="0.20928319958854255"/><line x1="605.6" y1="558.4000000000001" x2="464" y2="416.8" stroke="#10B981" stroke-width="1" opacity="0.11392479938281386"/><line x1="605.6" y1="558.4000000000001" x2="416.8" y2="369.6" stroke="#10B981" stroke-width="1" opacity="0.01856639917708519"/><line x1="605.6" y1="558.4000000000001" x2="675.2" y2="628" stroke="#10B981" stroke-width="1" opacity="0.25938676579833236"/><line x1="605.6" y1="558.4000000000001" x2="628" y2="580.8" stroke="#10B981" stroke-width="1" opacity="0.35474516600406114"/><line x1="605.6" y1="558.4000000000001" x2="580.8" y2="533.6" stroke="#10B981" stroke-width="1" opacity="0.34989643379021024"/><line x1="605.6" y1="558.4000000000001" x2="533.6" y2="486.4" stroke="#10B981" stroke-width="1" opacity="0.25453803358448157"/><line x1="605.6" y1="558.4000000000001" x2="486.4" y2="439.2" stroke="#10B981" stroke-width="1" opacity="0.15917963337875285"/><line x1="605.6" y1="558.4000000000001" x2="439.2" y2="392" stroke="#10B981" stroke-width="1" opacity="0.06382123317302418"/><line x1="558.4000000000001" y1="511.20000000000005" x2="511.20000000000005" y2="464" stroke="#10B981" stroke-width="1" opacity="0.30464159979427125"/><line x1="558.4000000000001" y1="511.20000000000005" x2="464" y2="416.8" stroke="#10B981" stroke-width="1" opacity="0.20928319958854252"/><line x1="558.4000000000001" y1="511.20000000000005" x2="416.8" y2="369.6" stroke="#10B981" stroke-width="1" opacity="0.11392479938281386"/><line x1="558.4000000000001" y1="511.20000000000005" x2="369.6" y2="322.4" stroke="#10B981" stroke-width="1" opacity="0.01856639917708508"/><line x1="558.4000000000001" y1="511.20000000000005" x2="675.2" y2="628" stroke="#10B981" stroke-width="1" opacity="0.1640283655926037"/><line x1="558.4000000000001" y1="511.20000000000005" x2="628" y2="580.8" stroke="#10B981" stroke-width="1" opacity="0.2593867657983325"/><line x1="558.4000000000001" y1="511.20000000000005" x2="580.8" y2="533.6" stroke="#10B981" stroke-width="1" opacity="0.35474516600406114"/><line x1="558.4000000000001" y1="511.20000000000005" x2="533.6" y2="486.4" stroke="#10B981" stroke-width="1" opacity="0.34989643379021024"/><line x1="558.4000000000001" y1="511.20000000000005" x2="486.4" y2="439.2" stroke="#10B981" stroke-width="1" opacity="0.25453803358448146"/><line x1="558.4000000000001" y1="511.20000000000005" x2="439.2" y2="392" stroke="#10B981" stroke-width="1" opacity="0.15917963337875285"/><line x1="558.4000000000001" y1="511.20000000000005" x2="392" y2="344.8" stroke="#10B981" stroke-width="1" opacity="0.06382123317302418"/><line x1="511.20000000000005" y1="464" x2="464" y2="416.8" stroke="#10B981" stroke-width="1" opacity="0.3046415997942713"/><line x1="511.20000000000005" y1="464" x2="416.8" y2="369.6" stroke="#10B981" stroke-width="1" opacity="0.20928319958854263"/><line x1="511.20000000000005" y1="464" x2="369.6" y2="322.4" stroke="#10B981" stroke-width="1" opacity="0.11392479938281391"/><line x1="511.20000000000005" y1="464" x2="675.2" y2="628" stroke="#10B981" stroke-width="1" opacity="0.06866996538687492"/><line x1="511.20000000000005" y1="464" x2="628" y2="580.8" stroke="#10B981" stroke-width="1" opacity="0.1640283655926037"/><line x1="511.20000000000005" y1="464" x2="580.8" y2="533.6" stroke="#10B981" stroke-width="1" opacity="0.25938676579833236"/><line x1="511.20000000000005" y1="464" x2="533.6" y2="486.4" stroke="#10B981" stroke-width="1" opacity="0.35474516600406103"/><line x1="511.20000000000005" y1="464" x2="486.4" y2="439.2" stroke="#10B981" stroke-width="1" opacity="0.3498964337902103"/><line x1="511.20000000000005" y1="464" x2="439.2" y2="392" stroke="#10B981" stroke-width="1" opacity="0.2545380335844816"/><line x1="511.20000000000005" y1="464" x2="392" y2="344.8" stroke="#10B981" stroke-width="1" opacity="0.15917963337875296"/><line x1="464" y1="416.8" x2="416.8" y2="369.6" stroke="#10B981" stroke-width="1" opacity="0.30464159979427136"/><line x1="464" y1="416.8" x2="369.6" y2="322.4" stroke="#10B981" stroke-width="1" opacity="0.20928319958854263"/><line x1="464" y1="416.8" x2="628" y2="580.8" stroke="#10B981" stroke-width="1" opacity="0.06866996538687492"/><line x1="464" y1="416.8" x2="580.8" y2="533.6" stroke="#10B981" stroke-width="1" opacity="0.16402836559260361"/><line x1="464" y1="416.8" x2="533.6" y2="486.4" stroke="#10B981" stroke-width="1" opacity="0.2593867657983323"/><line x1="464" y1="416.8" x2="486.4" y2="439.2" stroke="#10B981" stroke-width="1" opacity="0.35474516600406103"/><line x1="464" y1="416.8" x2="439.2" y2="392" stroke="#10B981" stroke-width="1" opacity="0.34989643379021035"/><line x1="464" y1="416.8" x2="392" y2="344.8" stroke="#10B981" stroke-width="1" opacity="0.2545380335844817"/><line x1="416.8" y1="369.6" x2="369.6" y2="322.4" stroke="#10B981" stroke-width="1" opacity="0.3046415997942713"/><line x1="416.8" y1="369.6" x2="580.8" y2="533.6" stroke="#10B981" stroke-width="1" opacity="0.06866996538687492"/><line x1="416.8" y1="369.6" x2="533.6" y2="486.4" stroke="#10B981" stroke-width="1" opacity="0.16402836559260361"/><line x1="416.8" y1="369.6" x2="486.4" y2="439.2" stroke="#10B981" stroke-width="1" opacity="0.25938676579833236"/><line x1="416.8" y1="369.6" x2="439.2" y2="392" stroke="#10B981" stroke-width="1" opacity="0.35474516600406103"/><line x1="416.8" y1="369.6" x2="392" y2="344.8" stroke="#10B981" stroke-width="1" opacity="0.34989643379021035"/><line x1="369.6" y1="322.4" x2="533.6" y2="486.4" stroke="#10B981" stroke-width="1" opacity="0.06866996538687492"/><line x1="369.6" y1="322.4" x2="486.4" y2="439.2" stroke="#10B981" stroke-width="1" opacity="0.16402836559260361"/><line x1="369.6" y1="322.4" x2="439.2" y2="392" stroke="#10B981" stroke-width="1" opacity="0.2593867657983323"/><line x1="369.6" y1="322.4" x2="392" y2="344.8" stroke="#10B981" stroke-width="1" opacity="0.354745166004061"/><line x1="322.4" y1="675.2" x2="344.8" y2="697.6" stroke="#10B981" stroke-width="1" opacity="0.354745166004061"/><line x1="675.2" y1="628" x2="628" y2="580.8" stroke="#10B981" stroke-width="1" opacity="0.30464159979427125"/><line x1="675.2" y1="628" x2="580.8" y2="533.6" stroke="#10B981" stroke-width="1" opacity="0.20928319958854255"/><line x1="675.2" y1="628" x2="533.6" y2="486.4" stroke="#10B981" stroke-width="1" opacity="0.11392479938281391"/><line x1="675.2" y1="628" x2="486.4" y2="439.2" stroke="#10B981" stroke-width="1" opacity="0.01856639917708519"/><line x1="628" y1="580.8" x2="580.8" y2="533.6" stroke="#10B981" stroke-width="1" opacity="0.30464159979427136"/><line x1="628" y1="580.8" x2="533.6" y2="486.4" stroke="#10B981" stroke-width="1" opacity="0.2092831995885427"/><line x1="628" y1="580.8" x2="486.4" y2="439.2" stroke="#10B981" stroke-width="1" opacity="0.11392479938281397"/><line x1="628" y1="580.8" x2="439.2" y2="392" stroke="#10B981" stroke-width="1" opacity="0.018566399177085358"/><line x1="580.8" y1="533.6" x2="533.6" y2="486.4" stroke="#10B981" stroke-width="1" opacity="0.30464159979427136"/><line x1="580.8" y1="533.6" x2="486.4" y2="439.2" stroke="#10B981" stroke-width="1" opacity="0.20928319958854263"/><line x1="580.8" y1="533.6" x2="439.2" y2="392" stroke="#10B981" stroke-width="1" opacity="0.11392479938281397"/><line x1="580.8" y1="533.6" x2="392" y2="344.8" stroke="#10B981" stroke-width="1" opacity="0.018566399177085358"/><line x1="533.6" y1="486.4" x2="486.4" y2="439.2" stroke="#10B981" stroke-width="1" opacity="0.3046415997942713"/><line x1="533.6" y1="486.4" x2="439.2" y2="392" stroke="#10B981" stroke-width="1" opacity="0.20928319958854263"/><line x1="533.6" y1="486.4" x2="392" y2="344.8" stroke="#10B981" stroke-width="1" opacity="0.11392479938281397"/><line x1="486.4" y1="439.2" x2="439.2" y2="392" stroke="#10B981" stroke-width="1" opacity="0.30464159979427136"/><line x1="486.4" y1="439.2" x2="392" y2="344.8" stroke="#10B981" stroke-width="1" opacity="0.2092831995885427"/><line x1="439.2" y1="392" x2="392" y2="344.8" stroke="#10B981" stroke-width="1" opacity="0.30464159979427136"/><circle cx="652.8" cy="605.6" r="6" fill="#F59E0B" opacity="0.8"/><circle cx="605.6" cy="558.4000000000001" r="6" fill="#F59E0B" opacity="0.8"/><circle cx="558.4000000000001" cy="511.20000000000005" r="6" fill="#F59E0B" opacity="0.8"/><circle cx="511.20000000000005" cy="464" r="6" fill="#F59E0B" opacity="0.8"/><circle cx="464" cy="416.8" r="6" fill="#F59E0B" opacity="0.8"/><circle cx="416.8" cy="369.6" r="6" fill="#F59E0B" opacity="0.8"/><circle cx="369.6" cy="322.4" r="6" fill="#F59E0B" opacity="0.8"/><circle cx="322.4" cy="675.2" r="6" fill="#F59E0B" opacity="0.8"/><circle cx="675.2" cy="628" r="6" fill="#F59E0B" opacity="0.8"/><circle cx="628" cy="580.8" r="6" fill="#F59E0B" opacity="0.8"/><circle cx="580.8" cy="533.6" r="6" fill="#F59E0B" opacity="0.8"/><circle cx="533.6" cy="486.4" r="6" fill="#F59E0B" opacity="0.8"/><circle cx="486.4" cy="439.2" r="6" fill="#F59E0B" opacity="0.8"/><circle cx="439.2" cy="392" r="6" fill="#F59E0B" opacity="0.8"/><circle cx="392" cy="344.8" r="6" fill="#F59E0B" opacity="0.8"/><circle cx="344.8" cy="697.6" r="6" fill="#F59E0B" opacity="0.8"/>
    <text x="500" y="960" font-family="system-ui, sans-serif" font-size="36" font-weight="700" fill="white" text-anchor="middle" opacity="0.85">calculator alt</text>
  </svg>