<svg xmlns="http://www.w3.org/2000/svg" viewBox="0 0 1000 1000" width="1000" height="1000">
    <defs>
      <linearGradient id="g603" x1="0" y1="0" x2="1" y2="1">
        <stop offset="0%" stop-color="#F59E0B"/>
        <stop offset="100%" stop-color="#EF4444"/>
      </linearGradient>
      <radialGradient id="glow603" cx="50%" cy="50%" r="60%">
        <stop offset="0%" stop-color="#FCD34D" stop-opacity="0.2"/>
        <stop offset="100%" stop-color="#FCD34D" stop-opacity="0"/>
      </radialGradient>
    </defs>
    <rect width="1000" height="1000" fill="#030712"/>
    <rect width="1000" height="1000" fill="url(#glow603)"/>
    <rect x="7.5" y="281.75" width="35" height="436.5" fill="#EF4444" opacity="0.5075999999999999" rx="4"/><rect x="57.5" y="363.5" width="35" height="273" fill="#F59E0B" opacity="0.3114" rx="4"/><rect x="107.5" y="445.25" width="35" height="109.5" fill="#EF4444" opacity="0.7152" rx="4"/><rect x="157.5" y="277" width="35" height="446" fill="#F59E0B" opacity="0.519" rx="4"/><rect x="207.5" y="358.75" width="35" height="282.5" fill="#EF4444" opacity="0.3228" rx="4"/><rect x="257.5" y="440.5" width="35" height="119" fill="#F59E0B" opacity="0.7265999999999999" rx="4"/><rect x="307.5" y="272.25" width="35" height="455.5" fill="#EF4444" opacity="0.5304" rx="4"/><rect x="357.5" y="354" width="35" height="292" fill="#F59E0B" opacity="0.3342" rx="4"/><rect x="407.5" y="435.75" width="35" height="128.5" fill="#EF4444" opacity="0.738" rx="4"/><rect x="457.5" y="267.5" width="35" height="465" fill="#F59E0B" opacity="0.5418000000000001" rx="4"/><rect x="507.5" y="349.25" width="35" height="301.5" fill="#EF4444" opacity="0.34559999999999996" rx="4"/><rect x="557.5" y="431" width="35" height="138" fill="#F59E0B" opacity="0.7494" rx="4"/><rect x="607.5" y="262.75" width="35" height="474.5" fill="#EF4444" opacity="0.5531999999999999" rx="4"/><rect x="657.5" y="344.5" width="35" height="311" fill="#F59E0B" opacity="0.357" rx="4"/><rect x="707.5" y="426.25" width="35" height="147.5" fill="#EF4444" opacity="0.7607999999999999" rx="4"/><rect x="757.5" y="258" width="35" height="484" fill="#F59E0B" opacity="0.5646" rx="4"/><rect x="807.5" y="339.75" width="35" height="320.5" fill="#EF4444" opacity="0.3684" rx="4"/><rect x="857.5" y="421.5" width="35" height="157" fill="#F59E0B" opacity="0.7722" rx="4"/><rect x="907.5" y="253.25" width="35" height="493.5" fill="#EF4444" opacity="0.5760000000000001" rx="4"/><rect x="957.5" y="335" width="35" height="330" fill="#F59E0B" opacity="0.37979999999999997" rx="4"/>
    <text x="500" y="960" font-family="system-ui, sans-serif" font-size="36" font-weight="700" fill="white" text-anchor="middle" opacity="0.85">globe alt</text>
  </svg>