<svg xmlns="http://www.w3.org/2000/svg" viewBox="0 0 1000 1000" width="1000" height="1000">
    <defs>
      <linearGradient id="g607" x1="0" y1="0" x2="1" y2="1">
        <stop offset="0%" stop-color="#06B6D4"/>
        <stop offset="100%" stop-color="#0EA5E9"/>
      </linearGradient>
      <radialGradient id="glow607" cx="50%" cy="50%" r="60%">
        <stop offset="0%" stop-color="#67E8F9" stop-opacity="0.2"/>
        <stop offset="100%" stop-color="#67E8F9" stop-opacity="0"/>
      </radialGradient>
    </defs>
    <rect width="1000" height="1000" fill="#030712"/>
    <rect width="1000" height="1000" fill="url(#glow607)"/>
    <path d="M 0 500 L 0 371.7709295120684 L 16.666666666666668 402.0972832220273 L 33.333333333333336 442.00706327634816 L 50 487.59356498346716 L 66.66666666666667 534.3945289536468 L 83.33333333333333 577.8286834970116 L 100 613.6444528907383 L 116.66666666666667 638.3358886146394 L 133.33333333333334 649.4860561205685 L 150 646.0034833019931 L 166.66666666666666 628.2290636839303 L 183.33333333333331 597.9027068428597 L 200 557.9929246299433 L 216.66666666666669 512.4064219480464 L 233.33333333333334 465.6054930922659 L 250 422.17130529284634 L 266.6666666666667 386.3555618921592 L 283.3333333333333 361.6641063154565 L 300 350.51394575274907 L 316.66666666666663 353.99651970487173 L 333.3333333333333 371.77092456426374 L 350 402.097303092254 L 366.66666666666663 442.0070544819179 L 383.33333333333337 487.5935911204402 L 400 534.3945196717647 L 416.6666666666667 577.8287059172951 L 433.33333333333337 613.6444466667679 L 450 638.3358987544466 L 466.6666666666667 649.4860553318553 L 483.3333333333333 646.0034854885562 L 500 628.2290686317358 L 516.6666666666667 597.9027140675801 L 533.3333333333334 557.9929334243739 L 550 512.4064314513262 L 566.6666666666666 465.6054675642051 L 583.3333333333334 422.1713134447556 L 600 386.3555447743058 L 616.6666666666667 361.66411000224275 L 633.3333333333333 350.5139435835416 L 650 353.9965175183079 L 666.6666666666666 371.7709381722657 L 683.3333333333334 402.09729586753315 L 700 442.0070456874879 L 716.6666666666666 487.5935816171603 L 733.3333333333333 534.3945103898824 L 750 577.8286977653863 L 766.6666666666667 613.6444404427971 L 783.3333333333334 638.3358950676611 L 800 649.4860545431413 L 816.6666666666666 646.0034794748269 L 833.3333333333334 628.2290735795407 L 850 597.902694197353 L 866.6666666666667 557.9929422188042 L 883.3333333333333 512.4064053143532 L 900 465.6054768460872 L 916.6666666666666 422.17132159666517 L 933.3333333333334 386.355550998276 L 950 361.66411368902953 L 966.6666666666666 350.5139443722546 L 983.3333333333333 353.9965153317446 L 1000 371.77093322446" stroke="#06B6D4" stroke-width="3" fill="none" opacity="0.7"/><path d="M 0 500 L 0 601.8857954520249 L 16.666666666666668 622.2432432791283 L 33.333333333333336 637.6774354208923 L 50 647.1365632716409 L 66.66666666666667 649.9759860262959 L 83.33333333333333 646.0022132589892 L 100 635.4860509092227 L 116.66666666666667 619.1441405534168 L 133.33333333333334 598.0901855281265 L 150 573.7589651342869 L 166.66666666666666 547.8086111735446 L 183.33333333333331 522.0075966805357 L 200 498.1141970745474 L 216.66666666666669 477.756750676098 L 233.33333333333334 462.32256037492914 L 250 452.8634403158631 L 266.6666666666667 450.0240141652824 L 283.3333333333333 453.99778918818555 L 300 464.51395362677755 L 316.66666666666663 480.855848538156 L 333.3333333333333 501.90980123294844 L 350 526.2410433576614 L 366.66666666666663 552.191397566634 L 383.33333333333337 577.9924117122448 L 400 601.8857900174187 L 416.6666666666667 622.2432388834255 L 433.33333333333337 637.6774438292489 L 450 647.136561761212 L 466.6666666666667 649.9759861656095 L 483.3333333333333 646.0022150385511 L 500 635.4860418372216 L 516.6666666666667 619.1441451461385 L 533.3333333333334 598.0901911020462 L 550 573.7589713095514 L 566.6666666666666 547.8086175293199 L 583.3333333333334 522.0075798949749 L 600 498.11420250915336 L 616.6666666666667 477.7567550718003 L 633.3333333333333 462.322563432168 L 650 452.8634361617137 L 666.6666666666666 450.0240140259683 L 683.3333333333334 453.99778740862314 L 700 464.513950328241 L 716.6666666666666 480.855843945435 L 733.3333333333333 501.9098165629595 L 750 526.2410371823969 L 766.6666666666667 552.1913912108587 L 783.3333333333334 577.9924056090942 L 800 601.8858049642743 L 816.6666666666666 622.2432509729733 L 833.3333333333334 637.6774407720104 L 850 647.1365602507827 L 866.6666666666667 649.9759863049226 L 883.3333333333333 646.002210144202 L 900 635.4860451357586 L 916.6666666666666 619.1441497388598 L 933.3333333333334 598.0901966759657 L 950 573.7589543256548 L 966.6666666666666 547.8086000489626 L 983.3333333333333 522.0075859981254 L 1000 498.1142079437595" stroke="#0EA5E9" stroke-width="2" fill="none" opacity="0.5"/>
    <text x="500" y="960" font-family="system-ui, sans-serif" font-size="36" font-weight="700" fill="white" text-anchor="middle" opacity="0.85">group alt</text>
  </svg>