<svg xmlns="http://www.w3.org/2000/svg" viewBox="0 0 1000 1000" width="1000" height="1000">
    <defs>
      <linearGradient id="g608" x1="0" y1="0" x2="1" y2="1">
        <stop offset="0%" stop-color="#10B981"/>
        <stop offset="100%" stop-color="#14B8A6"/>
      </linearGradient>
      <radialGradient id="glow608" cx="50%" cy="50%" r="60%">
        <stop offset="0%" stop-color="#6EE7B7" stop-opacity="0.2"/>
        <stop offset="100%" stop-color="#6EE7B7" stop-opacity="0"/>
      </radialGradient>
    </defs>
    <rect width="1000" height="1000" fill="#030712"/>
    <rect width="1000" height="1000" fill="url(#glow608)"/>
    <circle cx="265.2111510266117" cy="701.807721353152" r="3.2880000000000003" fill="#F59E0B" opacity="0.6288"/><circle cx="509.6745279393768" cy="436.3308276388783" r="6.384" fill="#10B981" opacity="0.861"/><circle cx="616.2880516000362" cy="685.8110035898502" r="9.48" fill="#14B8A6" opacity="0.49319999999999997"/><circle cx="142.88066026475553" cy="388.9064484901889" r="4.5760000000000005" fill="#F59E0B" opacity="0.7253999999999999"/><circle cx="618.2067957880968" cy="448.8473516862403" r="7.672" fill="#14B8A6" opacity="0.3576"/><circle cx="376.03396857779546" cy="755.0713293442228" r="2.768" fill="#10B981" opacity="0.5898"/><circle cx="490.2168041337581" cy="462.8671428699225" r="5.864" fill="#F59E0B" opacity="0.8220000000000001"/><circle cx="659.1064978618122" cy="609.5963609712894" r="8.96" fill="#10B981" opacity="0.4542"/><circle cx="153.9833249418444" cy="537.1006816877905" r="4.056" fill="#14B8A6" opacity="0.6864"/><circle cx="570.3714424894692" cy="425.0620251010789" r="7.152" fill="#F59E0B" opacity="0.3186"/><circle cx="488.67381272131803" cy="757.3508839730849" r="2.248" fill="#14B8A6" opacity="0.5508"/><circle cx="492.33854079767985" cy="490.2500234415059" r="5.343999999999999" fill="#10B981" opacity="0.7829999999999999"/><circle cx="664.0383345165254" cy="532.3614710581038" r="8.440000000000001" fill="#F59E0B" opacity="0.4152"/><circle cx="219.80083099641274" cy="658.6582039785499" r="3.536" fill="#10B981" opacity="0.6474"/><circle cx="526.0150722748384" cy="427.7403569443155" r="6.632" fill="#14B8A6" opacity="0.8795999999999999"/><circle cx="582.5449911099888" cy="716.3905830729514" r="9.728" fill="#F59E0B" opacity="0.5118"/><circle cx="160.232177742369" cy="315.9815581027085" r="4.824" fill="#14B8A6" opacity="0.744"/><circle cx="637.9902590478289" cy="470.06459607900587" r="7.92" fill="#10B981" opacity="0.3762"/><circle cx="321.53285566004877" cy="736.147154103417" r="3.016" fill="#F59E0B" opacity="0.6084"/><circle cx="496.8102416079109" cy="449.3002421958438" r="6.112" fill="#10B981" opacity="0.8406"/><circle cx="643.542810145058" cy="647.1965409092885" r="9.208" fill="#14B8A6" opacity="0.4728"/><circle cx="140.99344726480058" cy="468.33842876311223" r="4.304" fill="#F59E0B" opacity="0.7050000000000001"/><circle cx="593.6223677426924" cy="432.8740567421801" r="7.4" fill="#14B8A6" opacity="0.3372"/><circle cx="436.1452708035944" cy="762.3405678869619" r="2.496" fill="#10B981" opacity="0.5693999999999999"/><circle cx="488.74103560645926" cy="477.9030382001285" r="5.5920000000000005" fill="#F59E0B" opacity="0.8015999999999999"/><circle cx="666.1438663474687" cy="568.2083255557154" r="8.687999999999999" fill="#10B981" opacity="0.43379999999999996"/><circle cx="182.62224911524555" cy="605.331492172734" r="3.784" fill="#14B8A6" opacity="0.6659999999999999"/><circle cx="545.8880064133103" cy="423.5086222675262" r="6.88" fill="#F59E0B" opacity="0.8981999999999999"/><circle cx="541.195360509907" cy="740.4972812163555" r="9.975999999999999" fill="#14B8A6" opacity="0.5304"/><circle cx="192.71931878101526" cy="245.79531288822255" r="5.072" fill="#10B981" opacity="0.7626"/><circle cx="653.5727133256922" cy="497.10487965971333" r="8.168" fill="#F59E0B" opacity="0.3948"/><circle cx="269.9517507511822" cy="705.3980599167232" r="3.2640000000000002" fill="#10B981" opacity="0.627"/><circle cx="508.3148674946322" cy="437.3493577164072" r="6.36" fill="#14B8A6" opacity="0.8592"/><circle cx="619.1139675880706" cy="682.5811127291869" r="9.456" fill="#F59E0B" opacity="0.49139999999999995"/><circle cx="142.00251397963564" cy="395.9921156685753" r="4.552" fill="#14B8A6" opacity="0.7236"/><circle cx="616.1295218594055" cy="447.1256758652569" r="7.648" fill="#10B981" opacity="0.3558"/><circle cx="381.3677902965059" cy="756.2736014904115" r="2.7439999999999998" fill="#F59E0B" opacity="0.588"/><circle cx="489.84618799875545" cy="464.2125706169976" r="5.84" fill="#10B981" opacity="0.8202"/><circle cx="660.1430592537289" cy="605.9160071606586" r="8.936" fill="#14B8A6" opacity="0.4524"/><circle cx="155.9346215841391" cy="543.4655654001008" r="4.032" fill="#F59E0B" opacity="0.6846"/><circle cx="568.1416545761307" cy="424.63903588974404" r="7.128" fill="#14B8A6" opacity="0.31679999999999997"/><circle cx="493.55664352832827" cy="756.3190261322382" r="2.224" fill="#10B981" opacity="0.5489999999999999"/><circle cx="492.915214186573" cy="491.3255657257742" r="5.32" fill="#F59E0B" opacity="0.7812"/><circle cx="663.4376795318481" cy="529.0538277898959" r="8.416" fill="#10B981" opacity="0.4134"/><circle cx="223.8739577371349" cy="663.3004861727192" r="3.512" fill="#14B8A6" opacity="0.6456"/><circle cx="524.2633369014251" cy="428.39936814239735" r="6.608" fill="#F59E0B" opacity="0.8777999999999999"/><circle cx="586.1602010019892" cy="713.683363328306" r="9.704" fill="#14B8A6" opacity="0.51"/><circle cx="157.88983991702253" cy="322.9698376886031" r="4.8" fill="#10B981" opacity="0.7422"/><circle cx="636.2337915374977" cy="467.7454802652772" r="7.896" fill="#F59E0B" opacity="0.37439999999999996"/><circle cx="326.72090762417895" cy="738.4982099417346" r="2.992" fill="#10B981" opacity="0.6066"/><circle cx="495.95310566621936" cy="450.5653699695121" r="6.088" fill="#14B8A6" opacity="0.8388"/><circle cx="645.437892421578" cy="643.6216538268848" r="9.184000000000001" fill="#F59E0B" opacity="0.471"/><circle cx="141.6575877150479" cy="475.1936387633854" r="4.279999999999999" fill="#14B8A6" opacity="0.7032"/><circle cx="591.3786362752799" cy="431.8388319314428" r="7.376" fill="#10B981" opacity="0.3354"/><circle cx="441.36309671260943" cy="762.3264256091353" r="2.472" fill="#F59E0B" opacity="0.5676"/><circle cx="488.8913872008982" cy="479.1779270561351" r="5.568" fill="#10B981" opacity="0.7998"/><circle cx="666.2814864625449" cy="564.6299254200909" r="8.664" fill="#14B8A6" opacity="0.432"/><circle cx="185.79555344049754" cy="610.8954722350591" r="3.76" fill="#F59E0B" opacity="0.6641999999999999"/><circle cx="543.8402892698751" cy="423.69777829752485" r="6.856" fill="#14B8A6" opacity="0.8963999999999999"/><circle cx="545.4961831814139" cy="738.4993444769256" r="9.952" fill="#10B981" opacity="0.5286"/><circle cx="188.9214137147485" cy="252.37957847792651" r="5.048" fill="#F59E0B" opacity="0.7607999999999999"/><circle cx="652.2917156304259" cy="494.2560161611019" r="8.144" fill="#10B981" opacity="0.393"/><circle cx="274.7439576404296" cy="708.8816779435272" r="3.24" fill="#14B8A6" opacity="0.6252"/><circle cx="506.99709586215585" cy="438.3960987477595" r="6.336" fill="#F59E0B" opacity="0.8573999999999999"/><circle cx="621.8596763183419" cy="679.311068502725" r="9.432" fill="#14B8A6" opacity="0.4896"/><circle cx="141.26418300955538" cy="403.0712962626743" r="4.5280000000000005" fill="#10B981" opacity="0.7218"/><circle cx="614.0297324641408" cy="445.4639558259268" r="7.624" fill="#F59E0B" opacity="0.354"/><circle cx="386.7027102773181" cy="757.365817741002" r="2.7199999999999998" fill="#10B981" opacity="0.5861999999999999"/><circle cx="489.5226979941822" cy="465.5583661438821" r="5.816" fill="#14B8A6" opacity="0.8184"/><circle cx="661.0977681857845" cy="602.2357524819926" r="8.911999999999999" fill="#F59E0B" opacity="0.4506"/><circle cx="158.00249341092382" cy="549.7701264500585" r="4.008" fill="#14B8A6" opacity="0.6828"/><circle cx="565.9212098775968" cy="424.27316137409514" r="7.104" fill="#10B981" opacity="0.315"/><circle cx="498.39654165998934" cy="755.1949625704863" r="2.2" fill="#F59E0B" opacity="0.5471999999999999"/><circle cx="493.52944038430553" cy="492.3755748898855" r="5.295999999999999" fill="#10B981" opacity="0.7794"/><circle cx="662.7710385300787" cy="525.78039983863" r="8.392" fill="#14B8A6" opacity="0.41159999999999997"/><circle cx="228.02216361841653" cy="667.8458117356303" r="3.488" fill="#F59E0B" opacity="0.6437999999999999"/><circle cx="522.5458240606783" cy="429.0983369911189" r="6.584" fill="#14B8A6" opacity="0.8759999999999999"/><circle cx="589.7028444390868" cy="710.9171394162574" r="9.68" fill="#10B981" opacity="0.5082"/><circle cx="155.68984187446938" cy="329.9808392810619" r="4.776" fill="#F59E0B" opacity="0.7404"/><circle cx="634.4393427646539" cy="465.4818436615181" r="7.872" fill="#10B981" opacity="0.3726"/><circle cx="331.9339279254282" cy="740.7379392979528" r="2.968" fill="#14B8A6" opacity="0.6048"/><circle cx="495.1424930012012" cy="451.8443707781051" r="6.064" fill="#F59E0B" opacity="0.837"/><circle cx="647.2495160540079" cy="640.0279258643092" r="9.16" fill="#14B8A6" opacity="0.46919999999999995"/><circle cx="142.45216953504575" cy="482.0125340916426" r="4.256" fill="#10B981" opacity="0.7014"/><circle cx="589.1294853959779" cy="430.86408434794424" r="7.352" fill="#F59E0B" opacity="0.3336"/><circle cx="446.5576092143447" cy="762.2092120180245" r="2.448" fill="#10B981" opacity="0.5658"/><circle cx="489.08559718375255" cy="480.43892101225777" r="5.5440000000000005" fill="#14B8A6" opacity="0.7979999999999999"/><circle cx="666.3436395762665" cy="561.0707259865244" r="8.64" fill="#F59E0B" opacity="0.43019999999999997"/><circle cx="189.06543759960016" cy="616.377394303498" r="3.7359999999999998" fill="#14B8A6" opacity="0.6624"/><circle cx="541.8162189120288" cy="423.93658017219263" r="6.832" fill="#10B981" opacity="0.8946000000000001"/><circle cx="549.7364062788033" cy="736.425146485034" r="9.928" fill="#F59E0B" opacity="0.5267999999999999"/><circle cx="185.26220597599797" cy="259.01642999385854" r="5.024" fill="#10B981" opacity="0.7589999999999999"/><circle cx="650.958314376477" cy="491.45439758631784" r="8.120000000000001" fill="#14B8A6" opacity="0.3912"/><circle cx="279.58543838430046" cy="712.2579115787183" r="3.216" fill="#F59E0B" opacity="0.6234"/><circle cx="505.72178544976566" cy="439.46983255213274" r="6.312" fill="#14B8A6" opacity="0.8555999999999999"/><circle cx="624.5246748578409" cy="676.0027424546249" r="9.408000000000001" fill="#10B981" opacity="0.4878"/><circle cx="140.6651086600648" cy="410.141244913381" r="4.504" fill="#F59E0B" opacity="0.72"/><circle cx="611.9089463037383" cy="443.862421345528" r="7.6" fill="#10B981" opacity="0.35219999999999996"/><circle cx="392.036482162329" cy="758.3483671636322" r="2.6959999999999997" fill="#14B8A6" opacity="0.5844"/><circle cx="489.24620859575185" cy="466.90323323292864" r="5.792" fill="#F59E0B" opacity="0.8166"/>
    <text x="500" y="960" font-family="system-ui, sans-serif" font-size="36" font-weight="700" fill="white" text-anchor="middle" opacity="0.85">community alt</text>
  </svg>