<svg xmlns="http://www.w3.org/2000/svg" viewBox="0 0 1000 1000" width="1000" height="1000">
    <defs>
      <linearGradient id="g609" x1="0" y1="0" x2="1" y2="1">
        <stop offset="0%" stop-color="#F59E0B"/>
        <stop offset="100%" stop-color="#EF4444"/>
      </linearGradient>
      <radialGradient id="glow609" cx="50%" cy="50%" r="60%">
        <stop offset="0%" stop-color="#FCD34D" stop-opacity="0.2"/>
        <stop offset="100%" stop-color="#FCD34D" stop-opacity="0"/>
      </radialGradient>
    </defs>
    <rect width="1000" height="1000" fill="#030712"/>
    <rect width="1000" height="1000" fill="url(#glow609)"/>
    <path d="M 0 500 L 0 357.66703176008747 L 16.666666666666668 350.0036209433215 L 33.333333333333336 357.0229013689567 L 50 378.0377668757236 L 66.66666666666667 410.9911659808366 L 83.33333333333333 452.6573430246128 L 100 498.9577817185559 L 116.66666666666667 545.3602059934692 L 133.33333333333334 587.3224894375124 L 150 620.7370110771685 L 166.66666666666666 642.3329723787377 L 183.33333333333331 649.9963791477937 L 200 642.9770946655265 L 216.66666666666669 621.9622254903029 L 233.33333333333334 589.0088522499448 L 250 547.3426445322435 L 266.6666666666667 501.0422409302672 L 283.3333333333333 454.6397815070752 L 300 412.6775289782713 L 316.66666666666663 379.2629811414315 L 333.3333333333333 357.66703476980274 L 350 350.0036207610923 L 366.66666666666663 357.02289848527107 L 383.33333333333337 378.03778214367156 L 400 410.9911583052201 L 416.6666666666667 452.65736791090046 L 433.33333333333337 498.9577721828332 L 450 545.36023099238 L 466.6666666666667 587.3224816840058 L 483.3333333333333 620.7370054186073 L 500 642.3329693690233 L 516.6666666666667 649.9963790815357 L 533.3333333333334 642.9770975492129 L 550 621.9622310416563 L 566.6666666666666 589.0088311396144 L 583.3333333333334 547.3426535807799 L 600 501.04221470406634 L 616.6666666666667 454.6397905965611 L 633.3333333333333 412.67750765371784 L 650 379.26298679999195 L 666.6666666666666 357.6670264921518 L 683.3333333333334 350.00362082734944 L 700 357.022895601586 L 716.6666666666666 378.0377765923174 L 733.3333333333333 410.9911506296039 L 750 452.65735886236376 L 766.6666666666667 498.95776264711054 L 783.3333333333334 545.3602219028944 L 800 587.3224739304987 L 816.6666666666666 620.7370209814078 L 833.3333333333334 642.3329663593082 L 850 649.9963792637643 L 866.6666666666667 642.9771004328989 L 883.3333333333333 621.9622157737078 L 900 589.008838815231 L 916.6666666666666 547.3426626293162 L 933.3333333333334 501.042224239789 L 950 454.6397996860471 L 966.6666666666666 412.6775154072244 L 983.3333333333333 379.2629924585529 L 1000 357.66702950186607" stroke="#F59E0B" stroke-width="3" fill="none" opacity="0.7"/><path d="M 0 500 L 0 518.4382358469686 L 16.666666666666668 544.0726602762411 L 33.333333333333336 570.1110229517683 L 50 594.7788745107721 L 66.66666666666667 616.3950976304451 L 83.33333333333333 633.4866063678365 L 100 644.8886431104279 L 116.66666666666667 649.8241796189508 L 133.33333333333334 647.9568584322792 L 150 639.4139418777288 L 166.66666666666666 624.7776153692913 L 183.33333333333331 605.0453199744551 L 200 581.5617558576022 L 216.66666666666669 555.9273309968518 L 233.33333333333334 529.8889684845706 L 250 505.2211389903576 L 266.6666666666667 483.60489583228855 L 283.3333333333333 466.51338881994945 L 300 455.1113541303547 L 316.66666666666663 450.1758212760513 L 333.3333333333333 452.0431385310395 L 350 460.5860620369647 L 366.66666666666663 475.2223904351525 L 383.33333333333337 494.954687324176 L 400 518.438229814611 L 416.6666666666667 544.0726539301166 L 433.33333333333337 570.1110400790903 L 450 594.7788688264579 L 466.6666666666667 616.3950928766066 L 483.3333333333333 633.4866028684396 L 500 644.888648628862 L 516.6666666666667 649.8241792421327 L 533.3333333333334 647.9568597107984 L 550 639.4139447244564 L 566.6666666666666 624.7776195902277 L 583.3333333333334 605.0453053771926 L 600 581.5617618899599 L 616.6666666666667 555.9273373429762 L 633.3333333333333 529.888974711984 L 650 505.22112335672693 L 666.6666666666666 483.60490058612675 L 683.3333333333334 466.51339231934594 L 700 455.1113561368315 L 716.6666666666666 450.1758216528703 L 733.3333333333333 452.0431420473643 L 750 460.58605919023654 L 766.6666666666667 475.22238621421576 L 783.3333333333334 494.9546820166804 L 800 518.4382464054695 L 816.6666666666666 544.072671383931 L 833.3333333333334 570.1110338516771 L 850 594.7788631421437 L 866.6666666666667 616.3950881227677 L 883.3333333333333 633.486612492868 L 900 644.8886466223857 L 916.6666666666666 649.8241788653143 L 933.3333333333334 647.9568609893173 L 950 639.4139368950698 L 966.6666666666666 624.7776079813402 L 983.3333333333333 605.0453106846884 L 1000 581.5617679223176" stroke="#EF4444" stroke-width="2" fill="none" opacity="0.5"/>
    <text x="500" y="960" font-family="system-ui, sans-serif" font-size="36" font-weight="700" fill="white" text-anchor="middle" opacity="0.85">leader alt</text>
  </svg>