<svg xmlns="http://www.w3.org/2000/svg" viewBox="0 0 1000 1000" width="1000" height="1000">
    <defs>
      <linearGradient id="g612" x1="0" y1="0" x2="1" y2="1">
        <stop offset="0%" stop-color="#6366F1"/>
        <stop offset="100%" stop-color="#8B5CF6"/>
      </linearGradient>
      <radialGradient id="glow612" cx="50%" cy="50%" r="60%">
        <stop offset="0%" stop-color="#A78BFA" stop-opacity="0.2"/>
        <stop offset="100%" stop-color="#A78BFA" stop-opacity="0"/>
      </radialGradient>
    </defs>
    <rect width="1000" height="1000" fill="#030712"/>
    <rect width="1000" height="1000" fill="url(#glow612)"/>
    <line x1="628.8" y1="557.6" x2="557.6" y2="486.4" stroke="#6366F1" stroke-width="1" opacity="0.25615427765576526"/><line x1="628.8" y1="557.6" x2="486.4" y2="415.2" stroke="#6366F1" stroke-width="1" opacity="0.11230855531153039"/><line x1="628.8" y1="557.6" x2="672.8" y2="601.6" stroke="#6366F1" stroke-width="1" opacity="0.3111065760794055"/><line x1="628.8" y1="557.6" x2="601.6" y2="530.4" stroke="#6366F1" stroke-width="1" opacity="0.3450477015763598"/><line x1="628.8" y1="557.6" x2="530.4" y2="459.20000000000005" stroke="#6366F1" stroke-width="1" opacity="0.20120197923212496"/><line x1="628.8" y1="557.6" x2="459.20000000000005" y2="388" stroke="#6366F1" stroke-width="1" opacity="0.0573562568878902"/><line x1="628.8" y1="557.6" x2="645.6" y2="574.4000000000001" stroke="#6366F1" stroke-width="1" opacity="0.3660588745030456"/><line x1="628.8" y1="557.6" x2="574.4000000000001" y2="503.2" stroke="#6366F1" stroke-width="1" opacity="0.2900954031527196"/><line x1="628.8" y1="557.6" x2="503.2" y2="432" stroke="#6366F1" stroke-width="1" opacity="0.14624968080848472"/><line x1="628.8" y1="557.6" x2="432" y2="360.8" stroke="#6366F1" stroke-width="1" opacity="0.0024039584642499"/><line x1="557.6" y1="486.4" x2="486.4" y2="415.2" stroke="#6366F1" stroke-width="1" opacity="0.25615427765576515"/><line x1="557.6" y1="486.4" x2="415.2" y2="344" stroke="#6366F1" stroke-width="1" opacity="0.11230855531153039"/><line x1="557.6" y1="486.4" x2="672.8" y2="601.6" stroke="#6366F1" stroke-width="1" opacity="0.1672608537351707"/><line x1="557.6" y1="486.4" x2="601.6" y2="530.4" stroke="#6366F1" stroke-width="1" opacity="0.3111065760794055"/><line x1="557.6" y1="486.4" x2="530.4" y2="459.20000000000005" stroke="#6366F1" stroke-width="1" opacity="0.3450477015763598"/><line x1="557.6" y1="486.4" x2="459.20000000000005" y2="388" stroke="#6366F1" stroke-width="1" opacity="0.20120197923212496"/><line x1="557.6" y1="486.4" x2="388" y2="316.8" stroke="#6366F1" stroke-width="1" opacity="0.057356256887890145"/><line x1="557.6" y1="486.4" x2="645.6" y2="574.4000000000001" stroke="#6366F1" stroke-width="1" opacity="0.22221315215881082"/><line x1="557.6" y1="486.4" x2="574.4000000000001" y2="503.2" stroke="#6366F1" stroke-width="1" opacity="0.36605887450304564"/><line x1="557.6" y1="486.4" x2="503.2" y2="432" stroke="#6366F1" stroke-width="1" opacity="0.2900954031527195"/><line x1="557.6" y1="486.4" x2="432" y2="360.8" stroke="#6366F1" stroke-width="1" opacity="0.14624968080848472"/><line x1="486.4" y1="415.2" x2="415.2" y2="344" stroke="#6366F1" stroke-width="1" opacity="0.25615427765576526"/><line x1="486.4" y1="415.2" x2="672.8" y2="601.6" stroke="#6366F1" stroke-width="1" opacity="0.02341513139093576"/><line x1="486.4" y1="415.2" x2="601.6" y2="530.4" stroke="#6366F1" stroke-width="1" opacity="0.16726085373517063"/><line x1="486.4" y1="415.2" x2="530.4" y2="459.20000000000005" stroke="#6366F1" stroke-width="1" opacity="0.3111065760794054"/><line x1="486.4" y1="415.2" x2="459.20000000000005" y2="388" stroke="#6366F1" stroke-width="1" opacity="0.34504770157635983"/><line x1="486.4" y1="415.2" x2="388" y2="316.8" stroke="#6366F1" stroke-width="1" opacity="0.20120197923212496"/><line x1="486.4" y1="415.2" x2="645.6" y2="574.4000000000001" stroke="#6366F1" stroke-width="1" opacity="0.078367429814576"/><line x1="486.4" y1="415.2" x2="574.4000000000001" y2="503.2" stroke="#6366F1" stroke-width="1" opacity="0.22221315215881082"/><line x1="486.4" y1="415.2" x2="503.2" y2="432" stroke="#6366F1" stroke-width="1" opacity="0.3660588745030457"/><line x1="486.4" y1="415.2" x2="432" y2="360.8" stroke="#6366F1" stroke-width="1" opacity="0.29009540315271953"/><line x1="415.2" y1="344" x2="601.6" y2="530.4" stroke="#6366F1" stroke-width="1" opacity="0.02341513139093576"/><line x1="415.2" y1="344" x2="530.4" y2="459.20000000000005" stroke="#6366F1" stroke-width="1" opacity="0.16726085373517063"/><line x1="415.2" y1="344" x2="459.20000000000005" y2="388" stroke="#6366F1" stroke-width="1" opacity="0.3111065760794054"/><line x1="415.2" y1="344" x2="388" y2="316.8" stroke="#6366F1" stroke-width="1" opacity="0.3450477015763598"/><line x1="415.2" y1="344" x2="574.4000000000001" y2="503.2" stroke="#6366F1" stroke-width="1" opacity="0.078367429814576"/><line x1="415.2" y1="344" x2="503.2" y2="432" stroke="#6366F1" stroke-width="1" opacity="0.22221315215881093"/><line x1="415.2" y1="344" x2="432" y2="360.8" stroke="#6366F1" stroke-width="1" opacity="0.3660588745030457"/><line x1="344" y1="672.8" x2="316.8" y2="645.6" stroke="#6366F1" stroke-width="1" opacity="0.34504770157635983"/><line x1="344" y1="672.8" x2="360.8" y2="689.5999999999999" stroke="#6366F1" stroke-width="1" opacity="0.36605887450304575"/><line x1="672.8" y1="601.6" x2="601.6" y2="530.4" stroke="#6366F1" stroke-width="1" opacity="0.25615427765576526"/><line x1="672.8" y1="601.6" x2="530.4" y2="459.20000000000005" stroke="#6366F1" stroke-width="1" opacity="0.11230855531153044"/><line x1="672.8" y1="601.6" x2="645.6" y2="574.4000000000001" stroke="#6366F1" stroke-width="1" opacity="0.3450477015763599"/><line x1="672.8" y1="601.6" x2="574.4000000000001" y2="503.2" stroke="#6366F1" stroke-width="1" opacity="0.20120197923212504"/><line x1="672.8" y1="601.6" x2="503.2" y2="432" stroke="#6366F1" stroke-width="1" opacity="0.057356256887890145"/><line x1="601.6" y1="530.4" x2="530.4" y2="459.20000000000005" stroke="#6366F1" stroke-width="1" opacity="0.25615427765576526"/><line x1="601.6" y1="530.4" x2="459.20000000000005" y2="388" stroke="#6366F1" stroke-width="1" opacity="0.11230855531153044"/><line x1="601.6" y1="530.4" x2="645.6" y2="574.4000000000001" stroke="#6366F1" stroke-width="1" opacity="0.31110657607940534"/><line x1="601.6" y1="530.4" x2="574.4000000000001" y2="503.2" stroke="#6366F1" stroke-width="1" opacity="0.34504770157635983"/><line x1="601.6" y1="530.4" x2="503.2" y2="432" stroke="#6366F1" stroke-width="1" opacity="0.20120197923212493"/><line x1="601.6" y1="530.4" x2="432" y2="360.8" stroke="#6366F1" stroke-width="1" opacity="0.057356256887890145"/><line x1="530.4" y1="459.20000000000005" x2="459.20000000000005" y2="388" stroke="#6366F1" stroke-width="1" opacity="0.25615427765576526"/><line x1="530.4" y1="459.20000000000005" x2="388" y2="316.8" stroke="#6366F1" stroke-width="1" opacity="0.11230855531153039"/><line x1="530.4" y1="459.20000000000005" x2="645.6" y2="574.4000000000001" stroke="#6366F1" stroke-width="1" opacity="0.1672608537351706"/><line x1="530.4" y1="459.20000000000005" x2="574.4000000000001" y2="503.2" stroke="#6366F1" stroke-width="1" opacity="0.3111065760794054"/><line x1="530.4" y1="459.20000000000005" x2="503.2" y2="432" stroke="#6366F1" stroke-width="1" opacity="0.3450477015763597"/><line x1="530.4" y1="459.20000000000005" x2="432" y2="360.8" stroke="#6366F1" stroke-width="1" opacity="0.20120197923212493"/><line x1="459.20000000000005" y1="388" x2="388" y2="316.8" stroke="#6366F1" stroke-width="1" opacity="0.25615427765576515"/><line x1="459.20000000000005" y1="388" x2="645.6" y2="574.4000000000001" stroke="#6366F1" stroke-width="1" opacity="0.02341513139093576"/><line x1="459.20000000000005" y1="388" x2="574.4000000000001" y2="503.2" stroke="#6366F1" stroke-width="1" opacity="0.16726085373517063"/><line x1="459.20000000000005" y1="388" x2="503.2" y2="432" stroke="#6366F1" stroke-width="1" opacity="0.3111065760794055"/><line x1="459.20000000000005" y1="388" x2="432" y2="360.8" stroke="#6366F1" stroke-width="1" opacity="0.3450477015763597"/><line x1="388" y1="316.8" x2="574.4000000000001" y2="503.2" stroke="#6366F1" stroke-width="1" opacity="0.02341513139093576"/><line x1="388" y1="316.8" x2="503.2" y2="432" stroke="#6366F1" stroke-width="1" opacity="0.1672608537351707"/><line x1="388" y1="316.8" x2="432" y2="360.8" stroke="#6366F1" stroke-width="1" opacity="0.3111065760794055"/><line x1="316.8" y1="645.6" x2="360.8" y2="689.5999999999999" stroke="#6366F1" stroke-width="1" opacity="0.3111065760794056"/><line x1="645.6" y1="574.4000000000001" x2="574.4000000000001" y2="503.2" stroke="#6366F1" stroke-width="1" opacity="0.25615427765576515"/><line x1="645.6" y1="574.4000000000001" x2="503.2" y2="432" stroke="#6366F1" stroke-width="1" opacity="0.11230855531153028"/><line x1="574.4000000000001" y1="503.2" x2="503.2" y2="432" stroke="#6366F1" stroke-width="1" opacity="0.25615427765576515"/><line x1="574.4000000000001" y1="503.2" x2="432" y2="360.8" stroke="#6366F1" stroke-width="1" opacity="0.11230855531153033"/><line x1="503.2" y1="432" x2="432" y2="360.8" stroke="#6366F1" stroke-width="1" opacity="0.25615427765576526"/><circle cx="628.8" cy="557.6" r="6" fill="#06B6D4" opacity="0.8"/><circle cx="557.6" cy="486.4" r="6" fill="#06B6D4" opacity="0.8"/><circle cx="486.4" cy="415.2" r="6" fill="#06B6D4" opacity="0.8"/><circle cx="415.2" cy="344" r="6" fill="#06B6D4" opacity="0.8"/><circle cx="344" cy="672.8" r="6" fill="#06B6D4" opacity="0.8"/><circle cx="672.8" cy="601.6" r="6" fill="#06B6D4" opacity="0.8"/><circle cx="601.6" cy="530.4" r="6" fill="#06B6D4" opacity="0.8"/><circle cx="530.4" cy="459.20000000000005" r="6" fill="#06B6D4" opacity="0.8"/><circle cx="459.20000000000005" cy="388" r="6" fill="#06B6D4" opacity="0.8"/><circle cx="388" cy="316.8" r="6" fill="#06B6D4" opacity="0.8"/><circle cx="316.8" cy="645.6" r="6" fill="#06B6D4" opacity="0.8"/><circle cx="645.6" cy="574.4000000000001" r="6" fill="#06B6D4" opacity="0.8"/><circle cx="574.4000000000001" cy="503.2" r="6" fill="#06B6D4" opacity="0.8"/><circle cx="503.2" cy="432" r="6" fill="#06B6D4" opacity="0.8"/><circle cx="432" cy="360.8" r="6" fill="#06B6D4" opacity="0.8"/><circle cx="360.8" cy="689.5999999999999" r="6" fill="#06B6D4" opacity="0.8"/>
    <text x="500" y="960" font-family="system-ui, sans-serif" font-size="36" font-weight="700" fill="white" text-anchor="middle" opacity="0.85">teacher alt</text>
  </svg>