<svg xmlns="http://www.w3.org/2000/svg" viewBox="0 0 1000 1000" width="1000" height="1000">
    <defs>
      <linearGradient id="g613" x1="0" y1="0" x2="1" y2="1">
        <stop offset="0%" stop-color="#06B6D4"/>
        <stop offset="100%" stop-color="#0EA5E9"/>
      </linearGradient>
      <radialGradient id="glow613" cx="50%" cy="50%" r="60%">
        <stop offset="0%" stop-color="#67E8F9" stop-opacity="0.2"/>
        <stop offset="100%" stop-color="#67E8F9" stop-opacity="0"/>
      </radialGradient>
    </defs>
    <rect width="1000" height="1000" fill="#030712"/>
    <rect width="1000" height="1000" fill="url(#glow613)"/>
    <line x1="660.8" y1="621.6" x2="621.6" y2="582.4" stroke="#06B6D4" stroke-width="1" opacity="0.32080404050710676"/><line x1="660.8" y1="621.6" x2="582.4" y2="543.2" stroke="#06B6D4" stroke-width="1" opacity="0.24160808101421344"/><line x1="660.8" y1="621.6" x2="543.2" y2="504" stroke="#06B6D4" stroke-width="1" opacity="0.16241212152132012"/><line x1="660.8" y1="621.6" x2="504" y2="464.79999999999995" stroke="#06B6D4" stroke-width="1" opacity="0.08321616202842669"/><line x1="660.8" y1="621.6" x2="464.79999999999995" y2="425.6" stroke="#06B6D4" stroke-width="1" opacity="0.004020202535533368"/><line x1="660.8" y1="621.6" x2="668.8" y2="629.5999999999999" stroke="#06B6D4" stroke-width="1" opacity="0.3838375592871648"/><line x1="660.8" y1="621.6" x2="629.5999999999999" y2="590.4" stroke="#06B6D4" stroke-width="1" opacity="0.336966481219942"/><line x1="660.8" y1="621.6" x2="590.4" y2="551.2" stroke="#06B6D4" stroke-width="1" opacity="0.2577705217270488"/><line x1="660.8" y1="621.6" x2="551.2" y2="512" stroke="#06B6D4" stroke-width="1" opacity="0.1785745622341555"/><line x1="660.8" y1="621.6" x2="512" y2="472.8" stroke="#06B6D4" stroke-width="1" opacity="0.09937860274126215"/><line x1="660.8" y1="621.6" x2="472.8" y2="433.6" stroke="#06B6D4" stroke-width="1" opacity="0.02018264324836888"/><line x1="621.6" y1="582.4" x2="582.4" y2="543.2" stroke="#06B6D4" stroke-width="1" opacity="0.32080404050710676"/><line x1="621.6" y1="582.4" x2="543.2" y2="504" stroke="#06B6D4" stroke-width="1" opacity="0.24160808101421344"/><line x1="621.6" y1="582.4" x2="504" y2="464.79999999999995" stroke="#06B6D4" stroke-width="1" opacity="0.16241212152132"/><line x1="621.6" y1="582.4" x2="464.79999999999995" y2="425.6" stroke="#06B6D4" stroke-width="1" opacity="0.08321616202842669"/><line x1="621.6" y1="582.4" x2="425.6" y2="386.4" stroke="#06B6D4" stroke-width="1" opacity="0.004020202535533368"/><line x1="621.6" y1="582.4" x2="668.8" y2="629.5999999999999" stroke="#06B6D4" stroke-width="1" opacity="0.30464159979427147"/><line x1="621.6" y1="582.4" x2="629.5999999999999" y2="590.4" stroke="#06B6D4" stroke-width="1" opacity="0.3838375592871648"/><line x1="621.6" y1="582.4" x2="590.4" y2="551.2" stroke="#06B6D4" stroke-width="1" opacity="0.3369664812199421"/><line x1="621.6" y1="582.4" x2="551.2" y2="512" stroke="#06B6D4" stroke-width="1" opacity="0.2577705217270488"/><line x1="621.6" y1="582.4" x2="512" y2="472.8" stroke="#06B6D4" stroke-width="1" opacity="0.1785745622341554"/><line x1="621.6" y1="582.4" x2="472.8" y2="433.6" stroke="#06B6D4" stroke-width="1" opacity="0.09937860274126215"/><line x1="582.4" y1="543.2" x2="543.2" y2="504" stroke="#06B6D4" stroke-width="1" opacity="0.32080404050710676"/><line x1="582.4" y1="543.2" x2="504" y2="464.79999999999995" stroke="#06B6D4" stroke-width="1" opacity="0.2416080810142133"/><line x1="582.4" y1="543.2" x2="464.79999999999995" y2="425.6" stroke="#06B6D4" stroke-width="1" opacity="0.16241212152132"/><line x1="582.4" y1="543.2" x2="425.6" y2="386.4" stroke="#06B6D4" stroke-width="1" opacity="0.08321616202842669"/><line x1="582.4" y1="543.2" x2="386.4" y2="347.2" stroke="#06B6D4" stroke-width="1" opacity="0.004020202535533313"/><line x1="582.4" y1="543.2" x2="668.8" y2="629.5999999999999" stroke="#06B6D4" stroke-width="1" opacity="0.22544564030137818"/><line x1="582.4" y1="543.2" x2="629.5999999999999" y2="590.4" stroke="#06B6D4" stroke-width="1" opacity="0.30464159979427147"/><line x1="582.4" y1="543.2" x2="590.4" y2="551.2" stroke="#06B6D4" stroke-width="1" opacity="0.3838375592871647"/><line x1="582.4" y1="543.2" x2="551.2" y2="512" stroke="#06B6D4" stroke-width="1" opacity="0.3369664812199421"/><line x1="582.4" y1="543.2" x2="512" y2="472.8" stroke="#06B6D4" stroke-width="1" opacity="0.25777052172704873"/><line x1="582.4" y1="543.2" x2="472.8" y2="433.6" stroke="#06B6D4" stroke-width="1" opacity="0.1785745622341554"/><line x1="543.2" y1="504" x2="504" y2="464.79999999999995" stroke="#06B6D4" stroke-width="1" opacity="0.3208040405071066"/><line x1="543.2" y1="504" x2="464.79999999999995" y2="425.6" stroke="#06B6D4" stroke-width="1" opacity="0.2416080810142133"/><line x1="543.2" y1="504" x2="425.6" y2="386.4" stroke="#06B6D4" stroke-width="1" opacity="0.16241212152132"/><line x1="543.2" y1="504" x2="386.4" y2="347.2" stroke="#06B6D4" stroke-width="1" opacity="0.08321616202842669"/><line x1="543.2" y1="504" x2="347.2" y2="308" stroke="#06B6D4" stroke-width="1" opacity="0.004020202535533313"/><line x1="543.2" y1="504" x2="668.8" y2="629.5999999999999" stroke="#06B6D4" stroke-width="1" opacity="0.14624968080848488"/><line x1="543.2" y1="504" x2="629.5999999999999" y2="590.4" stroke="#06B6D4" stroke-width="1" opacity="0.22544564030137818"/><line x1="543.2" y1="504" x2="590.4" y2="551.2" stroke="#06B6D4" stroke-width="1" opacity="0.30464159979427136"/><line x1="543.2" y1="504" x2="551.2" y2="512" stroke="#06B6D4" stroke-width="1" opacity="0.3838375592871647"/><line x1="543.2" y1="504" x2="512" y2="472.8" stroke="#06B6D4" stroke-width="1" opacity="0.33696648121994205"/><line x1="543.2" y1="504" x2="472.8" y2="433.6" stroke="#06B6D4" stroke-width="1" opacity="0.25777052172704873"/><line x1="504" y1="464.79999999999995" x2="464.79999999999995" y2="425.6" stroke="#06B6D4" stroke-width="1" opacity="0.32080404050710676"/><line x1="504" y1="464.79999999999995" x2="425.6" y2="386.4" stroke="#06B6D4" stroke-width="1" opacity="0.24160808101421344"/><line x1="504" y1="464.79999999999995" x2="386.4" y2="347.2" stroke="#06B6D4" stroke-width="1" opacity="0.16241212152132006"/><line x1="504" y1="464.79999999999995" x2="347.2" y2="308" stroke="#06B6D4" stroke-width="1" opacity="0.08321616202842674"/><line x1="504" y1="464.79999999999995" x2="668.8" y2="629.5999999999999" stroke="#06B6D4" stroke-width="1" opacity="0.06705372131559145"/><line x1="504" y1="464.79999999999995" x2="629.5999999999999" y2="590.4" stroke="#06B6D4" stroke-width="1" opacity="0.14624968080848472"/><line x1="504" y1="464.79999999999995" x2="590.4" y2="551.2" stroke="#06B6D4" stroke-width="1" opacity="0.22544564030137793"/><line x1="504" y1="464.79999999999995" x2="551.2" y2="512" stroke="#06B6D4" stroke-width="1" opacity="0.30464159979427125"/><line x1="504" y1="464.79999999999995" x2="512" y2="472.8" stroke="#06B6D4" stroke-width="1" opacity="0.38383755928716456"/><line x1="504" y1="464.79999999999995" x2="472.8" y2="433.6" stroke="#06B6D4" stroke-width="1" opacity="0.33696648121994216"/><line x1="464.79999999999995" y1="425.6" x2="425.6" y2="386.4" stroke="#06B6D4" stroke-width="1" opacity="0.32080404050710676"/><line x1="464.79999999999995" y1="425.6" x2="386.4" y2="347.2" stroke="#06B6D4" stroke-width="1" opacity="0.24160808101421336"/><line x1="464.79999999999995" y1="425.6" x2="347.2" y2="308" stroke="#06B6D4" stroke-width="1" opacity="0.16241212152132006"/><line x1="464.79999999999995" y1="425.6" x2="629.5999999999999" y2="590.4" stroke="#06B6D4" stroke-width="1" opacity="0.06705372131559145"/><line x1="464.79999999999995" y1="425.6" x2="590.4" y2="551.2" stroke="#06B6D4" stroke-width="1" opacity="0.1462496808084846"/><line x1="464.79999999999995" y1="425.6" x2="551.2" y2="512" stroke="#06B6D4" stroke-width="1" opacity="0.22544564030137793"/><line x1="464.79999999999995" y1="425.6" x2="512" y2="472.8" stroke="#06B6D4" stroke-width="1" opacity="0.3046415997942713"/><line x1="464.79999999999995" y1="425.6" x2="472.8" y2="433.6" stroke="#06B6D4" stroke-width="1" opacity="0.38383755928716456"/><line x1="425.6" y1="386.4" x2="386.4" y2="347.2" stroke="#06B6D4" stroke-width="1" opacity="0.32080404050710665"/><line x1="425.6" y1="386.4" x2="347.2" y2="308" stroke="#06B6D4" stroke-width="1" opacity="0.24160808101421336"/><line x1="425.6" y1="386.4" x2="590.4" y2="551.2" stroke="#06B6D4" stroke-width="1" opacity="0.06705372131559134"/><line x1="425.6" y1="386.4" x2="551.2" y2="512" stroke="#06B6D4" stroke-width="1" opacity="0.1462496808084846"/><line x1="425.6" y1="386.4" x2="512" y2="472.8" stroke="#06B6D4" stroke-width="1" opacity="0.22544564030137798"/><line x1="425.6" y1="386.4" x2="472.8" y2="433.6" stroke="#06B6D4" stroke-width="1" opacity="0.3046415997942713"/><line x1="386.4" y1="347.2" x2="347.2" y2="308" stroke="#06B6D4" stroke-width="1" opacity="0.32080404050710676"/><line x1="386.4" y1="347.2" x2="551.2" y2="512" stroke="#06B6D4" stroke-width="1" opacity="0.06705372131559123"/><line x1="386.4" y1="347.2" x2="512" y2="472.8" stroke="#06B6D4" stroke-width="1" opacity="0.1462496808084846"/><line x1="386.4" y1="347.2" x2="472.8" y2="433.6" stroke="#06B6D4" stroke-width="1" opacity="0.22544564030137795"/><line x1="347.2" y1="308" x2="512" y2="472.8" stroke="#06B6D4" stroke-width="1" opacity="0.06705372131559134"/><line x1="347.2" y1="308" x2="472.8" y2="433.6" stroke="#06B6D4" stroke-width="1" opacity="0.1462496808084846"/><line x1="668.8" y1="629.5999999999999" x2="629.5999999999999" y2="590.4" stroke="#06B6D4" stroke-width="1" opacity="0.32080404050710676"/><line x1="668.8" y1="629.5999999999999" x2="590.4" y2="551.2" stroke="#06B6D4" stroke-width="1" opacity="0.24160808101421352"/><line x1="668.8" y1="629.5999999999999" x2="551.2" y2="512" stroke="#06B6D4" stroke-width="1" opacity="0.16241212152132023"/><line x1="668.8" y1="629.5999999999999" x2="512" y2="472.8" stroke="#06B6D4" stroke-width="1" opacity="0.08321616202842685"/><line x1="668.8" y1="629.5999999999999" x2="472.8" y2="433.6" stroke="#06B6D4" stroke-width="1" opacity="0.004020202535533535"/><line x1="629.5999999999999" y1="590.4" x2="590.4" y2="551.2" stroke="#06B6D4" stroke-width="1" opacity="0.32080404050710687"/><line x1="629.5999999999999" y1="590.4" x2="551.2" y2="512" stroke="#06B6D4" stroke-width="1" opacity="0.24160808101421352"/><line x1="629.5999999999999" y1="590.4" x2="512" y2="472.8" stroke="#06B6D4" stroke-width="1" opacity="0.1624121215213202"/><line x1="629.5999999999999" y1="590.4" x2="472.8" y2="433.6" stroke="#06B6D4" stroke-width="1" opacity="0.08321616202842685"/><line x1="590.4" y1="551.2" x2="551.2" y2="512" stroke="#06B6D4" stroke-width="1" opacity="0.32080404050710676"/><line x1="590.4" y1="551.2" x2="512" y2="472.8" stroke="#06B6D4" stroke-width="1" opacity="0.24160808101421336"/><line x1="590.4" y1="551.2" x2="472.8" y2="433.6" stroke="#06B6D4" stroke-width="1" opacity="0.16241212152132006"/><line x1="551.2" y1="512" x2="512" y2="472.8" stroke="#06B6D4" stroke-width="1" opacity="0.32080404050710665"/><line x1="551.2" y1="512" x2="472.8" y2="433.6" stroke="#06B6D4" stroke-width="1" opacity="0.24160808101421336"/><line x1="512" y1="472.8" x2="472.8" y2="433.6" stroke="#06B6D4" stroke-width="1" opacity="0.32080404050710676"/><circle cx="660.8" cy="621.6" r="6" fill="#6366F1" opacity="0.8"/><circle cx="621.6" cy="582.4" r="6" fill="#6366F1" opacity="0.8"/><circle cx="582.4" cy="543.2" r="6" fill="#6366F1" opacity="0.8"/><circle cx="543.2" cy="504" r="6" fill="#6366F1" opacity="0.8"/><circle cx="504" cy="464.79999999999995" r="6" fill="#6366F1" opacity="0.8"/><circle cx="464.79999999999995" cy="425.6" r="6" fill="#6366F1" opacity="0.8"/><circle cx="425.6" cy="386.4" r="6" fill="#6366F1" opacity="0.8"/><circle cx="386.4" cy="347.2" r="6" fill="#6366F1" opacity="0.8"/><circle cx="347.2" cy="308" r="6" fill="#6366F1" opacity="0.8"/><circle cx="308" cy="668.8" r="6" fill="#6366F1" opacity="0.8"/><circle cx="668.8" cy="629.5999999999999" r="6" fill="#6366F1" opacity="0.8"/><circle cx="629.5999999999999" cy="590.4" r="6" fill="#6366F1" opacity="0.8"/><circle cx="590.4" cy="551.2" r="6" fill="#6366F1" opacity="0.8"/><circle cx="551.2" cy="512" r="6" fill="#6366F1" opacity="0.8"/><circle cx="512" cy="472.8" r="6" fill="#6366F1" opacity="0.8"/><circle cx="472.8" cy="433.6" r="6" fill="#6366F1" opacity="0.8"/>
    <text x="500" y="960" font-family="system-ui, sans-serif" font-size="36" font-weight="700" fill="white" text-anchor="middle" opacity="0.85">friend alt</text>
  </svg>