<svg xmlns="http://www.w3.org/2000/svg" viewBox="0 0 1000 1000" width="1000" height="1000">
    <defs>
      <linearGradient id="g631" x1="0" y1="0" x2="1" y2="1">
        <stop offset="0%" stop-color="#06B6D4"/>
        <stop offset="100%" stop-color="#0EA5E9"/>
      </linearGradient>
      <radialGradient id="glow631" cx="50%" cy="50%" r="60%">
        <stop offset="0%" stop-color="#67E8F9" stop-opacity="0.2"/>
        <stop offset="100%" stop-color="#67E8F9" stop-opacity="0"/>
      </radialGradient>
    </defs>
    <rect width="1000" height="1000" fill="#030712"/>
    <rect width="1000" height="1000" fill="url(#glow631)"/>
    <rect x="7.5" y="331.75" width="35" height="336.5" fill="#0EA5E9" opacity="0.8675999999999999" rx="4"/><rect x="57.5" y="213.5" width="35" height="573" fill="#06B6D4" opacity="0.5513999999999999" rx="4"/><rect x="107.5" y="345.25" width="35" height="309.5" fill="#0EA5E9" opacity="0.8351999999999999" rx="4"/><rect x="157.5" y="227" width="35" height="546" fill="#06B6D4" opacity="0.519" rx="4"/><rect x="207.5" y="358.75" width="35" height="282.5" fill="#0EA5E9" opacity="0.8028" rx="4"/><rect x="257.5" y="240.5" width="35" height="519" fill="#06B6D4" opacity="0.4866" rx="4"/><rect x="307.5" y="372.25" width="35" height="255.5" fill="#0EA5E9" opacity="0.7704" rx="4"/><rect x="357.5" y="254" width="35" height="492" fill="#06B6D4" opacity="0.4542" rx="4"/><rect x="407.5" y="385.75" width="35" height="228.5" fill="#0EA5E9" opacity="0.738" rx="4"/><rect x="457.5" y="267.5" width="35" height="465" fill="#06B6D4" opacity="0.4218" rx="4"/><rect x="507.5" y="399.25" width="35" height="201.5" fill="#0EA5E9" opacity="0.7056" rx="4"/><rect x="557.5" y="281" width="35" height="438" fill="#06B6D4" opacity="0.38939999999999997" rx="4"/><rect x="607.5" y="412.75" width="35" height="174.5" fill="#0EA5E9" opacity="0.6732" rx="4"/><rect x="657.5" y="294.5" width="35" height="411" fill="#06B6D4" opacity="0.357" rx="4"/><rect x="707.5" y="426.25" width="35" height="147.5" fill="#0EA5E9" opacity="0.6407999999999999" rx="4"/><rect x="757.5" y="308" width="35" height="384" fill="#06B6D4" opacity="0.3246" rx="4"/><rect x="807.5" y="439.75" width="35" height="120.5" fill="#0EA5E9" opacity="0.6084" rx="4"/><rect x="857.5" y="321.5" width="35" height="357" fill="#06B6D4" opacity="0.8921999999999999" rx="4"/><rect x="907.5" y="203.25" width="35" height="593.5" fill="#0EA5E9" opacity="0.5760000000000001" rx="4"/><rect x="957.5" y="335" width="35" height="330" fill="#06B6D4" opacity="0.8597999999999999" rx="4"/>
    <text x="500" y="960" font-family="system-ui, sans-serif" font-size="36" font-weight="700" fill="white" text-anchor="middle" opacity="0.85">server alt</text>
  </svg>