<svg xmlns="http://www.w3.org/2000/svg" viewBox="0 0 1000 1000" width="1000" height="1000">
    <defs>
      <linearGradient id="g635" x1="0" y1="0" x2="1" y2="1">
        <stop offset="0%" stop-color="#8B5CF6"/>
        <stop offset="100%" stop-color="#6366F1"/>
      </linearGradient>
      <radialGradient id="glow635" cx="50%" cy="50%" r="60%">
        <stop offset="0%" stop-color="#C4B5FD" stop-opacity="0.2"/>
        <stop offset="100%" stop-color="#C4B5FD" stop-opacity="0"/>
      </radialGradient>
    </defs>
    <rect width="1000" height="1000" fill="#0F172A"/>
    <rect width="1000" height="1000" fill="url(#glow635)"/>
    <rect x="7.5" y="251.75" width="35" height="496.5" fill="#6366F1" opacity="0.6516" rx="4"/><rect x="57.5" y="303.5" width="35" height="393" fill="#8B5CF6" opacity="0.5274" rx="4"/><rect x="107.5" y="355.25" width="35" height="289.5" fill="#6366F1" opacity="0.4032" rx="4"/><rect x="157.5" y="407" width="35" height="186" fill="#8B5CF6" opacity="0.879" rx="4"/><rect x="207.5" y="208.75" width="35" height="582.5" fill="#6366F1" opacity="0.7547999999999999" rx="4"/><rect x="257.5" y="260.5" width="35" height="479" fill="#8B5CF6" opacity="0.6306" rx="4"/><rect x="307.5" y="312.25" width="35" height="375.5" fill="#6366F1" opacity="0.5064" rx="4"/><rect x="357.5" y="364" width="35" height="272" fill="#8B5CF6" opacity="0.3822" rx="4"/><rect x="407.5" y="415.75" width="35" height="168.5" fill="#6366F1" opacity="0.8580000000000001" rx="4"/><rect x="457.5" y="217.5" width="35" height="565" fill="#8B5CF6" opacity="0.7338" rx="4"/><rect x="507.5" y="269.25" width="35" height="461.5" fill="#6366F1" opacity="0.6095999999999999" rx="4"/><rect x="557.5" y="321" width="35" height="358" fill="#8B5CF6" opacity="0.48539999999999994" rx="4"/><rect x="607.5" y="372.75" width="35" height="254.5" fill="#6366F1" opacity="0.36119999999999997" rx="4"/><rect x="657.5" y="424.5" width="35" height="151" fill="#8B5CF6" opacity="0.837" rx="4"/><rect x="707.5" y="226.25" width="35" height="547.5" fill="#6366F1" opacity="0.7127999999999999" rx="4"/><rect x="757.5" y="278" width="35" height="444" fill="#8B5CF6" opacity="0.5886" rx="4"/><rect x="807.5" y="329.75" width="35" height="340.5" fill="#6366F1" opacity="0.46440000000000003" rx="4"/><rect x="857.5" y="381.5" width="35" height="237" fill="#8B5CF6" opacity="0.3402" rx="4"/><rect x="907.5" y="433.25" width="35" height="133.5" fill="#6366F1" opacity="0.8160000000000001" rx="4"/><rect x="957.5" y="235" width="35" height="530" fill="#8B5CF6" opacity="0.6918" rx="4"/>
    <text x="500" y="960" font-family="system-ui, sans-serif" font-size="36" font-weight="700" fill="white" text-anchor="middle" opacity="0.85">storage alt</text>
  </svg>