<svg xmlns="http://www.w3.org/2000/svg" viewBox="0 0 1000 1000" width="1000" height="1000">
    <defs>
      <linearGradient id="g636" x1="0" y1="0" x2="1" y2="1">
        <stop offset="0%" stop-color="#6366F1"/>
        <stop offset="100%" stop-color="#8B5CF6"/>
      </linearGradient>
      <radialGradient id="glow636" cx="50%" cy="50%" r="60%">
        <stop offset="0%" stop-color="#A78BFA" stop-opacity="0.2"/>
        <stop offset="100%" stop-color="#A78BFA" stop-opacity="0"/>
      </radialGradient>
    </defs>
    <rect width="1000" height="1000" fill="#030712"/>
    <rect width="1000" height="1000" fill="url(#glow636)"/>
    <rect x="7.5" y="201.75" width="35" height="596.5" fill="#8B5CF6" opacity="0.8916" rx="4"/><rect x="57.5" y="203.5" width="35" height="593" fill="#6366F1" opacity="0.8874" rx="4"/><rect x="107.5" y="205.25" width="35" height="589.5" fill="#8B5CF6" opacity="0.8832" rx="4"/><rect x="157.5" y="207" width="35" height="586" fill="#6366F1" opacity="0.879" rx="4"/><rect x="207.5" y="208.75" width="35" height="582.5" fill="#8B5CF6" opacity="0.8748" rx="4"/><rect x="257.5" y="210.5" width="35" height="579" fill="#6366F1" opacity="0.8706" rx="4"/><rect x="307.5" y="212.25" width="35" height="575.5" fill="#8B5CF6" opacity="0.8663999999999998" rx="4"/><rect x="357.5" y="214" width="35" height="572" fill="#6366F1" opacity="0.8622000000000001" rx="4"/><rect x="407.5" y="215.75" width="35" height="568.5" fill="#8B5CF6" opacity="0.8580000000000001" rx="4"/><rect x="457.5" y="217.5" width="35" height="565" fill="#6366F1" opacity="0.8537999999999999" rx="4"/><rect x="507.5" y="219.25" width="35" height="561.5" fill="#8B5CF6" opacity="0.8495999999999999" rx="4"/><rect x="557.5" y="221" width="35" height="558" fill="#6366F1" opacity="0.8453999999999999" rx="4"/><rect x="607.5" y="222.75" width="35" height="554.5" fill="#8B5CF6" opacity="0.8412" rx="4"/><rect x="657.5" y="224.5" width="35" height="551" fill="#6366F1" opacity="0.837" rx="4"/><rect x="707.5" y="226.25" width="35" height="547.5" fill="#8B5CF6" opacity="0.8328" rx="4"/><rect x="757.5" y="228" width="35" height="544" fill="#6366F1" opacity="0.8286" rx="4"/><rect x="807.5" y="229.75" width="35" height="540.5" fill="#8B5CF6" opacity="0.8244" rx="4"/><rect x="857.5" y="231.5" width="35" height="537" fill="#6366F1" opacity="0.8202" rx="4"/><rect x="907.5" y="233.25" width="35" height="533.5" fill="#8B5CF6" opacity="0.8160000000000001" rx="4"/><rect x="957.5" y="235" width="35" height="530" fill="#6366F1" opacity="0.8117999999999999" rx="4"/>
    <text x="500" y="960" font-family="system-ui, sans-serif" font-size="36" font-weight="700" fill="white" text-anchor="middle" opacity="0.85">battery alt</text>
  </svg>