<svg xmlns="http://www.w3.org/2000/svg" viewBox="0 0 1000 1000" width="1000" height="1000">
    <defs>
      <linearGradient id="g637" x1="0" y1="0" x2="1" y2="1">
        <stop offset="0%" stop-color="#06B6D4"/>
        <stop offset="100%" stop-color="#0EA5E9"/>
      </linearGradient>
      <radialGradient id="glow637" cx="50%" cy="50%" r="60%">
        <stop offset="0%" stop-color="#67E8F9" stop-opacity="0.2"/>
        <stop offset="100%" stop-color="#67E8F9" stop-opacity="0"/>
      </radialGradient>
    </defs>
    <rect width="1000" height="1000" fill="#030712"/>
    <rect width="1000" height="1000" fill="url(#glow637)"/>
    <rect x="7.5" y="384.25" width="35" height="231.5" fill="#0EA5E9" opacity="0.6155999999999999" rx="4"/><rect x="57.5" y="318.5" width="35" height="363" fill="#06B6D4" opacity="0.7734" rx="4"/><rect x="107.5" y="252.75" width="35" height="494.5" fill="#0EA5E9" opacity="0.3312" rx="4"/><rect x="157.5" y="437" width="35" height="126" fill="#06B6D4" opacity="0.489" rx="4"/><rect x="207.5" y="371.25" width="35" height="257.5" fill="#0EA5E9" opacity="0.6467999999999999" rx="4"/><rect x="257.5" y="305.5" width="35" height="389" fill="#06B6D4" opacity="0.8046" rx="4"/><rect x="307.5" y="239.75" width="35" height="520.5" fill="#0EA5E9" opacity="0.3624" rx="4"/><rect x="357.5" y="424" width="35" height="152" fill="#06B6D4" opacity="0.5202" rx="4"/><rect x="407.5" y="358.25" width="35" height="283.5" fill="#0EA5E9" opacity="0.6779999999999999" rx="4"/><rect x="457.5" y="292.5" width="35" height="415" fill="#06B6D4" opacity="0.8357999999999999" rx="4"/><rect x="507.5" y="226.75" width="35" height="546.5" fill="#0EA5E9" opacity="0.3936" rx="4"/><rect x="557.5" y="411" width="35" height="178" fill="#06B6D4" opacity="0.5513999999999999" rx="4"/><rect x="607.5" y="345.25" width="35" height="309.5" fill="#0EA5E9" opacity="0.7092" rx="4"/><rect x="657.5" y="279.5" width="35" height="441" fill="#06B6D4" opacity="0.867" rx="4"/><rect x="707.5" y="213.75" width="35" height="572.5" fill="#0EA5E9" opacity="0.42479999999999996" rx="4"/><rect x="757.5" y="398" width="35" height="204" fill="#06B6D4" opacity="0.5826" rx="4"/><rect x="807.5" y="332.25" width="35" height="335.5" fill="#0EA5E9" opacity="0.7404" rx="4"/><rect x="857.5" y="266.5" width="35" height="467" fill="#06B6D4" opacity="0.8981999999999999" rx="4"/><rect x="907.5" y="200.75" width="35" height="598.5" fill="#0EA5E9" opacity="0.45599999999999996" rx="4"/><rect x="957.5" y="385" width="35" height="230" fill="#06B6D4" opacity="0.6138" rx="4"/>
    <text x="500" y="960" font-family="system-ui, sans-serif" font-size="36" font-weight="700" fill="white" text-anchor="middle" opacity="0.85">wifi alt</text>
  </svg>