<svg xmlns="http://www.w3.org/2000/svg" viewBox="0 0 1000 1000" width="1000" height="1000">
    <defs>
      <linearGradient id="g641" x1="0" y1="0" x2="1" y2="1">
        <stop offset="0%" stop-color="#8B5CF6"/>
        <stop offset="100%" stop-color="#6366F1"/>
      </linearGradient>
      <radialGradient id="glow641" cx="50%" cy="50%" r="60%">
        <stop offset="0%" stop-color="#C4B5FD" stop-opacity="0.2"/>
        <stop offset="100%" stop-color="#C4B5FD" stop-opacity="0"/>
      </radialGradient>
    </defs>
    <rect width="1000" height="1000" fill="#0F172A"/>
    <rect width="1000" height="1000" fill="url(#glow641)"/>
    <circle cx="837.9545556842982" cy="383.10484059539226" r="8.728" fill="#06B6D4" opacity="0.7727999999999999"/><circle cx="764.5074285707585" cy="292.1520261564114" r="8.304" fill="#8B5CF6" opacity="0.741"/><circle cx="670.5614186703913" cy="234.93426765961703" r="7.88" fill="#6366F1" opacity="0.7092"/><circle cx="569.530705124975" cy="214.34027052308585" r="7.456" fill="#06B6D4" opacity="0.6774"/><circle cx="474.32725212670914" cy="228.4106960562798" r="7.032" fill="#6366F1" opacity="0.6456"/><circle cx="395.74310382208967" cy="271.01733777565516" r="6.608" fill="#8B5CF6" opacity="0.6138"/><circle cx="341.22817854755493" cy="333.03991880490446" r="6.184" fill="#06B6D4" opacity="0.582"/><circle cx="314.2018549082064" cy="403.85589315798484" r="5.76" fill="#8B5CF6" opacity="0.5502"/><circle cx="313.95968970270167" cy="472.9259728801766" r="5.336" fill="#6366F1" opacity="0.5184"/><circle cx="336.1544865784548" cy="531.2552032728989" r="4.912" fill="#06B6D4" opacity="0.4866"/><circle cx="373.75450591045023" cy="572.5357513374299" r="4.4879999999999995" fill="#6366F1" opacity="0.4548"/><circle cx="418.3207319843322" cy="593.8288717635713" r="4.064" fill="#8B5CF6" opacity="0.423"/><circle cx="461.407409967859" cy="595.7123398241371" r="3.6399999999999997" fill="#06B6D4" opacity="0.3912"/><circle cx="495.8799659092589" cy="581.8964304416934" r="3.216" fill="#8B5CF6" opacity="0.3594"/><circle cx="516.9626592471851" cy="558.3858560891581" r="2.792" fill="#6366F1" opacity="0.3276"/><circle cx="522.8718790555218" cy="532.3270343284005" r="2.368" fill="#06B6D4" opacity="0.8957999999999999"/><circle cx="514.9535726255689" cy="510.7215048259018" r="9.943999999999999" fill="#6366F1" opacity="0.8639999999999999"/><circle cx="880.7248545977017" cy="613.2096510530745" r="9.52" fill="#8B5CF6" opacity="0.8322"/><circle cx="875.6363834389749" cy="483.46798751248275" r="9.096" fill="#06B6D4" opacity="0.8004"/><circle cx="829.8846971931515" cy="369.38940870747604" r="8.672" fill="#8B5CF6" opacity="0.7686"/><circle cx="752.9895349403175" cy="282.54826923962673" r="8.248000000000001" fill="#6366F1" opacity="0.7367999999999999"/><circle cx="657.3318881910117" cy="230.1103244689582" r="7.824" fill="#06B6D4" opacity="0.7050000000000001"/><circle cx="556.3616050964106" cy="214.3064413205011" r="7.4" fill="#6366F1" opacity="0.6732"/><circle cx="462.7966215151476" cy="232.57541506190415" r="6.976" fill="#8B5CF6" opacity="0.6414"/><circle cx="387.04716366480073" cy="278.3175767819341" r="6.552" fill="#06B6D4" opacity="0.6095999999999999"/><circle cx="336.0576659355124" cy="342.1245075970057" r="6.128" fill="#8B5CF6" opacity="0.5778"/><circle cx="312.69521477471346" cy="413.29430565580327" r="5.704000000000001" fill="#6366F1" opacity="0.5459999999999999"/><circle cx="315.73507165506317" cy="481.41301040955506" r="5.279999999999999" fill="#06B6D4" opacity="0.5142"/><circle cx="340.41184419893125" cy="537.7838659749608" r="4.856" fill="#6366F1" opacity="0.48239999999999994"/><circle cx="379.4299722383123" cy="576.5160663230008" r="4.432" fill="#8B5CF6" opacity="0.4506"/><circle cx="424.2690058926455" cy="595.1387225661131" r="4.008" fill="#06B6D4" opacity="0.4188"/><circle cx="466.58491772989214" cy="594.6762498036436" r="3.584" fill="#8B5CF6" opacity="0.387"/><circle cx="499.50237499792775" cy="579.198436659806" r="3.16" fill="#6366F1" opacity="0.35519999999999996"/><circle cx="518.6147293688182" cy="554.9317016896952" r="2.7359999999999998" fill="#06B6D4" opacity="0.32339999999999997"/><circle cx="522.5549795744296" cy="529.0777044554254" r="2.312" fill="#6366F1" opacity="0.8916"/><circle cx="513.0654374246574" cy="508.5237518090546" r="9.888" fill="#8B5CF6" opacity="0.8597999999999999"/><circle cx="882.6179296556977" cy="595.6811366257086" r="9.464" fill="#06B6D4" opacity="0.8280000000000001"/><circle cx="871.757062932232" cy="467.2139334472626" r="9.04" fill="#8B5CF6" opacity="0.7962"/><circle cx="821.267438766033" cy="356.1555256928052" r="8.616" fill="#6366F1" opacity="0.7644"/><circle cx="741.1428219510028" cy="273.5518173587897" r="8.192" fill="#06B6D4" opacity="0.7325999999999999"/><circle cx="644.010773772781" cy="225.9323860114718" r="7.768" fill="#6366F1" opacity="0.7008"/><circle cx="543.3250599024263" cy="214.87283681758566" r="7.344" fill="#8B5CF6" opacity="0.669"/><circle cx="451.5818199588288" cy="237.22344122524794" r="6.92" fill="#06B6D4" opacity="0.6372"/><circle cx="378.78907397912025" cy="285.9347963512967" r="6.496" fill="#8B5CF6" opacity="0.6053999999999999"/><circle cx="331.37503154707264" cy="351.33709267524307" r="6.072" fill="#6366F1" opacity="0.5736"/><circle cx="311.65428068850434" cy="422.67697615176127" r="5.648" fill="#06B6D4" opacity="0.5418000000000001"/><circle cx="317.8915572601229" cy="489.69101931047874" r="5.224" fill="#6366F1" opacity="0.51"/><circle cx="344.92113934032295" cy="543.9998520053928" r="4.8" fill="#8B5CF6" opacity="0.47819999999999996"/><circle cx="385.20670469443667" cy="580.1404975832427" r="4.3759999999999994" fill="#06B6D4" opacity="0.4464"/><circle cx="430.1711120276542" cy="596.1112189317438" r="3.952" fill="#8B5CF6" opacity="0.41459999999999997"/><circle cx="471.5948701175607" cy="593.3750962321419" r="3.528" fill="#6366F1" opacity="0.3828"/><circle cx="502.879529955983" cy="576.3457157097411" r="3.104" fill="#06B6D4" opacity="0.351"/><circle cx="519.9976002420909" cy="551.4503254076933" r="2.68" fill="#6366F1" opacity="0.3192"/><circle cx="521.9999026933612" cy="525.9230453743892" r="2.2560000000000002" fill="#8B5CF6" opacity="0.8874"/><circle cx="511.01749794565046" cy="506.51573012160475" r="9.832" fill="#06B6D4" opacity="0.8555999999999999"/><circle cx="883.7112385136711" cy="578.2064283694418" r="9.408000000000001" fill="#8B5CF6" opacity="0.8237999999999999"/><circle cx="867.1803465481453" cy="451.26856139221854" r="8.984" fill="#6366F1" opacity="0.7919999999999999"/><circle cx="812.1294253136214" cy="343.42458094136083" r="8.559999999999999" fill="#06B6D4" opacity="0.7602"/><circle cx="728.998257429859" cy="265.17283356883934" r="8.136" fill="#6366F1" opacity="0.7283999999999999"/><circle cx="630.629086652164" cy="222.39906030342507" r="7.712" fill="#8B5CF6" opacity="0.6966"/><circle cx="530.4481456610143" cy="216.02769426261716" r="7.288" fill="#06B6D4" opacity="0.6648"/><circle cx="440.7028108049835" cy="242.33509483522897" r="6.864" fill="#8B5CF6" opacity="0.633"/><circle cx="370.97967997660226" cy="293.8447259441078" r="6.44" fill="#6366F1" opacity="0.6012"/><circle cx="327.1813690521208" cy="360.65251779346454" r="6.016" fill="#06B6D4" opacity="0.5693999999999999"/><circle cx="311.0711415939915" cy="431.9814256147455" r="5.5920000000000005" fill="#6366F1" opacity="0.5376"/><circle cx="320.41418046099466" cy="497.7431392369499" r="5.168" fill="#8B5CF6" opacity="0.5058"/><circle cx="349.66317063353733" cy="549.8938647134003" r="4.744" fill="#06B6D4" opacity="0.474"/><circle cx="391.064517305517" cy="583.4080368436998" r="4.32" fill="#8B5CF6" opacity="0.4422"/><circle cx="436.0090790071021" cy="596.7530982991278" r="3.896" fill="#6366F1" opacity="0.4104"/><circle cx="476.4241986967718" cy="591.8216836749942" r="3.472" fill="#06B6D4" opacity="0.3786"/><circle cx="506.0050690114164" cy="573.3546123033046" r="3.048" fill="#6366F1" opacity="0.3468"/><circle cx="521.1122972313959" cy="547.9586374453361" r="2.624" fill="#8B5CF6" opacity="0.315"/><circle cx="521.2145454161395" cy="522.8775668021439" r="2.2" fill="#06B6D4" opacity="0.8832"/><circle cx="508.82291226434955" cy="504.7070393216533" r="9.776" fill="#8B5CF6" opacity="0.8513999999999999"/><circle cx="884.0132268233896" cy="560.8217200076417" r="9.352" fill="#6366F1" opacity="0.8195999999999999"/><circle cx="861.925849372936" cy="435.66152352068855" r="8.928" fill="#06B6D4" opacity="0.7878"/><circle cx="802.4981143461564" cy="331.216556448745" r="8.504" fill="#6366F1" opacity="0.756"/><circle cx="716.5870592896185" cy="257.4199395080559" r="8.08" fill="#8B5CF6" opacity="0.7242"/><circle cx="617.2175336523283" cy="219.50748707948503" r="7.656" fill="#06B6D4" opacity="0.6924"/><circle cx="517.7571589228896" cy="217.7580412004848" r="7.232" fill="#8B5CF6" opacity="0.6606"/><circle cx="430.1784395937897" cy="247.88988575933345" r="6.808" fill="#6366F1" opacity="0.6288"/><circle cx="363.6285446299278" cy="302.0227635301261" r="6.384" fill="#06B6D4" opacity="0.597"/><circle cx="323.47651145212205" cy="370.0457850206958" r="5.96" fill="#6366F1" opacity="0.5651999999999999"/><circle cx="310.9368201401647" cy="441.18576684774706" r="5.536" fill="#8B5CF6" opacity="0.5334"/><circle cx="323.28724012733863" cy="505.5534222050131" r="5.112" fill="#06B6D4" opacity="0.5016"/><circle cx="354.6184165537512" cy="555.4576883277819" r="4.688000000000001" fill="#8B5CF6" opacity="0.4698"/><circle cx="396.9833398848234" cy="586.318756586933" r="4.263999999999999" fill="#6366F1" opacity="0.438"/><circle cx="441.7654447759335" cy="597.0720174811214" r="3.84" fill="#06B6D4" opacity="0.4062"/><circle cx="481.0606399931709" cy="590.0294431979435" r="3.416" fill="#6366F1" opacity="0.37439999999999996"/><circle cx="508.87359293635274" cy="570.2417208530651" r="2.992" fill="#8B5CF6" opacity="0.34259999999999996"/><circle cx="521.9608082595295" cy="544.4733954245477" r="2.568" fill="#06B6D4" opacity="0.31079999999999997"/><circle cx="520.2076132327437" cy="519.9552591422873" r="2.144" fill="#8B5CF6" opacity="0.879"/><circle cx="506.4953645074511" cy="503.1064835289029" r="9.719999999999999" fill="#6366F1" opacity="0.8472"/><circle cx="883.5339658607232" cy="543.562564561164" r="9.296" fill="#06B6D4" opacity="0.8153999999999999"/><circle cx="856.014434755255" cy="420.421345538541" r="8.872" fill="#6366F1" opacity="0.7836000000000001"/><circle cx="792.4017039446562" cy="319.5499971452989" r="8.448" fill="#8B5CF6" opacity="0.7518"/><circle cx="703.9406202007913" cy="250.30021339192814" r="8.024000000000001" fill="#06B6D4" opacity="0.72"/><circle cx="603.8064484601646" cy="217.25336207465313" r="7.6" fill="#8B5CF6" opacity="0.6881999999999999"/><circle cx="505.27756312031414" cy="220.0497413333735" r="7.176" fill="#6366F1" opacity="0.6564"/><circle cx="420.02640185576354" cy="253.86657358281425" r="6.752" fill="#06B6D4" opacity="0.6246"/>
    <text x="500" y="960" font-family="system-ui, sans-serif" font-size="36" font-weight="700" fill="white" text-anchor="middle" opacity="0.85">keyboard alt</text>
  </svg>