<svg xmlns="http://www.w3.org/2000/svg" viewBox="0 0 1000 1000" width="1000" height="1000">
    <defs>
      <linearGradient id="g642" x1="0" y1="0" x2="1" y2="1">
        <stop offset="0%" stop-color="#6366F1"/>
        <stop offset="100%" stop-color="#8B5CF6"/>
      </linearGradient>
      <radialGradient id="glow642" cx="50%" cy="50%" r="60%">
        <stop offset="0%" stop-color="#A78BFA" stop-opacity="0.2"/>
        <stop offset="100%" stop-color="#A78BFA" stop-opacity="0"/>
      </radialGradient>
    </defs>
    <rect width="1000" height="1000" fill="#030712"/>
    <rect width="1000" height="1000" fill="url(#glow642)"/>
    <rect x="7.5" y="311.75" width="35" height="376.5" fill="#8B5CF6" opacity="0.3636" rx="4"/><rect x="57.5" y="423.5" width="35" height="153" fill="#6366F1" opacity="0.6954" rx="4"/><rect x="107.5" y="285.25" width="35" height="429.5" fill="#8B5CF6" opacity="0.42719999999999997" rx="4"/><rect x="157.5" y="397" width="35" height="206" fill="#6366F1" opacity="0.7589999999999999" rx="4"/><rect x="207.5" y="258.75" width="35" height="482.5" fill="#8B5CF6" opacity="0.4908" rx="4"/><rect x="257.5" y="370.5" width="35" height="259" fill="#6366F1" opacity="0.8226" rx="4"/><rect x="307.5" y="232.25" width="35" height="535.5" fill="#8B5CF6" opacity="0.5544" rx="4"/><rect x="357.5" y="344" width="35" height="312" fill="#6366F1" opacity="0.8861999999999999" rx="4"/><rect x="407.5" y="205.75" width="35" height="588.5" fill="#8B5CF6" opacity="0.618" rx="4"/><rect x="457.5" y="317.5" width="35" height="365" fill="#6366F1" opacity="0.3498" rx="4"/><rect x="507.5" y="429.25" width="35" height="141.5" fill="#8B5CF6" opacity="0.6816" rx="4"/><rect x="557.5" y="291" width="35" height="418" fill="#6366F1" opacity="0.4134" rx="4"/><rect x="607.5" y="402.75" width="35" height="194.5" fill="#8B5CF6" opacity="0.7452" rx="4"/><rect x="657.5" y="264.5" width="35" height="471" fill="#6366F1" opacity="0.477" rx="4"/><rect x="707.5" y="376.25" width="35" height="247.5" fill="#8B5CF6" opacity="0.8088" rx="4"/><rect x="757.5" y="238" width="35" height="524" fill="#6366F1" opacity="0.5406" rx="4"/><rect x="807.5" y="349.75" width="35" height="300.5" fill="#8B5CF6" opacity="0.8723999999999998" rx="4"/><rect x="857.5" y="211.5" width="35" height="577" fill="#6366F1" opacity="0.6042" rx="4"/><rect x="907.5" y="323.25" width="35" height="353.5" fill="#8B5CF6" opacity="0.33599999999999997" rx="4"/><rect x="957.5" y="435" width="35" height="130" fill="#6366F1" opacity="0.6678" rx="4"/>
    <text x="500" y="960" font-family="system-ui, sans-serif" font-size="36" font-weight="700" fill="white" text-anchor="middle" opacity="0.85">mouse alt</text>
  </svg>