<svg xmlns="http://www.w3.org/2000/svg" viewBox="0 0 1000 1000" width="1000" height="1000">
    <defs>
      <linearGradient id="g646" x1="0" y1="0" x2="1" y2="1">
        <stop offset="0%" stop-color="#EC4899"/>
        <stop offset="100%" stop-color="#F43F5E"/>
      </linearGradient>
      <radialGradient id="glow646" cx="50%" cy="50%" r="60%">
        <stop offset="0%" stop-color="#F9A8D4" stop-opacity="0.2"/>
        <stop offset="100%" stop-color="#F9A8D4" stop-opacity="0"/>
      </radialGradient>
    </defs>
    <rect width="1000" height="1000" fill="#030712"/>
    <rect width="1000" height="1000" fill="url(#glow646)"/>
    <circle cx="437.3054344848915" cy="373.0356291912106" r="2.248" fill="#8B5CF6" opacity="0.7247999999999999"/><circle cx="492.4616643085869" cy="509.84548094323316" r="7.664" fill="#EC4899" opacity="0.5309999999999999"/><circle cx="777.8448345399522" cy="554.8132093520036" r="5.08" fill="#F43F5E" opacity="0.3372"/><circle cx="459.8304080313558" cy="351.3312276196758" r="2.496" fill="#8B5CF6" opacity="0.7434"/><circle cx="481.3972454731646" cy="516.4005342600266" r="7.912" fill="#F43F5E" opacity="0.5496"/><circle cx="773.4528223402658" cy="612.2627006362444" r="5.327999999999999" fill="#EC4899" opacity="0.3558"/><circle cx="488.5084117211228" cy="333.99727894149214" r="2.7439999999999998" fill="#8B5CF6" opacity="0.762"/><circle cx="467.8620488804265" cy="518.7347831008503" r="8.16" fill="#EC4899" opacity="0.5682"/><circle cx="756.8961575528567" cy="669.9069281535565" r="5.5760000000000005" fill="#F43F5E" opacity="0.37439999999999996"/><circle cx="522.4095821612976" cy="322.60989140497134" r="2.992" fill="#8B5CF6" opacity="0.7806"/><circle cx="453.1248714710817" cy="516.2136462708852" r="8.408000000000001" fill="#F43F5E" opacity="0.5868"/><circle cx="727.9760309778551" cy="725.1290503235513" r="5.824" fill="#EC4899" opacity="0.393"/><circle cx="560.2254225580944" cy="318.5328170778557" r="3.24" fill="#8B5CF6" opacity="0.7991999999999999"/><circle cx="438.59139160680763" cy="508.5429980224476" r="8.655999999999999" fill="#EC4899" opacity="0.6053999999999999"/><circle cx="687.061348149189" cy="775.2524151185742" r="6.072" fill="#F43F5E" opacity="0.41159999999999997"/><circle cx="600.3192867392321" cy="322.8305875492846" r="3.488" fill="#8B5CF6" opacity="0.8177999999999999"/><circle cx="425.71892467189224" cy="495.7950210345374" r="8.904" fill="#F43F5E" opacity="0.624"/><circle cx="635.1021897922024" cy="817.6640337106984" r="6.32" fill="#EC4899" opacity="0.43019999999999997"/><circle cx="640.7960846649898" cy="336.19382629763606" r="3.7359999999999998" fill="#8B5CF6" opacity="0.8364"/><circle cx="415.92698161403484" cy="478.4137177940906" r="9.152000000000001" fill="#EC4899" opacity="0.6426"/><circle cx="573.6164688961096" cy="849.9405313867888" r="6.568" fill="#F43F5E" opacity="0.4488"/><circle cx="679.5882779000037" cy="358.88086437016756" r="3.984" fill="#8B5CF6" opacity="0.855"/><circle cx="410.5083112306743" cy="457.1995602684489" r="9.4" fill="#F43F5E" opacity="0.6612"/><circle cx="504.64943475684055" cy="869.970786355412" r="6.816" fill="#EC4899" opacity="0.46740000000000004"/><circle cx="714.5543710245589" cy="390.6790876627171" r="4.232" fill="#8B5CF6" opacity="0.8735999999999999"/><circle cx="410.5451244884101" cy="433.2738038907809" r="9.648" fill="#EC4899" opacity="0.6798"/><circle cx="430.70691598898264" cy="876.069446390214" r="7.064" fill="#F43F5E" opacity="0.486"/><circle cx="743.5854064455968" cy="430.88856992701307" r="4.48" fill="#8B5CF6" opacity="0.8921999999999999"/><circle cx="416.8349885094467" cy="408.02402018039635" r="9.896" fill="#F43F5E" opacity="0.6984"/><circle cx="354.66442660008914" cy="867.0757566286817" r="7.312" fill="#EC4899" opacity="0.5045999999999999"/><circle cx="764.7144704858383" cy="478.3295335674972" r="4.728" fill="#8B5CF6" opacity="0.31079999999999997"/><circle cx="429.83044759220246" cy="383.03336409518585" r="2.144" fill="#EC4899" opacity="0.717"/><circle cx="496.1039269846865" cy="506.0548009925468" r="7.56" fill="#F43F5E" opacity="0.5232"/><circle cx="776.2239443245624" cy="531.3740749948279" r="4.976" fill="#8B5CF6" opacity="0.32939999999999997"/><circle cx="449.5957974675005" cy="359.9969415796113" r="2.392" fill="#F43F5E" opacity="0.7356"/><circle cx="486.404395206069" cy="514.1180568878029" r="7.808" fill="#EC4899" opacity="0.5418000000000001"/><circle cx="776.7452007766003" cy="588.0014423013575" r="5.224" fill="#8B5CF6" opacity="0.348"/><circle cx="475.78363503373384" cy="340.62933874824824" r="2.64" fill="#EC4899" opacity="0.7542"/><circle cx="473.7615325015855" cy="518.3178280190269" r="8.056000000000001" fill="#F43F5E" opacity="0.5604"/><circle cx="765.3456627172819" cy="645.8750125179994" r="5.4719999999999995" fill="#8B5CF6" opacity="0.3666"/><circle cx="507.6328653399813" cy="326.5678825398776" r="2.888" fill="#F43F5E" opacity="0.7727999999999999"/><circle cx="459.36329193563125" cy="517.8890457456866" r="8.304" fill="#EC4899" opacity="0.579"/><circle cx="741.5985957463071" cy="702.4380362812594" r="5.720000000000001" fill="#8B5CF6" opacity="0.3852"/><circle cx="543.9888134464128" cy="319.2764976778707" r="3.136" fill="#EC4899" opacity="0.7913999999999999"/><circle cx="444.5679279218791" cy="512.3905361113236" r="8.552" fill="#F43F5E" opacity="0.5975999999999999"/><circle cx="705.6316899588335" cy="755.0242499933568" r="5.968" fill="#8B5CF6" opacity="0.4038"/><circle cx="583.3450085169022" cy="319.95509017104234" r="3.384" fill="#F43F5E" opacity="0.81"/><circle cx="430.82185410159565" cy="501.739002604679" r="8.8" fill="#EC4899" opacity="0.6162"/><circle cx="658.1513665463359" cy="800.9786458530348" r="6.216" fill="#8B5CF6" opacity="0.4224"/><circle cx="623.9051311832533" cy="329.45921758576105" r="3.6319999999999997" fill="#EC4899" opacity="0.8286"/><circle cx="419.57140103584175" cy="486.2231909114409" r="9.048" fill="#F43F5E" opacity="0.6348"/><circle cx="600.4407880944195" cy="837.7830784497232" r="6.464" fill="#8B5CF6" opacity="0.44099999999999995"/><circle cx="663.6625932768754" cy="348.23440586915603" r="3.88" fill="#F43F5E" opacity="0.8472"/><circle cx="412.17307940907847" cy="466.4972834009544" r="9.296" fill="#EC4899" opacity="0.6534"/><circle cx="534.3307126985941" cy="863.1810046872035" r="6.712" fill="#8B5CF6" opacity="0.4596"/><circle cx="700.4942999108295" cy="376.26885718111885" r="4.128" fill="#EC4899" opacity="0.8657999999999999"/><circle cx="409.80706760054716" cy="443.5536099897635" r="9.544" fill="#F43F5E" opacity="0.6719999999999999"/><circle cx="462.1435611581217" cy="875.2955236053465" r="6.96" fill="#8B5CF6" opacity="0.47819999999999996"/><circle cx="732.2643719135517" cy="413.0674885925677" r="4.3759999999999994" fill="#F43F5E" opacity="0.8843999999999999"/><circle cx="413.3985270623363" cy="418.67580381567177" r="9.792" fill="#EC4899" opacity="0.6906"/><circle cx="386.6123094037054" cy="872.7350152873203" r="7.208" fill="#8B5CF6" opacity="0.4968"/><circle cx="756.9330198717289" cy="457.6492821832521" r="4.6240000000000006" fill="#EC4899" opacity="0.303"/><circle cx="423.5510090674828" cy="393.37452562637804" r="2.04" fill="#F43F5E" opacity="0.7092"/><circle cx="499.05859213566936" cy="501.7645824528699" r="7.456" fill="#8B5CF6" opacity="0.5154"/><circle cx="772.6653896677716" cy="508.5688550765134" r="4.872" fill="#F43F5E" opacity="0.3216"/><circle cx="440.49566656936435" cy="369.30878260963465" r="2.288" fill="#EC4899" opacity="0.7278"/><circle cx="490.890989668451" cy="511.15284406686175" r="7.704" fill="#8B5CF6" opacity="0.534"/><circle cx="777.9350641187318" cy="563.9620210227635" r="5.12" fill="#EC4899" opacity="0.3402"/><circle cx="464.05924943845173" cy="348.19663228678826" r="2.536" fill="#F43F5E" opacity="0.7464"/><circle cx="479.35024509360886" cy="517.0829629252648" r="7.952" fill="#8B5CF6" opacity="0.5526"/><circle cx="771.6170164112825" cy="621.6139646415375" r="5.368" fill="#F43F5E" opacity="0.3588"/><circle cx="493.6529732383829" cy="331.7196528073248" r="2.784" fill="#EC4899" opacity="0.7649999999999999"/><circle cx="465.5308006405302" cy="518.6685375837832" r="8.2" fill="#8B5CF6" opacity="0.5711999999999999"/><circle cx="753.065167722327" cy="679.047538060903" r="5.616" fill="#EC4899" opacity="0.37739999999999996"/><circle cx="528.2833512792737" cy="321.4259480203991" r="3.032" fill="#F43F5E" opacity="0.7836000000000001"/><circle cx="450.7289894910732" cy="515.327345609375" r="8.448" fill="#8B5CF6" opacity="0.5898"/><circle cx="722.1702918240812" cy="733.6281691723038" r="5.864" fill="#F43F5E" opacity="0.396"/><circle cx="566.5850127573167" cy="318.6366187012716" r="3.2800000000000002" fill="#EC4899" opacity="0.8022"/><circle cx="436.3647494145921" cy="506.82311387361665" r="8.696" fill="#8B5CF6" opacity="0.6084"/><circle cx="679.394810958968" cy="782.6809894580747" r="6.112" fill="#EC4899" opacity="0.41459999999999997"/><circle cx="606.8744456428178" cy="324.3605600426249" r="3.528" fill="#F43F5E" opacity="0.8208"/><circle cx="423.8953922614616" cy="493.28816858352326" r="8.943999999999999" fill="#8B5CF6" opacity="0.627"/><circle cx="625.7820073198183" cy="823.6150902454908" r="6.36" fill="#F43F5E" opacity="0.4332"/><circle cx="647.2225521703833" cy="339.22214041591803" r="3.776" fill="#EC4899" opacity="0.8393999999999999"/><circle cx="414.72592071188745" cy="475.22558978371643" r="9.192" fill="#8B5CF6" opacity="0.6456"/><circle cx="562.9382920075093" cy="854.0493346967023" r="6.608" fill="#EC4899" opacity="0.4518"/><circle cx="685.5429368678425" cy="363.405788634892" r="4.024" fill="#F43F5E" opacity="0.8580000000000001"/><circle cx="410.12059138006924" cy="453.4905181051055" r="9.440000000000001" fill="#8B5CF6" opacity="0.6641999999999999"/><circle cx="492.98838042586823" cy="871.9339150856609" r="6.856" fill="#F43F5E" opacity="0.47039999999999993"/><circle cx="719.6920083387496" cy="396.6207880080005" r="4.272" fill="#EC4899" opacity="0.8766"/><circle cx="411.12040391849956" cy="429.25130813655045" r="9.687999999999999" fill="#8B5CF6" opacity="0.6828"/><circle cx="418.5044669459623" cy="875.6618666996135" r="7.104" fill="#EC4899" opacity="0.489"/><circle cx="747.576307424275" cy="438.088676301012" r="4.52" fill="#F43F5E" opacity="0.8952"/><circle cx="418.47094884225004" cy="403.93224361255756" r="9.936" fill="#8B5CF6" opacity="0.7014"/><circle cx="342.41171699611914" cy="864.1650354714038" r="7.352" fill="#F43F5E" opacity="0.5075999999999999"/><circle cx="767.2620095877703" cy="486.55462045509347" r="4.768" fill="#EC4899" opacity="0.31379999999999997"/><circle cx="432.5645825996141" cy="379.14047625430703" r="2.184" fill="#8B5CF6" opacity="0.72"/><circle cx="494.78112566803384" cy="507.5764998981815" r="7.6" fill="#EC4899" opacity="0.5262"/><circle cx="777.0813132087422" cy="540.3230191146306" r="5.016" fill="#F43F5E" opacity="0.3324"/><circle cx="453.4002372482579" cy="356.5806773426908" r="2.432" fill="#8B5CF6" opacity="0.7385999999999999"/>
    <text x="500" y="960" font-family="system-ui, sans-serif" font-size="36" font-weight="700" fill="white" text-anchor="middle" opacity="0.85">share alt</text>
  </svg>