<svg xmlns="http://www.w3.org/2000/svg" viewBox="0 0 1000 1000" width="1000" height="1000">
    <defs>
      <linearGradient id="g647" x1="0" y1="0" x2="1" y2="1">
        <stop offset="0%" stop-color="#8B5CF6"/>
        <stop offset="100%" stop-color="#6366F1"/>
      </linearGradient>
      <radialGradient id="glow647" cx="50%" cy="50%" r="60%">
        <stop offset="0%" stop-color="#C4B5FD" stop-opacity="0.2"/>
        <stop offset="100%" stop-color="#C4B5FD" stop-opacity="0"/>
      </radialGradient>
    </defs>
    <rect width="1000" height="1000" fill="#0F172A"/>
    <rect width="1000" height="1000" fill="url(#glow647)"/>
    <rect x="7.5" y="399.25" width="35" height="201.5" fill="#6366F1" opacity="0.5436" rx="4"/><rect x="57.5" y="348.5" width="35" height="303" fill="#8B5CF6" opacity="0.6654" rx="4"/><rect x="107.5" y="297.75" width="35" height="404.5" fill="#6366F1" opacity="0.7872" rx="4"/><rect x="157.5" y="247" width="35" height="506" fill="#8B5CF6" opacity="0.309" rx="4"/><rect x="207.5" y="446.25" width="35" height="107.5" fill="#6366F1" opacity="0.43079999999999996" rx="4"/><rect x="257.5" y="395.5" width="35" height="209" fill="#8B5CF6" opacity="0.5526" rx="4"/><rect x="307.5" y="344.75" width="35" height="310.5" fill="#6366F1" opacity="0.6744" rx="4"/><rect x="357.5" y="294" width="35" height="412" fill="#8B5CF6" opacity="0.7962" rx="4"/><rect x="407.5" y="243.25" width="35" height="513.5" fill="#6366F1" opacity="0.318" rx="4"/><rect x="457.5" y="442.5" width="35" height="115" fill="#8B5CF6" opacity="0.43979999999999997" rx="4"/><rect x="507.5" y="391.75" width="35" height="216.5" fill="#6366F1" opacity="0.5616" rx="4"/><rect x="557.5" y="341" width="35" height="318" fill="#8B5CF6" opacity="0.6834" rx="4"/><rect x="607.5" y="290.25" width="35" height="419.5" fill="#6366F1" opacity="0.8051999999999999" rx="4"/><rect x="657.5" y="239.5" width="35" height="521" fill="#8B5CF6" opacity="0.327" rx="4"/><rect x="707.5" y="438.75" width="35" height="122.5" fill="#6366F1" opacity="0.4488" rx="4"/><rect x="757.5" y="388" width="35" height="224" fill="#8B5CF6" opacity="0.5706" rx="4"/><rect x="807.5" y="337.25" width="35" height="325.5" fill="#6366F1" opacity="0.6924" rx="4"/><rect x="857.5" y="286.5" width="35" height="427" fill="#8B5CF6" opacity="0.8142" rx="4"/><rect x="907.5" y="235.75" width="35" height="528.5" fill="#6366F1" opacity="0.33599999999999997" rx="4"/><rect x="957.5" y="435" width="35" height="130" fill="#8B5CF6" opacity="0.4578" rx="4"/>
    <text x="500" y="960" font-family="system-ui, sans-serif" font-size="36" font-weight="700" fill="white" text-anchor="middle" opacity="0.85">like alt</text>
  </svg>