<svg xmlns="http://www.w3.org/2000/svg" viewBox="0 0 1000 1000" width="1000" height="1000">
    <defs>
      <linearGradient id="g666" x1="0" y1="0" x2="1" y2="1">
        <stop offset="0%" stop-color="#6366F1"/>
        <stop offset="100%" stop-color="#8B5CF6"/>
      </linearGradient>
      <radialGradient id="glow666" cx="50%" cy="50%" r="60%">
        <stop offset="0%" stop-color="#A78BFA" stop-opacity="0.2"/>
        <stop offset="100%" stop-color="#A78BFA" stop-opacity="0"/>
      </radialGradient>
    </defs>
    <rect width="1000" height="1000" fill="#030712"/>
    <rect width="1000" height="1000" fill="url(#glow666)"/>
    <line x1="688.8" y1="677.5999999999999" x2="677.5999999999999" y2="666.4000000000001" stroke="#6366F1" stroke-width="1" opacity="0.37737258300203064"/><line x1="688.8" y1="677.5999999999999" x2="666.4000000000001" y2="655.2" stroke="#6366F1" stroke-width="1" opacity="0.35474516600406125"/><line x1="688.8" y1="677.5999999999999" x2="655.2" y2="644" stroke="#6366F1" stroke-width="1" opacity="0.33211774900609164"/><line x1="688.8" y1="677.5999999999999" x2="644" y2="632.8" stroke="#6366F1" stroke-width="1" opacity="0.30949033200812204"/><line x1="688.8" y1="677.5999999999999" x2="632.8" y2="621.6" stroke="#6366F1" stroke-width="1" opacity="0.28686291501015254"/><line x1="688.8" y1="677.5999999999999" x2="621.6" y2="610.4000000000001" stroke="#6366F1" stroke-width="1" opacity="0.26423549801218316"/><line x1="688.8" y1="677.5999999999999" x2="610.4000000000001" y2="599.2" stroke="#6366F1" stroke-width="1" opacity="0.24160808101421366"/><line x1="688.8" y1="677.5999999999999" x2="599.2" y2="588" stroke="#6366F1" stroke-width="1" opacity="0.21898066401624405"/><line x1="688.8" y1="677.5999999999999" x2="588" y2="576.8" stroke="#6366F1" stroke-width="1" opacity="0.19635324701827442"/><line x1="688.8" y1="677.5999999999999" x2="576.8" y2="565.6" stroke="#6366F1" stroke-width="1" opacity="0.17372583002030492"/><line x1="688.8" y1="677.5999999999999" x2="565.6" y2="554.4" stroke="#6366F1" stroke-width="1" opacity="0.15109841302233543"/><line x1="688.8" y1="677.5999999999999" x2="554.4" y2="543.2" stroke="#6366F1" stroke-width="1" opacity="0.12847099602436596"/><line x1="688.8" y1="677.5999999999999" x2="543.2" y2="532" stroke="#6366F1" stroke-width="1" opacity="0.1058435790263964"/><line x1="688.8" y1="677.5999999999999" x2="532" y2="520.8" stroke="#6366F1" stroke-width="1" opacity="0.08321616202842685"/><line x1="688.8" y1="677.5999999999999" x2="520.8" y2="509.6" stroke="#6366F1" stroke-width="1" opacity="0.0605887450304573"/><line x1="677.5999999999999" y1="666.4000000000001" x2="666.4000000000001" y2="655.2" stroke="#6366F1" stroke-width="1" opacity="0.37737258300203064"/><line x1="677.5999999999999" y1="666.4000000000001" x2="655.2" y2="644" stroke="#6366F1" stroke-width="1" opacity="0.35474516600406103"/><line x1="677.5999999999999" y1="666.4000000000001" x2="644" y2="632.8" stroke="#6366F1" stroke-width="1" opacity="0.3321177490060914"/><line x1="677.5999999999999" y1="666.4000000000001" x2="632.8" y2="621.6" stroke="#6366F1" stroke-width="1" opacity="0.3094903320081219"/><line x1="677.5999999999999" y1="666.4000000000001" x2="621.6" y2="610.4000000000001" stroke="#6366F1" stroke-width="1" opacity="0.28686291501015254"/><line x1="677.5999999999999" y1="666.4000000000001" x2="610.4000000000001" y2="599.2" stroke="#6366F1" stroke-width="1" opacity="0.26423549801218305"/><line x1="677.5999999999999" y1="666.4000000000001" x2="599.2" y2="588" stroke="#6366F1" stroke-width="1" opacity="0.24160808101421344"/><line x1="677.5999999999999" y1="666.4000000000001" x2="588" y2="576.8" stroke="#6366F1" stroke-width="1" opacity="0.2189806640162438"/><line x1="677.5999999999999" y1="666.4000000000001" x2="576.8" y2="565.6" stroke="#6366F1" stroke-width="1" opacity="0.19635324701827428"/><line x1="677.5999999999999" y1="666.4000000000001" x2="565.6" y2="554.4" stroke="#6366F1" stroke-width="1" opacity="0.1737258300203048"/><line x1="677.5999999999999" y1="666.4000000000001" x2="554.4" y2="543.2" stroke="#6366F1" stroke-width="1" opacity="0.1510984130223353"/><line x1="677.5999999999999" y1="666.4000000000001" x2="543.2" y2="532" stroke="#6366F1" stroke-width="1" opacity="0.12847099602436585"/><line x1="677.5999999999999" y1="666.4000000000001" x2="532" y2="520.8" stroke="#6366F1" stroke-width="1" opacity="0.10584357902639618"/><line x1="677.5999999999999" y1="666.4000000000001" x2="520.8" y2="509.6" stroke="#6366F1" stroke-width="1" opacity="0.08321616202842669"/><line x1="666.4000000000001" y1="655.2" x2="655.2" y2="644" stroke="#6366F1" stroke-width="1" opacity="0.3773725830020304"/><line x1="666.4000000000001" y1="655.2" x2="644" y2="632.8" stroke="#6366F1" stroke-width="1" opacity="0.3547451660040608"/><line x1="666.4000000000001" y1="655.2" x2="632.8" y2="621.6" stroke="#6366F1" stroke-width="1" opacity="0.3321177490060913"/><line x1="666.4000000000001" y1="655.2" x2="621.6" y2="610.4000000000001" stroke="#6366F1" stroke-width="1" opacity="0.3094903320081219"/><line x1="666.4000000000001" y1="655.2" x2="610.4000000000001" y2="599.2" stroke="#6366F1" stroke-width="1" opacity="0.28686291501015243"/><line x1="666.4000000000001" y1="655.2" x2="599.2" y2="588" stroke="#6366F1" stroke-width="1" opacity="0.2642354980121828"/><line x1="666.4000000000001" y1="655.2" x2="588" y2="576.8" stroke="#6366F1" stroke-width="1" opacity="0.2416080810142132"/><line x1="666.4000000000001" y1="655.2" x2="576.8" y2="565.6" stroke="#6366F1" stroke-width="1" opacity="0.2189806640162437"/><line x1="666.4000000000001" y1="655.2" x2="565.6" y2="554.4" stroke="#6366F1" stroke-width="1" opacity="0.1963532470182742"/><line x1="666.4000000000001" y1="655.2" x2="554.4" y2="543.2" stroke="#6366F1" stroke-width="1" opacity="0.1737258300203047"/><line x1="666.4000000000001" y1="655.2" x2="543.2" y2="532" stroke="#6366F1" stroke-width="1" opacity="0.1510984130223352"/><line x1="666.4000000000001" y1="655.2" x2="532" y2="520.8" stroke="#6366F1" stroke-width="1" opacity="0.12847099602436557"/><line x1="666.4000000000001" y1="655.2" x2="520.8" y2="509.6" stroke="#6366F1" stroke-width="1" opacity="0.10584357902639613"/><line x1="655.2" y1="644" x2="644" y2="632.8" stroke="#6366F1" stroke-width="1" opacity="0.3773725830020304"/><line x1="655.2" y1="644" x2="632.8" y2="621.6" stroke="#6366F1" stroke-width="1" opacity="0.3547451660040609"/><line x1="655.2" y1="644" x2="621.6" y2="610.4000000000001" stroke="#6366F1" stroke-width="1" opacity="0.33211774900609153"/><line x1="655.2" y1="644" x2="610.4000000000001" y2="599.2" stroke="#6366F1" stroke-width="1" opacity="0.30949033200812204"/><line x1="655.2" y1="644" x2="599.2" y2="588" stroke="#6366F1" stroke-width="1" opacity="0.28686291501015243"/><line x1="655.2" y1="644" x2="588" y2="576.8" stroke="#6366F1" stroke-width="1" opacity="0.2642354980121828"/><line x1="655.2" y1="644" x2="576.8" y2="565.6" stroke="#6366F1" stroke-width="1" opacity="0.2416080810142133"/><line x1="655.2" y1="644" x2="565.6" y2="554.4" stroke="#6366F1" stroke-width="1" opacity="0.2189806640162438"/><line x1="655.2" y1="644" x2="554.4" y2="543.2" stroke="#6366F1" stroke-width="1" opacity="0.19635324701827428"/><line x1="655.2" y1="644" x2="543.2" y2="532" stroke="#6366F1" stroke-width="1" opacity="0.1737258300203048"/><line x1="655.2" y1="644" x2="532" y2="520.8" stroke="#6366F1" stroke-width="1" opacity="0.1510984130223352"/><line x1="655.2" y1="644" x2="520.8" y2="509.6" stroke="#6366F1" stroke-width="1" opacity="0.12847099602436568"/><line x1="644" y1="632.8" x2="632.8" y2="621.6" stroke="#6366F1" stroke-width="1" opacity="0.3773725830020305"/><line x1="644" y1="632.8" x2="621.6" y2="610.4000000000001" stroke="#6366F1" stroke-width="1" opacity="0.35474516600406114"/><line x1="644" y1="632.8" x2="610.4000000000001" y2="599.2" stroke="#6366F1" stroke-width="1" opacity="0.33211774900609164"/><line x1="644" y1="632.8" x2="599.2" y2="588" stroke="#6366F1" stroke-width="1" opacity="0.30949033200812204"/><line x1="644" y1="632.8" x2="588" y2="576.8" stroke="#6366F1" stroke-width="1" opacity="0.28686291501015243"/><line x1="644" y1="632.8" x2="576.8" y2="565.6" stroke="#6366F1" stroke-width="1" opacity="0.26423549801218293"/><line x1="644" y1="632.8" x2="565.6" y2="554.4" stroke="#6366F1" stroke-width="1" opacity="0.24160808101421344"/><line x1="644" y1="632.8" x2="554.4" y2="543.2" stroke="#6366F1" stroke-width="1" opacity="0.21898066401624394"/><line x1="644" y1="632.8" x2="543.2" y2="532" stroke="#6366F1" stroke-width="1" opacity="0.19635324701827442"/><line x1="644" y1="632.8" x2="532" y2="520.8" stroke="#6366F1" stroke-width="1" opacity="0.1737258300203048"/><line x1="644" y1="632.8" x2="520.8" y2="509.6" stroke="#6366F1" stroke-width="1" opacity="0.1510984130223353"/><line x1="632.8" y1="621.6" x2="621.6" y2="610.4000000000001" stroke="#6366F1" stroke-width="1" opacity="0.37737258300203064"/><line x1="632.8" y1="621.6" x2="610.4000000000001" y2="599.2" stroke="#6366F1" stroke-width="1" opacity="0.35474516600406114"/><line x1="632.8" y1="621.6" x2="599.2" y2="588" stroke="#6366F1" stroke-width="1" opacity="0.33211774900609153"/><line x1="632.8" y1="621.6" x2="588" y2="576.8" stroke="#6366F1" stroke-width="1" opacity="0.3094903320081219"/><line x1="632.8" y1="621.6" x2="576.8" y2="565.6" stroke="#6366F1" stroke-width="1" opacity="0.28686291501015243"/><line x1="632.8" y1="621.6" x2="565.6" y2="554.4" stroke="#6366F1" stroke-width="1" opacity="0.26423549801218293"/><line x1="632.8" y1="621.6" x2="554.4" y2="543.2" stroke="#6366F1" stroke-width="1" opacity="0.24160808101421344"/><line x1="632.8" y1="621.6" x2="543.2" y2="532" stroke="#6366F1" stroke-width="1" opacity="0.21898066401624394"/><line x1="632.8" y1="621.6" x2="532" y2="520.8" stroke="#6366F1" stroke-width="1" opacity="0.19635324701827428"/><line x1="632.8" y1="621.6" x2="520.8" y2="509.6" stroke="#6366F1" stroke-width="1" opacity="0.1737258300203048"/><line x1="621.6" y1="610.4000000000001" x2="610.4000000000001" y2="599.2" stroke="#6366F1" stroke-width="1" opacity="0.3773725830020305"/><line x1="621.6" y1="610.4000000000001" x2="599.2" y2="588" stroke="#6366F1" stroke-width="1" opacity="0.3547451660040609"/><line x1="621.6" y1="610.4000000000001" x2="588" y2="576.8" stroke="#6366F1" stroke-width="1" opacity="0.3321177490060913"/><line x1="621.6" y1="610.4000000000001" x2="576.8" y2="565.6" stroke="#6366F1" stroke-width="1" opacity="0.3094903320081218"/><line x1="621.6" y1="610.4000000000001" x2="565.6" y2="554.4" stroke="#6366F1" stroke-width="1" opacity="0.28686291501015226"/><line x1="621.6" y1="610.4000000000001" x2="554.4" y2="543.2" stroke="#6366F1" stroke-width="1" opacity="0.2642354980121828"/><line x1="621.6" y1="610.4000000000001" x2="543.2" y2="532" stroke="#6366F1" stroke-width="1" opacity="0.2416080810142133"/><line x1="621.6" y1="610.4000000000001" x2="532" y2="520.8" stroke="#6366F1" stroke-width="1" opacity="0.2189806640162437"/><line x1="621.6" y1="610.4000000000001" x2="520.8" y2="509.6" stroke="#6366F1" stroke-width="1" opacity="0.1963532470182742"/><line x1="610.4000000000001" y1="599.2" x2="599.2" y2="588" stroke="#6366F1" stroke-width="1" opacity="0.3773725830020304"/><line x1="610.4000000000001" y1="599.2" x2="588" y2="576.8" stroke="#6366F1" stroke-width="1" opacity="0.3547451660040608"/><line x1="610.4000000000001" y1="599.2" x2="576.8" y2="565.6" stroke="#6366F1" stroke-width="1" opacity="0.3321177490060913"/><line x1="610.4000000000001" y1="599.2" x2="565.6" y2="554.4" stroke="#6366F1" stroke-width="1" opacity="0.3094903320081218"/><line x1="610.4000000000001" y1="599.2" x2="554.4" y2="543.2" stroke="#6366F1" stroke-width="1" opacity="0.28686291501015226"/><line x1="610.4000000000001" y1="599.2" x2="543.2" y2="532" stroke="#6366F1" stroke-width="1" opacity="0.2642354980121828"/><line x1="610.4000000000001" y1="599.2" x2="532" y2="520.8" stroke="#6366F1" stroke-width="1" opacity="0.2416080810142132"/><line x1="610.4000000000001" y1="599.2" x2="520.8" y2="509.6" stroke="#6366F1" stroke-width="1" opacity="0.2189806640162437"/><line x1="599.2" y1="588" x2="588" y2="576.8" stroke="#6366F1" stroke-width="1" opacity="0.3773725830020304"/><line x1="599.2" y1="588" x2="576.8" y2="565.6" stroke="#6366F1" stroke-width="1" opacity="0.3547451660040609"/><line x1="599.2" y1="588" x2="565.6" y2="554.4" stroke="#6366F1" stroke-width="1" opacity="0.3321177490060914"/><line x1="599.2" y1="588" x2="554.4" y2="543.2" stroke="#6366F1" stroke-width="1" opacity="0.3094903320081219"/><line x1="599.2" y1="588" x2="543.2" y2="532" stroke="#6366F1" stroke-width="1" opacity="0.28686291501015243"/><line x1="599.2" y1="588" x2="532" y2="520.8" stroke="#6366F1" stroke-width="1" opacity="0.2642354980121828"/><line x1="599.2" y1="588" x2="520.8" y2="509.6" stroke="#6366F1" stroke-width="1" opacity="0.2416080810142133"/><line x1="588" y1="576.8" x2="576.8" y2="565.6" stroke="#6366F1" stroke-width="1" opacity="0.3773725830020305"/><line x1="588" y1="576.8" x2="565.6" y2="554.4" stroke="#6366F1" stroke-width="1" opacity="0.35474516600406103"/><line x1="588" y1="576.8" x2="554.4" y2="543.2" stroke="#6366F1" stroke-width="1" opacity="0.33211774900609153"/><line x1="588" y1="576.8" x2="543.2" y2="532" stroke="#6366F1" stroke-width="1" opacity="0.30949033200812204"/><line x1="588" y1="576.8" x2="532" y2="520.8" stroke="#6366F1" stroke-width="1" opacity="0.28686291501015243"/><line x1="588" y1="576.8" x2="520.8" y2="509.6" stroke="#6366F1" stroke-width="1" opacity="0.26423549801218293"/><line x1="576.8" y1="565.6" x2="565.6" y2="554.4" stroke="#6366F1" stroke-width="1" opacity="0.3773725830020305"/><line x1="576.8" y1="565.6" x2="554.4" y2="543.2" stroke="#6366F1" stroke-width="1" opacity="0.35474516600406103"/><line x1="576.8" y1="565.6" x2="543.2" y2="532" stroke="#6366F1" stroke-width="1" opacity="0.33211774900609153"/><line x1="576.8" y1="565.6" x2="532" y2="520.8" stroke="#6366F1" stroke-width="1" opacity="0.3094903320081219"/><line x1="576.8" y1="565.6" x2="520.8" y2="509.6" stroke="#6366F1" stroke-width="1" opacity="0.28686291501015243"/><line x1="565.6" y1="554.4" x2="554.4" y2="543.2" stroke="#6366F1" stroke-width="1" opacity="0.3773725830020305"/><line x1="565.6" y1="554.4" x2="543.2" y2="532" stroke="#6366F1" stroke-width="1" opacity="0.35474516600406103"/><line x1="565.6" y1="554.4" x2="532" y2="520.8" stroke="#6366F1" stroke-width="1" opacity="0.3321177490060914"/><line x1="565.6" y1="554.4" x2="520.8" y2="509.6" stroke="#6366F1" stroke-width="1" opacity="0.3094903320081219"/><line x1="554.4" y1="543.2" x2="543.2" y2="532" stroke="#6366F1" stroke-width="1" opacity="0.3773725830020305"/><line x1="554.4" y1="543.2" x2="532" y2="520.8" stroke="#6366F1" stroke-width="1" opacity="0.3547451660040609"/><line x1="554.4" y1="543.2" x2="520.8" y2="509.6" stroke="#6366F1" stroke-width="1" opacity="0.3321177490060914"/><line x1="543.2" y1="532" x2="532" y2="520.8" stroke="#6366F1" stroke-width="1" opacity="0.3773725830020304"/><line x1="543.2" y1="532" x2="520.8" y2="509.6" stroke="#6366F1" stroke-width="1" opacity="0.3547451660040609"/><line x1="532" y1="520.8" x2="520.8" y2="509.6" stroke="#6366F1" stroke-width="1" opacity="0.3773725830020305"/><circle cx="688.8" cy="677.5999999999999" r="6" fill="#06B6D4" opacity="0.8"/><circle cx="677.5999999999999" cy="666.4000000000001" r="6" fill="#06B6D4" opacity="0.8"/><circle cx="666.4000000000001" cy="655.2" r="6" fill="#06B6D4" opacity="0.8"/><circle cx="655.2" cy="644" r="6" fill="#06B6D4" opacity="0.8"/><circle cx="644" cy="632.8" r="6" fill="#06B6D4" opacity="0.8"/><circle cx="632.8" cy="621.6" r="6" fill="#06B6D4" opacity="0.8"/><circle cx="621.6" cy="610.4000000000001" r="6" fill="#06B6D4" opacity="0.8"/><circle cx="610.4000000000001" cy="599.2" r="6" fill="#06B6D4" opacity="0.8"/><circle cx="599.2" cy="588" r="6" fill="#06B6D4" opacity="0.8"/><circle cx="588" cy="576.8" r="6" fill="#06B6D4" opacity="0.8"/><circle cx="576.8" cy="565.6" r="6" fill="#06B6D4" opacity="0.8"/><circle cx="565.6" cy="554.4" r="6" fill="#06B6D4" opacity="0.8"/><circle cx="554.4" cy="543.2" r="6" fill="#06B6D4" opacity="0.8"/><circle cx="543.2" cy="532" r="6" fill="#06B6D4" opacity="0.8"/><circle cx="532" cy="520.8" r="6" fill="#06B6D4" opacity="0.8"/><circle cx="520.8" cy="509.6" r="6" fill="#06B6D4" opacity="0.8"/>
    <text x="500" y="960" font-family="system-ui, sans-serif" font-size="36" font-weight="700" fill="white" text-anchor="middle" opacity="0.85">journey alt</text>
  </svg>