<svg xmlns="http://www.w3.org/2000/svg" viewBox="0 0 1000 1000" width="1000" height="1000">
    <defs>
      <linearGradient id="g668" x1="0" y1="0" x2="1" y2="1">
        <stop offset="0%" stop-color="#10B981"/>
        <stop offset="100%" stop-color="#14B8A6"/>
      </linearGradient>
      <radialGradient id="glow668" cx="50%" cy="50%" r="60%">
        <stop offset="0%" stop-color="#6EE7B7" stop-opacity="0.2"/>
        <stop offset="100%" stop-color="#6EE7B7" stop-opacity="0"/>
      </radialGradient>
    </defs>
    <rect width="1000" height="1000" fill="#030712"/>
    <rect width="1000" height="1000" fill="url(#glow668)"/>
    <circle cx="535.972373138612" cy="510.942959872743" r="3.128" fill="#F59E0B" opacity="0.4128"/><circle cx="546.8456087146438" cy="531.4077847699338" r="3.504" fill="#10B981" opacity="0.44099999999999995"/><circle cx="547.569276175867" cy="558.2426301269447" r="3.88" fill="#14B8A6" opacity="0.46919999999999995"/><circle cx="535.6992349790493" cy="586.9572574424391" r="4.256" fill="#F59E0B" opacity="0.49739999999999995"/><circle cx="510.6154177423284" cy="612.2993896072275" r="4.632" fill="#14B8A6" opacity="0.5256"/><circle cx="473.71816656430406" cy="628.9489248937668" r="5.008" fill="#10B981" opacity="0.5538"/><circle cx="428.3737741683419" cy="632.2491730526597" r="5.384" fill="#F59E0B" opacity="0.582"/><circle cx="379.6081634161889" cy="618.8883748899652" r="5.76" fill="#10B981" opacity="0.6102"/><circle cx="333.5765134694984" cy="587.4484026785622" r="6.136" fill="#14B8A6" opacity="0.6384"/><circle cx="296.8629965493072" cy="538.7504558563279" r="6.512" fill="#F59E0B" opacity="0.6666"/><circle cx="275.68574168643704" cy="475.9485235955014" r="6.888" fill="#14B8A6" opacity="0.6948"/><circle cx="275.09533650378125" cy="404.3482758249878" r="7.264" fill="#10B981" opacity="0.723"/><circle cx="298.2590406077791" cy="330.959101683923" r="7.64" fill="#F59E0B" opacity="0.7512"/><circle cx="345.91679422093614" cy="263.817092708116" r="8.016" fill="#10B981" opacity="0.7794"/><circle cx="416.0794753033997" cy="211.14365934837554" r="8.392" fill="#14B8A6" opacity="0.8075999999999999"/><circle cx="504.0161063467195" cy="180.42523427246033" r="8.768" fill="#F59E0B" opacity="0.8357999999999999"/><circle cx="602.5471352437307" cy="177.5117908305732" r="9.144" fill="#14B8A6" opacity="0.8639999999999999"/><circle cx="702.6284686280774" cy="205.83415612712565" r="9.52" fill="#10B981" opacity="0.8921999999999999"/><circle cx="794.1789447767972" cy="265.8317945364697" r="9.896" fill="#F59E0B" opacity="0.3204"/><circle cx="867.0757566286816" cy="354.66442660008886" r="2.2720000000000002" fill="#10B981" opacity="0.34859999999999997"/><circle cx="513.5546566212628" cy="498.89036768267306" r="2.648" fill="#14B8A6" opacity="0.37679999999999997"/><circle cx="531.6634872036095" cy="506.8690303614746" r="3.024" fill="#F59E0B" opacity="0.40499999999999997"/><circle cx="544.7110376862679" cy="524.947206437137" r="3.4" fill="#14B8A6" opacity="0.4332"/><circle cx="548.5557314068964" cy="550.4216317421535" r="3.776" fill="#10B981" opacity="0.46140000000000003"/><circle cx="540.3143563768717" cy="579.121379347927" r="4.152" fill="#F59E0B" opacity="0.4896"/><circle cx="518.8324811457397" cy="605.9391223953426" r="4.5280000000000005" fill="#10B981" opacity="0.5178"/><circle cx="484.94611896400846" cy="625.5003612176245" r="4.904" fill="#14B8A6" opacity="0.5459999999999999"/><circle cx="441.4979855343762" cy="632.8930182645572" r="5.279999999999999" fill="#F59E0B" opacity="0.5742"/><circle cx="393.09926905065595" cy="624.3713541073504" r="5.656000000000001" fill="#14B8A6" opacity="0.6024"/><circle cx="345.65685521823167" cy="597.9491381221607" r="6.032" fill="#10B981" opacity="0.6306"/><circle cx="305.7133064567341" cy="553.8074410469877" r="6.408" fill="#F59E0B" opacity="0.6587999999999999"/><circle cx="279.66960468196066" cy="494.4613269642884" r="6.784" fill="#10B981" opacity="0.687"/><circle cx="272.97620211832157" cy="424.655224498451" r="7.16" fill="#14B8A6" opacity="0.7152"/><circle cx="289.3844733149665" cy="350.986242517055" r="7.536" fill="#F59E0B" opacity="0.7434"/><circle cx="330.34732754885613" cy="281.28509257440896" r="7.912" fill="#14B8A6" opacity="0.7716000000000001"/><circle cx="394.6446486523629" cy="223.81236460982552" r="8.288" fill="#10B981" opacity="0.7998"/><circle cx="478.2875279153907" cy="186.35062800003078" r="8.664" fill="#F59E0B" opacity="0.8280000000000001"/><circle cx="574.7270175483338" cy="175.28764598751252" r="9.04" fill="#10B981" opacity="0.8562000000000001"/><circle cx="675.3611570795006" cy="194.7911131900994" r="9.416" fill="#14B8A6" opacity="0.8843999999999999"/><circle cx="770.3015670478593" cy="246.16993312164212" r="9.792" fill="#F59E0B" opacity="0.3126"/><circle cx="849.3313479315278" cy="327.50139318724393" r="2.168" fill="#14B8A6" opacity="0.3408"/><circle cx="508.2881619313461" cy="498.63384781236294" r="2.544" fill="#10B981" opacity="0.369"/><circle cx="526.9635675650906" cy="503.57855056731006" r="2.92" fill="#F59E0B" opacity="0.3972"/><circle cx="541.8648746515098" cy="519.0612767256911" r="3.2960000000000003" fill="#10B981" opacity="0.4254"/><circle cx="548.6071973120538" cy="542.8530088729726" r="3.6719999999999997" fill="#14B8A6" opacity="0.4536"/><circle cx="543.9045990647643" cy="571.1431386780363" r="4.048" fill="#F59E0B" opacity="0.4818"/><circle cx="526.0885223099783" cy="599.0209523468734" r="4.4239999999999995" fill="#14B8A6" opacity="0.51"/><circle cx="495.4319498604039" cy="621.1138840840395" r="4.8" fill="#10B981" opacity="0.5382"/><circle cx="454.23567584830806" cy="632.3088305251727" r="5.176" fill="#F59E0B" opacity="0.5664"/><circle cx="406.6597019359553" cy="628.4718987067416" r="5.552" fill="#10B981" opacity="0.5946"/><circle cx="358.3117075379498" cy="607.0802866039708" r="5.928" fill="#14B8A6" opacity="0.6228"/><circle cx="315.63267035677916" cy="567.6878701114751" r="6.304" fill="#F59E0B" opacity="0.651"/><circle cx="285.14398641654856" cy="512.1627886205317" r="6.68" fill="#14B8A6" opacity="0.6792"/><circle cx="272.6381744979663" cy="444.6592346964484" r="7.056" fill="#10B981" opacity="0.7074"/><circle cx="282.40441557340296" cy="371.31433009830624" r="7.432" fill="#F59E0B" opacity="0.7356"/><circle cx="316.5796093143297" cy="299.69143732552004" r="7.808" fill="#10B981" opacity="0.7638"/><circle cx="374.70516433424956" cy="238.02029819947393" r="8.184000000000001" fill="#14B8A6" opacity="0.7919999999999999"/><circle cx="453.55024784386177" cy="194.308880527037" r="8.559999999999999" fill="#F59E0B" opacity="0.8202"/><circle cx="547.2355366771386" cy="175.41903309833043" r="8.936" fill="#14B8A6" opacity="0.8484"/><circle cx="647.6602583147669" cy="186.2059782047843" r="9.312000000000001" fill="#10B981" opacity="0.8766"/><circle cx="745.2026467818247" cy="228.81920788671675" r="9.687999999999999" fill="#F59E0B" opacity="0.3048"/><circle cx="829.6332466408398" cy="302.2494432143888" r="2.064" fill="#10B981" opacity="0.33299999999999996"/><circle cx="503.10440510876833" cy="499.2236824614547" r="2.44" fill="#14B8A6" opacity="0.36119999999999997"/><circle cx="521.9722130453324" cy="501.1053749999549" r="2.816" fill="#F59E0B" opacity="0.38939999999999997"/><circle cx="538.3879353733324" cy="513.8205071460079" r="3.192" fill="#14B8A6" opacity="0.41759999999999997"/><circle cx="547.7733922983042" cy="535.6351369902281" r="3.568" fill="#10B981" opacity="0.4458"/><circle cx="546.479974700627" cy="563.136138239752" r="3.944" fill="#F59E0B" opacity="0.474"/><circle cx="532.3500597276343" cy="591.6586800887865" r="4.32" fill="#10B981" opacity="0.5022"/><circle cx="505.10030172487234" cy="615.8878204226625" r="4.696" fill="#14B8A6" opacity="0.5304"/><circle cx="466.4766032101776" cy="630.5650101201395" r="5.072" fill="#F59E0B" opacity="0.5586"/><circle cx="420.15605617345904" cy="631.2170135090117" r="5.448" fill="#14B8A6" opacity="0.5868"/><circle cx="371.399746528871" cy="614.820445945665" r="5.824" fill="#10B981" opacity="0.615"/><circle cx="326.4889780277384" cy="580.3203912723374" r="6.2" fill="#F59E0B" opacity="0.6432"/><circle cx="292.0031006037033" cy="528.9359610437741" r="6.576" fill="#10B981" opacity="0.6714"/><circle cx="274.0169076718325" cy="464.2077943987952" r="6.952" fill="#14B8A6" opacity="0.6996"/><circle cx="277.3072597121665" cy="391.77013617722906" r="7.328" fill="#F59E0B" opacity="0.7278"/><circle cx="304.66077576630994" cy="318.86041990834747" r="7.704" fill="#14B8A6" opacity="0.756"/><circle cx="356.36666289348096" cy="253.60904141660342" r="8.08" fill="#10B981" opacity="0.7842"/><circle cx="429.9616142903162" cy="204.17805266143358" r="8.456" fill="#F59E0B" opacity="0.8124"/><circle cx="520.2687797040621" cy="177.83697206335393" r="8.832" fill="#10B981" opacity="0.8406"/><circle cx="619.742523777334" cy="180.0745586868175" r="9.208" fill="#14B8A6" opacity="0.8688"/><circle cx="719.0980792891357" cy="213.8458603273201" r="9.584" fill="#F59E0B" opacity="0.897"/><circle cx="808.1736271530292" cy="279.0437701096761" r="9.96" fill="#14B8A6" opacity="0.3252"/><circle cx="876.9451253879081" cy="372.2644432967305" r="2.336" fill="#10B981" opacity="0.3534"/><circle cx="516.7917102141442" cy="499.47229924748746" r="2.7119999999999997" fill="#F59E0B" opacity="0.3816"/><circle cx="534.3675863424645" cy="509.28595762392035" r="3.088" fill="#10B981" opacity="0.4098"/><circle cx="546.1136797230286" cy="528.8598084262863" r="3.464" fill="#14B8A6" opacity="0.438"/><circle cx="548.0620773211164" cy="555.2112010698828" r="3.84" fill="#F59E0B" opacity="0.4662"/><circle cx="537.5957148757441" cy="583.9676260411222" r="4.216" fill="#14B8A6" opacity="0.49439999999999995"/><circle cx="513.8869222789249" cy="609.9263089056442" r="4.5920000000000005" fill="#10B981" opacity="0.5226"/><circle cx="478.1191855652297" cy="627.7395395313101" r="4.968" fill="#F59E0B" opacity="0.5508"/><circle cx="433.45993073223923" cy="632.6460673440475" r="5.343999999999999" fill="#10B981" opacity="0.579"/><circle cx="384.7801712376354" cy="621.1620033672742" r="5.720000000000001" fill="#14B8A6" opacity="0.6072"/><circle cx="338.1458216314682" cy="591.6472855279823" r="6.096" fill="#F59E0B" opacity="0.6354"/><circle cx="300.1322471549445" cy="544.6757358380119" r="6.472" fill="#14B8A6" opacity="0.6636"/><circle cx="277.0352699017267" cy="483.15692628395425" r="6.848" fill="#10B981" opacity="0.6918"/><circle cx="274.06596234012966" cy="412.18445111081803" r="7.224" fill="#F59E0B" opacity="0.72"/><circle cx="294.62146152591515" cy="338.61506906080473" r="7.6" fill="#10B981" opacity="0.7482"/><circle cx="339.7190048335144" cy="270.41340938887345" r="7.976" fill="#14B8A6" opacity="0.7764"/><circle cx="407.66572208076565" cy="215.82431293100814" r="8.352" fill="#F59E0B" opacity="0.8046"/>
    <text x="500" y="960" font-family="system-ui, sans-serif" font-size="36" font-weight="700" fill="white" text-anchor="middle" opacity="0.85">goal alt</text>
  </svg>