<svg xmlns="http://www.w3.org/2000/svg" viewBox="0 0 1000 1000" width="1000" height="1000">
    <defs>
      <linearGradient id="g669" x1="0" y1="0" x2="1" y2="1">
        <stop offset="0%" stop-color="#F59E0B"/>
        <stop offset="100%" stop-color="#EF4444"/>
      </linearGradient>
      <radialGradient id="glow669" cx="50%" cy="50%" r="60%">
        <stop offset="0%" stop-color="#FCD34D" stop-opacity="0.2"/>
        <stop offset="100%" stop-color="#FCD34D" stop-opacity="0"/>
      </radialGradient>
    </defs>
    <rect width="1000" height="1000" fill="#030712"/>
    <rect width="1000" height="1000" fill="url(#glow669)"/>
    <rect x="7.5" y="376.75" width="35" height="246.5" fill="#EF4444" opacity="0.6516" rx="4"/><rect x="57.5" y="303.5" width="35" height="393" fill="#F59E0B" opacity="0.8273999999999999" rx="4"/><rect x="107.5" y="230.25" width="35" height="539.5" fill="#EF4444" opacity="0.4032" rx="4"/><rect x="157.5" y="407" width="35" height="186" fill="#F59E0B" opacity="0.579" rx="4"/><rect x="207.5" y="333.75" width="35" height="332.5" fill="#EF4444" opacity="0.7547999999999999" rx="4"/><rect x="257.5" y="260.5" width="35" height="479" fill="#F59E0B" opacity="0.3306" rx="4"/><rect x="307.5" y="437.25" width="35" height="125.5" fill="#EF4444" opacity="0.5064" rx="4"/><rect x="357.5" y="364" width="35" height="272" fill="#F59E0B" opacity="0.6821999999999999" rx="4"/><rect x="407.5" y="290.75" width="35" height="418.5" fill="#EF4444" opacity="0.8580000000000001" rx="4"/><rect x="457.5" y="217.5" width="35" height="565" fill="#F59E0B" opacity="0.43379999999999996" rx="4"/><rect x="507.5" y="394.25" width="35" height="211.5" fill="#EF4444" opacity="0.6095999999999999" rx="4"/><rect x="557.5" y="321" width="35" height="358" fill="#F59E0B" opacity="0.7854" rx="4"/><rect x="607.5" y="247.75" width="35" height="504.5" fill="#EF4444" opacity="0.36119999999999997" rx="4"/><rect x="657.5" y="424.5" width="35" height="151" fill="#F59E0B" opacity="0.5369999999999999" rx="4"/><rect x="707.5" y="351.25" width="35" height="297.5" fill="#EF4444" opacity="0.7127999999999999" rx="4"/><rect x="757.5" y="278" width="35" height="444" fill="#F59E0B" opacity="0.8886000000000001" rx="4"/><rect x="807.5" y="204.75" width="35" height="590.5" fill="#EF4444" opacity="0.46440000000000003" rx="4"/><rect x="857.5" y="381.5" width="35" height="237" fill="#F59E0B" opacity="0.6401999999999999" rx="4"/><rect x="907.5" y="308.25" width="35" height="383.5" fill="#EF4444" opacity="0.8160000000000001" rx="4"/><rect x="957.5" y="235" width="35" height="530" fill="#F59E0B" opacity="0.3918" rx="4"/>
    <text x="500" y="960" font-family="system-ui, sans-serif" font-size="36" font-weight="700" fill="white" text-anchor="middle" opacity="0.85">target alt</text>
  </svg>