<svg xmlns="http://www.w3.org/2000/svg" viewBox="0 0 1000 1000" width="1000" height="1000">
    <defs>
      <linearGradient id="g674" x1="0" y1="0" x2="1" y2="1">
        <stop offset="0%" stop-color="#10B981"/>
        <stop offset="100%" stop-color="#14B8A6"/>
      </linearGradient>
      <radialGradient id="glow674" cx="50%" cy="50%" r="60%">
        <stop offset="0%" stop-color="#6EE7B7" stop-opacity="0.2"/>
        <stop offset="100%" stop-color="#6EE7B7" stop-opacity="0"/>
      </radialGradient>
    </defs>
    <rect width="1000" height="1000" fill="#030712"/>
    <rect width="1000" height="1000" fill="url(#glow674)"/>
    <path d="M 0 500 L 0 446.87574388283235 L 16.666666666666668 492.8240028837588 L 33.333333333333336 539.4746985193069 L 50 582.2613354141054 L 66.66666666666667 616.9956592056853 L 83.33333333333333 640.2776320853925 L 100 649.8282522069244 L 116.66666666666667 644.7126429838505 L 133.33333333333334 625.4315520668058 L 150 593.8723462227406 L 166.66666666666666 553.1242605761039 L 183.33333333333331 507.17600187875837 L 200 460.5253060806029 L 216.66666666666669 417.73866857292575 L 233.33333333333334 383.0043437781886 L 250 359.722369603242 L 266.6666666666667 350.17174802117535 L 283.3333333333333 355.287360467137 L 300 374.5684551247085 L 316.66666666666663 406.12766400534497 L 333.3333333333333 446.87575168735657 L 350 492.82399335872446 L 366.66666666666663 539.4746893194873 L 383.33333333333337 582.2613274400431 L 400 616.9956532379373 L 416.6666666666667 640.2776287081233 L 433.33333333333337 649.8282517507247 L 450 644.7126407876259 L 466.6666666666667 625.4315474900922 L 483.3333333333333 593.8723397135386 L 500 553.1242527715797 L 516.6666666666667 507.17599354287324 L 533.3333333333334 460.5252980293313 L 550 417.73866159438234 L 566.6666666666666 383.0043385554818 L 583.3333333333334 359.7223729805115 L 600 350.17174847737533 L 616.6666666666667 355.28735795761133 L 633.3333333333333 374.5684498951073 L 650 406.12765656757784 L 666.6666666666666 446.875742769484 L 683.3333333333334 492.8240016946096 L 700 539.474697370759 L 716.6666666666666 582.2613344185867 L 733.3333333333333 616.9956584606442 L 750 640.2776316637587 L 766.6666666666667 649.8282521499704 L 783.3333333333334 644.7126385914008 L 800 625.4315527196932 L 816.6666666666666 593.8723471513056 L 833.3333333333334 553.1242616894522 L 850 507.1760030679076 L 866.6666666666667 460.5253072291507 L 883.3333333333333 417.73866956844444 L 900 383.0043445232298 L 916.6666666666666 359.7223700248759 L 933.3333333333334 350.17174807812944 L 950 355.2873601538362 L 966.6666666666666 374.568454471821 L 983.3333333333333 406.12766307677987 L 1000 446.87575057400824" stroke="#10B981" stroke-width="3" fill="none" opacity="0.7"/><path d="M 0 500 L 0 643.5184198421717 L 16.666666666666668 649.4982359291909 L 33.333333333333336 648.6974124430803 L 50 641.17052488444 L 66.66666666666667 627.4305116467572 L 83.33333333333333 608.4137439949852 L 100 585.4161666569582 L 116.66666666666667 560.0050467240804 L 133.33333333333334 533.9120878963914 L 150 508.91550511744447 L 166.66666666666666 486.7187616567341 L 183.33333333333331 468.83452133464993 L 200 456.4815812835848 L 216.66666666666669 450.50176319614013 L 233.33333333333334 451.3025870455412 L 250 458.8294787072806 L 266.6666666666667 472.56948634175296 L 283.3333333333333 491.5862534250476 L 300 514.5838303704176 L 316.66666666666663 539.9949501132179 L 333.3333333333333 566.0879089663623 L 350 591.0844919845629 L 366.66666666666663 613.2812451124566 L 383.33333333333337 631.165476808581 L 400 643.5184218125953 L 416.6666666666667 649.4982364858345 L 433.33333333333337 648.697413465837 L 450 641.1705225986522 L 466.6666666666667 627.4305156697368 L 483.3333333333333 608.4137394792408 L 500 585.4161726022066 L 516.6666666666667 560.0050411883697 L 533.3333333333334 533.9120941708838 L 550 508.91551091342996 L 566.6666666666666 486.71875734878904 L 583.3333333333334 468.83452504818797 L 600 456.4815793131611 L 616.6666666666667 450.5017638321911 L 633.3333333333333 451.3025879406124 L 650 458.8294760954152 L 666.6666666666666 472.5694898624854 L 683.3333333333334 491.58625794079194 L 700 514.5838244251693 L 716.6666666666666 539.9949556489287 L 733.3333333333333 566.0879026918699 L 750 591.0844970569507 L 766.6666666666667 613.2812401899653 L 783.3333333333334 631.1654800585038 L 800 643.5184195610825 L 816.6666666666666 649.4982370424777 L 833.3333333333334 648.6974125707661 L 850 641.1705252105174 L 866.6666666666667 627.4305121490045 L 883.3333333333333 608.4137446391752 L 900 585.4161673991905 L 916.6666666666666 560.005047513773 L 933.3333333333334 533.912088679728 L 950 508.915505841042 L 966.6666666666666 486.71876227128064 L 983.3333333333333 468.83452179826514 L 1000 456.48158156467406" stroke="#14B8A6" stroke-width="2" fill="none" opacity="0.5"/>
    <text x="500" y="960" font-family="system-ui, sans-serif" font-size="36" font-weight="700" fill="white" text-anchor="middle" opacity="0.85">certificate alt</text>
  </svg>